<svg width="26" height="39" xmlns="http://www.w3.org/2000/svg"><g fill="none" fill-rule="evenodd"><path d="M8.37 1.432a.5.5 0 0 0-.495.424l-5.47 35.46a.5.5 0 0 0 .494.577l20.591-.006a.5.5 0 0 0 .488-.607L16.21 1.825a.5.5 0 0 0-.488-.393H8.369z" stroke="#FD7B33" fill="#FD7B33"/><path d="M7.265 5.816l-.537 3.485c2.613-.22 4.373-.329 5.291-.329.936 0 2.876.114 5.833.342l-.763-3.494c-2.593-.202-4.291-.303-5.081-.303-.785 0-2.37.1-4.743.3zM5.649 16.286l-.547 3.555c3.396-.22 5.7-.33 6.917-.33 1.274 0 3.986.12 8.146.361l-.773-3.543c-3.786-.358-6.25-.537-7.373-.537-1.075 0-3.204.164-6.37.494zM4.037 26.738l-.551 3.57c4.087-.187 6.873-.281 8.363-.281 1.66 0 5.197.116 10.617.349l-.773-3.531c-5.051-.358-8.337-.537-9.844-.537-1.348 0-3.956.144-7.812.43z" stroke="#FFF" fill="#FFF"/><path stroke="#FD7B33" d="M1.126 37.466h24v1h-24z"/></g></svg>