<svg data-name="Layer 1" xmlns="http://www.w3.org/2000/svg" viewBox="0 0 80 80"><path d="M43.84 10.59A3.84 3.84 0 1 1 40 6.75a3.84 3.84 0 0 1 3.84 3.84zM20 43.47a3.82 3.82 0 0 1-3.82 3.83 3.82 3.82 0 0 1-3.84-3.82 3.83 3.83 0 0 1 3.83-3.83A3.82 3.82 0 0 1 20 43.46zm40 0a3.82 3.82 0 0 0 3.83 3.83 3.83 3.83 0 0 0 3.84-3.83 3.82 3.82 0 0 0-3.83-3.83A3.82 3.82 0 0 0 60 43.46zm-16.18 0A3.83 3.83 0 0 1 40 47.3a3.83 3.83 0 0 1-3.84-3.82A3.83 3.83 0 0 1 40 39.64a3.83 3.83 0 0 1 3.84 3.82zm0 26.28a3.84 3.84 0 0 1-7.68 0A3.84 3.84 0 0 1 40 65.92a3.83 3.83 0 0 1 3.84 3.83zm-17.09 0a3.84 3.84 0 0 1-7.67 0 3.84 3.84 0 0 1 3.83-3.83 3.82 3.82 0 0 1 3.83 3.83zm-17.08 0a3.84 3.84 0 1 1-7.67 0H2a3.83 3.83 0 0 1 3.83-3.83 3.83 3.83 0 0 1 3.83 3.83zm43.58 0a3.83 3.83 0 0 0 3.83 3.84 3.84 3.84 0 1 0-3.83-3.85zm17.08 0a3.84 3.84 0 0 0 3.83 3.84 3.84 3.84 0 1 0-3.84-3.85zM40 14.43v25.21m-23.85 0L40 14.42m0 32.89v18.61M9.67 69.75h9.41m7.67 0h9.41m7.68 0h9.41m7.67 0h9.41M16.15 47.31L5.84 65.92m17.08 0l-6.77-18.61M40 65.92l23.85-18.61m0 0l-6.77 18.61m17.09 0L63.86 47.31m0-7.68L40 14.42m-17.08 51.5L40 47.31" fill="none" stroke="#21374d" stroke-width="4"/></svg>