<svg id="Layer_1" data-name="Layer 1" xmlns="http://www.w3.org/2000/svg" viewBox="0 0 80 80"><defs><style>.cls-1{fill:none;stroke:#21374d;stroke-linecap:round;stroke-linejoin:round;stroke-width:4px}</style></defs><path class="cls-1" d="M67.87 17.21v30.4a5.07 5.07 0 0 1-5.07 5.07H17.19a5.07 5.07 0 0 1-5.06-5.07v-30.4M72.93 78H7.07a5.07 5.07 0 0 1-4.54-7.33l6.21-12.39a10.12 10.12 0 0 1 9.06-5.6h44.4a10.12 10.12 0 0 1 9.06 5.6l6.2 12.41a5.05 5.05 0 0 1-2.26 6.79 5 5 0 0 1-2.27.54zm-38-10.14h10.14"/><path class="cls-1" d="M40 7.62S41.61 2.55 55.41 2a2.14 2.14 0 0 1 2.32 2v20.84a2.13 2.13 0 0 1-2.21 2C41.63 27.3 40 32.41 40 32.41V7.62S38.39 2.53 24.59 2a2.14 2.14 0 0 0-2.32 2v20.84a2.15 2.15 0 0 0 2.22 2C38.36 27.3 40 32.41 40 32.41"/></svg>