<svg id="Layer_1" data-name="Layer 1" xmlns="http://www.w3.org/2000/svg" viewBox="0 0 80 80"><defs><style>.cls-1{fill:none;stroke:#21374d;stroke-linecap:round;stroke-width:4px}</style></defs><path class="cls-1" d="M27.1 60.92a71.45 71.45 0 0 0-20.34-3.59 5 5 0 0 1-4.76-5V7.08A5.07 5.07 0 0 1 7.06 2h.36C28.81 3.13 40 10.76 40 16.6 40 10.8 52.61 3.22 72.65 2a5.09 5.09 0 0 1 5.43 4.69v42.99M40 16.6v13.15m-9-8.3a83.06 83.06 0 0 0-18.85-4.4m52.97 13.44c1.17-.19 2.36-.36 3.59-.52m-37.65 4.38A84.25 84.25 0 0 0 12.21 30m18.85 18a85.77 85.77 0 0 0-19-4.39m37.79-22.14a85.22 85.22 0 0 1 19-4.39"/><path class="cls-1" d="M77.7 77.94l.34-3.8a10.15 10.15 0 0 0-7.9-10.82l-12.35-2.74V41.16a6.34 6.34 0 0 0-12.68 0v31.13l-5-3.75a5.19 5.19 0 0 0-7.26 7.26l1.6 2.14"/></svg>