<svg data-name="Layer 1" xmlns="http://www.w3.org/2000/svg" viewBox="0 0 80 80"><path d="M33.86 58.69A12.69 12.69 0 0 1 8.85 63a2.63 2.63 0 0 1-.06-.39l-.4-2.51a5.07 5.07 0 0 1 4.2-5.8L27.67 52a5.07 5.07 0 0 1 5.8 4.2l.39 2.51zM14 2.73A15.82 15.82 0 0 0 2.24 20.84l3 19.21A5.08 5.08 0 0 0 11 44.28l15.05-2.36a5.07 5.07 0 0 0 4.24-5.77l-.07-.49A15.2 15.2 0 0 1 31.46 27a15.11 15.11 0 0 0 1.22-8.69l-.47-3A15.24 15.24 0 0 0 14.79 2.59l-.79.14zm31.2 60.64a12.69 12.69 0 0 0 25 4.51l.45-2.5a5.09 5.09 0 0 0-4.1-5.9l-15-2.7a5.06 5.06 0 0 0-5.9 4.06l-.44 2.49zM66.36 7.88a15.81 15.81 0 0 1 11.33 18.37L74.24 45.4a5.06 5.06 0 0 1-5.87 4.09l-15-2.7a5.07 5.07 0 0 1-4.1-5.87l.09-.49a15.17 15.17 0 0 0-1-8.7 15.1 15.1 0 0 1-1-8.7l.54-3A15.23 15.23 0 0 1 65.54 7.71z" fill="none" stroke="#21374d" stroke-linecap="round" stroke-linejoin="round" stroke-width="4"/></svg>