<svg id="Layer_1" data-name="Layer 1" xmlns="http://www.w3.org/2000/svg" viewBox="0 0 80 80"><defs><style>.cls-1{fill:none;stroke:#21374d;stroke-linecap:round;stroke-linejoin:round;stroke-width:4px}</style></defs><rect class="cls-1" x="37.47" y="37.47" width="40.53" height="40.53" rx="5.07"/><path class="cls-1" d="M52.67 51.59a1.45 1.45 0 0 1 2.2-1.25l10.24 6.15a1.45 1.45 0 0 1 .5 2 1.41 1.41 0 0 1-.5.5l-10.25 6.14a1.46 1.46 0 0 1-2.2-1.25z"/><circle class="cls-1" cx="19.73" cy="12.13" r="10.13"/><path class="cls-1" d="M29.48 30.25l-9.75 14.82L10 30.25a17.73 17.73 0 0 0-8 14.82v7.6h7.6L12.13 78h15.2M9.6 12.13S9.6 24.8 2 24.8m27.87-12.67s0 12.67 7.6 12.67"/></svg>