<svg width="96" height="96" xmlns="http://www.w3.org/2000/svg" xmlns:xlink="http://www.w3.org/1999/xlink"><defs><circle id="a" cx="48" cy="48" r="48"/><path id="c" d="M0 0h29.458v21.92H0z"/></defs><g fill="none" fill-rule="evenodd"><g><mask id="b" fill="#fff"><use xlink:href="#a"/></mask><use fill="#7858D5" xlink:href="#a"/><g mask="url(#b)" fill="#D8D8D8"><g transform="translate(65.684 44.463)"><rect x="11.395" y="18.109" width="42.163" height="9.096" rx="4.548"/><rect x="4.558" width="21.651" height="9.096" rx="4.548"/><rect y="9.054" width="42.163" height="9.096" rx="4.548"/></g></g><g mask="url(#b)"><path fill="#4A90E2" d="M10.473 96.206h86.4V84.655h-86.4z"/><g fill="#FBD490"><path d="M23.073 88.505c0 1.063-.807 1.925-1.8 1.925-.994 0-1.8-.862-1.8-1.925 0-1.063.806-1.925 1.8-1.925.993 0 1.8.862 1.8 1.925M33.873 88.505c0 1.063-.807 1.925-1.8 1.925-.994 0-1.8-.862-1.8-1.925 0-1.063.806-1.925 1.8-1.925.993 0 1.8.862 1.8 1.925M28.473 94.281c0 1.063-.807 1.925-1.8 1.925-.994 0-1.8-.862-1.8-1.925 0-1.063.806-1.925 1.8-1.925.993 0 1.8.862 1.8 1.925M39.273 94.281c0 1.063-.807 1.925-1.8 1.925-.994 0-1.8-.862-1.8-1.925 0-1.063.806-1.925 1.8-1.925.993 0 1.8.862 1.8 1.925M44.673 88.505c0 1.063-.807 1.925-1.8 1.925-.994 0-1.8-.862-1.8-1.925 0-1.063.806-1.925 1.8-1.925.993 0 1.8.862 1.8 1.925M55.473 88.505c0 1.063-.807 1.925-1.8 1.925-.994 0-1.8-.862-1.8-1.925 0-1.063.806-1.925 1.8-1.925.993 0 1.8.862 1.8 1.925M50.073 94.281c0 1.063-.807 1.925-1.8 1.925-.994 0-1.8-.862-1.8-1.925 0-1.063.806-1.925 1.8-1.925.993 0 1.8.862 1.8 1.925M60.873 94.281c0 1.063-.807 1.925-1.8 1.925-.994 0-1.8-.862-1.8-1.925 0-1.063.806-1.925 1.8-1.925.993 0 1.8.862 1.8 1.925M66.273 88.505c0 1.063-.807 1.925-1.8 1.925-.994 0-1.8-.862-1.8-1.925 0-1.063.806-1.925 1.8-1.925.993 0 1.8.862 1.8 1.925M77.073 88.505c0 1.063-.807 1.925-1.8 1.925-.994 0-1.8-.862-1.8-1.925 0-1.063.806-1.925 1.8-1.925.993 0 1.8.862 1.8 1.925M71.673 94.281c0 1.063-.807 1.925-1.8 1.925-.994 0-1.8-.862-1.8-1.925 0-1.063.806-1.925 1.8-1.925.993 0 1.8.862 1.8 1.925M82.473 94.281c0 1.063-.807 1.925-1.8 1.925-.994 0-1.8-.862-1.8-1.925 0-1.063.806-1.925 1.8-1.925.993 0 1.8.862 1.8 1.925M87.873 88.505c0 1.063-.807 1.925-1.8 1.925-.994 0-1.8-.862-1.8-1.925 0-1.063.806-1.925 1.8-1.925.993 0 1.8.862 1.8 1.925"/></g></g></g><path d="M79.008 47.918V19.656h15.604v38.86H72.506V51.45h6.502v-3.532z" fill="#095A90"/><g fill="#FFF"><path d="M85.155 23.938l1.555.233-1.126 1.133.266 1.599-1.391-.756-1.39.756.265-1.6-1.125-1.132 1.555-.233.695-1.454zM81.404 31.682l1.555.233-1.126 1.132.266 1.6-1.391-.756-1.39.755.265-1.599-1.125-1.132 1.555-.233.695-1.455zM91.156 28.584l1.556.233-1.126 1.133.266 1.599-1.391-.756-1.39.756.265-1.6-1.126-1.132 1.555-.233.696-1.454zM86.405 51.458l1.555.233-1.125 1.132.265 1.6-1.39-.756-1.391.755.265-1.599-1.125-1.132 1.555-.233.695-1.455zM89.018 39.473l.843.127-.61.613.144.866-.754-.409-.753.41.144-.867-.61-.613.843-.127.376-.787z"/></g><path d="M30.944 48.28V12.953h48.114v38.86H30.944V48.28z" fill="#024470"/><path fill="#556080" d="M26.193 12h4.751V85.076h-4.75z"/><path fill="#FFF" d="M46.517 43.047l2.702.394-1.956 1.912.462 2.7-2.417-1.276-2.417 1.276.462-2.7-1.956-1.912 2.703-.394 1.208-2.455z"/><path fill="#012C49" d="M72.506 51.45h6.502l-6.502 7.066z"/><g transform="translate(30.944 12.953)"><mask id="d" fill="#fff"><use xlink:href="#c"/></mask><path d="M-.43-.267L30.077 21.83M30.077-.267L-.43 21.83" stroke="#F9FAFB" stroke-width="5" mask="url(#d)"/><path d="M-.43-.267L30.077 21.83M30.077-.267L-.43 21.83" stroke="#E94B4E" stroke-width="2" mask="url(#d)"/><path d="M16.702 9.4h13.256v3.12H16.702v9.9h-3.21v-9.9H-.5V9.4h13.993V-.5h3.209v9.9z" stroke="#F9FAFB" fill="#E94B4E" mask="url(#d)"/></g><g opacity=".649" transform="translate(6 37)" fill="#D8D8D8"><rect x="8.085" y="12.875" width="29.915" height="6.467" rx="3.234"/><rect x="3.234" width="15.362" height="6.467" rx="3.234"/><rect y="6.438" width="29.915" height="6.467" rx="3.234"/></g></g></svg>