<svg width="97" height="97" xmlns="http://www.w3.org/2000/svg" xmlns:xlink="http://www.w3.org/1999/xlink"><defs><path d="M19.684 10.153C8.018 18.931.47 32.903.47 48.643c0 15.738 7.548 29.71 19.214 38.488a47.773 47.773 0 0 0 28.823 9.622 47.771 47.771 0 0 0 28.822-9.622c11.667-8.777 19.215-22.75 19.215-38.489 0-15.74-7.548-29.711-19.215-38.489A47.775 47.775 0 0 0 48.507.531a47.777 47.777 0 0 0-28.823 9.622z" id="a"/><path id="c" d="M0 96.43h96.262V.067H0z"/></defs><g fill="none" fill-rule="evenodd"><g><mask id="b" fill="#fff"><use xlink:href="#a"/></mask><path fill="#E64B3B" mask="url(#b)" d="M-3.39 96.787h103.795V.497H-3.39z"/><path fill="#FFF" mask="url(#b)" d="M27.923 101.315H69.09V-4.032H27.923z"/><path fill="#E64B3B" mask="url(#b)" d="M48.507 57.415h1.828l5.07.813-.827-3.846 9.76-4.1-1.69-2.684 2.424-4.8-5.258.14-2.271-2.934-5.078 6.082L54.642 35.5h-3.456l-2.68-4.078L45.83 35.5h-3.457l2.178 10.587-5.079-6.082-2.27 2.934-5.259-.14 2.425 4.8-1.691 2.685 9.76 4.1-.828 3.845 5.071-.813z"/><path d="M49.107 54.701h-1.2l-.505 9.997a1.108 1.108 0 1 0 2.21 0l-.505-9.997z" fill="#E64B3B" mask="url(#b)"/></g><g><path d="M90.214 42.143h-8.48a.895.895 0 0 1-.894-.896v-.451c0-.495.4-.897.894-.897h8.48c.493 0 .893.402.893.897v.451c0 .495-.4.896-.893.896" fill="#C7D0D2"/><path fill="#E27262" d="M89.934 39.9h-7.92l-1.174-6.452h10.267z"/><path fill="#C7D0D2" d="M89.64 31.765h-7.333l-.587 1.683h8.508z"/><mask id="d" fill="#fff"><use xlink:href="#c"/></mask><path fill="#A6AAAD" mask="url(#d)" d="M82.306 31.764h7.335v-1.121h-7.335z"/><path fill="#424448" mask="url(#d)" d="M83.814 95.721h4.237V42.143h-4.237zM92.017 34.157H79.99a.708.708 0 0 1-.708-.71c0-.392.316-.71.708-.71h12.027c.39 0 .707.318.707.71 0 .392-.316.71-.707.71"/><path fill="#C7D0D2" mask="url(#d)" d="M84.785 30.643h2.436v-7.855h-2.436z"/><path fill="#424448" mask="url(#d)" d="M84.09 22.788h3.827v-1.683H84.09z"/><path fill="#E27262" mask="url(#d)" d="M83.742 22.227h4.523v-.56h-4.523z"/><path fill="#C7D0D2" mask="url(#d)" d="M84.785 21.105h2.436v-7.013h-2.436z"/><path d="M86.873 14.092h-1.74L85.482.488c0-.233.234-.421.522-.421.289 0 .522.188.522.42l.348 13.605z" fill="#424448" mask="url(#d)"/><path fill="#E27262" mask="url(#d)" d="M84.785 14.092h2.436v-.56h-2.436zM85.134 9.604h1.739v-.56h-1.74z"/><path d="M86.003 44.386a.69.69 0 0 1-.269-.057.7.7 0 0 1-.233-.156.694.694 0 0 1-.205-.496c0-.05.007-.093.013-.142a.501.501 0 0 1 .043-.135.451.451 0 0 1 .064-.12c.021-.036.057-.071.085-.107a.733.733 0 0 1 1.005 0 .725.725 0 0 1 .204.504.7.7 0 0 1-.438.652.69.69 0 0 1-.269.057M85.296 47.281c0-.39.318-.71.707-.71a.711.711 0 0 1 0 1.419.71.71 0 0 1-.707-.709m0 3.611a.706.706 0 1 1 1.415 0 .71.71 0 0 1-.708.71.71.71 0 0 1-.707-.71m0 3.605c0-.39.318-.71.707-.71a.71.71 0 0 1 .708.71.71.71 0 0 1-.708.71.71.71 0 0 1-.707-.71m0 3.612a.706.706 0 1 1 1.415 0 .71.71 0 0 1-.708.71.71.71 0 0 1-.707-.71m0 3.604c0-.39.318-.71.707-.71a.71.71 0 0 1 0 1.42.706.706 0 0 1-.707-.71m0 3.612c0-.39.318-.71.707-.71a.71.71 0 0 1 0 1.42.71.71 0 0 1-.707-.71m0 3.611c0-.397.318-.717.707-.717.389 0 .708.32.708.717 0 .39-.32.702-.708.702a.704.704 0 0 1-.707-.702m0 3.605a.71.71 0 0 1 .707-.71.71.71 0 0 1 0 1.419.71.71 0 0 1-.707-.71m0 3.605c0-.39.318-.702.707-.702.389 0 .708.311.708.702a.713.713 0 0 1-.708.717.712.712 0 0 1-.707-.717m0 3.612c0-.39.318-.71.707-.71a.71.71 0 0 1 0 1.42.71.71 0 0 1-.707-.71m0 3.611a.706.706 0 1 1 1.415 0 .71.71 0 0 1-.708.71.71.71 0 0 1-.707-.71m0 3.604c0-.39.318-.709.707-.709a.71.71 0 0 1 0 1.419.71.71 0 0 1-.707-.71m0 3.612c0-.39.318-.71.707-.71a.71.71 0 0 1 0 1.42.71.71 0 0 1-.707-.71M86.003 94.898a.693.693 0 0 1-.269-.05.822.822 0 0 1-.233-.156.847.847 0 0 1-.156-.234.698.698 0 0 1-.05-.27.59.59 0 0 1 .057-.27.811.811 0 0 1 .149-.234.808.808 0 0 1 .233-.148.676.676 0 0 1 .41-.044.503.503 0 0 1 .128.044.496.496 0 0 1 .127.064l.107.084c.063.07.113.15.148.235a.716.716 0 0 1 .056.269.716.716 0 0 1-.056.27.819.819 0 0 1-.148.234.704.704 0 0 1-.503.206" fill="#E64B3B" mask="url(#d)"/><path d="M82.19 38.786a.709.709 0 0 1-.708-.71v-2.244c0-.392.317-.71.707-.71.391 0 .708.318.708.71v2.244c0 .392-.317.71-.708.71M83.686 38.786a.708.708 0 0 1-.707-.71v-2.244a.709.709 0 1 1 1.414 0v2.244c0 .392-.316.71-.707.71M88.174 38.926a.708.708 0 0 1-.707-.71v-2.244a.709.709 0 1 1 1.414 0v2.244c0 .392-.316.71-.707.71M89.67 38.926a.708.708 0 0 1-.708-.71v-2.244a.709.709 0 1 1 1.415 0v2.244c0 .392-.316.71-.707.71M85.182 38.926a.709.709 0 0 1-.708-.71v-2.244a.709.709 0 0 1 1.415 0v2.244c0 .392-.316.71-.707.71M86.678 38.926a.708.708 0 0 1-.707-.71v-2.244a.709.709 0 1 1 1.415 0v2.244c0 .392-.317.71-.708.71" fill="#F4B32D" mask="url(#d)"/><path d="M91.43 38.926H80.576a.708.708 0 0 1-.707-.71c0-.392.316-.71.707-.71H91.43c.391 0 .707.318.707.71 0 .392-.316.71-.707.71M92.017 36.541H79.99a.708.708 0 0 1-.708-.71c0-.39.316-.709.708-.709h12.027a.709.709 0 0 1 0 1.42" fill="#424448" mask="url(#d)"/><path d="M82.854 42.143s-.626 33.381-2.864 53.578h4.248V42.143h-1.384zM89.152 42.143s.627 33.381 2.864 53.578H87.77V42.143h1.383z" fill="#A6AAAD" mask="url(#d)"/><path d="M14.193 84.723c0 .874.116 1.695.323 2.474 2.239-2.19 16.124-13.471 32.929-13.471v-2.838c-18.365 0-33.252 13.48-33.252 13.835" fill="#A6A8AB" mask="url(#d)"/><path d="M14.516 87.197c-.207.202-.323.335-.323.365 0 .873.116 1.694.323 2.473.196-.191.479-.45.846-.766a8.872 8.872 0 0 1-.846-2.072" fill="#E64B3B" mask="url(#d)"/><path d="M15.362 89.27c3.838-3.306 16.743-12.706 32.083-12.706v-2.838c-16.805 0-30.69 11.282-32.929 13.471.196.731.479 1.422.846 2.073" fill="#D0D6D9" mask="url(#d)"/><path d="M29.404 80.604l-9.896 12.082c2.155.857 4.888 1.212 8.06 1.314L38.27 77.644c-3.176.731-6.157 1.776-8.866 2.96" fill="#E6E6E6" mask="url(#d)"/><path d="M15.362 89.27c.905 1.606 2.32 2.69 4.146 3.416l9.897-12.082c-6.786 2.968-11.87 6.793-14.043 8.666" fill="#D9E0E2" mask="url(#d)"/><path d="M38.27 77.644L27.567 94c3.461.111 7.44-.074 11.757-.23l4.495-17.028a42.39 42.39 0 0 0-5.549.902" fill="#F2F2F2" mask="url(#d)"/><path d="M47.445 76.564c-1.226 0-2.434.066-3.626.178L39.325 93.77c2.598-.095 5.318-.178 8.12-.178V76.564z" fill="#FFF" mask="url(#d)"/><path fill="#A6AAAD" mask="url(#d)" d="M17.023 84.368v1.42h3.537v9.933h-7.075V84.368z"/><path fill="#C7D0D2" mask="url(#d)" d="M20.56 95.721h26.885v-8.515H20.56z"/><path fill="#D9E0E2" mask="url(#d)" d="M18.438 95.721h29.007v-4.257H18.438z"/><path fill="#E64B3B" mask="url(#d)" d="M20.56 89.335h7.075v-1.419H20.56z"/><path fill="#A6AAAD" mask="url(#d)" d="M20.56 95.721h14.858v-4.257H20.56z"/><path fill="#11D3DB" mask="url(#d)" d="M24.098 95.721h7.075v-4.257h-7.075z"/><path d="M80.697 84.723c0 .874-.116 1.695-.323 2.474-2.239-2.19-16.125-13.471-32.929-13.471v-2.838c18.364 0 33.252 13.48 33.252 13.835" fill="#A6A8AB" mask="url(#d)"/><path d="M80.374 87.197c.207.202.323.335.323.365 0 .873-.116 1.694-.323 2.473-.196-.191-.479-.45-.846-.766.367-.65.65-1.34.846-2.072" fill="#E64B3B" mask="url(#d)"/><path d="M79.528 89.27c-3.838-3.306-16.744-12.706-32.083-12.706v-2.838c16.805 0 30.69 11.282 32.929 13.471a8.872 8.872 0 0 1-.846 2.073" fill="#D0D6D9" mask="url(#d)"/><path d="M65.486 80.604l9.896 12.082c-2.155.857-4.888 1.212-8.06 1.314L56.62 77.644c3.176.731 6.156 1.776 8.866 2.96" fill="#E6E6E6" mask="url(#d)"/><path d="M79.528 89.27c-.905 1.606-2.32 2.69-4.146 3.416l-9.897-12.082c6.786 2.968 11.87 6.793 14.043 8.666" fill="#D9E0E2" mask="url(#d)"/><path d="M56.62 77.644L67.323 94c-3.461.111-7.44-.074-11.757-.23L51.07 76.741c1.903.18 3.757.49 5.549.902" fill="#F2F2F2" mask="url(#d)"/><path d="M47.445 76.564c1.226 0 2.434.066 3.626.178l4.494 17.028c-2.598-.095-5.318-.178-8.12-.178V76.564z" fill="#FFF" mask="url(#d)"/><path fill="#A6AAAD" mask="url(#d)" d="M77.867 84.368v1.42H74.33v9.933h7.075V84.368z"/><path fill="#C7D0D2" mask="url(#d)" d="M47.445 95.721H74.33v-8.515H47.445z"/><path fill="#D9E0E2" mask="url(#d)" d="M47.445 95.721h29.007v-4.257H47.445z"/><path fill="#E64B3B" mask="url(#d)" d="M67.254 89.335h7.076v-1.419h-7.076z"/><path fill="#A6AAAD" mask="url(#d)" d="M59.472 95.721H74.33v-4.257H59.472z"/><path fill="#11D3DB" mask="url(#d)" d="M63.717 95.721h7.075v-4.257h-7.075z"/><path fill="#A6AAAD" mask="url(#d)" d="M40.37 95.721h14.857v-4.257H40.37z"/><path fill="#11D3DB" mask="url(#d)" d="M43.907 95.721h7.076v-4.257h-7.076z"/><path d="M12.601 89.69a3.188 3.188 0 0 1-3.184 3.193 3.188 3.188 0 0 1-3.183-3.193 3.189 3.189 0 0 1 3.183-3.193 3.189 3.189 0 0 1 3.184 3.193" fill="#1ABC9C" mask="url(#d)"/><path d="M9.418 96.43a.708.708 0 0 1-.708-.71v-3.547a.708.708 0 1 1 1.415 0v3.548c0 .392-.317.71-.707.71" fill="#424448" mask="url(#d)"/><path d="M95.554 96.43H4.996a.709.709 0 1 1 0-1.42l90.558.001a.709.709 0 0 1 0 1.42" fill="#424448" mask="url(#d)"/></g></g></svg>