<svg id="Layer_1" xmlns="http://www.w3.org/2000/svg" width="96.6" height="97" viewBox="0 0 96.6 97"><style>.st0{fill:#e74c3c}.st1{fill:#fff}.st2{fill:#424548}.st3{fill:#808285}.st4{fill:#4d5053}.st6{fill:#58595b}</style><g id="design-v2"><g id="Curriculum-US" transform="translate(-763 -425)"><g id="HK" transform="translate(763 425)"><g id="HK-Curriculum"><path id="Shape" class="st0" d="M48.4.5C21.8.5.2 22.1.2 48.7S21.8 97 48.4 97s48.2-21.6 48.2-48.3S75 .5 48.4.5z"/><path id="Shape_1_" class="st1" d="M31.6 26.4l.3.2c-2.6 3.9-2.6 10.8 2.2 14.3-3.2-3.8-.7-8.3 2.3-9.8 4.1-1.9 5.3-7.4 3.2-10.7-1.9-3-.4-5.8 2-7-6.4-.6-12.4 3.1-14.9 9.1-2.9 7.2.2 15.2 7 18.6-5-3.7-4.6-11.1-2.1-14.7zm.9-4.4l1.3 1.1 1.5-.9-.7 1.6 1.3 1.1-1.8-.2-.7 1.6-.4-1.7-1.8-.2 1.5-.9-.2-1.5z"/><path id="Shape_2_" class="st0" d="M33.1 24.8l.4 1.7.7-1.6 1.7.2-1.3-1.2.7-1.6-1.4.9-1.4-1.2.4 1.7-1.5.9z"/><path id="Shape_3_" class="st0" d="M34.5 41.2c-.1-.1-.3-.2-.4-.3-4.7-3.5-4.8-10.5-2.2-14.3l-.3-.2c-2.5 3.6-2.9 11 2.2 14.8.2.1.3.2.5.3-.1 0 .1-.1.2-.3z"/><path id="Shape_4_" class="st1" d="M50.5 28.2c-7.7-.5-14.4 4.9-15.5 12.4 2.1-6 9.2-8 13.4-6.6l-.1.4c-4.5-1.3-11.1.9-12.9 6.5 2.6-4.3 7.7-3.2 10-.8 3.1 3.4 8.7 2.8 11.1-.2 2.2-2.8 5.4-2.2 7.3-.3-1.5-6.4-6.9-11-13.3-11.4zm1.3 7.9l-.7 1.6-.4-1.7-1.8-.2 1.5-.9-.4-1.7 1.3 1.1 1.5-.9-.7 1.6 1.3 1.1h-1.6z"/><path id="Shape_5_" class="st0" d="M52.9 33.5l-1.5.9-1.3-1.2.4 1.7-1.6.9 1.8.2.4 1.7.7-1.6 1.7.1-1.3-1.1z"/><path id="Shape_6_" class="st0" d="M48.3 34.4l.1-.4c-4.2-1.3-11.3.6-13.4 6.6-.1.2-.1.3-.2.6.2 0 .3.1.4.1.1-.2.1-.3.1-.5 2-5.5 8.5-7.7 13-6.4z"/><path id="Shape_7_" class="st1" d="M19.2 40.1l.3-.3c2.9 3.7 9.5 5.7 14.3 2.4-4.6 1.9-8.2-1.9-8.6-5.2-.6-4.5-5.4-7.4-9.1-6.4-3.4 1-5.6-1.4-6-4-2.5 6-.9 12.8 4.1 17 5.9 4.9 14.5 4.4 19.8-.9-5.3 3.6-12.1.9-14.8-2.6zm-1.7-.3l-.4-1.7-1.7-.2 1.5-.9-.4-1.7 1.3 1.1 1.5-.9-.7 1.6 1.3 1.1-1.8-.2-.6 1.8z"/><path id="Shape_8_" class="st0" d="M18.6 37.2l.7-1.6-1.5.8-1.3-1.1.3 1.7-1.4.9 1.7.2.4 1.7.6-1.7 1.8.2z"/><path id="Shape_9_" class="st0" d="M34.2 42c-.1.1-.2.2-.4.3-4.8 3.4-11.4 1.3-14.3-2.4l-.3.3c2.7 3.5 9.5 6.1 14.7 2.6.2-.1.3-.2.5-.3 0-.3-.2-.4-.2-.5z"/><path id="Shape_10_" class="st1" d="M46.5 52.3h-.4c-.2-4.7-4.3-10.2-10.2-10.3 4.8 1.2 5.4 6.4 3.9 9.3-2.2 4 0 9.1 3.6 10.5 3.3 1.2 3.7 4.5 2.5 6.8 5.5-3.3 8.2-9.9 6.6-16.1-1.9-7.4-9.1-12.2-16.6-10.9 6.5.1 10.5 6.3 10.6 10.7zm1.8 4.1l-1.8-.2-.7 1.6-.4-1.7-1.7-.1 1.5-.9-.4-1.7 1.3 1.1 1.5-.9-.6 1.6 1.3 1.2z"/><path id="Shape_11_" class="st0" d="M46.2 54.5l-1.3-1.1.4 1.7-1.6.9 1.8.1.4 1.8.7-1.7 1.7.2-1.3-1.1.7-1.7z"/><path id="Shape_12_" class="st0" d="M35.4 42h.5c5.8.1 10 5.6 10.2 10.3h.4c-.1-4.4-4.1-10.6-10.4-10.7h-.6c0 .1.1.2.1.2-.1.1-.2.1-.2.2z"/><path id="Shape_13_" class="st1" d="M28.5 56.1l-.2-.4c4.4-1.6 8.4-7.3 6.7-12.8.3 5-4.3 7.2-7.6 6.5-4.5-.9-8.7 2.8-8.8 6.8-.2 3.5-3.1 4.9-5.7 4.5 4.9 4.2 11.9 4.8 17.4 1.4C36.8 58 39 49.7 35.5 43c1.8 6-2.9 11.7-7 13.1zm-2.7 1.4l-.7 1.6-.4-1.7-1.7-.1 1.5-.9-.4-1.7 1.3 1.1 1.5-.9-.7 1.6 1.3 1.1-1.7-.1z"/><path id="Shape_14_" class="st0" d="M26.9 54.9l-1.5.9-1.3-1.2.4 1.7-1.5 1 1.7.1.4 1.7.7-1.6 1.8.2-1.4-1.2z"/><path id="Shape_15_" class="st0" d="M34.8 42.4c.1.2.1.3.2.5 1.7 5.6-2.3 11.2-6.7 12.8l.2.4c4.1-1.4 8.8-7.2 7-13.3-.1-.2-.1-.4-.2-.6-.2.2-.3.2-.5.2z"/><path id="Shape_16_" class="st0" d="M34.8 41.1c-.1 0-.2.1-.3.1s-.2.2-.2.3c0 .1-.1.1-.1.2s0 .1.1.2c.1.2.1.3.3.3.1.1.2.1.3.1.2 0 .3-.1.4-.2.1-.1.2-.2.2-.3 0-.1.1-.1.1-.2s0-.2-.1-.2c-.1-.1-.1-.2-.2-.3-.2.1-.3 0-.5 0z"/><g id="Group_1_" transform="translate(39.14 30.1)"><g id="Shape_17_"><path class="st2" d="M44.7 53.6c.6-.8.9-1.8.9-2.8v-.2-.2c0-.1-.1-.3-.1-.4v-.1c-.4-2.2-2.3-3.9-4.5-4.1h-.1c0-.2.1-.3.1-.5V29.5c0-1.6-.6-3.1-1.5-4.3-.8-1-1.9-1.8-3.1-2.1-.6-.2-1.3-.3-2-.3h-4.6v-2.4c.9-.4 1.5-1.1 2-1.9.2.1.4.1.6.1.5-.1.8-.6.7-1.1l-.6-2.6v-.6c.1-.3.1-.6.1-1v-.2l.7-1.7c.2-.3 0-.7-.3-.9-.2-.1-.5-.1-.6.1V10c0-1.6-.9-3.1-2.1-3.9-.5-1.3-2.2-2.3-4.2-2.3-1.9 0-3.6.9-4.1 2-1.5.8-2.4 2.3-2.4 4.1v.8c-.2-.2-.5-.3-.8-.2-.3.2-.5.6-.3.9l.7 1.8c.1.1.1.2.2.2h-.1c0 .3.1.6.1.9v.1l-.7 3.1c-.1.5.2 1 .7 1.1.2.1.5 0 .7-.1.5.8 1.1 1.4 1.9 1.9v2.3h-3.9c-.7 0-1.4.1-2 .3-.2.1-.4.1-.6.2-.4.2-.8.4-1.1.6-.2.1-.3.2-.5.4-1.9 1.3-2.9 3.1-2.9 5.2V44.6c0 .4.1.8.1 1.2-.2.1-.5.1-.7.2-1.8.7-3.1 2.6-3.1 4.7 0 1 .3 1.9.7 2.7-.3.4 37 .6 36.7.2z"/><path class="st3" d="M40.8 43.9c0 3.7-2.9 6.6-6.6 6.6H17.8c-3.6 0-6.6-3-6.6-6.6V28.7c0-3.7 2.9-6.6 6.6-6.6h16.5c3.6 0 6.6 3 6.6 6.6v15.2z"/><path class="st2" d="M40.8 44.7c0-.2.1-.5.1-.7V28.7c0-3.7-2.9-6.6-6.6-6.6H17.8c-3.6 0-6.6 3-6.6 6.6v.3c1.3.3 25.3 13.2 29.6 15.7z"/><path class="st3" d="M19.8 33.4V22.1h13.7z"/><path class="st4" d="M35.2 37.9V45h-1z"/><path opacity=".61" fill="#b19b59" d="M17 37.9V45h1.1z"/><path class="st3" d="M29.7 21.7V19c0-.6-.5-1.2-1.2-1.2h-5.7c-.6 0-1.2.5-1.2 1.2v2.6c0 .2.1.4.2.6.3 1.1 1.2 1.8 2.4 1.8h2.9c1.2 0 2.3-1 2.4-2.2.2 0 .2 0 .2-.1z"/><path class="st6" d="M31.1 17.2c.1.5.6.8 1.1.7.5-.1.8-.6.7-1.1l-.8-3.2c-.1-.6-.6-.9-1.1-.8s-.8.6-.7 1.1l.8 3.3z"/><path class="st6" d="M31.5 12.8c.3.2.7 0 .9-.3l.7-1.8c.2-.3 0-.7-.3-.9-.3-.2-.7 0-.9.3l-.7 1.8c-.2.3-.1.7.3.9z"/><path class="st3" d="M20.2 17.2c-.1.5-.6.8-1.1.7-.5-.1-.8-.6-.7-1.1l.8-3.2c.1-.5.6-.8 1.1-.7s.8.6.7 1.1l-.8 3.2zM19.8 12.8c-.3.2-.7 0-.9-.3l-.7-1.8c-.2-.3 0-.7.3-.9.3-.2.7 0 .9.3l.7 1.8c.2.3.1.7-.3.9z"/><path class="st4" d="M45.5 50c0 2.8-2.3 5.1-5 5.1H12.6c-2.8 0-5-2.3-5-5.1s2.3-5.1 5-5.1h27.9c2.7 0 5 2.3 5 5.1z"/><path d="M45.5 50c0 2.8-2.3 5.1-5 5.1H12.6C9.8 55.1 40.4 45 40.4 45c2.8-.1 5.1 2.2 5.1 5z" fill="#876b2a"/><path class="st2" d="M44.9 49.9c0 2.8-2.3 5.1-5 5.1H12c-2.8 0 27.9-10.2 27.9-10.2 2.7 0 5 2.3 5 5.1z"/><path class="st2" d="M41.1 45c1.8.8 3 2.6 3 4.7 0 2.8-2.3 5.1-5 5.1H12.9c-.5.2-.6.4-.3.4h27.9c2.8 0 5-2.3 5-5.1 0-2.7-1.9-4.8-4.4-5.1z"/><path class="st2" d="M11.9 45c-1.8.8-3 2.6-3 4.7 0 2.8 2.3 5.1 5 5.1h26.2c.5.2.6.4.3.4H12.5c-2.8 0-5-2.3-5-5.1 0-2.7 1.9-4.8 4.4-5.1z"/><path class="st4" d="M19.7 44.9v-7.7c0-.7-.9-1.4-2-1.4h-3.3c-1.1 0-2 .6-2 1.4v7.7h7.3z"/><path class="st2" d="M19 43.3V37c0-.6-.7-1.1-1.6-1.1h-2.7c-.9 0-1.6.5-1.6 1.1v6.3H19z"/><path class="st6" d="M14.4 34.9c0 .3-.3.7-.6.7s-.6-.3-.6-.7v-4.6c0-.3.3-.7.6-.7s.6.3.6.7v4.6z"/><path class="st6" d="M15.4 32.9c0 .3-.3.7-.6.7s-.6-.3-.6-.7v-4.6c0-.3.3-.7.6-.7s.6.3.6.7v4.6zM16.6 32.5c0 .3-.3.7-.6.7 0 0-.6-.3-.6-.7v-5c0-.3.3-.7.6-.7s.6.3.6.7v5zM17.9 32.5c0 .3-.3.7-.6.7s-.6-.3-.6-.7v-4.6c0-.3.3-.7.6-.7s.6.3.6.7v4.6z"/><path class="st6" d="M19.2 36.9c0 .4-.3.7-.7.7-.4 0-.7-.3-.7-.7v-5c0-.4.3-.7.7-.7.4 0 .7.3.7.7v5z"/><path class="st6" d="M18.4 36.9c0 1.5-1.2 2.7-2.7 2.7-1.5 0-2.7-1.2-2.7-2.7v-2.2c-.1-3.7 2.7-1.9 2.7-1.9s2.6-1.7 2.6 1.9v2.2z"/><path class="st2" d="M16.3 36c.2-.3.5-.6.7-.7-.3 0-.6.3-.9.7-.3.4-.4.8-.3 1.1.1-.4.3-.8.5-1.1zM15.8 34c-.6 0-1.5-.3-1.5-.2.3.2.9.3 1.5.3.7 0 1.2-.1 1.5-.3-.2 0-.9.2-1.5.2z"/><path class="st6" d="M38 44.6c0-1.5-1.2-2.7-2.7-2.7-1.5 0-2.7 1.2-2.6 2.7v2.2c0 3.7 2.7 1.9 2.7 1.9s2.6 1.7 2.6-1.9v-2.2z"/><path class="st2" d="M38.8 44.4c0-.4-.3-.7-.7-.7-.4 0-.7.3-.7.7l.1 3.5c0 .4.3.7.7.7.4 0 .7-.3.7-.7l-.1-3.5zM36 45.4c.2.3.5.6.8.7-.3 0-.6-.2-.8-.7-.3-.3-.5-.7-.4-1 0 .3.1.7.4 1zM35.4 47.4c-.6 0-1.1.1-1.5.2.3-.2.9-.3 1.5-.3.7 0 1.2.1 1.5.3-.3-.1-.8-.3-1.5-.2z"/><path class="st2" d="M37.1 49.1c0 .3.2.6.6.6h.3c.3 0 .6-.3.6-.6s-.2-.6-.6-.6h-.3c-.3 0-.6.3-.6.6zM35.3 49.1c0 .3.3.6.6.6h.5c.3 0 .6-.3.6-.6s-.3-.6-.6-.6h-.5c-.3-.1-.6.2-.6.6z"/><path class="st2" d="M34 49c0 .2.2.5.5.5h.5c.2 0 .5-.2.5-.5 0-.2-.2-.5-.5-.5h-.5c-.3.1-.5.3-.5.5z"/><path class="st2" d="M32.7 49c0 .2.2.5.5.5h.5c.2 0 .5-.2.5-.5 0-.2-.2-.5-.5-.5h-.5c-.3.1-.5.3-.5.5zM30.2 5.9c0 1.6-1.9 2.9-4.3 2.9s-4.3-1.3-4.3-2.9S23.5 3 25.9 3s4.3 1.3 4.3 2.9z"/><path class="st2" d="M32.1 15.5c0 2.6-2.1 4.7-4.7 4.7h-3.6c-2.6 0-4.7-2.1-4.7-4.7V9.2c0-2.6 2.1-4.7 4.7-4.7h3.6c2.6 0 4.7 2.1 4.7 4.7v6.3z"/><path class="st3" d="M27.7 7.8h-3.8c-2.6 0-4.7 2.1-4.7 4.7v3.1c0 2.6 2.1 4.7 4.7 4.7h3.8c1.6 0 3.1-.9 3.9-2.2V9.9c-.9-1.3-2.3-2.1-3.9-2.1z"/><path class="st6" d="M32.3 12.5c0-.9-.3-1.8-.7-2.6V18c.5-.7.7-1.6.7-2.6v-2.9z"/><path class="st2" d="M26.4 12.1c0-1.2 1.2-2.3 2.8-2.3.8 0 1.5.3 2 .7-.5-.6-1.4-1-2.4-1-1.6 0-2.8 1-2.8 2.3 0 .6.3 1.1.8 1.6-.3-.4-.4-.8-.4-1.3zM25 11.9c0-.7-1.1-2-2.7-2-.8 0-1.5.3-2 .7.5-.6 1.4-1 2.4-1 1.6 0 2.7 1.2 2.7 2 0 .6-.2 1.4-.7 1.8.3-.4.3-1 .3-1.5z"/><path class="st2" d="M24.2 12.1s-.3-.2-1.1-.2-2.3-.2-2.3-.2 1.6.5 2.2.5 1.2-.1 1.2-.1zM26 11.9s.2 2 0 2.2c-.2.2-.3.2-.5.2s-.9-.2-1 0c-.2.2 0 .5.5.5s.5.9.5.9-.3-.3-.9-.2c-.5.2-.5.3-.9.3-.3 0 .5.9.9 1 .3.2 1 0 1 0s.3 1.7-.3 1.7c0 0-2 .3-2.5.7-.7.5-2.8-.6-3.1-1.3s.9 2.3 3.2 2.3 2.8.1 2.8.1v.7s-2.2.2-3.3-.3c-1.2-.5.2.7 1.7.7h1.7v1H24s-1.4 0-1.9-.5 0 1 1.9 1h1.9v1.2h-1.7s-1.2.1-2-1.1c-.5-.6.2 1.5 2 1.5h3s2.5.3 2.5-2.5v-1.8l1.9-1.8.1-.6.6-8.2s-.5.8-1.9.3-2.9-.5-3.6.7c-.7 1.5-.8 1.3-.8 1.3z"/><path class="st3" d="M57.5 64.8c0 1.2-1 2.2-2.2 2.2H-1.2c-1.2 0-2.2-1-2.2-2.2v-3.1c0-1.2 1-2.2 2.2-2.2h56.5c1.2 0 2.2 1 2.2 2.2v3.1z"/><path class="st2" d="M8.8 55.4c0 1.2-1 2.2-2.1 2.2H5.3c-1.2 0-2.1-1-2.1-2.2v-1.3c0-1.2 1-2.2 2.1-2.2h1.3c1.2 0 2.1 1 2.1 2.2v1.3z"/><path class="st6" d="M6.3 55.9c0 .9-.7 1.6-1.6 1.6s-1.6-.7-1.6-1.6v-1.6c0-.9.7-1.6 1.6-1.6s1.6.7 1.6 1.6v1.6z"/><path class="st3" d="M8.8 55.9c0 .9-.7 1.6-1.6 1.6s-1.6-.7-1.6-1.6v-1.6c0-.9.7-1.6 1.6-1.6s1.6.7 1.6 1.6v1.6z"/><path class="st2" d="M50 55.4c0 1.2-1 2.2-2.1 2.2h-1.3c-1.2 0-2.1-1-2.1-2.2v-1.3c0-1.2 1-2.2 2.1-2.2h1.3c1.2 0 2.1 1 2.1 2.2v1.3z"/><path class="st6" d="M47.6 55.9c0 .9-.7 1.6-1.6 1.6s-1.6-.7-1.6-1.6v-1.6c0-.9.7-1.6 1.6-1.6s1.6.7 1.6 1.6v1.6z"/><path class="st3" d="M50 55.9c0 .9-.7 1.6-1.6 1.6-.9 0-1.6-.7-1.6-1.6v-1.6c0-.9.7-1.6 1.6-1.6.9 0 1.6.7 1.6 1.6v1.6z"/><path class="st2" d="M14.9 55.6c0 1.5-1.1 2.6-2.6 2.6h-1.5c-1.4 0-2.6-1.2-2.6-2.6v-1.5c0-1.5 1.1-2.6 2.6-2.6h1.5c1.4 0 2.6 1.2 2.6 2.6v1.5z"/><path class="st6" d="M12.1 56.1c0 1-.8 1.9-1.8 1.9s-1.8-.9-1.8-1.9v-1.9c0-1 .8-1.9 1.8-1.9s1.8.9 1.8 1.9v1.9z"/><path class="st3" d="M15.1 56.1c0 1-.8 1.9-1.8 1.9s-1.8-.9-1.8-1.9v-1.9c0-1 .8-1.9 1.8-1.9s1.8.9 1.8 1.9v1.9z"/><path class="st2" d="M44.5 55.6c0 1.5-1.1 2.6-2.6 2.6h-1.5c-1.4 0-2.6-1.2-2.6-2.6v-1.5c0-1.5 1.1-2.6 2.6-2.6h1.5c1.4 0 2.6 1.2 2.6 2.6v1.5z"/><path class="st6" d="M41.7 56.1c0 1-.8 1.9-1.8 1.9s-1.8-.9-1.8-1.9v-1.9c0-1 .8-1.9 1.8-1.9s1.8.9 1.8 1.9v1.9z"/><path class="st3" d="M44.6 56.1c0 1-.8 1.9-1.8 1.9s-1.8-.9-1.8-1.9v-1.9c0-1 .8-1.9 1.8-1.9s1.8.9 1.8 1.9v1.9z"/><path class="st2" d="M38.2 55.3c0 1.7-1.3 3-3 3h-1.8c-1.7 0-3-1.3-3-3v-1.8c0-1.7 1.3-3 3-3h1.8c1.7 0 3 1.3 3 3v1.8z"/><path class="st6" d="M34.9 56c0 1.2-1 2.2-2.1 2.2-1.2 0-2.1-1-2.1-2.2v-2.2c0-1.2 1-2.2 2.1-2.2 1.2 0 2.1 1 2.1 2.2V56z"/><path class="st3" d="M38.3 56c0 1.2-1 2.2-2.1 2.2-1.2 0-2.1-1-2.1-2.2v-2.2c0-1.2 1-2.2 2.1-2.2 1.2 0 2.1 1 2.1 2.2V56z"/><path class="st2" d="M22.4 55.3c0 1.7-1.3 3-3 3h-1.8c-1.7 0-3-1.3-3-3v-1.8c0-1.7 1.3-3 3-3h1.8c1.7 0 3 1.3 3 3v1.8z"/><path class="st6" d="M19 56c0 1.2-1 2.2-2.1 2.2-1.2 0-2.1-1-2.1-2.2v-2.2c0-1.2 1-2.2 2.1-2.2 1.2 0 2.1 1 2.1 2.2V56z"/><path class="st3" d="M22.5 56c0 1.2-1 2.2-2.1 2.2s-2.1-1-2.1-2.2v-2.2c0-1.2 1-2.2 2.1-2.2s2.1 1 2.1 2.2V56z"/><path class="st2" d="M30.8 55.2c0 1.8-1.5 3.3-3.3 3.3h-1.9c-1.8 0-3.3-1.5-3.3-3.3v-2c0-1.8 1.5-3.3 3.3-3.3h1.9c1.8 0 3.3 1.5 3.3 3.3v2z"/><path class="st6" d="M27 55.9c0 1.3-1.1 2.4-2.4 2.4-1.3 0-2.4-1.1-2.4-2.4v-2.5c0-1.3 1.1-2.4 2.4-2.4 1.4 0 2.4 1 2.4 2.4v2.5z"/><path class="st3" d="M30.9 55.9c0 1.3-1.1 2.4-2.4 2.4-1.3 0-2.4-1.1-2.4-2.4v-2.5c0-1.3 1.1-2.4 2.4-2.4 1.3 0 2.4 1.1 2.4 2.4v2.5z"/><path class="st2" d="M52.2 57.5c0 .8-.6 1.5-1.5 1.5H3.1c-.8 0-1.5-.6-1.5-1.5 0-.8.6-1.5 1.5-1.5h47.6c.9 0 1.5.7 1.5 1.5z"/><path class="st6" d="M53.5 59.4c0 .2-.2.4-.4.4H0c-.2 0-.4-.2-.4-.4s.2-.4.4-.4h53.2c.1 0 .3.1.3.4z"/><path class="st3" d="M33.4 59.1c0 .3-.2.6-.5.6H21c-.3 0-.5-.3-.5-.6s.2-.6.5-.6h11.9c.3 0 .5.3.5.6z"/><path class="st6" d="M34.4 60.1c0 .3-.3.6-.6.6H20.2c-.3 0-.6-.3-.6-.6s.3-.6.6-.6h13.5c.4 0 .7.3.7.6z"/><path class="st3" d="M34.4 61.1c0 .3-.3.6-.6.6H20.2c-.3 0-.6-.3-.6-.6s.3-.6.6-.6h13.5c.4 0 .7.3.7.6z"/><path class="st6" d="M34.4 62c0 .3-.3.6-.6.6H20.2c-.3 0-.6-.3-.6-.6s.3-.6.6-.6h13.5c.4.1.7.3.7.6z"/><path class="st3" d="M34.4 63c0 .3-.3.6-.6.6H20.2c-.3 0-.6-.3-.6-.6s.3-.6.6-.6h13.5c.4 0 .7.3.7.6z"/><path class="st6" d="M34.4 64c0 .3-.3.6-.6.6H20.2c-.3 0-.6-.3-.6-.6s.3-.6.6-.6h13.5c.4 0 .7.3.7.6z"/><path class="st3" d="M34.4 65c0 .3-.3.6-.6.6H20.2c-.3 0-.6-.3-.6-.6s.3-.6.6-.6h13.5c.4 0 .7.2.7.6z"/><path class="st6" d="M34.4 66c0 .3-.3.6-.6.6H20.2c-.3 0-.6-.3-.6-.6s.3-.6.6-.6h13.5c.4-.1.7.2.7.6z"/><path class="st3" d="M33.9 60.8c0 .4-.3.8-.8.8-.4 0-.8-.3-.8-.8v-2.4c0-.4.3-.8.8-.8.4 0 .8.3.8.8v2.4z"/><path class="st6" d="M34.6 62.4c0 .4-.3.8-.8.8-.4 0-.8-.3-.8-.8V60c0-.4.3-.8.8-.8.4 0 .8.3.8.8v2.4z"/><path class="st6" d="M34.9 64.1c0 .4-.3.8-.8.8s-.8-.3-.8-.8v-2.4c0-.4.3-.8.8-.8s.8.3.8.8v2.4z"/><path class="st2" d="M35.3 66.4c0 .4-.3.8-.8.8-.4 0-.8-.3-.8-.8V64c0-.4.3-.8.8-.8.4 0 .8.3.8.8v2.4z"/><path class="st3" d="M20.1 60.8c0 .4.3.8.8.8s.8-.3.8-.8v-2.4c0-.4-.3-.8-.8-.8s-.8.3-.8.8v2.4z"/><path class="st6" d="M19.4 62.4c0 .4.3.8.8.8.4 0 .8-.3.8-.8V60c0-.4-.3-.8-.8-.8-.4 0-.8.3-.8.8v2.4z"/><path class="st6" d="M19.1 64.1c0 .4.3.8.8.8s.8-.3.8-.8v-2.4c0-.4-.3-.8-.8-.8s-.8.3-.8.8v2.4z"/><path class="st2" d="M18.7 66.4c0 .4.3.8.8.8s.8-.3.8-.8V64c0-.4-.3-.8-.8-.8s-.8.3-.8.8v2.4z"/></g><path id="Shape_18_" class="st2" d="M19.7 12.4s.1 3.1 1.6 4-.8 0-.8 0l-.9-1v-3z"/><path id="Shape_19_" class="st2" d="M30 7.2s.3-.1 0-1.3 1.6.5 1.6.5l.1 3.1L30 7.2z"/></g></g></g></g></g></svg>