<svg width="98" height="98" xmlns="http://www.w3.org/2000/svg"><g fill-rule="nonzero" fill="none"><circle fill="#5758F7" cx="49" cy="49" r="48.5"/><g opacity=".649" fill="#D8D8D8"><path d="M13.6 41.1H37c1.8 0 3.2 1.4 3.2 3.2 0 1.8-1.4 3.2-3.2 3.2H13.6c-1.8 0-3.2-1.4-3.2-3.2-.1-1.7 1.4-3.2 3.2-3.2zM8.7 28.2h8.9c1.8 0 3.2 1.4 3.2 3.2 0 1.8-1.4 3.2-3.2 3.2H8.7c-1.8 0-3.2-1.4-3.2-3.2 0-1.7 1.4-3.2 3.2-3.2z"/><path d="M5.5 34.7h23.4c1.8 0 3.2 1.4 3.2 3.2 0 1.8-1.4 3.2-3.2 3.2H5.5c-1.8 0-3.2-1.4-3.2-3.2-.1-1.8 1.4-3.2 3.2-3.2z"/></g><path fill="#F9FAFB" d="M67.533 6.7h21.9v38.4h-21.9z"/><path fill="#FBAB2B" d="M67.533 6.7h21.9v12.8h-21.9z"/><path fill="#006900" d="M67.533 32.3h21.9v12.8h-21.9z"/><path d="M26.533 18.1V.1h-5v88.1c1.6 1.1 3.3 2.1 5.1 2.9V39.6l-.1-21.5z" fill="#424548"/><path fill="#0D4570" d="M26.533 15.7v1z"/><path fill="#F9FAFB" d="M26.533.5h47.2v38.4h-47.2z"/><path fill="#004F00" d="M67.533 45.1l6.2-6.2h-6.2z"/><path fill="#FBAB2B" d="M26.533.5h47.2v12.8h-47.2z"/><path fill="#006900" d="M26.533 26.1h47.2v12.8h-47.2z"/><g fill="#0875BE"><path d="M62.433 20.6s.1-.1 0 0l.3 1.4.8 2.1-.4-2.2-.5-1.4h.1l.6 1.3 1.3 1.8-.9-2-.8-1.2h.1l.9 1.1 1.7 1.4-1.4-1.7-1.1-.9v-.1l1.2.8 2 .9-1.8-1.3-1.3-.6v-.1l1.4.5 2.2.4-2.1-.8-1.4-.3 1.5.1 2.2-.2-2.2-.2-1.5.1v-.1l1.4-.3 2.1-.8-2.2.4-1.4.5v-.1l1.3-.6 1.8-1.3-2 .9-1.2.8v-.1l1.1-.9 1.4-1.7-1.7 1.4-1 1.4h-.1l.8-1.2.9-2-1.2 1.8-.6 1.3h-.1l.5-1.4.4-2.2-.8 2.1-.3 1.4.1-1.5-.2-2.1-.2 2.2.1 1.5h-.1l-.3-1.4-.8-2.1.4 2.2.5 1.4h-.1l-.6-1.3-1.3-1.8.9 2 .8 1.2h-.1l-.9-1.1-1.7-1.4 1.4 1.7 1.1.9v.1l-1.2-.8-2-.9 1.8 1.3 1.3.6v.1l-1.4-.5-2.2-.4 2.1.8 1.4.3-1.5-.1-2.2.2 2.2.2 1.5-.1v.1l-1.4.3-2.1.8 2.2-.4 1.4-.5v.1l-1.3.6-1.6 1 2-.9 1.2-.8v.1l-1.1.9-1.4 1.7 1.7-1.4.9-1.1h.1l-.8 1.2-.9 2 1.3-1.8.6-1.3h.1l-.5 1.4-.4 2.2.8-2.1.3-1.4-.2 1.3.2 2.2.2-2.2-.1-1.4z"/><path d="M67.433 20.4c.4-2.8-1.6-5.4-4.4-5.8-2.8-.4-5.4 1.6-5.8 4.4-.4 2.8 1.6 5.4 4.4 5.8 2.9.4 5.4-1.6 5.8-4.4zm-5.3 4c0-.2-.1-.4-.3-.4-.2 0-.4.1-.4.3-.2 0-.3-.1-.4-.1.1-.2 0-.4-.2-.5-.2-.1-.4 0-.5.2-.1-.1-.3-.1-.4-.2.1-.2.1-.4-.1-.5-.3-.2-.5-.2-.6 0l-.3-.3c.2-.1.2-.4.1-.5-.1-.2-.4-.2-.5-.1-.1-.1-.2-.3-.2-.4.2-.1.3-.3.2-.5-.1-.2-.3-.3-.5-.2 0-.1-.1-.3-.1-.5.2 0 .4-.2.3-.4 0-.2-.2-.4-.4-.3v-.5c.2 0 .4-.1.4-.3 0-.2-.1-.4-.3-.4 0-.2.1-.3.1-.5.2.1.4 0 .5-.2.1-.2 0-.4-.2-.5.1-.1.2-.3.2-.4.2.1.4.1.5-.1.1-.2.1-.4-.1-.5l.3-.3c.1.2.4.2.5.1.2-.1.2-.4.1-.5.1-.1.3-.2.4-.2.1.2.3.3.5.2.2-.1.3-.3.2-.5.2 0 .3-.1.5-.1 0 .2.2.4.4.3.2 0 .4-.2.3-.4h.5c0 .2.1.4.3.4.2 0 .4-.1.4-.3.2 0 .3.1.5.1-.1.2 0 .4.2.5.2.1.4 0 .5-.2.1.1.3.2.4.2-.1.2-.1.4.1.5.2.1.4.1.5-.1l.3.3c-.2.1-.2.4-.1.5.1.2.4.2.5.1.1.1.2.3.2.4-.1 0-.1.3-.1.5.1.2.3.3.5.2 0 .1.1.3.1.5-.2 0-.4.2-.3.4 0 .2.2.4.4.3v.5c-.2 0-.4.1-.4.3 0 .2.1.4.3.4 0 .2-.1.3-.1.5-.2-.1-.4 0-.5.2-.1.2 0 .4.2.5-.1.1-.2.3-.2.4-.2-.1-.4-.1-.5.1-.1.2-.1.4.1.5l-.3.3c-.1-.2-.4-.2-.5-.1-.2.1-.2.4-.1.5-.1.1-.3.2-.4.2-.1-.2-.3-.3-.5-.2-.2.1-.3.3-.2.5-.1 0-.3.1-.4.1 0-.2-.2-.4-.4-.3-.2 0-.4.2-.3.4-.4.1-.6.1-.7.1z"/><g><path d="M62.433 20.6s.1-.1 0 0l.3 1.4.8 2.1-.4-2.2-.5-1.4h.1l.6 1.3 1.3 1.8-.9-2-.8-1.2h.1l.9 1.1 1.7 1.4-1.4-1.7-1.1-.9v-.1l1.2.8 2 .9-1.8-1.3-1.3-.6v-.1l1.4.5 2.2.4-2.1-.8-1.4-.3 1.5.1 2.2-.2-2.2-.2-1.5.1v-.1l1.4-.3 2.1-.8-2.2.4-1.4.5v-.1l1.3-.6 1.8-1.3-2 .9-1.2.8v-.1l1.1-.9 1.4-1.7-1.7 1.4-1 1.4h-.1l.8-1.2.9-2-1.2 1.8-.6 1.3h-.1l.5-1.4.4-2.2-.8 2.1-.3 1.4.1-1.5-.2-2.1-.2 2.2.1 1.5h-.1l-.3-1.4-.8-2.1.4 2.2.5 1.4h-.1l-.6-1.3-1.3-1.8.9 2 .8 1.2h-.1l-.9-1.1-1.7-1.4 1.4 1.7 1.1.9v.1l-1.2-.8-2-.9 1.8 1.3 1.3.6v.1l-1.4-.5-2.2-.4 2.1.8 1.4.3-1.5-.1-2.2.2 2.2.2 1.5-.1v.1l-1.4.3-2.1.8 2.2-.4 1.4-.5v.1l-1.3.6-1.6 1 2-.9 1.2-.8v.1l-1.1.9-1.4 1.7 1.7-1.4.9-1.1h.1l-.8 1.2-.9 2 1.3-1.8.6-1.3h.1l-.5 1.4-.4 2.2.8-2.1.3-1.4-.2 1.3.2 2.2.2-2.2-.1-1.4z"/><path d="M67.433 20.4c.4-2.8-1.6-5.4-4.4-5.8-2.8-.4-5.4 1.6-5.8 4.4-.4 2.8 1.6 5.4 4.4 5.8 2.9.4 5.4-1.6 5.8-4.4zm-5.3 4c0-.2-.1-.4-.3-.4-.2 0-.4.1-.4.3-.2 0-.3-.1-.4-.1.1-.2 0-.4-.2-.5-.2-.1-.4 0-.5.2-.1-.1-.3-.1-.4-.2.1-.2.1-.4-.1-.5-.3-.2-.5-.2-.6 0l-.3-.3c.2-.1.2-.4.1-.5-.1-.2-.4-.2-.5-.1-.1-.1-.2-.3-.2-.4.2-.1.3-.3.2-.5-.1-.2-.3-.3-.5-.2 0-.1-.1-.3-.1-.5.2 0 .4-.2.3-.4 0-.2-.2-.4-.4-.3v-.5c.2 0 .4-.1.4-.3 0-.2-.1-.4-.3-.4 0-.2.1-.3.1-.5.2.1.4 0 .5-.2.1-.2 0-.4-.2-.5.1-.1.2-.3.2-.4.2.1.4.1.5-.1.1-.2.1-.4-.1-.5l.3-.3c.1.2.4.2.5.1.2-.1.2-.4.1-.5.1-.1.3-.2.4-.2.1.2.3.3.5.2.2-.1.3-.3.2-.5.2 0 .3-.1.5-.1 0 .2.2.4.4.3.2 0 .4-.2.3-.4h.5c0 .2.1.4.3.4.2 0 .4-.1.4-.3.2 0 .3.1.5.1-.1.2 0 .4.2.5.2.1.4 0 .5-.2.1.1.3.2.4.2-.1.2-.1.4.1.5.2.1.4.1.5-.1l.3.3c-.2.1-.2.4-.1.5.1.2.4.2.5.1.1.1.2.3.2.4-.1 0-.1.3-.1.5.1.2.3.3.5.2 0 .1.1.3.1.5-.2 0-.4.2-.3.4 0 .2.2.4.4.3v.5c-.2 0-.4.1-.4.3 0 .2.1.4.3.4 0 .2-.1.3-.1.5-.2-.1-.4 0-.5.2-.1.2 0 .4.2.5-.1.1-.2.3-.2.4-.2-.1-.4-.1-.5.1-.1.2-.1.4.1.5l-.3.3c-.1-.2-.4-.2-.5-.1-.2.1-.2.4-.1.5-.1.1-.3.2-.4.2-.1-.2-.3-.3-.5-.2-.2.1-.3.3-.2.5-.1 0-.3.1-.4.1 0-.2-.2-.4-.4-.3-.2 0-.4.2-.3.4-.4.1-.6.1-.7.1z"/></g></g><g><path d="M42 83.6H15c4 3.9 8.7 7.2 13.9 9.6L42 83.6zM68.9 93.2l-.3.2c5.4-2.4 10.2-5.7 14.3-9.7h-27l13 9.5z" fill="#11664C"/><path d="M55.9 83.6l-7-5.1-6.9 5.1-13 9.6c.6.3 1.1.5 1.7.7 5.7 2.3 11.8 3.6 18.3 3.6s12.6-1.3 18.3-3.6c.4-.2.9-.4 1.3-.6l.3-.2-13-9.5z" fill="#1CB7C8"/><path d="M49.2 48.5V39c0-.1-.1-.2-.2-.2s-.2.1-.2.2v9.4c0 .1.1.2.2.2.1.1.2 0 .2-.1M41.4 60.9h15.2v17.2H41.4z" fill="#F9FAFB"/><path d="M43.6 78.2V62.9h10.8v15.3h1.2V61.7H42.4v16.5z" fill="#D4D7D9"/><path fill="#E6E7E7" d="M56.6 64.3h6.5V78h-6.5z"/><path fill="#E6E7E7" d="M63 64.3h4.6V78H63zM56.6 61.6h6.5v2.7h-6.5z"/><path d="M63 61.6h-6.4v-.8H63c.2 0 .4.2.4.4 0 .3-.2.4-.4.4z" fill="#BBB"/><path d="M61.5 72.2h-3.4v-4.3l1.5-1c.1-.1.3-.1.4 0l1.5 1v4.3zM66.4 72.2h-2.1v-4.3l.9-1c.1-.1.2-.1.3 0l.9 1v4.3zM66.4 78h-2.1v-3.5l.9-.8h.3l.9.8V78z" fill="#9A9A9A"/><path fill="#E6E7E7" d="M30.3 64.3h4.6V78h-4.6z"/><path d="M33.7 72.2h-2.1v-4.3l.9-1c.1-.1.2-.1.3 0l.9 1v4.3zM33.7 78h-2.1v-3.5l.9-.8h.3l.9.8V78z" fill="#9A9A9A"/><g fill="#9A9A9A"><path d="M58.5 64h-1v-1.7l.5-.4h.1l.5.4zM60.3 64h-1v-1.7l.5-.4h.1l.5.4zM62.2 64h-1v-1.7l.5-.4h.1l.5.4z"/></g><path d="M61.5 78h-3.4v-3.5l1.5-.8h.4l1.5.8V78z" fill="#9A9A9A"/><path fill="#BBB" d="M41.4 59.4h15.2v1.5H41.4z"/><path d="M57.2 51.7C53 47 49 43.6 49 43.6s-4 3.4-8.2 8.1c-4.2 4.7.6 7.7.6 7.7h15.2s4.7-3 .6-7.7z" fill="#F9FAFB"/><path d="M60.1 57.6v-1.4c0-.1-.1-.3-.3-.3-.1 0-.3.1-.3.3v1.4c-2.6 1.1-3 3.2-3 3.2H63c0 .1-.3-2.1-2.9-3.2z" fill="#F9FAFB"/><path fill="#E6E7E7" d="M34.9 64.4h6.5v13.7h-6.5zM34.9 61.7h6.5v2.7h-6.5z"/><path d="M35 61.6h6.4v-.8H35c-.2 0-.4.2-.4.4 0 .3.2.4.4.4z" fill="#BBB"/><path d="M36.5 72.2h3.4v-4.3l-1.5-1c-.1-.1-.3-.1-.4 0l-1.5 1v4.3z" fill="#9A9A9A"/><g fill="#9A9A9A"><path d="M39.5 64h1v-1.7l-.4-.3H40l-.5.4zM37.7 64h1v-1.7l-.5-.3h-.1l-.5.4zM35.8 64h1v-1.7l-.4-.3h-.1l-.5.4V64z"/></g><path d="M36.5 78h3.4v-3.5l-1.5-.8H38l-1.5.8V78z" fill="#9A9A9A"/><path d="M37.9 57.6v-1.4c0-.1.1-.3.3-.3.1 0 .3.1.3.3v1.4c2.6 1.1 3 3.2 3 3.2H35c0 .1.3-2.1 2.9-3.2zM81.1 54.9h-2.9L78 57h3.2zM72.7 61.3h-2.2l-.1 1.6h2.4zM72.8 59.6c-.6-.7-1.2-1.2-1.2-1.2s-.6.5-1.2 1.2.1 1.2.1 1.2h2.4c-.2 0 .6-.5-.1-1.2z" fill="#F9FAFB"/><path fill="#F9FAFB" d="M82 78h-4.7l1.1-21.6h2.4z"/><g fill="#9A9A9A"><path d="M79 56.5h-.5v-.8l.2-.2h.1l.2.2v.8zM79.9 56.5h-.5v-.8l.2-.2h.1l.2.2v.8zM80.8 56.5h-.5v-.8l.2-.2h.1l.2.2v.8z"/></g><path d="M81.3 52.6c-.9-1-1.7-1.7-1.7-1.7s-.8.7-1.7 1.7c-.9 1 .1 1.6.1 1.6h3.2s1-.6.1-1.6z" fill="#F9FAFB"/><path d="M81.5 64.6h-3.8c-.2 0-.4-.2-.4-.4s.2-.4.4-.4h3.8c.2 0 .4.2.4.4s-.2.4-.4.4zM81.5 57.7h-3.7c-.2 0-.4-.2-.4-.4s.2-.4.4-.4h3.7c.2 0 .4.2.4.4 0 .3-.2.4-.4.4zM81.9 72.7h-4.4c-.2 0-.4-.2-.4-.4s.2-.4.4-.4h4.4c.2 0 .4.2.4.4s-.2.4-.4.4zM81.3 54.9h-3.4c-.2 0-.4-.2-.4-.4s.2-.4.4-.4h3.4c.2 0 .4.2.4.4s-.2.4-.4.4z" fill="#BBB"/><path fill="#F9FAFB" d="M73.3 78h-3.4l.8-16.1h1.8z"/><g fill="#9A9A9A"><path d="M71.1 62.5h-.4v-.6l.2-.1.2.1v.6zM71.8 62.5h-.4v-.6l.2-.1.2.1v.6zM72.5 62.5h-.4v-.6l.2-.1.2.1v.6z"/></g><path d="M73 68h-2.8c-.2 0-.3-.1-.3-.3 0-.2.1-.3.3-.3H73c.2 0 .3.1.3.3 0 .2-.1.3-.3.3zM73 63.4h-2.8c-.2 0-.3-.1-.3-.3 0-.2.1-.3.3-.3H73c.2 0 .3.1.3.3-.1.2-.2.3-.3.3zM73.2 74h-3.3c-.2 0-.3-.1-.3-.3 0-.2.1-.3.3-.3h3.3c.2 0 .3.1.3.3.1.2-.1.3-.3.3zM72.8 61.3h-2.5c-.1 0-.3-.1-.3-.3 0-.1.1-.3.3-.3h2.5c.1 0 .3.1.3.3 0 .2-.1.3-.3.3z" fill="#BBB"/><path fill="#F9FAFB" d="M16.9 54.9h2.9L20 57h-3.2zM25.3 61.3h2.2l.1 1.6h-2.4zM25.2 59.6c.6-.7 1.2-1.2 1.2-1.2s.6.5 1.2 1.2-.1 1.2-.1 1.2h-2.4c.2 0-.6-.5.1-1.2z"/><path fill="#F9FAFB" d="M16 78h4.7l-1.1-21.6h-2.4z"/><g fill="#9A9A9A"><path d="M19 56.5h.5v-.8l-.2-.2h-.1l-.2.1v.9zM18.1 56.5h.5v-.8l-.2-.2h-.1l-.2.2v.8zM17.2 56.5h.5v-.8l-.2-.2h-.1l-.2.2v.8z"/></g><path d="M16.7 52.6c.9-1 1.7-1.7 1.7-1.7s.8.7 1.7 1.7c.9 1-.1 1.6-.1 1.6h-3.2s-1-.6-.1-1.6z" fill="#F9FAFB"/><path d="M16.5 64.6h3.8c.2 0 .4-.2.4-.4s-.2-.4-.4-.4h-3.8c-.2 0-.4.2-.4.4s.2.4.4.4zM16.5 57.7h3.7c.2 0 .4-.2.4-.4s-.2-.4-.4-.4h-3.7c-.2 0-.4.2-.4.4 0 .3.2.4.4.4zM16.1 72.7h4.4c.2 0 .4-.2.4-.4s-.2-.4-.4-.4h-4.4c-.2 0-.4.2-.4.4s.2.4.4.4zM16.7 54.9h3.4c.2 0 .4-.2.4-.4s-.2-.4-.4-.4h-3.4c-.2 0-.4.2-.4.4s.2.4.4.4z" fill="#BBB"/><path fill="#F9FAFB" d="M24.7 78h3.4l-.8-16.1h-1.8z"/><g fill="#9A9A9A"><path d="M26.9 62.5h.4v-.6l-.2-.1-.2.1v.6zM26.2 62.5h.4v-.6l-.2-.1-.2.1v.6zM25.5 62.5h.4v-.6l-.2-.1-.2.1v.6z"/></g><path d="M25 68h2.8c.2 0 .3-.1.3-.3 0-.2-.1-.3-.3-.3H25c-.2 0-.3.1-.3.3 0 .2.1.3.3.3zM25 63.4h2.8c.2 0 .3-.1.3-.3 0-.2-.1-.3-.3-.3H25c-.2 0-.3.1-.3.3.1.2.2.3.3.3zM24.8 74h3.3c.2 0 .3-.1.3-.3 0-.2-.1-.3-.3-.3h-3.3c-.2 0-.3.1-.3.3-.1.2.1.3.3.3zM25.2 61.3h2.5c.1 0 .3-.1.3-.3 0-.1-.1-.3-.3-.3h-2.5c-.1 0-.3.1-.3.3 0 .2.1.3.3.3z" fill="#BBB"/><path d="M49 65.5c-4.6 0-4.6 5-4.6 5.2V78h9.2v-7.4c0-.1 0-5.1-4.6-5.1z" fill="#9A9A9A"/><g fill="#E6E7E7"><path d="M41.9 60.5h.6c.2 0 .4-.2.4-.4s-.2-.4-.4-.4h-.6c-.2 0-.4.2-.4.4s.2.4.4.4M53.1 60.5h1.2c.2 0 .4-.2.4-.4s-.2-.4-.4-.4h-1.2c-.2 0-.4.2-.4.4s.2.4.4.4zm-2.4 0h1.2c.2 0 .4-.2.4-.4s-.2-.4-.4-.4h-1.2c-.2 0-.4.2-.4.4.1.2.2.4.4.4zm-2.3 0h1.2c.2 0 .4-.2.4-.4s-.2-.4-.4-.4h-1.2c-.2 0-.4.2-.4.4s.2.4.4.4zm-2.4 0h1.2c.2 0 .4-.2.4-.4s-.2-.4-.4-.4H46c-.2 0-.4.2-.4.4s.2.4.4.4zm-2.3 0h1.2c.2 0 .4-.2.4-.4s-.2-.4-.4-.4h-1.2c-.2 0-.4.2-.4.4s.1.4.4.4zM55.5 60.5h.6c.2 0 .4-.2.4-.4s-.2-.4-.4-.4h-.6c-.2 0-.4.2-.4.4s.1.4.4.4"/></g><g><path d="M13.2 81.7h71.6c.8-.9 1.5-1.8 2.3-2.7H10.9c.7.9 1.5 1.8 2.3 2.7z" fill="#E6E7E7"/><path d="M87.1 79c.3-.3.5-.7.8-1H10.1c.3.3.5.7.8 1h76.2z" fill="#BBB"/><path d="M15.4 84l.1.1h66.9l.1-.1H15.4z" fill="#0875BE"/><path d="M15.4 84h67.1c.8-.7 1.5-1.5 2.3-2.3H13.2c.7.8 1.5 1.6 2.2 2.3z" fill="#BBB"/></g></g></g></svg>