<svg width="98" height="98" xmlns="http://www.w3.org/2000/svg"><g fill="none" fill-rule="evenodd"><g fill-rule="nonzero"><path d="M48.713.401c-22.58 0-41.55 15.36-47.108 36.22A50.104 50.104 0 0 0 0 49.115c0 5.387.917 10.602 2.522 15.473 6.533-19.313 24.7-33.24 46.191-33.24 21.492 0 39.716 13.927 46.192 33.24 1.662-4.871 2.522-10.086 2.522-15.473C97.427 22.236 75.592.4 48.713.4z" fill="#2E3696"/><path d="M48.713 31.349c-21.49 0-39.658 13.926-46.191 33.24 6.476 19.313 24.7 33.24 46.191 33.24 1.662 0 3.324-.116 4.986-.23-.63-.573-1.088-1.261-1.088-2.12a5.44 5.44 0 0 1 3.61-5.273c4.241-1.834 10.602-.802 14.958 2.178 11.118-5.789 19.715-15.76 23.726-27.738-6.476-19.314-24.7-33.297-46.192-33.297z" fill="#88FFE8"/><path d="M56.221 90.149a5.44 5.44 0 0 0-3.61 5.272c0 .86.458 1.547 1.088 2.12a48.28 48.28 0 0 0 12.895-3.152 65.828 65.828 0 0 0 4.585-2.063c-4.413-2.98-10.717-4.011-14.958-2.177z" fill="#1ABC9C"/></g><path d="M64.828 58.387c-2.968 4.74-8.22 7.825-12.958 10.566a2.23 2.23 0 0 0-.97.8c-.286.571-.343 1.256-.115 1.828.856 3.427 4.281 7.253 1.998 10.851-1.713 2.685-4.795 1.657-5.652-1.085-.513-1.77-1.883-3.198-3.596-3.826v-5.084c0-1.428-.57-2.798-1.598-3.826a5.402 5.402 0 0 0-3.825-1.6h-12.16c-.285-2.513-.456-5.026-.456-7.539 0-.742-.114-1.428-.4-2.113a3.647 3.647 0 0 0-2.226-1.885c-4.681-2.056-10.79-1.313-15.87-.457A48.634 48.634 0 0 1 39.025 32c-1.256 1.713-3.14 5.083.8 6.454 5.366 1.885 7.192 3.712 5.366 9.31-1.77 5.597 7.192 7.425 8.962 1.827.343-1.77 1.827-3.084 3.596-3.312 1.428 0 2.798.457 3.825 1.37a16.283 16.283 0 0 1 3.368 3.77c1.484 2.228 1.37 4.97-.114 6.968z" fill="#1ABC9C" fill-rule="nonzero"/><path d="M7.7 33.1v37.648" stroke="#88FFE8" stroke-dasharray="0,4.857" stroke-linecap="round" stroke-linejoin="round" stroke-width="2"/><path d="M69.5 9.208v69.493" stroke="#88FFE8" stroke-dasharray="0,4.9495" stroke-linecap="round" stroke-linejoin="round" stroke-width="2"/><path d="M23.5 19.164V40.56" stroke="#88FFE8" stroke-dasharray="0,4.9622" stroke-linecap="round" stroke-linejoin="round" stroke-width="2"/><path d="M86.1 35.103v29.479" stroke="#88FFE8" stroke-dasharray="0,4.8826" stroke-linecap="round" stroke-linejoin="round" stroke-width="2"/><path d="M49.2 21.803v34.784" stroke="#88FFE8" stroke-width="2" stroke-linecap="round" stroke-linejoin="round" stroke-dasharray="0,4.8612"/><g fill="#E6E7E7" fill-rule="nonzero"><path d="M34.356 17.928H3.943C1.746 17.928 0 16.145 0 13.903c0-2.243 1.746-4.025 3.943-4.025h30.413c2.197 0 3.943 1.782 3.943 4.025 0 2.242-1.746 4.024-3.943 4.024z"/><path d="M45.057 24.828H14.644c-2.197 0-3.943-1.783-3.943-4.026 0-2.242 1.746-4.024 3.943-4.024h30.413c2.197 0 3.943 1.782 3.943 4.024 0 2.243-1.746 4.026-3.943 4.026zM20.84 10.453H7.884c-2.196 0-3.942-1.783-3.942-4.025 0-2.243 1.746-4.026 3.942-4.026H20.84c2.197 0 3.943 1.783 3.943 4.026 0 2.242-1.746 4.025-3.943 4.025z"/></g><g fill="#BBB" fill-rule="nonzero"><path d="M93.62 31.33H68.515c-1.814 0-3.23-1.451-3.23-3.18 0-1.786 1.473-3.18 3.23-3.18H93.62c1.813 0 3.23 1.45 3.23 3.18 0 1.729-1.473 3.18-3.23 3.18z"/><path d="M88.917 36.797H77.298c-1.813 0-3.23-1.45-3.23-3.18 0-1.785 1.474-3.18 3.23-3.18h11.619c1.813 0 3.23 1.45 3.23 3.18.057 1.73-1.417 3.18-3.23 3.18zM93.62 25.36H77.356c-1.813 0-3.23-1.45-3.23-3.18 0-1.785 1.473-3.18 3.23-3.18h16.266c1.813 0 3.23 1.45 3.23 3.18 0 1.73-1.473 3.18-3.23 3.18z"/></g></g></svg>