<svg width="94" height="71" xmlns="http://www.w3.org/2000/svg"><g stroke="#9B9B9B" stroke-width="3" fill="none" fill-rule="evenodd" stroke-linecap="round" stroke-linejoin="round"><path d="M51.366 6.455a4.533 4.533 0 1 1-4.53-4.53 4.53 4.53 0 0 1 4.53 4.53zM23.177 38.272a4.527 4.527 0 0 1-4.53 4.53 4.528 4.528 0 0 1-4.537-4.53 4.528 4.528 0 0 1 4.537-4.53 4.527 4.527 0 0 1 4.53 4.53zM70.486 38.272a4.528 4.528 0 0 0 4.537 4.53 4.527 4.527 0 0 0 4.53-4.53 4.527 4.527 0 0 0-4.53-4.53 4.528 4.528 0 0 0-4.537 4.53zM51.366 38.272a4.527 4.527 0 0 1-4.53 4.53 4.528 4.528 0 0 1-4.537-4.53 4.528 4.528 0 0 1 4.537-4.53 4.527 4.527 0 0 1 4.53 4.53zM51.366 64.637a4.53 4.53 0 0 1-4.53 4.53 4.532 4.532 0 0 1-4.537-4.53 4.528 4.528 0 0 1 4.537-4.531 4.527 4.527 0 0 1 4.53 4.53zM31.179 64.637a4.53 4.53 0 0 1-4.53 4.53 4.532 4.532 0 0 1-4.537-4.53 4.528 4.528 0 0 1 4.536-4.531 4.527 4.527 0 0 1 4.531 4.53zM10.991 64.637a4.53 4.53 0 0 1-4.53 4.53 4.532 4.532 0 0 1-4.537-4.53 4.528 4.528 0 0 1 4.536-4.531 4.527 4.527 0 0 1 4.531 4.53zM62.485 64.637a4.532 4.532 0 0 0 4.536 4.53 4.53 4.53 0 0 0 0-9.061 4.528 4.528 0 0 0-4.536 4.53zM82.672 64.637a4.532 4.532 0 0 0 4.537 4.53 4.53 4.53 0 0 0 0-9.061 4.528 4.528 0 0 0-4.537 4.53zM46.833 10.994v22.747M18.644 33.739l28.19-22.747M46.833 42.805v17.299M10.991 64.637h11.12M31.179 64.637h11.12M51.366 64.637h11.12M71.554 64.637h11.12M18.644 42.805L6.461 60.104M26.646 60.103l-8.004-17.298M46.833 60.103l28.19-17.298M75.022 42.805L67.02 60.104M87.208 60.103L75.025 42.805M75.022 33.739l-28.19-22.747M26.646 60.103l20.187-17.298"/></g></svg>