<svg width="96" height="98" xmlns="http://www.w3.org/2000/svg" xmlns:xlink="http://www.w3.org/1999/xlink"><defs><ellipse id="a" cx="47.888" cy="48.036" rx="47.719" ry="47.98"/><path id="c" d="M0 0h29.165v21.842H0z"/></defs><g fill="none" fill-rule="evenodd"><g transform="translate(0 1.129)"><mask id="b" fill="#fff"><use xlink:href="#a"/></mask><use fill="#12D3DC" fill-rule="nonzero" xlink:href="#a"/><g mask="url(#b)" fill="#1ABC9C" fill-rule="nonzero"><path d="M-17.796 67.228S24.87 44.141 30.484 44.65c5.614.508 77.474 37.82 77.474 37.82L60.8 123.675l-90.386-13.773 11.79-42.674z"/><path d="M21.221 79.477s49.909-26.869 58.105-26.36c8.197.508 107.228 41.94 107.228 41.94L123.51 133.27-8.253 119.272l29.474-39.795z"/></g></g><g fill-rule="nonzero"><path d="M61.754 43.248v-.066c.066 0 0 0 0 .066z" fill="#34495E"/><path d="M61.81 43.803v-.621c-.112.734-1.74 7.394-14.315 12.08-13.362 4.91-20.884 13.095-20.884 13.095v4.29s1.403-3.048 5.67-7c1.515 4.573 8.533 3.952 8.533 3.952-2.246-4.403-5.502-5.419-6.625-5.645.45-.338.899-.734 1.348-1.072 2.077 4.12 7.354 3.5 7.354 3.5-1.796-3.613-4.266-4.742-5.22-5.024.336-.226.673-.452 1.01-.621 1.908 2.992 6.344 3.16 6.344 3.16-.73-2.088-3.369-3.894-4.267-4.402.28-.17.561-.339.842-.452 2.639 3.33 5.39 2.936 5.39 2.936-.73-1.807-2.864-3.444-3.537-3.952.224-.113.393-.225.617-.282 2.246 2.766 5.109 2.37 5.109 2.37-.561-1.692-2.583-2.934-3.2-3.273.225-.113.505-.226.73-.339 2.526 2.597 4.772 1.92 4.772 1.92-.618-1.242-2.47-2.371-2.976-2.653.113-.057.281-.113.393-.17.169-.056.337-.113.506-.226 1.74 2.258 3.705 1.524 3.705 1.524 0-.903-1.965-1.975-2.246-2.145.28-.112.505-.225.786-.338 1.797 1.75 3.65.96 3.65.96-.113-1.242-2.19-1.638-2.19-1.638s.449-.225.842-.451c1.123 1.129 3.088.451 3.088.451-.225-.79-1.123-1.072-1.74-1.241.336-.226.617-.34.617-.34 1.179.678 2.638 0 2.638 0-.449-.564-1.572-.733-1.628-.733.225-.17.393-.282.618-.451 1.46.451 2.133-.17 2.133-.17.28-.564-.842-.62-1.179-.62l.506-.509c.224.057.842.113 1.628-.17 0 0-.393-.62-.955-.676 0 0 .393-.283.45-.396.224.057.785.057 1.066-.169 0 0 .168-.339-.674-.395.113-.113.169-.282.281-.395.225-.057.561-.113.786-.17.225-.056-.225-.282-.505-.338l.337-.678c.168-.056.393-.112.56-.338.057-.395-.111-1.524-.167-2.145z" fill="#424548"/><path d="M42.891 50.068c-9.15.96-13.698 3.613-13.698 3.613s-1.628 1.298-1.291 5.25c.337 3.95 1.291 5.588 1.291 5.588l1.01-.508c-3.143-3.105-.392-9.088-.392-9.088 2.75 2.991 3.143 5.87 3.087 7.394.45-.282.842-.564 1.291-.79-2.526-3.613.169-7.902.169-7.902 2.133 2.765 2.358 5.136 2.302 6.378l.842-.508c-1.291-3.33.842-7 .842-7 1.235 1.581 1.516 4.234 1.572 5.645.28-.17.561-.282.898-.451-.898-4.403 1.235-6.21 1.235-6.21.898 1.638.955 4.008.955 5.25.224-.113.449-.17.673-.282-.73-3.161 1.01-5.25 1.01-5.25 1.011 1.355 1.011 3.556.955 4.46.225-.057.393-.17.618-.226-.45-2.935 1.01-4.234 1.01-4.234.618 1.016.674 2.71.73 3.556.168-.056.28-.112.45-.169-.506-2.314.954-3.556.954-3.556.673.395.673 2.258.617 2.992.225-.057.393-.17.618-.226-.337-1.863.786-2.992.786-2.992.842.452.786 1.863.673 2.427.337-.169.618-.282.955-.451-.506-1.13.168-2.54.168-2.54.73.338.786 1.524.786 1.975.225-.113.45-.282.618-.395-.393-1.242.561-2.483.561-2.483.505.451.618 1.298.618 1.637.224-.17.392-.34.56-.452-.28-1.242.225-1.863.225-1.863.506-.282.618.678.618 1.073.168-.17.393-.339.561-.508-.056-.339-.056-1.073.169-1.976 0 0 .674.282.73.96.168-.17.337-.34.449-.565-.112-.282-.169-.734 0-1.072 0 0 .28-.226.505.395.112-.113.225-.282.28-.395-.055-.226-.112-.565-.168-.79-.056-.226.281.056.506.282.954-1.468 1.403-3.161 1.403-3.161-7.354 8.467-9.656 6.152-18.75 7.168z" fill="#424548"/></g><path fill="#34495E" fill-rule="nonzero" d="M25.958 6.872l1.272-3.18.928.372-1.272 3.18z"/><path d="M26.554 18.12V.055h-5.052V89.13c1.628 1.072 3.312 2.088 5.052 2.935V18.119z" fill="#424548" fill-rule="nonzero"/><path fill="#34495E" fill-rule="nonzero" d="M26.554 11.741h1v4.008h-1z"/><path d="M67.537 45.778h21.895V7.395h-15.72v32.174l-6.175 6.21zM84.49 37.03l-1.74-.847-1.684.96.28-1.976-1.46-1.354 1.91-.339.785-1.806.899 1.75 1.965.225-1.348 1.412.393 1.975zm.786-20.603l.842 1.58 1.74.226-1.234 1.299.336 1.75-1.572-.79-1.515.902.224-1.75-1.291-1.185 1.74-.339.73-1.693zm-5.782-4.572l.73-1.637.842 1.58 1.74.226-1.235 1.298.337 1.75-1.572-.79-1.516.903.225-1.75-1.292-1.185 1.74-.395zm-2.807 12.418l.73-1.637.842 1.58 1.74.226-1.235 1.299.337 1.75-1.572-.79-1.516.903.225-1.75-1.292-1.186 1.74-.395z" fill="#085B90" fill-rule="nonzero"/><path fill="#0D4570" fill-rule="nonzero" d="M67.537 39.57v6.208l6.175-6.209zM61.923 7V3.555L54.4 7zM61.923 15.749V11.74h-8.814zM46.596 18.12h12.015l-12.015-5.476zM26.554 11.74v4.009l8.87-4.008zM41.88 1.185H29.868L41.88 6.661zM26.554 3.556V7h7.58zM29.867 18.12H41.88v-5.476zM58.61 1.185H46.597v5.476z"/><path fill="#0D4570" fill-rule="nonzero" d="M61.923 1.185V18.12H26.554v21.45H73.712V1.185zM26.554 15.749v.96zM26.554 15.749v.96l11.004-4.968h-2.133z"/><path fill="#0D4570" fill-rule="nonzero" d="M41.88 11.74h-.055l-14.092 6.38h2.134l12.014-5.476zM61.923 3.556v-.96L52.267 7H54.4zM46.596 7h1.348l12.8-5.815H58.61L46.596 6.661zM26.554 16.708h1v1.411h-1z"/><path fill="#0D4570" fill-rule="nonzero" d="M41.825 11.74h-4.267l-11.004 4.968v1.411h1.18zM52.267 7l9.656-4.403V1.185h-1.18L47.944 7zM26.554 2.597v.96zM46.596 11.74v.904l12.015 5.475h2.133l-14.091-6.378zM50.92 11.74l11.003 4.968v-.96l-8.814-4.007zM34.133 7h2.134l-9.713-4.403v.96zM41.88 7v-.34L29.868 1.186h-2.134L40.533 7z"/><path fill="#0D4570" fill-rule="nonzero" d="M26.268 2.514l.66-1.239.883.47-.661 1.24z"/><path fill="#0D4570" fill-rule="nonzero" d="M36.267 7h4.266l-12.8-5.815h-1.179v1.412zM46.653 11.74l14.09 6.38h1.18v-1.412l-11.004-4.967zM26.554 10.838h1v1h-1zM26.554 6.999h1v1h-1zM53.109 11.74h8.814v-.902h-10.78z"/><path fill="#0D4570" fill-rule="nonzero" d="M34.133 7h-7.579v.903h9.544zM52.435 7.903h9.488v-.904H54.4zM37.39 10.838H26.553v.903h8.87zM47.944 7h-1.348v.66zM37.39 10.838l-1.965.903h2.133l1.965-.903zM41.89 11.685l-.065.065h.065z"/><path fill="#0D4570" fill-rule="nonzero" d="M52.435 7.903l1.965-.904h-2.133l-1.965.904zM41.88 10.838h-2.357l-1.965.903h4.267l.056-.056z"/><path fill="#0D4570" fill-rule="nonzero" d="M46.596 7.903h3.706l1.965-.904h-4.323l-1.348.621zM46.596 11.75h.066l-.066-.065zM50.92 11.74h2.189l-1.965-.902H49.01zM41.88 7h-1.347l1.348.66zM36.098 7.903h2.134l-1.965-.904h-2.134z"/><path fill="#0D4570" fill-rule="nonzero" d="M46.596 10.838v.847l.057.056h4.266l-1.908-.903zM41.88 7.903V7.62L40.534 7h-4.266l1.965.903zM41.88 12.644v5.475h.899v-5.87zM45.81 7l.786-.34V1.186h-.898V7zM45.698 12.249v5.87h.898v-5.475zM42.667 7h.112V1.184h-.898v5.476z"/><path fill="#0D4570" fill-rule="nonzero" d="M41.88 11.74v.904l.899-.395v-.508zM46.596 6.66l-.785.397h.785zM45.698 12.249l.898.395v-.903h-.898zM41.88 6.66v.397h.787zM45.83 7h-.132v.065zM42.798 7h-.131l.131.065z"/><path fill="#0D4570" fill-rule="nonzero" d="M42.779 11.29l-.898.461v.066h.898zM45.698 7.903h.337l.561-.283V7h-.785l-.113.056zM42.779 10.95l-.225-.112h-.673v.847l.898-.396zM46.693 7.62l-.658.33h.658zM45.698 11.29v.527h.898v-.066zM42.498 7.903h.28v-.847l-.111-.057h-.786v.621z"/><path fill="#0D4570" fill-rule="nonzero" d="M42.554 10.838l.263.132v-.132zM41.88 7.62v.33h.658zM45.698 10.95v.34l.898.395v-.847h-.673z"/><path fill="#0D4570" fill-rule="nonzero" d="M45.961 10.838h-.263v.132zM44.52 11.74h-.562l-1.18.509v5.87h2.92v-5.87zM42.78 1.185h2.918v5.814H42.78z"/><path fill="#0D4570" fill-rule="nonzero" d="M42.779 12.335l1.179-.594h-1.18zM44.52 11.74l1.178.595v-.594zM44.239 7.733l1.46-.677v-.057h-2.92v.057z"/><path fill="#0D4570" fill-rule="nonzero" d="M43.958 11.77h.657l-.328-.198z"/><path fill="#0D4570" fill-rule="nonzero" d="M43.172 11.12l-.393.18v.48h1.179l.28-.18zM45.698 7.903v-.847l-1.46.677.394.17z"/><path fill="#0D4570" fill-rule="nonzero" d="M42.779 11.347l.46-.198-.46-.198zM45.698 11.3l-.393-.18-1.066.48.28.18h1.18zM44.239 7.733l-1.46-.677v.847h1.123zM43.79 10.838l-.618.282 1.067.452 1.066-.452-.617-.282zM44.632 7.931l-.393-.198-.337.198z"/><path fill="#0D4570" fill-rule="nonzero" d="M42.779 10.838v.132l.393.198.617-.33zM45.305 11.149l.46.198v-.396z"/><path fill="#0D4570" fill-rule="nonzero" d="M45.698 10.838h-1.01l.617.33.393-.198zM26.554 7.903h1v2.935h-1zM48.561 9.652l2.583 1.186h10.779V7.903h-9.488z"/><path fill="#0D4570" fill-rule="nonzero" d="M39.972 9.652l-3.874-1.75h-9.544v2.936H37.39z"/><path fill="#0D4570" fill-rule="nonzero" d="M39.972 9.652l-2.583 1.186h2.134l1.516-.678zM48.561 9.652l3.874-1.75h-2.133l-2.863 1.242zM41.039 10.16l-1.516.678h2.358v-.282z"/><path fill="#0D4570" fill-rule="nonzero" d="M47.439 9.144l2.863-1.241h-3.706v.846zM49.01 10.838h2.134L48.56 9.652l-1.122.508zM41.039 9.144l-2.807-1.241h-2.134l3.874 1.75z"/><path fill="#0D4570" fill-rule="nonzero" d="M46.596 9.54v.225l.843.395 1.122-.508-1.122-.508zM41.88 9.765V9.54l-.841-.396-1.067.508 1.067.508zM41.039 10.16l.842.396v-.79z"/><path fill="#0D4570" fill-rule="nonzero" d="M47.439 9.144l-.843-.395v.79zM41.88 8.75v-.847h-3.648l2.807 1.241zM46.596 10.838h2.415l-1.572-.678-.843.396z"/><path fill="#0D4570" fill-rule="nonzero" d="M47.439 10.16l-.843-.395v.79zM41.88 8.75l-.841.394.842.396zM46.093 7.903h-.395v.132zM41.88 10.556v.33h.674z"/><path fill="#0D4570" fill-rule="nonzero" d="M45.698 8.354l.898.395v-.846h-.56l-.338.112zM42.827 7.903h-.329l.329.132zM46.635 9.803V9.54l-.263.131zM41.88 9.54v.263l.264-.132z"/><path fill="#0D4570" fill-rule="nonzero" d="M42.779 9.935l-.674-.283-.224.113v.79l.673.283h.225zM46.372 9.652l.224-.112v-.79l-.898-.396V9.37zM45.923 10.885h.673v-.33zM42.779 8.354v-.339l-.28-.112h-.618v.846z"/><path fill="#0D4570" fill-rule="nonzero" d="M42.105 9.652l.674-.282V8.354l-.898.395v.79zM45.698 9.935v.903h.225l.673-.282v-.79l-.224-.114z"/><path fill="#0D4570" fill-rule="nonzero" d="M46.372 9.7l-.674-.33v.66zM42.779 9.37l-.674.33.674.33zM45.305 8.232l.393-.197v-.132h-1.066z"/><path fill="#0D4570" fill-rule="nonzero" d="M45.766 8.015l-.46.198.46.198zM43.172 8.232l.73-.33h-1.123v.133z"/><path fill="#0D4570" fill-rule="nonzero" d="M45.305 8.185l-.673-.282h-.73l-.73.282 1.067.508zM43.79 10.876h.898l-.45-.264z"/><path fill="#0D4570" fill-rule="nonzero" d="M45.698 9.37V8.354l-.393-.17-1.066.509zM42.779 9.935v.903h1.01l.45-.226zM42.779 8.015v.396l.46-.198z"/><path fill="#0D4570" fill-rule="nonzero" d="M44.688 10.838h1.01v-.903l-1.46.677zM44.239 8.693l-1.067-.508-.393.17V9.37z"/><path fill="#0D4570" fill-rule="nonzero" d="M44.239 10.612l1.46-.677V9.37l-1.46-.677-1.46.677v.565z"/><g transform="translate(26.947 1.129)"><mask id="d" fill="#fff"><use xlink:href="#c"/></mask><path d="M-.426-.267l30.204 22.02M29.778-.267L-.426 21.753" stroke="#F9FAFB" stroke-width="3.75" mask="url(#d)"/><path d="M-.426-.267l30.204 22.02M29.778-.267L-.426 21.753" stroke="#E94B4E" stroke-width="1.5" mask="url(#d)"/><path d="M16.416 9.49H29.54v2.863H16.416v9.864h-2.938v-9.864H-.375V9.49h13.853V-.375h2.938v9.864z" stroke="#F9FAFB" stroke-width=".75" fill="#E94B4E" mask="url(#d)"/></g><path stroke="#ECF0F1" stroke-width=".75" fill="#E74C3C" fill-rule="nonzero" d="M78.821 15.128l1.572-.903 1.572.79-.337-1.75 1.179-1.242-1.74-.226-.842-1.58-.73 1.637-1.74.339 1.347 1.185zM84.154 19.587l-.28 1.75 1.572-.903 1.572.79-.337-1.75 1.179-1.242-1.74-.225-.843-1.581-.73 1.637-1.74.339zM76.014 27.546l1.572-.903 1.572.79-.337-1.75L80 24.441l-1.74-.225-.842-1.58-.73 1.636-1.74.339 1.347 1.185zM83.537 33.473l-.955-1.75-.786 1.806-1.908.34 1.403 1.354-.28 1.919 1.74-.96 1.74.847-.393-1.919 1.404-1.411z"/><g fill-rule="nonzero"><path d="M63.382 83.541c1.18-.451 5.67-3.386 6.4-5.419.73-1.975 1.123-5.475.618-6.547-.674-1.355-1.74-2.597-3.48-3.67-3.594-2.2-7.86-1.919-9.152-1.58-1.29.395-3.817 1.129-5.501 1.468-1.628.395-7.523 4.12-9.6 5.588-2.078 1.468-5.053 3.048-6.12 3.105-1.122.112-2.19-1.13-5.108.451-2.92 1.58-2.583 4.685-2.583 4.685v1.92l-6.849 13.434c1.235.338 6.737-9.145 7.747-10.5 1.01-1.354 2.92-2.652 3.762-2.822.842-.17 4.94-1.129 6.12-1.75 1.178-.62 4.546-1.467 5.67-1.58 1.122-.113 5.838 2.37 7.522 3.387 1.684 1.016 1.347 5.531 1.347 5.531l-2.807 6.435s-1.122 0-3.312-.395c-2.19-.395-3.817.903-3.817.903l8.59.734 3.03-6.83c1.011-.451 2.19-1.919 2.695-2.54l.169-.339c0 .113 3.48-3.217 4.66-3.669z" fill="#735241"/><path d="M60.912 90.767l-2.02 5.418h-3.93l-1.797.96h7.298s1.74-4.516 2.302-5.814c.561-1.298 4.042-4.967 5.839-7.62 1.852-2.653 2.75-5.306 2.75-7.903 0-1.355-.224-2.822-.898-4.233.505 1.016.112 4.515-.617 6.547-.73 2.033-5.221 4.968-6.4 5.42-1.18.45-4.66 3.781-4.66 3.781l-.168.339c.168-.17.224-.282.224-.282.505.056 2.077 3.387 2.077 3.387z" fill="#563E32"/></g></g></svg>