<svg width="78" height="76" xmlns="http://www.w3.org/2000/svg" xmlns:xlink="http://www.w3.org/1999/xlink"><defs><path id="a" d="M0 76.047h78V.002H0z"/></defs><g fill="none" fill-rule="evenodd"><path d="M2.295 20.826V56.21c0 1.138 1.005 2.06 2.253 2.06h26.928-.624c4.501 0 8.149 3.34 8.149 7.452v8.03c0-4.112-4.79-7.452-9.291-7.452H4.548c-1.248 0-2.253-.922-2.253-2.06v-8.364M39 9.745c0-4.11-3.647-7.45-8.148-7.45H4.548c-1.248 0-2.253.921-2.253 2.06v7.827M39 9.745v55.977M14.324 15.705h12.645M19.154 25.535h7.818" stroke="#9B9B9B" stroke-width="3" stroke-linecap="round" stroke-linejoin="round"/><mask id="b" fill="#fff"><use xlink:href="#a"/></mask><path stroke="#9B9B9B" stroke-width="3" stroke-linecap="round" stroke-linejoin="round" mask="url(#b)" d="M14.324 46.618H26.97V35.363H14.324zM75.707 51.519v4.69c0 1.142-1.01 2.064-2.253 2.064H46.526h.624c-4.501 0-8.15 3.336-8.15 7.451v8.03c0-4.116 4.786-7.452 9.288-7.452h25.166c1.243 0 2.253-.922 2.253-2.064v-8.365M39 9.745c0-4.11 3.649-7.45 8.15-7.45h26.304c1.243 0 2.253.921 2.253 2.06v39.018M39 9.745v55.977M63.676 15.705H51.031M58.779 25.535h-7.75M63.676 35.362H51.031M58.763 45.192h-7.736"/></g></svg>