<svg width="97" height="100" xmlns="http://www.w3.org/2000/svg"><g fill="none" fill-rule="evenodd"><circle fill="#12D3DC" fill-rule="nonzero" cx="48.5" cy="50.5" r="48.5"/><path d="M23 92.182A48.695 48.695 0 0 0 47.914 99 48.815 48.815 0 0 0 86 80.818 48.695 48.695 0 0 0 61.086 74 48.815 48.815 0 0 0 23 92.182z" fill="#14CE47" fill-rule="nonzero"/><g fill-rule="nonzero"><path fill="#EF3748" d="M67.703 7.769H90v19.28H67.703z"/><path fill="#F9F9FA" d="M67.703 27.049H90v19.28H67.703z"/><path d="M26.132 18.543V.397H21v89.484c1.654 1.078 3.364 2.098 5.132 2.949V18.543z" fill="#424548"/><path fill="#A7AAAD" d="M67.76 40.092v6.238l6.273-6.238z"/><path d="M26.075 20.812h48.186V1.532H26.075v19.28zm11.52-16.9c.398 0 .74 0 1.083.058 1.026-.51 2.167-.738 3.364-.738 4.334 0 7.87 3.516 7.87 7.826s-3.536 7.826-7.87 7.826c-1.197 0-2.338-.284-3.364-.738-.342.057-.742.057-1.084.057-3.992 0-7.185-3.232-7.185-7.145 0-3.97 3.193-7.145 7.185-7.145z" fill="#EF3748"/><path fill="#F9F9FA" d="M26.075 20.811h48.186v19.28H26.075z"/><path d="M37.594 18.203c.4 0 .742-.057 1.084-.057a7.811 7.811 0 0 1-4.505-7.088c.057-3.119 1.882-5.784 4.505-7.088-.342-.057-.742-.057-1.084-.057-3.992 0-7.185 3.232-7.185 7.145 0 3.97 3.193 7.145 7.185 7.145z" fill="#FFF"/><path d="M34.23 11.058a7.811 7.811 0 0 0 4.505 7.088c1.026.51 2.167.738 3.364.738 4.334 0 7.87-3.516 7.87-7.826s-3.536-7.826-7.87-7.826c-1.197 0-2.338.284-3.364.738-2.68 1.304-4.505 3.969-4.505 7.088zm6.672 4.82l-1.084-.85-1.026.85.399-1.304-1.084-.794h1.369l.4-1.361.398 1.36h1.369l-1.083.795.342 1.304zm5.018 0l-1.084-.85-1.083.85.4-1.304-1.084-.794h1.368l.4-1.361.399 1.36h1.368l-1.083.795.399 1.304zm0-6.805l.399-1.36.4 1.36h1.368l-1.084.794.457 1.304-1.084-.85-1.083.85.399-1.304-1.084-.794h1.312zm-3.593-4.31l.4 1.361h1.368l-1.083.794.456 1.305-1.14-.851-1.084.85.399-1.304-1.083-.794h1.368l.4-1.36zm-4.39 4.31l.399-1.36.399 1.36h1.368l-1.083.794.456 1.304-1.083-.85-1.084.85.4-1.304-1.141-.794h1.368z" fill="#EF3748"/><path fill="#FFF" d="M37.252 11.228l1.084-.85 1.083.793-.456-1.304 1.083-.794h-1.311l-.4-1.304-.399 1.304h-1.368l1.14.794zM40.617 6.124l1.083.794-.456 1.305 1.083-.851 1.084.85-.456-1.304 1.14-.85-1.369.056-.399-1.36-.399 1.36zM45.293 11.228l1.026-.85 1.083.793-.399-1.304 1.084-.794h-1.369L46.32 7.77l-.4 1.304h-1.31l1.083.794zM40.217 13.78l-.399-1.361-.399 1.36h-1.312l1.084.795-.4 1.304 1.027-.85 1.084.85-.4-1.304 1.084-.85zM45.236 13.78l-.4-1.361-.399 1.36h-1.311l1.083.795-.456 1.304 1.083-.85 1.084.85-.456-1.304 1.14-.85z"/></g><path d="M48 93.567c.743 0 1.371-.811 1.371-1.797 0-.985-.628-1.796-1.371-1.796s-1.314.753-1.371 1.68c0 .232 0 .464.057.696.228.695.743 1.217 1.314 1.217z" stroke="#12D3DC"/><path d="M46.686 91.828c0 .174 0 .406.057.58-.057-.232-.057-.464-.057-.696v.116z"/><path d="M60.229 86.555h3.428l-.971-5.158 2.285-.87-5.371-1.333.629 7.36zM54.8 55.375l-.4-.116a48.193 48.193 0 0 1-2.629 8.52c-1.428 3.419-1.657 6.027-1.657 7.244l3.257-1.275c.229-1.043 1.029-4.347 1.372-6.781.343-2.318.114-6.317.057-7.592zM48.4 51.028c.514-.347.686-.58.8-.695l-.686.174-.628 1.159c.114-.058.285-.116.4-.116-.115-.232-.057-.464.114-.522z" fill="#B98750" fill-rule="nonzero"/><path d="M62.4 72.761c.4 2.319 2.514 7.766 2.514 7.766L62.4 72.761z" fill="#B98750" fill-rule="nonzero"/><path d="M57.543 53.81c0 .058 0 .116.057.232.286 1.507.8 4.057.057 8.577-.857 5.332-1.771 12.924-2 15.01l8.286 2.087c-.629-1.739-1.772-5.042-2.114-6.78-.115-.754-.343-2.145-.572-3.942-.514-3.883-1.2-9.214-1.943-11.822-.457-1.797-1.2-2.84-1.771-3.362z" fill="#B98750" fill-rule="nonzero"/><path d="M62.857 87.366h-3.371l-.743-8.288v-.116l-3.772-.985S56 68.705 57.03 62.387c1.028-6.317-.4-8.635-.229-9.91 0 0 2.057.638 3.086 4.405 1.028 3.767 2.057 13.445 2.514 15.763l2.286-.637-1.886-7.36.743-1.565-1.943-.58.057-.347c0-.058.572-4.173-1.028-8.23-.058-.232 0-.463.228-.521.229-.058.457 0 .514.231 1.429 3.594 1.2 7.129 1.086 8.288l2.286.637-2-9.504-8.514-3.999-2.686.58c.057.115.114.231.171.29v.057c.915 3.304 1.2 5.738 0 8.693-1.257 3.014-4.057 6.897-5.657 7.419a4.647 4.647 0 0 1-1.486.231c-.628 0-1.085-.115-1.314-.173l-1.086 4.288a2.84 2.84 0 0 1 1.258.58c1.085.985 2.285 3.535 2.057 10.2 2.114-3.42 4.571-4.753 7.371-3.941.229.058.343.29.286.521-.057.232-.286.348-.514.29-4-1.217-6.286 3.188-7.029 4.637-.171.347-.286.58-.571.58h-.115c-.171-.059-.343-.233-.285-.465.514-7.997-.858-10.431-1.715-11.185-.514-.463-.914-.405-.914-.405a.367.367 0 0 1-.457-.348c0-.116 0-.232.057-.348-.514-.174-1.371-.406-2.286-.29-1.428.232-.4 1.681-.4 1.681 3.086 4.405 4.572 10.316 4.572 11.765 0 1.449-2.057 8.403-2.057 11.59 0 1.797.571 3.246.914 4 1.771.173 3.543.29 5.314.29 4.514 0 8.857-.638 13.029-1.797.228-.348.4-.754.685-1.275 1.086-1.97 1.429-7.766 1.486-9.157zM49.543 71.892s-.4-3.361 1.657-8.403 2.686-9.041 2.686-9.041l1.428.405s.4 5.274 0 8.23c-.4 2.956-1.428 7.128-1.428 7.128l-4.343 1.681zm7.143 12.055c-.115.173-.4.231-.572.058-.971-.754-2.057-1.16-3.143-1.16-2.228 0-4.228 1.623-5.314 4.115.914-.985 2.172-1.565 3.486-1.565 1.771 0 3.371 1.044 4.4 2.724.114.174.057.464-.172.58-.171.116-.457.058-.571-.174-.857-1.449-2.229-2.318-3.657-2.318-1.2 0-2.286.58-3.086 1.449.514-.232 1.029-.406 1.6-.406 1.886 0 3.429 1.507 3.772 3.477.057.29.057.522.057.812 0 2.144-1.543 3.883-3.429 3.883-1.657 0-3.028-1.333-3.371-3.13-.057-.174-.057-.348-.057-.58v-.115-.116c0-.232 0-.522.057-.754-.057.232-.057.464-.057.754a.393.393 0 0 1-.4.405.393.393 0 0 1-.4-.405c0-5.274 3.2-9.563 7.142-9.563 1.315 0 2.572.464 3.658 1.333.171.29.171.522.057.696z" fill="#B98750" fill-rule="nonzero"/><path d="M53.086 92.002a.393.393 0 0 1-.4-.405c0-1.913-1.372-3.478-3.029-3.478-1.428 0-2.628 1.16-2.971 2.724-.057.232-.057.464-.057.754v.115c.057-.927.628-1.68 1.371-1.68s1.371.811 1.371 1.796c0 .986-.628 1.797-1.371 1.797-.571 0-1.086-.522-1.257-1.217.286 1.797 1.714 3.13 3.371 3.13 1.886 0 3.429-1.74 3.429-3.883 0-.29-.057-.58-.057-.812.057.29.057.522.057.812-.057.173-.229.347-.457.347z" fill="#B98750" fill-rule="nonzero"/><path d="M47.2 61.924c.4-.638-.514-2.84-2.057-2.55a9.219 9.219 0 0 0-1.657.464c.685.579 1.543 1.39 1.771 1.738.4.638-.857.87-.857.87l-.057.115c.286 0 2.457-.058 2.857-.637z" fill="#735241" fill-rule="nonzero"/><path d="M50.514 49.753c-.057 0-.171.058-.285.29l.571-.116c-.114-.058-.229-.174-.286-.174zM47.886 58.447l-.115-4.289-.971.464c.286-.986.629-1.275.971-1.275l-.057-1.45.172-.289a9.432 9.432 0 0 1-1.029.29c-.743.174-3.486 1.738-5.086 2.376v.174h.515l.514-.406c.171-.174.457-.116.571.058.172.174.115.464-.057.58l-1.6 1.39c-.285.464-.571.986-.628 1.565-.172 1.217.457 2.608.8 3.246.057.058.114.058.114.058s.114-.464.743-.754c.171-.116.457-.174.686-.29-.515-.463-.915-.753-.915-.753l5.372-.695zM43.543 65.46l.114-.349 2-1.275-2.286.29.972-1.565h-.057l-.857-.463v.058c-.972 1.564-.172 2.897.114 3.303z" fill="#B98750" fill-rule="nonzero"/><path d="M47.714 53.23c.457-.057.915.464.915.464l-.858.406.115 4.289 1.485-.174-.628 4.346c.857-1.217 1.714-2.723 2.286-4.056 1.142-2.666.857-5.043 0-8.114-.058-.174-.172-.29-.286-.406l-.572.116c-.057.058-.114.174-.171.29-.057.232-.286.695-1.257 1.333-.172.116-.457.058-.572-.116 0 0 0-.058-.057-.116a.817.817 0 0 1-.4.116v1.623zM45.943 65.401c.514-.174 1.314-.87 2.114-1.912l-2.4.347-2 1.275-.114.348c.343.058 1.314.29 2.4-.058zM45.657 63.836L48 62.33l-.114-3.941-5.372.637s.4.348.915.754a10.715 10.715 0 0 1 1.657-.464c1.543-.29 2.514 1.912 2.057 2.55-.4.58-2.572.637-2.857.637l-.972 1.565 2.343-.232z" fill="#B98750" fill-rule="nonzero"/><path d="M48.743 62.561l.628-4.346-1.485.174.114 3.94-2.343 1.507 2.4-.347c.229-.29.457-.58.686-.928zM41.029 57.635c.057-.58.342-1.1.628-1.565l-1.543 1.333c-.057.058-.114.058-.228.116.343 2.434 1.6 3.188 2 3.362-.343-.696-.972-2.029-.857-3.246zM41.543 54.737c-.972.406-1.257.986-1.314 1.507l2.057-1.796h-.515c-.057.116-.114.232-.228.29z" fill="#B98750" fill-rule="nonzero"/><path d="M46.743 54.564l.971-.464v-.87c-.343.059-.685.348-.971 1.334zM47.714 53.23v.87l.857-.406c.058 0-.342-.463-.857-.463z" fill="#735241" fill-rule="nonzero"/><path d="M56.8 52.535c-.229 1.275 1.257 3.593.229 9.91-1.029 6.317-2.058 15.59-2.058 15.59l3.772.985c.057-.173.171-.29.343-.29.228 0 .4.175.457.348v.116l5.371 1.333s-2.057-5.447-2.514-7.766c-.4-2.318-1.429-11.996-2.514-15.763C58.8 53.23 56.8 52.535 56.8 52.535zm5.029 20.342c.285 1.739 1.485 5.042 2.114 6.781l-8.286-2.086c.229-2.087 1.143-9.62 2-15.01.743-4.463.229-7.013-.057-8.578 0-.058 0-.116-.057-.232.571.58 1.314 1.565 1.771 3.362.686 2.55 1.429 7.881 1.943 11.822.229 1.797.4 3.188.572 3.941zM55.371 63.083c.4-2.956 0-8.23 0-8.23l-1.428-.405s-.629 3.999-2.686 9.04C49.2 68.532 49.6 71.893 49.6 71.893l4.343-1.68s1.028-4.173 1.428-7.129zm-5.2 7.94c0-1.275.229-3.883 1.658-7.245a48.193 48.193 0 0 0 2.628-8.519l.4.116c.114 1.333.286 5.274 0 7.65-.343 2.434-1.143 5.737-1.371 6.78l-3.315 1.218zM46.743 90.843c.286-1.796 1.714-3.13 3.371-3.13s3.029 1.334 3.315 3.072c-.343-1.97-1.886-3.477-3.772-3.477-.571 0-1.143.174-1.6.406-.857.985-1.428 2.376-1.428 3.883 0-.29.057-.522.114-.754z" fill="#8E6850" fill-rule="nonzero"/><path d="M50.057 87.714c-1.657 0-3.028 1.333-3.371 3.13.285-1.566 1.485-2.725 2.971-2.725 1.657 0 3.029 1.565 3.029 3.478 0 .231.171.405.4.405.228 0 .4-.174.4-.405 0-.29 0-.58-.057-.812-.343-1.796-1.715-3.071-3.372-3.071z" fill="#8E6850" fill-rule="nonzero"/><path d="M48.057 87.714c.8-.928 1.886-1.45 3.086-1.45 1.486 0 2.857.87 3.657 2.319.114.174.343.29.571.174.172-.116.286-.348.172-.58-.972-1.68-2.629-2.724-4.4-2.724-1.372 0-2.572.58-3.486 1.565-.228.464-.4.927-.514 1.449.228-.348.571-.58.914-.753z" fill="#8E6850" fill-rule="nonzero"/><path d="M47.086 88.41a11.287 11.287 0 0 0-.457 3.187c0-1.565.514-2.898 1.428-3.883a3.755 3.755 0 0 0-.971.695z" fill="#8E6850" fill-rule="nonzero"/><path d="M52.971 82.034c-3.942 0-7.142 4.289-7.142 9.563 0-1.855.685-3.478 1.771-4.637 1.143-2.492 3.086-4.115 5.314-4.115 1.086 0 2.229.406 3.143 1.16.172.115.457.115.572-.058.114-.174.114-.464-.058-.58-1.085-.87-2.342-1.333-3.6-1.333z" fill="#8E6850" fill-rule="nonzero"/><path d="M47.086 88.41c.171-.523.343-.986.514-1.45-1.086 1.16-1.771 2.782-1.771 4.637a4.7 4.7 0 0 1 1.257-3.188z" fill="#8E6850" fill-rule="nonzero"/><path d="M45.829 91.597c0 .231.171.405.4.405.228 0 .4-.174.4-.405 0-1.102.171-2.203.457-3.188a4.7 4.7 0 0 0-1.257 3.188zM42.286 70.56h-.4c-.115 0-.172.057-.229.173.343.116.514.232.514.232l.115-.406z" fill="#8E6850" fill-rule="nonzero"/><path d="M41.6 71.08c.057.233.286.348.457.348 0 0 .4-.058.914.406.858.754 2.229 3.188 1.715 11.185 0 .232.114.406.285.464h.115c.228 0 .343-.232.571-.58.743-1.448 3.029-5.853 7.029-4.636.228.058.457-.058.514-.29.057-.232-.057-.463-.286-.521-2.8-.812-5.257.463-7.371 3.94.228-6.664-.972-9.214-2.057-10.2a2.393 2.393 0 0 0-1.257-.579l-.115.406s-.228-.116-.514-.232c0 .058-.057.174 0 .29zM51.314 49.87l.343-.059c-.228-.347-.571-.811-1.143-.811-.743 0-1.085.87-1.2 1.16v.115s-.057.058-.057.116l.514-.116c.343-.927.972-1.855 1.543-.406zM43.314 65.807s-1.543-1.797-.285-3.883l.342.174c.115-.174.058-.406-.171-.522-.171-.116-.457-.058-.571.116-1.086 1.855-.229 3.71.342 4.405l.058.058.114.057s.057 0 .171.058l.115-.405c-.058-.058-.115-.058-.115-.058z" fill="#8E6850" fill-rule="nonzero"/><path d="M46.171 66.213c1.6-.464 4.4-4.347 5.658-7.419 1.257-2.955.971-5.39 0-8.693v-.058c0-.058-.058-.174-.172-.29l-.343.058a.846.846 0 0 1 .115.406c.857 2.956 1.257 5.448 0 8.403-.686 1.565-1.715 3.362-2.8 4.753-.972 1.275-1.886 2.202-2.572 2.376-1.2.348-2.228.116-2.571.058l-.115.406c.229.057.686.173 1.315.173.457 0 .914 0 1.485-.173zM48.4 51.028c-.171.116-.229.29-.171.464.571-.232 1.085-.406 1.085-.406s.115-.405.343-.869l-.514.116c0 .116-.229.348-.743.695zM43.314 65.807s.057 0 .115.058l.114-.406c-.286-.406-1.086-1.739-.172-3.303v-.058l-.342-.174c-1.258 2.086.285 3.883.285 3.883zM49.714 50.217l.515-.116c.171-.232.228-.29.285-.29.057 0 .172.058.229.174l.514-.116c-.514-1.449-1.143-.521-1.543.348z" fill="#8E6850" fill-rule="nonzero"/><path d="M45.943 65.401a5.28 5.28 0 0 1-2.343.058l-.114.406c.343.116 1.371.29 2.571-.058.686-.174 1.657-1.16 2.572-2.376l-.572.058c-.857 1.043-1.6 1.796-2.114 1.912zM51.029 50.39c.857 3.073 1.142 5.39 0 8.115-.572 1.332-1.429 2.84-2.286 4.056l-.114.87c1.085-1.391 2.114-3.188 2.8-4.753 1.257-2.955.857-5.447 0-8.403-.058-.174-.058-.29-.115-.406l-.514.116c.057.116.171.232.229.406zM49.371 51.086s-.514.174-1.085.406c0 .058 0 .058.057.116.114.174.4.232.571.116.972-.638 1.2-1.101 1.257-1.333a1.27 1.27 0 0 1 .172-.29l-.514.116c-.343.464-.458.87-.458.87z" fill="#8E6850" fill-rule="nonzero"/><path d="M48.057 63.489l.572-.058.114-.87c-.229.348-.457.638-.686.928zM63.657 63.083l-.057.116 1.314.348h.115a.43.43 0 0 0 .4-.29c.057-.232-.058-.464-.286-.522l-.286-.058.057.406h-1.257z" fill="#8E6850" fill-rule="nonzero"/><path d="M61.486 53.752c-.057-.232-.343-.29-.515-.232-.228.058-.285.348-.228.522 1.6 4.057 1.028 8.172 1.028 8.23l-.057.347 1.943.58.057-.116h1.257l-.057-.406-2.285-.637c.057-1.101.228-4.695-1.143-8.288zM62.857 87.076v.29h.743c.229 0 .4-.174.4-.406 0-.232-.171-.405-.343-.405l.057.29-.857.231z" fill="#8E6850" fill-rule="nonzero"/><path d="M60.229 86.555l-.629-7.36-.8-.232v.115l.743 8.288h3.371v-.29l.857-.232-.057-.29H60.23z" fill="#8E6850" fill-rule="nonzero"/><path d="M59.543 79.02a.367.367 0 0 0-.457-.347c-.172 0-.286.174-.343.29l.8.231v-.174zM41.257 54.448l.514-.174v-.058c-.057-.232-.342-.29-.514-.232-1.943.754-2 2.434-1.771 3.246a.694.694 0 0 0 .285.29H39.943c-.057-.348-.057-.696-.114-1.16 0 0 0-1.507 1.428-1.912z" fill="#8E6850" fill-rule="nonzero"/><path d="M41.771 54.448v-.174l-.514.174h.514zM41.714 56.07l1.6-1.39a.45.45 0 0 0 .057-.58.435.435 0 0 0-.571-.058l-.514.406h.857s-.857.637-1.429 1.622z" fill="#8E6850" fill-rule="nonzero"/><path d="M41.714 56.07c.629-.927 1.429-1.564 1.429-1.564h-.857l-2.057 1.796c.057-.463.342-1.1 1.314-1.507.114-.058.228-.173.228-.29h-.514c-1.428.406-1.428 1.913-1.428 1.913 0 .406.057.812.114 1.16a.43.43 0 0 0 .228-.117l1.543-1.39z" fill="#8E6850" fill-rule="nonzero"/></g></svg>