<svg width="97" height="97" xmlns="http://www.w3.org/2000/svg" xmlns:xlink="http://www.w3.org/1999/xlink"><defs><ellipse id="a" cx="48.5" cy="48.67" rx="48.5" ry="48.216"/></defs><g fill="none" fill-rule="evenodd"><g><mask id="b" fill="#fff"><use xlink:href="#a"/></mask><use fill="#26276D" fill-rule="nonzero" xlink:href="#a"/><g mask="url(#b)" fill-rule="nonzero"><path fill="#ECF0F1" d="M-17.751 7.63l7.749-10.45L114.76 89.685l-7.749 10.45z"/><path fill="#E74C3C" d="M-15.814 5.018l3.874-5.225 124.764 92.505-3.875 5.225z"/><path fill="#ECF0F1" d="M-18.093 89.993L107.403-3.056l7.704 10.39-125.497 93.048z"/><path fill="#E74C3C" d="M-16.167 92.59L109.33-.458l3.851 5.195-125.497 93.048z"/><path fill="#ECF0F1" d="M-20.77 39.027h138.482v17.188H-20.77z"/><path fill="#ECF0F1" d="M39.827-1.872h17.29v98.985h-17.29z"/><path fill="#E74C3C" d="M43.08-1.872h10.84v98.985H43.08z"/><path fill="#E74C3C" d="M-20.77 42.204h138.482v10.778H-20.77z"/></g></g><g fill-rule="nonzero"><path d="M65.943 58.253s-2.73-2.998-7.96-2.998h-.512c-4.038.113-7.847 2.262-9.44 5.939 0 0-1.649 4.242 0 6.958l5.971 8.937h11.941V58.253z" fill="#E74C3C"/><path d="M48.031 68.152c-1.649-2.66 0-6.958 0-6.958.228-.566.569-1.075.853-1.527-.625-.17-1.535-.34-2.843-.453-1.308-.056-2.786.283-3.866.905-2.048 1.188-5.061 3.734-5.061 7.976 0 0-.455 8.937 7.96 8.937h8.985l-1.024-1.47-5.004-7.41zM65.943 58.253s2.73-2.998 7.96-2.998h.513c4.037.113 7.847 2.262 9.439 5.939 0 0 1.649 4.242 0 6.958l-5.97 8.937H65.942V58.253z" fill="#BF3F32"/><path d="M83.855 68.152c1.649-2.66 0-6.958 0-6.958-.228-.566-.569-1.075-.853-1.527.625-.17 1.535-.34 2.843-.453 1.308-.056 2.786.283 3.867.905 2.047 1.188 5.06 3.734 5.06 7.976 0 0 .455 8.937-7.96 8.937h-8.985l1.024-1.47 5.004-7.41z" fill="#E74C3C"/><path d="M92.84 81.048H39.103c-1.08 0-1.99-.905-1.99-1.98 0-1.074.91-1.98 1.99-1.98h53.735c1.08 0 1.99.906 1.99 1.98 0 1.075-.91 1.98-1.99 1.98M92.84 96.887H39.103c-1.08 0-1.99-.905-1.99-1.98s.91-1.98 1.99-1.98h53.735c1.08 0 1.99.905 1.99 1.98s-.91 1.98-1.99 1.98" fill="#F4B42E"/><path fill="gold" d="M40.07 92.927h51.746V81.048H40.07z"/><path d="M61.963 87.95h-7.961a1.017 1.017 0 0 1-1.024-1.019c0-.565.455-1.018 1.024-1.018h7.96c.57 0 1.024.453 1.024 1.018 0 .566-.455 1.018-1.023 1.018M77.884 87.95h-7.96A1.017 1.017 0 0 1 68.9 86.93c0-.565.455-1.018 1.024-1.018h7.96c.569 0 1.024.453 1.024 1.018 0 .566-.455 1.018-1.024 1.018M66.967 86.988c0 .566-.455 1.018-1.024 1.018a1.017 1.017 0 0 1-1.023-1.018c0-.566.455-1.018 1.023-1.018.569 0 1.024.452 1.024 1.018M87.835 87.95h-1.99a1.017 1.017 0 0 1-1.023-1.019c0-.565.454-1.018 1.023-1.018h1.99c.569 0 1.024.453 1.024 1.018 0 .566-.455 1.018-1.024 1.018M82.888 86.988c0 .566-.455 1.018-1.023 1.018a1.017 1.017 0 0 1-1.024-1.018c0-.566.455-1.018 1.024-1.018.568 0 1.023.452 1.023 1.018M46.041 87.95h-1.99a1.017 1.017 0 0 1-1.024-1.019c0-.565.455-1.018 1.024-1.018h1.99c.569 0 1.024.453 1.024 1.018 0 .566-.455 1.018-1.024 1.018M49.055 86.988c0-.566.455-1.018 1.023-1.018.57 0 1.024.452 1.024 1.018 0 .566-.455 1.018-1.024 1.018-.568-.057-1.023-.509-1.023-1.018" fill="#F4B42E"/><path d="M65.943 48.354l-4.606 7.353c3.014.849 4.55 2.489 4.606 2.546 0 0 1.592-1.697 4.606-2.546l-4.606-7.353z" fill="#F0C419"/><path d="M65.943 50.333a1.017 1.017 0 0 1-1.023-1.018v-6.9c0-.567.455-1.019 1.023-1.019.569 0 1.024.452 1.024 1.018v6.958c0 .509-.455.961-1.024.961" fill="#F4B42E"/><path d="M68.957 46.374h-5.97a1.017 1.017 0 0 1-1.024-1.018c0-.566.455-1.019 1.023-1.019h5.97c.57 0 1.024.453 1.024 1.019-.056.565-.511 1.018-1.023 1.018" fill="#F4B42E"/></g></g></svg>