<svg width="81" height="80" xmlns="http://www.w3.org/2000/svg"><g fill="none" fill-rule="evenodd"><path d="M79 18v52.505C79 74.645 75.615 78 71.445 78h-52.89C14.38 78 11 74.645 11 70.505v-6.772M43 10h28.409C75.599 10 79 13.584 79 18M11 54V38M60 2v15M47 30h32" stroke="#9B9B9B" stroke-width="3" stroke-linecap="round" stroke-linejoin="round"/><path d="M17.088 4.494a20.942 20.942 0 0 1 15.99-1.592c11.099 3.361 17.374 15.074 14.018 26.172-3.357 11.103-15.074 17.378-26.172 14.022C9.822 39.734 3.551 28.022 6.903 16.924c.284-.931.624-1.825 1.015-2.682" stroke="#9B9B9B" stroke-width="3" stroke-linecap="round" stroke-linejoin="round"/><path fill="#9B9B9B" d="M0 11.428L14 21 11.64 9z"/><path stroke="#9B9B9B" stroke-width="3" stroke-linecap="round" stroke-linejoin="round" d="M27 34V23.344L33 17M24 57h4v-4h-4zM38 57h4v-4h-4zM24 68h4v-4h-4zM38 68h4v-4h-4zM51 45h4v-4h-4zM65 45h4v-4h-4zM51 57h4v-4h-4zM65 57h4v-4h-4zM51 68h4v-4h-4zM65 68h4v-4h-4z"/></g></svg>