<svg width="96" height="115" xmlns="http://www.w3.org/2000/svg" xmlns:xlink="http://www.w3.org/1999/xlink"><defs><path id="a" d="M.28 0h95.44v95.82H.28z"/><path d="M48 47.91H.28C.28 74.37 21.646 95.82 48 95.82s47.72-21.45 47.72-47.91C95.72 21.45 74.354 0 48 0v47.91z" id="c"/><path d="M.28 47.91H48V0C21.645 0 .28 21.45.28 47.91z" id="e"/><path d="M.28 47.91H48V0C21.645 0 .28 21.45.28 47.91z" id="g"/><path d="M.28 47.91H48V0C21.645 0 .28 21.45.28 47.91z" id="i"/><path d="M.28 47.91H48V0C21.645 0 .28 21.45.28 47.91z" id="k"/><path d="M.28 47.91H48V0C21.645 0 .28 21.45.28 47.91z" id="m"/><path d="M.28 47.91H48V0C21.645 0 .28 21.45.28 47.91z" id="o"/><path d="M.28 47.91H48V0C21.645 0 .28 21.45.28 47.91z" id="q"/><path d="M.28 47.91H48V0C21.645 0 .28 21.45.28 47.91z" id="s"/><path d="M.28 47.91H48V0C21.645 0 .28 21.45.28 47.91z" id="u"/><path d="M.28 47.91H48V0C21.645 0 .28 21.45.28 47.91z" id="w"/><path d="M.28 47.91H48V0C21.645 0 .28 21.45.28 47.91z" id="y"/><path d="M.28 47.91H48V0C21.645 0 .28 21.45.28 47.91z" id="A"/><path d="M.28 47.91H48V0C21.645 0 .28 21.45.28 47.91z" id="C"/><path d="M.28 47.91H48V0C21.645 0 .28 21.45.28 47.91z" id="E"/><path d="M.28 47.91H48V0C21.645 0 .28 21.45.28 47.91z" id="G"/><path d="M.28 47.91H48V0C21.645 0 .28 21.45.28 47.91z" id="I"/><path d="M.28 47.91H48V0C21.645 0 .28 21.45.28 47.91z" id="K"/><path d="M.28 47.91H48V0C21.645 0 .28 21.45.28 47.91z" id="M"/><path d="M.28 47.91H48V0C21.645 0 .28 21.45.28 47.91z" id="O"/><path d="M.28 47.91H48V0C21.645 0 .28 21.45.28 47.91z" id="Q"/><path d="M.28 47.91H48V0C21.645 0 .28 21.45.28 47.91z" id="S"/><path d="M.28 47.91H48V0C21.645 0 .28 21.45.28 47.91z" id="U"/><path d="M.28 47.91H48V0C21.645 0 .28 21.45.28 47.91z" id="W"/><path d="M.28 47.91H48V0C21.645 0 .28 21.45.28 47.91z" id="Y"/><path d="M.28 47.91H48V0C21.645 0 .28 21.45.28 47.91z" id="aa"/><path d="M.28 47.91H48V0C21.645 0 .28 21.45.28 47.91z" id="ac"/><path d="M.28 47.91H48V0C21.645 0 .28 21.45.28 47.91z" id="ae"/><path d="M.28 47.91H48V0C21.645 0 .28 21.45.28 47.91z" id="ag"/><path d="M.28 47.91H48V0C21.645 0 .28 21.45.28 47.91z" id="ai"/><path d="M.28 47.91H48V0C21.645 0 .28 21.45.28 47.91z" id="ak"/><path d="M.28 47.91H48V0C21.645 0 .28 21.45.28 47.91z" id="am"/><path d="M.28 47.91H48V0C21.645 0 .28 21.45.28 47.91z" id="ao"/><path d="M.28 47.91H48V0C21.645 0 .28 21.45.28 47.91z" id="aq"/><path d="M.28 47.91H48V0C21.645 0 .28 21.45.28 47.91z" id="as"/><path d="M.28 47.91H48V0C21.645 0 .28 21.45.28 47.91z" id="au"/></defs><g fill="none" fill-rule="evenodd"><g transform="translate(0 18.213)"><mask id="b" fill="#fff"><use xlink:href="#a"/></mask><path d="M48 0v47.91H.28C.28 74.37 21.646 95.82 48 95.82s47.72-21.45 47.72-47.91C95.72 21.45 74.354 0 48 0" fill="#E64B3B" mask="url(#b)"/></g><path d="M48 18.213c-26.355 0-47.72 21.45-47.72 47.91H48v-47.91z" fill="#2077B2"/><g transform="translate(0 18.213)"><mask id="d" fill="#fff"><use xlink:href="#c"/></mask><path fill="#EBEFF0" mask="url(#d)" d="M42.105 9.3h35.802V5.355H42.105zM43.79 16.91h39.925v-3.946H43.79zM43.228 24.519h46.877v-3.946H43.228zM40.982 32.128h52.211v-3.946h-52.21zM43.79 39.737h51.649v-3.946h-51.65zM40.982 47.346H95.44v-3.945H40.982zM-1.673 55.237l-.022-3.945 99.368-.564.022 3.946zM-2.246 62.565H98.807v-3.946H-2.246zM.561 70.174H96v-3.946H.561zM2.807 77.783h89.825v-3.945H2.807zM8.421 85.392H87.58v-3.945H8.42zM19.65 93.002h57.262v-3.946H19.65z"/></g><g><g transform="translate(0 18.213)"><mask id="f" fill="#fff"><use xlink:href="#e"/></mask><path fill="#FFF" mask="url(#f)" d="M43.772 4.198l1.559.213-1.117 1.113.28 1.555-1.4-.723-1.386.747.252-1.56-1.136-1.092 1.555-.24.684-1.423z"/></g><g transform="translate(0 18.213)"><mask id="h" fill="#fff"><use xlink:href="#g"/></mask><path fill="#FFF" mask="url(#h)" d="M43.772 13.78l1.559.213-1.117 1.113.28 1.555-1.4-.723-1.386.747.252-1.56-1.136-1.092 1.555-.24.684-1.423z"/></g><g transform="translate(0 18.213)"><mask id="j" fill="#fff"><use xlink:href="#i"/></mask><path fill="#FFF" mask="url(#j)" d="M43.772 23.362l1.559.213-1.117 1.113.28 1.555-1.4-.723-1.386.747.252-1.56-1.136-1.092 1.555-.24.684-1.423z"/></g><g transform="translate(0 18.213)"><mask id="l" fill="#fff"><use xlink:href="#k"/></mask><path fill="#FFF" mask="url(#l)" d="M43.772 32.944l1.559.213-1.117 1.113.28 1.555-1.4-.723-1.386.747.252-1.56-1.136-1.092 1.555-.24.684-1.424z"/></g><g transform="translate(0 18.213)"><mask id="n" fill="#fff"><use xlink:href="#m"/></mask><path fill="#FFF" mask="url(#n)" d="M43.772 42.526l1.559.213-1.117 1.113.28 1.555-1.4-.723-1.386.747.252-1.56-1.136-1.092 1.555-.24.684-1.424z"/></g><g transform="translate(0 18.213)"><mask id="p" fill="#fff"><use xlink:href="#o"/></mask><path fill="#FFF" mask="url(#p)" d="M31.982 4.198l1.56.213-1.118 1.113.28 1.555-1.4-.723-1.386.747.253-1.56-1.136-1.092 1.555-.24.683-1.423z"/></g><g transform="translate(0 18.213)"><mask id="r" fill="#fff"><use xlink:href="#q"/></mask><path fill="#FFF" mask="url(#r)" d="M31.982 13.78l1.56.213-1.118 1.113.28 1.555-1.4-.723-1.386.747.253-1.56-1.136-1.092 1.555-.24.683-1.423z"/></g><g transform="translate(0 18.213)"><mask id="t" fill="#fff"><use xlink:href="#s"/></mask><path fill="#FFF" mask="url(#t)" d="M31.982 23.362l1.56.213-1.118 1.113.28 1.555-1.4-.723-1.386.747.253-1.56-1.136-1.092 1.555-.24.683-1.423z"/></g><g transform="translate(0 18.213)"><mask id="v" fill="#fff"><use xlink:href="#u"/></mask><path fill="#FFF" mask="url(#v)" d="M31.982 32.944l1.56.213-1.118 1.113.28 1.555-1.4-.723-1.386.747.253-1.56-1.136-1.092 1.555-.24.683-1.424z"/></g><g transform="translate(0 18.213)"><mask id="x" fill="#fff"><use xlink:href="#w"/></mask><path fill="#FFF" mask="url(#x)" d="M31.982 42.526l1.56.213-1.118 1.113.28 1.555-1.4-.723-1.386.747.253-1.56-1.136-1.092 1.555-.24.683-1.424z"/></g><g transform="translate(0 18.213)"><mask id="z" fill="#fff"><use xlink:href="#y"/></mask><path fill="#FFF" mask="url(#z)" d="M38.158-.311l1.559.213L38.6 1.015l.28 1.554-1.4-.722-1.386.747.252-1.56L35.21-.057 36.765-.3l.684-1.423z"/></g><g transform="translate(0 18.213)"><mask id="B" fill="#fff"><use xlink:href="#A"/></mask><path fill="#FFF" mask="url(#B)" d="M38.158 9.27l1.559.214-1.117 1.113.28 1.554-1.4-.722-1.386.747.252-1.56-1.136-1.092 1.555-.241.684-1.423z"/></g><g transform="translate(0 18.213)"><mask id="D" fill="#fff"><use xlink:href="#C"/></mask><path fill="#FFF" mask="url(#D)" d="M38.158 18.853l1.559.213L38.6 20.18l.28 1.554-1.4-.722-1.386.747.252-1.56-1.136-1.092 1.555-.241.684-1.423z"/></g><g transform="translate(0 18.213)"><mask id="F" fill="#fff"><use xlink:href="#E"/></mask><path fill="#FFF" mask="url(#F)" d="M38.158 28.435l1.559.213-1.117 1.113.28 1.554-1.4-.722-1.386.747.252-1.56-1.136-1.092 1.555-.241.684-1.423z"/></g><g transform="translate(0 18.213)"><mask id="H" fill="#fff"><use xlink:href="#G"/></mask><path fill="#FFF" mask="url(#H)" d="M38.158 38.017l1.559.213-1.117 1.113.28 1.554-1.4-.722-1.386.747.252-1.56-1.136-1.092 1.555-.241.684-1.423z"/></g><g transform="translate(0 18.213)"><mask id="J" fill="#fff"><use xlink:href="#I"/></mask><path fill="#FFF" mask="url(#J)" d="M19.07 4.198l1.56.213-1.118 1.113.28 1.555-1.4-.723-1.386.747.253-1.56-1.137-1.092 1.555-.24.684-1.423z"/></g><g transform="translate(0 18.213)"><mask id="L" fill="#fff"><use xlink:href="#K"/></mask><path fill="#FFF" mask="url(#L)" d="M19.07 13.78l1.56.213-1.118 1.113.28 1.555-1.4-.723-1.386.747.253-1.56-1.137-1.092 1.555-.24.684-1.423z"/></g><g transform="translate(0 18.213)"><mask id="N" fill="#fff"><use xlink:href="#M"/></mask><path fill="#FFF" mask="url(#N)" d="M19.07 23.362l1.56.213-1.118 1.113.28 1.555-1.4-.723-1.386.747.253-1.56-1.137-1.092 1.555-.24.684-1.423z"/></g><g transform="translate(0 18.213)"><mask id="P" fill="#fff"><use xlink:href="#O"/></mask><path fill="#FFF" mask="url(#P)" d="M19.07 32.944l1.56.213-1.118 1.113.28 1.555-1.4-.723-1.386.747.253-1.56-1.137-1.092 1.555-.24.684-1.424z"/></g><g transform="translate(0 18.213)"><mask id="R" fill="#fff"><use xlink:href="#Q"/></mask><path fill="#FFF" mask="url(#R)" d="M19.07 42.526l1.56.213-1.118 1.113.28 1.555-1.4-.723-1.386.747.253-1.56-1.137-1.092 1.555-.24.684-1.424z"/></g><g transform="translate(0 18.213)"><mask id="T" fill="#fff"><use xlink:href="#S"/></mask><path fill="#FFF" mask="url(#T)" d="M25.246-.311l1.559.213-1.118 1.113.28 1.554-1.399-.722-1.387.747.253-1.56-1.136-1.092L23.853-.3l.684-1.423z"/></g><g transform="translate(0 18.213)"><mask id="V" fill="#fff"><use xlink:href="#U"/></mask><path fill="#FFF" mask="url(#V)" d="M25.246 9.27l1.559.214-1.118 1.113.28 1.554-1.399-.722-1.387.747.253-1.56-1.136-1.092 1.555-.241.684-1.423z"/></g><g transform="translate(0 18.213)"><mask id="X" fill="#fff"><use xlink:href="#W"/></mask><path fill="#FFF" mask="url(#X)" d="M25.246 18.853l1.559.213-1.118 1.113.28 1.554-1.399-.722-1.387.747.253-1.56-1.136-1.092 1.555-.241.684-1.423z"/></g><g transform="translate(0 18.213)"><mask id="Z" fill="#fff"><use xlink:href="#Y"/></mask><path fill="#FFF" mask="url(#Z)" d="M25.246 28.435l1.559.213-1.118 1.113.28 1.554-1.399-.722-1.387.747.253-1.56-1.136-1.092 1.555-.241.684-1.423z"/></g><g transform="translate(0 18.213)"><mask id="ab" fill="#fff"><use xlink:href="#aa"/></mask><path fill="#FFF" mask="url(#ab)" d="M25.246 38.017l1.559.213-1.118 1.113.28 1.554-1.399-.722-1.387.747.253-1.56-1.136-1.092 1.555-.241.684-1.423z"/></g><g transform="translate(0 18.213)"><mask id="ad" fill="#fff"><use xlink:href="#ac"/></mask><path fill="#FFF" mask="url(#ad)" d="M6.158 4.198l1.559.213L6.6 5.524l.28 1.555-1.4-.723-1.386.747.252-1.56L3.21 4.452l1.555-.24.684-1.423z"/></g><g transform="translate(0 18.213)"><mask id="af" fill="#fff"><use xlink:href="#ae"/></mask><path fill="#FFF" mask="url(#af)" d="M6.158 13.78l1.559.213L6.6 15.106l.28 1.555-1.4-.723-1.386.747.252-1.56-1.136-1.092 1.555-.24.684-1.423z"/></g><g transform="translate(0 18.213)"><mask id="ah" fill="#fff"><use xlink:href="#ag"/></mask><path fill="#FFF" mask="url(#ah)" d="M6.158 23.362l1.559.213L6.6 24.688l.28 1.555-1.4-.723-1.386.747.252-1.56-1.136-1.092 1.555-.24.684-1.423z"/></g><g transform="translate(0 18.213)"><mask id="aj" fill="#fff"><use xlink:href="#ai"/></mask><path fill="#FFF" mask="url(#aj)" d="M6.158 32.944l1.559.213L6.6 34.27l.28 1.555-1.4-.723-1.386.747.252-1.56-1.136-1.092 1.555-.24.684-1.424z"/></g><g transform="translate(0 18.213)"><mask id="al" fill="#fff"><use xlink:href="#ak"/></mask><path fill="#FFF" mask="url(#al)" d="M6.158 42.526l1.559.213L6.6 43.852l.28 1.555-1.4-.723-1.386.747.252-1.56L3.21 42.78l1.555-.24.684-1.424z"/></g><g transform="translate(0 18.213)"><mask id="an" fill="#fff"><use xlink:href="#am"/></mask><path fill="#FFF" mask="url(#an)" d="M12.333-.311l1.56.213-1.118 1.113.28 1.554-1.4-.722-1.386.747.253-1.56L9.385-.057 10.941-.3l.683-1.423z"/></g><g transform="translate(0 18.213)"><mask id="ap" fill="#fff"><use xlink:href="#ao"/></mask><path fill="#FFF" mask="url(#ap)" d="M12.333 9.27l1.56.214-1.118 1.113.28 1.554-1.4-.722-1.386.747.253-1.56-1.137-1.092 1.556-.241.683-1.423z"/></g><g transform="translate(0 18.213)"><mask id="ar" fill="#fff"><use xlink:href="#aq"/></mask><path fill="#FFF" mask="url(#ar)" d="M12.333 18.853l1.56.213-1.118 1.113.28 1.554-1.4-.722-1.386.747.253-1.56-1.137-1.092 1.556-.241.683-1.423z"/></g><g transform="translate(0 18.213)"><mask id="at" fill="#fff"><use xlink:href="#as"/></mask><path fill="#FFF" mask="url(#at)" d="M12.333 28.435l1.56.213-1.118 1.113.28 1.554-1.4-.722-1.386.747.253-1.56-1.137-1.092 1.556-.241.683-1.423z"/></g><g transform="translate(0 18.213)"><mask id="av" fill="#fff"><use xlink:href="#au"/></mask><path fill="#FFF" mask="url(#av)" d="M12.333 38.017l1.56.213-1.118 1.113.28 1.554-1.4-.722-1.386.747.253-1.56-1.137-1.092 1.556-.241.683-1.423z"/></g></g><g><g fill-rule="nonzero"><path d="M62.147 103.908h-3.312v7.722h3.312c.842 0 1.516-.676 1.516-1.522v-4.622c.056-.902-.674-1.578-1.516-1.578z" fill="#735241"/><path d="M35.986 103.908c-.842 0-1.516.676-1.516 1.522v4.622c0 .845.674 1.522 1.516 1.522h3.312v-7.722h-3.312v.056z" fill="#97735B"/><path fill="#8E6850" d="M39.299 103.908h19.537v7.722H39.299z"/></g><path d="M54.456 42.302c-.393 0-.73-.339-.786-.733l-.505-10.822c0-.451.28-.79.73-.79.449 0 .786.283.786.734l.505 10.822c.056.394-.28.732-.73.789z" fill="#1ABC9C" fill-rule="nonzero"/><g fill="#1ABC9C" fill-rule="nonzero"><path d="M54.288 38.356c-.337-.169-.73-.282-1.123-.394v.169l1.123.225z"/><path d="M55.018 38.75l-2.976.226.112-2.367c2.078-.507 1.516-4.115 2.583-4.622 0-3.157-1.797-5.693-4.098-5.693-2.302 0-4.099 2.48-4.099 5.693 0 1.973.73 3.72 1.797 4.735v1.183c-4.267 1.071-7.467 4.904-7.467 9.526 0 5.41 4.38 9.807 9.769 9.807 5.39 0 9.768-4.396 9.768-9.807-.056-3.777-2.19-7.102-5.39-8.68z"/><path d="M52.154 36.609l-.112 2.367 2.976-.225c-.225-.113-.506-.226-.786-.339l-1.123-.225v-.17c-.113 0-.169-.055-.28-.055v-1.24c.167-.113.28-.282.392-.451.337-.733 1.01-2.368 1.347-3.382.057-.282.057-.564.057-.902-.955.507-.45 4.115-2.47 4.622z"/></g><path d="M65.347 114.166H31.214c-.954 0-1.684-.732-1.684-1.69v-.451c0-.959.73-1.691 1.684-1.691h34.133c.955 0 1.685.732 1.685 1.69v.451c0 .959-.73 1.691-1.685 1.691z" fill="#7A644F" fill-rule="nonzero"/><path d="M66.807 114.166H29.811c-.169 0-.281-.112-.281-.281 0-.17.112-.282.28-.282h36.997c.168 0 .28.113.28.282-.055.169-.168.281-.28.281z" fill="#A4856A" fill-rule="nonzero"/><path fill="#1ABC9C" fill-rule="nonzero" d="M39.467 34.749l-1.685-21.532 2.527-.225 2.695 19.953z"/><g fill="#1ABC9C" fill-rule="nonzero"><path d="M42.667 87.9l-6.063 12.683 24.926-.282-1.404-19.108V62.762z"/><path d="M36.604 101.879c-.45 0-.843-.226-1.067-.62-.225-.395-.28-.846-.056-1.24l6.063-12.682c.056-.056.056-.113.112-.17l17.46-25.138c.337-.45.898-.676 1.46-.507.56.169.898.676.898 1.24v18.375l1.403 19.051c0 .338-.112.733-.337.958-.224.282-.561.395-.954.395l-24.982.338zm7.13-13.302l-5.11 10.71 21.502-.283-1.29-17.698V66.877l-15.103 21.7z"/></g><g fill="#1ABC9C" fill-rule="nonzero"><path d="M58.554 44.613l-17.46 21.644.506 12.907 16.954-20.63z"/><path d="M41.6 80.46c-.112 0-.28 0-.393-.056-.505-.169-.842-.62-.898-1.184l-.505-12.907c0-.338.112-.62.28-.846l17.46-21.644c.337-.45.898-.563 1.403-.394.506.169.842.676.842 1.24V58.59c0 .282-.112.564-.28.845l-16.955 20.63c-.168.225-.561.394-.954.394zm.786-13.753l.337 9.019 14.54-17.642V48.22L42.386 66.707z"/></g><g fill="#1ABC9C" fill-rule="nonzero"><path d="M54.961 63.664L39.58 81.194l.505 12.907 14.877-8.737z"/><path d="M40.084 95.397c-.224 0-.449-.056-.617-.17-.393-.225-.674-.62-.674-1.07l-.505-12.907c0-.339.112-.677.337-.902l15.607-20.01c.336-.394.73 1.973 1.235 2.142.505.17.842.676.842 1.184v21.644c0 .45-.225.902-.618 1.127l-14.877 8.793c-.28.113-.505.169-.73.169zM40.87 81.7l.393 10.202 12.407-7.327v-17.53L40.87 81.7z"/></g><g fill="#1ABC9C" fill-rule="nonzero"><path d="M39.074 44.105l7.69-6.2 2.583 8.23-8.252 9.3z"/><path d="M41.095 56.73c-.113 0-.225 0-.337-.055a1.205 1.205 0 0 1-.898-1.015l-2.078-11.33c-.112-.45.113-.957.45-1.24l7.69-6.2c.338-.281.787-.338 1.18-.225.393.113.73.451.842.846l2.582 8.229c.113.45.056.902-.28 1.24l-8.197 9.3c-.224.282-.561.45-.954.45zm-.674-12.117l1.46 8.003 6.007-6.763-1.797-5.75-5.67 4.51z"/></g><path d="M38.288 10.85c-.562 0-.506-.056-.506.507v2.311l.45 5.75c.168.112.336.169.561.169.561 0 1.01-.451 1.01-1.015V10.85c0-.62-1.515 0-1.515 0z" opacity=".5" fill="#34495E" fill-rule="nonzero"/><g fill="#34495E" fill-rule="nonzero"><path d="M38.288 18.065c-.562 0-1.01-.451-1.01-1.015V5.665c0-.564.448-1.015 1.01-1.015.561 0 1.01.451 1.01 1.015v11.329c0 .564-.449 1.07-1.01 1.07z"/><path d="M39.298 9.78h-2.077v.563a.76.76 0 0 0-.505.845l.505 3.1c.056.395.393.62.786.62h.112c.393-.056.73-.45.618-.901l-.505-3.1c0-.057 0-.113-.057-.113h1.123V9.779z" opacity=".58"/></g><g fill="#34495E" fill-rule="nonzero"><path d="M42.161 8.54v-.057c-.056-.226 0-.62.057-.846v-.056c.112-.282.056-.564-.057-.845 0-.057-.056-.057-.056-.113-.168-.282-.505-.451-.842-.451h-5.95c-.338 0-.674.169-.843.45 0 .057-.056.057-.056.114-.112.225-.168.563-.056.845v.056c.056.226.112.62.056.846v.056c-.168.338-.168.677.056 1.015.169.282.505.507.898.507h5.895c.337 0 .674-.169.898-.507.113-.282.169-.677 0-1.015z"/><path d="M41.207 8.99H34.302c0 .17.056.395.168.564.169.282.505.507.898.507h5.895c.337 0 .674-.169.898-.507a.955.955 0 0 0 .169-.564h-1.123z" opacity=".58"/></g><path d="M58.33 29.394H42.89a.769.769 0 0 1-.786-.789c0-.45.337-.79.786-.79H58.33c.449 0 .786.34.786.79s-.393.79-.786.79z" fill="#1ABC9C" fill-rule="nonzero"/><path d="M50.358 29.394c-.112 0-.225 0-.337-.056l-6.68-3.1c-.394-.17-.562-.62-.394-1.015.169-.394.618-.564 1.01-.394l6.682 3.1c.393.169.561.62.393 1.014a.73.73 0 0 1-.674.451z" fill="#1ABC9C" fill-rule="nonzero"/><path d="M50.358 29.394a.73.73 0 0 1-.674-.45.766.766 0 0 1 .393-1.015l6.68-3.1a.76.76 0 0 1 1.011.394.766.766 0 0 1-.393 1.015l-6.68 3.1c-.113.056-.225.056-.337.056z" fill="#1ABC9C" fill-rule="nonzero"/><path d="M50.358 29.394c-.28 0-.505-.113-.674-.394l-3.593-6.2c-.224-.395-.112-.846.28-1.071.394-.226.843-.113 1.068.281l3.593 6.2c.224.395.112.846-.281 1.071-.169.057-.28.113-.393.113z" fill="#1ABC9C" fill-rule="nonzero"/><path d="M50.358 29.394c-.112 0-.28-.056-.393-.113-.393-.225-.505-.676-.28-1.07l3.592-6.2c.225-.395.674-.508 1.067-.282.393.225.505.676.28 1.07L51.033 29c-.169.226-.45.395-.674.395zM46.26 40.216h-.169c-.393-.113-.673-.507-.617-.902l2.077-9.807c.112-.395.505-.677.898-.62.393.113.674.507.618.902l-2.078 9.807a.724.724 0 0 1-.73.62z" fill="#1ABC9C" fill-rule="nonzero"/><path d="M50.358 29.394a.769.769 0 0 1-.786-.789v-7.722c0-.45.337-.789.786-.789s.786.338.786.79v7.721c0 .45-.393.79-.786.79z" fill="#1ABC9C" fill-rule="nonzero"/><g fill="#1ABC9C" fill-rule="nonzero"><path d="M40.196 43.203l-1.403-9.694 3.312-4.397 3.818 9.413z"/><path d="M40.196 44.443c-.168 0-.336-.056-.449-.112-.449-.17-.73-.564-.786-1.015l-1.628-8.398c-.056-.451.113-.958.506-1.24l3.593-5.693c.336-.225.73-.282 1.122-.17.393.114.674.395.842.734l3.762 9.525a1.235 1.235 0 0 1-.393 1.466l-5.783 4.622c-.224.225-.505.281-.786.281zm-.28-9.074l1.235 5.354 3.256-2.649-2.863-6.933-1.628 4.228z"/></g><g fill="#1ABC9C" fill-rule="nonzero"><path d="M59.06 47.205l6.68 3.608v12.85l-5.614 1.579z"/><path d="M65.74 64.96l-5.67 1.522c-.674 0-1.235-.507-1.291-1.24l-1.01-18.037c0-.45.224-.902.617-1.183.393-.226.898-.282 1.291-.057l6.68 3.608c.394.225.675.676.675 1.127v12.907c0 .79-.562 1.353-1.292 1.353zm-4.435-1.014h3.144v-12.4l-3.986-2.142.842 14.542z"/></g><g fill="#34495E" fill-rule="nonzero" opacity=".5"><path d="M58.442 59.887a.514.514 0 0 0 0 .564c.056.113.112.17.169.282l-.057-1.071-.112.225z"/><path d="M66.358 49.629l-2.583-1.41-5.277 11.443.056 1.07c.057.057.169.114.225.17l6.512 3.044a.71.71 0 0 0 .337.056.73.73 0 0 0 .674-.451l.673-1.522V50.813c.057-.508-.168-.959-.617-1.184z"/></g><g fill-rule="nonzero"><path d="M71.86 48.614c-.056-.169-.225-.338-.393-.45l-.113-.057c.057.17.057.395-.056.564l-6.231 13.584a.73.73 0 0 1-.674.45c-.112 0-.225 0-.337-.056l-6.4-2.987v.056c.056.17.225.338.393.451l6.512 3.044c.113.056.225.056.337.056a.73.73 0 0 0 .674-.45l6.232-13.64c.112-.17.112-.395.056-.565z" fill="#424548"/><path d="M64.337 62.706a.73.73 0 0 0 .674-.451l6.287-13.584c.056-.17.113-.395.056-.564l-6.4-2.987a.76.76 0 0 0-1.01.394l-6.232 13.584c-.056.17-.112.395-.056.564l6.4 2.987c.112.057.225.057.28.057z" fill="#2278B3"/></g><g fill="#1ABC9C" fill-rule="nonzero"><path d="M69.39 54.645l-1.516 3.382M67.874 59.55c-.225 0-.45-.057-.618-.17-.786-.338-1.123-1.296-.73-2.03l1.516-3.325c.337-.789 1.291-1.127 2.021-.732.786.338 1.123 1.296.73 2.029l-1.516 3.325c-.28.564-.842.902-1.403.902z"/></g><g transform="translate(45.474 24.941)"><ellipse cx="5.109" cy="5.749" rx="3.256" ry="2.593"/><path d="M5.109 1.635c2.414 0 4.435 1.803 4.828 4.114.056-.225.056-.507.056-.789 0-2.705-2.19-4.904-4.884-4.904C2.414.056.225 2.255.225 4.96c0 .282 0 .507.056.79a4.893 4.893 0 0 1 4.828-4.115z" fill="#1ABC9C" fill-rule="nonzero"/><path d="M5.109 9.864c-1.853 0-3.313-1.522-3.313-3.326 0-.282.057-.507.113-.789a3.339 3.339 0 0 1-.113-.789A3.325 3.325 0 0 1 5.11 1.635C2.695 1.635.674 3.438.28 5.749.674 8.06 2.695 9.864 5.109 9.864z" fill="#1ABC9C" fill-rule="nonzero"/><path d="M5.109 1.635c1.852 0 3.312 1.521 3.312 3.325 0 .282-.056.507-.112.79.056.225.112.506.112.788A3.325 3.325 0 0 1 5.11 9.864c2.414 0 4.435-1.804 4.828-4.115C9.6 3.382 7.579 1.635 5.109 1.635z" fill="#1ABC9C" fill-rule="nonzero"/></g><path d="M40.084 13.894a.8.8 0 0 1-.73-.507l-.617-1.86c-.112-.395.112-.846.505-.959.393-.112.842.113.954.508l.618 1.86c.112.394-.112.845-.505.958h-.225zM37.502 14.458c-.393 0-.674-.282-.786-.62l-.505-3.1c-.057-.395.224-.846.617-.902.393-.057.842.225.898.62l.506 3.1c.056.394-.225.845-.618.902 0-.057-.056 0-.112 0z" fill="#1ABC9C" fill-rule="nonzero"/><path d="M38.85 6.003a2.068 2.068 0 0 1-2.359-1.86C36.323 2.959 38.737.31 39.86.14c1.179-.17.168 5.693-1.01 5.862z" fill="#F4B42E" fill-rule="nonzero"/><path d="M56.253 44.669l-.057-.79-15.045 23.618a1.27 1.27 0 0 1-1.067.62c-.056 0-.168 0-.224-.057l.056 1.578h.168c.45 0 .842-.225 1.067-.62l11.733-18.882c-3.312 6.82-11.62 24.237-12.014 26.717-.112.62.842-.282 1.01-.507.113-.113.955-1.41 1.011-1.522l11.284-26.548v-.225l2.078-3.382zM47.663 39.99c-.898-.056-7.354 12.739-7.467 13.81-.056.676 1.067-1.127 1.18-1.353 0 0 6.736-12.4 6.287-12.456zM42.61 29.901l-1.74 4.115s.225 1.24.898-.395c.618-1.634 1.572-4.734.843-3.72zM43.284 30.352l-1.572 7.44s.393 1.184.786-.563c.393-1.748 1.291-8.06.786-6.877zM40.309 45.909s2.47-2.198 4.042-4.453c1.572-2.254 1.067-.169-1.01 2.367-2.078 2.537-4.043 3.608-4.043 3.1 0-.507 1.01-3.607 4.098-8.229 3.088-4.622-3.087 7.215-3.087 7.215zM54.175 51.038L49.011 79.22s-.955 3.382-1.067-1.014c-.112-4.397 6.175-29.253 6.231-27.168z" opacity=".5" fill="#34495E" fill-rule="nonzero"/><g fill="#34495E" fill-rule="nonzero" opacity=".5"><path d="M59.06 83.11c1.29-.057 2.47.45 2.47.45l-.056-1.014s-3.706-.507-3.706.507c0 1.015-2.582 1.522-3.087 2.086-.393.394-.506 1.183 1.179.62-1.74 3.269-5.221 12.456-5.221 13.358 0 .676.954-1.24 1.01-1.465 0 0 3.874-9.188 4.828-12.119.225-.113.505-.225.786-.338.45-.225.786-.45 1.01-.62 0 .113-.055.17-.055.282-1.18 2.705-3.481 13.696-3.369 14.655.112.676.73-1.353.786-1.635 0 0 1.404-5.58 2.302-9.582-.225 4.397-.169 10.766.112 11.442.225.62.45-1.465.45-1.747 0 0 .336-10.597.168-13.302.056-.282.056-.451 0-.451.673-.846-.562-1.127.393-1.127zM49.572 85.533c-2.583.79-1.01 3.608-2.077 4.002-1.01.395-4.604 0-6.4 2.311-1.797 2.311-2.302 1.41-2.302 1.41l-.505.845s2.077-.113 3.087-.564c.169 1.69-2.582 5.975-2.582 5.975 1.684.507 2.975-3.1 3.48-5.411.17-.733.113-1.24-.112-1.522.506-.677 1.516-1.41 2.751-1.973-.168 1.071-1.347 8.511-.786 8.962.618.45 1.01-3.664 1.01-3.664s.506-4.396.282-5.467c.673-.226 1.347-.451 2.133-.507 2.807-.339 1.516-1.973 1.516-2.762 0-.79 1.515-1.184 3.087-1.578.057 0 .169-.057.225-.057-1.628 2.988-1.628 7.44-2.75 10.935-.506 1.522-.113 4.002.224 2.255.28-1.579 2.694-11.724 2.75-13.246.674-.395-.785-.62-3.031.056z"/></g><g fill-rule="nonzero"><path d="M36.996 102.386a2.82 2.82 0 0 1 2.808-2.818H35.93c-1.572 0-2.807 1.296-2.807 2.818a2.82 2.82 0 0 0 2.807 2.818h3.874c-1.516 0-2.808-1.296-2.808-2.818z" fill="#48C9B0"/><path d="M62.653 99.512h-22.85c-1.571 0-2.807 1.296-2.807 2.818a2.82 2.82 0 0 0 2.808 2.818h22.849c1.572 0 2.807-1.296 2.807-2.818.056-1.522-1.235-2.818-2.807-2.818z" fill="#1ABC9C"/></g><path d="M61.642 102.386a2.82 2.82 0 0 0-2.807-2.818h3.874c1.572 0 2.807 1.296 2.807 2.818a2.82 2.82 0 0 1-2.807 2.818h-3.874c1.572 0 2.807-1.296 2.807-2.818z" opacity=".5" fill="#34495E" fill-rule="nonzero"/><path fill="#1ABC9C" fill-rule="nonzero" d="M54.961 39.427L39.58 56.957l.505 9.807 16.45-25.759z"/><path d="M50.526 47.994l-9.6 10.879.225 3.833z"/><path fill="#1ABC9C" fill-rule="nonzero" d="M41.15 64.227l12.97-20.29-3.594 4.057-9.375 14.712-.225-3.833-.056.113zM54.007 40.16a1.17 1.17 0 0 1 .898-.451c.337 0 .674.113.955.394h1.515l-1.515-1.521a1.462 1.462 0 0 0-.955-.395c-.337 0-.673.17-.898.45L38.625 56.112c-.225.225-.337.564-.337.902l.056 1.127c.056-.169.112-.338.28-.45l15.383-17.53z"/><path d="M39.747 68.004a.71.71 0 0 0 .337.056c.45 0 .842-.225 1.067-.62L57.6 41.625a1.29 1.29 0 0 0-.168-1.634h-1.516a1.462 1.462 0 0 0-.955-.395c-.336 0-.673.17-.898.451l-15.438 17.53a1.228 1.228 0 0 0-.281.45l.449 8.68c.056.677.393 1.184.954 1.297zm1.123-10.54l13.25-15.05-3.594 5.637 3.593-4.058-12.968 20.29-.28-5.241.055-.113-.056-1.465z" fill="#1ABC9C" fill-rule="nonzero"/><path d="M51.65 45.402c-.506 0-9.657 10.99-9.657 10.99-.056.057-.618.846-.618.903l-2.47 3.776c0 .17.225.225.337.113-.056-.057 12.912-15.782 12.407-15.782zM54.175 39.878s-5.108 5.355-5.333 4.96c-.224-.338 5.558-5.636 5.333-4.96z" opacity=".5" fill="#34495E" fill-rule="nonzero"/><g fill="#1ABC9C" fill-rule="nonzero"><path d="M55.635 43.598l-.674 37.595h7.186l-3.593-37.595z"/><path d="M62.147 82.49h-7.186c-.336 0-.673-.113-.898-.395-.224-.225-.393-.564-.393-.902l.674-37.651c0-.677.561-1.24 1.291-1.24h2.976c.673 0 1.235.507 1.29 1.183l3.594 37.652c.056.338-.113.733-.337 1.014-.28.226-.618.339-1.01.339zm-5.894-2.537h4.49l-3.368-35.059h-.505l-.617 35.06z"/></g><path d="M61.418 58.76c-1.516-1.015-2.527-3.776-2.751-4.622-.562-2.085-2.302-2.029-2.807 1.015-.618 3.607-2.639 3.1-2.639 4.622 0 .507 2.077-1.015 2.583-2.593.842-2.48 1.403-5.13 2.582-1.86l1.01 23.617c0 .281.169.507.45.62.393.112.842-.17.786-.62-.057-3.495-1.348-16.91-1.797-21.7 0-.17 0-.283-.056-.452.954 2.199 3.593 2.65 2.639 1.973zM57.432 44.33s2.077 7.215 1.46 7.215c-.562 0-2.078-7.722-1.46-7.214z" opacity=".5" fill="#34495E" fill-rule="nonzero"/><path d="M63.944 65.467s0-4.114-.505-6.707c-.506-2.536.505-5.693 0-9.807-.113-1.071-1.18-1.579-1.18-1.579l-1.908-1.014s-5.165-6.708-3.312-4.002c1.572 2.367 3.256 8.23 3.649 9.638l1.347 13.979 1.909-.508z" opacity=".5" fill="#34495E" fill-rule="nonzero"/><g fill-rule="nonzero"><path d="M70.4 53.518c0 .282 0 .507-.112.79l-1.516 3.325c-.28.563-.842.902-1.404.902-.224 0-.449-.057-.617-.17-.112-.056-.28-.169-.393-.225.056.564.337 1.015.898 1.296.225.113.45.17.618.17.561 0 1.122-.339 1.403-.902l1.516-3.326c.28-.733.112-1.409-.393-1.86z" opacity=".5" fill="#34495E"/><path d="M67.368 58.535c.562 0 1.123-.339 1.404-.902l1.516-3.326c.112-.225.168-.507.112-.789a.904.904 0 0 0-.393-.225c-.786-.338-1.684 0-2.021.732l-1.516 3.326c-.112.225-.168.507-.112.789.112.113.224.17.393.226.168.112.393.169.617.169z" fill="#1ABC9C"/></g><g opacity=".5" fill="#34495E" fill-rule="nonzero"><path d="M55.074 38.525l-.281-6.2c.056-.225-.056-1.86-.056-2.142a4.108 4.108 0 0 0-3.986-4.114c-1.797-.057-3.312 1.07-3.93 2.761-.337.846-.337 1.579-.168 2.311.449-1.803 2.077-3.156 3.986-3.156 1.908 0 3.087 1.916 3.087 2.424 0 .958-3.087-2.255-3.087-2.086 0 .507 1.515 1.522 2.077 2.086.168.169.505.507-.28.732-.113.057-.225.113-.225.226v1.69c0 .114-.113.17-.169.17h-.561c-.113 0-.225.113-.225.282l-.056.507s1.01.507.786 1.296c-.225.62-.73 1.128.337 1.24 0 0-.056 0-.056.057l-.113 2.367 1.516-.113 1.46-.112h.056l.618-.057-.73-.169zm-1.91-.507c-.111 0-.168-.056-.28-.056v-1.24c.169-.113.28-.282.393-.451 0-.057.056-.113.112-.226l.113 2.086-.337-.113z"/></g><g opacity=".5" fill="#34495E" fill-rule="nonzero"><path d="M54.456 43.09s-2.245 3.157-.786.226c1.01-2.085 1.516-1.916 1.628-1.409.113.507-.617 2.424-.617 2.424-2.246 5.129-.225-1.24-.225-1.24z"/></g><g opacity=".5" fill="#34495E" fill-rule="nonzero"><path d="M55.242 60.846c-.842.281-2.638 20.178-2.358 21.249.169.62.562-1.465.562-1.69 0-.057 2.19-19.672 1.796-19.56z"/></g></g></g></svg>