<?xml version="1.0" standalone="no"?>
<!DOCTYPE svg PUBLIC "-//W3C//DTD SVG 20010904//EN"
 "http://www.w3.org/TR/2001/REC-SVG-20010904/DTD/svg10.dtd">
<svg version="1.0" xmlns="http://www.w3.org/2000/svg"
 width="768.000000pt" height="768.000000pt" viewBox="0 0 768.000000 768.000000"
 preserveAspectRatio="xMidYMid meet">
<metadata>
Created by potrace 1.11, written by Peter Selinger 2001-2013
</metadata>
<g transform="translate(0.000000,768.000000) scale(0.100000,-0.100000)"
fill="#000000" stroke="none">
<path d="M6620 6413 c-117 -18 -245 -61 -339 -114 -113 -64 -149 -96 -462
-419 -82 -85 -268 -276 -412 -424 -144 -148 -296 -303 -337 -346 -82 -84 -580
-597 -725 -745 -49 -51 -184 -189 -299 -307 l-209 -215 -69 71 c-113 116 -504
518 -628 645 -63 65 -230 236 -370 381 -140 144 -318 327 -395 405 -77 79
-243 251 -370 381 -356 367 -470 479 -522 513 -26 17 -52 34 -58 39 -11 9 -87
45 -150 71 -22 10 -67 23 -100 30 -33 8 -74 17 -90 21 -42 10 -244 9 -250 -1
-3 -4 -11 -6 -19 -3 -7 3 -33 0 -57 -6 -24 -6 -53 -13 -64 -15 -79 -18 -209
-82 -300 -148 -35 -25 -141 -124 -171 -160 -36 -43 -97 -142 -127 -207 -51
-110 -49 -104 -76 -225 -19 -88 -19 -137 -20 -2070 0 -1932 1 -1982 20 -2055
56 -216 190 -382 387 -476 74 -36 107 -47 182 -62 19 -4 1488 -7 3265 -7 2995
0 3234 1 3291 17 62 17 198 82 222 105 7 7 16 13 20 13 12 1 94 82 138 135 65
80 119 197 143 310 9 42 8 4020 -1 4075 -14 85 -35 152 -76 242 -127 280 -382
481 -687 543 -36 8 -250 14 -285 8z"/>
</g>
</svg>
