<svg width="515" height="76" fill="none" xmlns="http://www.w3.org/2000/svg"><path fill-rule="evenodd" clip-rule="evenodd" d="M384.699 37.48h28.266c2.847-4.085 3.93-8.086 3.93-12.42 0-14.6-12.312-25.06-31.162-25.06-10.133 0-22.336 3.378-30.725 12.312l11.985 14.6c5.557-4.685 11.44-7.518 18.74-7.518 5.121 0 8.826 2.18 8.826 5.666 0 3.352-1.197 5.673-9.86 12.42zM422.482 37.48H444.6c0-12.311 3.16-18.086 10.133-18.086 6.973 0 10.133 5.775 10.133 18.087h22.118C486.984 17.76 476.415 0 454.733 0c-21.682 0-32.251 17.76-32.251 37.48z" fill="#1ABC9C"/><path d="M358.168 73.763h59.38V54.587h-25.822c10.978-6.44 17.572-11.844 21.239-17.106h-28.266c-5.416 4.218-13.749 10.165-26.531 19.176v17.106zM422.482 37.48c0 19.722 10.569 37.59 32.251 37.59 21.682 0 32.251-17.868 32.251-37.59h-22.118c0 12.313-3.16 18.196-10.133 18.196-6.973 0-10.133-5.883-10.133-18.195h-22.118z" fill="#66B1E2"/><path d="M7.685 51.244h5.635v-21.36h7.646v-4.927H0v4.927h7.685v21.36zM39.41 51.244h6.425l-5.912-10.01c2.837-.67 5.754-3.153 5.754-7.803 0-4.887-3.35-8.473-8.828-8.473H24.553v26.286h5.596v-9.42h4.1l5.162 9.42zm.553-17.853c0 2.207-1.695 3.626-3.941 3.626H30.15v-7.252h5.872c2.246 0 3.94 1.42 3.94 3.626zM68.281 51.244h6.109L64.26 24.957h-7.014L47.079 51.245h6.148l1.655-4.532h11.744l1.655 4.532zm-7.527-21.44l4.335 12.06h-8.71l4.375-12.06zM94.945 51.244h5.4V24.957h-5.597v17.025L82.571 24.958h-5.754v26.286h5.596V33.588l12.532 17.656zM103.715 47.54c2.482 2.482 6.108 4.177 11.153 4.177 7.093 0 10.522-3.626 10.522-8.434 0-5.833-5.517-7.133-9.852-8.118-3.035-.71-5.242-1.261-5.242-3.035 0-1.576 1.34-2.68 3.862-2.68 2.562 0 5.399.907 7.527 2.877l3.114-4.098c-2.601-2.404-6.069-3.666-10.247-3.666-6.187 0-9.97 3.547-9.97 7.922 0 5.872 5.517 7.054 9.813 8.04 3.034.709 5.32 1.379 5.32 3.35 0 1.497-1.498 2.955-4.572 2.955a11.524 11.524 0 01-8.354-3.547l-3.074 4.256zM129.158 51.244h5.596V40.288h12.729V35.48h-12.729v-5.714h13.005v-4.808h-18.601v26.286zM150.411 38.12c0 7.922 5.793 13.597 13.714 13.597 7.961 0 13.754-5.675 13.754-13.597 0-7.921-5.793-13.596-13.754-13.596-7.921 0-13.714 5.675-13.714 13.596zm21.715 0c0 4.887-3.153 8.631-8.001 8.631-4.847 0-7.96-3.744-7.96-8.63 0-4.927 3.113-8.631 7.96-8.631 4.848 0 8.001 3.704 8.001 8.63zM196.664 51.244h6.424l-5.912-10.01c2.838-.67 5.754-3.153 5.754-7.803 0-4.887-3.35-8.473-8.828-8.473h-12.296v26.286h5.597v-9.42h4.098l5.163 9.42zm.552-17.853c0 2.207-1.695 3.626-3.941 3.626h-5.872v-7.252h5.872c2.246 0 3.941 1.42 3.941 3.626zM229.988 51.244h5.635V24.957h-7.882l-6.384 16.395-6.384-16.394h-7.843v26.286h5.596V32.327l7.409 18.917h2.444l7.409-18.917v18.917zM259.248 51.244h6.108l-10.128-26.287h-7.015l-10.167 26.287h6.147l1.656-4.532h11.744l1.655 4.532zm-7.527-21.44l4.335 12.06h-8.71l4.375-12.06zM271.313 51.244h5.635v-21.36h7.646v-4.927h-20.966v4.927h7.685v21.36zM288.181 51.244h5.596V24.957h-5.596v26.287zM306.365 51.244h7.015l10.128-26.287h-6.384l-7.251 20.218-7.291-20.217h-6.384l10.167 26.286zM325.936 51.244h18.601v-4.848h-13.005v-6.108H515V35.48H331.532v-5.714h13.005v-4.808h-18.601v26.286z" fill="#fff"/></svg>