<svg width="37" height="20" xmlns="http://www.w3.org/2000/svg"><path d="M10.8 13.775a6.67 6.67 0 0 1 4.916-2.168h6.568c1.908 0 3.629.807 4.851 2.098h4.828c2.783 0 5.037 2.29 5.037 5.09a.528.528 0 0 1-.53.535H22.53a.525.525 0 0 1-.433-.223h-7.194a.525.525 0 0 1-.433.223H.53a.528.528 0 0 1-.53-.535c0-2.812 2.266-5.09 5.037-5.09h4.926c.285 0 .564.024.836.07zm-3.3-.74a4.03 4.03 0 0 1-4.018-4.023 4.019 4.019 0 0 1 8.036 0c0 2.222-1.8 4.024-4.018 4.024zm22 0a4.03 4.03 0 0 1-4.018-4.023 4.019 4.019 0 0 1 8.036 0c0 2.222-1.8 4.024-4.018 4.024zM19 10.716c-2.958 0-5.357-2.42-5.357-5.366C13.643 2.403 16.043 0 19 0a5.348 5.348 0 0 1 5.357 5.349c0 2.962-2.399 5.365-5.357 5.365z" fill="#2E3696" fill-rule="nonzero"/></svg>