<svg width="809" height="566" xmlns="http://www.w3.org/2000/svg" xmlns:xlink="http://www.w3.org/1999/xlink"><defs><filter x="-10.7%" y="-17%" width="121.5%" height="134%" filterUnits="objectBoundingBox" id="a"><feOffset dy="2" in="SourceAlpha" result="shadowOffsetOuter1"/><feGaussianBlur stdDeviation="20.5" in="shadowOffsetOuter1" result="shadowBlurOuter1"/><feColorMatrix values="0 0 0 0 0.242584159 0 0 0 0 0.306456821 0 0 0 0 0.370329484 0 0 0 0.261390953 0" in="shadowBlurOuter1" result="shadowMatrixOuter1"/><feMerge><feMergeNode in="shadowMatrixOuter1"/><feMergeNode in="SourceGraphic"/></feMerge></filter><path d="M49 485h670c27.062 0 49-21.938 49-49V49.5c0-27.062-21.938-49-49-49H49C21.938.5 0 22.438 0 49.5V436c0 27.062 21.938 49 49 49z" id="b"/><path d="M49 485h670c27.062 0 49-21.938 49-49V49.5c0-27.062-21.938-49-49-49H49C21.938.5 0 22.438 0 49.5V436c0 27.062 21.938 49 49 49z" id="d"/><path d="M49 485h670c27.062 0 49-21.938 49-49V49.5c0-27.062-21.938-49-49-49H49C21.938.5 0 22.438 0 49.5V436c0 27.062 21.938 49 49 49z" id="f"/></defs><g filter="url(#a)" transform="translate(41 38)" fill="none" fill-rule="evenodd"><path fill="#FFF" fill-rule="nonzero" d="M.5 52h767V1.001H.5z"/><path fill="#34495D" fill-rule="nonzero" d="M.5 375.5h767v-323H.5z"/><path stroke="#34495E" d="M.5 375.5h767v-323H.5z"/><path d="M137.511 366.5H32.49a2.989 2.989 0 0 1-2.989-2.988v-39.024a2.989 2.989 0 0 1 2.99-2.988H137.51a2.989 2.989 0 0 1 2.99 2.988v39.024a2.989 2.989 0 0 1-2.99 2.988" fill="#FFF" fill-rule="nonzero"/><path d="M137.511 366.5H32.49a2.989 2.989 0 0 1-2.989-2.988v-39.024a2.989 2.989 0 0 1 2.99-2.988H137.51a2.989 2.989 0 0 1 2.99 2.988v39.024a2.989 2.989 0 0 1-2.99 2.988z" stroke="#E6E6E6"/><path d="M254.511 366.5H149.49a2.989 2.989 0 0 1-2.989-2.988v-39.024a2.989 2.989 0 0 1 2.99-2.988H254.51a2.989 2.989 0 0 1 2.99 2.988v39.024a2.989 2.989 0 0 1-2.99 2.988" fill="#606E74" fill-rule="nonzero"/><path d="M254.511 366.5H149.49a2.989 2.989 0 0 1-2.989-2.988v-39.024a2.989 2.989 0 0 1 2.99-2.988H254.51a2.989 2.989 0 0 1 2.99 2.988v39.024a2.989 2.989 0 0 1-2.99 2.988z" stroke="#606E74"/><path d="M371.511 366.5H266.49a2.989 2.989 0 0 1-2.989-2.988v-39.024a2.989 2.989 0 0 1 2.99-2.988H371.51a2.989 2.989 0 0 1 2.99 2.988v39.024a2.989 2.989 0 0 1-2.99 2.988" fill="#606E74" fill-rule="nonzero"/><path d="M371.511 366.5H266.49a2.989 2.989 0 0 1-2.989-2.988v-39.024a2.989 2.989 0 0 1 2.99-2.988H371.51a2.989 2.989 0 0 1 2.99 2.988v39.024a2.989 2.989 0 0 1-2.99 2.988z" stroke="#606E74"/><path fill="#FFF" fill-rule="nonzero" d="M.5 485.5h767V362H.5zM198.596 292.5H35.405a5.905 5.905 0 0 1-5.905-5.904V129.404a5.905 5.905 0 0 1 5.905-5.904h163.19a5.904 5.904 0 0 1 5.905 5.904v157.192a5.904 5.904 0 0 1-5.904 5.904"/><path d="M198.596 292.5H35.405a5.905 5.905 0 0 1-5.905-5.904V129.404a5.905 5.905 0 0 1 5.905-5.904h163.19a5.904 5.904 0 0 1 5.905 5.904v157.192a5.904 5.904 0 0 1-5.904 5.904z" stroke="#E6E6E6"/><path d="M385.596 292.5H225.405a5.905 5.905 0 0 1-5.905-5.904V129.404a5.905 5.905 0 0 1 5.905-5.904h160.19a5.904 5.904 0 0 1 5.905 5.904v157.192a5.904 5.904 0 0 1-5.904 5.904" fill="#FFF" fill-rule="nonzero"/><path d="M385.596 292.5H225.405a5.905 5.905 0 0 1-5.905-5.904V129.404a5.905 5.905 0 0 1 5.905-5.904h160.19a5.904 5.904 0 0 1 5.905 5.904v157.192a5.904 5.904 0 0 1-5.904 5.904z" stroke="#E6E6E6"/><path d="M733.596 292.5H412.405a5.905 5.905 0 0 1-5.905-5.904V129.404a5.905 5.905 0 0 1 5.905-5.904h321.19a5.904 5.904 0 0 1 5.905 5.904v157.192a5.904 5.904 0 0 1-5.904 5.904" fill="#FFF" fill-rule="nonzero"/><path d="M733.596 292.5H412.405a5.905 5.905 0 0 1-5.905-5.904V129.404a5.905 5.905 0 0 1 5.905-5.904h321.19a5.904 5.904 0 0 1 5.905 5.904v157.192a5.904 5.904 0 0 1-5.904 5.904z" stroke="#E6E6E6"/><path d="M736.512 38.5h-85.023a2.989 2.989 0 0 1-2.99-2.989V16.489a2.989 2.989 0 0 1 2.99-2.989h85.023a2.989 2.989 0 0 1 2.988 2.989v19.022a2.989 2.989 0 0 1-2.988 2.989z" fill="#9A9DAB" fill-rule="nonzero"/><path d="M190.511 280.5H44.49a2.989 2.989 0 0 1-2.989-2.988v-19.024a2.989 2.989 0 0 1 2.99-2.988H190.51a2.989 2.989 0 0 1 2.99 2.988v19.024a2.989 2.989 0 0 1-2.99 2.988" fill="#0875BD" fill-rule="nonzero"/><path d="M190.511 280.5H44.49a2.989 2.989 0 0 1-2.989-2.988v-19.024a2.989 2.989 0 0 1 2.99-2.988H190.51a2.989 2.989 0 0 1 2.99 2.988v19.024a2.989 2.989 0 0 1-2.99 2.988z" stroke="#0875BD"/><path d="M39 155.5h155" fill="#F0F2F2" fill-rule="nonzero"/><path d="M39 155.5h155" stroke="#F0F2F2"/><path d="M228 155.5h155" fill="#F0F2F2" fill-rule="nonzero"/><path d="M228 155.5h155" stroke="#F0F2F2"/><path d="M416 156.5h314" fill="#F0F2F2" fill-rule="nonzero"/><path d="M416 156.5h314" stroke="#F0F2F2"/><g><path d="M29 431.5h711" fill="#F0F2F2" fill-rule="nonzero"/><path d="M29 431.5h711" stroke="#F0F2F2"/></g><g><path d="M649 392.648h63" fill="#F0F2F2" fill-rule="nonzero"/><path d="M649 392.648h63" stroke="#D4D6D8" stroke-width=".75"/></g><g><path d="M190 30.5h-88a4.5 4.5 0 0 1 0-9h88a4.5 4.5 0 0 1 0 9" fill="#606E74" fill-rule="nonzero"/><path d="M190 30.5h-88a4.5 4.5 0 0 1 0-9h88a4.5 4.5 0 0 1 0 9z" stroke="#606E74"/><path d="M119 30.5H31a4.5 4.5 0 0 1 0-9h88a4.5 4.5 0 0 1 0 9" fill="#606E74" fill-rule="nonzero"/><path d="M119 30.5H31a4.5 4.5 0 0 1 0-9h88a4.5 4.5 0 0 1 0 9z" stroke="#606E74"/><path d="M72 145.5H45a3.5 3.5 0 1 1 0-7h27a3.5 3.5 0 1 1 0 7" fill="#606E74" fill-rule="nonzero"/><path d="M72 145.5H45a3.5 3.5 0 1 1 0-7h27a3.5 3.5 0 1 1 0 7z" stroke="#606E74"/><path d="M293 145.5h-58a3.5 3.5 0 1 1 0-7h58a3.5 3.5 0 1 1 0 7" fill="#606E74" fill-rule="nonzero"/><path d="M293 145.5h-58a3.5 3.5 0 1 1 0-7h58a3.5 3.5 0 1 1 0 7z" stroke="#606E74"/><path d="M512 145.5h-93a3.5 3.5 0 1 1 0-7h93a3.5 3.5 0 1 1 0 7" fill="#606E74" fill-rule="nonzero"/><path d="M512 145.5h-93a3.5 3.5 0 1 1 0-7h93a3.5 3.5 0 1 1 0 7z" stroke="#606E74"/><path d="M78.5 171.5h-35a2 2 0 0 1 0-4h35a2 2 0 0 1 0 4" fill="#9A9CAA" fill-rule="nonzero"/><path d="M78.5 171.5h-35a2 2 0 0 1 0-4h35a2 2 0 0 1 0 4z" stroke="#9A9CAA"/><path d="M76.5 199.5h-33a2 2 0 0 1 0-4h33a2 2 0 0 1 0 4" fill="#9A9CAA" fill-rule="nonzero"/><path d="M76.5 199.5h-33a2 2 0 0 1 0-4h33a2 2 0 0 1 0 4z" stroke="#9A9CAA"/><path d="M153.5 199.5h-44a2 2 0 0 1 0-4h44a2 2 0 0 1 0 4" fill="#9A9CAA" fill-rule="nonzero"/><path d="M153.5 199.5h-44a2 2 0 0 1 0-4h44a2 2 0 0 1 0 4z" stroke="#9A9CAA"/><path d="M95.5 227.5h-52a2 2 0 0 1 0-4h52a2 2 0 0 1 0 4" fill="#9A9CAA" fill-rule="nonzero"/><path d="M95.5 227.5h-52a2 2 0 0 1 0-4h52a2 2 0 0 1 0 4z" stroke="#9A9CAA"/><path d="M268.5 171.5h-35a2 2 0 0 1 0-4h35a2 2 0 0 1 0 4" fill="#9A9CAA" fill-rule="nonzero"/><path d="M268.5 171.5h-35a2 2 0 0 1 0-4h35a2 2 0 0 1 0 4z" stroke="#9A9CAA"/><path d="M257.5 199.5h-24a2 2 0 0 1 0-4h24a2 2 0 0 1 0 4" fill="#9A9CAA" fill-rule="nonzero"/><path d="M257.5 199.5h-24a2 2 0 0 1 0-4h24a2 2 0 0 1 0 4z" stroke="#9A9CAA"/><path d="M258.5 237.5h-24a2 2 0 0 1 0-4h24a2 2 0 0 1 0 4" fill="#9A9CAA" fill-rule="nonzero"/><path d="M258.5 237.5h-24a2 2 0 0 1 0-4h24a2 2 0 0 1 0 4z" stroke="#9A9CAA"/><path d="M114.5 180.5h-71a2 2 0 0 1 0-4h71a2 2 0 0 1 0 4" fill="#D4D6D8" fill-rule="nonzero"/><path d="M114.5 180.5h-71a2 2 0 0 1 0-4h71a2 2 0 0 1 0 4z" stroke="#F0F2F2"/><path d="M137.5 235.5h-95a2 2 0 0 1 0-4h95a2 2 0 0 1 0 4" fill="#D4D6D8" fill-rule="nonzero"/><path d="M137.5 235.5h-95a2 2 0 0 1 0-4h95a2 2 0 0 1 0 4z" stroke="#F0F2F2"/><path d="M123.5 207.5h-14a2 2 0 0 1 0-4h14a2 2 0 0 1 0 4" fill="#D4D6D8" fill-rule="nonzero"/><path d="M123.5 207.5h-14a2 2 0 0 1 0-4h14a2 2 0 0 1 0 4z" stroke="#F0F2F2"/><path d="M62.5 207.5h-9a2 2 0 0 1 0-4h9a2 2 0 0 1 0 4" fill="#D4D6D8" fill-rule="nonzero"/><path d="M62.5 207.5h-9a2 2 0 0 1 0-4h9a2 2 0 0 1 0 4z" stroke="#F0F2F2"/><path d="M257.5 180.5h-24a2 2 0 0 1 0-4h24a2 2 0 0 1 0 4" fill="#D4D6D8" fill-rule="nonzero"/><path d="M257.5 180.5h-24a2 2 0 0 1 0-4h24a2 2 0 0 1 0 4z" stroke="#F0F2F2"/><path d="M368.5 207.5h-135a2 2 0 0 1 0-4h135a2 2 0 0 1 0 4" fill="#D4D6D8" fill-rule="nonzero"/><path d="M368.5 207.5h-135a2 2 0 0 1 0-4h135a2 2 0 0 1 0 4z" stroke="#F0F2F2"/><path d="M304.5 216.5h-71a2 2 0 0 1 0-4h71a2 2 0 0 1 0 4" fill="#D4D6D8" fill-rule="nonzero"/><path d="M304.5 216.5h-71a2 2 0 0 1 0-4h71a2 2 0 0 1 0 4z" stroke="#F0F2F2"/><path d="M369.5 245.5h-135a2 2 0 0 1 0-4h135a2 2 0 0 1 0 4" fill="#D4D6D8" fill-rule="nonzero"/><path d="M369.5 245.5h-135a2 2 0 0 1 0-4h135a2 2 0 0 1 0 4z" stroke="#F0F2F2"/><path d="M361.5 253.5h-127a2 2 0 0 1 0-4h127a2 2 0 0 1 0 4" fill="#D4D6D8" fill-rule="nonzero"/><path d="M361.5 253.5h-127a2 2 0 0 1 0-4h127a2 2 0 0 1 0 4z" stroke="#F0F2F2"/><path d="M369.5 261.5h-135a2 2 0 0 1 0-4h135a2 2 0 0 1 0 4" fill="#D4D6D8" fill-rule="nonzero"/><path d="M369.5 261.5h-135a2 2 0 0 1 0-4h135a2 2 0 0 1 0 4z" stroke="#F0F2F2"/><path d="M123 418.5H35a3.5 3.5 0 1 1 0-7h88a3.5 3.5 0 1 1 0 7" fill="#606E74" fill-rule="nonzero"/><path d="M123 418.5H35a3.5 3.5 0 1 1 0-7h88a3.5 3.5 0 1 1 0 7z" stroke="#606E74"/><path d="M152 464.5H36a3.5 3.5 0 1 1 0-7h116a3.5 3.5 0 1 1 0 7" fill="#606E74" fill-rule="nonzero"/><path d="M152 464.5H36a3.5 3.5 0 1 1 0-7h116a3.5 3.5 0 1 1 0 7z" stroke="#606E74"/><path d="M737.5 420.5h-71a2 2 0 0 1-2-2v-2a2 2 0 0 1 2-2h71a2 2 0 0 1 2 2v2a2 2 0 0 1-2 2" fill="#9A9CAA" fill-rule="nonzero"/><path d="M737.5 420.5h-71a2 2 0 0 1-2-2v-2a2 2 0 0 1 2-2h71a2 2 0 0 1 2 2v2a2 2 0 0 1-2 2z" stroke="#9A9CAA"/><path d="M737.5 463.5h-87a2 2 0 0 1-2-2v-2a2 2 0 0 1 2-2h87a2 2 0 0 1 2 2v2a2 2 0 0 1-2 2" fill="#FDEBE8" fill-rule="nonzero"/><path d="M737.5 463.5h-87a2 2 0 0 1-2-2v-2a2 2 0 0 1 2-2h87a2 2 0 0 1 2 2v2a2 2 0 0 1-2 2z" stroke="#FDEBE8"/><path d="M120.5 347.5h-71a2 2 0 0 1-2-2v-2a2 2 0 0 1 2-2h71a2 2 0 0 1 2 2v2a2 2 0 0 1-2 2" fill="#9A9CAA" fill-rule="nonzero"/><path d="M120.5 347.5h-71a2 2 0 0 1-2-2v-2a2 2 0 0 1 2-2h71a2 2 0 0 1 2 2v2a2 2 0 0 1-2 2z" stroke="#9A9CAA"/><path d="M231.5 347.5h-60a2 2 0 0 1-2-2v-2a2 2 0 0 1 2-2h60a2 2 0 0 1 2 2v2a2 2 0 0 1-2 2" fill="#F9F9FB" fill-rule="nonzero"/><path d="M231.5 347.5h-60a2 2 0 0 1-2-2v-2a2 2 0 0 1 2-2h60a2 2 0 0 1 2 2v2a2 2 0 0 1-2 2z" stroke="#F0F2F2"/><path d="M354.5 347.5h-71a2 2 0 0 1-2-2v-2a2 2 0 0 1 2-2h71a2 2 0 0 1 2 2v2a2 2 0 0 1-2 2" fill="#F9F9FB" fill-rule="nonzero"/><path d="M354.5 347.5h-71a2 2 0 0 1-2-2v-2a2 2 0 0 1 2-2h71a2 2 0 0 1 2 2v2a2 2 0 0 1-2 2z" stroke="#F0F2F2"/><g fill-rule="nonzero"><path d="M534.5 225.5c0 8.95-2.31 17.37-6.36 24.68l-44.64-25.02V174.5c1.31 0 2.6.05 3.88.15 26.36 1.98 47.12 23.99 47.12 50.85" fill="#D4D6D8"/><path d="M483.5 225.16l44.64 25.02c-8.69 15.7-25.42 26.32-44.64 26.32v-51.34z" fill="#26266D"/><path d="M483.5 225.16v51.34c-28.17 0-51-22.83-51-51 0-9.16 2.42-17.76 6.65-25.19l.35.19 44 24.66z" fill="#0875BD"/><path d="M483.5 174.5v50.66l-44-24.66-.35-.19c8.76-15.42 25.34-25.81 44.35-25.81" fill="#1CB6C8"/></g><path d="M520.5 225.5c0 20.435-16.565 37-37 37s-37-16.565-37-37 16.565-37 37-37 37 16.565 37 37" fill="#FFF" fill-rule="nonzero"/><path d="M520.5 225.5c0 20.435-16.565 37-37 37s-37-16.565-37-37 16.565-37 37-37 37 16.565 37 37z" stroke="#FFF"/><path d="M489 227.5h-11a3.5 3.5 0 1 1 0-7h11a3.5 3.5 0 1 1 0 7" fill="#606E74" fill-rule="nonzero"/><path d="M489 227.5h-11a3.5 3.5 0 1 1 0-7h11a3.5 3.5 0 1 1 0 7z" stroke="#606E74"/><path d="M494.5 237.5h-22a2 2 0 0 1 0-4h22a2 2 0 0 1 0 4" fill="#9A9CAA" fill-rule="nonzero"/><path d="M494.5 237.5h-22a2 2 0 0 1 0-4h22a2 2 0 0 1 0 4z" stroke="#9A9CAA"/><path d="M583.298 203.5h-14.596a2.202 2.202 0 0 1-2.202-2.202v-9.596c0-1.216.986-2.202 2.202-2.202h14.596c1.216 0 2.202.986 2.202 2.202v9.596a2.202 2.202 0 0 1-2.202 2.202" fill="#1CB6C8" fill-rule="nonzero"/><path d="M583.298 203.5h-14.596a2.202 2.202 0 0 1-2.202-2.202v-9.596c0-1.216.986-2.202 2.202-2.202h14.596c1.216 0 2.202.986 2.202 2.202v9.596a2.202 2.202 0 0 1-2.202 2.202z" stroke="#1CB6C8"/><path d="M583.298 222.5h-14.596a2.202 2.202 0 0 1-2.202-2.202v-9.596c0-1.216.986-2.202 2.202-2.202h14.596c1.216 0 2.202.986 2.202 2.202v9.596a2.202 2.202 0 0 1-2.202 2.202" fill="#0875BD" fill-rule="nonzero"/><path d="M583.298 222.5h-14.596a2.202 2.202 0 0 1-2.202-2.202v-9.596c0-1.216.986-2.202 2.202-2.202h14.596c1.216 0 2.202.986 2.202 2.202v9.596a2.202 2.202 0 0 1-2.202 2.202z" stroke="#0875BD"/><path d="M583.298 241.5h-14.596a2.202 2.202 0 0 1-2.202-2.202v-9.596c0-1.216.986-2.202 2.202-2.202h14.596c1.216 0 2.202.986 2.202 2.202v9.596a2.202 2.202 0 0 1-2.202 2.202" fill="#26266D" fill-rule="nonzero"/><path d="M583.298 241.5h-14.596a2.202 2.202 0 0 1-2.202-2.202v-9.596c0-1.216.986-2.202 2.202-2.202h14.596c1.216 0 2.202.986 2.202 2.202v9.596a2.202 2.202 0 0 1-2.202 2.202z" stroke="#26266D"/><path d="M583.298 260.5h-14.596a2.202 2.202 0 0 1-2.202-2.202v-9.596c0-1.216.986-2.202 2.202-2.202h14.596c1.216 0 2.202.986 2.202 2.202v9.596a2.202 2.202 0 0 1-2.202 2.202" fill="#D4D6D8" fill-rule="nonzero"/><path d="M583.298 260.5h-14.596a2.202 2.202 0 0 1-2.202-2.202v-9.596c0-1.216.986-2.202 2.202-2.202h14.596c1.216 0 2.202.986 2.202 2.202v9.596a2.202 2.202 0 0 1-2.202 2.202z" stroke="#D4D6D8"/><path d="M659.5 197.5h-63a2 2 0 0 1 0-4h63a2 2 0 0 1 0 4" fill="#9A9CAA" fill-rule="nonzero"/><path d="M659.5 197.5h-63a2 2 0 0 1 0-4h63a2 2 0 0 1 0 4z" stroke="#9A9CAA"/><path d="M672.5 216.5h-76a2 2 0 0 1 0-4h76a2 2 0 0 1 0 4" fill="#9A9CAA" fill-rule="nonzero"/><path d="M672.5 216.5h-76a2 2 0 0 1 0-4h76a2 2 0 0 1 0 4z" stroke="#9A9CAA"/><path d="M639.5 235.5h-43a2 2 0 0 1 0-4h43a2 2 0 0 1 0 4" fill="#9A9CAA" fill-rule="nonzero"/><path d="M639.5 235.5h-43a2 2 0 0 1 0-4h43a2 2 0 0 1 0 4z" stroke="#9A9CAA"/><path d="M623.5 255.5h-27a2 2 0 0 1 0-4h27a2 2 0 0 1 0 4" fill="#9A9CAA" fill-rule="nonzero"/><path d="M623.5 255.5h-27a2 2 0 0 1 0-4h27a2 2 0 0 1 0 4z" stroke="#9A9CAA"/><path d="M221.298 393.5h-8.596a2.202 2.202 0 0 1-2.202-2.202v-8.596c0-1.216.986-2.202 2.202-2.202h8.596c1.216 0 2.202.986 2.202 2.202v8.596a2.202 2.202 0 0 1-2.202 2.202" fill="#0875BD" fill-rule="nonzero"/><path d="M221.298 393.5h-8.596a2.202 2.202 0 0 1-2.202-2.202v-8.596c0-1.216.986-2.202 2.202-2.202h8.596c1.216 0 2.202.986 2.202 2.202v8.596a2.202 2.202 0 0 1-2.202 2.202z" stroke="#0875BD"/><path d="M323.298 393.5h-8.596a2.202 2.202 0 0 1-2.202-2.202v-8.596c0-1.216.986-2.202 2.202-2.202h8.596c1.216 0 2.202.986 2.202 2.202v8.596a2.202 2.202 0 0 1-2.202 2.202" fill="#0875BD" fill-rule="nonzero"/><path d="M323.298 393.5h-8.596a2.202 2.202 0 0 1-2.202-2.202v-8.596c0-1.216.986-2.202 2.202-2.202h8.596c1.216 0 2.202.986 2.202 2.202v8.596a2.202 2.202 0 0 1-2.202 2.202z" stroke="#0875BD"/><path d="M419.298 393.5h-8.596a2.202 2.202 0 0 1-2.202-2.202v-8.596c0-1.216.986-2.202 2.202-2.202h8.596c1.216 0 2.202.986 2.202 2.202v8.596a2.202 2.202 0 0 1-2.202 2.202" fill="#0875BD" fill-rule="nonzero"/><path d="M419.298 393.5h-8.596a2.202 2.202 0 0 1-2.202-2.202v-8.596c0-1.216.986-2.202 2.202-2.202h8.596c1.216 0 2.202.986 2.202 2.202v8.596a2.202 2.202 0 0 1-2.202 2.202z" stroke="#0875BD"/><path d="M545.298 393.5h-8.596a2.202 2.202 0 0 1-2.202-2.202v-8.596c0-1.216.986-2.202 2.202-2.202h8.596c1.216 0 2.202.986 2.202 2.202v8.596a2.202 2.202 0 0 1-2.202 2.202" fill="#F9F9FB" fill-rule="nonzero"/><path d="M545.298 393.5h-8.596a2.202 2.202 0 0 1-2.202-2.202v-8.596c0-1.216.986-2.202 2.202-2.202h8.596c1.216 0 2.202.986 2.202 2.202v8.596a2.202 2.202 0 0 1-2.202 2.202z" stroke="#D4D6D8"/><path d="M287.5 389.5h-54a2 2 0 0 1 0-4h54a2 2 0 0 1 0 4" fill="#D4D6D8" fill-rule="nonzero"/><path d="M287.5 389.5h-54a2 2 0 0 1 0-4h54a2 2 0 0 1 0 4z" stroke="#F0F2F2"/><path d="M382.5 389.5h-48a2 2 0 0 1 0-4h48a2 2 0 0 1 0 4" fill="#D4D6D8" fill-rule="nonzero"/><path d="M382.5 389.5h-48a2 2 0 0 1 0-4h48a2 2 0 0 1 0 4z" stroke="#F0F2F2"/><path d="M500.5 389.5h-71a2 2 0 0 1 0-4h71a2 2 0 0 1 0 4" fill="#D4D6D8" fill-rule="nonzero"/><path d="M500.5 389.5h-71a2 2 0 0 1 0-4h71a2 2 0 0 1 0 4z" stroke="#F0F2F2"/><path d="M583.5 389.5h-25a2 2 0 0 1 0-4h25a2 2 0 0 1 0 4" fill="#D4D6D8" fill-rule="nonzero"/><path d="M583.5 389.5h-25a2 2 0 0 1 0-4h25a2 2 0 0 1 0 4z" stroke="#F0F2F2"/><path d="M720 30.5h-55a3.5 3.5 0 1 1 0-7h55a3.5 3.5 0 1 1 0 7" fill="#9A9CAA" fill-rule="nonzero"/><path d="M720 30.5h-55a3.5 3.5 0 1 1 0-7h55a3.5 3.5 0 1 1 0 7z" stroke="#9A9CAA"/><path d="M678.5 387.5h-27a2 2 0 0 1 0-4h27a2 2 0 0 1 0 4" fill="#9A9CAA" fill-rule="nonzero"/><path d="M678.5 387.5h-27a2 2 0 0 1 0-4h27a2 2 0 0 1 0 4z" stroke="#9A9CAA"/><path d="M676.5 377.5h-25a2 2 0 0 1 0-4h25a2 2 0 0 1 0 4" fill="#F0F2F2" fill-rule="nonzero"/><path fill="#606E74" fill-rule="nonzero" d="M712 384l-4 4-4-4z"/><path d="M737.298 393.5h-13.596a2.202 2.202 0 0 1-2.202-2.202v-13.596c0-1.216.986-2.202 2.202-2.202h13.596c1.216 0 2.202.986 2.202 2.202v13.596a2.202 2.202 0 0 1-2.202 2.202z" stroke="#D4D6D8"/><path fill="#606E74" fill-rule="nonzero" d="M735 384l-4.5 4-4.5-4zM726 389.5h9"/><path d="M726 389.5h9" stroke="#606E74"/><g transform="translate(0 .5)"><mask id="c" fill="#fff"><use xlink:href="#b"/></mask><path fill="#606E74" fill-rule="nonzero" mask="url(#c)" d="M728.5 384h4v-5h-4z"/></g><g transform="translate(0 .5)"><mask id="e" fill="#fff"><use xlink:href="#d"/></mask><path d="M46.5 209h-3a2 2 0 0 1-2-2v-3a2 2 0 0 1 2-2h3a2 2 0 0 1 2 2v3a2 2 0 0 1-2 2" fill="#9A9CAA" fill-rule="nonzero" mask="url(#e)"/></g><g transform="translate(0 .5)"><mask id="g" fill="#fff"><use xlink:href="#f"/></mask><path d="M46.5 209h-3a2 2 0 0 1-2-2v-3a2 2 0 0 1 2-2h3a2 2 0 0 1 2 2v3a2 2 0 0 1-2 2z" stroke="#9A9CAA" mask="url(#g)"/></g></g></g></svg>