<svg width="24" height="20" xmlns="http://www.w3.org/2000/svg"><g fill="#2E3696" fill-rule="nonzero"><path d="M23.87.689A.689.689 0 0 0 23.18 0h-2.065a.688.688 0 0 0-.511 1.15l.64.71-8.265 4.407-3.312-3.311a.689.689 0 0 0-.76-.145L.415 6.483a.689.689 0 0 0-.358.905c.149.345.56.508.905.359L9.025 4.26l3.341 3.342a.688.688 0 0 0 .81.12l9.016-4.808.477.53c.203.226.54.292.813.159a.694.694 0 0 0 .387-.62V.69z"/><path d="M23.535 4.688a.689.689 0 0 0-.678-.017L12.979 9.94 9.668 6.628a.689.689 0 0 0-.76-.145L.415 10.155a.688.688 0 0 0-.415.632v8.492c0 .38.308.689.689.689H23.18c.38 0 .688-.309.688-.689v-14a.689.689 0 0 0-.334-.59zM1.377 11.24L4.5 9.89v8.701H1.377v-7.35zm4.499-1.945l3.121-1.35v10.647H5.876V9.294zm4.498-.012l1.992 1.992a.688.688 0 0 0 .81.12l.32-.17v7.367h-3.122V9.282zm4.499 1.208l3.12-1.664v9.764h-3.12v-8.1zm7.62 8.1H19.37V8.091l3.121-1.665V18.59z"/></g></svg>