<svg width="225" height="163" xmlns="http://www.w3.org/2000/svg" xmlns:xlink="http://www.w3.org/1999/xlink"><defs><path d="M5.817 0h117.6c2.916 0 5.28 2.334 5.28 5.212v77.47c0 2.878-2.364 5.212-5.28 5.212H5.817c-2.916 0-5.28-2.334-5.28-5.213V5.212C.537 2.334 2.901 0 5.817 0z" id="a"/><path d="M5.817 0h117.6c2.916 0 5.28 2.334 5.28 5.212v77.47c0 2.878-2.364 5.212-5.28 5.212H5.817c-2.916 0-5.28-2.334-5.28-5.213V5.212C.537 2.334 2.901 0 5.817 0z" id="b"/><path d="M5.817 0h117.6c2.916 0 5.28 2.334 5.28 5.212v77.47c0 2.878-2.364 5.212-5.28 5.212H5.817c-2.916 0-5.28-2.334-5.28-5.213V5.212C.537 2.334 2.901 0 5.817 0z" id="d"/><path d="M5.817 0h117.6c2.916 0 5.28 2.334 5.28 5.212v77.47c0 2.878-2.364 5.212-5.28 5.212H5.817c-2.916 0-5.28-2.334-5.28-5.213V5.212C.537 2.334 2.901 0 5.817 0z" id="f"/><path d="M5.817 0h117.6c2.916 0 5.28 2.334 5.28 5.212v77.47c0 2.878-2.364 5.212-5.28 5.212H5.817c-2.916 0-5.28-2.334-5.28-5.213V5.212C.537 2.334 2.901 0 5.817 0z" id="h"/><path d="M5.817 0h117.6c2.916 0 5.28 2.334 5.28 5.212v77.47c0 2.878-2.364 5.212-5.28 5.212H5.817c-2.916 0-5.28-2.334-5.28-5.213V5.212C.537 2.334 2.901 0 5.817 0z" id="j"/></defs><g fill="none" fill-rule="evenodd"><path d="M82.925 36.75c-2.747-4.202-3.195-8.36-1.669-11.656 1.36-2.937 4.162-4.797 7.183-4.8 3.356-.004 6.57 2.217 8.82 6.646 2.416 4.756.386 10.688-5.868 18.006-3.795-2.602-6.611-5.36-8.466-8.196zm16.083.878c1.927-4.297 2.093-8.225.312-11.73-2.62-5.156-6.59-7.899-10.87-7.895-3.942.004-7.558 2.405-9.29 6.145-1.87 4.04-1.333 9.023 1.827 13.857 1.986 3.037 4.939 5.951 8.866 8.676a80.34 80.34 0 0 1-1.798 1.896c-3.844 3.927-8.71 8.176-14.816 13.017-4.827 3.827-9.782 7.543-17.847 13.45.339-.247-5.859 4.288-7.556 5.535-7.013 5.151-11.813 8.78-16.185 12.29-5.387 4.325-9.628 8.101-12.895 11.557-15.628 16.528-21.021 31.668-15.974 45.339a1.15 1.15 0 0 0 1.48.673c.598-.22.906-.88.687-1.473-4.697-12.721.396-27.02 15.484-42.976 3.184-3.368 7.35-7.078 12.662-11.343 4.34-3.484 9.118-7.096 16.106-12.229 1.696-1.246 7.89-5.779 7.554-5.532 8.087-5.924 13.06-9.654 17.917-13.505 6.176-4.896 11.11-9.206 15.033-13.212a81.71 81.71 0 0 0 2.086-2.209c2.833 1.781 6.104 3.473 9.813 5.054 28.783 12.27 57.54 13.193 86.205 2.76.6-.218.91-.876.694-1.47a1.15 1.15 0 0 0-1.476-.68c-28.107 10.23-56.254 9.327-84.502-2.716-3.477-1.482-6.54-3.055-9.196-4.7 2.574-3.04 4.472-5.887 5.679-8.58v.001z" stroke="#0875BE" fill="#0875BE" fill-rule="nonzero"/><path d="M219.098.994a1.208 1.208 0 0 1 1.633-.378l2.986 1.817c.55.335.71 1.048.36 1.591l-3.183 4.924-4.978-3.031 3.182-4.923z" fill="#9A9DAB" fill-rule="nonzero"/><path d="M221.338 8.622l-28.02 43.907a1.176 1.176 0 0 1-.368.365l-3.462 2.175c-.837.527-1.907-.135-1.79-1.104l.487-4.011c.021-.174.081-.339.175-.486L216.379 5.56l4.959 3.062z" fill="#E6E7E7" fill-rule="nonzero"/><g transform="rotate(9 -324.65 260.507)"><path d="M5.436 9.569l117.315-8.066c2.908-.2 5.431 1.966 5.636 4.838l5.495 77.28c.204 2.871-1.988 5.362-4.897 5.562L11.671 97.249c-2.909.2-5.432-1.966-5.636-4.838L.539 15.131c-.204-2.872 1.988-5.362 4.897-5.562z" fill="#141559" fill-rule="nonzero" opacity=".096"/><path d="M13.882.043h117.6c2.916 0 5.28 2.334 5.28 5.212v77.47c0 2.878-2.364 5.212-5.28 5.212h-117.6c-2.916 0-5.28-2.334-5.28-5.213V5.255c0-2.878 2.364-5.212 5.28-5.212z" fill="#26276D" fill-rule="nonzero"/><g transform="translate(8.065 .043)"><mask id="c" fill="#fff"><use xlink:href="#b"/></mask><path d="M13.3 7.368h97.868c1.784 0 3.23 1.46 3.23 3.26v66.637c0 1.8-1.446 3.26-3.23 3.26H13.3c-1.784 0-3.23-1.46-3.23-3.26V10.628c0-1.8 1.446-3.26 3.23-3.26z" fill="#F9FAFB" fill-rule="nonzero" mask="url(#c)"/></g><g transform="translate(8.065 .043)"><mask id="e" fill="#fff"><use xlink:href="#d"/></mask><path d="M114.398 44.21v33.051c0 1.798-1.494 3.264-3.32 3.264H13.397c-1.832 0-3.326-1.466-3.326-3.264V44.21h104.327z" fill="#E1E2F1" fill-rule="nonzero" mask="url(#e)"/></g><g transform="translate(8.065 .043)"><mask id="g" fill="#fff"><use xlink:href="#f"/></mask><path d="M4.266 35.789h.487c.304 0 .55 3.77.55 8.42s-.246 8.422-.55 8.422h-.487c-.304 0-.551-3.77-.551-8.421s.247-8.421.55-8.421h.001z" fill="#959ACB" fill-rule="nonzero" mask="url(#g)"/></g><g transform="translate(8.065 .043)"><mask id="i" fill="#fff"><use xlink:href="#h"/></mask><path d="M125.52 43.947c0 2.47-2.016 4.473-4.502 4.473-2.486 0-4.502-2.002-4.502-4.473 0-2.47 2.016-4.474 4.502-4.474 2.486 0 4.501 2.003 4.501 4.474h.001z" fill="#E1E2F1" fill-rule="nonzero" mask="url(#i)"/></g><g transform="translate(8.065 .043)"><mask id="k" fill="#fff"><use xlink:href="#j"/></mask><path d="M123.93 43.947a2.904 2.904 0 0 1-2.912 2.894 2.904 2.904 0 0 1-2.913-2.894 2.904 2.904 0 0 1 2.913-2.895 2.904 2.904 0 0 1 2.913 2.895h-.001z" fill="#26276D" fill-rule="nonzero" mask="url(#k)"/></g><g fill="#0875BE" fill-rule="nonzero"><path d="M55.794 68.857c-.448.217-.678.418-.745.566-.021.046-.017.079.028.151a.99.99 0 0 0 .499.372c.91-.311 1.812-.77 2.679-1.346-1.025-.128-1.837-.046-2.461.257zm.161 2.533c-.688.227-1.71-.31-2.162-1.036-.636-1.019-.141-2.116 1.335-2.832 1.167-.566 2.602-.598 4.381-.214l.33.075a17.679 17.679 0 0 0 4.037-5.196c1.74-3.416 1.735-6.326.02-7.333-4.333-2.546-7.976-1.468-11.225 3.393a.76.76 0 0 1-1.045.211.738.738 0 0 1-.214-1.03c3.671-5.491 8.19-6.828 13.255-3.853 4.007 2.353 1.62 9.64-3.15 14.283a64.27 64.27 0 0 1 3.115 1.127c2.805 1.066 3.946 1.451 5.243 1.692 1.582.294 2.657.13 3.34-.526a.761.761 0 0 1 1.066.016.737.737 0 0 1-.015 1.052c-1.104 1.057-2.655 1.294-4.67.92-1.422-.264-2.606-.664-5.506-1.766l-.268-.102c-1.618-.614-2.689-.993-3.615-1.255-1.308 1.045-2.747 1.878-4.252 2.374z"/><path d="M70.583 57.895a.75.75 0 0 1-.8-.695.747.747 0 0 1 .704-.79c2.578-.161 4.488.106 5.76.8 1.292.707 1.905 1.85 1.814 3.25-.149 2.271-2.178 5.196-5.268 7.937a.76.76 0 0 1-1.064-.056.737.737 0 0 1 .056-1.05c2.822-2.504 4.655-5.145 4.771-6.927.054-.834-.265-1.428-1.04-1.852-.974-.533-2.617-.762-4.933-.617z"/><path d="M84.001 55.939a.757.757 0 0 1 .987.398.74.74 0 0 1-.403.974c-3.003 1.243-4.974 2.503-5.946 3.69-.747.912-.833 1.668-.404 2.333.946 1.468 4.173 2.333 6.974 1.763a.754.754 0 0 1 .89.579.744.744 0 0 1-.586.878c-3.355.682-7.218-.353-8.55-2.422-.795-1.233-.632-2.68.503-4.066 1.156-1.412 3.323-2.797 6.535-4.127z"/></g><rect fill="#D4D7D9" fill-rule="nonzero" x="20.964" y="37.284" width="20.343" height="4.697" rx="2"/><rect fill="#2E3696" fill-rule="nonzero" x="93.723" y="36.951" width="26.446" height="4.697" rx="2"/><rect stroke="#E6E7E7" stroke-width="2" fill="#FFF" fill-rule="nonzero" x="33.305" y="21.093" width="33.261" height="6.051" rx="2"/><rect fill="#34495E" fill-rule="nonzero" x="31.912" y="12.193" width="23.733" height="2.684" rx="1.342"/><rect fill="#34495E" fill-rule="nonzero" x="59.328" y="12.516" width="8.137" height="2.684" rx="1.342"/><rect fill="#34495E" fill-rule="nonzero" x="23.669" y="11.54" width="5.425" height="5.368" rx="2.684"/></g></g></svg>