<svg data-name="Layer 1" xmlns="http://www.w3.org/2000/svg" viewBox="0 0 819.23 770.72"><defs><clipPath id="a"><path d="M31.31 71.33h152a14.18 14.18 0 0 1 14.17 14.18V568a8.17 8.17 0 0 1-8.17 8.17h-158zm208.68 0h166.15V562A14.16 14.16 0 0 1 392 576.17H240z" fill="none" clip-rule="evenodd"/></clipPath><linearGradient id="b" x1="201.05" y1="484.64" x2="246.02" y2="75.27" gradientUnits="userSpaceOnUse"><stop offset="0" stop-color="#3a49a0"/><stop offset="1" stop-color="#5758f7"/></linearGradient></defs><rect x="15.66" y="749.88" width="730.29" height="20.04" rx="10.02" fill="#26276d"/><rect x="556.14" y="121.09" width="263.09" height="26.73" rx="4.47" fill="#26276d"/><path d="M466.52 366.83c6.54 10.21 27 42.27 27.62 45.15.78 3.42 1.94 6.66-17.92 6.74s-19.67.12-19.67.12v8.77h82.78s13-1.77 5.64-17.59c-5.89-12.6-19.33-34.72-24.55-43.19z" fill="#d4d7d9" fill-rule="evenodd"/><path d="M466.52 366.83c6.54 10.21 27 42.27 27.62 45.15.78 3.42 1.94 6.66-17.92 6.74s-19.67.12-19.67.12v3.87h76.58s12.3 1.52 5.65-12.69-19.34-34.72-24.56-43.19z" fill="#9a9dab" fill-rule="evenodd"/><g clip-path="url(#a)"><path d="M31.31 576.17h374.83V85.51A14.17 14.17 0 0 0 392 71.33H31.31z" fill="url(#b)"/></g><path d="M406.14 145.78v42.31c-56.62.8-141.14 1.91-166.14 1.53v-1.68c22.67-3.23 90.59-10.42 90.59-10.42s-3.59-8.8 2.61-14 10.8-3.28 10.8-3.28 0-7.82 8.8-10.76a12.13 12.13 0 0 1 13.69 3.92c9.13-6.69 16.63 1 16.63 1s2.77-9.62 15.82-9.62a28.08 28.08 0 0 1 7.25 1M31.31 194.93a43.24 43.24 0 0 1 27.18-6.81c20.86 1.63 25.1 15 25.1 15s9.46-4.4 15.82-2.45a10.58 10.58 0 0 1 7.17 8.32s9-2.45 15 1.3a10.42 10.42 0 0 1 4.73 10.44s44.84 3.86 71.16 7v4.13c-37.46.44-122-.56-166.16-1.16z" fill="#9091f7" fill-rule="evenodd"/><path d="M197.47 381H31.31v190.44h166.16zm208.67 0v185.42H240V381z" fill="#5877b9" fill-rule="evenodd"/><path d="M197.47 439.4c-56.41-7.72-113.17-13.73-166.16-16.52v150.75h159.26a6.9 6.9 0 0 0 6.9-6.9zm208.67 35.24v85.15A14.17 14.17 0 0 1 392 574H240V445.53c58.5 8.86 115.45 19.15 166.14 29.11z" fill="#4349a1" fill-rule="evenodd"/><path fill="#7e5d3b" fill-rule="evenodd" d="M365.05 728.72l-1.5-8.51-21.71-164.53-51.63 4.21 48.89 164.85 1.08 5.06.42-.01.88 2.98 23.57-1.24-.37-2.8.37-.01z"/><path fill="#7d7f8b" d="M390.87 751.7l38.17-266.95h8.18L399.05 751.7h-8.18zM159 747.08l37.51-262.33h8.17l-37.63 263.47a4 4 0 0 1-4 3.48 4 4 0 0 1-4.05-4.62z"/><path d="M468.24 747.08l-37.51-262.33h-8.17l37.67 263.47a4 4 0 0 0 4 3.48 4 4 0 0 0 4.01-4.62zM694.83 749.44L657 484.75h-8.17L686.74 750a2 2 0 0 0 2 1.7h4.17a2 2 0 0 0 1.92-2.26z" fill="#9a9dab"/><path d="M238.51 71.33H240v504.84h-6.54a9.11 9.11 0 0 1-9.11-9.11V85.51a14.17 14.17 0 0 1 14.16-14.18z" fill="#26276d" fill-rule="evenodd"/><path d="M355.2 169h286.73a8.74 8.74 0 0 1 8.71 8.71v180.41a8.74 8.74 0 0 1-8.71 8.71H355.2a8.73 8.73 0 0 1-8.7-8.71V177.67a8.73 8.73 0 0 1 8.7-8.71" fill="#34495e" fill-rule="evenodd"/><path d="M650.64 338.13v20a8.74 8.74 0 0 1-8.71 8.71H355.2a8.73 8.73 0 0 1-8.7-8.71v-20z" fill="#d4d7d9" fill-rule="evenodd"/><path d="M359.81 177.46h273.3a4.44 4.44 0 0 1 4.37 4.5v156.17h-282V182a4.44 4.44 0 0 1 4.36-4.5" fill="#1abc9c" fill-rule="evenodd"/><path d="M641.93 169h4.36a8.73 8.73 0 0 1 8.7 8.71v180.41a8.73 8.73 0 0 1-8.7 8.71h-4.36a8.74 8.74 0 0 0 8.71-8.71V177.67a8.74 8.74 0 0 0-8.71-8.71" fill="#fff" fill-rule="evenodd"/><path d="M458.91 436.49H682V474a10.8 10.8 0 0 1-10.79 10.8h-212.3z" fill="#d4d7d9" fill-rule="evenodd"/><path d="M359.75 209.48a32.14 32.14 0 0 0-43.37 47.45z" fill="#2e3696"/><rect x="293.57" y="201.13" width="41.54" height="20.77" rx="7" transform="rotate(42.42 314.355 211.557)" fill="#2e3696"/><rect x="233.33" y="322.8" width="24.24" height="7.57" rx="3.33" fill="#2e3696"/><rect x="242" y="322.8" width="24.24" height="7.57" rx="3.33" fill="#2e3696"/><path fill="#2e3696" d="M277.82 410.42l-35.27-83.6 61.9-109.57 3.95 2.24-60.8 107.63 34.41 81.53-4.19 1.77z"/><path fill="#2e3696" d="M290.32 410.42l-35.28-83.6 61.9-109.57 3.96 2.24-60.8 107.63 34.41 81.53-4.19 1.77z"/><path d="M284.26 400.82h6.45a23.67 23.67 0 0 1 23.67 23.67v3.6H260.6v-3.6a23.67 23.67 0 0 1 23.66-23.67z" fill="#2e3696"/><circle cx="338.24" cy="233.01" r="13.29" fill="#2e3696"/><path d="M165.4 436.49h521.92a4.46 4.46 0 0 0 4.44-4.44 4.45 4.45 0 0 0-4.44-4.44H165.4a4.45 4.45 0 0 0-4.45 4.44 4.46 4.46 0 0 0 4.45 4.44" fill="#d4d7d9" fill-rule="evenodd"/><path d="M366.23 511.68c-11.14-4.79-38.92 37.62-38.92 37.62l-4.82 22.14-25.85 140.09 24.36 1.22 4.18-16.38L375 529.7a15.37 15.37 0 0 0-8.77-18.02z" fill="#a87c4e" fill-rule="evenodd"/><path d="M269.78 489.26c7.65.47 21.51 2 44.07 6.37a262.34 262.34 0 0 1 52.38 16.05c7 3-38.92 37.62-38.92 37.62H165.44l-3.32-50.41c-.29-2.61-.65-6.13-1-10.38z" fill="#606f74" fill-rule="evenodd"/><path d="M165.44 549.3h170.82a7.46 7.46 0 0 1 7.46 7.46 7.46 7.46 0 0 1-7.46 7.46H165.44z" fill="#2e3696" fill-rule="evenodd"/><path d="M165.44 549.3h90.35v14.92h-79.1A11.25 11.25 0 0 1 165.44 553zM241.8 564.22h25.56v23.08a5 5 0 0 1-5 5h-15.53a5 5 0 0 1-5-5z" fill="#26276d" fill-rule="evenodd"/><path fill="#26276d" d="M247.51 592.33h14.15v133.03h-14.15z"/><path fill="#9a9dab" d="M170.73 436.49h288.18v48.26H170.73z"/><rect x="226.16" y="443.72" width="152.32" height="32.99" rx="5.67" fill="#d4d7d9"/><path d="M272.27 257.05s-.82 7.84-1.74 17c-1 10.11 5 11.42-2.34 26.47-.47 1-5 12.78-10.47 12.79-13.37 0-36.09-2.09-39.05-16.73-4.22-20.92 4.52-48.77 4.52-48.77s47.18-5.17 49.08 9.23" fill="#a87c4e" fill-rule="evenodd"/><path d="M281.94 427.61h216.42a4.46 4.46 0 0 0 4.45-4.45 4.46 4.46 0 0 0-4.45-4.44H281.94a4.46 4.46 0 0 0-4.44 4.44 4.46 4.46 0 0 0 4.44 4.45" fill="#d4d7d9" fill-rule="evenodd"/><path d="M281.31 427.61H443.4c2.1 0 3.81-2 3.81-4.45s-1.71-4.44-3.81-4.44H281.31c-2.1 0-3.81 2-3.81 4.44s1.71 4.45 3.81 4.45" fill="#9a9dab" fill-rule="evenodd"/><path d="M408.73 202.26c-17.33 2.78-17.59 12.15-20.24 18.45a11 11 0 0 0 1.15 10.93s-7.19 3.14-8.58 11.09a24.25 24.25 0 0 0 1.53 15.78c3.81 7.78 3.14 19.05-.5 24.52s-7.46 25.68 13.75 30.48 54.51-4.64 54.51-4.64.79-3.89 1.59-8.88c14.47-7.09 8-25.08 8-25.08s8.95-4.14 7.95-11.59-7.28-14.58-2.48-19.06-.8-23.38-2.44-26.07c-5.76-9.47-23.52-28.55-37.85-19.19" fill="#a87c4e" fill-rule="evenodd"/><path d="M377.26 338.13c1.9-11.89 5.09-49.1 31.1-57.28s47.14 4.61 54.18 14.41 11.85 35.58 13.23 42.87z" fill="#0875be" fill-rule="evenodd"/><path d="M420.7 297.86c14.11 2 21.19-16.93 17.56-17.89a5.42 5.42 0 0 1-4-4.75L433 260.71l-14.39 2-1.35 12.14a5.42 5.42 0 0 1-4.17 4.7q-2.31.51-4.68 1.26c-1.55.51.76 15.4 12.29 17.05z" fill="#f0c9c0" fill-rule="evenodd"/><path d="M482.39 281.66l-1.63-3.12a71.1 71.1 0 0 0-2-8.43c-1.2-3.62-1.17-6.63-.2-6.73 1.68-.19 2.63 4 2.63 4s.12-6.19 0-10 3.22-5.9 4.43-5.36c5.68 2.54 7.14 27.09 5.51 30.61s-8.73-1-8.73-1" fill="#ffdad0" fill-rule="evenodd"/><path d="M478.42 280.52c-1.5 7.64-8.82 44.75-12.13 57.61h28.33l-1.28-55.51a3.16 3.16 0 0 0-3.06-3.09l-10.17-.35a1.66 1.66 0 0 0-1.69 1.34z" fill="#0875be" fill-rule="evenodd"/><rect x="508.44" y="183.99" width="121.91" height="147.81" rx="5.1" fill="#fff"/><path d="M524.19 192.91a7 7 0 1 1-6.78 7 6.88 6.88 0 0 1 6.78-7" fill="#606f74" fill-rule="evenodd"/><path d="M528.27 203.47a5.22 5.22 0 0 1-8.19 0 2.74 2.74 0 0 1 .39-.45 2.69 2.69 0 0 1 1.89-.72h.2a4 4 0 0 0 1.6.34 3.91 3.91 0 0 0 1.59-.34h.25a2.69 2.69 0 0 1 1.89.72 3.77 3.77 0 0 1 .42.49m-4.11-8.05a2.4 2.4 0 0 0-1.8.81 2.85 2.85 0 0 0 0 3.85 2.4 2.4 0 0 0 3.6 0 2.82 2.82 0 0 0 0-3.85 2.4 2.4 0 0 0-1.84-.85z" fill="#d4d7d9" fill-rule="evenodd"/><path d="M524.19 210.67a7 7 0 1 1-6.78 7 6.88 6.88 0 0 1 6.78-7" fill="#606f74" fill-rule="evenodd"/><path d="M528.27 221.24a5.24 5.24 0 0 1-8.19 0 3.28 3.28 0 0 1 .39-.46 2.69 2.69 0 0 1 1.89-.72h.2a4 4 0 0 0 1.6.34 3.91 3.91 0 0 0 1.59-.34h.25a2.69 2.69 0 0 1 1.89.72 3.28 3.28 0 0 1 .42.5m-4.11-8.06a2.4 2.4 0 0 0-1.8.81 2.85 2.85 0 0 0 0 3.85 2.41 2.41 0 0 0 3.6 0 2.82 2.82 0 0 0 0-3.85 2.4 2.4 0 0 0-1.84-.85z" fill="#d4d7d9" fill-rule="evenodd"/><path d="M613.44 236.43a7 7 0 1 1-6.78 7 6.88 6.88 0 0 1 6.78-7" fill="#1abc9c" fill-rule="evenodd"/><path d="M617.52 247a5.22 5.22 0 0 1-8.19 0 3.22 3.22 0 0 1 .39-.45 2.69 2.69 0 0 1 1.89-.72h.21a3.91 3.91 0 0 0 1.59.34 4 4 0 0 0 1.6-.34h.2a2.73 2.73 0 0 1 2.31 1.21m-4.11-8.05a2.4 2.4 0 0 0-1.8.81 2.85 2.85 0 0 0 0 3.85 2.4 2.4 0 0 0 3.6 0 2.82 2.82 0 0 0 0-3.85 2.4 2.4 0 0 0-1.8-.86z" fill="#fff" fill-rule="evenodd"/><path d="M524.19 261.54a7 7 0 1 1-6.78 7 6.87 6.87 0 0 1 6.78-7" fill="#606f74" fill-rule="evenodd"/><path d="M528.27 272.1a5.22 5.22 0 0 1-8.19 0 2.74 2.74 0 0 1 .39-.45 2.65 2.65 0 0 1 1.89-.73h.2a3.83 3.83 0 0 0 1.6.34 3.76 3.76 0 0 0 1.59-.34h.25a2.65 2.65 0 0 1 1.89.73 3.21 3.21 0 0 1 .42.49m-4.15-8.14a2.37 2.37 0 0 0-1.8.82 2.83 2.83 0 0 0 0 3.84 2.41 2.41 0 0 0 3.6 0 2.81 2.81 0 0 0 0-3.84 2.37 2.37 0 0 0-1.8-.82zM520.81 282.21H618a4.79 4.79 0 0 1 4.78 4.78v32.5a4.79 4.79 0 0 1-4.78 4.78h-97.19a4.79 4.79 0 0 1-4.78-4.78V287a4.79 4.79 0 0 1 4.78-4.78" fill="#d4d7d9" fill-rule="evenodd"/><path d="M496 343.44a9 9 0 1 1-8.79 9 8.91 8.91 0 0 1 8.79-9M489.4 480.92l41.73-18.58s3.59 24.77 11.41 33.9S554 506 554 506l-36.84 22.49s-13-8.15-20.21-19.56-7.5-28-7.5-28" fill="#fff" fill-rule="evenodd"/><path d="M29.84 71.33h1.47v504.84h-1.47A14.17 14.17 0 0 1 15.66 562V85.51a14.18 14.18 0 0 1 14.18-14.18z" fill="#26276d" fill-rule="evenodd"/><path d="M668.69 314.47s-17.93 21.84-29.34 27.06-17.94 5.21-17.94 5.21 10.76 9.46 20.54 14.35 30-12.22 40.76-23.64 13.53-17.6 13.53-17.6-13.85 5.54-27.55-5.38" fill="#fff" fill-rule="evenodd"/><path d="M696.24 319.85a32.48 32.48 0 0 0 1-6.61A10 10 0 0 0 696 308l-13.17 12.93a27.44 27.44 0 0 0 13.41-1" fill="#9a9dab" fill-rule="evenodd"/><rect x="581.07" y="386.36" width="106.62" height="23.8" rx="4.94" fill="#d4d7d9"/><path d="M585.84 386.36h46.94a6.65 6.65 0 0 1 6.65 6.64v10.52a6.64 6.64 0 0 1-6.65 6.64h-46.94a4.76 4.76 0 0 1-4.77-4.77v-14.26a4.77 4.77 0 0 1 4.77-4.77z" fill="#9a9dab" fill-rule="evenodd"/><rect x="592.48" y="410.16" width="106.62" height="8.72" rx="4.36" fill="#d4d7d9"/><rect x="592.48" y="410.16" width="58.36" height="8.72" rx="4.36" fill="#9a9dab"/><rect x="577.15" y="418.88" width="106.62" height="8.72" rx="4.36" fill="#d4d7d9"/><rect x="577.15" y="418.88" width="58.36" height="8.72" rx="4.36" fill="#9a9dab"/><path d="M413.19 226.85a3.23 3.23 0 0 1 5.08.09 33.75 33.75 0 0 0 8.39 7.45 34.75 34.75 0 0 0 14.83 5 4 4 0 0 1 3.37 4.85 44.4 44.4 0 0 1-6 14.95 30.65 30.65 0 0 1-19.59 13.17c-3.28.67-5.36-1.89-7.36-4.58-5.58-7.52-7.15-18.48-7.57-26.13-.22-4.84 5.96-11.29 8.85-14.8z" fill="#ffdad0" fill-rule="evenodd"/><path d="M546.61 427.61a21.84 21.84 0 0 0 9.55-18V403a5.34 5.34 0 0 0-5.34-5.34H517.9a5.34 5.34 0 0 0-5.34 5.34v6.61a21.83 21.83 0 0 0 9.54 18z" fill="#fff" fill-rule="evenodd"/><path d="M337.22 729.79s-.72 13.85 4.49 21.91H401a3 3 0 0 0 1.76-5.35 42.09 42.09 0 0 0-6.49-3.81c-8.22-4-19.51-10.43-24.32-13.19a10.36 10.36 0 0 0-5-1.39l-27-.43a2.7 2.7 0 0 0-2.71 2.26z" fill="#0c1d2a" fill-rule="evenodd"/><path d="M295.58 706.52l-1.31 4.76c-2.24 8.2-3.83 17 .85 24.05 4.3 6.51 12.19 13.65 14.58 15.79a2.25 2.25 0 0 0 1.49.58h40.91c-4-7.37-11.47-9.6-17.18-12.66-3.11-1.67-6.42-8.51-7.41-11.9l-4.65-15.44a5.09 5.09 0 0 0-2.4-3 39.34 39.34 0 0 0-21.92-4.59 3.3 3.3 0 0 0-2.96 2.41z" fill="#0c1d2a" fill-rule="evenodd"/><path d="M249.61 725.36h9.95a5.83 5.83 0 0 1 5.84 5.84v1.45l39.38 12.07a7.47 7.47 0 0 1 5.27 7H199.11a7.47 7.47 0 0 1 5.28-7l39.37-12.07v-1.45a5.84 5.84 0 0 1 5.85-5.84z" fill="#26276d" fill-rule="evenodd"/><path d="M184.62 338C155 374.83 158.2 454.77 161.11 488.51c0 0 16.07 13.45 56.41 13.45 19.84 0 38.38-6.68 47.08-10.35a8.3 8.3 0 0 0 5-7.8c-.15-7.24-3.29-18.31-3.29-34.53 0-35.46-4.82-105-4.82-105s-12.39-10.11-33.91-13.05a197.87 197.87 0 0 0-26.4-1.23 21.53 21.53 0 0 0-16.56 8z" fill="#f1f1f1" fill-rule="evenodd"/><path d="M178.36 354.57c27.35 0 50.26 23.42 54.94 47.93l28 146.8h-95.86l-28-146.8c-4.94-25.9 14.56-47.93 40.92-47.93" fill="#2e3696" fill-rule="evenodd"/><path d="M255.79 549.3h-90.35l-28-146.8a39.37 39.37 0 0 1 14.45-39.11 43.53 43.53 0 0 1 21.58-5.56c27.35 0 50.26 23.42 54.94 47.93z" fill="#26276d" fill-rule="evenodd"/><path d="M238.43 305.83v.14l-15.51-4.65-8.9 28.6c4.08.24 8.64.66 13.59 1.33a82.39 82.39 0 0 1 16.76 4.1l2.13-18.92a3.73 3.73 0 0 1 3.93-3.32c2.57.16-12-7.28-12-7.28z" fill="#a87c4e" fill-rule="evenodd"/><path d="M204.12 330.64l2.93-4.95a8.29 8.29 0 0 1 6-3.31c4.76-.35 13.08-.5 20.32 1.76a70.6 70.6 0 0 1 11.63 4.67 8.33 8.33 0 0 1 4.38 6l.46 3.75a81.15 81.15 0 0 0-22.22-6.3c-9.47-1.26-23.5-1.62-23.5-1.62z" fill="#f1f1f1" fill-rule="evenodd"/><path d="M247.52 304a23.56 23.56 0 0 1-6.52-.17s-3.59 8-13.21 5.71-8.23-7.17-8.23-7.17a16.06 16.06 0 0 1-12.07-5.22 10 10 0 0 1-1.58-11.74s-10.15-3.54-8.69-11.37 8.25-5.16 4.82-13.8-6.67-8.7-1.78-13.43 5.45-3.85 5.45-3.85-2.35-13.42 2.89-17.7a7 7 0 0 1 4.64-1.22c3.41.14 4.71.73 7.36.71a10.52 10.52 0 0 0 3.74-.5s1.07-2.49 2.32-4.73c4.07-5.7 12.72-.52 12.72-.52s6.6-7.75 14.43-5.3 5.95 9 5.95 9c7.73-4.39 16.64 3.77 15.24 11.61a13.46 13.46 0 0 1 9 7.41 8.51 8.51 0 0 1-2.12 10.11s2 1.06 2.45 5.06-6 4.32-6 4.32-3 6.6-8.56 6.84c-16.94.75-12.88 35.32-22.19 36" fill="#242349" fill-rule="evenodd"/><path d="M259.71 267.66c3.7 2.12 6.3 7.11 6.3 12.93 0 7.74-4.6 14-10.27 14s-10.27-6.28-10.27-14 4.55-13.95 10.19-14c.6-5.31 1.18-14.93-1.18-23.06a26 26 0 0 0-8.52-12.8 29.86 29.86 0 0 0-14.96-6.6 18.87 18.87 0 0 0-6.69.15 8.12 8.12 0 0 0-.86.24 15.36 15.36 0 0 1-2.87.26 19.85 19.85 0 0 1-3.53-.32 16 16 0 0 1 11.95-4.67c.81 0 1.65.1 2.55.21a34.09 34.09 0 0 1 17.06 7.5 30.11 30.11 0 0 1 9.87 14.86c2.63 9.09 1.89 19.79 1.23 25.3" fill="#2e3696" fill-rule="evenodd"/><path d="M258.43 270.2c4 0 7.2 4.39 7.2 9.82s-3.22 9.83-7.2 9.83-7.2-4.4-7.2-9.83 3.23-9.82 7.2-9.82" fill="#1abc9c" fill-rule="evenodd"/><path d="M34.11 652.86a14.16 14.16 0 0 0-14.17 14.37c.23 15.95 1.1 38.44 3.92 55.73a178.52 178.52 0 0 0 10.4 36.68 17.57 17.57 0 0 0 16.35 11.08h32.57a17.6 17.6 0 0 0 16.36-11.08 179.15 179.15 0 0 0 10.4-36.64c2.81-17.29 3.68-39.78 3.91-55.73a14.16 14.16 0 0 0-14.17-14.37H34.11zM.27 506.52C-2.89 535.86 22 560.2 51.69 553.43c3.16-29.34-21.77-53.67-51.42-46.91M66.9 485.6c-12.59-2-22.5-23.6-22.5-49.89s9.91-47.85 22.5-49.89c12.59 2 22.49 23.6 22.49 49.89s-9.9 47.85-22.49 49.89M133.52 542.41c3.17 29.35-21.76 53.68-51.42 46.92-3.16-29.35 21.77-53.68 51.42-46.92" fill="#26276d" fill-rule="evenodd"/><path fill="#26276d" d="M68.2 435.71v164.65l42.81-39.4 1.76 1.92L68.2 603.9v48.96h-2.61V568l-44.57-41.02 1.77-1.91 42.8 39.39V435.71h2.61z"/><rect x="535.67" y="196.63" width="67.32" height="6.52" rx="3.26" fill="#1cb7c8"/><rect x="535.67" y="214.93" width="47.84" height="6.52" rx="3.26" fill="#1cb7c8"/><rect x="553.52" y="240.15" width="47.84" height="6.52" rx="3.26" fill="#7547d8"/><rect x="535.67" y="265.37" width="47.84" height="6.52" rx="3.26" fill="#1cb7c8"/><path d="M406.75 410c-5.58-6.94-15-8.19-23.22-8.2a8.13 8.13 0 0 0-.82 0l-48.12.71c-4.72.07-9.44-1.87-13.58-4.15-6.69-3.68-17.73-12.56-26-20.59l-2.62-2.53a2 2 0 0 0-2.76 0 15.32 15.32 0 0 0-4.1 5.86c-1.67 4.29-10 24.34-7.24 26.89 10.59 5 24.33 14.78 31.1 16.1 15.95 3.09 65.08-5.64 78.22-8.08h.05c3 .19 9.73 2.79 11.25 2.79h10.87c1.59-.08-.25-5.39-3.03-8.8z" fill="#a87c4e"/><path d="M291.76 375a3 3 0 0 0-.05-4.29c-13.7-13.1-27.18-25.46-30.17-26.4-6.53-2.07-31.26 23.48-17.67 48.47 0 0 15.68 9.23 32.48 17.71a3 3 0 0 0 4.29-2c2.3-10.49 9.26-31.61 11.12-33.49z" fill="#f1f1f1"/><rect x="583.51" y="28.98" width="34.01" height="92.11" rx="3.92" fill="#4349a1"/><path fill="#4349a1" fill-rule="evenodd" d="M630.89 28.98h-9.09l8 92.11h9.1l-8.01-92.11z"/><path fill="#d4d7d9" d="M583.51 43.09h34.01v4.89h-34.01zM583.51 105.48h34.01v4.89h-34.01z"/><path d="M731.6 77.5l3.95-4a43.91 43.91 0 1 0 62.11-62.1l4-3.95a49.5 49.5 0 0 1-70 70z" fill="#4349a1"/><rect x="763.02" y="-16.33" width="6.65" height="118.19" rx="3.33" transform="rotate(45 766.339 42.758)" fill="#26276d"/><circle cx="766.6" cy="42.5" r="40.3" fill="#5877b9"/><path d="M769.83 87.44a3 3 0 0 1 3 3v23.13h-5.9V90.4a3 3 0 0 1 2.9-2.96z" fill="#4349a1"/><path d="M791.72 121.88a2 2 0 0 0 2-2.41 24.28 24.28 0 0 0-47.69 0 2 2 0 0 0 2 2.41z" fill="#26276d"/><path d="M655 116h98.67a5.11 5.11 0 0 1-5.11 5.11H660.1A5.11 5.11 0 0 1 655 116zM660.1 89.93h88.45a5.11 5.11 0 0 1 5.11 5.07H655a5.11 5.11 0 0 1 5.1-5.07z" fill="#4349a1"/><path fill="#d4d7d9" d="M654.99 95.04h98.67v21h-98.67z"/><rect x="660.66" y="104.04" width="87.33" height="3" rx="1.5" fill="#fff"/><rect x="660.66" y="109.67" width="87.33" height="3" rx="1.5" fill="#fff"/><rect x="660.66" y="98.41" width="87.33" height="3" rx="1.5" fill="#fff"/><path d="M670.41 125.12l-2-1.33a1 1 0 0 0-1.12 0l-2 1.33a1 1 0 0 1-1.57-.84v-13.6a1 1 0 0 1 1-1H671a1 1 0 0 1 1 1v13.6a1 1 0 0 1-1.59.84z" fill="#fd7b33"/><path fill="#fdc352" d="M686.44 137.98h46v33.5h-46z"/><rect x="692.44" y="145.23" width="34.5" height="1.87" rx=".94" fill="#2e3696"/><rect x="692.44" y="151.77" width="34.5" height="1.87" rx=".94" fill="#2e3696"/><rect x="692.44" y="158.32" width="17.47" height="1.87" rx=".94" fill="#2e3696"/><path d="M584.33 587.45h6.13a13 13 0 0 1 13 13v58.7h-32.18V600.5a13 13 0 0 1 13.05-13.05zM682.65 587.45h6.13a13 13 0 0 1 13 13v58.7H669.6V600.5a13 13 0 0 1 13.05-13.05z" fill="#0b5f4d"/><path d="M636.55 619.47a23 23 0 0 1-23-23v-9a23 23 0 0 1 46 0v9a23 23 0 0 1-23 23zm0-48.35a16.35 16.35 0 0 0-16.33 16.33v9a16.33 16.33 0 1 0 32.66 0v-9a16.35 16.35 0 0 0-16.33-16.33z" fill="#5758f7"/><path d="M636.55 587.45a71.86 71.86 0 0 1 71.86 71.86v88.11a22.5 22.5 0 0 1-22.5 22.5h-98.73a22.5 22.5 0 0 1-22.5-22.5v-88.1a71.86 71.86 0 0 1 71.87-71.87z" fill="#0b5f4d"/><rect x="575.91" y="608.96" width="121.27" height="136.96" rx="45.23" fill="#40b261"/><path d="M666 750.51h-59c-7.09 10.48-12.83 3.27-12.83-5.63v-19.49c0-11.06 7.14-20 15.94-20h52.74c8.8 0 15.94 9 15.94 20v19.49c.07 8.9-5.67 16.12-12.79 5.63z" fill="#0b5f4d"/><path d="M614.74 705.36h43.61a18 18 0 0 1 18 18v9.18A14.48 14.48 0 0 1 661.88 747h-50.66a14.48 14.48 0 0 1-14.48-14.48v-9.18a18 18 0 0 1 18-17.98z" fill="#5758f7"/><rect x="601.31" y="703.56" width="54.33" height="4.73" rx="2.37" fill="#2e3696"/><path fill="#5758f7" d="M604.1 705.64h48.75v.58H604.1z"/><path d="M611 716.23h-1.45a2 2 0 0 1-2-2.22l.73-6.45a2 2 0 0 1 2-1.78 2 2 0 0 1 2 1.78L613 714a2 2 0 0 1-2 2.23z" fill="#fff"/></svg>