<svg width="136" height="36" xmlns="http://www.w3.org/2000/svg" xmlns:xlink="http://www.w3.org/1999/xlink"><defs><path id="a" d="M.86.389h5.696v6.665H.86z"/><path id="c" d="M0 24.611h73.816V1.001H0z"/></defs><g fill="none" fill-rule="evenodd"><rect fill="#0E131F" width="136" height="36" rx="8"/><g transform="translate(44 6)"><g transform="translate(0 .611)"><mask id="b" fill="#fff"><use xlink:href="#a"/></mask><path d="M3.138 6.315c1.62 0 2.56-1.16 2.56-2.589 0-1.439-.91-2.598-2.56-2.598H1.69v5.187h1.45zM.86.388h2.278c2.07 0 3.418 1.45 3.418 3.338 0 1.9-1.349 3.328-3.418 3.328H.86V.388z" fill="#E2E2E2" mask="url(#b)"/></g><path d="M11.477 5.247c0-.979-.57-1.858-1.598-1.858-1.03 0-1.61.879-1.61 1.858 0 .989.58 1.869 1.61 1.869 1.029 0 1.598-.88 1.598-1.869m-3.988 0c0-1.399.92-2.528 2.39-2.528 1.469 0 2.389 1.129 2.389 2.528s-.92 2.539-2.39 2.539c-1.469 0-2.389-1.14-2.389-2.539M16.348 3.788l-1.26 3.878h-.75L12.8 2.84h.779l1.18 3.847 1.269-3.847h.64l1.269 3.847 1.18-3.847h.779l-1.54 4.827h-.75zM23.967 4.508c0-.85-.43-1.12-1.08-1.12-.589 0-1.149.36-1.429.75v3.528h-.749V2.839h.75v.699c.34-.4 1-.82 1.718-.82 1.01 0 1.54.51 1.54 1.56v3.388h-.75V4.508z" fill="#E2E2E2"/><mask id="d" fill="#fff"><use xlink:href="#c"/></mask><path fill="#E2E2E2" mask="url(#d)" d="M26.159 7.666h.75V1h-.75zM32.057 5.247c0-.979-.57-1.858-1.599-1.858s-1.609.879-1.609 1.858c0 .989.58 1.869 1.61 1.869 1.028 0 1.598-.88 1.598-1.869m-3.988 0c0-1.399.92-2.528 2.39-2.528 1.468 0 2.388 1.129 2.388 2.528s-.92 2.539-2.389 2.539c-1.469 0-2.389-1.14-2.389-2.539M37.027 5.737c-.29-.4-.8-.6-1.33-.6-.699 0-1.189.44-1.189 1.06 0 .61.49 1.05 1.19 1.05.53 0 1.04-.2 1.33-.6v-.91zm0 1.38c-.4.438-.95.67-1.599.67-.82 0-1.689-.55-1.689-1.6 0-1.08.87-1.59 1.69-1.59.66 0 1.208.21 1.598.661v-.87c0-.65-.52-1.02-1.219-1.02-.58 0-1.05.21-1.48.67l-.349-.52c.52-.54 1.14-.8 1.928-.8 1.02 0 1.87.46 1.87 1.63v3.318h-.75v-.55zM42.717 4.168c-.27-.42-.85-.78-1.45-.78-.968 0-1.548.8-1.548 1.87 0 1.069.58 1.858 1.549 1.858.599 0 1.179-.34 1.449-.76V4.168zm0 2.778c-.36.49-.95.84-1.63.84-1.258 0-2.148-.96-2.148-2.528 0-1.54.88-2.54 2.149-2.54.65 0 1.239.32 1.629.85V1h.75v6.666h-.75v-.72zM51.137 5.247c0-.979-.57-1.858-1.6-1.858-1.028 0-1.608.879-1.608 1.858 0 .989.58 1.869 1.609 1.869s1.599-.88 1.599-1.869m-3.988 0c0-1.399.92-2.528 2.389-2.528 1.469 0 2.389 1.129 2.389 2.528s-.92 2.539-2.39 2.539c-1.468 0-2.388-1.14-2.388-2.539M56.347 4.508c0-.85-.43-1.12-1.08-1.12-.59 0-1.15.36-1.43.75v3.528h-.748V2.839h.749v.699c.34-.4 1-.82 1.719-.82 1.01 0 1.54.51 1.54 1.56v3.388h-.75V4.508zM61.208 6.656V3.498h-.799V2.84h.799V1.52h.75v1.32h.979v.66h-.979v2.998c0 .36.16.62.489.62.21 0 .41-.09.51-.2l.22.56c-.19.18-.46.31-.9.31-.709 0-1.069-.41-1.069-1.13M67.207 4.487c0-.849-.44-1.099-1.09-1.099-.58 0-1.14.36-1.43.75v3.528h-.748V1h.748v2.538c.34-.4 1-.82 1.73-.82 1.01 0 1.54.49 1.54 1.54v3.408h-.75V4.487zM69.908 4.947h3.168c-.01-.72-.489-1.608-1.589-1.608-1.029 0-1.539.87-1.579 1.608m1.59-2.229c1.458 0 2.318 1.14 2.318 2.59v.19h-3.908c.06.908.7 1.668 1.74 1.668.55 0 1.11-.22 1.488-.61l.36.49c-.48.48-1.13.74-1.919.74-1.429 0-2.459-1.029-2.459-2.539 0-1.4 1-2.529 2.38-2.529M3.777 17.856h3.538l-1.76-4.897-1.778 4.897zm4.162 1.97H3.17l-.672 1.84H0L4.13 10.99h2.85l4.112 10.677h-2.48l-.673-1.84zM15.89 15.552c-.656 0-1.409.384-1.745.88v2.737c.336.48 1.09.88 1.745.88 1.168 0 1.953-.912 1.953-2.257 0-1.328-.785-2.24-1.953-2.24zm-3.778 9.06V13.935h2.033v.976a2.987 2.987 0 0 1 2.385-1.168c1.985 0 3.425 1.473 3.425 4.049 0 2.577-1.44 4.067-3.425 4.067-.912 0-1.76-.385-2.385-1.185v3.938h-2.033zM25.33 15.552c-.656 0-1.409.384-1.745.88v2.737c.336.48 1.09.88 1.745.88 1.168 0 1.953-.912 1.953-2.257 0-1.328-.785-2.24-1.953-2.24zm-3.778 9.06V13.935h2.033v.976a2.987 2.987 0 0 1 2.385-1.168c1.985 0 3.425 1.473 3.425 4.049 0 2.577-1.44 4.067-3.425 4.067-.912 0-1.76-.385-2.385-1.185v3.938h-2.033zM35.728 18.433a4.68 4.68 0 0 0 3.393 1.44c1.25 0 1.857-.591 1.857-1.2 0-.801-.928-1.072-2.16-1.36-1.745-.401-3.985-.881-3.985-3.266 0-1.776 1.535-3.217 4.049-3.217 1.697 0 3.105.512 4.162 1.489l-1.265 1.664c-.865-.8-2.018-1.168-3.058-1.168-1.023 0-1.568.448-1.568 1.089 0 .719.897.944 2.129 1.232 1.76.4 4.002.928 4.002 3.297 0 1.953-1.393 3.426-4.274 3.426-2.05 0-3.521-.69-4.53-1.697l1.248-1.73zM45.072 19.745v-4.033h-1.28v-1.778h1.28v-2.112h2.05v2.112h1.567v1.778h-1.568v3.49c0 .48.256.848.704.848.304 0 .592-.113.704-.225l.433 1.537c-.305.272-.849.496-1.697.496-1.425 0-2.193-.736-2.193-2.113M55.73 17.792c0-1.2-.72-2.24-1.984-2.24-1.265 0-1.97 1.04-1.97 2.24 0 1.217.705 2.258 1.97 2.258 1.264 0 1.984-1.041 1.984-2.258m-6.066 0c0-2.192 1.536-4.049 4.081-4.049 2.562 0 4.099 1.857 4.099 4.049 0 2.209-1.538 4.066-4.099 4.066-2.544 0-4.08-1.857-4.08-4.066M59.424 13.934h2.033v1.058c.544-.69 1.505-1.234 2.465-1.234v1.986a2.699 2.699 0 0 0-.56-.049c-.672 0-1.57.369-1.905.864v5.107h-2.033v-7.732zM66.864 17.072h3.81c-.048-.736-.56-1.713-1.905-1.713-1.264 0-1.809.944-1.905 1.713m1.905-3.329c2.305 0 3.873 1.728 3.873 4.258v.447h-5.746c.128.977.912 1.793 2.225 1.793.721 0 1.57-.288 2.065-.769l.896 1.314c-.784.72-1.985 1.072-3.185 1.072-2.353 0-4.13-1.585-4.13-4.066 0-2.24 1.65-4.049 4.002-4.049"/></g><path d="M33.623 23.609c-.563 1.249-.834 1.807-1.557 2.91-1.013 1.54-2.442 3.465-4.207 3.477-1.571.014-1.977-1.025-4.11-1.007-2.132.01-2.576 1.027-4.15 1.011-1.767-.016-3.118-1.749-4.13-3.287-2.834-4.315-3.133-9.373-1.383-12.064 1.24-1.907 3.198-3.028 5.038-3.028 1.875 0 3.053 1.03 4.602 1.03 1.504 0 2.42-1.032 4.588-1.032 1.638 0 3.37.893 4.61 2.433-4.052 2.222-3.393 8.008.699 9.557zM26.667 9.897c.789-1.013 1.388-2.442 1.17-3.897-1.286.088-2.79.909-3.669 1.973-.796.97-1.457 2.409-1.2 3.8 1.404.046 2.857-.792 3.7-1.876z" fill="#E3E3E3" fill-rule="nonzero"/></g></svg>