<svg width="142" height="36" xmlns="http://www.w3.org/2000/svg" xmlns:xlink="http://www.w3.org/1999/xlink"><defs><path id="a" d="M0 17h79V0H0z"/></defs><g fill="none" fill-rule="evenodd"><rect fill="#0E131F" width="142" height="36" rx="8"/><text font-family="ProximaNova-Regular, Proxima Nova" font-size="10" fill="#E3E3E3"><tspan x="49" y="11">Get it on</tspan></text><g fill-rule="nonzero"><path d="M14.488 6.026c-.285.063-.488.279-.488.647v22.781c0 .267.136.448.347.513L28.361 17.93 14.488 6.026z" fill="#4DB6AC"/><path d="M32.221 14.616l-5.77-2.878S15.864 6.457 15.242 6.145c-.268-.133-.534-.168-.754-.12L28.364 17.93l3.857-3.314z" fill="#DCE775"/><path d="M14.985 29.88l17.266-8.613-3.89-3.337-14.014 12.037c.171.056.394.035.638-.087z" fill="#D32F2F"/><path d="M37.888 17.442c-.554-.258-5.626-2.805-5.626-2.805l-.041-.021-3.86 3.314 3.89 3.337 5.596-2.791c.657-.328.594-.776.04-1.034z" fill="#FBC02D"/></g><g transform="translate(49 15)"><path d="M56.525 4.965c-.812 0-1.4.212-1.763.636-.362.424-.549 1.099-.558 2.025v.253c0 1.053.186 1.807.558 2.261.373.454.97.68 1.792.68.687 0 1.225-.262 1.615-.786.389-.524.583-1.247.583-2.169 0-.935-.194-1.652-.583-2.151-.39-.5-.938-.75-1.644-.75m.174 6.807c-.518 0-.99-.09-1.418-.27a2.644 2.644 0 0 1-1.077-.83h-.087c.058.437.087.852.087 1.244V15H53V4.137h.979l.167 1.026h.058c.31-.41.67-.707 1.08-.89.412-.182.884-.273 1.415-.273 1.055 0 1.868.34 2.441 1.02.573.679.86 1.632.86 2.859 0 1.231-.291 2.188-.874 2.87-.583.682-1.391 1.022-2.427 1.022" fill="#E3E3E3"/><mask id="b" fill="#fff"><use xlink:href="#a"/></mask><path fill="#E3E3E3" mask="url(#b)" d="M62 12h1V1h-1zM67.601 11.034c.705 0 1.259-.2 1.662-.6.402-.4.604-.96.604-1.68v-.698l-1.134.05c-.9.033-1.55.177-1.948.434-.398.256-.597.655-.597 1.196 0 .423.123.745.372.966.248.221.594.332 1.041.332zm2.56.825l-.226-1.1h-.055c-.373.484-.745.812-1.116.984-.37.172-.834.257-1.388.257-.742 0-1.323-.198-1.745-.592-.42-.396-.631-.957-.631-1.686 0-1.562 1.208-2.38 3.624-2.456l1.27-.042v-.48c0-.606-.126-1.055-.379-1.343-.252-.29-.656-.434-1.211-.434-.624 0-1.33.197-2.116.592l-.349-.896c.37-.207.773-.369 1.212-.487.44-.117.88-.176 1.321-.176.892 0 1.553.204 1.983.614.43.41.645 1.065.645 1.968v5.277h-.84zM72 4h1.212l1.634 4.33c.358.988.581 1.701.668 2.14h.054c.06-.236.183-.638.371-1.21.188-.57.805-2.323 1.849-5.26H79l-3.207 8.645c-.318.854-.69 1.46-1.114 1.819-.424.357-.945.536-1.562.536-.346 0-.686-.04-1.022-.118v-.92c.25.055.529.083.838.083.776 0 1.33-.444 1.661-1.33l.415-1.081L72 4zM34.307 9.567c.368-.363.4-.866.4-1.15 0-1.133-.69-2.897-2.02-2.897-.417 0-.866.204-1.122.52-.272.33-.353.755-.353 1.165 0 1.055.625 2.803 2.005 2.803.4 0 .832-.189 1.09-.441zm-.465 2.993c-.128-.017-.209-.017-.369-.017-.144 0-1.01.032-1.683.253-.353.125-1.38.503-1.38 1.622 0 1.117 1.107 1.922 2.823 1.922 1.538 0 2.357-.726 2.357-1.702 0-.804-.53-1.228-1.748-2.078zm1.138-6.993c.369.3 1.138.929 1.138 2.126 0 1.165-.673 1.717-1.347 2.236-.208.204-.449.426-.449.773 0 .345.24.535.418.677l.577.44c.706.582 1.346 1.118 1.346 2.205 0 1.48-1.459 2.976-4.216 2.976C30.122 17 29 15.914 29 14.748c0-.567.287-1.37 1.234-1.922.994-.598 2.342-.676 3.063-.724-.226-.283-.481-.583-.481-1.07 0-.267.08-.425.16-.615a5.892 5.892 0 0 1-.514.032c-1.699 0-2.66-1.245-2.66-2.472 0-.725.336-1.528 1.025-2.11.914-.74 2.004-.867 2.87-.867H37l-1.026.567h-.994zM26.927 10.648c.386-.535.483-1.203.483-1.855 0-1.47-.675-4.276-2.667-4.276-.53 0-1.06.218-1.445.57-.627.583-.74 1.318-.74 2.037 0 1.652.787 4.374 2.731 4.374.627 0 1.27-.317 1.638-.85M24.92 12C22.366 12 21 9.929 21 8.058 21 5.87 22.719 4 25.162 4 27.522 4 29 5.92 29 7.942 29 9.912 27.539 12 24.92 12M17.928 10.648c.385-.535.482-1.203.482-1.855 0-1.47-.675-4.276-2.667-4.276-.53 0-1.06.218-1.446.57-.626.583-.738 1.318-.738 2.037 0 1.652.786 4.374 2.73 4.374.627 0 1.27-.317 1.639-.85M15.92 12C13.366 12 12 9.929 12 8.058 12 5.87 13.72 4 16.161 4 18.522 4 20 5.92 20 7.942 20 9.912 18.539 12 15.92 12M11.373 12.185l-2.36.539c-.958.147-1.816.276-2.724.276C1.733 13 0 9.69 0 7.097 0 3.934 2.46 1 6.67 1c.89 0 1.748.13 2.524.342 1.238.343 1.816.766 2.18 1.011l-1.371 1.288-.578.13.413-.652c-.561-.538-1.585-1.532-3.532-1.532-2.609 0-4.573 1.957-4.573 4.81 0 3.065 2.245 5.951 5.843 5.951 1.057 0 1.601-.212 2.097-.408V9.316l-2.493.13 1.32-.702H12l-.429.407c-.116.099-.132.132-.165.26-.017.148-.033.621-.033.784v1.99zM40.225 11.542c-.501-.051-.606-.152-.606-.816V1.112l.008-.11c.062-.594.213-.696.684-1.002H38.14L37 .612h1.16V.62.613 11.1c0 .34-.06.391-.41.9h2.688l.562-.372c-.258-.036-.516-.052-.775-.086M45.539 6.427c.317-.116.485-.216.485-.448 0-.665-.754-1.43-1.658-1.43-.671 0-1.926.515-1.926 2.311 0 .283.033.582.05.882l3.049-1.315zm1.573 4.957c-.184.1-.368.217-.551.3-.554.25-1.123.316-1.627.316-.534 0-1.372-.034-2.227-.649C41.52 10.519 41 9.088 41 7.841 41 5.264 43.11 4 44.835 4c.603 0 1.223.15 1.726.466.836.548 1.054 1.263 1.17 1.645l-3.934 1.581-1.29.1c.418 2.112 1.859 3.342 3.45 3.342.854 0 1.474-.299 2.043-.581l-.888.831zM48.578 4.094V5h-.155v-.906H48V4h1v.094zM50.884 5v-.914h-.006L50.551 5h-.1l-.33-.914h-.004V5H50V4h.2l.299.808h.004L50.797 4H51v1z"/></g></g></svg>