<svg width="547" height="310" xmlns="http://www.w3.org/2000/svg"><g fill="none" fill-rule="evenodd"><g transform="translate(0 -4)"><rect fill="#D4D7D9" x=".875" y="281.557" width="401.696" height="8.969" rx="4.485"/><g stroke="#979797"><path d="M438.936 250.409l-10.7-45.647 10.7 45.647-10.7 47.798 10.7-47.798zm0 0l11.615 49.541-11.615-49.541 10.22-45.647-10.22 45.647zm-31.621 47.798l20.92-93.445-20.92 93.445zm41.84-93.445l22.316 95.188-22.315-95.188z" stroke-width="5" stroke-linecap="round" stroke-linejoin="round"/><path d="M411.15 287.747h17.085M414.288 274.497h17.085M417.775 261.945h17.085M419.17 248.695h17.085M421.862 236.143h12.3M425.209 222.893h5.467M449.504 287.747h17.086M446.366 274.497h17.085M443.577 261.945h17.085M440.09 248.695h17.085M442.782 236.143h12.301" stroke-width="2" stroke-linecap="square"/><path d="M431.373 210.34h14.993" stroke-width="5" stroke-linecap="square"/><path d="M446.13 222.893h5.467M434.358 222.893h9.568" stroke-width="2" stroke-linecap="square"/></g><g transform="translate(417.365 120.248)"><rect fill="#767986" x="8.367" y="24.129" width="34.637" height="8.951" rx="3"/><path d="M25.491 40.085a13.19 13.19 0 0 0 9.356-3.876c2.113-2.112 3.515-1.827 3.815-4.972.04-.42.06-3.954.06-4.384 0-7.308-5.923-13.232-13.231-13.232s-13.232 5.924-13.232 13.232c0 .278.009 3.664.026 3.937.427 6.922 6.176 9.295 13.206 9.295z" fill="#ECEDEF"/><rect fill="#FFF" opacity=".563" x="12.648" y="29.966" width="21.405" height="1" rx=".5"/><rect fill="#D0D7DD" x="11.481" y="29.188" width="28.021" height="11.675" rx="2"/><rect fill="#D0D7DD" x=".195" y="50.204" width="6.616" height="8.951" rx="3.308"/><rect fill="#D0D7DD" x="36.388" y="71.608" width="7.394" height="6.616" rx="3.308"/><rect fill="#D0D7DD" x="36.388" y="69.662" width="7.394" height="4.281" rx="2.14"/><path d="M13.187 42.42c-3.682.98-5.523 3.917-5.523 8.814 0 1.65-.315 4.098-1.105 4.407-.312.122.4-.972 0-1.351-.423-.4-1.96-.09-2.21 0-1.58.564-2.209 1.241-2.209 4.289 0 1.469 4.892 8.999 8.101 7.345 2.666-1.374 3.622-9.956 4.675-13.956 1.547-5.875.97-9.058-1.73-9.548zM38.25 41.642c2.734.976 4.419 2.684 5.055 5.124.62 2.375.636 9.836.05 22.382-.03.63-.437 1.18-1.031 1.393l-5.158 1.846 1.084-30.745z" fill="#ECEDEF"/><path d="M13.427 69.273h24.128c1.036 5.903 1.69 10.314 1.962 13.232.272 2.918.272 5.513 0 7.784h-27.88c-.3-.388-.3-2.333 0-5.838.298-3.505.895-8.564 1.79-15.178z" fill="#ECEDEF"/><path d="M41.836 52.15h1.946a.39.39 0 0 1 .39.389v3.502a.39.39 0 0 1-.39.39h-1.946a.39.39 0 0 1-.389-.39V52.54a.39.39 0 0 1 .39-.39zM7.2 49.036h1.946a.39.39 0 0 1 .389.39v3.502a.39.39 0 0 1-.39.389H7.2a.39.39 0 0 1-.39-.39v-3.502a.39.39 0 0 1 .39-.389z" fill="#E74C3C"/><rect fill="#D0D7DD" x="11.481" y="40.863" width="28.021" height="37.361" rx="2"/><rect fill="#FFF" opacity=".563" x="20.821" y="29.966" width="16.735" height="1" rx=".5"/><path d="M11.48 38.528h28.021v1.557c0 .43-.348.778-.778.778H12.259a.778.778 0 0 1-.778-.778v-1.557z" fill="#9A9DAB" opacity=".329"/><rect fill="#9A9DAB" x="19.653" y="32.302" width="11.675" height="4.281" rx="1"/><path d="M20.383 45.469v2.854h10.216v-2.854H20.383zm0-.714h10.216c.403 0 .73.32.73.714v2.854a.722.722 0 0 1-.73.713H20.383a.722.722 0 0 1-.73-.713v-2.854c0-.394.327-.714.73-.714z" fill="#BEC4CC" fill-rule="nonzero"/><path d="M11.48 69.273h28.021v8.173c0 .43-.348.778-.778.778H12.259a.778.778 0 0 1-.778-.778v-8.173z" fill="#9A9DAB" opacity=".329"/><path fill="#767986" d="M33.274 1.557h1v27.631h-1z"/><circle fill="#E74C3C" cx="33.664" cy="1.557" r="1.557"/><ellipse fill="#FFF" opacity=".133" transform="rotate(-25 20.432 18.875)" cx="20.432" cy="18.875" rx="4.67" ry="2.53"/><ellipse fill="#FFF" opacity=".129" transform="rotate(-25 14.983 22.961)" cx="14.983" cy="22.961" rx="1.168" ry="1"/><path fill="#9A9DAB" opacity=".272" d="M17.318 69.273h-.778v-28.41h.778z"/><path fill="#FFF" opacity=".272" d="M18.875 69.273h-1.557v-28.41h1.557z"/><path fill="#9A9DAB" opacity=".272" d="M33.664 69.273h-.779v-28.41h.779z"/><g stroke="#D0D7DD" stroke-width="2"><path d="M21.988 84.019h7.802" stroke-linecap="round"/><path d="M25.703 84.386v5.306" stroke-linecap="square"/></g></g><path stroke="#1ABC9C" stroke-width="3" d="M418.297 172.736l-4.085-.868-3.135-.667-1.667-.354-1.04-.221-.377-.08-.11-.024.103.022M458.558 198.587c1.17 31.982 3.306 69.233 31.798 91.152 13.396 10.304 15.543 11.653 20.306 13.879 6.568 3.07 14.92 4.937 35.776 8.32"/><path d="M406.236 170.2l-1.781-.448M399.642 170.012l-1.413.31M393.57 171.902l-1.782.941M387.57 177.49l-1.414 1.324" stroke="#00A6CE" stroke-width="2" stroke-linecap="round"/><path d="M383.72 183.524l-.69 1.81.69-1.81zM381.408 192.46l-.064 1.936.064-1.935zM381.408 202.46l-.064 1.936.064-1.935z" stroke="#00A6CE" stroke-width="2" stroke-linecap="round" stroke-linejoin="round"/><path d="M83.87 124.516v124.649c0 18.12 14.547 32.686 32.667 32.914H247.7L83.87 124.516z" fill="#00945E"/><path d="M202.043 282.08H365.13c22.613 0 40.945-18.02 40.945-40.634.16-31.433.16-47.762 0-48.985-.238-1.836-3.566-3.17-6.654-2.29C393 192 393 205 373 205c-22.373 0-18.686-6.508-40-4-17 2-19 11-36 11-10.667 0-18-1-22-3l-72.957 73.079z" fill="#00A6CE"/><path d="M218.504 169.924l-93.688-93.689A24.012 24.012 0 0 0 83.87 93.238v31.368l90.218 90.219 44.415-44.901z" fill="#3DAE2B"/><path d="M218.505 169.921l-68.99 68.756a25.4 25.4 0 0 0-5.505 27.73c3.955 9.505 12.824 15.711 23.118 15.672h102.763c10.14-.076 19.682-5.973 23.57-15.338 3.89-9.365 1.734-20.398-5.37-27.634l-69.586-69.186z" fill="#93D500"/><path d="M356.33 31.89L218.504 169.923l49.787 49.488L405.88 80.885V52.362a29.009 29.009 0 0 0-49.55-20.473z" fill="#005CB9"/><path d="M173.765 214.509l36.62 36.611a17.697 17.697 0 0 0 25.191 0l32.715-31.708-49.787-49.496-44.739 44.593z" fill="#4C9C2E"/><g stroke="#3DAE2B" stroke-linecap="round" stroke-width="3"><path d="M195.75 147.611l10.606-10.607M191.59 143.451l6.364-6.364M187.43 139.291l7.778-7.778M183.27 135.131l5.883-5.883M204.07 155.931l4.95-4.95M208.23 160.091l7.071-7.071M212.39 164.251l8.485-8.485M199.91 151.771l6.364-6.364M162.47 114.331l2.941-2.942M170.79 122.651l6.01-6.01M174.95 126.811l7.071-7.071M179.11 130.971l8.485-8.485M166.63 118.491l5.883-5.883"/></g><g transform="scale(-1 1) rotate(-45 -65.336 261.362)"><path fill="#BEC4CC" d="M7.299 69.38h31.717v6.938H7.299z"/><path fill="#767986" d="M35.137 2.407h1v17.841h-1z"/><circle fill="#E74C3C" cx="35.633" cy="2.407" r="1.982"/><circle fill="#ECEDEF" cx="23.158" cy="27.752" r="15.858"/><ellipse fill="#FFF" opacity=".133" transform="scale(-1 1) rotate(-35 0 114.6)" cx="30.096" cy="19.149" rx="6.638" ry="3.595"/><rect fill="#D0D7DD" x="7.299" y="28.743" width="31.717" height="14.867" rx="2"/><path d="M7.3 38.655h31.716v1.973a1 1 0 0 1-1 1H8.299a1 1 0 0 1-1-1v-1.973z" fill="#BEC4CC"/><rect fill="#767986" x="17.211" y="22.796" width="11.894" height="11.894" rx="4"/><path fill="#D0D7DD" d="M7.299 41.628h31.717V69.38H7.299z"/><path d="M21.24 46.838h3.93a2 2 0 0 1 2 2v7.912h-7.93v-7.912a2 2 0 0 1 2-2z" fill="#ECEDEF"/><rect fill="#E74C3C" x="21.175" y="47.575" width="3.965" height="1.982" rx=".991"/><path d="M25.293 49.637c.677 2.665 1.228 4.574 1.654 5.726a1.91 1.91 0 0 1-1.133 2.454L4.74 65.55a2 2 0 0 1-2.568-1.193L.83 60.669a2 2 0 0 1 1.195-2.563l23.267-8.469zM24.149 76.318h9.911v9.894a2 2 0 0 1-2 2H26.15a2 2 0 0 1-2-2v-9.894zM14.237 76.318h9.912v9.894a2 2 0 0 1-2 2h-5.912a2 2 0 0 1-2-2v-9.894z" fill="#ECEDEF"/><path stroke="#9A9DAB" fill="#9A9DAB" d="M39.516 33.208h1v2.965h-1z"/><path d="M24.149 76.318V87.22" stroke="#D0D7DD"/></g><g transform="scale(-1 1) rotate(-45 33.022 271.443)" fill="#D8D8D8"><path d="M5.004 10.74c-1.373-.059-2.357.21-2.954.807-.597.596-.866 1.581-.806 2.954M6.386 15.503c-1.013.928-1.52 1.815-1.52 2.659 0 .844.507 1.73 1.52 2.659M10.36 17.264c-.059 1.373.21 2.358.807 2.954.597.597 1.581.866 2.954.806M15.123 15.882c.928 1.013 1.815 1.52 2.659 1.52.844 0 1.73-.507 2.659-1.52M16.687 11.467c1.342.297 2.359.204 3.05-.28.692-.485 1.127-1.408 1.307-2.77M15.503 7.145c1.013-.928 1.52-1.815 1.52-2.659 0-.844-.507-1.73-1.52-2.659M11.907 5.004c.06-1.373-.209-2.357-.806-2.954-.596-.597-1.581-.866-2.954-.806M7.145 6.386c-.928-1.013-1.815-1.52-2.659-1.52-.844 0-1.73.507-2.659 1.52" stroke="#F9FAFB" stroke-linecap="round"/><circle cx="11.324" cy="11.324" r="6.078"/></g><path stroke="#9A9A9A" stroke-width="3" stroke-linecap="round" d="M158.36 72.647l5.295 5.295 2.559 24.65"/></g><path d="M74.148 216.149a.5.5 0 0 0-.494.423l-9.916 64.277a.5.5 0 0 0 .494.577l38.283-.012a.5.5 0 0 0 .489-.607l-14.082-64.265a.5.5 0 0 0-.488-.393H74.148z" stroke="#FD7B33" fill="#FD7B33"/><path d="M72.519 223.933l-1.07 6.946c4.88-.414 8.148-.62 9.815-.62 1.697 0 5.294.214 10.806.643l-1.52-6.967c-4.76-.372-7.866-.558-9.306-.558-1.435 0-4.349.185-8.725.556zM69.66 242.462l-1.087 7.055c6.264-.41 10.491-.614 12.691-.614 2.296 0 7.257.223 14.897.67l-1.537-7.04c-6.869-.652-11.328-.978-13.36-.978-1.953 0-5.827.302-11.605.907zM66.808 260.946l-1.092 7.081c7.481-.345 12.562-.518 15.248-.518 2.981 0 9.4.213 19.266.638l-1.536-7.016c-9.109-.647-15.024-.97-17.73-.97-2.433 0-7.155.262-14.156.785z" stroke="#FFF" fill="#FFF"/><path stroke="#FD7B33" fill="#FD7B33" d="M61.608 279.901h43.231v2.538H61.608z"/><g><path d="M23.148 215.149a.5.5 0 0 0-.494.423l-9.916 64.277a.5.5 0 0 0 .494.577l38.283-.012a.5.5 0 0 0 .489-.607l-14.082-64.265a.5.5 0 0 0-.488-.393H23.148z" stroke="#FD7B33" fill="#FD7B33"/><path d="M21.519 222.933l-1.07 6.946c4.88-.414 8.148-.62 9.815-.62 1.697 0 5.294.214 10.806.643l-1.52-6.967c-4.76-.372-7.866-.558-9.306-.558-1.435 0-4.349.185-8.725.556zM18.66 241.462l-1.087 7.055c6.264-.41 10.491-.614 12.691-.614 2.296 0 7.257.223 14.897.67l-1.537-7.04c-6.869-.652-11.328-.978-13.36-.978-1.953 0-5.827.302-11.605.907zM15.808 259.946l-1.092 7.081c7.481-.345 12.562-.518 15.248-.518 2.981 0 9.4.213 19.266.638l-1.536-7.016c-9.109-.647-15.024-.97-17.73-.97-2.433 0-7.155.262-14.156.785z" stroke="#FFF" fill="#FFF"/><path stroke="#FD7B33" fill="#FD7B33" d="M10.608 278.901h43.231v2.538H10.608z"/></g></g></svg>