<svg width="32" height="24" viewBox="0 0 32 24" fill="none" xmlns="http://www.w3.org/2000/svg">
    <g clip-path="url(#clip0)">
        <path d="M0 5.88291C0 4.00414 1.87653 2.7037 3.63568 3.36338C3.87368 3.45263 4.08153 3.60748 4.23516 3.80999L12.7377 15.0178C13.8983 16.5477 16.1775 16.6084 17.4179 15.1425L25.6022 5.47007C25.8647 5.15992 26.1874 4.90631 26.5508 4.72462L27.6584 4.17082C29.6531 3.17347 32 4.62396 32 6.8541V21C32 22.6569 30.6569 24 29 24H3C1.34315 24 0 22.6569 0 21V5.88291Z" fill="#1ABC9C"/>
        <path d="M16 14.4279C16 13.5245 16.4071 12.6692 17.1082 12.0996L27.1082 3.97457C29.0688 2.38163 32 3.77681 32 6.30291V21C32 22.6569 30.6569 24 29 24H19C17.3431 24 16 22.6569 16 21V14.4279Z" fill="#66B1E2"/>
        <path d="M25.281 2.439C26.8216 0.85568 29.3194 0.855681 30.86 2.439C32.4005 4.02233 32.4005 6.5894 30.86 8.17272L19.0584 20.3018C17.5178 21.8851 15.02 21.8851 13.4794 20.3018C11.9389 18.7184 11.9389 16.1514 13.4794 14.568L25.281 2.439Z" fill="#3F4694"/>
        <path d="M1.15586 8.21421C-0.384719 6.63089 -0.38472 4.06381 1.15586 2.48049C2.69644 0.897168 5.19421 0.897168 6.73479 2.48049L18.7551 14.8343C20.2957 16.4176 20.2957 18.9847 18.7551 20.568C17.2145 22.1513 14.7167 22.1513 13.1762 20.568L1.15586 8.21421Z" fill="#398984"/>
        <path d="M16 12L22.8787 18.8787C24.7686 20.7686 23.4301 24 20.7574 24H11.2426C8.56993 24 7.23143 20.7686 9.12132 18.8787L16 12Z" fill="#9EDAE2"/>
        <path d="M16 12L21.6569 17.6569L19.5355 19.7782C17.5829 21.7308 14.4171 21.7308 12.4645 19.7782L10.3431 17.6569L16 12Z" fill="#36A6B3"/>
        <path d="M-3.04862e-05 5.5L8.45107 6.56768L3.86333 10.998L-0.566987 6.41027L-3.04862e-05 5.5Z" fill="#398984"/>
        <rect x="26" y="6" width="5" height="5" transform="rotate(-45 26 6)" fill="#3F4694"/>
    </g>
    <defs>
        <clipPath id="clip0">
            <rect width="32" height="24" fill="white"/>
        </clipPath>
    </defs>
</svg>
