<svg id="Layer_1" xmlns="http://www.w3.org/2000/svg" viewBox="0 0 205 280"><style>.st0{fill:#353535;} .st1{fill:#434548;} .st2{fill:#EAE7E4;} .st3{fill:#DDD3C3;} .st4{fill:#A194C7;} .st5{fill:#F06360;} .st6{fill:#FEC249;} .st7{fill:#5B5C5C;} .st8{opacity:0.34;fill:#EAE7E4;enable-background:new ;} .st9{fill:#FFFFFF;}</style><path class="st0" d="M188.7 279.4H16c-8.3 0-15.1-6.8-15.1-15.1V15.7C.9 7.4 7.7.6 16 .6h172.7c8.3 0 15.1 6.8 15.1 15.1v248.7c.1 8.3-6.7 15-15.1 15z"/><path class="st1" d="M189 267.3H27.9c-8.3 0-15.1-6.8-15.1-15.1V15.7C12.8 7.4 19.6.6 27.9.6H189c8.3 0 15.1 6.8 15.1 15.1v236.6c0 8.3-6.8 15-15.1 15z"/><path class="st0" d="M179.3 129.1h-19.5c-3.5 0-6.4-2.9-6.4-6.4v-16c0-3.5 2.9-6.4 6.4-6.4h19.5c3.5 0 6.4 2.9 6.4 6.4v16c0 3.5-2.9 6.4-6.4 6.4zM179.3 169.1h-19.5c-3.5 0-6.4-2.9-6.4-6.4v-16c0-3.5 2.9-6.4 6.4-6.4h19.5c3.5 0 6.4 2.9 6.4 6.4v16c0 3.5-2.9 6.4-6.4 6.4zM179.3 244.3h-19.5c-3.5 0-6.4-2.9-6.4-6.4v-54.5c0-3.5 2.9-6.4 6.4-6.4h19.5c3.5 0 6.4 2.9 6.4 6.4v54.5c0 3.5-2.9 6.4-6.4 6.4z"/><path class="st2" d="M175.8 85.5H41.1c-5.5 0-9.9-4.4-9.9-9.9v-43c0-5.5 4.4-9.9 9.9-9.9h134.7c5.5 0 9.9 4.4 9.9 9.9v43c0 5.5-4.4 9.9-9.9 9.9z"/><path class="st3" d="M177.1 22.8H39.7c-4.7 0-8.5 4.4-8.5 9.9v10.5c0-5.5 3.8-9.9 8.5-9.9h137.4c4.7 0 8.5 4.4 8.5 9.9V32.7c.1-5.5-3.7-9.9-8.5-9.9z"/><path class="st0" d="M58.8 130.1H35.9c-2.6 0-4.7-2.1-4.7-4.7V106c0-2.6 2.1-4.7 4.7-4.7h22.9c2.6 0 4.7 2.1 4.7 4.7v19.4c0 2.6-2.1 4.7-4.7 4.7zM99.5 130.1H76.6c-2.6 0-4.7-2.1-4.7-4.7V106c0-2.6 2.1-4.7 4.7-4.7h22.9c2.6 0 4.7 2.1 4.7 4.7v19.4c0 2.6-2.1 4.7-4.7 4.7zM140.3 130.1h-22.9c-2.6 0-4.7-2.1-4.7-4.7V106c0-2.6 2.1-4.7 4.7-4.7h22.9c2.6 0 4.7 2.1 4.7 4.7v19.4c0 2.6-2.1 4.7-4.7 4.7z"/><path class="st4" d="M179.3 125.1h-19.5c-3.5 0-6.4-2.9-6.4-6.4v-16c0-3.5 2.9-6.4 6.4-6.4h19.5c3.5 0 6.4 2.9 6.4 6.4v16c0 3.5-2.9 6.4-6.4 6.4z"/><path class="st0" d="M58.8 169.1H35.9c-2.6 0-4.7-2.1-4.7-4.7V145c0-2.6 2.1-4.7 4.7-4.7h22.9c2.6 0 4.7 2.1 4.7 4.7v19.4c0 2.6-2.1 4.7-4.7 4.7zM99.5 169.1H76.6c-2.6 0-4.7-2.1-4.7-4.7V145c0-2.6 2.1-4.7 4.7-4.7h22.9c2.6 0 4.7 2.1 4.7 4.7v19.4c0 2.6-2.1 4.7-4.7 4.7zM140.3 169.1h-22.9c-2.6 0-4.7-2.1-4.7-4.7V145c0-2.6 2.1-4.7 4.7-4.7h22.9c2.6 0 4.7 2.1 4.7 4.7v19.4c0 2.6-2.1 4.7-4.7 4.7z"/><path class="st5" d="M179.3 165.1h-19.5c-3.5 0-6.4-2.9-6.4-6.4v-16c0-3.5 2.9-6.4 6.4-6.4h19.5c3.5 0 6.4 2.9 6.4 6.4v16c0 3.5-2.9 6.4-6.4 6.4z"/><path class="st0" d="M58.8 206.6H35.9c-2.6 0-4.7-2.1-4.7-4.7v-19.4c0-2.6 2.1-4.7 4.7-4.7h22.9c2.6 0 4.7 2.1 4.7 4.7v19.4c0 2.6-2.1 4.7-4.7 4.7zM99.5 206.6H76.6c-2.6 0-4.7-2.1-4.7-4.7v-19.4c0-2.6 2.1-4.7 4.7-4.7h22.9c2.6 0 4.7 2.1 4.7 4.7v19.4c0 2.6-2.1 4.7-4.7 4.7zM140.3 206.6h-22.9c-2.6 0-4.7-2.1-4.7-4.7v-19.4c0-2.6 2.1-4.7 4.7-4.7h22.9c2.6 0 4.7 2.1 4.7 4.7v19.4c0 2.6-2.1 4.7-4.7 4.7z"/><path class="st6" d="M179.3 239.3h-19.5c-3.5 0-6.4-2.9-6.4-6.4v-54.5c0-3.5 2.9-6.4 6.4-6.4h19.5c3.5 0 6.4 2.9 6.4 6.4v54.5c0 3.5-2.9 6.4-6.4 6.4z"/><path class="st0" d="M58.8 245.1H35.9c-2.6 0-4.7-2.1-4.7-4.7V221c0-2.6 2.1-4.7 4.7-4.7h22.9c2.6 0 4.7 2.1 4.7 4.7v19.4c0 2.6-2.1 4.7-4.7 4.7zM99.5 245.1H76.6c-2.6 0-4.7-2.1-4.7-4.7V221c0-2.6 2.1-4.7 4.7-4.7h22.9c2.6 0 4.7 2.1 4.7 4.7v19.4c0 2.6-2.1 4.7-4.7 4.7zM140.3 245.1h-22.9c-2.6 0-4.7-2.1-4.7-4.7V221c0-2.6 2.1-4.7 4.7-4.7h22.9c2.6 0 4.7 2.1 4.7 4.7v19.4c0 2.6-2.1 4.7-4.7 4.7z"/><g><path class="st7" d="M58.8 126.1H35.9c-2.6 0-4.7-2.1-4.7-4.7V102c0-2.6 2.1-4.7 4.7-4.7h22.9c2.6 0 4.7 2.1 4.7 4.7v19.4c0 2.6-2.1 4.7-4.7 4.7zM99.5 126.1H76.6c-2.6 0-4.7-2.1-4.7-4.7V102c0-2.6 2.1-4.7 4.7-4.7h22.9c2.6 0 4.7 2.1 4.7 4.7v19.4c0 2.6-2.1 4.7-4.7 4.7zM140.3 126.1h-22.9c-2.6 0-4.7-2.1-4.7-4.7V102c0-2.6 2.1-4.7 4.7-4.7h22.9c2.6 0 4.7 2.1 4.7 4.7v19.4c0 2.6-2.1 4.7-4.7 4.7zM58.8 165.1H35.9c-2.6 0-4.7-2.1-4.7-4.7V141c0-2.6 2.1-4.7 4.7-4.7h22.9c2.6 0 4.7 2.1 4.7 4.7v19.4c0 2.6-2.1 4.7-4.7 4.7zM99.5 165.1H76.6c-2.6 0-4.7-2.1-4.7-4.7V141c0-2.6 2.1-4.7 4.7-4.7h22.9c2.6 0 4.7 2.1 4.7 4.7v19.4c0 2.6-2.1 4.7-4.7 4.7zM140.3 165.1h-22.9c-2.6 0-4.7-2.1-4.7-4.7V141c0-2.6 2.1-4.7 4.7-4.7h22.9c2.6 0 4.7 2.1 4.7 4.7v19.4c0 2.6-2.1 4.7-4.7 4.7zM58.8 202.6H35.9c-2.6 0-4.7-2.1-4.7-4.7v-19.4c0-2.6 2.1-4.7 4.7-4.7h22.9c2.6 0 4.7 2.1 4.7 4.7v19.4c0 2.6-2.1 4.7-4.7 4.7zM99.5 202.6H76.6c-2.6 0-4.7-2.1-4.7-4.7v-19.4c0-2.6 2.1-4.7 4.7-4.7h22.9c2.6 0 4.7 2.1 4.7 4.7v19.4c0 2.6-2.1 4.7-4.7 4.7zM140.3 202.6h-22.9c-2.6 0-4.7-2.1-4.7-4.7v-19.4c0-2.6 2.1-4.7 4.7-4.7h22.9c2.6 0 4.7 2.1 4.7 4.7v19.4c0 2.6-2.1 4.7-4.7 4.7zM58.8 241.1H35.9c-2.6 0-4.7-2.1-4.7-4.7V217c0-2.6 2.1-4.7 4.7-4.7h22.9c2.6 0 4.7 2.1 4.7 4.7v19.4c0 2.6-2.1 4.7-4.7 4.7z"/><path class="st2" d="M99.5 241.1H76.6c-2.6 0-4.7-2.1-4.7-4.7V217c0-2.6 2.1-4.7 4.7-4.7h22.9c2.6 0 4.7 2.1 4.7 4.7v19.4c0 2.6-2.1 4.7-4.7 4.7z"/><path class="st7" d="M140.3 241.1h-22.9c-2.6 0-4.7-2.1-4.7-4.7V217c0-2.6 2.1-4.7 4.7-4.7h22.9c2.6 0 4.7 2.1 4.7 4.7v19.4c0 2.6-2.1 4.7-4.7 4.7z"/></g><g><path class="st1" d="M60.8 54.2l1.2 1.2-1.2 1.2H49l-1.2-1.2 1.2-1.2h11.8zm.2-14.7l1.2 1.2-1.2 1.2H49.2L48 40.7l1.2-1.2H61zm0 29.3l1.2 1.2-1.2 1.2H49.2L48 70l1.2-1.2H61zM63.6 42v11.9L62.5 55l-1.1-1.1V42l1.1-1.1 1.1 1.1zm0 14.7v11.9l-1.1 1.1-1.1-1.1V56.7l1.1-1.1 1.1 1.1zM70.7 67.3v2.3h-2.2v-2.3h2.2zM80.3 41v1.8l-3 3h-1.7v-1.9l3-2.8h1.7V41zm.1 27.8l1.2 1.2-1.2 1.2h-3.3L75.9 70l1.2-1.2h3.3zM82.9 42v11.9L81.8 55l-1.1-1.1V42l1.1-1.1 1.1 1.1zm0 14.7v11.9l-1.1 1.1-1.1-1.1V56.7l1.1-1.1 1.1 1.1zm3.4 12.1l1.2 1.2-1.2 1.2H83L81.8 70l1.2-1.2h3.3zM94.6 42v11.9L93.5 55l-1.1-1.1V42l1.1-1.1 1.1 1.1zm12.2 12.1l1.2 1.2-1.2 1.2H95l-1.2-1.2 1.2-1.2h11.8zm2.5-12.1v11.9l-1.1 1.1-1.1-1.1V42l1.1-1.1 1.1 1.1zm0 14.7v11.9l-1.1 1.1-1.1-1.1V56.7l1.1-1.1 1.1 1.1zM118.9 41v1.8l-3 3h-1.7v-1.9l3-2.8h1.7V41zm0 27.8l1.2 1.2-1.2 1.1h-3.3l-1.2-1.2 1.2-1.2 3.3.1zm2.6-26.8v11.9l-1.1 1.1-1.1-1.1V42l1.1-1.1 1.1 1.1zm0 14.7v11.9l-1.1 1.1-1.1-1.1V56.7l1.1-1.1 1.1 1.1zm3.4 12.1l1.2 1.2-1.2 1.1h-3.3l-1.2-1.2 1.2-1.2 3.3.1zM133.2 42v11.9l-1.1 1.1-1.1-1.1V42l1.1-1.1 1.1 1.1zm0 24.4v2.1l-1.1 1.1-1.1-1.1v-2.1l1.1-1.1 1.1 1.1zm12.1-26.9l1.2 1.2-1.2 1.2h-11.8l-1.2-1.2 1.2-1.2h11.8zm.1 14.5l1.2 1.2-1.2 1.2h-11.8l-1.2-1.2 1.2-1.2h11.8zm0 14.8l1.2 1.2-1.2 1.2h-11.8l-1.2-1.2 1.2-1.2h11.8zm2.5-12.1v11.9l-1.1 1.1-1.1-1.1V56.7l1.1-1.1 1.1 1.1zM155 42v11.9l-1.1 1.2-1.1-1.1V42.1l1.1-1.1 1.1 1zm12.1-2.5l1.2 1.2-1.2 1.2h-11.8l-1.2-1.2 1.2-1.2h11.8zm0 14.6l1.2 1.2-1.2 1.2h-11.8l-1.2-1.2 1.2-1.2h11.8zm0 14.7l1.2 1.2-1.2 1.2h-11.8l-1.2-1.2 1.2-1.2h11.8zm2.5-26.8v11.9l-1.1 1.1-1.1-1.1V42l1.1-1.1 1.1 1.1zm0 14.7v11.9l-1.1 1.1-1.1-1.1V56.7l1.1-1.1 1.1 1.1z"/></g><path class="st8" d="M180.3 13.2H58.7c-1.2 0-2.2-1-2.2-2.2 0-1.2 1-2.2 2.2-2.2h121.6c1.2 0 2.2 1 2.2 2.2 0 1.2-1 2.2-2.2 2.2z"/><path class="st9" d="M171.2 82.7H49.6c-1.2 0-2.2-1-2.2-2.2 0-1.2 1-2.2 2.2-2.2h121.6c1.2 0 2.2 1 2.2 2.2 0 1.2-1 2.2-2.2 2.2z"/><path class="st8" d="M48 13.2H30.2c-1.2 0-2.2-1-2.2-2.2 0-1.2 1-2.2 2.2-2.2H48c1.2 0 2.2 1 2.2 2.2 0 1.2-1 2.2-2.2 2.2z"/></svg>