<svg width="160" height="269" xmlns="http://www.w3.org/2000/svg"><g stroke="#FFF" stroke-width="3" fill="none" fill-rule="evenodd" stroke-linecap="round" stroke-linejoin="round"><path d="M98 14v93M136 81L56 35M137 35L57 81M101 10l36 21M93 108L57 87M141 38v42M52 38v42M136 87l-36 21M146.432 84.467c0-3.169-2.578-5.74-5.759-5.74-3.177 0-5.755 2.571-5.755 5.74 0 3.172 2.578 5.743 5.755 5.743 3.181 0 5.76-2.57 5.76-5.743zM58.068 84.467c0-3.169-2.578-5.74-5.755-5.74-3.18 0-5.759 2.571-5.759 5.74 0 3.172 2.578 5.743 5.76 5.743 3.176 0 5.754-2.57 5.754-5.743zM102.252 8.039c0-3.17-2.578-5.74-5.759-5.74-3.177 0-5.755 2.57-5.755 5.74 0 3.172 2.578 5.743 5.755 5.743 3.181 0 5.759-2.57 5.759-5.743zM56.155 33.516a3.838 3.838 0 0 0-3.842-3.832 3.836 3.836 0 0 0-3.842 3.832 3.833 3.833 0 0 0 3.842 3.831 3.836 3.836 0 0 0 3.842-3.831zM144.515 33.516a3.836 3.836 0 0 0-3.842-3.832 3.838 3.838 0 0 0-3.841 3.832 3.836 3.836 0 0 0 3.841 3.831 3.833 3.833 0 0 0 3.842-3.831zM100.335 109.944a3.836 3.836 0 0 0-3.842-3.831 3.838 3.838 0 0 0-3.842 3.831 3.836 3.836 0 0 0 3.842 3.832 3.833 3.833 0 0 0 3.842-3.832zM225.725 35.428l-80.07 46.17M181.413 107.957L145.654 87.34M139.734 37.347v41.38"/><path d="M146.432 84.467c0-3.169-2.578-5.74-5.759-5.74-3.177 0-5.755 2.571-5.755 5.74 0 3.172 2.578 5.743 5.755 5.743 3.181 0 5.76-2.57 5.76-5.743zM144.515 33.516a3.836 3.836 0 0 0-3.842-3.832 3.838 3.838 0 0 0-3.841 3.832 3.836 3.836 0 0 0 3.841 3.831 3.833 3.833 0 0 0 3.842-3.831zM52.182 90.21v92.332M91.522 158.029l-80.081-46.174M93.18 111.856l-80.07 46.17M47.35 87.329l-35.91 20.705M57.277 87.329l35.905 20.705M48.869 184.385l-35.76-20.617M95.958 113.776v41.38M7.339 113.776v41.38M91.522 163.765l-35.901 20.698M102.252 160.895c0-3.169-2.578-5.74-5.759-5.74-3.177 0-5.755 2.571-5.755 5.74 0 3.172 2.578 5.743 5.755 5.743 3.181 0 5.759-2.57 5.759-5.743zM13.888 160.895c0-3.169-2.578-5.74-5.759-5.74-3.177 0-5.755 2.571-5.755 5.74 0 3.172 2.578 5.743 5.755 5.743 3.181 0 5.759-2.57 5.759-5.743zM58.068 84.467c0-3.169-2.578-5.74-5.755-5.74-3.18 0-5.759 2.571-5.759 5.74 0 3.172 2.578 5.743 5.76 5.743 3.176 0 5.754-2.57 5.754-5.743zM11.97 109.944a3.836 3.836 0 0 0-3.841-3.831 3.838 3.838 0 0 0-3.842 3.831 3.836 3.836 0 0 0 3.842 3.832 3.833 3.833 0 0 0 3.842-3.832zM100.335 109.944a3.836 3.836 0 0 0-3.842-3.831 3.838 3.838 0 0 0-3.842 3.831 3.836 3.836 0 0 0 3.842 3.832 3.833 3.833 0 0 0 3.842-3.832zM56.155 186.372a3.838 3.838 0 0 0-3.842-3.832 3.836 3.836 0 0 0-3.842 3.832 3.833 3.833 0 0 0 3.842 3.831 3.836 3.836 0 0 0 3.842-3.831zM139.734 90.21v92.332M179.882 158.029l-80.077-46.174M181.545 111.856l-80.07 46.17M135.71 87.329l-35.905 20.705M145.637 87.329l35.909 20.705M137.233 184.385l-35.759-20.617M95.958 113.776v41.38M179.882 163.765l-35.897 20.698"/><path d="M102.252 160.895c0-3.169-2.578-5.74-5.759-5.74-3.177 0-5.755 2.571-5.755 5.74 0 3.172 2.578 5.743 5.755 5.743 3.181 0 5.759-2.57 5.759-5.743zM146.432 84.467c0-3.169-2.578-5.74-5.759-5.74-3.177 0-5.755 2.571-5.755 5.74 0 3.172 2.578 5.743 5.755 5.743 3.181 0 5.76-2.57 5.76-5.743zM100.335 109.944a3.836 3.836 0 0 0-3.842-3.831 3.838 3.838 0 0 0-3.842 3.831 3.836 3.836 0 0 0 3.842 3.832 3.833 3.833 0 0 0 3.842-3.832zM144.515 186.372a3.836 3.836 0 0 0-3.842-3.832 3.838 3.838 0 0 0-3.841 3.832 3.836 3.836 0 0 0 3.841 3.831 3.833 3.833 0 0 0 3.842-3.831zM95.958 166.639v92.331M135.702 234.457L55.621 188.28M137.365 188.28l-80.07 46.174M91.53 163.757l-35.905 20.706M101.457 163.757l35.909 20.706M93.05 260.814l-35.76-20.618M139.734 190.203v41.38M52.182 190.203v41.38M135.702 240.193L99.805 260.89M146.432 237.323c0-3.169-2.578-5.74-5.759-5.74-3.177 0-5.755 2.571-5.755 5.74 0 3.172 2.578 5.743 5.755 5.743 3.181 0 5.76-2.57 5.76-5.743zM58.068 237.323c0-3.169-2.578-5.74-5.755-5.74-3.18 0-5.759 2.571-5.759 5.74 0 3.172 2.578 5.743 5.76 5.743 3.176 0 5.754-2.57 5.754-5.743z"/><path d="M102.252 160.895c0-3.169-2.578-5.74-5.759-5.74-3.177 0-5.755 2.571-5.755 5.74 0 3.172 2.578 5.743 5.755 5.743 3.181 0 5.759-2.57 5.759-5.743zM56.155 186.372a3.838 3.838 0 0 0-3.842-3.832 3.836 3.836 0 0 0-3.842 3.832 3.833 3.833 0 0 0 3.842 3.831 3.836 3.836 0 0 0 3.842-3.831zM144.515 186.372a3.836 3.836 0 0 0-3.842-3.832 3.838 3.838 0 0 0-3.841 3.832 3.836 3.836 0 0 0 3.841 3.831 3.833 3.833 0 0 0 3.842-3.831zM100.335 262.8a3.833 3.833 0 0 0-3.842-3.831 3.836 3.836 0 0 0-3.842 3.831 3.836 3.836 0 0 0 3.842 3.832 3.833 3.833 0 0 0 3.842-3.832zM224.066 234.457l-80.081-46.177M225.725 188.28l-80.07 46.174M179.894 163.757l-35.909 20.706M181.413 260.814l-35.759-20.618M139.734 190.203v41.38M146.432 237.323c0-3.169-2.578-5.74-5.759-5.74-3.177 0-5.755 2.571-5.755 5.74 0 3.172 2.578 5.743 5.755 5.743 3.181 0 5.76-2.57 5.76-5.743z"/><path d="M144.515 186.372a3.836 3.836 0 0 0-3.842-3.832 3.838 3.838 0 0 0-3.841 3.832 3.836 3.836 0 0 0 3.841 3.831 3.833 3.833 0 0 0 3.842-3.831z"/></g></svg>