<svg width="202" height="385" xmlns="http://www.w3.org/2000/svg"><g stroke="#FFF" stroke-width="3" fill="none" fill-rule="evenodd" opacity=".153" stroke-linecap="round" stroke-linejoin="round"><path d="M.583 18.984V152.08M57.231 116.745l-115.63-66.56M59.626 50.186L-55.987 116.74M7.784 14.831l51.843 29.847M63.792 52.954v59.65M57.231 125.014L5.394 154.85M72.725 120.877c0-4.568-3.723-8.274-8.316-8.274-4.593 0-8.315 3.706-8.315 8.274 0 4.573 3.722 8.279 8.315 8.279s8.316-3.706 8.316-8.28zM8.927 10.705c0-4.568-3.722-8.274-8.31-8.274-4.592 0-8.315 3.706-8.315 8.274 0 4.573 3.723 8.279 8.316 8.279 4.587 0 8.31-3.706 8.31-8.28zM69.956 47.43c0-3.048-2.48-5.523-5.547-5.523-3.068 0-5.547 2.475-5.547 5.523 0 3.055 2.48 5.524 5.547 5.524 3.067 0 5.547-2.47 5.547-5.524zM6.164 157.602c0-3.048-2.485-5.523-5.547-5.523-3.068 0-5.547 2.475-5.547 5.523 0 3.055 2.48 5.524 5.547 5.524 3.062 0 5.547-2.47 5.547-5.524zM127 18.984V152.08M184.815 116.745L69.191 50.185M187.215 50.186L71.602 116.74M121.034 14.831L69.19 44.678M135.368 14.831l51.849 29.847M123.233 154.738l-51.632-29.72M191.75 52.954v59.65M63.792 52.954v59.65M184.815 125.014l-51.832 29.836M200.308 120.877c0-4.568-3.722-8.274-8.31-8.274-4.592 0-8.314 3.706-8.314 8.274 0 4.573 3.722 8.279 8.315 8.279 4.587 0 8.31-3.706 8.31-8.28z"/><path d="M72.725 120.877c0-4.568-3.723-8.274-8.316-8.274-4.587 0-8.315 3.706-8.315 8.274 0 4.573 3.728 8.279 8.315 8.279 4.593 0 8.316-3.706 8.316-8.28zM136.516 10.705c0-4.568-3.722-8.274-8.315-8.274-4.587 0-8.31 3.706-8.31 8.274 0 4.573 3.723 8.279 8.31 8.279 4.593 0 8.315-3.706 8.315-8.28zM69.956 47.43c0-3.048-2.48-5.523-5.547-5.523-3.068 0-5.547 2.475-5.547 5.523 0 3.055 2.48 5.524 5.547 5.524 3.067 0 5.547-2.47 5.547-5.524zM197.545 47.43c0-3.048-2.485-5.523-5.547-5.523-3.067 0-5.547 2.475-5.547 5.523 0 3.055 2.48 5.524 5.547 5.524 3.062 0 5.547-2.47 5.547-5.524zM133.748 157.602c0-3.048-2.48-5.523-5.547-5.523-3.062 0-5.547 2.475-5.547 5.523 0 3.055 2.485 5.524 5.547 5.524 3.067 0 5.547-2.47 5.547-5.524zM.583 163.126v59.65M8.927 231.048c0-4.567-3.722-8.273-8.31-8.273-4.592 0-8.315 3.706-8.315 8.273 0 4.573 3.723 8.28 8.316 8.28 4.587 0 8.31-3.707 8.31-8.28zM6.164 157.602c0-3.048-2.485-5.523-5.547-5.523-3.068 0-5.547 2.475-5.547 5.523 0 3.055 2.48 5.524 5.547 5.524 3.062 0 5.547-2.47 5.547-5.524zM63.792 129.156v133.097M121.023 226.917l-115.63-66.56M123.423 160.358L7.804 226.913M57.242 125.003L5.393 154.85M71.576 125.003l51.849 29.847M59.436 264.91L7.804 235.19M127 163.126v59.65M.583 163.126v59.65M121.023 235.186l-51.832 29.836M136.516 231.048c0-4.567-3.722-8.273-8.315-8.273-4.587 0-8.31 3.706-8.31 8.273 0 4.573 3.723 8.28 8.31 8.28 4.593 0 8.315-3.707 8.315-8.28z"/><path d="M8.927 231.048c0-4.567-3.722-8.273-8.31-8.273-4.592 0-8.315 3.706-8.315 8.273 0 4.573 3.723 8.28 8.316 8.28 4.587 0 8.31-3.707 8.31-8.28zM72.725 120.877c0-4.568-3.723-8.274-8.316-8.274-4.587 0-8.315 3.706-8.315 8.274 0 4.573 3.728 8.279 8.315 8.279 4.593 0 8.316-3.706 8.316-8.28zM6.164 157.602c0-3.048-2.485-5.523-5.547-5.523-3.068 0-5.547 2.475-5.547 5.523 0 3.055 2.48 5.524 5.547 5.524 3.062 0 5.547-2.47 5.547-5.524zM133.748 157.602c0-3.048-2.48-5.523-5.547-5.523-3.062 0-5.547 2.475-5.547 5.523 0 3.055 2.485 5.524 5.547 5.524 3.067 0 5.547-2.47 5.547-5.524zM69.956 267.774c0-3.049-2.48-5.523-5.547-5.523-3.068 0-5.547 2.474-5.547 5.523 0 3.054 2.48 5.523 5.547 5.523 3.067 0 5.547-2.469 5.547-5.523zM.583 239.328v133.097M57.231 337.089l-115.63-66.565M59.626 270.525l-115.613 66.56M7.784 235.175l51.843 29.847M63.792 273.297v59.65M57.231 345.357L5.394 375.193M72.725 341.22c0-4.567-3.723-8.273-8.316-8.273-4.593 0-8.315 3.706-8.315 8.273 0 4.573 3.722 8.28 8.315 8.28s8.316-3.707 8.316-8.28z"/><path d="M8.927 231.048c0-4.567-3.722-8.273-8.31-8.273-4.592 0-8.315 3.706-8.315 8.273 0 4.573 3.723 8.28 8.316 8.28 4.587 0 8.31-3.707 8.31-8.28zM69.956 267.774c0-3.049-2.48-5.523-5.547-5.523-3.068 0-5.547 2.474-5.547 5.523 0 3.054 2.48 5.523 5.547 5.523 3.067 0 5.547-2.469 5.547-5.523zM6.164 377.946c0-3.054-2.485-5.523-5.547-5.523-3.068 0-5.547 2.469-5.547 5.523s2.48 5.523 5.547 5.523c3.062 0 5.547-2.469 5.547-5.523zM127 239.328v133.097M184.815 337.089L69.191 270.524M121.034 235.175L69.19 265.022M63.792 273.297v59.65M184.815 345.357l-51.832 29.836M200.308 341.22c0-4.567-3.722-8.273-8.31-8.273-4.592 0-8.314 3.706-8.314 8.273 0 4.573 3.722 8.28 8.315 8.28 4.587 0 8.31-3.707 8.31-8.28zM72.725 341.22c0-4.567-3.723-8.273-8.316-8.273-4.587 0-8.315 3.706-8.315 8.273 0 4.573 3.728 8.28 8.315 8.28 4.593 0 8.316-3.707 8.316-8.28zM136.516 231.048c0-4.567-3.722-8.273-8.315-8.273-4.587 0-8.31 3.706-8.31 8.273 0 4.573 3.723 8.28 8.31 8.28 4.593 0 8.315-3.707 8.315-8.28z"/><path d="M69.956 267.774c0-3.049-2.48-5.523-5.547-5.523-3.068 0-5.547 2.474-5.547 5.523 0 3.054 2.48 5.523 5.547 5.523 3.067 0 5.547-2.469 5.547-5.523zM133.748 377.946c0-3.054-2.48-5.523-5.547-5.523-3.062 0-5.547 2.469-5.547 5.523s2.485 5.523 5.547 5.523c3.067 0 5.547-2.469 5.547-5.523z"/></g></svg>