<svg width="142" height="36" xmlns="http://www.w3.org/2000/svg" xmlns:xlink="http://www.w3.org/1999/xlink"><defs><path id="a" d="M0 25h94V0H0z"/></defs><g fill="none" fill-rule="evenodd"><rect fill="#0E131F" width="142" height="36" rx="8"/><g transform="translate(42 8)"><path d="M3.4 6.224c1.705 0 2.695-1.218 2.695-2.719 0-1.51-.958-2.728-2.695-2.728H1.873v5.447H3.4zM1 0h2.4C5.579 0 7 1.522 7 3.505 7 5.5 5.579 7 3.4 7H1V0zM12.173 4.495c0-.966-.596-1.834-1.673-1.834s-1.684.868-1.684 1.834c0 .975.607 1.844 1.684 1.844s1.673-.869 1.673-1.844M8 4.495C8 3.115 8.963 2 10.5 2S13 3.114 13 4.495C13 5.875 12.037 7 10.5 7S8 5.875 8 4.495M16.5 2.983L15.258 7h-.74L13 2h.768l1.164 3.985L16.184 2h.632l1.252 3.985L19.232 2H20l-1.518 5h-.74zM24.251 3.808c0-.859-.429-1.13-1.077-1.13-.588 0-1.147.362-1.426.756V7H21V2.121h.748v.707c.339-.404.998-.828 1.715-.828C24.471 2 25 2.515 25 3.577V7h-.749V3.808z" fill="#E2E2E2"/><mask id="b" fill="#fff"><use xlink:href="#a"/></mask><path fill="#E2E2E2" mask="url(#b)" d="M27 7h.75V0H27zM33.173 4.495c0-.966-.596-1.834-1.673-1.834s-1.684.868-1.684 1.834c0 .975.607 1.844 1.684 1.844s1.673-.869 1.673-1.844m-4.173 0C29 3.115 29.963 2 31.5 2S34 3.114 34 4.495C34 5.875 33.037 7 31.5 7S29 5.875 29 4.495M37.257 4.978c-.287-.394-.792-.591-1.317-.591-.692 0-1.177.434-1.177 1.045 0 .601.485 1.035 1.177 1.035.525 0 1.03-.197 1.317-.592v-.897zm0 1.361c-.396.433-.94.661-1.583.661C34.862 7 34 6.457 34 5.421c0-1.064.862-1.567 1.674-1.567.653 0 1.197.207 1.583.652v-.86c0-.64-.515-1.005-1.207-1.005-.574 0-1.04.207-1.466.661l-.345-.513c.514-.532 1.128-.789 1.91-.789C37.158 2 38 2.454 38 3.607v3.275h-.743v-.543zM43.337 3.268c-.238-.433-.75-.804-1.28-.804-.856 0-1.368.825-1.368 1.928s.512 1.917 1.368 1.917c.53 0 1.042-.35 1.28-.784V3.268zm0 2.866C43.02 6.64 42.5 7 41.898 7 40.786 7 40 6.01 40 4.392c0-1.588.777-2.619 1.898-2.619.575 0 1.095.33 1.44.876V0H44v6.876h-.663v-.742zM51.173 4.495c0-.966-.596-1.834-1.673-1.834s-1.684.868-1.684 1.834c0 .975.607 1.844 1.684 1.844s1.673-.869 1.673-1.844m-4.173 0C47 3.115 47.963 2 49.5 2S52 3.114 52 4.495C52 5.875 51.037 7 49.5 7S47 5.875 47 4.495M57.251 3.808c0-.859-.429-1.13-1.077-1.13-.588 0-1.147.362-1.426.756V7H54V2.121h.748v.707c.339-.404.998-.828 1.715-.828C57.471 2 58 2.515 58 3.577V7h-.749V3.808zM61.866 5.918V2.895H61v-.631h.866V1h.813v1.264h1.06v.63h-1.06v2.872c0 .344.173.593.53.593.227 0 .444-.087.553-.192l.238.536c-.206.173-.499.297-.975.297-.769 0-1.159-.393-1.159-1.082M68.253 3.662c0-.892-.437-1.154-1.084-1.154-.577 0-1.135.378-1.423.786V7H65V0h.746v2.665c.338-.42.995-.86 1.72-.86 1.006 0 1.534.514 1.534 1.616V7h-.747V3.662zM70.673 4.2h2.697c-.009-.711-.416-1.587-1.353-1.587-.876 0-1.31.857-1.344 1.586M72.026 2C73.268 2 74 3.125 74 4.554v.188h-3.327c.05.897.596 1.646 1.48 1.646.469 0 .945-.217 1.268-.601l.307.483c-.41.473-.963.73-1.634.73C70.877 7 70 5.985 70 4.495 70 3.114 70.851 2 72.026 2M6 13.742L3.934 21H2.67L0 12h1.292l2.08 7.503L5.522 12h.97l2.15 7.503L10.708 12H12l-2.67 9H8.066zM13 21h.899v-7H13v7zm0-8.505c0-.277.228-.495.495-.495.277 0 .505.218.505.495a.507.507 0 0 1-.505.505.505.505 0 0 1-.495-.505zM20.878 16.53c0-1.202-.643-1.583-1.615-1.583-.884 0-1.722.51-2.141 1.061V21H16v-6.831h1.122v.99C17.63 14.593 18.619 14 19.696 14c1.512 0 2.304.72 2.304 2.206V21h-1.122v-4.47zM28.007 15.67c-.358-.62-1.126-1.15-1.92-1.15-1.285 0-2.053 1.178-2.053 2.755 0 1.575.768 2.739 2.053 2.739.794 0 1.562-.501 1.92-1.12V15.67zm0 4.094C27.53 20.486 26.75 21 25.848 21 24.18 21 23 19.585 23 17.275c0-2.268 1.166-3.74 2.848-3.74.862 0 1.642.47 2.16 1.25V11H29v9.823h-.993v-1.06zM36.844 17.493c0-1.354-.835-2.567-2.343-2.567s-2.358 1.213-2.358 2.567c0 1.367.85 2.582 2.358 2.582s2.343-1.215 2.343-2.582m-5.844 0C31 15.56 32.348 14 34.5 14c2.153 0 3.5 1.56 3.5 3.493C38 19.426 36.653 21 34.5 21c-2.152 0-3.5-1.574-3.5-3.507M44 15.378L42.224 21h-1.057L39 14h1.098l1.662 5.58L43.548 14h.902l1.789 5.58L47.901 14H49l-2.17 7h-1.056zM49.506 19.205c.416.51 1.208.952 2.065.952.962 0 1.48-.455 1.48-1.104 0-.732-.765-.967-1.61-1.187-1.065-.264-2.273-.566-2.273-1.947 0-1.036.845-1.919 2.338-1.919 1.066 0 1.818.428 2.325.965l-.455.718c-.376-.483-1.064-.841-1.87-.841-.857 0-1.39.413-1.39 1.007 0 .65.715.857 1.533 1.064 1.092.261 2.351.593 2.351 2.071C54 20.102 53.156 21 51.532 21c-1.026 0-1.896-.332-2.532-1.05l.506-.745zM58.684 18.548c.613.712 1.617 1.38 2.928 1.38 1.66 0 2.188-.93 2.188-1.67 0-1.161-1.129-1.48-2.355-1.83-1.493-.406-3.152-.842-3.152-2.743 0-1.597 1.366-2.685 3.194-2.685 1.421 0 2.524.493 3.304 1.35l-.698.884c-.696-.799-1.673-1.162-2.69-1.162-1.116 0-1.91.625-1.91 1.54 0 .973 1.073 1.264 2.259 1.596 1.52.422 3.248.915 3.248 2.948C65 19.565 64.08 21 61.57 21c-1.618 0-2.803-.638-3.57-1.537l.684-.915zM67.155 19.38v-4.537H66v-.948h1.155V12h1.083v1.895h1.416v.948h-1.416v4.306c0 .516.231.891.708.891.304 0 .593-.13.737-.287l.317.803c-.273.258-.664.444-1.3.444-1.025 0-1.545-.588-1.545-1.62M76.844 17.493c0-1.354-.835-2.567-2.343-2.567s-2.358 1.213-2.358 2.567c0 1.367.85 2.582 2.358 2.582s2.343-1.215 2.343-2.582m-5.844 0C71 15.56 72.348 14 74.5 14c2.153 0 3.5 1.56 3.5 3.493C78 19.426 76.653 21 74.5 21c-2.152 0-3.5-1.574-3.5-3.507M79 14.142h.953v1.108C80.449 14.526 81.16 14 82 14v1.094a1.46 1.46 0 0 0-.381-.043c-.585 0-1.386.54-1.666 1.093V21H79v-6.858zM84.177 17.08H88.9c-.015-.995-.73-2.225-2.369-2.225-1.533 0-2.293 1.202-2.353 2.225M86.545 14C88.72 14 90 15.574 90 17.577v.261h-5.823c.09 1.258 1.042 2.307 2.592 2.307.82 0 1.653-.304 2.219-.842l.536.677c-.715.662-1.683 1.02-2.86 1.02C84.535 21 83 19.578 83 17.493 83 15.561 84.49 14 86.545 14"/></g><path d="M18.419 6.011a2.818 2.818 0 0 0-.69.139l-1.92.638A2.892 2.892 0 0 0 13.84 9.52v3.158l-3.84.54V27.58L27.28 30l3.84-1.267V12.18l-3.84-1.38-1.92.27V9.84c0-1.451-1.099-2.606-2.422-2.835a2.813 2.813 0 0 0-1.37.105l-.547.184a2.963 2.963 0 0 0-1.923-1.249 2.915 2.915 0 0 0-.68-.034zm.157 1.909c.552-.052 1.024.364 1.024.96v2.996l-3.84.537V9.52c0-.416.259-.776.656-.911l1.92-.637a.953.953 0 0 1 .24-.053zm3.84.96c.552-.049 1.024.364 1.024.96v1.5l-1.92.266V9.15l.656-.217a.953.953 0 0 1 .24-.053zm4.658 3.885l2.126.765v13.815l-2.096.69-15.184-2.126V14.89l15.154-2.126zm-3.634 2.449l-4.8.675v3.551h4.8v-4.226zm-5.76.806l-3.84.54v2.88h3.84v-3.42zm-3.84 4.38v2.88l3.84.54V20.4h-3.84zm4.8 0v3.551l4.8.675V20.4h-4.8z" fill="#E3E3E3" fill-rule="nonzero"/></g></svg>