<svg xmlns="http://www.w3.org/2000/svg" viewBox="0 0 71 57"><path d="M20.7 36.3l-6.5 2.8 6 2.6 7-2.6-6.5-2.8zm-9.8 3.6l-.2 12.8 9.5 4.3V43.7l-9.3-3.8zm19.6 0l-8.6 3.3v12.6l8.6-3.6V39.9zM40.8 0l-6.5 2.9 6.1 2.6 7-2.6L40.8 0zm-9.1 3.8v12.8l8.1 2.4.3-11.7-8.4-3.5zm18.1.7l-7.7 3.3v12.6l7.7-3.6V4.5zM10 18.1l-6.5 2.8 6 2.6 7-2.6-6.5-2.8zM.2 21.6L0 34.4l9.5 4.3V25.4L.2 21.6zm19.6 0L11.2 25v12.6l8.6-3.6V21.6zm11.2-4l-6.5 2.8 6 2.6 7-2.6-6.5-2.8zm-9.8 3.5L21 34l9.5 4.3V24.9l-9.3-3.8zm19.5 0l-8.6 3.3V37l8.6-3.6V21.1zM61.2 0l-6.5 2.8 6 2.6 7-2.6L61.2 0zm-9.8 3.6l-.2 12.8 9.5 4.3V7.3l-9.3-3.7zm19.6 0l-8.6 3.3v12.6l8.6-3.6V3.6z" fill="#d4d7d9"/></svg>