<?xml version="1.0" encoding="UTF-8"?>
<svg width="86px" height="62px" viewBox="0 0 86 62" version="1.1" xmlns="http://www.w3.org/2000/svg" xmlns:xlink="http://www.w3.org/1999/xlink">
    <!-- Generator: Sketch 50.2 (55047) - http://www.bohemiancoding.com/sketch -->
    <title>Group 14</title>
    <desc>Created with Sketch.</desc>
    <defs></defs>
    <g id="design-v2" stroke="none" stroke-width="1" fill="none" fill-rule="evenodd" stroke-linecap="round" stroke-linejoin="round">
        <g id="Career's-page-Copy" transform="translate(-322.000000, -3580.000000)" stroke="#1ABC9C" stroke-width="5">
            <g id="Group-14" transform="translate(325.000000, 3583.000000)">
                <polyline id="Stroke-1" points="0 0 0 56 80 56"></polyline>
                <path d="M12,41 L24,22" id="Stroke-3"></path>
                <path d="M31,20 L41,25" id="Stroke-4"></path>
                <path d="M46,25 L63,6" id="Stroke-5"></path>
                <path d="M14,43.5021277 C14,45.4340426 12.4307412,47 10.5,47 C8.56500608,47 7,45.4340426 7,43.5021277 C7,41.5659574 8.56500608,40 10.5,40 C12.4307412,40 14,41.5659574 14,43.5021277 Z" id="Stroke-7" fill="#1ABC9C"></path>
                <path d="M31,18.4978723 C31,20.4340426 29.4349939,22 27.5,22 C25.5692588,22 24,20.4340426 24,18.4978723 C24,16.5659574 25.5692588,15 27.5,15 C29.4349939,15 31,16.5659574 31,18.4978723 Z" id="Stroke-9" fill="#1ABC9C"></path>
                <path d="M47,27.4978723 C47,29.4340426 45.4349939,31 43.5,31 C41.5692588,31 40,29.4340426 40,27.4978723 C40,25.5659574 41.5692588,24 43.5,24 C45.4349939,24 47,25.5659574 47,27.4978723 Z" id="Stroke-11" fill="#1ABC9C"></path>
                <path d="M69,3.49787234 C69,5.43404255 67.4307412,7 65.5,7 C63.5650061,7 62,5.43404255 62,3.49787234 C62,1.56595745 63.5650061,0 65.5,0 C67.4307412,0 69,1.56595745 69,3.49787234 Z" id="Stroke-13" fill="#1ABC9C"></path>
            </g>
        </g>
    </g>
</svg>