<svg width="86" height="81" xmlns="http://www.w3.org/2000/svg"><g stroke="#1ABC9C" fill="none" fill-rule="evenodd" stroke-linecap="round" stroke-linejoin="round"><path d="M76.76 15.978L59.278 3s-4.396 9.212-7.025 11.264c-1.752 1.363-6.452 2.099-8.2 3.462-2.214 1.728-5.132 6.843-5.859 9.53-.886 3.286.02 9.374-1.42 12.46-.915 1.962-4.68 4.693-5.561 6.668-.549 1.22-.337 5.133 4.348 4.559 4.684-.58 11.126-8.952 11.126-8.952l4.685-8.67h25.773L83 20.617M34 78c-2.76 0-5-2.218-5-4.952v-6.092C29 64.218 31.24 62 34 62s5 2.218 5 4.956v6.092C39 75.782 36.76 78 34 78zM44 78c-2.76 0-5-2.218-5-4.952v-6.092C39 64.218 41.24 62 44 62s5 2.218 5 4.956v6.092C49 75.782 46.76 78 44 78zM54 78c-2.76 0-5-2.218-5-4.952v-6.092C49 64.218 51.24 62 54 62s5 2.218 5 4.956v6.092C59 75.782 56.76 78 54 78zM64 78c-2.76 0-5-2.218-5-4.952v-6.092C59 64.218 61.24 62 64 62s5 2.218 5 4.956v6.092C69 75.782 66.76 78 64 78zM4 69.5h25" stroke-width="5"/><path stroke-width="5" d="M38 29l-9.58 9.064L3 40"/><path d="M69 70h8.32c2.586 0 4.68-2.07 4.68-4.624 0-2.555-2.094-4.625-4.68-4.625 2.586 0 4.68-2.074 4.68-4.629 0-2.55-2.094-4.624-4.68-4.624 2.586 0 4.68-2.07 4.68-4.625 0-2.554-2.094-4.624-4.68-4.624 2.586 0 4.68-2.065 4.68-4.625C82 35.07 79.906 33 77.32 33M77.708 42.5H71M77.708 51.5H71M77.708 61.5H71" stroke-width="6"/></g></svg>