<svg width="86" height="95" xmlns="http://www.w3.org/2000/svg"><g stroke="#1ABC9C" stroke-width="5" fill="none" fill-rule="evenodd" stroke-linecap="round" stroke-linejoin="round"><path d="M13 53h4v-4h-4zM30 53h4v-4h-4zM13 67h4v-4h-4zM30 67h4v-4h-4zM13 80h4v-4h-4zM30 80h4v-4h-4z"/><path d="M83 21v62.125C83 88.028 79.022 92 74.111 92H11.89C6.978 92 3 88.028 3 83.125v-2.463M3 69V20.887A8.886 8.886 0 0 1 11.889 12H74.11A8.886 8.886 0 0 1 83 20.887M61 3v18M25 3v18M3 36h80"/><path d="M73 65.507V80H49V49h24v5.673"/></g></svg>