<svg id="Layer_1" xmlns="http://www.w3.org/2000/svg" viewBox="0 0 48 60"><style>.st0{fill:#d4d7d9}</style><path id="Shape" class="st0" d="M21.6 0h9.8v44.7c-5 .9-8.7 1.3-12.7 1.3C6.7 46 .4 40.7.4 30.5c0-9.8 6.6-16.2 16.9-16.2 1.6 0 2.8.1 4.3.5V0zm.3 22.8c-1.2-.4-2.1-.5-3.3-.5-5 0-7.8 3-7.8 8.3 0 5.1 2.7 8 7.8 8 1.1 0 2-.1 3.4-.2V22.8z"/><path id="Shape_1_" class="st0" d="M47.4 15.5V38c0 7.8-.6 11.5-2.2 14.7-1.6 3.1-3.6 5-7.8 7.2l-8.9-4.3c4.2-2 6.3-3.8 7.6-6.5 1.4-2.8 1.8-6 1.8-14.5V15.5h9.5zM36.8 0h9.6v10h-9.6V0z"/></svg>