<svg id="Layer_1" xmlns="http://www.w3.org/2000/svg" viewBox="0 0 54.1 67"><style>.st0,.st1,.st2{opacity:.7;fill:#d4d7d9;enable-background:new}.st1,.st2{fill:#bbb}.st2{opacity:.8;fill:#d4d7d9}</style><path class="st0" d="M35.4 48.3v7.9l9.4 9.4v-7.9l-9.4-9.4m0 0h-7.8l7.8 7.9v-7.9m9.4 0h-9.4l9.4 9.4v-9.4"/><path class="st1" d="M46.7 55.8V37H28.1l18.6 18.8M35.4 48.3v7.9l9.4 9.4v-7.9l-9.4-9.4m9.4 9.4v7.9l1.4 1.4H35.4 54l-9.2-9.3m-9.4-9.4"/><path class="st1" d="M42.8 38.3V23.5H28.1l14.7 14.8"/><path class="st2" d="M49.8 34.8V16H31.2l18.6 18.8"/><path class="st2" d="M22.5 10.6v8.1-8.1M18.1 0v6.8h4.3V18.7h14.2L18.1 0"/><path d="M22.5 10.6v8.1-8.1m-14.9 0H0l18.5 18.7h4V18.7v6.8L7.6 10.6" opacity=".88" fill="#d4d7d9"/><path class="st0" d="M22.5 66.9V44.2H0l22.5 22.7"/><path opacity=".5" fill="#bbb" d="M22.5 48.1V29.4H3.9l18.6 18.7"/><path class="st0" d="M28.1 23.5v18.7h18.6L28.1 23.5"/><path d="M27.6 48.3V67h7.8V56.2l-7.8-7.9M18.1 6.8H3.8l3.7 3.8H18V6.8" opacity=".702" fill="#bbb"/><path opacity=".91" fill="#bbb" d="M35.4 56.2V67h10.8l-1.4-1.4-9.4-9.4"/><path opacity=".973" fill="#bdbdbd" d="M35.4 56.2l9.4 9.4-9.4-9.4"/><path opacity=".941" fill="#c1c2c3" d="M22.4 6.8h-4.3v3.8h4.3V6.8"/><path opacity=".965" fill="#c2c3c3" d="M18.1 10.6H7.6l14.8 15v-6.9h-4.3v-8.1"/><path opacity=".992" fill="#c2c3c4" d="M22.4 10.6h-4.3v8.1h4.3v-8.1"/></svg>