<svg xmlns="http://www.w3.org/2000/svg" viewBox="0 0 59 66"><path d="M56 41.5c-.5-.3-1-.5-1.6-.6V25.2c.6-.1 1.1-.3 1.6-.6 2.8-1.6 3.8-5.2 2.2-8s-5.2-3.8-8.1-2.2c-.5.3-.9.6-1.3 1.1L35.2 7.6c.2-.5.2-1.1.2-1.7 0-3.3-2.6-5.9-5.9-5.9s-5.9 2.6-5.9 5.9c0 .6.1 1.1.2 1.7l-13.6 7.8c-.4-.4-.8-.8-1.3-1-2.8-1.6-6.4-.7-8.1 2.2-1.6 2.8-.7 6.4 2.2 8 .5.3 1 .5 1.6.6v15.7c-.6.1-1.1.3-1.6.6-2.8 1.6-3.8 5.2-2.2 8s5.2 3.8 8.1 2.2c.5-.3.9-.6 1.3-1l13.6 7.8c-.2.5-.2 1.1-.2 1.7 0 3.3 2.6 5.9 5.9 5.9s5.9-2.6 5.9-5.9c0-.6-.1-1.3-.3-1.9l13.5-7.8c.4.5.9.9 1.5 1.2 2.8 1.6 6.4.7 8.1-2.2 1.6-2.8.7-6.4-2.2-8zm-48.4-.6c-.1 0-.2 0-.2-.1V25.1c1.5-.4 2.9-1.3 3.7-2.8.8-1.4 1-3 .6-4.6L25.2 10l.2.2L7.6 40.9zm26.3 15.3c-1.1-1.2-2.7-1.9-4.4-1.9-1.6 0-3.1.6-4.3 1.8l-13.6-7.8c0-.1 0-.2.1-.2h35.7c0 .1.1.3.1.4l-13.6 7.7zM48 43.6c-.3.5-.5 1-.6 1.6H11.7c-.1-.5-.3-1.1-.6-1.6s-.6-.9-1-1.3l17.8-30.8c.5.2 1.1.2 1.6.2.6 0 1.1-.1 1.7-.2L49 42.3c-.4.4-.8.8-1 1.3zm3.7-2.8c-.1 0-.2 0-.2.1L33.6 10.1l.2-.2 13.7 7.9c-.5 1.6-.3 3.2.5 4.6s2.2 2.4 3.7 2.8v15.6z" fill="#d4d7d9"/></svg>