<svg id="Layer_1" xmlns="http://www.w3.org/2000/svg" viewBox="0 0 76 84"><style>.st0{fill:#d4d7d9}</style><path class="st0" d="M12.4 47.3c3.3 0 5.9-2.7 5.9-5.9s-2.6-5.9-5.9-5.9-5.9 2.7-5.9 5.9 2.7 5.9 5.9 5.9zM43.9 41.4c0-3.3-2.6-5.9-5.9-5.9-3.3 0-5.9 2.7-5.9 5.9s2.6 5.9 5.9 5.9c3.2 0 5.9-2.7 5.9-5.9zM41.1 32.2l9.4-19.1L60 32.3c.4-.2.8-.3 1.2-.4l9.5-28.1H30.4l9.5 28c.4.1.8.2 1.2.4zM57.5 41.4c0 3.3 2.6 5.9 5.9 5.9s5.9-2.7 5.9-5.9-2.6-5.9-5.9-5.9c-3.2-.1-5.9 2.6-5.9 5.9z"/><path class="st0" d="M63.4 51.1c-5.3 0-9.6-4.3-9.7-9.6l-6-.1c0 5.3-4.4 9.7-9.7 9.7-.5 0-1 0-1.5-.1-1.6 2.5-3.5 4.8-5.8 7-3.5 3.3-7.4 5.7-11.6 7.2l-.8.3-.7-.5c-5.4-2.8-7.9-8.6-6.3-14-.9-.1-1.7-.3-2.5-.6-.2.6-.5 1.2-.8 1.7-1.6 3.3-3.2 6.7-3.9 10.4-.7 4-.9 11.2 4.7 15.2 7.7 5.4 15.9 1.3 25.4-3.4 4.7-2.4 9.6-4.8 14.7-6 1.9-.5 3.9-.8 5.8-1 3.5-.5 6.9-1 9.7-2.6 3-1.7 5-4.6 5.6-7.9.4-2.5 0-5-1.1-7.3-1.6 1-3.5 1.6-5.5 1.6z"/></svg>