<svg id="Layer_1" xmlns="http://www.w3.org/2000/svg" viewBox="0 0 549 549"><style>.st0{fill:#cc7441}.st1{fill:#424548}.st2{fill:#e49d73}.st5{fill:#898989}.st6{fill:#a87d50}.st7{fill:#0e131f}.st10{fill:#34495e}.st11{fill:#26276d}</style><path id="Shape" class="st0" d="M91 43.6c-3.3-.7-6.8-4.4-7.2-7.6-4.4 6-8.6 12.1-15.2 15.2C54.3 58 58 44.3 48.9 41.4 39 38.2 36.7 66.9 50 64.6c3.5-.5-.5 7.8-4.1 8.4 4.2.5 7.5 4.6 6.3 8.7-1.2 4.1-3.6 8.2-7.6 9.8-.8.3-1.1 2-1.1 2-1.6 4-6 15.4-11 20.7-12.4 17.4 0 5.9 4.9 6.5 10.7 1.4 21 18.4 28.2 16.3-1.9-10.2-1.1-28.2 2-34.3 3.8-7.7 1.6-7.4 9.8-4.7 5.4 1.9 13.3-2 18.7-9.1l1.4-2.1c1.2-2 2.2-4.1 2.9-6.3 3.2-.2 6-2.2 4.9-4-.8-1.4-2.9-10.5-2.4-12s3.2-7.9 3.2-9.6-.4-8.6-.7-12.3c-2.2-.4-6-3.6-7.9-4.6-1.5 3-3.3 6.1-6.5 5.6z"/><path id="Shape_1_" class="st1" d="M103.4 25c-2.3-1.7-5.1-2.8-6.6-5.2-1-1.9-1.5-3.8-1.9-5.8-2-7.4-7.7-11.3-21.6-13.6-10.2-1.7-18.9 2.4-24.5 5.8-1.4.9-7.8 1.4-11.8.9-6.8-.9-10.7 7.7-13.4 14.8s-1 10.5-2.3 17.9c-.2 1.9-.9 3.6-2.1 5-1.3 1.3-3.3 1.9-5 2.6-5.3 2.8-7.8 9.1-6.1 14.9 2.2 5.7 8.1 8.9 14 7.7-4 5.4-1.6 13.8 3.6 18.1 4.7 3.7 11.1 6.4 16.9 5.3.9-.1 1.6-.3 2.4-.7 4-1.6 6.8-5.8 8.1-9.9 1.3-4.1-.9-9.6-5.1-10.2 3.5-.5 5.8-9.4 2.2-8.7-13.3 2.2-10.7-24.8-.9-21.7 9 2.9 4.5 16.3 18.6 9.6 6.6-3.2 11.7-8.7 16-14.6.3 3.3 2.8 6 6.1 6.5s6.5-1.1 7.9-4.1c2.1 1.1 4.4 2.8 6.5 3.2.9.2 1.9.1 2.6-.3 6-3.1 1.5-13.5-3.6-17.5z"/><path id="Shape_2_" class="st2" d="M261.3 142.7c-6.6-3-13.8-19.8-6.4-16 7.4 3.7 3.9-15.2 2.1-18.2-1.7-3-8.9-2.5-7.4 4.7 1.3 6-10.4 18.4-9.7 17.8 1.6-1.9 3.3-4.8 2.1-13.9-1.3-8.7-4.2-17.5-7.5-25.7l-5.3 10.7-12.8-3.2c-.3 2.1-.9 4.8-.5 6.4.3 2.1.3 3.7 0 4.8 0 1.6-4.2 9.5-5.3 10.8-1.4 1.5.6 4.2 3.6 5.1.1 2.2.5 4.5 1.2 6.7l.7 2.2c3.2 8.1 9.7 13.8 15.4 13.5 8.4-.5 13.4.4 15 8.8 1.3 6.5 1.7 17.6.4 18.7 12.8 11.8 36.9-7.5 34.8-9.1-4-7.3-9.6-11.8-10.1-13.6-.5-2-.7-4.2-.9-6.3-3.7-1.1-7.5-2.4-11-4.1l1.6-.1z"/><path id="Shape_4_" d="M314.1 86.7c-.1-2.5-.6-4.9-1.7-7.2-2.2-4.1-7.1-5.8-11.4-7.2-4.9-1.4-9.7 6.8-11.7 12.5-.4-.6-.9-1.2-1.4-1.7-8.1-8.1-25.7-20.4-45.4-10.6 0 0-21-1.4-25.2 6.5-3.1 6.2-5.5 12.6-7.3 19.4l7 1.7 12.2 2.9 4.9-10.8c3.3 8.1 5.7 16.7 7 25.3 1.2 9.1-1.8 13.9-3.4 15.8 3.3-3.4 13.6-14.3 12.3-20.3-1.4-7.2 4.7-7.1 6.4-4.1 1.7 3 5.2 20.6-2.1 16.9-7.3-3.7-.9 14 5.8 17 3.5 1.6 7.2 3 10.9 4.1 0 0 13.9-19.1 19.3-23.2 2.9-2.2 4.3-11.7 3.7-21.2l.7 1c9.2 11.8 15.4 25.5 18.3 40 1.6.5 2.5-1.7 2.6-3.4.5-17.7.1-35.6-1.5-53.4z" fill="#603a17"/><path id="Shape_5_" d="M154 278.2h-1.1V275c0-1.6-1.3-2.9-2.8-2.9h-18.5c-1.6 0-2.8 1.3-2.8 2.9v23.9c0 4.7 3.9 8.6 8.4 8.6h7.2c4.7 0 8.4-3.9 8.4-8.6v-1.6h1.1c3.1 0 5.7-2.6 5.7-5.7v-7.7c0-3.3-2.5-5.7-5.6-5.7zm2.9 13.4c0 1.6-1.3 2.9-2.8 2.9H153v-13.4h1.1c1.6 0 2.8 1.3 2.8 2.9v7.6z" fill="#1cb7c8"/><path id="Shape_6_" class="st5" d="M530.3 390.1h-94.7c-1.5 0-2.7 1.2-2.7 2.7v18.7c0 1.5 1.2 2.7 2.7 2.7h19.5l-26.7 134.9h12.3l26.7-134.9h31.3l28.2 134.9h12.2l-28.2-134.9h19.4c1.5 0 2.7-1.2 2.7-2.7v-18.7c0-1.5-1.2-2.7-2.7-2.7z"/><path id="Shape_8_" class="st1" d="M537.7 327.4c-.3.3-43.7-7.9-70.6-7.9-32.7 14.9-73.2 42.3-104.1 60.7v168.9h47.3c-1.7-11.9-1.5-125.2.9-127.1 5.7-4.8 23.8-9.8 45.4-14 4.1-.8 8.4-1.6 12.7-2.3 13.1-2.2 26.9-4 39.5-5.3 27.7-2.7 38.9-36.9 28.9-73z"/><path id="Shape_9_" class="st6" d="M387.5 258.6c-.2 0-33.8 5.9-46.4 15.4 0 0-3.2 3.8 10.5-.7 13.8-4.6 2.7 7.7 16.6 6.5 10-.7 16-6.6 20.6-9.8 3.5 2.1 14.2 8.3 23.4 13.6l3.1-21.8c-13.9-1.4-27.7-3.2-27.8-3.2z"/><path id="Shape_10_" class="st6" d="M497.2 158.2c-5-2.9-11.1-7.1-13.4-10.6-2.2-3.8-3.8-8-5.1-12.2l.5-1.2c-1.8-1-3.9-.7-5.9-3.1-.7-.9-3.1-1.5-2.1-2.1 5.1-3.3-4.2-21.6-11.4-16.6-3.5 2.5 1 12.4-3.1 12.4-2 0-5.7-4-6.2-6-.3-1-2.1-7.4-4.4-10.6-1.7-2.7-3.4-4.6-6-6.2-2.7-1.7-7.9-2-10.4 0-6 5-10.2 9-16.3 6.2 0 6.2 1.3 10.2 2.3 11.7 1.2 3.4 1.7 5.7 1.6 6.9-.8 3.4-2.1 6.7-3.7 9.8-.9 1.9 3.8 5.3 7.1 4 .8 2.1 2 4.1 3.3 5.9 0 0 .7.8 2.2 2.5 5.8 6.4 15 13.3 20.1 11.1 7.8-3.3 10.6-10.5 12.3-2.1 2.3 10.3 2 24.4 2.3 24.7 9.7.3 21.8-8 36.3-24.5z"/><path id="Shape_11_" class="st7" d="M416.5 118.2c-.4.2-.8.4-1.1.6 0 0 .4 2 .4 2.2 1.5-1.7 4.8-1.8 4.8-1.8-1-1.5-2.7-1.8-4.1-1z"/><path id="Shape_12_" class="st7" d="M428.5 142.6s-.4 5.4-3.7 4.2v.1l2 2.5.3.4c.3-.5 2.7-3.8 1.4-7.2z"/><path id="Shape_13_" d="M542.6 215.2c-8.5-49.7-34.6-53.1-45.3-57.8-1.8-.7-3.8-.2-5 1.2-12 15.2-24.9 24.9-29.9 23.6-.3-.1-.6-.1-1-.1-1.8 0-3.3 1-3.9 2.6-12.2 30.7-2.1 55.2.6 76.1l-40.2-3c-1.9-.2-3.7 1-4.1 2.9v.3l-2.7 21.1-.7 6c-.1 1.5.9 2.8 2.4 2.9l42 7.7c-2.6 8.6-5.3 12.7-5.1 17.8.1 1.5.9 2.8 2.2 3.5 1.1.6 2.3 1.1 3.5 1.7 20.2 8 67.8 6.2 82 5.6.2 0 .4-.2.7-.5 3.8-4.5 17.4-36.7 4.5-111.6z" fill="#607075"/><path id="Shape_14_" d="M482 83.3c-6.7-9.2-17.8-13.1-28.7-14.1-5.9-.5-12.1-.6-17.5 2.3-4.5 2.4-7.8 6.5-11.9 9.5-4.7 3.5-10.4 5.5-14.5 9.7-4.1 4.2-2.6 14.1 2.3 17.2.5.3 1.1.6 1.8.9 6.2 2.8 11.4-1.2 17.4-6.1 2.5-2 5.9-2.2 8.7-.5 2.7 1.7 5 3.9 6.6 6.6 2.3 3.2 3.2 9.1 3.5 10.2.6 2 3.7 6.5 5.7 7 8.9 2.4 1-9.5 4.6-12 7.1-5 15.5 11 10.5 14.3-.9.6.7 2.2 1.3 3.1 2 2.4 5.2 3.3 8.2 2.6 4.2-.8 7.9-3.4 9.9-7.3 4-8.7 2.9-28.5-7.9-43.4z" fill="#1b5f8d"/><path id="Shape_15_" class="st10" d="M27.8 283.3c-7.1 11.2-16.1 21.9-23.7 53.5-8.1 33.6-.1 89.5 7 147.9 2.8 23.2 2.1 56.7 3.5 64.5h84.9c1.6-61.1.5-227.6-2.4-261.5-.7-7.1-65.5-10.5-69.3-4.4z"/><path id="Shape_16_" class="st11" d="M330.3 365.2s11.7-60.8-1.8-49.3c-20 16.9-97.5 5.7-97.5 5.7s-23.7 35.5-26.4 51.8c-5 3.7-24.6 54.3-24.6 64.5 0 35 13.6 98.5 19.3 111.3h144.2c3.4-23.5-30.4-94.9-27.6-107.7 4.3-20.1 14.4-76.3 14.4-76.3z"/><path id="Rectangle-path" transform="rotate(-60 159.454 171.503)" class="st10" d="M123 167.7h73v7.6h-73z"/><path id="Shape_17_" class="st2" d="M190.4 278c-5.5-1.3-12.9-4.5-22.5-1.6-4.3 1.3-8.3 3.2-12.1 5.7-2.1 1.4-3 4-2.2 6.4.7 2.4 3 4.1 5.6 4 15.6-.1 34-3.7 34.1-3.7l.5-.1.1.4 11.1 5.8c10.6 5.5 5-15.8-.2-16.2-8.5-.5-14.4-.8-14.4-.7z"/><path id="Shape_18_" class="st10" d="M216.9 103.3l-.2.9c-.1.3-.2.5-.3.9 1.9-.7 5.3.2 5.3.2-.9-1.8-2.9-2.6-4.8-2z"/><path id="Shape_19_" class="st10" d="M216.1 109.4c.1-.2.1-.4.2-.5v-.1c-1.4.5-3.1.4-4.3-.3 0 0 1.6 2.9 3.9 1.9l.2-1z"/><path id="Shape_20_" class="st10" d="M215.3 131.6l1 3.5v.1s3.4-2.5 3.2-6.4c0 0-1.8 4.9-4.2 2.8z"/><path id="Shape_21_" class="st11" d="M281.5 165.1s32.2 6.6 40 15.1c2.9 3.1 12.5 51.3 9.4 78 2.2 21.5-113.5 33.3-108.5 12.9-4.2-45.1-.6-91.4 20.3-89.4 17.4 9 38.8-16.6 38.8-16.6z"/><path id="Shape_22_" d="M292.6 164.6l-15-7.9c-.6-.3-1.4-.1-1.8.4l-17.6 22.2-9.4-10.4c-.3-.3-.6-.5-1.1-.5-.4 0-.9.2-1.1.5L239 178c-.3.3-.4.7-.3 1.2.1.4.3.7.7 1l18.7 10.4c.4.3 1.1.2 1.5-.1l32.9-23.5c.4-.3.6-.7.6-1.3.2-.3-.1-.8-.5-1.1z" fill="#fff"/><path id="Rectangle-path_1_" d="M202.4 217.5h128.4c1.8 0 3.2 1.4 3.2 3.2v83.4c0 1.8-1.4 3.2-3.2 3.2H202.4c-1.8 0-3.2-1.4-3.2-3.2v-83.4c0-1.8 1.4-3.2 3.2-3.2z" fill="#d4d7d9"/><path id="Shape_23_" class="st0" d="M112.4 154.9c.2 0 34.1-5.3 49.2-.3 0 0 4.4 2.6-10.2 2.6-14.6.1-.1 8.2-13.8 11.5-9.8 2.5-17.4-1.1-22.8-2.7-4.2 4.8-18.1 20.6-28.1 31.5-5.1 5.6-9.5-26.9-8.1-27.5 16.7-7.5 33.7-15.1 33.8-15.1z"/><path id="Shape_24_" class="st10" d="M400 309.1h-85.5L284 224.4l6.3-2.3 28.9 80.3H400z"/><path id="_x31_553be25-8e51-4dcc-8949-bf4cefbc1f7a" d="M248.4 259.5v14.3c0 2 1.7 3.6 3.9 3.6h15.4l-19.3-17.9z" fill="#00945e"/><path id="b022b8b0-87a4-445b-967e-36f42c250acf" d="M259.5 277.4H280c2.6.1 4.7-1.9 4.8-4.6v-18.9l-25.3 23.5z" fill="#00a6cf"/><path id="_x32_5123cf8-5d42-4241-8049-bbd5d54f1f69" d="M279.1 249.5l-15.7 15.1 5.6 5.3 15.8-15.1v-3.1c-.1-1.3-.9-2.5-2.1-3-1.2-.4-2.6-.2-3.6.8z" fill="#2360ac"/><path id="_x35_afd1e2b-5e98-4b2e-82b9-a58a18b58b00" d="M263.4 264.6l-10.4-9.9c-.7-.7-1.8-.9-2.8-.5-1 .4-1.6 1.3-1.7 2.4v3.4l10.1 9.9 4.8-5.3z" fill="#3bae49"/><path id="_x39_882efd4-3187-4c46-b596-9e741b439dcb" d="M263.4 264.6l-7.7 7.9c-.9.9-1.1 2.1-.6 3.2.4 1.1 1.6 1.8 2.8 1.7H270c1.2.1 2.2-.6 2.8-1.7.5-1.1.2-2.4-.6-3.2l-8.8-7.9z" fill="#95c93f"/><path id="e1b13878-1f2c-492a-a6cb-11e44ba22ae9" d="M258 269.6l4.2 4.1c.9.7 2 .7 2.9 0l4.2-4-5.9-5.1-5.4 5z" fill="#4a9d45"/><path id="Shape_25_" class="st10" d="M105.6 56.9v.8c-1.7-1.1-5.4-1-5.4-1 1.4-1.3 3.7-1.5 5.4-.5v.7z"/><path id="Shape_26_" class="st10" d="M102.5 65V64.2c1.1.9 2.7 1.1 4.1.5 0 0-2.5 2.6-4.4 1.2l.3-.9z"/><path id="Shape_27_" class="st10" d="M97.9 86.3l-2.1 2.8v.1s-3.3-3-2-6.5c0 .1.9 5 4.1 3.6z"/><path id="Shape_28_" d="M40.4 112.2c10.6-.3 28.9 26.1 28.9 26.1S88.1 171 92.4 188c3.7 15.1 7.2 85.6 7.5 99.2 0 1.5-1.2 2.8-2.7 2.9-11.8.9-59.9 3.8-70.7.1-12.4-4.4 14.5-34-2.3-74.3-14-33.8-17.5-102.7 16.2-103.7z" fill="#c04032"/><path id="Shape_29_" class="st0" d="M125.9 187.5c4.2-3.8 9.5-10.3 19.5-12.4 4.5-.9 9.1-1.1 13.7-.7 2.6.2 4.7 2.2 5.2 4.7.4 2.6-.8 5.1-3 6.3-14 7.4-32.4 13-32.6 13.2h-.5l.1.4c-6.5 9.7-28.9 42.6-32.1 45.5-2.3 2-2.5 5.4-12.3 2.9-7-1.7-20.7-22.2-20.7-22.2s62.4-37.9 62.7-37.7z"/><path id="Shape_30_" class="st5" d="M113 307.1V331h41.3v218.1h23.9V370.6h160.6v178.5h23.9V331H404v-23.9H113zm225.8 51.5H178.2V331h160.6v27.6z"/></svg>