<svg id="Layer_1" xmlns="http://www.w3.org/2000/svg" viewBox="0 0 550 550"><style>.st3{fill:#2360ac}.st7{fill:#cb7341}.st8{fill:#34495e}.st11{fill:#e49d73}.st13{fill:#603a17}.st16{fill:#0e131f}</style><g id="design-v2"><g id="Career_x27_s-page-Copy" transform="translate(-89 -179)"><g id="Mathspace_career-" transform="translate(89 179)"><path id="Shape" d="M13.4 362.9c-7.4 0-13.4-6-13.4-13.4V103.3C0 95.9 6 90 13.4 90h523.1c7.4 0 13.4 6 13.4 13.4v246.2c0 7.4-6 13.4-13.4 13.4l-523.1-.1z" fill="#f4f4f4"/><path id="_x33_59ad169-3f6e-451e-85cb-637f5f08fd18" d="M198 176v53.7c.2 8 6.7 14.4 14.6 14.3H271l-73-68z" fill="#00945e"/><path id="a88d9297-5185-4f70-bd16-5ca57a0ed88c" d="M249 244h74.6c10.2 0 18.4-7.8 18.4-17.5V157l-93 87z" fill="#00a6cf"/><path id="_x34_df5cc77-c837-4813-a288-e6c64029d0f0" class="st3" d="M319.8 136.7l-62.8 59 21.2 22.3 63.8-60.3v-12.2c0-11.1-14-16.7-22.2-8.8z"/><path id="f80d4b8e-c57d-4d29-9273-9e0ab1214887" d="M259 196.6L216.6 156c-6.9-6.6-18.6-1.9-18.6 7.4V177l40.8 39 20.2-19.4z" fill="#3bae49"/><path id="_x33_5ffe80c-cef8-46d1-8a07-a487a3e081ce" d="M257.5 195.2l-29.7 30.5c-7.2 6.8-2.1 18.4 8.1 18.4h46.2c10.1 0 15.2-11.6 8-18.3l-32.6-30.6z" fill="#95c93f"/><path id="ec9039d9-4e59-45ee-be6c-90a513042e3c" d="M238 215.2l15.7 15.6c3.2 3 8.3 3 11.5 0l14.8-14.5-22.4-21.1-19.6 20z" fill="#4a9d45"/><path id="Shape_1_" class="st7" d="M135.5 193.3c-1.2-1.1-5.7-8.4-5.7-9.9s.4-3.5 0-4.9c.6 0-.6-1.1-.6-1.1-.7-1.7-.9-3-.7-4.2 0 0-2.1-12.3-6.8-15.7-4.6-3.4-25.4-5.7-41.5 0-16.2 5.7-18.5 36.8-15.1 42.5 3.4 5.7-10.4 8-4.6 10.3 5.7 2.3 18.5 4.6 18.5 4.6s1 7.7 0 12.6c-.4 1.8-5.5 6.4-8.9 13.5-5.9 19.1 6.9 14.7 11.5 13.8 10-2 18.1.9 24-3 4.1-2.7 1.8-12.6 2.4-12.3-4.4-2.7-5.7-3.4-4.8-9.7 1.1-8 5.7-9.2 13.8-9.2 5.5 0 11.3-5.7 14-13.7l.6-2.2c.5-2.1.7-4.3.7-6.4 2.8-1.1 4.7-3.7 3.2-5z"/><path id="Shape_2_" class="st8" d="M128 178.5c-.1-.3-.2-.4-.3-.7l-.3-.7c-1.8-.4-3.7.4-4.4 1.9 0 0 3.2-1 5-.5z"/><path id="Shape_3_" class="st8" d="M129.4 184.8c1.6 1 2.6-2.8 2.6-2.8-.8 1-2 1.3-3 .6v.1c.1.3-.1 1 0 1.2l.4.9z"/><path id="Shape_4_" class="st8" d="M127 202c0 3.2 3.2 5 3.2 5v-.1l.8-2.8v-.1c-2 1.9-4-2-4-2z"/><path id="Shape_5_" class="st8" d="M121.7 161.3s-15.9 24.8-20.4 21.7c-4.3-3-5.7 2-5.4 5.6.3 3.7 0 8.7 7.6 8.8l-1.9 22.4c-7.5 3.5-43.7-1.6-50.6-1.6l3.2-16.4c1.5-5.3 2.7-10.6 3.4-16.1.2-3.8 2.1-13.8 3.9-18.1 1.8-4.3 6.7-13.4 20.7-19.3s35.7 1.2 42.2 2.1c10.1 1.4 6.4 7.7 8.4 17.2 1.8 4.3 3.8 11.3.1 12.7-1.5.5-3.7 1.1-4 .5-.2 0-3.5-12.2-7.2-19.5z"/><path id="Shape_6_" class="st7" d="M80.9 467.3l-39-4.3c-3.2 13.5-5 70.3-8 87h20c8-29 22.7-75.4 23.8-77.2.6-1.2 1.7-3 3.2-5.5z"/><path id="Shape_7_" class="st7" d="M79.9 478.6c2.1 7.5 7.3 56.6 11.5 71.4h21.5c.4-15.1-1-66.2 0-80.2L87.1 468c-4.2 6.1-7.2 10.6-7.2 10.6z"/><path id="Shape_8_" d="M157 290.5s-16.1-15.4-20-20.5c-8.6-11.3-13.7-20.7-21.7-26.4-1.8-1.3-3.3-2.1-4.5-2.9-1.2-.8-9.6-3.3-26.6.2-5 .8-10 1.2-15 1.3-3 6.5-4.1 13.1-4.6 22.2-1.1 21.9 8.1 36.9 7 50.6-.5 4.4-1.6 8.8-3.3 13-4.3 11.7-15.4 24.8-25.3 59S25.1 494.9 25.1 494.9l100.7 7 9.1-146.1s.7-14.5 2-43.5l20.1-21.8z" fill="#f4b42e"/><path id="Shape_9_" class="st7" d="M136 312.5s42.9-46.6 47.9-52.5c5-5.9 16.1-27.8 28.9-35.9 0 0 4.5-1.6-4.3 9.1s5.9 4.9.1 17c-5.8 12-17.7 13.9-19.4 18.9-1.7 5.1-15.4 48.1-18 52-1.5 2.4-.8 5.5-10.5 5.9-6.7.2-24.7-14.5-24.7-14.5z"/><path id="Shape_10_" class="st3" d="M526 447.7c-.7-12.8-8.3-73.2-20.2-86.4-4.6-5.2-81.1 6.8-81.1 6.8l-25 181.9h51.2l15.2-62.7 10.3 62.7h48.5c0-38 2.8-71.7 1.1-102.3z"/><path id="Shape_11_" fill="#26276d" d="M422.7 382.7l91.5-2.9-3.2-9.3-87.4 5.3z"/><path id="Shape_12_" class="st11" d="M398.8 162.5c0 2.2.2 4.4.7 6.5l.6 2.2c2.6 8 8.6 13.7 14 13.7 8.1 0 12.7 1.2 13.8 9.3.9 6.3 2.3 13.5-2.4 22 5.8 4 14 1 24 3 4.6 1 26.7 14.8 20.8-4.5-3.2-7.1-7.2-13.7-12-19.8-3.2-3.9-6.1-15.9-6.1-15.9s13.5-17.2 19.2-19.6c5.7-2.3-4.3-32.4-20.5-38.2-16.2-5.8-36.9-3.4-41.6 0-4.6 3.4-6.8 15.8-6.8 15.8-.3 1.3-.7 3-1.2 5.1-.2 1.1-.2 3.6-.2 5.1-.1 1.6-4.6 8.9-5.8 10-1.3 1.6.7 4.2 3.5 5.3z"/><path id="Shape_13_" class="st8" d="M401.6 140.1l-.3.7c-.1.3-.2.5-.3.7 1.8-.5 5 .5 5 .5-.7-1.5-2.6-2.3-4.4-1.9z"/><path id="Shape_14_" class="st8" d="M399 168v.1l.8 2.8v.1s3.2-1.8 3.2-5c0 0-1.9 3.9-4 2z"/><path id="Shape_15_" class="st11" d="M343 237.9c-5.5-4.5-13.7-6.3-15.7-3.5-3.4 4.8 1 7.6 4.9 11.1 8.6 7.6 22.2 21.9 27.3 28.5 8.5 11.3 7.6 10.7 17.3 16 5.9 3.2 8.5-2 14.1-5.6.7-5.3-3.6-9.8-7.6-13.4l-12.2-11.1c-5-4.5-10.3-6.4-15.7-9.9-4.8-3.2-7.5-8.1-12.4-12.1z"/><path id="Shape_16_" class="st11" d="M365.7 399.3c-3.4 6.3-3.6 14.6-.5 16 5.3 2.4 7.3-2.4 9.9-6.9 5.9-9.8 17.3-25.7 22.9-31.9 9.5-10.4 9.1-9.4 12.5-19.9 2-6.3-3.6-7.9-8.1-12.7-5.3.3-9 5.4-11.8 9.9l-8.6 14c-3.5 5.7-4.3 11.3-6.8 17.1-2.1 5.3-6.4 8.9-9.5 14.4z"/><path id="Shape_17_" d="M522.5 366.4c-8.2-8.3-24.5-41.9-28.4-81.6-2.7-27.7-10.4-54.7-22.8-79.6-.3-.6-.9-1-1.6-1 0 0-13.4-1.2-17.8-1.2-6.5.1-25.9 4.4-25.9 4.4-1.1 0-2.1.4-2.8 1.2-.7.8-1.2 1.8-1.1 2.8L410.7 275l-43.2-28.8c-.6-.4-1.4-.5-2.1-.3s-1.3.8-1.5 1.5l-11.5 36.4c-.3 1 0 2 .8 2.6l52.2 40.4-33.4 47.3c-.7 1.1-.5 2.5.5 3.2l22.7 17.1c1 .7 2.3.6 3.2-.2 4.1-4.3 10.5-10.6 17.2-17.6 2.5-2.6 6.2-3 4.5-1v.5s39.7-1.3 52.8-2.1c12.2-.8 48.5-4.6 48.5-4.6.7 0 1.3-.5 1.6-1.1s0-1.4-.5-1.9z" fill="#1cb7c8"/><path id="Shape_18_" class="st13" d="M412.2 129.7c1.5 0 3 .6 4.1 1.6 1 1.4.7 3.2.6 4.8-.7 10.8 12.3 19.8 22.2 15.4-6.2 4 8.5 20.4 11.5 27.1 3 6.7 6.5 4.6 12.2 0-6.1 3.8 49.8-51.1-8.9-68.7 1-3.6-2-7.2-5.5-8.4-7.4-2.4-16 2-23.4 2.8-4.8.5-10.3-.8-14.9.2-4.1.9-10.1 11.6-11.5 16.2-3 9.7 6.6 8.3 13.6 9"/><path id="Shape_19_" d="M462.8 252.1c-.7-1.5-1.6-2.9-2.8-4.1 5.4 19.2-8.1 81.4-8.1 81.4-6 10.6-12.9 20.6-20.5 30-4.8 6-10.1 11.2-15.8 17.2 17.7 2.7 40.1-40.6 40.1-40.6s14.8-68.5 7.1-83.9z" fill="#1b5f8d"/><path id="Shape_20_" d="M288.8 111.5c0-.9 3.1-1.5 3.1-1.5s3.3-39.1 3-54.3-17-16.9-17-16.9S233.6 33 216 33s-24 11-24 11l-37 40.1 52.7 6.9h58.4l2.8 20.2c6.6 1 13.3 1.1 19.9.3z" fill="#1abc9c"/><path id="Shape_21_" class="st13" d="M272 111l.2 6.8s2.2 33.9 4.5 54.2c1.4 11.7 2.5 24.1 9.1 23 6.7-1.1.6-15.9.6-20.3s2.8-23.1 3.3-32c.5-7.6.1-26.1 0-31.4-5.8.7-11.8.7-17.7-.3z"/><path id="Shape_22_" class="st13" d="M272 40.7c0-14.2-12.8-25.7-28.5-25.7S215 26.5 215 40.7c0 12.3 9.6 22.6 22.4 25.1 1.3 2 3 3.7 4.9 5 .7.4 1.6.4 2.3 0 2-1.3 3.6-3 4.9-5C262.4 63.2 272 53 272 40.7z"/><path id="Shape_23_" class="st16" d="M262.8 55.7c-1.1-.2-2.3-.2-3.5-.1-1.1.1-2.3.2-3.4.4-1 .3-2.1.6-3.2.8-.6.1-1.2.1-1.7.1-.6 0-1.3 0-1.9-.1 0 0-.1 0-.1-.1v-.1c.7-1 1.8-1.8 3-2.3 1.2-.4 2.5-.5 3.7-.4 1.3 0 2.5.1 3.7.3 1.2.2 2.4.6 3.4 1.2.1 0 .1.1.1.2.1.2 0 .2-.1.1z"/><path id="Shape_24_" class="st16" d="M224 55.6c1.1-.5 2.2-.9 3.4-1.2 1.2-.2 2.5-.4 3.7-.3 1.3-.1 2.5 0 3.7.4s2.3 1.2 3 2.2v.2h-.1c-.6.1-1.3.1-1.9.1-.6 0-1.2-.1-1.7-.1-1.1-.2-2.1-.5-3.2-.9-1.1-.2-2.3-.4-3.4-.5-1.2-.1-2.3 0-3.5.1h-.1.1z"/><path id="Shape_25_" class="st16" d="M241.1 43.7c2-.6 4-1.7 6.1-1.4 1.7.5 3.3 1.3 4.6 2.4 3.3 2 7.2 2.6 10.9 3.2 4.9.7 10.3 4.6 14.6 2.2 4.3-2.4 3.7-9.1 5.5-13.6.6-1.3 1-2.6 1.1-4 .2-5-5.5-7.9-8-12.2-1-2.2-1.8-4.4-2.6-6.6C270.1 6.5 262 3 254.5 1.5 245.4-.4 236.1-.6 227 .8c-4.3.7-8.7 1.8-11.8 4.9-1.5 1.6-2.8 3.4-3.8 5.3-5.1 9.1-9.3 19.9-6.6 30.1 1.2 4.6 5.5 9.3 9.8 7.4 4.5-2 4.6-9.4 9.9-10.4 6.2-1 9.3 7.6 16.6 5.6z"/><path id="Shape_26_" class="st13" d="M169.5 78.1c6.5-.4 12.9.2 19.2 1.9 7.5 1.9 14.7 4.7 22.3 6.2 3.8.8 7.8 1.2 11.4 2.8 5.7 2.7 9.6 8.1 10.5 14.4.3 1.6 0 3.2-.7 4.6-2.2 3.3-7.2 1.8-10.7 0-1.2-.6-8.4-10.8-11.7-11.8-3.3-.8-6.8-1.1-10.2-.8-13.9.3-28.8 2.4-42.6 1.1-6.6-.6-5.7-5.8-1.7-12.7 2.6-4.8 8.9-5.4 14.2-5.7z"/></g></g></g></svg>