<svg xmlns="http://www.w3.org/2000/svg" viewBox="0 0 62 60"><path d="M30.7 0C15.3 0 16.3 6.7 16.3 6.7v6.9H31v2.1H10.5S.6 14.6.6 30.1s8.6 15 8.6 15h5.1v-7.2s-.3-8.6 8.5-8.6h14.6s8.2.1 8.2-7.9V8s1.2-8-14.9-8zm-8.1 4.6a2.732 2.732 0 0 1 2.7 2.7 2.732 2.732 0 0 1-2.7 2.7c-.7 0-1.4-.3-1.9-.8S20 8 20 7.3s.3-1.4.8-1.9c.4-.5 1.1-.8 1.8-.8z" fill="#bbb"/><path d="M31.5 60c15.4 0 14.4-6.7 14.4-6.7v-6.9H31.2v-2.1h20.5s9.9 1.1 9.9-14.4-8.6-15-8.6-15h-5.1v7.2s.3 8.6-8.5 8.6H24.8s-8.2-.1-8.2 7.9V52s-1.2 8 14.9 8zm8.1-4.6a2.732 2.732 0 0 1-2.7-2.7 2.732 2.732 0 0 1 2.7-2.7 2.732 2.732 0 0 1 2.7 2.7 2.732 2.732 0 0 1-2.7 2.7z" fill="#d4d7d9"/></svg>