<svg id="Layer_1" xmlns="http://www.w3.org/2000/svg" viewBox="0 0 67 59.6"><style>.st0{fill:#d4d7d9}</style><path class="st0" d="M55.1 19.3c-.7-.2-1.4-.5-2.2-.7l.3-1.5c1.6-7.9.6-14.3-3.1-16.4-3.5-2-9.2.1-15 5.1-.6.5-1.1 1-1.7 1.5-.4-.3-.7-.7-1.1-1C26.4 1 20.3-1.3 16.7.8c-3.5 2-4.5 8-3.1 15.5.1.7.3 1.5.5 2.2-.9.2-1.7.5-2.5.8C4.5 21.9 0 25.7 0 29.8c0 4.2 4.9 8.3 12.3 10.8l1.8.6c-.2.8-.4 1.6-.5 2.4-1.4 7.4-.3 13.2 3.2 15.2 3.6 2.1 9.6-.1 15.5-5.2.5-.4.9-.8 1.4-1.3.6.6 1.2 1.1 1.8 1.7 5.7 4.9 11.3 6.9 14.8 4.9 3.6-2.1 4.8-8.4 3.2-16-.1-.6-.3-1.2-.4-1.8.4-.1.8-.3 1.2-.4C62 38.1 67 34 67 29.8c0-4.1-4.7-8-11.9-10.5zM37.1 8c4.9-4.3 9.6-6 11.7-4.8 2.2 1.3 3.1 6.5 1.7 13.4-.1.4-.2.9-.3 1.3-2.8-.6-5.8-1.1-9-1.4-1.8-2.6-3.8-5-5.7-7.1.5-.4 1.1-.9 1.6-1.4zM19.8 33.2c.6 1.2 1.2 2.3 1.9 3.5.7 1.2 1.4 2.3 2.1 3.4-2.2-.2-4.3-.6-6.2-1 .6-1.9 1.3-3.9 2.2-5.9zm0-6.7c-.8-2-1.5-3.9-2.1-5.8 1.9-.4 4-.8 6.1-1-.7 1.1-1.4 2.2-2.1 3.4-.7 1-1.3 2.2-1.9 3.4zm1.5 3.3c.9-1.8 1.8-3.6 2.9-5.4 1-1.8 2.1-3.5 3.2-5.2 2-.2 4-.2 6.1-.2 2.1 0 4.1.1 6.1.2 1.1 1.7 2.2 3.4 3.2 5.2 1 1.8 2 3.6 2.9 5.4-.9 1.8-1.9 3.6-2.9 5.4-1 1.8-2.1 3.5-3.2 5.2-2 .1-4 .2-6.1.2-2.1 0-4.1-.1-6.1-.2-1.2-1.7-2.3-3.4-3.3-5.2-1-1.7-1.9-3.5-2.8-5.4zm24 6.8c.7-1.2 1.3-2.4 1.9-3.5.9 2 1.7 4 2.3 5.9-1.9.4-4 .8-6.2 1.1.7-1.2 1.4-2.3 2-3.5zm1.9-10.1c-.6-1.2-1.3-2.3-1.9-3.5-.7-1.1-1.3-2.3-2-3.3 2.1.3 4.2.6 6.1 1.1-.6 1.7-1.3 3.7-2.2 5.7zm-13.7-15c1.3 1.4 2.6 3 3.9 4.8-2.6-.1-5.3-.1-7.9 0 1.4-1.8 2.7-3.4 4-4.8zM18.1 3.3c2.2-1.3 7.2.6 12.4 5.2.3.3.7.6 1 .9-1.9 2.1-3.9 4.5-5.7 7.1-3.2.3-6.2.8-8.9 1.4-.2-.7-.3-1.4-.5-2.1-1.2-6.4-.4-11.3 1.7-12.5zm-3.3 35.1c-.6-.2-1.1-.3-1.7-.5-3.3-1.1-6-2.6-7.8-4.2-1.7-1.4-2.5-2.8-2.5-4 0-2.4 3.6-5.6 9.7-7.7.8-.3 1.5-.5 2.3-.7.8 2.7 1.9 5.6 3.3 8.5-1.3 2.9-2.4 5.8-3.3 8.6zm15.5 13c-2.6 2.3-5.2 3.9-7.5 4.7-2.1.7-3.7.8-4.7.2-2.1-1.2-3-5.9-1.8-12.2.1-.7.3-1.5.5-2.2 2.7.6 5.8 1 9 1.3 1.9 2.6 3.8 5 5.8 7.1-.4.4-.8.8-1.3 1.1zm3.3-3.2c-1.4-1.5-2.7-3.1-4-4.8 1.3.1 2.6.1 3.9.1 1.4 0 2.7 0 4-.1-1.3 1.7-2.6 3.4-3.9 4.8zm17.4 4c-.4 2.1-1.2 3.6-2.2 4.2-2.1 1.2-6.6-.4-11.5-4.6-.6-.5-1.1-1-1.7-1.5 1.9-2.1 3.8-4.5 5.6-7.1 3.2-.3 6.3-.8 9.1-1.4.1.6.3 1.1.4 1.6.6 3.3.7 6.4.3 8.8zm2.4-14.3c-.4.1-.7.2-1.1.4-.8-2.7-2-5.5-3.4-8.5 1.3-2.9 2.4-5.7 3.3-8.4.7.2 1.4.4 2 .6 6.2 2.1 10 5.3 10 7.7-.1 2.6-4.1 6-10.8 8.2z"/><path class="st0" d="M33.5 23.8c3.3 0 6 2.7 6 6s-2.7 6-6 6-6-2.7-6-6 2.7-6 6-6"/></svg>