<svg width="362" height="262" xmlns="http://www.w3.org/2000/svg" xmlns:xlink="http://www.w3.org/1999/xlink"><defs><path d="M8.61 0h189.786c4.706 0 8.52 3.769 8.52 8.416v125.086c0 4.647-3.814 8.416-8.52 8.416H8.61c-4.706 0-8.52-3.769-8.52-8.417V8.416C.09 3.769 3.903 0 8.61 0z" id="a"/><path d="M8.61 0h189.786c4.706 0 8.52 3.769 8.52 8.416v125.086c0 4.647-3.814 8.416-8.52 8.416H8.61c-4.706 0-8.52-3.769-8.52-8.417V8.416C.09 3.769 3.903 0 8.61 0z" id="c"/><path d="M8.61 0h189.786c4.706 0 8.52 3.769 8.52 8.416v125.086c0 4.647-3.814 8.416-8.52 8.416H8.61c-4.706 0-8.52-3.769-8.52-8.417V8.416C.09 3.769 3.903 0 8.61 0z" id="e"/><path d="M8.61 0h189.786c4.706 0 8.52 3.769 8.52 8.416v125.086c0 4.647-3.814 8.416-8.52 8.416H8.61c-4.706 0-8.52-3.769-8.52-8.417V8.416C.09 3.769 3.903 0 8.61 0z" id="g"/><path d="M8.61 0h189.786c4.706 0 8.52 3.769 8.52 8.416v125.086c0 4.647-3.814 8.416-8.52 8.416H8.61c-4.706 0-8.52-3.769-8.52-8.417V8.416C.09 3.769 3.903 0 8.61 0z" id="i"/></defs><g fill="none" fill-rule="evenodd"><path d="M133.386 58.276c-4.436-6.786-5.16-13.501-2.695-18.824 2.196-4.743 6.721-7.747 11.6-7.752 5.42-.006 10.61 3.58 14.244 10.733 3.902 7.681.623 17.261-9.476 29.08-6.13-4.202-10.677-8.657-13.673-13.237zm25.974 1.418c3.112-6.94 3.38-13.283.503-18.944-4.23-8.327-10.642-12.756-17.554-12.75-6.366.006-12.206 3.884-15.003 9.924-3.02 6.525-2.153 14.572 2.95 22.38 3.208 4.904 7.977 9.61 14.319 14.01a129.748 129.748 0 0 1-2.904 3.063c-6.208 6.342-14.066 13.204-23.927 21.022-7.795 6.18-15.797 12.182-28.822 21.722.548-.4-9.462 6.925-12.202 8.939-11.326 8.319-19.078 14.18-26.138 19.848-8.7 6.985-15.549 13.083-20.825 18.665C4.519 194.265-4.191 218.716 3.96 240.795c.36.96 1.43 1.446 2.39 1.087a1.855 1.855 0 0 0 1.11-2.38c-7.586-20.544.639-43.636 25.005-69.405 5.142-5.44 11.87-11.431 20.449-18.32 7.009-5.626 14.725-11.46 26.01-19.749 2.739-2.012 12.742-9.333 12.2-8.934 13.06-9.567 21.09-15.591 28.934-21.81 9.974-7.907 17.942-14.868 24.278-21.338a131.958 131.958 0 0 0 3.368-3.567c4.576 2.876 9.858 5.609 15.848 8.162 46.483 19.816 92.924 21.306 139.216 4.457a1.855 1.855 0 0 0 1.121-2.374 1.857 1.857 0 0 0-2.384-1.098c-45.39 16.521-90.847 15.063-136.466-4.386-5.615-2.394-10.561-4.934-14.85-7.59 4.156-4.91 7.221-9.508 9.17-13.857v.001z" stroke="#000" fill="#000" fill-rule="nonzero"/><path d="M356.5.282l4.65 2.992c.857.551 1.107 1.725.561 2.62L356.754 14 349 9.01l4.956-8.105c.552-.897 1.675-1.172 2.544-.623z" fill="#9A9DAB" fill-rule="nonzero"/><path d="M357 13.93L311.2 84.61c-.153.238-.359.439-.601.588L304.94 88.7c-1.368.849-3.117-.217-2.926-1.777l.796-6.457c.035-.28.133-.546.286-.782L348.894 9 357 13.93z" fill="#E6E7E7" fill-rule="nonzero"/><g transform="rotate(9 -519.987 421.503)"><path d="M7.995 15.45L197.321 2.428c4.693-.323 8.765 3.174 9.095 7.811l8.868 124.78c.33 4.636-3.208 8.658-7.903 8.981L18.057 157.023c-4.694.323-8.766-3.174-9.095-7.812L.092 24.431c-.329-4.637 3.209-8.657 7.903-8.98z" fill="#565656" fill-rule="nonzero" opacity=".096"/><path d="M21.626.07H211.41c4.706 0 8.521 3.768 8.521 8.415v125.087c0 4.647-3.815 8.415-8.52 8.415H21.625c-4.706 0-8.521-3.768-8.521-8.417V8.485c0-4.647 3.815-8.416 8.52-8.416z" fill="#000" fill-rule="nonzero"/><g transform="translate(13.015 .07)"><mask id="b" fill="#fff"><use xlink:href="#a"/></mask><path d="M20.686 11.897h157.942c2.879 0 5.213 2.357 5.213 5.263v107.596c0 2.906-2.334 5.264-5.213 5.264H20.686c-2.879 0-5.212-2.358-5.212-5.264V17.16c0-2.906 2.333-5.263 5.212-5.263z" fill="#F9FAFB" fill-rule="nonzero" mask="url(#b)"/></g><g transform="translate(13.015 .07)"><mask id="d" fill="#fff"><use xlink:href="#c"/></mask><path d="M183.84 71.384v53.365c0 2.904-2.41 5.27-5.357 5.27H20.843c-2.957 0-5.368-2.366-5.368-5.27V71.384h168.366z" fill="#E9E9F0" fill-rule="nonzero" mask="url(#d)"/></g><g transform="translate(13.015 .07)"><mask id="f" fill="#fff"><use xlink:href="#e"/></mask><path d="M6.107 57.787h.786c.49 0 .888 6.087.888 13.595 0 7.508-.397 13.599-.888 13.599h-.786c-.49 0-.89-6.088-.89-13.597 0-7.51.4-13.597.888-13.597h.002z" fill="#FFF" fill-rule="nonzero" mask="url(#f)"/></g><g transform="translate(13.015 .07)"><mask id="h" fill="#fff"><use xlink:href="#g"/></mask><path d="M201.79 70.959c0 3.988-3.254 7.222-7.266 7.222-4.012 0-7.265-3.232-7.265-7.222 0-3.988 3.253-7.224 7.265-7.224s7.264 3.234 7.264 7.224h.002z" fill="#E1E2F1" fill-rule="nonzero" mask="url(#h)"/></g><g transform="translate(13.015 .07)"><mask id="j" fill="#fff"><use xlink:href="#i"/></mask><path d="M199.224 70.959a4.688 4.688 0 0 1-4.7 4.673 4.688 4.688 0 0 1-4.701-4.673 4.69 4.69 0 0 1 4.701-4.674 4.685 4.685 0 0 1 4.701 4.674h-.001z" fill="#000" fill-rule="nonzero" mask="url(#j)"/></g><g fill="#1ABC9C" fill-rule="nonzero"><path d="M89.264 111.18c-.723.35-1.094.675-1.202.914-.034.074-.028.127.045.244.197.281.48.492.805.6 1.469-.502 2.925-1.243 4.324-2.173-1.654-.207-2.965-.074-3.972.415zm.26 4.09c-1.11.366-2.76-.5-3.49-1.673-1.026-1.645-.227-3.417 2.155-4.573 1.884-.914 4.2-.965 7.07-.345l.533.12a28.543 28.543 0 0 0 6.515-8.389c2.808-5.515 2.8-10.214.032-11.84-6.992-4.11-12.872-2.37-18.115 5.478a1.226 1.226 0 0 1-1.686.341 1.192 1.192 0 0 1-.346-1.663c5.925-8.866 13.218-11.025 21.392-6.221 6.466 3.8 2.614 15.565-5.084 23.062 1.691.563 3.367 1.17 5.027 1.82 4.527 1.72 6.368 2.342 8.461 2.732 2.553.474 4.288.21 5.39-.85a1.228 1.228 0 0 1 1.72.026 1.19 1.19 0 0 1-.023 1.699c-1.782 1.706-4.285 2.089-7.537 1.485-2.295-.426-4.206-1.072-8.886-2.851l-.432-.165c-2.611-.991-4.34-1.603-5.834-2.026-2.111 1.687-4.433 3.032-6.862 3.833z"/><path d="M113.13 93.48a1.21 1.21 0 0 1-1.29-1.122 1.207 1.207 0 0 1 1.136-1.276c4.16-.26 7.243.172 9.296 1.292 2.085 1.142 3.074 2.987 2.927 5.248-.24 3.667-3.515 8.39-8.502 12.815a1.226 1.226 0 0 1-1.717-.09 1.19 1.19 0 0 1 .09-1.696c4.555-4.043 7.513-8.307 7.7-11.184.087-1.347-.427-2.306-1.678-2.99-1.572-.861-4.223-1.231-7.961-.997z"/><path d="M134.785 90.322a1.221 1.221 0 0 1 1.593.642 1.195 1.195 0 0 1-.65 1.573c-4.847 2.007-8.027 4.042-9.596 5.958-1.206 1.473-1.344 2.693-.652 3.767 1.527 2.37 6.734 3.767 11.255 2.847a1.217 1.217 0 0 1 1.436.935 1.202 1.202 0 0 1-.946 1.417c-5.414 1.102-11.648-.57-13.798-3.91-1.283-1.991-1.02-4.328.812-6.565 1.865-2.28 5.363-4.517 10.546-6.664z"/></g><rect fill="#D4D7D9" fill-rule="nonzero" x="33.055" y="60.201" width="32.83" height="7.584" rx="2"/><rect fill="#1ABC9C" fill-rule="nonzero" x="150.475" y="59.663" width="42.679" height="7.584" rx="2"/><rect stroke="#E6E7E7" stroke-width="2" fill="#FFF" fill-rule="nonzero" x="37.825" y="34.058" width="68.824" height="9.77" rx="2"/><rect fill="#34495E" fill-rule="nonzero" x="50.723" y="19.687" width="38.301" height="4.334" rx="1.342"/><rect fill="#34495E" fill-rule="nonzero" x="94.967" y="20.209" width="13.132" height="4.334" rx="1.342"/><rect fill="#34495E" fill-rule="nonzero" x="37.42" y="18.633" width="8.755" height="8.667" rx="2.684"/></g></g></svg>