<svg width="810" height="397" viewBox="0 0 810 397" fill="none" xmlns="http://www.w3.org/2000/svg">
<path fill-rule="evenodd" clip-rule="evenodd" d="M744.462 324.97C738.633 308.768 724.233 273.783 737.41 223.164C760.278 251.438 761.742 292.274 759.397 329.14" fill="white"/>
<path d="M756.53 327.867C756.53 327.867 757.468 251.846 737.41 223.165M744.462 324.97C738.633 308.768 724.233 273.783 737.41 223.164C760.278 251.438 761.742 292.274 759.397 329.14L744.462 324.97ZM737.41 223.165C737.41 223.165 742.346 287.603 751.356 328.275L737.41 223.165ZM737.41 223.165C737.41 223.165 732.112 269.175 747.188 327.45L737.41 223.165ZM754.038 327.755C754.038 327.755 747.328 246.961 737.41 223.165L754.038 327.755Z" stroke="#C5C8EF" stroke-linejoin="round"/>
<path fill-rule="evenodd" clip-rule="evenodd" d="M732.654 332.707C723.949 321.166 703.363 296.504 707.122 255.987C734.836 274.322 743.73 305.289 748.142 333.768" fill="white"/>
<path d="M744.502 333.768C744.502 333.768 729.782 273.589 707.122 255.987M732.654 332.707C723.949 321.166 703.363 296.504 707.122 255.987C734.836 274.322 743.73 305.289 748.142 333.768L732.654 332.707ZM707.121 255.987C707.121 255.987 716.598 304.384 736.154 332.614L707.121 255.987ZM739.888 333.768C739.888 333.768 715.238 266.935 707.121 255.987L739.888 333.768Z" stroke="#C5C8EF" stroke-linejoin="round"/>
<path fill-rule="evenodd" clip-rule="evenodd" d="M772.885 324.138C780.329 307.406 798.435 271.353 786.553 217.744C759.347 246.404 755.393 289.137 755.929 327.874" fill="white"/>
<path d="M759.21 326.662C759.21 326.662 762.47 246.951 786.553 217.745M772.885 324.138C780.329 307.406 798.435 271.353 786.553 217.744C759.347 246.404 755.393 289.137 755.929 327.874L772.885 324.138ZM786.553 217.745C786.553 217.745 777.374 285.067 764.98 327.31L786.553 217.745ZM786.553 217.745C786.553 217.745 789.876 266.19 769.694 326.622L786.553 217.745ZM762.008 326.65C762.008 326.65 774.101 242.262 786.553 217.745L762.008 326.65Z" stroke="#C5C8EF" stroke-linejoin="round"/>
<path fill-rule="evenodd" clip-rule="evenodd" d="M777.485 344.368C786.595 331.007 807.85 302.615 808.919 252.92C781.939 273.019 770.523 310.047 763.417 344.404" fill="white"/>
<path d="M766.695 344.7C766.695 344.7 786.573 272.536 808.919 252.92M777.485 344.368C786.595 331.007 807.85 302.615 808.919 252.92C781.939 273.019 770.523 310.047 763.417 344.404L777.485 344.368ZM808.918 252.92C808.918 252.92 795.061 311.147 774.343 343.97L808.918 252.92ZM770.852 345.074C770.852 345.074 800.405 265.606 808.918 252.92L770.852 345.074Z" stroke="#C5C8EF" stroke-linejoin="round"/>
<path fill-rule="evenodd" clip-rule="evenodd" d="M792.875 324.036V339.35C792.875 373.254 779.068 395.072 779.068 395.072H736.32C736.32 395.072 722.516 373.254 722.516 339.35V324.036H792.876H792.875Z" fill="#E5EAF9"/>
<path fill-rule="evenodd" clip-rule="evenodd" d="M775 38C775 57.882 758.882 74 739 74C719.118 74 703 57.882 703 38C703 18.118 719.118 2 739 2C758.882 2 775 18.118 775 38Z" stroke="#E5EAF9" stroke-width="3" stroke-linecap="round" stroke-linejoin="round"/>
<path d="M739 23V38H763" stroke="#E5EAF9" stroke-width="3" stroke-linecap="round" stroke-linejoin="round"/>
<path fill-rule="evenodd" clip-rule="evenodd" d="M37.894 323.689C32.753 300.921 19.826 251.829 35.381 179.499C57.141 218.747 56.775 276.635 52.748 329.037" fill="white"/>
<path d="M49.92 327.34C49.92 327.34 54.292 219.433 35.38 179.5M37.894 323.689C32.753 300.921 19.826 251.829 35.381 179.499C57.141 218.747 56.775 276.635 52.748 329.037L37.894 323.689ZM35.38 179.5C35.38 179.5 37.446 270.747 44.689 328.118L35.38 179.5ZM35.38 179.5C35.38 179.5 27.969 244.99 40.527 327.105L35.38 179.5ZM47.412 327.277C47.412 327.277 44.297 212.887 35.38 179.5L47.412 327.277Z" stroke="#C5C8EF" stroke-linejoin="round"/>
<path fill-rule="evenodd" clip-rule="evenodd" d="M26.986 332.454C18.281 318.163 -2.305 287.623 1.454 237.451C29.168 260.155 38.063 298.503 42.474 333.768" fill="white"/>
<path d="M38.835 333.768C38.835 333.768 24.114 259.247 1.454 237.451M26.986 332.454C18.281 318.163 -2.305 287.623 1.454 237.451C29.168 260.155 38.063 298.503 42.474 333.768L26.986 332.454ZM1.454 237.45C1.454 237.45 10.931 297.382 30.486 332.339L1.454 237.45ZM34.22 333.768C34.22 333.768 9.57 251.007 1.453 237.451L34.22 333.768Z" stroke="#C5C8EF" stroke-linejoin="round"/>
<path fill-rule="evenodd" clip-rule="evenodd" d="M68.616 323.406C75.642 303.372 92.755 260.214 81.096 195.863C55.239 230.111 51.695 281.347 52.423 327.808" fill="white"/>
<path d="M55.553 326.37C55.553 326.37 58.228 230.782 81.095 195.863M68.616 323.406C75.642 303.372 92.755 260.214 81.096 195.863C55.239 230.111 51.695 281.347 52.423 327.808L68.616 323.406ZM81.096 195.863C81.096 195.863 72.692 276.565 61.075 327.175L81.096 195.863ZM81.096 195.863C81.096 195.863 84.543 253.981 65.578 326.37L81.096 195.863ZM58.229 326.37C58.229 326.37 69.325 225.212 81.096 195.863L58.229 326.37Z" stroke="#C5C8EF" stroke-linejoin="round"/>
<path fill-rule="evenodd" clip-rule="evenodd" d="M73.817 344.368C82.927 331.007 104.182 302.615 105.251 252.92C78.272 273.019 66.855 310.047 59.748 344.404" fill="white"/>
<path d="M63.028 344.7C63.028 344.7 82.905 272.536 105.252 252.92M73.817 344.368C82.927 331.007 104.182 302.615 105.251 252.92C78.272 273.019 66.855 310.047 59.748 344.404L73.817 344.368ZM105.251 252.92C105.251 252.92 91.393 311.147 70.675 343.97L105.251 252.92ZM67.184 345.074C67.184 345.074 96.737 265.606 105.251 252.92L67.184 345.074Z" stroke="#C5C8EF" stroke-linejoin="round"/>
<path fill-rule="evenodd" clip-rule="evenodd" d="M89.207 324.036V339.35C89.207 373.254 75.401 395.072 75.401 395.072H32.65C32.65 395.072 18.845 373.254 18.845 339.35V324.036H89.205H89.207Z" fill="#E5EAF9"/>
<mask id="mask0" mask-type="alpha" maskUnits="userSpaceOnUse" x="53" y="11" width="692" height="386">
<path d="M53.919 11H744.18V397H53.919V11Z" fill="white"/>
</mask>
<g mask="url(#mask0)">
<path fill-rule="evenodd" clip-rule="evenodd" d="M190.875 325.823H609.962V43.85H190.875V325.823Z" fill="white"/>
<path fill-rule="evenodd" clip-rule="evenodd" d="M207.31 309.397H596.266V57.54H207.31V309.397Z" stroke="#9A9DAB" stroke-width="3" stroke-linejoin="round"/>
<mask id="mask1" mask-type="alpha" maskUnits="userSpaceOnUse" x="221" y="162" width="165" height="118">
<path d="M221.665 162.351H385.235V279.283H221.665V162.351Z" fill="white"/>
</mask>
<g mask="url(#mask1)">
<path fill-rule="evenodd" clip-rule="evenodd" d="M382.052 279.284H224.849C224.003 279.282 223.192 278.944 222.594 278.345C221.997 277.745 221.662 276.932 221.664 276.086V165.548C221.663 164.702 221.997 163.89 222.595 163.29C223.192 162.691 224.003 162.353 224.849 162.351H382.052C382.471 162.352 382.886 162.435 383.272 162.597C383.659 162.758 384.01 162.993 384.306 163.29C384.601 163.587 384.835 163.939 384.995 164.327C385.154 164.714 385.236 165.129 385.235 165.548V276.086C385.237 276.932 384.903 277.744 384.306 278.344C383.709 278.944 382.898 279.282 382.052 279.284" fill="white"/>
</g>
<path d="M215.527 238.235H585.31M215.527 202.647H585.31H215.527Z" stroke="#E5E6E8"/>
<path fill-rule="evenodd" clip-rule="evenodd" d="M259.353 184.836C259.353 190.128 255.06 194.418 249.766 194.418C244.471 194.418 240.179 190.128 240.179 184.836C240.179 179.544 244.471 175.256 249.766 175.256C255.06 175.256 259.353 179.544 259.353 184.836ZM259.353 220.424C259.353 225.717 255.06 230.007 249.766 230.007C244.471 230.007 240.179 225.717 240.179 220.425C240.179 215.133 244.471 210.844 249.766 210.844C255.06 210.844 259.353 215.133 259.353 220.424V220.424ZM259.353 256.014C259.353 261.306 255.06 265.596 249.766 265.596C244.471 265.596 240.179 261.306 240.179 256.014C240.179 250.722 244.471 246.432 249.766 246.432C255.06 246.432 259.353 250.722 259.353 256.014Z" fill="#D5E8F9"/>
<path d="M264.831 184.137H352.484" stroke="#F1D5CE" stroke-width="3" stroke-linecap="round" stroke-linejoin="round"/>
<path d="M264.831 186.205H278.527" stroke="#F1D5CE" stroke-width="0.98" stroke-linecap="round" stroke-linejoin="round"/>
<path d="M264.831 255.314H352.484M264.831 216.319H352.484H264.831Z" stroke="#F1D5CE" stroke-width="3" stroke-linecap="round" stroke-linejoin="round"/>
<path d="M562.136 90.39H244.179C241.97 90.39 240.179 92.1809 240.179 94.39V154.83C240.179 157.039 241.97 158.83 244.179 158.83H562.136C564.345 158.83 566.136 157.039 566.136 154.83V94.39C566.136 92.1809 564.345 90.39 562.136 90.39Z" fill="#D5E8F9"/>
<path d="M313.217 134.191H348.826M313.217 123.241H532.348H313.217ZM313.217 112.291H532.348H313.217Z" stroke="white" stroke-width="3" stroke-linecap="round" stroke-linejoin="round"/>
<path fill-rule="evenodd" clip-rule="evenodd" d="M296.782 124.608C296.782 135.948 287.583 145.142 276.239 145.142C264.892 145.142 255.695 135.948 255.695 124.608C255.695 113.268 264.892 104.078 276.239 104.078C287.583 104.078 296.782 113.268 296.782 124.608Z" fill="white"/>
<path fill-rule="evenodd" clip-rule="evenodd" d="M212.788 63.014H590.788V82.177H212.788V63.014Z" fill="#F5F5F5"/>
<path d="M232.648 70.83H233.071L234.15 73.25C234.243 73.46 234.35 73.752 234.35 73.752H234.362C234.362 73.752 234.472 73.459 234.568 73.249L235.647 70.829H236.063L236.392 74.947H235.989L235.759 72.065C235.742 71.842 235.746 71.492 235.746 71.492H235.734C235.734 71.492 235.611 71.855 235.517 72.065L234.551 74.179H234.171L233.205 72.065C233.111 71.859 232.982 71.479 232.982 71.479H232.969C232.969 71.479 232.976 71.842 232.956 72.065L232.727 74.947H232.324L232.649 70.83H232.648ZM240.66 73.635H239.002L238.532 74.947H238.106L239.617 70.83H240.051L241.562 74.947H241.136L240.66 73.635V73.635ZM239.828 71.256C239.828 71.256 239.741 71.596 239.668 71.789L239.118 73.283H240.537L239.997 71.789C239.927 71.596 239.84 71.256 239.84 71.256H239.828ZM244.07 71.193H242.588V70.83H245.951V71.193H244.476V74.947H244.072V71.193H244.07V71.193ZM247.763 70.83H248.166V72.704H250.556V70.83H250.96V74.947H250.557V73.067H248.166V74.947H247.763V70.83V70.83ZM253.264 74.179C253.264 74.179 253.691 74.631 254.343 74.631C254.793 74.631 255.163 74.361 255.163 73.916C255.163 72.88 253.105 73.143 253.105 71.866C253.105 71.273 253.627 70.758 254.387 70.758C255.103 70.758 255.489 71.157 255.489 71.157L255.289 71.497C255.289 71.497 254.927 71.144 254.387 71.144C253.861 71.144 253.521 71.49 253.521 71.853C253.521 72.831 255.579 72.549 255.579 73.903C255.579 74.518 255.103 75.015 254.33 75.015C253.487 75.015 253.024 74.489 253.024 74.489L253.264 74.179V74.179ZM257.654 70.829H259.078C259.817 70.829 260.35 71.309 260.35 72.071C260.35 72.84 259.817 73.33 259.078 73.33H258.058V74.947H257.655V70.83H257.653L257.654 70.829ZM259.024 72.967C259.574 72.967 259.934 72.634 259.934 72.071C259.934 71.515 259.577 71.193 259.031 71.193H258.059V72.967H259.025H259.024ZM264.199 73.635H262.541L262.071 74.947H261.645L263.157 70.83H263.59L265.102 74.947H264.675L264.199 73.635ZM263.367 71.256C263.367 71.256 263.28 71.596 263.207 71.789L262.657 73.283H264.077L263.537 71.789C263.467 71.596 263.377 71.256 263.377 71.256H263.367V71.256ZM268.712 70.76C269.697 70.76 270.194 71.293 270.194 71.293L269.977 71.592C269.977 71.592 269.497 71.136 268.722 71.136C267.756 71.136 267.064 71.885 267.064 72.856C267.064 73.841 267.756 74.643 268.733 74.643C269.565 74.643 270.068 74.093 270.068 74.093L270.302 74.38C270.302 74.38 269.739 75.02 268.726 75.02C267.508 75.02 266.641 74.064 266.641 72.863C266.643 71.668 267.535 70.76 268.711 70.76H268.712ZM272.357 70.83H274.678V71.193H272.763V72.691H274.328V73.054H272.763V74.582H274.784V74.945H272.36V70.83H272.357V70.83Z" fill="#21374D"/>
<path d="M220.172 71.719V75.537C220.172 76.091 220.62 76.539 221.174 76.539H224.994L220.172 71.719V71.719Z" fill="#00945E"/>
<path d="M223.854 76.554H228.774C229.466 76.554 230.026 75.994 230.026 75.301V70.384L223.854 76.554V76.554Z" fill="#00A6CE"/>
<path d="M228.51 68.886L224.293 73.107L225.799 74.612L230.029 70.384V69.514C230.026 68.723 229.069 68.328 228.51 68.886Z" fill="#005CB9"/>
<path d="M224.293 73.107L221.428 70.242C221.325 70.1391 221.194 70.069 221.052 70.0406C220.909 70.0122 220.761 70.0268 220.627 70.0824C220.492 70.1381 220.377 70.2324 220.297 70.3534C220.216 70.4744 220.173 70.6166 220.173 70.762V71.719L222.929 74.474L224.294 73.107H224.293Z" fill="#3DAE2B"/>
<path d="M224.293 73.107L222.261 75.14C221.739 75.662 222.108 76.553 222.845 76.553H225.875C226.563 76.553 226.909 75.722 226.421 75.236L224.293 73.107V73.107Z" fill="#93D500"/>
<path d="M222.928 74.474L224.047 75.592C224.149 75.6938 224.288 75.7509 224.432 75.7509C224.576 75.7509 224.715 75.6938 224.817 75.592L225.799 74.612L224.293 73.107L222.928 74.474V74.474Z" fill="#4C9C2E"/>
<path fill-rule="evenodd" clip-rule="evenodd" d="M644.104 165.663C644.43 156.623 637.744 148.854 628.754 147.828C619.046 146.722 607.402 153.051 604.901 165.504C602.781 176.099 601.311 194.819 601.409 193.962L643.844 196.549L644.104 165.663V165.663Z" fill="#D5E8F9"/>
<path fill-rule="evenodd" clip-rule="evenodd" d="M644.692 197.608L609.308 194.443C610.426 211.313 610.163 221.471 609.371 231.089C608.484 241.94 617.043 251.237 627.937 251.256C637.992 251.273 646.248 243.323 646.612 233.281L644.692 197.608ZM548.863 185.941L624.827 220.156C632.565 224.492 635.104 234.407 630.409 241.925C625.659 249.533 615.473 251.55 608.181 246.332L543.116 198.906L548.863 185.941V185.941Z" fill="#FFC1B2"/>
<path fill-rule="evenodd" clip-rule="evenodd" d="M550.182 171.747C552.906 172.439 555.533 173.607 557.674 175.441C557.944 175.596 558.19 175.801 558.398 176.057L558.531 176.239C561.669 179.413 563.474 184.295 562.434 191.621C562.341 193 562.069 194.362 561.626 195.671C558.802 204.021 549.741 208.499 541.386 205.679C533.032 202.857 528.548 193.801 531.372 185.451C533.206 180.03 537.672 176.239 542.865 175.021C543.007 173.371 544.044 170.184 550.182 171.747Z" fill="#FFC1B2"/>
<path fill-rule="evenodd" clip-rule="evenodd" d="M619.136 229.379C619.136 229.379 609.136 242.489 592.503 301.009C575.871 359.53 573.639 398.855 573.639 398.855H624.798L669.41 235.493L658.007 229.125L619.136 229.379V229.379Z" fill="#EFABA3"/>
<path fill-rule="evenodd" clip-rule="evenodd" d="M680.33 229.125C680.33 229.125 704.8 243.173 706.067 271.403C707.53 303.971 702.95 398.855 702.95 398.855L653.958 398.1L628.692 229.463L680.33 229.125V229.125Z" fill="#EFABA3"/>
<path d="M654.292 398.855L641.805 310.193L629.136 295.172" stroke="#F8897F" stroke-width="0.997"/>
<path fill-rule="evenodd" clip-rule="evenodd" d="M684.062 143.503L653.589 141.74L632.035 144.305L618.939 149.83C617.911 150.269 617.042 151.011 616.449 151.958C615.855 152.905 615.566 154.011 615.619 155.127L615.979 162.735C615.979 162.735 606.035 196.089 617.912 203.774L619.136 229.803L681.786 229.11L691.271 166.126C691.378 162.012 688.171 143.821 684.061 143.503" fill="#D5E8F9"/>
<path d="M611.563 194.443C611.563 194.443 609.309 181.677 613.519 173.369" stroke="#A5CDF2" stroke-width="0.76"/>
<path fill-rule="evenodd" clip-rule="evenodd" d="M710.875 178.105L679.53 195.14C686.797 210.404 692.694 218.519 695.518 227.75C698.698 238.16 706.746 246.428 716.875 242.429C726.226 238.733 730.965 228.3 727.595 218.833L710.876 178.106L710.875 178.105Z" fill="#FFC1B2"/>
<path fill-rule="evenodd" clip-rule="evenodd" d="M702.37 154.015C696.554 144.822 687.753 141.925 679.018 144.288C669.588 146.843 669.828 168.76 672.658 178.106C674.685 184.796 674.036 183.606 679.528 195.136L714.331 177.454L702.369 154.015H702.37Z" fill="#D5E8F9"/>
<path d="M679.527 195.137L671.841 181.855" stroke="#A5CDF2" stroke-width="0.76"/>
<path fill-rule="evenodd" clip-rule="evenodd" d="M670.387 270.534H350.742C347.167 270.534 344.266 269.594 344.266 268.438V195.978C344.266 194.82 347.167 193.881 350.742 193.881H670.387C673.962 193.881 676.86 194.82 676.86 195.977V268.437C676.86 269.594 673.962 270.534 670.387 270.534Z" fill="#F0F1F1"/>
<path fill-rule="evenodd" clip-rule="evenodd" d="M420.124 233.157C420.124 244.267 411.112 253.273 400 253.273C388.884 253.273 379.875 244.267 379.875 233.157C379.875 222.048 388.885 213.044 400 213.044C411.112 213.044 420.124 222.048 420.124 233.157" fill="#A9BAF3"/>
<path d="M432.295 238.523H458.982M432.295 224.452H612.195H432.295Z" stroke="#A9BAF3" stroke-width="3" stroke-linecap="round" stroke-linejoin="round"/>
<path d="M391.928 235.277L397.633 239.165L408.069 227.152" stroke="white" stroke-width="1.22" stroke-linecap="round" stroke-linejoin="round"/>
<path fill-rule="evenodd" clip-rule="evenodd" d="M732.78 228.882C735.67 237.372 730.795 246.536 722.14 248.877L657.23 272.589C655.986 275.765 653.751 278.457 650.858 280.264C643.391 284.944 633.538 282.684 628.851 275.213C625.808 270.362 625.693 264.506 628.032 259.713C626.846 258.561 625.032 255.74 630.122 251.977C636.067 247.58 644.148 245.788 652.547 254.317L712.383 219.423C720.633 216.183 729.924 220.49 732.779 228.883L732.78 228.882Z" fill="#FFC1B2"/>
<path fill-rule="evenodd" clip-rule="evenodd" d="M625.521 65.998C625.521 65.998 605.408 64.205 605.339 87.961C605.284 105.693 600.746 126.367 594.577 136.855C606.673 137.701 646.667 136.797 632.577 137.065C622.207 137.263 650.762 143.663 676.535 131.078C676.535 131.078 682.426 117.377 681.323 100.031C680.221 82.689 672.505 69.677 663.351 63.802C654.191 57.932 633.588 58.223 625.521 65.998" fill="#E74C3C"/>
<path fill-rule="evenodd" clip-rule="evenodd" d="M617.576 64.175C617.576 64.175 658.921 50.944 671.71 71.385C680.99 86.215 672.09 114.235 652.832 122.888C634.482 131.13 637.024 70.047 637.024 70.047L617.576 64.175V64.175Z" fill="#E74C3C"/>
<path fill-rule="evenodd" clip-rule="evenodd" d="M626.021 105.078C626.671 110.082 623.14 114.668 618.132 115.319C613.125 115.971 608.537 112.439 607.885 107.435C607.731 106.245 607.812 105.036 608.125 103.877C608.438 102.718 608.976 101.632 609.709 100.681C610.441 99.7306 611.354 98.9335 612.395 98.3354C613.435 97.7374 614.584 97.3502 615.774 97.196C620.781 96.545 625.369 100.074 626.021 105.078Z" fill="#F1998A"/>
<path fill-rule="evenodd" clip-rule="evenodd" d="M628.54 127.15L630.995 146.915C631.841 153.858 636.577 157.047 643.406 156.16C649.238 155.399 654.322 151.681 654.292 145.804L648.934 114.888L628.541 127.15H628.54Z" fill="#FFC1B2"/>
<path fill-rule="evenodd" clip-rule="evenodd" d="M630.108 140.028C630.108 140.028 648.274 134.566 651.863 118.264L628.249 125.13L630.109 140.028H630.108Z" fill="#0B181B"/>
<path fill-rule="evenodd" clip-rule="evenodd" d="M634.773 129.994C623.05 130.734 612.808 122.083 611.888 112.534L609.839 89.99C608.681 78.019 617.229 67.29 629.161 65.735C641.375 64.147 654.706 72.478 656.295 84.685L657.747 102.838C658.864 116.876 648.749 128.179 634.773 129.994Z" fill="#FFC1B2"/>
<path fill-rule="evenodd" clip-rule="evenodd" d="M672.423 100.699C673.075 105.703 669.542 110.289 664.535 110.937C659.528 111.592 654.942 108.06 654.29 103.056C653.638 98.052 657.17 93.466 662.176 92.815C667.183 92.163 671.771 95.695 672.423 100.699" fill="#FFC1B2"/>
<path d="M622.579 109.227L622.433 111.809L625.501 111.792" stroke="#1B142E" stroke-width="0.533" stroke-linecap="round" stroke-linejoin="round"/>
<path fill-rule="evenodd" clip-rule="evenodd" d="M636.068 93.315C636.068 93.315 630.982 93.104 631.02 95.234C631.02 95.234 631.089 96.679 635.523 96.775C639.961 96.871 641.095 96.485 641.443 95.113C641.788 93.739 638.449 93.224 636.068 93.315V93.315ZM614.837 94.128C614.837 94.128 619.003 93.501 619.434 95.488C619.434 95.488 619.688 96.835 616.037 97.298C612.386 97.76 611.172 97.333 610.781 96.252C610.334 95.031 612.849 94.245 614.837 94.128Z" fill="#832311"/>
<path fill-rule="evenodd" clip-rule="evenodd" d="M620.647 116.49L634.009 116.228C634.009 116.228 633.902 120.288 627.635 120.652C621.505 121.005 620.647 116.491 620.647 116.491" fill="white"/>
<path d="M631.86 102.522C631.86 102.522 634.074 99.368 638.172 102.418" stroke="#1B172C" stroke-width="0.652" stroke-linecap="round" stroke-linejoin="round"/>
<path d="M614.03 103.431C614.03 103.431 616.136 100.083 619.07 103.212" stroke="#1B172C" stroke-width="0.623" stroke-linecap="round" stroke-linejoin="round"/>
<path fill-rule="evenodd" clip-rule="evenodd" d="M617.576 64.175C617.576 64.175 598.802 69.65 603.546 91.235L663.358 87.543L656.768 66.885L617.576 64.175V64.175Z" fill="#E74C3C"/>
<path fill-rule="evenodd" clip-rule="evenodd" d="M647.99 85.61C647.99 85.61 653.364 111.524 647.58 141.216C647.58 141.216 658.374 139.666 668.432 134.482C668.432 134.482 665.46 96.539 660.357 84.362C655.254 72.188 648.204 79.738 648.204 79.738L647.99 85.61V85.61Z" fill="#E74C3C"/>
<path fill-rule="evenodd" clip-rule="evenodd" d="M632.462 143.717L625.505 147.06C625.505 147.06 615.505 163.838 635.213 164.476C658.985 165.248 660.928 151.525 664.718 142.332L652.57 141.172L632.462 143.717V143.717Z" fill="#FFC1B2"/>
<path fill-rule="evenodd" clip-rule="evenodd" d="M179.759 280.605L230.929 356.745C236.325 366.188 235.952 369.429 236.664 380.278L241.994 472.132L196.9 475.174L185.568 383.982L129.753 294.044L126.957 276.009L179.759 280.605V280.605Z" fill="#D5E8F9"/>
<path d="M159.655 342.14L159.771 331.384L174.844 314.466" stroke="#A5CDF2" stroke-width="0.76"/>
<path fill-rule="evenodd" clip-rule="evenodd" d="M96.002 280.587C96.002 280.587 83.933 306.252 99.201 341.271C99.7482 342.52 100.337 343.751 100.965 344.961L107.166 398.142L85.87 483.974L132.802 484.532L158.128 409.005C159.098 405.22 159.708 401.352 159.949 397.452L159.295 300L170.315 286.753L96.002 280.588V280.587Z" fill="#D5E8F9"/>
<path fill-rule="evenodd" clip-rule="evenodd" d="M176.865 129.494L219.78 186.026L274.15 226.928L267.21 240.645L199.148 203.885L159.633 160.152L176.865 129.494Z" fill="#F9B0A3"/>
<path fill-rule="evenodd" clip-rule="evenodd" d="M274.15 226.929L305.503 223.319C308.477 222.966 311.426 222.967 313.336 225.237C314.279 226.357 314.639 227.857 314.581 229.319L314.578 229.397C314.524 230.776 314.012 232.098 313.122 233.153C312.232 234.208 311.015 234.936 309.665 235.221L285.121 242.047L291.167 246.582C291.812 246.999 292.292 247.627 292.526 248.358C292.759 249.09 292.732 249.88 292.448 250.593C292.164 251.307 291.641 251.899 290.969 252.27C290.296 252.641 289.516 252.767 288.761 252.627L278.285 250.682C275.443 250.154 272.913 248.551 271.222 246.206L267.211 240.646L266.637 230.118L274.151 226.929H274.15Z" fill="#F9B0A3"/>
<path fill-rule="evenodd" clip-rule="evenodd" d="M174.851 116.963L202.134 151.331L174.716 181.265L171.926 145.013L174.851 116.963Z" fill="#EFABA3"/>
<path fill-rule="evenodd" clip-rule="evenodd" d="M125.468 115.513C125.468 115.513 87.698 117.353 83.371 159.847C79.043 202.345 95.621 283.583 95.621 283.583L180.691 283.565L175.237 144.264C175.62 133.585 181.11 117.652 170.978 114.259C166.4 112.726 160.648 111.964 153.452 112.689L125.468 115.513V115.513Z" fill="#EFABA3"/>
<path d="M177.637 178.073L175.363 146.041" stroke="#F8897F" stroke-width="1.02"/>
<path fill-rule="evenodd" clip-rule="evenodd" d="M176.666 196.124L111.529 138.074L101.476 188.637L160.805 224.1C163.442 225.676 166.427 226.574 169.495 226.715C172.563 226.857 175.619 226.237 178.389 224.91L248.562 191.322L252.561 174.939L176.666 196.124V196.124Z" fill="#FFC1B2"/>
<path fill-rule="evenodd" clip-rule="evenodd" d="M252.56 174.939L284.342 163.584L298.808 162.452C299.579 162.392 300.344 162.632 300.943 163.122C301.542 163.611 301.929 164.312 302.024 165.08C302.122 165.863 301.907 166.652 301.427 167.278C300.947 167.904 300.24 168.315 299.459 168.424L285.573 170.384L276.479 173.417L281.702 175.221C284.202 176.087 286.394 177.664 288.011 179.758L289.395 181.552C290.331 182.767 290.752 184.3 290.569 185.822C290.386 187.345 289.612 188.734 288.415 189.692L283.031 194.005C281.91 194.903 280.499 195.359 279.064 195.284C277.63 195.209 276.273 194.609 275.252 193.599L271.358 189.744L264.167 189.278C264.167 189.278 256.961 195.317 246.639 192.156C237.819 189.456 244.399 184.756 244.939 184.17C245.478 183.581 252.56 174.939 252.56 174.939" fill="#FFC1B2"/>
<path fill-rule="evenodd" clip-rule="evenodd" d="M112.691 131.264L163.429 169.097L131.494 220.91L86.961 180.92L112.691 131.264Z" fill="#EFABA3"/>
<path d="M157.062 179.43L123.375 152.2M108.057 201.153L132.261 219.646L137.873 210.391L108.057 201.153Z" stroke="#F8897F" stroke-width="1.02"/>
<path fill-rule="evenodd" clip-rule="evenodd" d="M161.65 40.484C161.65 40.484 179.257 55.981 162.612 62.348L161.651 40.484H161.65Z" fill="#0B181B"/>
<path fill-rule="evenodd" clip-rule="evenodd" d="M153.413 71.897C153.438 77.165 157.6 81.432 162.707 81.427C167.811 81.422 171.931 77.149 171.905 71.878C171.877 66.611 167.717 62.342 162.61 62.348C157.506 62.352 153.387 66.628 153.413 71.897" fill="#F1998A"/>
<path fill-rule="evenodd" clip-rule="evenodd" d="M150.084 94.684L151.712 117.419C152.3 125.401 147.845 130.005 140.224 130.474C133.719 130.874 126.354 128.237 126.134 121.18L125.242 85.288L150.084 94.684V94.684Z" fill="#FFC1B2"/>
<path fill-rule="evenodd" clip-rule="evenodd" d="M151.217 109.799C151.217 109.799 132.8 112.692 125.558 92.253C123.275 85.817 149.962 92.351 149.962 92.351L151.217 109.799Z" fill="#0B181B"/>
<path fill-rule="evenodd" clip-rule="evenodd" d="M143.733 101.797C156.723 100.89 166.683 89.554 166.28 78.579L165.308 55.624C164.803 41.87 153.814 30.963 140.476 30.976C126.82 30.989 113.416 42.424 113.486 56.515L114.46 74.392C115.318 90.489 128.113 101.81 143.733 101.797Z" fill="#FFC1B2"/>
<path d="M152.36 72.522L153.168 77.202L149.966 77.559" stroke="#0B181B" stroke-width="0.527" stroke-linecap="round" stroke-linejoin="round"/>
<path fill-rule="evenodd" clip-rule="evenodd" d="M137.872 54.604C137.872 54.604 143.158 53.767 143.373 55.998C143.373 55.998 143.48 57.511 138.861 58.148C134.241 58.787 133.01 58.524 132.481 57.133C131.954 55.743 135.378 54.8 137.871 54.604H137.872ZM159.705 54.023C159.705 54.023 155.28 53.876 155.072 56.002C155.072 56.002 154.968 57.438 158.836 57.479C162.704 57.521 163.918 56.925 164.196 55.751C164.516 54.421 161.795 53.906 159.705 54.023V54.023ZM156.546 67.954C156.597 69.232 157.641 70.226 158.876 70.177C160.113 70.127 161.073 69.057 161.022 67.782C160.969 66.508 159.925 65.512 158.688 65.558C157.453 65.606 156.495 66.679 156.546 67.954V67.954ZM136.932 68.708C136.982 69.984 138.026 70.977 139.265 70.93C140.5 70.882 141.458 69.809 141.408 68.533C141.355 67.259 140.31 66.263 139.075 66.312C137.84 66.36 136.881 67.43 136.932 68.708Z" fill="#0B181B"/>
<path d="M150.011 70.212L153.181 70.11M153.165 68.05C153.351 73.866 158.219 78.429 164.04 78.242C169.86 78.052 174.426 73.182 174.24 67.367C174.053 61.549 169.182 56.987 163.364 57.175C157.544 57.365 152.979 62.235 153.164 68.051L153.165 68.05ZM131.77 61.29C127.787 65.536 128 72.206 132.248 76.186C136.496 80.165 143.165 79.948 147.15 75.702C151.132 71.454 150.917 64.786 146.672 60.806C142.424 56.828 135.752 57.043 131.77 61.291V61.29ZM128.923 68.838L118.976 69.161L128.923 68.838Z" stroke="white" stroke-width="0.49"/>
<path d="M142.876 83.104C142.876 83.104 146.706 86.374 154.558 83.041" stroke="#0B181B" stroke-width="0.527" stroke-linecap="round" stroke-linejoin="round"/>
<path fill-rule="evenodd" clip-rule="evenodd" d="M102.016 45.008C102.976 34.207 112.503 34.48 112.503 34.48L112.511 34.492C115.827 27.541 125.413 21.016 136.875 20.784C152.408 20.468 166.875 28.29 169.785 36.346C172.697 44.398 160.669 44.739 160.669 44.739C160.669 44.739 143.229 46.926 129.107 46.627C130.182 52.567 130.19 62.114 119.601 63.218L118.303 81.498C118.303 81.498 100.773 59.008 102.016 45.008Z" fill="#0B181B"/>
<path fill-rule="evenodd" clip-rule="evenodd" d="M102.489 74.796C102.513 80.014 106.634 84.239 111.691 84.234C116.747 84.229 120.825 79.997 120.799 74.777C120.775 69.561 116.651 65.334 111.599 65.341C106.538 65.344 102.461 69.579 102.489 74.796" fill="#FFC1B2"/>
<path d="M114.781 77.052C114.781 77.052 114.746 70.203 108.405 71.286" stroke="#312220" stroke-width="0.558" stroke-linecap="round" stroke-linejoin="round"/>
<path fill-rule="evenodd" clip-rule="evenodd" d="M118.09 116.68L140.546 112.769L157.027 112.444C157.027 112.444 158.915 127.981 145.257 131.075C120.08 136.775 118.091 116.679 118.091 116.679" fill="#FFC1B2"/>
</g>
<g filter="url(#filter0_d)">
<path d="M396.761 105.817C342.587 105.817 298.522 149.863 298.522 204C298.522 258.138 342.587 302.184 396.761 302.184C450.933 302.184 495 258.138 495 204C495 149.863 450.935 105.817 396.761 105.817Z" fill="#0875BE"/>
<path d="M435.815 207.441L378.509 244.259C377.891 244.658 377.178 244.883 376.443 244.91C375.709 244.936 374.981 244.764 374.337 244.411C373.69 244.06 373.15 243.541 372.774 242.908C372.398 242.276 372.2 241.554 372.2 240.818V167.181C372.2 165.684 373.016 164.31 374.337 163.59C374.981 163.238 375.709 163.066 376.443 163.093C377.178 163.119 377.891 163.344 378.509 163.742L435.815 200.56C436.982 201.311 437.696 202.61 437.696 204C437.696 205.391 436.982 206.688 435.815 207.441V207.441Z" fill="white"/>
</g>
<defs>
<filter id="filter0_d" x="292.522" y="97.8167" width="212.478" height="212.367" filterUnits="userSpaceOnUse" color-interpolation-filters="sRGB">
<feFlood flood-opacity="0" result="BackgroundImageFix"/>
<feColorMatrix in="SourceAlpha" type="matrix" values="0 0 0 0 0 0 0 0 0 0 0 0 0 0 0 0 0 0 127 0"/>
<feOffset dx="2"/>
<feGaussianBlur stdDeviation="4"/>
<feColorMatrix type="matrix" values="0 0 0 0 0 0 0 0 0 0 0 0 0 0 0 0 0 0 0.16 0"/>
<feBlend mode="normal" in2="BackgroundImageFix" result="effect1_dropShadow"/>
<feBlend mode="normal" in="SourceGraphic" in2="effect1_dropShadow" result="shape"/>
</filter>
</defs>
</svg>
