<svg width="360" height="288" xmlns="http://www.w3.org/2000/svg"><g fill="none" fill-rule="evenodd"><g fill="#1ABC9C"><path d="M311 204.588h48.5L335.25 168zM311 241.637h48.5l-24.25-36.588zM311 278.637h48.5l-24.25-36.588z"/></g><g stroke="#21374D" stroke-width="2"><path d="M72.01 91.059L26.043 53.603M97.972 67.783L72.081 14.337M58.357 120.554L.926 106.108"/></g><g stroke="#21374D" stroke-width="2"><path d="M237.99 91.059l45.968-37.456M212.028 67.783l25.891-53.446M251.643 120.554l57.431-14.446"/></g><path stroke="#21374D" stroke-width="2" d="M156.449 60l.102-60"/><g fill-rule="nonzero"><path d="M184 190v96.955c-6.105.653-12.599 1.045-19.093 1.045C107.498 288 61 261.736 61 229.2V190h123z" fill="#D09925"/><path d="M269 163v62.556c0 30.722-36.577 56.161-85 61.444V163h85z" fill="#108794"/><path d="M220 87.784L165.348 138H61c0-32.647 46.696-59 104.348-59 20.087 0 38.739 3.147 54.652 8.784z" fill="#E76D83"/><path d="M269 164.138c0 28.931-36.881 52.887-85.706 57.862L164 164.138 218.994 114C249.05 124.342 269 142.93 269 164.138z" fill="#1CB7C8"/><path d="M184 247.951c-6.105.656-12.599 1.049-19.093 1.049C107.498 249 61 222.647 61 190h103.907L184 247.951z" fill="#F4B42E"/><path fill="#C8566B" d="M61 138h104v52H61z"/><path fill="#AD4558" d="M220 88v26.072L165 164v-26.072z"/><path fill="#1499A7" d="M165 164v26.168L184 248v-26.168z"/></g></g></svg>