<svg width="392" height="264" xmlns="http://www.w3.org/2000/svg"><g fill="none" fill-rule="evenodd"><g transform="translate(122)" fill-rule="nonzero"><path fill="#1CB7C8" d="M89 225h54v24H89z"/><path d="M169 261.138c0 1.574-1.307 2.862-2.903 2.862H65.903c-1.597 0-2.903-1.288-2.903-2.862v-9.276c0-1.574 1.306-2.862 2.903-2.862h100.194c1.597 0 2.903 1.288 2.903 2.862v9.276z" fill="#108794"/><path d="M75.182 261.138v-9.276c0-1.574 1.268-2.862 2.818-2.862H66.818c-1.55 0-2.818 1.288-2.818 2.862v9.276c0 1.574 1.268 2.862 2.818 2.862H78c-1.55 0-2.818-1.288-2.818-2.862z" fill="#0F737E"/><path d="M198 192H1v28.2c0 3.19 2.6 5.8 5.777 5.8H198v-34z" fill="#108794"/><path d="M12.304 220.2V192H1v28.2c0 3.19 2.564 5.8 5.697 5.8H18c-3.133 0-5.696-2.61-5.696-5.8z" fill="#0F737E"/><path d="M226.424 61h-23.216v63.153c-3.008.012-5.453 2.458-5.453 5.465v51.28H27.566V61H5.576C2.51 61 0 63.497 0 66.55V192h198.028v-62.382c0-3.014 2.463-5.466 5.491-5.466H232V66.55c0-3.053-2.509-5.55-5.576-5.55z" fill="#1CB7C8"/><g fill="#108794"><path d="M28.48 72.27H14.985c-1.595 0-2.9 1.31-2.9 2.91v103.724c0 1.6 1.305 2.91 2.9 2.91H28.48V72.27zM218.646 72.27h-14.718v52.425c.104-.006.206-.016.31-.016h17.309V75.18c0-1.6-1.305-2.91-2.9-2.91z"/></g><path d="M23.182 179.104V75.896C23.182 74.303 24.45 73 26 73H14.818C13.268 73 12 74.303 12 75.896v103.208c0 1.593 1.268 2.896 2.818 2.896H26c-1.55 0-2.818-1.303-2.818-2.896z" fill="#0F737E"/><circle fill="#0F737E" cx="116" cy="209" r="7"/><path d="M91.901 38.133a2.593 2.593 0 0 1 2.58-2.591H161V3.065C161 1.38 159.627 0 157.95 0H31.05C29.374 0 28 1.379 28 3.065V182h63.901V38.133z" fill="#F4B42E"/><path d="M43 0H31.146C29.416 0 28 1.379 28 3.065V182h11.855V3.065C39.855 1.38 41.27 0 43 0z" fill="#6E4F0E" opacity=".301"/><path d="M197.566 129.729c0-3.007 2.436-5.453 5.434-5.464V37.572A2.579 2.579 0 0 0 200.432 35H93.569A2.579 2.579 0 0 0 91 37.572V181h106.565v-51.271z" fill="#FFF"/><path d="M115.403 93a4.415 4.415 0 0 1-3.3-1.474l-7.017-7.894a4.273 4.273 0 0 1 .411-6.095c1.822-1.571 4.593-1.39 6.19.405l3.716 4.181 5.91-6.649c1.596-1.795 4.367-1.976 6.19-.404a4.273 4.273 0 0 1 .41 6.095l-9.21 10.36a4.415 4.415 0 0 1-3.3 1.475z" fill="#1ABC9C"/><g fill="#0875BE"><path d="M186.139 81.849h-47.203c-2.434 0-4.407-1.905-4.407-4.257 0-2.351 1.973-4.257 4.407-4.257h47.203c2.434 0 4.407 1.906 4.407 4.257s-1.973 4.257-4.407 4.257zM186.139 93.52h-47.203c-2.434 0-4.407-1.906-4.407-4.257 0-2.352 1.973-4.257 4.407-4.257h47.203c2.434 0 4.407 1.905 4.407 4.257 0 2.35-1.973 4.256-4.407 4.256z"/></g><path d="M115.403 129a4.416 4.416 0 0 1-3.3-1.474l-7.017-7.894a4.273 4.273 0 0 1 .411-6.095c1.823-1.572 4.594-1.39 6.19.404l3.716 4.182 5.91-6.649c1.596-1.794 4.367-1.976 6.19-.405a4.274 4.274 0 0 1 .41 6.096l-9.21 10.361a4.414 4.414 0 0 1-3.3 1.474z" fill="#1ABC9C"/><g fill="#7547D8"><path d="M186.139 117.911h-47.203c-2.434 0-4.407-1.958-4.407-4.375s1.973-4.375 4.407-4.375h47.203c2.434 0 4.407 1.958 4.407 4.375s-1.973 4.375-4.407 4.375zM186.139 129.906h-47.203c-2.434 0-4.407-1.958-4.407-4.375s1.973-4.375 4.407-4.375h47.203c2.434 0 4.407 1.958 4.407 4.375 0 2.416-1.973 4.375-4.407 4.375z"/></g><path d="M115.403 164a4.417 4.417 0 0 1-3.3-1.474l-7.017-7.894a4.274 4.274 0 0 1 .411-6.096c1.822-1.571 4.593-1.389 6.19.405l3.716 4.182 5.91-6.649c1.596-1.795 4.367-1.976 6.19-.405a4.274 4.274 0 0 1 .41 6.096l-9.21 10.36a4.415 4.415 0 0 1-3.3 1.475z" fill="#1ABC9C"/><g fill="#0875BE"><path d="M186.139 153.06h-47.203c-2.434 0-4.407-1.906-4.407-4.257 0-2.352 1.973-4.257 4.407-4.257h47.203c2.434 0 4.407 1.905 4.407 4.257 0 2.35-1.973 4.257-4.407 4.257zM168.788 164.73h-29.853c-2.433 0-4.407-1.905-4.407-4.257 0-2.351 1.974-4.257 4.407-4.257h29.853c2.434 0 4.407 1.906 4.407 4.257 0 2.352-1.973 4.257-4.407 4.257z"/></g><g fill="#21374D"><path d="M82.571 45.156H48.65c-2.401 0-4.347-1.938-4.347-4.33 0-2.392 1.946-4.33 4.347-4.33h33.922c2.4 0 4.347 1.938 4.347 4.33 0 2.392-1.947 4.33-4.348 4.33zM82.571 57.188H48.65c-2.401 0-4.347-1.938-4.347-4.33 0-2.392 1.946-4.33 4.347-4.33h33.922c2.4 0 4.347 1.938 4.347 4.33 0 2.392-1.947 4.33-4.348 4.33zM82.571 69.22H48.65c-2.401 0-4.347-1.938-4.347-4.33 0-2.391 1.946-4.33 4.347-4.33h33.922c2.4 0 4.347 1.939 4.347 4.33 0 2.392-1.947 4.33-4.348 4.33zM82.571 92.017H48.65c-2.401 0-4.347-1.938-4.347-4.33 0-2.39 1.946-4.329 4.347-4.329h33.922c2.4 0 4.347 1.938 4.347 4.33 0 2.391-1.947 4.33-4.348 4.33zM82.571 104.05H48.65c-2.401 0-4.347-1.938-4.347-4.33 0-2.391 1.946-4.329 4.347-4.329h33.922c2.4 0 4.347 1.938 4.347 4.33 0 2.39-1.947 4.33-4.348 4.33zM82.571 116.083H48.65c-2.401 0-4.347-1.938-4.347-4.33 0-2.391 1.946-4.33 4.347-4.33h33.922c2.4 0 4.347 1.939 4.347 4.33s-1.947 4.33-4.348 4.33zM82.571 138.88H48.65c-2.401 0-4.347-1.938-4.347-4.33 0-2.39 1.946-4.329 4.347-4.329h33.922c2.4 0 4.347 1.938 4.347 4.33 0 2.39-1.947 4.33-4.348 4.33zM82.571 150.912H48.65c-2.401 0-4.347-1.938-4.347-4.33 0-2.391 1.946-4.33 4.347-4.33h33.922c2.4 0 4.347 1.939 4.347 4.33 0 2.392-1.947 4.33-4.348 4.33zM82.571 162.944H48.65c-2.401 0-4.347-1.938-4.347-4.33 0-2.391 1.946-4.33 4.347-4.33h33.922c2.4 0 4.347 1.939 4.347 4.33 0 2.392-1.947 4.33-4.348 4.33zM170.567 56.205h-46.866c-2.4 0-4.347-1.938-4.347-4.33 0-2.392 1.946-4.33 4.347-4.33h46.866c2.401 0 4.348 1.938 4.348 4.33 0 2.392-1.947 4.33-4.348 4.33z"/></g><path d="M270 257.92c0 3.344-2.749 6.08-6.11 6.08h-60.78c-3.361 0-6.11-2.736-6.11-6.08V130.08c0-3.344 2.749-6.08 6.11-6.08h60.78c3.361 0 6.11 2.736 6.11 6.08v127.84z" fill="#108794"/><path d="M208.133 257.92V130.08c0-3.344 2.64-6.08 5.867-6.08h-11.133c-3.227 0-5.867 2.736-5.867 6.08v127.84c0 3.344 2.64 6.08 5.867 6.08H214c-3.227 0-5.867-2.736-5.867-6.08z" fill="#0D6872"/><path d="M222 239v7.021a2.992 2.992 0 0 0 2.989 2.979h19.022a2.992 2.992 0 0 0 2.989-2.979V239h-25z" fill="#21374D"/><path fill="#F4B42E" d="M197 143h73v97h-73z"/><path fill="#CB9524" d="M197 143h12v97h-12z"/><path d="M244.697 138h-20.394c-2.377 0-4.303-2.014-4.303-4.5s1.926-4.5 4.303-4.5h20.394c2.377 0 4.303 2.014 4.303 4.5s-1.926 4.5-4.303 4.5z" fill="#21374D"/><g fill="#EEF6FF"><path d="M260.426 175.303c0 1.578-1.302 2.87-2.894 2.87h-48.087c-1.592 0-2.894-1.292-2.894-2.87V155.24c0-1.579 1.302-2.87 2.894-2.87h48.087c1.592 0 2.894 1.291 2.894 2.87v20.063zM246.419 192.367h-35.425c-2.398 0-4.342-1.927-4.342-4.305 0-2.377 1.944-4.304 4.342-4.304h35.425c2.398 0 4.342 1.927 4.342 4.304 0 2.378-1.944 4.305-4.342 4.305zM246.419 205.059h-35.425c-2.398 0-4.342-1.927-4.342-4.305 0-2.377 1.944-4.304 4.342-4.304h35.425c2.398 0 4.342 1.927 4.342 4.304 0 2.378-1.944 4.305-4.342 4.305zM246.419 217.75h-35.425c-2.398 0-4.342-1.926-4.342-4.304 0-2.377 1.944-4.304 4.342-4.304h35.425c2.398 0 4.342 1.927 4.342 4.304 0 2.378-1.944 4.304-4.342 4.304z"/></g><g fill="#D9EAFC"><path d="M218.19 175.303V155.24c0-1.579 1.319-2.87 2.93-2.87h-11.63c-1.613 0-2.932 1.291-2.932 2.87v20.063c0 1.578 1.319 2.87 2.931 2.87h11.632c-1.612 0-2.931-1.292-2.931-2.87zM218.292 188.062c0-2.377 1.968-4.304 4.396-4.304h-11.631c-2.428 0-4.397 1.927-4.397 4.304 0 2.378 1.969 4.305 4.397 4.305h11.631c-2.428 0-4.396-1.927-4.396-4.305zM218.292 200.754c0-2.377 1.968-4.304 4.396-4.304h-11.631c-2.428 0-4.397 1.927-4.397 4.304 0 2.378 1.969 4.305 4.397 4.305h11.631c-2.428 0-4.396-1.927-4.396-4.305zM218.292 213.446c0-2.377 1.968-4.304 4.396-4.304h-11.631c-2.428 0-4.397 1.927-4.397 4.304 0 2.378 1.969 4.304 4.397 4.304h11.631c-2.428 0-4.396-1.926-4.396-4.304z"/></g><path d="M150 24.083A2.92 2.92 0 0 1 147.094 27H41.906A2.92 2.92 0 0 1 39 24.083v-8.166A2.92 2.92 0 0 1 41.906 13h105.188A2.92 2.92 0 0 1 150 15.917v8.166z" fill="#FFF"/></g><g transform="translate(0 12)"><circle fill="#1ABC9C" cx="8.5" cy="8.5" r="8.5"/><circle fill="#1ABC9C" cx="42.5" cy="8.5" r="8.5"/><circle fill="#1ABC9C" cx="25.5" cy="28.5" r="8.5"/><circle fill="#1ABC9C" cx="25.5" cy="71.5" r="8.5"/><circle fill="#1ABC9C" cx="8.5" cy="51.5" r="8.5"/><circle fill="#1ABC9C" cx="42.5" cy="51.5" r="8.5"/><circle fill="#1ABC9C" cx="8.5" cy="94.5" r="8.5"/><circle fill="#1ABC9C" cx="42.5" cy="94.5" r="8.5"/><path d="M33.18 76c17.035 7.573 23.437 14.45 19.206 20.627-6.346 9.268-44.916 22.796-35.228 33.094 9.688 10.297 77.96 29.809 62.6 41.507-15.359 11.698-78.141 11.61-73.515 26.96 2.579 8.557 18.94 14.426 29.716 19.812" stroke="#21374D" stroke-width="2" stroke-linecap="round"/></g></g></svg>