<svg width="400" height="272" xmlns="http://www.w3.org/2000/svg" xmlns:xlink="http://www.w3.org/1999/xlink"><defs><path d="M0 0h127.694C131.177 0 134 2.813 134 6.283v174.434c0 3.471-2.823 6.283-6.306 6.283H0V0z" id="a"/><filter x="-23.1%" y="-16.6%" width="146.3%" height="133.2%" filterUnits="objectBoundingBox" id="c"><feOffset dy="2" in="SourceAlpha" result="shadowOffsetOuter1"/><feGaussianBlur stdDeviation="7" in="shadowOffsetOuter1" result="shadowBlurOuter1"/><feColorMatrix values="0 0 0 0 0 0 0 0 0 0 0 0 0 0 0 0 0 0 0.25 0" in="shadowBlurOuter1" result="shadowMatrixOuter1"/><feMerge><feMergeNode in="shadowMatrixOuter1"/><feMergeNode in="SourceGraphic"/></feMerge></filter><path d="M0 0h127.694C131.177 0 134 2.813 134 6.283v174.434c0 3.471-2.823 6.283-6.306 6.283H0V0z" id="d"/></defs><g fill="none" fill-rule="evenodd"><path d="M8.64 126.11C2.563 99.092 6.976 86.482 21.878 88.276c22.352 2.693 32.626 22.84 57.234 46.321 24.609 23.48 45.182-2.617 35.55-20.598-9.63-17.98-34.885-67.064-15.559-74.78 19.326-7.716 40.77 19.964 56.727 10.657C171.79 40.57 173.152 18.971 164.64 1" stroke="#21374D" stroke-width="2" stroke-linecap="round"/><g transform="translate(330 91)" fill="#1ABC9C"><circle cx="17.5" cy="17.5" r="17.5"/><circle cx="52.5" cy="17.5" r="17.5"/><circle cx="17.5" cy="52.5" r="17.5"/><circle cx="52.5" cy="52.5" r="17.5"/><circle cx="17.5" cy="87.5" r="17.5"/><circle cx="52.5" cy="87.5" r="17.5"/></g><g transform="translate(103 49)"><mask id="b" fill="#fff"><use xlink:href="#a"/></mask><g mask="url(#b)"><path fill="#0D1E2A" fill-rule="nonzero" d="M150.22-53.523H-19.525V199.96H150.22z"/><path d="M132.247 75.351c-32.427-1.6-121.9-55.354-112.281-97.328 5.051-21.726 26.933-43.289 67.591-13.808 40.657 29.48 100.934 113.928 44.69 111.136z" fill="#3D4B55" fill-rule="nonzero"/><path d="M64.303-68.914c27.806 1.527 94.7 58.87 92.316 77.708-2.384 18.839-27.39 30.184-62.146 4.88-34.756-25.305-78.358-85.252-30.17-82.588zM95.446 182.123c-40.278 1.755-157.173-55.006-150.142-108.47 3.653-27.698 28.185-57.15 81.893-25.065 53.707 32.085 138.09 130.504 68.249 133.535z" fill="#25343F" fill-rule="nonzero"/><path d="M163 155.477s-47.679-36.077-56.22-45.87C92.02 92.6 103.61 79.2 114.803 84.405 134.175 93.414 163 155.477 163 155.477z" fill="#5758F7" fill-rule="nonzero"/><path fill="#FFF" fill-rule="nonzero" d="M58.9 172.907v-4.714l-1.785 4.714h-.589l-1.784-4.714v4.714h-1.349v-6.527h1.9l1.537 4.086 1.529-4.086h1.899v6.537zM64.341 172.907v-.499a1.9 1.9 0 0 1-.661.471c-.25.107-.52.156-.791.146a1.487 1.487 0 0 1-1.118-.435 1.562 1.562 0 0 1-.346-.516 1.61 1.61 0 0 1-.122-.617 1.542 1.542 0 0 1 .113-.617c.08-.195.198-.37.348-.515.15-.144.327-.254.52-.323.195-.068.4-.093.605-.074.267-.016.536.028.786.129.25.099.477.252.666.449v-.598c0-.48-.398-.793-1.006-.793a1.866 1.866 0 0 0-1.32.559l-.475-.873a2.912 2.912 0 0 1 2.004-.746c1.054 0 2.013.432 2.013 1.795v3.057H64.34zm0-1.136v-.589a1.188 1.188 0 0 0-.95-.42c-.474 0-.863.263-.863.714 0 .452.389.706.864.706a1.182 1.182 0 0 0 .95-.411zM67.019 171.72v-2.46h-.76v-1.087h.76v-1.293h1.206v1.293h.95v1.088h-.95v2.127c0 .304.152.529.418.529a.595.595 0 0 0 .417-.148l.257.981a1.46 1.46 0 0 1-1.007.303 1.095 1.095 0 0 1-.522-.047 1.144 1.144 0 0 1-.447-.284 1.187 1.187 0 0 1-.276-.461 1.216 1.216 0 0 1-.046-.54zM73.2 172.907v-2.882c0-.656-.333-.861-.846-.861a1.29 1.29 0 0 0-.584.149 1.348 1.348 0 0 0-.46.4v3.194h-1.216v-6.527h1.216v2.412c.202-.233.45-.416.726-.542.277-.126.576-.188.878-.184.198-.028.4-.01.59.055.19.065.363.173.506.316.144.143.254.318.322.511.069.195.093.402.073.608v3.36l-1.206-.009zM75.298 172.26l.522-.902c.442.397 1 .63 1.586.658.522 0 .769-.206.769-.5 0-.775-2.716-.138-2.716-1.962 0-.792.665-1.49 1.9-1.49a2.863 2.863 0 0 1 1.841.649l-.484.88a1.939 1.939 0 0 0-1.358-.547c-.437 0-.721.196-.721.46 0 .697 2.724.108 2.724 2.018 0 .873-.721 1.51-1.993 1.51a3.026 3.026 0 0 1-2.07-.773zM81.441 172.26v2.412h-1.206v-6.538h1.206v.598a1.745 1.745 0 0 1 1.415-.716c1.177 0 2.032.903 2.032 2.48 0 1.578-.855 2.49-2.032 2.49-.274 0-.545-.064-.79-.19a1.792 1.792 0 0 1-.625-.535zm2.203-1.764a1.274 1.274 0 0 0-.29-.953 1.202 1.202 0 0 0-.396-.304 1.168 1.168 0 0 0-.482-.115c-.2.003-.398.055-.577.148a1.37 1.37 0 0 0-.458.39v1.668c.122.165.279.3.458.394.179.096.376.147.577.154a1.185 1.185 0 0 0 .866-.41c.11-.126.193-.273.245-.433.052-.16.071-.332.057-.5v-.039zM88.59 172.907v-.499a1.9 1.9 0 0 1-.661.471c-.25.107-.52.156-.791.146a1.487 1.487 0 0 1-1.117-.435 1.56 1.56 0 0 1-.347-.516 1.615 1.615 0 0 1-.122-.617 1.542 1.542 0 0 1 .113-.617c.08-.195.198-.37.348-.515.15-.144.327-.254.521-.323.194-.068.4-.093.604-.074.268-.016.536.028.786.129.25.099.478.252.667.449v-.598c0-.48-.4-.793-1.007-.793a1.866 1.866 0 0 0-1.32.559l-.474-.873a2.912 2.912 0 0 1 2.003-.746c1.054 0 2.013.432 2.013 1.795v3.057H88.59zm0-1.136v-.589a1.188 1.188 0 0 0-.95-.42c-.474 0-.863.263-.863.714 0 .452.39.706.864.706a1.182 1.182 0 0 0 .95-.411zM90.717 170.536c-.01-.332.047-.661.166-.967.12-.308.299-.586.527-.82a2.288 2.288 0 0 1 1.738-.694c.346-.02.693.047 1.009.195.315.15.592.375.804.658l-.788.764a1.13 1.13 0 0 0-.411-.38 1.075 1.075 0 0 0-.538-.128 1.322 1.322 0 0 0-.874.44 1.409 1.409 0 0 0-.353.936c0 .347.126.68.353.936.228.254.54.413.874.44.187.002.372-.045.537-.136.166-.09.307-.221.412-.383l.788.765a2.153 2.153 0 0 1-.803.664c-.316.15-.663.218-1.01.2a2.25 2.25 0 0 1-.942-.163c-.3-.119-.572-.302-.8-.536a2.408 2.408 0 0 1-.525-.821 2.478 2.478 0 0 1-.164-.97zM95.38 170.536a2.48 2.48 0 0 1 .16-.953c.117-.303.29-.58.513-.81.221-.233.486-.416.779-.539.292-.122.605-.183.92-.177.322-.003.64.063.935.196.295.132.56.327.776.571.217.247.381.536.483.851.1.314.137.649.105.978v.294h-3.41c.05.317.214.601.459.799.245.196.553.289.862.26a1.858 1.858 0 0 0 1.215-.461l.541.824a2.793 2.793 0 0 1-1.899.656 2.242 2.242 0 0 1-.945-.155 2.308 2.308 0 0 1-.806-.536 2.41 2.41 0 0 1-.527-.824 2.471 2.471 0 0 1-.162-.974zm2.373-1.46a1.032 1.032 0 0 0-.753.256c-.21.182-.341.442-.368.723h2.26a1.097 1.097 0 0 0-.374-.731 1.03 1.03 0 0 0-.765-.248zM103.212 172.907v-1.097c2.592-1.96 3.352-2.646 3.352-3.45 0-.58-.504-.853-1.026-.853a2.176 2.176 0 0 0-.928.189c-.293.13-.556.323-.771.565l-.77-.922c.311-.345.689-.62 1.11-.803.42-.184.874-.275 1.33-.264 1.359 0 2.422.783 2.422 2.088 0 1.117-.893 2.088-2.535 3.321h2.582v1.226h-4.766zM108.823 169.644c0-1.686.807-3.372 2.62-3.372 1.814 0 2.621 1.686 2.621 3.372s-.807 3.381-2.62 3.381c-1.814 0-2.62-1.695-2.62-3.381zm3.864 0c0-1.206-.332-2.137-1.243-2.137-.912 0-1.244.931-1.244 2.137 0 1.205.342 2.146 1.244 2.146.902 0 1.243-.94 1.243-2.146zM114.738 172.907v-1.097c2.592-1.96 3.352-2.646 3.352-3.45 0-.58-.503-.853-1.025-.853a2.177 2.177 0 0 0-.929.189c-.292.13-.555.323-.771.565l-.77-.922c.311-.345.69-.62 1.11-.803.42-.184.874-.275 1.331-.264 1.358 0 2.421.783 2.421 2.088 0 1.117-.892 2.088-2.535 3.321h2.583v1.226h-4.767zM120.35 169.644c0-1.686.807-3.372 2.611-3.372 1.804 0 2.62 1.686 2.62 3.372s-.806 3.381-2.62 3.381c-1.813 0-2.61-1.695-2.61-3.381zm3.855 0c0-1.206-.332-2.137-1.244-2.137-.911 0-1.234.931-1.234 2.137 0 1.205.332 2.146 1.234 2.146.902 0 1.244-.94 1.244-2.146z"/><path stroke="#FFF" stroke-width=".5" d="M125.914 157.313h-88.68"/><path stroke="#FFF" stroke-width="2" opacity=".05" d="M15.377 14.087V182.29"/><path stroke="#21374D" stroke-width="2" opacity=".05" d="M12.36 14.087V182.29"/><path d="M53.965 138.83h3.428l-5.684-14.66h-3.936l-5.706 14.66h3.45l.929-2.528h6.59l.93 2.527zm-4.224-11.956l2.433 6.725h-4.888l2.455-6.725zm8.948 11.955h2.809v-14.658h-2.81v14.658zm5.372 2.725c1.327 1.165 2.765 1.583 4.6 1.583 2.632 0 5.773-.99 5.773-5.033v-9.89h-2.831v1.363c-.862-1.077-2.013-1.626-3.295-1.626-2.698 0-4.71 1.934-4.71 5.406 0 3.538 2.034 5.406 4.71 5.406 1.305 0 2.455-.615 3.295-1.67v1.077c0 2.088-1.592 2.681-2.941 2.681-1.35 0-2.477-.373-3.34-1.318l-1.26 2.021zm7.542-6.483c-.464.682-1.482 1.21-2.41 1.21-1.593 0-2.699-1.1-2.699-2.924 0-1.824 1.106-2.923 2.698-2.923.93 0 1.947.506 2.411 1.209v3.428zm4.93-1.56c0 3.406 2.456 5.582 5.707 5.582 1.659 0 3.317-.483 4.4-1.472l-1.238-1.802c-.685.659-1.857 1.054-2.853 1.054-1.813 0-2.897-1.12-3.074-2.461h7.94v-.615c0-3.473-2.167-5.846-5.352-5.846-3.251 0-5.53 2.483-5.53 5.56zm5.53-3.34c1.858 0 2.565 1.34 2.632 2.351H79.43c.133-1.055.885-2.351 2.632-2.351zm7.38 8.658h2.81v-1.34c.84 1.033 2.012 1.604 3.295 1.604 2.698 0 4.733-2.022 4.733-5.56 0-3.472-2.013-5.582-4.733-5.582-1.26 0-2.455.55-3.295 1.626v-5.406h-2.81v14.658zm2.81-3.406v-3.758c.464-.703 1.503-1.23 2.41-1.23 1.637 0 2.72 1.252 2.72 3.098 0 1.846-1.083 3.077-2.72 3.077-.907 0-1.946-.506-2.41-1.187zm10.15 3.406h2.808v-7.01c.464-.681 1.703-1.187 2.632-1.187.31 0 .575.022.774.066v-2.725c-1.327 0-2.654.747-3.406 1.692v-1.45h-2.809v10.614zm14.383 0h2.808v-6.856c0-3.055-2.233-4.022-4.666-4.022-1.681 0-3.362.527-4.667 1.67l1.062 1.868c.907-.835 1.968-1.253 3.118-1.253 1.416 0 2.345.704 2.345 1.78v1.473c-.708-.857-1.969-1.297-3.384-1.297-1.703 0-3.716.901-3.716 3.385 0 2.373 2.013 3.516 3.716 3.516 1.393 0 2.654-.505 3.384-1.362v1.098zm0-2.549c-.465.615-1.35.923-2.256.923-1.106 0-2.013-.571-2.013-1.56 0-1.011.907-1.605 2.013-1.605.907 0 1.791.308 2.256.923v1.32zM43.102 114.037c1.921 0 2.983-1.017 3.59-2.06l-1.542-.74a2.287 2.287 0 0 1-2.048 1.217c-1.466 0-2.578-1.167-2.578-2.75 0-1.582 1.112-2.75 2.578-2.75.936 0 1.694.54 2.048 1.218l1.541-.753c-.594-1.043-1.668-2.047-3.589-2.047-2.464 0-4.423 1.758-4.423 4.332 0 2.575 1.959 4.333 4.423 4.333zm7.45 0c2.023 0 3.236-1.457 3.236-3.19 0-1.72-1.213-3.177-3.235-3.177-2.01 0-3.223 1.457-3.223 3.177 0 1.733 1.213 3.19 3.223 3.19zm0-1.42c-.998 0-1.554-.816-1.554-1.77 0-.942.556-1.758 1.555-1.758.998 0 1.567.816 1.567 1.758 0 .954-.569 1.77-1.567 1.77zm11.997 1.27h1.617v-4.384c0-1.243-.67-1.833-1.794-1.833-.936 0-1.744.552-2.098 1.105-.228-.69-.796-1.105-1.694-1.105-.935 0-1.744.577-1.996.942v-.792h-1.605v6.066h1.605v-4.081c.24-.34.707-.716 1.263-.716.658 0 .91.402.91.967v3.83h1.618v-4.094c.227-.326.695-.703 1.264-.703.657 0 .91.402.91.967v3.83zm10.761 0h1.618v-4.384c0-1.243-.67-1.833-1.795-1.833-.935 0-1.744.552-2.097 1.105-.228-.69-.797-1.105-1.694-1.105-.935 0-1.744.577-1.997.942v-.792H65.74v6.066h1.605v-4.081c.24-.34.708-.716 1.264-.716.657 0 .91.402.91.967v3.83h1.618v-4.094c.227-.326.695-.703 1.263-.703.658 0 .91.402.91.967v3.83zm6.023.15c2.022 0 3.235-1.457 3.235-3.19 0-1.72-1.213-3.177-3.235-3.177-2.01 0-3.223 1.457-3.223 3.177 0 1.733 1.214 3.19 3.223 3.19zm0-1.42c-.998 0-1.554-.816-1.554-1.77 0-.942.556-1.758 1.554-1.758s1.567.816 1.567 1.758c0 .954-.569 1.77-1.567 1.77zm8.546 1.27h1.605v-4.283c0-1.18-.645-1.934-1.984-1.934-.999 0-1.744.477-2.136.942v-.792h-1.605v6.066h1.605v-4.081a1.741 1.741 0 0 1 1.39-.716c.682 0 1.125.289 1.125 1.13v3.667zm10.489.15c1.92 0 2.982-1.017 3.589-2.06l-1.542-.74a2.287 2.287 0 0 1-2.047 1.217c-1.466 0-2.579-1.167-2.579-2.75 0-1.582 1.113-2.75 2.579-2.75.935 0 1.693.54 2.047 1.218l1.542-.753c-.594-1.043-1.668-2.047-3.59-2.047-2.464 0-4.423 1.758-4.423 4.332 0 2.575 1.96 4.333 4.424 4.333zm7.45 0c2.022 0 3.235-1.457 3.235-3.19 0-1.72-1.213-3.177-3.235-3.177-2.01 0-3.223 1.457-3.223 3.177 0 1.733 1.213 3.19 3.223 3.19zm0-1.42c-.999 0-1.555-.816-1.555-1.77 0-.942.556-1.758 1.555-1.758.998 0 1.567.816 1.567 1.758 0 .954-.569 1.77-1.567 1.77zm4.426 1.27h1.605v-4.007c.265-.39.973-.678 1.504-.678.176 0 .328.012.442.038v-1.558c-.758 0-1.517.427-1.946.967v-.829h-1.605v6.066zm4.162-3.04c0 1.947 1.403 3.19 3.26 3.19.948 0 1.896-.277 2.515-.842l-.707-1.03c-.392.377-1.062.603-1.63.603-1.037 0-1.656-.64-1.757-1.406h4.537v-.352c0-1.984-1.239-3.34-3.059-3.34-1.857 0-3.159 1.419-3.159 3.177zm3.16-1.909c1.061 0 1.465.766 1.503 1.344h-3.007c.075-.603.505-1.344 1.503-1.344z" fill="#FFF" fill-rule="nonzero"/></g></g><g filter="url(#c)" transform="translate(170 69)"><mask id="e" fill="#fff"><use xlink:href="#d"/></mask><g mask="url(#e)"><path fill="#108794" fill-rule="nonzero" d="M150.33-53.653H-19.1v252.95h169.43z"/><path d="M-116.222 95.816c23.077-21.968 39.567-59.134 61.563-84.026C-29.649-16.496 2.28-27.402 32-17.797c20.669 6.68 39.756 22.593 59.563 34.438 16.913 10.248 35.302 17.644 54.473 21.909 5.953 1.29 12.085 2.21 17.875-.372 5.109-2.279 9.63-7.14 14.216-11.57 13.704-13.312 28.63-23.18 44.106-29.294 12.463-4.89 26.308-6.65 38.59-1.76 1.536.616 3.915 166.83-2.274 173.872a99.58 99.58 0 0 1-21.485 18.633c-29.133 18.33-61.25 17.322-92.382 14.73-88.09-7.346-178.377-26.781-255.568-97.466l-5.336-9.507z" fill="#1CB7C8" fill-rule="nonzero"/><path d="M-155.693 143.859c1.355-26.232 10.983-49.237 22.943-63.8 11.96-14.564.654-93.436 14.69-98.913C-94.31-28.116-56.042-8.31-27.706 22.01 6.08 58.101 38.226 107.425 69.207 130.068c21.437 15.649 45.016 21.37 67.931 16.431 9.865-2.122 20.064-6.132 29.55-.713 13.694 7.824 21.939 32.746 28.933 55.75 2.33 7.648-334.89 15.894-336.085 8.656-3.345-20.335-6.69-40.688-13.97-56.885l-1.26-9.448z" fill="#108794" fill-rule="nonzero"/><path d="M-140.53 204.178c-1.64-19.66 4.89-39.408 14.272-51.731 9.382-12.324 21.238-18.27 33.009-21.938 15.542-4.89 31.615-6.133 47.167-1.37 13.372 4.108 26.1 12.578 39.292 18.026 23.2 9.566 48.589 9.273 70.13-8.02 27.484-22.104 44.628-67.614 64.103-106.61 5.686-11.287 11.979-22.613 20.394-27.122 9.96-5.34 20.85 0 30.232 7.824 20.906 17.606 37.216 47.007 51.896 77.268 2.996 6.172 5.962 12.46 8.635 19.034 2.843 7.032 1.63 83.703-2.39 88.652a41.803 41.803 0 0 1-11.465 9.928c-8.786 5.075-18.215 6.094-27.484 6.534-36.564 1.721-73.069-4.89-109.631-6.612-74.082-3.56-148.212 12.715-222.218 6.269-1.507-.127-3.412-3.237-2.01-4.128l-3.932-6.004z" fill="#0F737E" fill-rule="nonzero"/><path fill="#FFF" fill-rule="nonzero" d="M59.18 172.302v-4.704l-1.782 4.704h-.588l-1.781-4.704v4.704h-1.346v-6.514h1.895l1.536 4.078 1.525-4.078h1.896v6.523zM64.61 172.302v-.498c-.185.203-.41.363-.66.47-.25.106-.52.155-.79.145a1.485 1.485 0 0 1-1.115-.434 1.558 1.558 0 0 1-.346-.515 1.606 1.606 0 0 1-.121-.616 1.538 1.538 0 0 1 .113-.615c.079-.195.197-.37.347-.514a1.45 1.45 0 0 1 .52-.323c.193-.067.399-.092.602-.074a1.82 1.82 0 0 1 .785.129c.25.099.477.252.665.448v-.597c0-.478-.398-.791-1.004-.791a1.863 1.863 0 0 0-1.317.558l-.474-.871a2.907 2.907 0 0 1 2-.744c1.051 0 2.008.43 2.008 1.79v3.052H64.61zm0-1.134v-.588a1.186 1.186 0 0 0-.948-.42c-.473 0-.862.263-.862.713 0 .451.389.705.863.705a1.18 1.18 0 0 0 .947-.41zM67.283 171.117v-2.454h-.758v-1.086h.758v-1.29h1.204v1.29h.947v1.086h-.947v2.122c0 .304.151.528.417.528.152.006.3-.045.417-.147l.256.979c-.289.222-.646.33-1.005.302a1.093 1.093 0 0 1-.522-.047 1.142 1.142 0 0 1-.445-.283 1.185 1.185 0 0 1-.276-.46 1.213 1.213 0 0 1-.046-.54zM73.452 172.302v-2.876c0-.655-.332-.86-.844-.86a1.288 1.288 0 0 0-.582.148c-.181.096-.338.232-.46.4v3.188h-1.213v-6.514h1.213v2.406c.202-.231.449-.415.725-.54.276-.125.575-.188.877-.183.197-.029.398-.01.588.054.19.065.362.173.505.315.144.143.254.318.322.511.068.194.093.401.072.606v3.354l-1.203-.01zM75.547 171.656l.521-.9c.441.396.999.628 1.583.656.52 0 .767-.205.767-.5 0-.772-2.71-.136-2.71-1.956 0-.791.663-1.487 1.895-1.487a2.858 2.858 0 0 1 1.839.647l-.484.879a1.935 1.935 0 0 0-1.355-.547c-.436 0-.72.196-.72.46 0 .695 2.72.107 2.72 2.014 0 .87-.72 1.507-1.99 1.507a3.02 3.02 0 0 1-2.066-.773zM81.678 171.656v2.406h-1.203v-6.524h1.203v.597c.167-.223.38-.404.626-.528.245-.124.514-.186.787-.186 1.175 0 2.028.9 2.028 2.475 0 1.574-.853 2.484-2.028 2.484a1.73 1.73 0 0 1-.79-.19 1.789 1.789 0 0 1-.623-.534zm2.2-1.76a1.27 1.27 0 0 0-.29-.951 1.2 1.2 0 0 0-.396-.304 1.166 1.166 0 0 0-.48-.115 1.3 1.3 0 0 0-.576.148 1.366 1.366 0 0 0-.458.39v1.663c.123.165.279.3.457.394.179.095.376.147.576.153a1.183 1.183 0 0 0 .865-.409c.11-.125.193-.272.244-.432.052-.16.071-.33.057-.498v-.04zM88.815 172.302v-.498c-.185.203-.41.363-.66.47-.25.106-.52.155-.79.145a1.485 1.485 0 0 1-1.115-.434 1.556 1.556 0 0 1-.346-.515 1.611 1.611 0 0 1-.122-.616 1.538 1.538 0 0 1 .113-.615c.08-.195.197-.37.347-.514a1.45 1.45 0 0 1 .52-.323c.194-.067.4-.092.603-.074a1.82 1.82 0 0 1 .785.129c.25.099.476.252.665.448v-.597c0-.478-.398-.791-1.005-.791a1.863 1.863 0 0 0-1.317.558l-.474-.871a2.907 2.907 0 0 1 2-.744c1.052 0 2.009.43 2.009 1.79v3.052h-1.213zm0-1.134v-.588a1.186 1.186 0 0 0-.948-.42c-.474 0-.862.263-.862.713 0 .451.388.705.862.705a1.18 1.18 0 0 0 .948-.41zM90.937 169.935c-.01-.33.047-.66.166-.965.12-.307.298-.585.526-.818a2.284 2.284 0 0 1 1.735-.692 2.09 2.09 0 0 1 1.006.194c.316.149.591.374.803.656l-.786.763a1.127 1.127 0 0 0-.41-.379 1.074 1.074 0 0 0-.538-.128 1.32 1.32 0 0 0-.871.44 1.406 1.406 0 0 0-.353.933c0 .347.126.679.353.934.226.254.537.412.871.44.187.002.372-.045.537-.136.165-.09.306-.221.41-.382l.787.763a2.149 2.149 0 0 1-.801.662 2.08 2.08 0 0 1-1.009.2c-.32.013-.64-.042-.94-.162-.298-.12-.57-.303-.798-.536a2.403 2.403 0 0 1-.524-.82 2.473 2.473 0 0 1-.164-.967zM95.59 169.935c-.008-.325.047-.649.162-.951.116-.302.29-.578.51-.808.222-.232.487-.416.779-.538.291-.122.604-.183.92-.177.32-.003.638.063.932.196.294.132.558.326.774.57.217.246.38.534.482.85.1.313.136.646.105.975v.293H96.85c.05.317.213.6.457.797a1.2 1.2 0 0 0 .86.26 1.855 1.855 0 0 0 1.214-.46l.54.822a2.788 2.788 0 0 1-1.896.655 2.238 2.238 0 0 1-.944-.155c-.3-.117-.574-.3-.803-.534a2.405 2.405 0 0 1-.527-.823 2.465 2.465 0 0 1-.161-.972zm2.37-1.457a1.03 1.03 0 0 0-.751.255c-.21.182-.34.442-.367.722h2.255a1.095 1.095 0 0 0-.373-.73 1.027 1.027 0 0 0-.764-.247zM103.41 172.302v-1.095c2.586-1.957 3.345-2.641 3.345-3.443 0-.578-.503-.851-1.024-.851a2.173 2.173 0 0 0-.926.188 2.27 2.27 0 0 0-.77.564l-.768-.92c.31-.344.687-.618 1.107-.802.42-.183.873-.274 1.329-.263 1.355 0 2.416.782 2.416 2.084 0 1.115-.89 2.083-2.53 3.314h2.578v1.224h-4.758zM109.01 169.045c0-1.682.805-3.365 2.615-3.365s2.616 1.683 2.616 3.365c0 1.682-.805 3.374-2.616 3.374-1.81 0-2.615-1.692-2.615-3.374zm3.857 0c0-1.203-.332-2.132-1.242-2.132-.91 0-1.241.929-1.241 2.132s.341 2.141 1.241 2.141c.9 0 1.242-.938 1.242-2.141zM114.914 172.302v-1.095c2.587-1.957 3.345-2.641 3.345-3.443 0-.578-.502-.851-1.023-.851a2.174 2.174 0 0 0-.926.188c-.293.13-.555.323-.77.564l-.768-.92c.31-.344.687-.618 1.107-.802.42-.183.873-.274 1.329-.263 1.355 0 2.416.782 2.416 2.084 0 1.115-.89 2.083-2.53 3.314h2.578v1.224h-4.758zM120.515 169.045c0-1.682.806-3.365 2.607-3.365 1.8 0 2.615 1.683 2.615 3.365 0 1.682-.805 3.374-2.615 3.374s-2.607-1.692-2.607-3.374zm3.848 0c0-1.203-.331-2.132-1.241-2.132-.91 0-1.232.929-1.232 2.132s.331 2.141 1.232 2.141c.9 0 1.241-.938 1.241-2.141z"/><path stroke="#FFF" stroke-width=".5" d="M126.069 156.74H37.553"/><path stroke="#FFF" stroke-width="2" opacity=".05" d="M15.737 13.814v167.85"/><path stroke="#21374D" stroke-width="2" opacity=".05" d="M12.725 13.814v167.85"/><path d="M119.052 124v2.742H112.1v3.576a4.646 4.646 0 0 1 3.223-1.218 4.572 4.572 0 0 1 4.692 4.74c0 3.09-2.322 5.063-5.856 5.063-2.54-.012-4.387-.846-5.636-2.205l1.737-2.17a5.27 5.27 0 0 0 3.881 1.603c1.73 0 2.717-.987 2.717-2.175 0-1.292-.962-2.17-2.632-2.17a4.183 4.183 0 0 0-3.046 1.183l-2.17-.61V124h10.042zm-30.891 3.741c2.437 0 4.649.969 4.649 4.015v6.843l-2.81.03v-1.12a4.313 4.313 0 0 1-3.35 1.382 3.513 3.513 0 0 1-3.376-2.132 3.51 3.51 0 0 1-.28-1.377c0-2.498 1.974-3.418 3.656-3.418a4.317 4.317 0 0 1 3.35 1.291v-1.34c0-1.073-.92-1.773-2.32-1.773a4.446 4.446 0 0 0-3.047 1.218l-1.097-1.95a6.818 6.818 0 0 1 4.625-1.669zm-11.675.03c3.18 0 5.307 2.37 5.307 5.813v.658h-7.872c.195 1.292 1.219 2.37 3.047 2.37a4.438 4.438 0 0 0 2.808-1.03l1.22 1.829a6.612 6.612 0 0 1-4.364 1.468c-3.198.012-5.63-2.157-5.63-5.557a5.404 5.404 0 0 1 5.484-5.55zm24.975 0v2.724a3.214 3.214 0 0 0-.767-.067 3.527 3.527 0 0 0-2.608 1.219v6.994l-2.784-.012v-10.595h2.784v1.425a4.64 4.64 0 0 1 3.375-1.687zM61.552 124l3.601 5.855L68.81 124h3.534l-5.593 8.64v5.99h-3.138v-5.99L58 124h3.552zm26.213 9.828c-1.097 0-1.993.61-1.993 1.596 0 .987.896 1.585 1.993 1.585a2.771 2.771 0 0 0 2.236-.927v-1.316a2.799 2.799 0 0 0-2.236-.938zm-11.279-3.772a2.434 2.434 0 0 0-2.59 2.255h5.222a2.436 2.436 0 0 0-2.632-2.255zM94.606 107.061a3.442 3.442 0 0 1 2.722 2.692 3.437 3.437 0 0 1-3.369 4.124 3.307 3.307 0 0 1-2.46-.951 3.284 3.284 0 0 1-.978-2.448 3.442 3.442 0 0 1 2.095-3.205 3.443 3.443 0 0 1 1.99-.212zm-13.08.018a2.953 2.953 0 0 1 2.74 1.606l-1.202.59a1.775 1.775 0 0 0-1.537-.984 2.16 2.16 0 0 0-2.158 2.157 2.159 2.159 0 0 0 2.158 2.158 1.779 1.779 0 0 0 1.537-.985l1.202.58a3.01 3.01 0 0 1-2.74 1.617 3.34 3.34 0 0 1-3.506-3.34 3.335 3.335 0 0 1 2.163-3.19 3.341 3.341 0 0 1 1.344-.209zm20.92.222a2.063 2.063 0 0 1 1.365 2.004 1.904 1.904 0 0 1-1.448 1.97l1.488 2.503-1.656-.02-1.29-2.334h-.985v2.334h-1.4v-6.57h3.074c.29-.023.579.016.852.113zm-32.86-.114l1.823 5.044 1.822-5.044h1.586l-2.532 6.571h-1.753L68 107.188h1.586zm7.35 0v6.571h-1.4v-6.57h1.4zm13.162 0v1.232h-1.912v5.34h-1.408v-5.34h-1.922v-1.232h5.242zm16.225 0v6.571h-1.399v-6.57h1.4zm4.936 0l2.532 6.571h-1.547l-.414-1.113h-2.807l-.414 1.113h-1.626l2.532-6.57h1.744zm4.729 0l3.034 4.128v-4.128h1.399v6.571h-1.35l-3.123-4.285v4.285h-1.399v-6.57h1.439zm-22.496 1.57a1.972 1.972 0 0 0-.586 3.555 1.976 1.976 0 0 0 2.537-.318 1.99 1.99 0 0 0 .414-.704 1.974 1.974 0 0 0-1.244-2.493 1.972 1.972 0 0 0-1.12-.04zm16.94-.18l-.986 2.827h2.04l-1.055-2.828zm-9.084-.158H99.87v1.773h1.478a.9.9 0 0 0 .373-.037.905.905 0 0 0 .54-.493.898.898 0 0 0 .072-.366.89.89 0 0 0-.618-.84.875.875 0 0 0-.367-.037z" fill="#FFF" fill-rule="nonzero"/></g></g><g fill-rule="nonzero"><path d="M18 187v39.676c0 4.073 1.869 7.92 5.07 10.384C30.809 243.013 46.863 253 67.5 253c20.638 0 36.692-9.987 44.43-15.94 3.201-2.464 5.07-6.31 5.07-10.384V187H18z" fill="#F4B42E"/><path d="M67.5 187H18v39.676c0 4.073 1.869 7.92 5.07 10.384C30.808 243.013 46.863 253 67.5 253v-5.783c0-7.198 4.081-13.71 10.444-16.913l.098-.05L117 210.402V187H67.5z" fill="#A97B1C"/><path d="M130.084 191.712L72.45 220.593a13.282 13.282 0 0 1-11.897 0l-57.636-28.88c-3.888-1.949-3.888-7.477 0-9.425l57.635-28.881a13.282 13.282 0 0 1 11.897 0l57.636 28.88c3.888 1.949 3.888 7.477 0 9.425z" fill="#F4B42E"/><path d="M104.024 223c-1.091 0-1.976-.853-1.976-1.904v-13.667a.63.63 0 0 0-.363-.567l-35.597-17.257c-.975-.472-1.367-1.617-.877-2.556.49-.94 1.678-1.318 2.653-.846l35.597 17.257c1.566.759 2.539 2.28 2.539 3.969v13.667c0 1.051-.885 1.904-1.976 1.904z" fill="#21374D"/><path d="M103 217c-2.761 0-5 2.318-5 5.179v8.232c0 1.43 1.12 2.589 2.5 2.589h5c1.38 0 2.5-1.16 2.5-2.59v-8.231c0-2.86-2.239-5.179-5-5.179z" fill="#E76D83"/><path d="M102.667 230.41v-8.231c0-1.916.94-3.585 2.333-4.48a4.295 4.295 0 0 0-2.333-.699c-2.578 0-4.667 2.318-4.667 5.179v8.232c0 1.43 1.045 2.589 2.333 2.589H105c-1.289 0-2.333-1.16-2.333-2.59z" fill="#CE4C63"/><path d="M61.006 153.406L2.937 182.288c-3.916 1.948-3.916 7.476 0 9.424l58.07 28.882A13.455 13.455 0 0 0 67 222c-23.146-22.886-24.407-45.868 0-70-2.054 0-4.108.469-5.994 1.406z" fill="#CB9524"/><path d="M106.203 218h-6.406c-.993 0-1.797-.895-1.797-2s.804-2 1.797-2h6.406c.993 0 1.797.895 1.797 2s-.804 2-1.797 2z" fill="#CE4C63"/></g></g></svg>