<svg width="604" height="501" xmlns="http://www.w3.org/2000/svg" xmlns:xlink="http://www.w3.org/1999/xlink"><defs><path id="a" d="M0 0h39v44H0z"/><path id="c" d="M.162.192h40.244v28.656H.162z"/><path id="e" d="M0 .086h35.003V28H0z"/></defs><g fill="none" fill-rule="evenodd"><path d="M595.107 202.752c-17.563 33.004-20.615 71.925-8.366 107.788 7.936 23.236 9.177 59.129 2.628 82.947-21.046 76.522-118.38 122.114-212.23 88.05-86.049-31.232-107.117-160.09-173.188-146.082C48.55 368.402-7.421 257.693.776 167.571 6.071 109.357 54.92 37.355 159.266 44.915c30.721 2.226 60.892-5.322 86.892-20.35C290.558-1.1 361.13-7.117 434.444 13.025 544.72 43.322 619.417 121.319 601.29 187.236a75.562 75.562 0 0 1-6.182 15.516" fill="#7191F8" opacity=".676"/><path d="M158.847 500.174c10.306 2.223 21.034-.16 29.697-6.205 8.447-5.895 17.123-14.643 11.846-23.474-9.265-15.505-49.012 5.27-52.164 19.046-1.427 6.243 4.123 9.231 10.62 10.633M236.058 413.116c-3.943-6.484 3.735-29.416 13.16-26.937 5.368 1.412 5.274 8.04 4.196 13.482-1.103 5.582-4.384 10.531-9.232 13.551-3.056 1.904-6.338 2.84-8.124-.096zm-11.813-30.137c2.754-3.375 6.537-3.296 9.283-2.603 2.817.712 4.484 2.792 4.472 5.853-.008 1.928-.652 3.997-2.991 5.113-5.157 2.462-15.597-2.439-10.764-8.363zM32.427 21.184C32.6 28.77 14.484 44.79 7.56 37.93c-3.943-3.907-.547-9.6 3.107-13.773 3.747-4.283 9.062-6.929 14.77-7.12 3.6-.12 6.91.709 6.989 4.146zm-4.839 32.005c-4.072 1.546-7.309-.414-9.34-2.387-2.084-2.026-2.487-4.66-.947-7.305.971-1.666 2.564-3.136 5.147-2.932 5.697.446 12.288 9.91 5.14 12.624z" fill="#7191F8"/><path d="M478 498.992h-76c0-3.898 1.582-7.426 4.136-9.98a14.05 14.05 0 0 1 9.98-4.135h.133s16.128-2.105 16.128-15.28v-78.605h15.246v78.606c0 13.174 16.128 15.279 16.128 15.279h.133c7.797 0 14.116 6.319 14.116 14.115" fill="#424548"/><path fill="#27292C" d="M447.623 390.992v3.27l-15.192 4.73v-8z"/><path d="M513 390.992H367c2.412-13.344 14.03-23.038 27.572-23l45.427.122 45.429-.122c13.54-.038 25.16 9.656 27.572 23" fill="#424548"/><path d="M409.075 220.863c-3.817 14.107-23.054 50.864-30.523 56.13-9.722 6.859-40.207 19.728-56.062 26.293-2.862 1.183 7.749 13.706 7.749 13.706s41.007-10.433 57.713-21.1c4.725-3.017 14.964-13.265 27.926-33.81 3.93-6.228 13.03-18.606 14.04-27.447 1.161-10.176-10.297-17.178-20.843-13.772" fill="#E13C67"/><path d="M363.467 463.992l.533 15.213s-3.833 2.786-11.76 1.402L349 464.245l14.467-.253z" fill="#F7AD89"/><path d="M354.14 479.481s-2.659-3.61-4.814-3.485c-2.155.122-18.948 12.834-24.654 13.823-5.705.989-5.42 7.946-3.18 8.737 2.55.901 44.728.127 44.728.127s1.603-14.717.213-18.694c-1.39-3.98-7.86.49-12.294-.508" fill="#F41F65"/><path d="M344.98 487.957c.197.06.418.045.615-.06a.755.755 0 0 0 .308-1.037c-.07-.125-1.738-3.043-4.023-4.206-3.04-1.551-5.452.103-5.554.175a.75.75 0 0 0-.177 1.067.796.796 0 0 0 1.094.173c.066-.044 1.746-1.16 3.91-.06 1.863.948 3.361 3.562 3.376 3.589.1.177.265.302.451.359" fill="#FFF9FF"/><path d="M346.98 485.957c.196.06.417.045.614-.06a.756.756 0 0 0 .309-1.038c-.071-.124-1.738-3.042-4.024-4.204-3.041-1.553-5.452.102-5.553.174a.75.75 0 0 0-.177 1.066.795.795 0 0 0 1.094.173c.066-.044 1.746-1.159 3.911-.06 1.869.953 3.36 3.56 3.374 3.588.1.18.265.303.451.361M340.979 489.957c.198.06.42.045.615-.06a.753.753 0 0 0 .309-1.038c-.07-.124-1.738-3.042-4.023-4.205-3.042-1.551-5.453.103-5.554.175a.748.748 0 0 0-.177 1.065.795.795 0 0 0 1.093.174c.066-.044 1.749-1.158 3.912-.059 1.87.952 3.36 3.561 3.373 3.587a.78.78 0 0 0 .452.361" fill="#FFF9FF"/><path d="M403.114 333.953s-59.22-9.762-77.005 1.366c-13.484 8.436 21.254 133.028 21.254 133.028 6.187 1.926 14.783-.756 18.141-4.11 0 0 5.463-14.705.445-57.243-.666-5.653 0-18.55-6.027-41.39L405 345.725l-1.886-11.771z" fill="#001030"/><path d="M456.418 202.891s16.453 5.348 25.249 13.038c8.797 7.69 1.44 30.634 1.654 43.665.216 13.029-1.942 88.673-20.692 98.179-14.16 7.177-73.761-3.72-69.402-23.06 2.899-12.863 8.393-36.502 12.211-68.484 2.518-21.098 1.455-36.681 3.817-45.44 2.359-8.757 29.906-18.797 29.906-18.797l17.257.9z" fill="#F86382"/><path d="M440.263 221.773c8.5 1.532 18.09-5.46 18.507-5.767a.542.542 0 0 0 .098-.798.639.639 0 0 0-.858-.092c-.1.074-10.144 7.395-18.241 5.387-.323-.082-.66.1-.748.402-.087.303.106.614.433.696.268.067.539.124.81.172M451.4 320.992a.605.605 0 0 0 .067-1.207c-22.053-2.553-31.188-40.937-31.277-41.325a.603.603 0 1 0-1.174.275c.373 1.616 9.425 39.604 32.312 42.253a.639.639 0 0 0 .071.004" fill="#E62461"/><path d="M442.396 308.992a.6.6 0 0 0 .515-.292.621.621 0 0 0-.198-.844c-11.75-7.37-13.496-18.232-13.513-18.34a.602.602 0 0 0-.686-.516.614.614 0 0 0-.507.698c.07.466 1.825 11.52 14.073 19.205.099.061.208.09.316.09" fill="#E62461"/><path d="M446.308 186.622c13.111-2.307 20.59-14.611 18.274-27.662-2.318-13.052-13.556-21.909-26.666-19.602-13.112 2.308-21.861 14.758-19.544 27.81 2.318 13.051 14.826 21.762 27.936 19.454z" fill="#232323"/><path d="M419.478 158.992s-10.731-4.286-8.047-9.747c1.714-3.49 5.616-1.444 7.34-6.699 1.724-5.255 8.878-6.122 14.972-5.962 5.553.148 7.429-2.508 15.63-1.254 8.201 1.253 11.876 7.835 8.201 12.536-3.673 4.702-38.096 11.126-38.096 11.126" fill="#232323"/><path d="M423.263 172.838s-4.742-4.34-6.847.29c-2.106 4.63 4.137 16.154 10.584 11.963l-3.737-12.253z" fill="#FA8465"/><path d="M424.486 181.983a.63.63 0 0 1-.668-.327c-1.833-3.63-6.268-4.479-6.312-4.487a.597.597 0 0 1-.495-.694c.064-.321.39-.533.727-.472.205.037 5.092.958 7.2 5.137.15.296.02.65-.29.793a.666.666 0 0 1-.162.05" fill="#FA664D"/><path d="M420.733 180.984a.68.68 0 0 1-.35-.036c-.317-.124-.468-.462-.334-.756.022-.05.56-1.21 1.977-2.1a.656.656 0 0 1 .867.154.552.552 0 0 1-.166.802c-1.097.69-1.523 1.582-1.527 1.59a.618.618 0 0 1-.467.346" fill="#FA664D"/><path d="M454.826 190.992L457 203.216s-4.097 6.276-8.98 7.572c-4.876 1.3-8.93-4.021-8.93-4.021L437 195.012l17.826-4.02z" fill="#F7AD89"/><path d="M455.025 190.992l.975 5.475c-2.704 4.296-8.514 6.27-17.584 6.525L437 195.05l18.025-4.058z" fill="#FA8465"/><path d="M462.994 173.476a38.736 38.736 0 0 1-.181 3.418 60.16 60.16 0 0 1-.438 3.333c-1.535 9.482-6.311 22.232-23.246 19.351-8.406-1.423-13.623-9.594-16.843-18.275a73.757 73.757 0 0 1-1.982-6.254 96.777 96.777 0 0 1-2.15-10.176 12.924 12.924 0 0 1 4.528-11.95c9.507-7.867 21.051-7.604 28.89-6.08a12.855 12.855 0 0 1 10.288 10.986c.61 4.77 1.204 10.761 1.134 15.647" fill="#F7AD89"/><path d="M451.734 191.242c-3.888 2.928-8.846 3.655-11.58 3.461a15.13 15.13 0 0 1-4.666-1.066c-2.683-1.07-3.058-4.775-.593-6.287 1.568-.96 4.056-1.63 7.967-1.696 6.109-2.607 8.796-1.584 9.947.15 1.176 1.773.62 4.163-1.075 5.438zm5.872-21.25s.601 6.427-.492 11.32c-4.101-3.834-15.636 2.22-15.636 2.22s-12.241-1.104-13.9 3.385c-1.841-2.44-3.813-7.985-5.148-11.794l-2.43-.252c.557 2.07 1.21 4.2 1.978 6.298 3.214 8.742 8.424 16.972 16.814 18.406 16.907 2.9 22.208-9.287 23.698-20.06-.693-5.544-1.49-9.023-1.49-9.023l-3.394-.5z" fill="#232323"/><path d="M432.944 173.214c.223 1.372-.244 2.609-1.042 2.763-.798.153-1.624-.833-1.847-2.205-.222-1.372.246-2.609 1.044-2.764.798-.153 1.624.834 1.845 2.206M449.944 170.214c.223 1.372-.244 2.609-1.042 2.763-.799.153-1.625-.833-1.846-2.205-.223-1.372.244-2.609 1.042-2.764.799-.153 1.625.834 1.846 2.206M425.051 167.532s5.79-3.487 10.949-2.289l-.007 2.248s-5.396-.235-10.143 2.501c-.499-.95-1.017-1.357-.799-2.46M453.679 162.307s-6.414-1.35-10.679 1.546l.764 2.14s4.803-2.062 10.02-1.073c.13-1.074.463-1.637-.105-2.613" fill="#232323"/><path d="M442.691 180.941c.984-.169 1.893-.711 2.033-.798a.572.572 0 0 0 .186-.797.6.6 0 0 0-.817-.181c-.49.298-1.696.845-2.302.619-.117-.044-.284-.141-.383-.48-.57-1.955-1.22-8.719-1.225-8.787a.59.59 0 0 0-.646-.522.58.58 0 0 0-.534.63c.026.282.666 6.94 1.267 8.996.226.774.722 1.103 1.1 1.244.412.154.874.154 1.321.076" fill="#FA8465"/><path d="M436 188.523c.914 2.245 3.317 6.252 8.74 5.336 5.435-.917 6.236-5.085 6.26-7.867l-15 2.531z" fill="#FFF9FF"/><path d="M423.416 177.571c-.857-2.331-1.833-5.365-1.798-7.015.07-2.924 2.09-4.996.844-7.578-1.248-2.594 1.085-6.027 3.096-6.887 2.004-.864 7.08-.685 11.492-3.858 4.208-3.033 12.474-2.88 14.298-.129 2.207 3.33.123 4.055 5.105 7.192 1.984 1.253.659 5.658.83 8.341.08 1.234.164 1.828.438 3.119l.132.657 5.147-.921c-.145-4.18-.608-8.736-1.087-12.53-.704-5.558-4.857-13.035-10.303-14.108-7.85-1.542-19.401-1.811-28.925 6.149-3.51 2.938-5.239 10.523-4.527 15.08.55 3.537 1.455 8.168 2.898 12.91l2.36-.422z" fill="#232323"/><path d="M461.378 172.763a24.404 24.404 0 0 1-.378-4.194c.001-1.925.225-3.715 1.87-4.83 1.322-.898 2.84-1.2 4.208.326 3.366 3.755 2.57 17.592-4.461 15.762l-1.24-7.064z" fill="#F7AD89"/><path d="M462.802 175.95a.625.625 0 0 0 .355-.635c-.375-4.173 2.628-7.217 2.658-7.247a.661.661 0 0 0 .04-.872.527.527 0 0 0-.792-.045c-.142.14-3.456 3.481-3.024 8.284.03.34.305.588.613.554a.534.534 0 0 0 .15-.038" fill="#FA8465"/><path d="M466.58 172.95a.659.659 0 0 0 .294-.21.584.584 0 0 0-.146-.855c-.052-.034-1.225-.81-3.036-.892-.362-.017-.674.245-.691.583-.018.337.262.625.626.64 1.401.064 2.317.655 2.325.66a.7.7 0 0 0 .628.074" fill="#FA8465"/><path d="M443.148 168.787c-.175-.835.377-1.647 1.226-1.818l9.274-1.853c.853-.171 1.684.366 1.858 1.2l.242 1.16c.35 1.676.017 3.412-.918 4.754-.932 1.34-2.13 2.177-3.555 2.494l-.223.045a6.58 6.58 0 0 1-4.871-.918 6.38 6.38 0 0 1-2.829-4.084l-.204-.98zm-1.094.218l.204.98a7.457 7.457 0 0 0 3.311 4.78 7.705 7.705 0 0 0 5.706 1.074l.246-.049c1.714-.38 3.136-1.37 4.235-2.945 1.1-1.589 1.495-3.622 1.086-5.587l-.242-1.16a2.534 2.534 0 0 0-.365-.878 2.629 2.629 0 0 0-.789-.79 2.73 2.73 0 0 0-2.023-.384l-9.272 1.853c-1.05.21-1.829.99-2.07 1.945-.09.349-.108.72-.038 1.092.001.023.007.049.01.07zM424.146 172.787c-.174-.835.377-1.647 1.227-1.816l9.275-1.856c.85-.169 1.684.367 1.86 1.202l.24 1.16c.35 1.675.014 3.411-.917 4.753-.932 1.338-2.13 2.175-3.555 2.494l-.226.045a6.568 6.568 0 0 1-4.869-.918 6.369 6.369 0 0 1-2.83-4.084l-.205-.98zm-1.094.219l.205.981c.413 1.975 1.59 3.673 3.31 4.778a7.704 7.704 0 0 0 5.706 1.074l.248-.049c1.71-.378 3.137-1.37 4.232-2.945 1.1-1.588 1.5-3.622 1.09-5.588l-.243-1.159a.21.21 0 0 0-.014-.05 2.509 2.509 0 0 0-.429-.943 2.711 2.711 0 0 0-2.732-1.058l-9.276 1.852a2.692 2.692 0 0 0-1.832 1.337 2.516 2.516 0 0 0-.306 1.057c-.024.235-.008.473.041.713z" fill="#FFF9FF"/><path d="M461.78 161.992c-3.14.498-5.177 1.837-5.966 2.449-.222.168-.79.724-.814.747l.701.804c.007-.005.635-.575.891-.76.78-.574 2.529-1.76 5.408-2.17l-.22-1.07zM442.86 169.033l.14-.975c-.065-.008-1.636-.197-3.246.106-1.716.324-2.712 1.018-2.754 1.047l.649.781c.006-.004.858-.589 2.319-.864 1.429-.27 2.876-.097 2.891-.095M419 171.056l.218.727c2.24-.182 4.477.205 4.508.21l.274-.717c-.133-.023-2.534-.439-5-.22" fill="#FFF9FF"/><path d="M396.467 463.992l.533 15.213s-3.833 2.786-11.76 1.402L382 464.245l14.467-.253z" fill="#F7AD89"/><path d="M387.138 479.481s-2.656-3.61-4.812-3.485c-2.155.122-18.95 12.834-24.653 13.823-5.705.989-5.423 7.946-3.181 8.737 2.551.901 44.728.127 44.728.127s1.603-14.717.213-18.694c-1.39-3.98-7.86.49-12.295-.508" fill="#FF5480"/><path d="M377.98 487.957c.197.06.418.045.615-.06a.755.755 0 0 0 .308-1.037c-.07-.125-1.738-3.043-4.023-4.206-3.04-1.551-5.452.103-5.554.175a.75.75 0 0 0-.177 1.067.796.796 0 0 0 1.094.173c.065-.044 1.745-1.16 3.91-.06 1.863.948 3.361 3.562 3.376 3.589.1.177.265.302.451.359" fill="#FFF9FF"/><path d="M379.98 485.957c.196.06.417.045.614-.06a.756.756 0 0 0 .309-1.038c-.071-.124-1.738-3.042-4.024-4.204-3.04-1.553-5.451.102-5.552.174a.751.751 0 0 0-.179 1.066.796.796 0 0 0 1.095.173c.066-.044 1.747-1.159 3.911-.06 1.869.953 3.36 3.56 3.374 3.588.1.18.265.303.451.361M374.98 489.957c.197.06.418.045.614-.06a.753.753 0 0 0 .309-1.038c-.07-.124-1.738-3.042-4.023-4.205-3.043-1.551-5.453.103-5.554.175a.75.75 0 0 0-.177 1.065.797.797 0 0 0 1.094.174c.065-.044 1.746-1.158 3.91-.059 1.87.952 3.36 3.561 3.374 3.587a.787.787 0 0 0 .453.361" fill="#FFF9FF"/><path d="M475.072 335.514s-103.04-5.637-120.725-.055c-15.216 4.8 26.38 132.888 26.38 132.888 6.207 1.925 14.831-.755 18.2-4.106 0 0 3.164-7.646-1.872-50.14-.669-5.647-1.376-23.253-7.423-46.065l68.352.342c14.642 0 19.274-12.285 17.735-26.767l-.647-6.097z" fill="#2E3062"/><path d="M376.228 303.992s-15.627 2.601-22.144 7.959c-6.52 5.358-15.256 9.97-13.954 12.74 1.306 2.772 10.504-3.11 10.504-3.11s2.19 4.995 9.725 7.163c7.534 2.168 23.641-10.583 23.641-10.583l-7.772-14.169z" fill="#F7AD89"/><path d="M478.4 212.992c-8.636 13.107-41.69 58.42-49.148 63.684-9.71 6.854-36.869 21.096-52.702 27.656-2.856 1.184 6.345 14.66 6.345 14.66s39.06-12.766 55.743-23.428c4.718-3.015 24.345-22.7 36.859-40.16 4.288-5.982 11.26-14.29 12.27-23.124 1.161-10.171-2.03-15.613-9.366-19.288" fill="#E13C67"/><path d="M398.945 334.992h-79.889c-1.688 0-3.056-1.342-3.056-3v-5.001c0-1.657 1.368-2.999 3.056-2.999h79.89c1.687 0 3.054 1.342 3.054 2.999v5.002c0 1.657-1.367 3-3.055 3" fill="#001030"/><path d="M301.659 335.992l-17.46-65.688c-.981-3.69 1.787-7.312 5.589-7.312h38.417a5.789 5.789 0 0 1 5.57 4.242L353 335.992h-51.341z" fill="#2E3062"/><path d="M333.566 267.208l19.048 67.784H357l-19.048-67.784a5.785 5.785 0 0 0-5.566-4.216H328c2.59 0 4.86 1.723 5.566 4.216" fill="#001030"/><path d="M323.792 301.992c.996 4.418-1.685 8-5.989 8-4.303 0-8.6-3.582-9.595-8-.996-4.417 1.685-8 5.989-8 4.303 0 8.599 3.583 9.595 8" fill="#524E82"/><path d="M153 241.992a1 1 0 0 1-1-1v-2a1 1 0 1 1 2 0v2a1 1 0 0 1-1 1" fill="#2E3062"/><path d="M528 328.992a1 1 0 0 1 0 2h-4a1 1 0 0 1 0-2zm8 0a1 1 0 1 1 0 2h-4a1 1 0 0 1 0-2zm-16 0a1 1 0 1 1 0 2h-4a1 1 0 1 1 0-2zm-8 0a1 1 0 0 1 0 2h-4a1 1 0 0 1 0-2zm-80 0a1 1 0 0 1 0 2h-4a1 1 0 0 1 0-2zm8 0a1 1 0 0 1 0 2h-4a1 1 0 0 1 0-2zm-16 0a1 1 0 1 1 0 2h-4a1 1 0 1 1 0-2zm80 0a1 1 0 1 1 0 2h-4a1 1 0 1 1 0-2zm-88 0a1 1 0 0 1 0 2h-4a1 1 0 0 1 0-2zm32 0a1 1 0 1 1 0 2h-4a1 1 0 1 1 0-2zm-40 0a1 1 0 1 1 0 2h-4a1 1 0 1 1 0-2zm80 0a1 1 0 0 1 0 2h-4a1 1 0 0 1 0-2zm8 0a1 1 0 0 1 0 2h-4a1 1 0 0 1 0-2zm-40 0a1 1 0 0 1 0 2h-4a1 1 0 0 1 0-2zm24 0a1 1 0 1 1 0 2h-4a1 1 0 0 1 0-2zm-8 0a1 1 0 0 1 0 2h-4a1 1 0 0 1 0-2zm-8 0a1 1 0 1 1 0 2h-4a1 1 0 1 1 0-2zm80 0a1 1 0 0 1 0 2h-4a1 1 0 0 1 0-2zm2-5a1 1 0 0 1 1 1v4a1 1 0 1 1-2 0v-4a1 1 0 0 1 1-1zm0-8a1 1 0 0 1 1 1v4a1 1 0 0 1-2 0v-4a1 1 0 0 1 1-1zm0-8a1 1 0 0 1 1 1v4a1 1 0 1 1-2 0v-4a1 1 0 0 1 1-1zm0-8a1 1 0 0 1 1 1v4a1 1 0 0 1-2 0v-4a1 1 0 0 1 1-1zm-298.027 1c.549 0 .994.448.994 1 0 .553-.445 1-.994 1h-3.978a.998.998 0 0 1-.995-1c0-.552.445-1 .995-1h3.978zm45.034 0c.549 0 .993.448.993 1 0 .553-.444 1-.993 1h-1.276a.998.998 0 0 1-.995-1c0-.552.445-1 .995-1h1.276zm-21.166 0c.55 0 .994.448.994 1 0 .553-.445 1-.994 1h-3.979a.996.996 0 0 1-.993-1c0-.552.444-1 .993-1h3.98zm7.956 0c.55 0 .995.448.995 1 0 .553-.446 1-.995 1h-3.98a.996.996 0 0 1-.993-1c0-.552.444-1 .994-1h3.979zm-15.913 0c.55 0 .995.448.995 1 0 .553-.446 1-.995 1h-3.978a.997.997 0 0 1-.993-1c0-.552.445-1 .993-1h3.978zm23.869 0c.548 0 .994.448.994 1 0 .553-.446 1-.994 1h-3.978a.998.998 0 0 1-.995-1c0-.552.445-1 .995-1h3.978zm-31.825 0c.55 0 .995.448.995 1 0 .553-.445 1-.995 1h-3.977a.996.996 0 0 1-.994-1c0-.552.444-1 .994-1h3.977zm290.072-9a1 1 0 0 1 1 1v4.001a1 1 0 0 1-2 0v-4a1 1 0 0 1 1-1zm0-8a1 1 0 0 1 1 1v4a1 1 0 0 1-2 0v-4a1 1 0 0 1 1-1zm0-8a1 1 0 0 1 1 1v4a1 1 0 0 1-2 0v-4a1 1 0 0 1 1-1zm0-8a1 1 0 0 1 1 1v4a1 1 0 1 1-2 0v-4a1 1 0 0 1 1-1zm0-8a1 1 0 0 1 1 1v4a1 1 0 0 1-2 0v-4a1 1 0 0 1 1-1zm0-8a1 1 0 0 1 1 1v4a1 1 0 1 1-2 0v-4a1 1 0 0 1 1-1zm0-8a1 1 0 0 1 1 1v4a1 1 0 0 1-2 0v-4a1 1 0 0 1 1-1zm0-8a1 1 0 0 1 1 1v4a1 1 0 0 1-2 0v-4a1 1 0 0 1 1-1zm-345-4.315c.552 0 1 .44 1 .986v3.342a.994.994 0 0 1-1 .987c-.552 0-1-.442-1-.987v-3.342a.993.993 0 0 1 1-.986zm345-3.685a1 1 0 0 1 1 1v4a1 1 0 0 1-2 0v-4a1 1 0 0 1 1-1zm-345-3c.552 0 1 .443 1 .988v3.34a.994.994 0 0 1-1 .988c-.552 0-1-.442-1-.987v-3.341a.994.994 0 0 1 1-.988zm345-5a1 1 0 0 1 1 1v4a1 1 0 0 1-2 0v-4a1 1 0 0 1 1-1zm-345-2.315c.552 0 1 .44 1 .986v3.342a.994.994 0 0 1-1 .987c-.552 0-1-.442-1-.987v-3.342a.993.993 0 0 1 1-.986zm345-5.685a1 1 0 0 1 1 1v4a1 1 0 0 1-2 0v-4a1 1 0 0 1 1-1zm-345-1c.552 0 1 .443 1 .988v3.34a.994.994 0 0 1-1 .988c-.552 0-1-.442-1-.987v-3.341a.994.994 0 0 1 1-.988zm0-5a1 1 0 0 1 1 1v2a1 1 0 1 1-2 0v-2a1 1 0 0 1 1-1zm345-2a1 1 0 0 1 1 1v4a1 1 0 0 1-2 0v-4a1 1 0 0 1 1-1zm0-8a1 1 0 0 1 1 1v4a1 1 0 0 1-2 0v-4a1 1 0 0 1 1-1zm0-8a1 1 0 0 1 1 1v4a1 1 0 0 1-2 0v-4a1 1 0 0 1 1-1zm0-7a1 1 0 0 1 1 1v4a1 1 0 0 1-2 0v-4a1 1 0 0 1 1-1zm0-8a1 1 0 0 1 1 1v4a1 1 0 0 1-2 0v-4a1 1 0 0 1 1-1zm0-8a1 1 0 0 1 1 1v4a1 1 0 0 1-2 0v-4a1 1 0 0 1 1-1zm0-8a1 1 0 0 1 1 1v4a1 1 0 0 1-2 0v-4a1 1 0 0 1 1-1zm0-8a1 1 0 0 1 1 1v4a1 1 0 0 1-2 0v-4a1 1 0 0 1 1-1zm0-8a1 1 0 0 1 1 1v4a1 1 0 0 1-2 0v-4a1 1 0 0 1 1-1zm0-8a1 1 0 0 1 1 1v4a1 1 0 0 1-2 0v-4a1 1 0 0 1 1-1zm0-8a1 1 0 0 1 1 1v4a1 1 0 0 1-2 0v-4a1 1 0 0 1 1-1zm0-8a1 1 0 0 1 1 1v4a1 1 0 0 1-2 0v-4a1 1 0 0 1 1-1zm0-8a1 1 0 0 1 1 1v4a1 1 0 0 1-2 0v-4a1 1 0 0 1 1-1zm0-8a1 1 0 0 1 1 1v4a1 1 0 0 1-2 0v-4a1 1 0 0 1 1-1zm0-8a1 1 0 0 1 1 1v4a1 1 0 0 1-2 0v-4a1 1 0 0 1 1-1zm0-8a1 1 0 0 1 1 1v4a1 1 0 0 1-2 0v-4a1 1 0 0 1 1-1zm0-8a1 1 0 0 1 1 1v4a1 1 0 0 1-2 0v-4a1 1 0 0 1 1-1zm-229 3a1 1 0 0 1 0 2h-4a1 1 0 0 1 0-2h4zm8 0a1 1 0 0 1 0 2h-4a.998.998 0 0 1-.998-.999c0-.552.445-1 .997-1h4.002zm8.001 0a1 1 0 0 1 0 2h-4a1 1 0 0 1 0-2h4zm212.999-11a1 1 0 0 1 1 1v4a1 1 0 0 1-2 0v-4a1 1 0 0 1 1-1zm0-8a1 1 0 0 1 1 1v4a1 1 0 0 1-2 0v-4a1 1 0 0 1 1-1zm0-8a1 1 0 0 1 1 1v4a1 1 0 0 1-2 0v-4a1 1 0 0 1 1-1zm0-8a1 1 0 0 1 1 1v4a1 1 0 0 1-2 0v-4a1 1 0 0 1 1-1zm-16-3a1 1 0 0 1 0 2h-4a1 1 0 1 1 0-2zm8 0a1 1 0 0 1 0 2h-4a1 1 0 0 1 0-2zm-24.708 0c.392 0 .708.449.708 1.001 0 .551-.316 1-.708 1H513v-2zm8.708 0a1 1 0 0 1 0 2h-4a1 1 0 0 1 0-2zm24 0a1 1 0 0 1 0 2h-4a1 1 0 1 1 0-2zm-240.862 40h3.89c.536 0 .972-.447.972-1 0-.552-.436-1-.973-1h-3.889c-.537 0-.973.448-.973 1 0 .553.436 1 .973 1m-7.779 0h3.89c.537 0 .972-.447.972-1 0-.552-.435-1-.972-1h-3.89c-.537 0-.972.448-.972 1 0 .553.435 1 .972 1m-4.386 0h.497c.537 0 .973-.447.973-1 0-.552-.436-1-.973-1h-.497c-.537 0-.973.448-.973 1 0 .553.436 1 .973 1M62.418 88.99h-3.966a.995.995 0 0 1-.991-1c0-.55.444-.998.991-.998h3.966c.548 0 .99.448.99.999a.994.994 0 0 1-.99.998m7.932 0h-3.966a.995.995 0 0 1-.992-.998c0-.551.444-.999.992-.999h3.966c.547 0 .991.448.991.999a.995.995 0 0 1-.991.998m7.931 0h-3.966a.995.995 0 0 1-.991-.998c0-.551.444-.999.991-.999h3.966c.548 0 .992.448.992.999a.995.995 0 0 1-.992.998m7.932 0h-3.966a.995.995 0 0 1-.992-.998c0-.551.444-.999.992-.999h3.966c.547 0 .991.448.991.999a.995.995 0 0 1-.991.998m7.931 0h-3.966a.994.994 0 0 1-.99-.998c0-.551.443-.999.99-.999h3.966c.548 0 .992.448.992.999a.995.995 0 0 1-.992.998m7.933 0H98.11a.995.995 0 0 1-.99-.998c0-.551.443-.999.99-.999h3.967c.546 0 .99.448.99.999a.995.995 0 0 1-.99.998m7.931 0h-3.967a.994.994 0 0 1-.99-.998c0-.551.443-.999.99-.999h3.967c.548 0 .992.448.992.999a.995.995 0 0 1-.992.998m-57.016 2.488a.995.995 0 0 1-.992-.998v-2.488c0-.551.444-.999.992-.999h1.495c.547 0 .991.448.991.999a.995.995 0 0 1-.991.998h-.503v1.49c0 .55-.445.998-.992.998m0 7.984a.994.994 0 0 1-.992-.997v-3.992c0-.552.444-.999.992-.999.547 0 .992.447.992.999v3.992a.994.994 0 0 1-.992.997m0 7.985a.995.995 0 0 1-.992-.998v-3.992c0-.551.444-.999.992-.999.547 0 .992.448.992.999v3.992a.995.995 0 0 1-.992.998m0 7.984a.995.995 0 0 1-.992-.998v-3.992c0-.551.444-.998.992-.998.547 0 .992.447.992.998v3.992a.995.995 0 0 1-.992.998m0 7.985a.995.995 0 0 1-.992-.999v-3.992c0-.551.444-.998.992-.998.547 0 .992.447.992.998v3.992a.995.995 0 0 1-.992.999m0 7.984A.995.995 0 0 1 52 130.4v-3.993c0-.55.444-.997.992-.997.547 0 .992.448.992.997v3.993a.995.995 0 0 1-.992.998m0 7.984a.994.994 0 0 1-.992-.997v-3.993c0-.552.444-.999.992-.999.547 0 .992.447.992.999v3.993a.994.994 0 0 1-.992.997m0 7.984a.995.995 0 0 1-.992-.997v-3.993c0-.551.444-.997.992-.997.547 0 .992.446.992.997v3.993c0 .55-.445.997-.992.997m0 7.985a.995.995 0 0 1-.992-.997v-3.993c0-.55.444-.998.992-.998.547 0 .992.447.992.998v3.993c0 .55-.445.997-.992.997m0 7.985a.995.995 0 0 1-.992-.998v-3.992c0-.552.444-.999.992-.999.547 0 .992.447.992.999v3.992a.995.995 0 0 1-.992.998m0 7.984a.995.995 0 0 1-.992-.998v-3.992c0-.551.444-.998.992-.998.547 0 .992.447.992.998v3.992a.995.995 0 0 1-.992.998m0 7.985a.995.995 0 0 1-.992-.999v-3.992c0-.551.444-.998.992-.998.547 0 .992.447.992.998v3.992a.995.995 0 0 1-.992.999m0 7.984a.995.995 0 0 1-.992-.999V182.3c0-.55.444-.997.992-.997.547 0 .992.446.992.997v3.992a.995.995 0 0 1-.992.999m0 7.984a.995.995 0 0 1-.992-.997v-3.993c0-.552.444-.999.992-.999.547 0 .992.447.992.999v3.993c0 .55-.445.997-.992.997m0 7.984a.995.995 0 0 1-.992-.997v-3.993c0-.551.444-.997.992-.997.547 0 .992.446.992.997v3.993c0 .55-.445.997-.992.997m0 7.984a.995.995 0 0 1-.992-.998v-3.99c0-.552.444-.999.992-.999.547 0 .992.447.992.998v3.991a.995.995 0 0 1-.992.998m0 7.985a.994.994 0 0 1-.992-.997v-3.992c0-.552.444-.999.992-.999.547 0 .992.447.992.999v3.992a.994.994 0 0 1-.992.997m0 7.985a.995.995 0 0 1-.992-.998v-3.992c0-.551.444-.999.992-.999.547 0 .992.448.992.999v3.992a.995.995 0 0 1-.992.998m0 7.984a.995.995 0 0 1-.992-.998v-3.992c0-.551.444-.998.992-.998.547 0 .992.447.992.998v3.992a.995.995 0 0 1-.992.998m0 7.985a.995.995 0 0 1-.992-.999v-3.992c0-.551.444-.998.992-.998.547 0 .992.447.992.998v3.992a.995.995 0 0 1-.992.999m0 7.984a.995.995 0 0 1-.992-.998v-3.991c0-.553.444-1 .992-1 .547 0 .992.447.992 1v3.99a.995.995 0 0 1-.992.999m0 7.984a.994.994 0 0 1-.992-.997v-3.993c0-.552.444-.999.992-.999.547 0 .992.447.992.999v3.993a.994.994 0 0 1-.992.997m0 7.984a.995.995 0 0 1-.992-.998v-3.992c0-.551.444-.997.992-.997.547 0 .992.446.992.997v3.992a.995.995 0 0 1-.992.998m0 7.986a.995.995 0 0 1-.992-.998v-3.993c0-.55.444-.998.992-.998.547 0 .992.447.992.998v3.993a.995.995 0 0 1-.992.998m0 7.984a.995.995 0 0 1-.992-.998v-3.994c0-.55.444-.997.992-.997.547 0 .992.446.992.997v3.994a.995.995 0 0 1-.992.998m0 7.983a.995.995 0 0 1-.992-.998v-3.991c0-.551.444-.998.992-.998.547 0 .992.447.992.998v3.99a.995.995 0 0 1-.992.999m0 7.986a.995.995 0 0 1-.992-.999v-3.992c0-.551.444-.998.992-.998.547 0 .992.447.992.998v3.992a.995.995 0 0 1-.992.999m4.036 3.92h-3.965a.994.994 0 0 1-.99-.998c0-.551.442-.998.99-.998h3.965c.55 0 .992.447.992.998a.994.994 0 0 1-.992.998m7.932 0h-3.965a.995.995 0 0 1-.991-.998c0-.551.444-.998.991-.998h3.965c.547 0 .991.447.991.998a.995.995 0 0 1-.991.998" fill="#424548"/><path d="M387 219.267v22.026c0 2.91-2.386 5.273-5.327 5.273h-40.397l-12.197 4.332c-1.251.447-2.45-.773-1.97-2l4.612-11.795v-17.836c0-2.912 2.387-5.275 5.33-5.275h44.622c2.94 0 5.327 2.363 5.327 5.275" stroke="#21374D"/><path d="M352 230.992a4 4 0 1 1-8 0 4 4 0 0 1 8 0M364 230.992a4.001 4.001 0 0 1-8 0 4 4 0 0 1 8 0M376 230.992a4 4 0 1 1-8 0 4 4 0 0 1 8 0" fill="#21374D"/><path d="M30.874 402.1c.36.222.482.713.276 1.099l-.1.186h.2c.414 0 .75.36.75.803 0 .444-.336.804-.75.804h-1.5a.746.746 0 0 1-.65-.402.86.86 0 0 1 0-.804l.75-1.392c.208-.384.666-.516 1.024-.294zm19.276.294l.75 1.392a.86.86 0 0 1 0 .804.746.746 0 0 1-.65.402h-1.5c-.414 0-.75-.36-.75-.804 0-.443.336-.803.75-.803h.2l-.1-.186c-.206-.386-.084-.877.275-1.099.36-.222.817-.09 1.025.294zm-13.925 1.598c.391 0 .709.225.709.5 0 .276-.318.5-.71.5h-2.516c-.392 0-.708-.224-.708-.5 0-.275.316-.5.708-.5h2.517zm5.033 0c.391 0 .709.225.709.5 0 .276-.318.5-.71.5h-2.515c-.391 0-.709-.224-.709-.5 0-.275.318-.5.71-.5h2.515zm5.034 0c.392 0 .708.225.708.5 0 .276-.316.5-.708.5h-2.517c-.391 0-.709-.224-.709-.5 0-.275.318-.5.71-.5h2.516zM33.41 397.58c.352.19.47.613.268.943l-1.306 2.123a.745.745 0 0 1-.636.346.785.785 0 0 1-.368-.092.668.668 0 0 1-.27-.944l1.307-2.123c.204-.33.652-.443 1.005-.253zm14.185.253l1.306 2.123a.669.669 0 0 1-.269.944.785.785 0 0 1-.367.092.745.745 0 0 1-.637-.346l-1.306-2.123a.67.67 0 0 1 .268-.943c.353-.19.802-.076 1.005.253zm-11.574-4.502c.351.193.472.614.269.944l-1.305 2.124a.744.744 0 0 1-.637.345.784.784 0 0 1-.368-.091c-.352-.192-.472-.614-.27-.945l1.306-2.123c.203-.33.653-.443 1.005-.254zm8.963.254l1.305 2.123a.668.668 0 0 1-.269.944.785.785 0 0 1-.367.092.745.745 0 0 1-.637-.345l-1.305-2.124c-.204-.33-.083-.751.269-.944.35-.189.801-.076 1.004.254zm-6.351-4.499c.351.19.47.61.269.942l-1.307 2.123a.744.744 0 0 1-.637.345.76.76 0 0 1-.366-.091c-.352-.192-.472-.614-.27-.944l1.306-2.124a.76.76 0 0 1 1.005-.251zm3.74.251l1.305 2.124c.203.33.082.752-.27.944a.76.76 0 0 1-.366.091.744.744 0 0 1-.637-.345l-1.306-2.123a.667.667 0 0 1 .269-.942.76.76 0 0 1 1.004.251zm-1.872-4.345c.267 0 .515.154.65.403l.748 1.39c.208.385.084.877-.273 1.1a.71.71 0 0 1-.375.107.742.742 0 0 1-.65-.403l-.1-.186-.101.186c-.207.385-.665.518-1.024.295-.36-.222-.483-.714-.275-1.098l.75-1.391a.742.742 0 0 1 .65-.403z" fill="#E76D83"/><path d="M77.896 402.497a.86.86 0 0 1-.1-.006 9.222 9.222 0 0 0-2.592 0 .7.7 0 0 1-.791-.598.701.701 0 0 1 .594-.794 10.534 10.534 0 0 1 2.987 0 .703.703 0 0 1-.098 1.398m-7.813 2.306a.706.706 0 0 1-.459-1.236 10.479 10.479 0 0 1 2.513-1.624.699.699 0 0 1 .928.347c.161.353.007.77-.345.932a9.037 9.037 0 0 0-2.178 1.41.698.698 0 0 1-.46.171m12.836.002a.693.693 0 0 1-.458-.172 9.037 9.037 0 0 0-2.179-1.41.705.705 0 0 1-.345-.932.7.7 0 0 1 .928-.348c.91.418 1.755.965 2.513 1.626.292.256.323.7.07.993a.7.7 0 0 1-.529.243m-15.823 4.665a.705.705 0 0 1-.673-.902c.282-.964.7-1.884 1.244-2.731a.697.697 0 0 1 .967-.21c.326.21.42.644.21.971a9.116 9.116 0 0 0-1.076 2.367.703.703 0 0 1-.672.505m18.81.003a.7.7 0 0 1-.67-.506 9.152 9.152 0 0 0-1.078-2.367.706.706 0 0 1 .21-.972.698.698 0 0 1 .967.21 10.57 10.57 0 0 1 1.244 2.733.705.705 0 0 1-.673.902m-18.811 5.547a.702.702 0 0 1-.672-.507c-.28-.96-.422-1.96-.422-2.97 0-.39.314-.704.7-.704a.7.7 0 0 1 .7.702c0 .879.123 1.744.366 2.578a.704.704 0 0 1-.672.9m18.81 0a.705.705 0 0 1-.672-.9c.244-.833.368-1.7.368-2.577a.7.7 0 1 1 1.4 0c0 1.01-.142 2.01-.423 2.972a.7.7 0 0 1-.672.506m-15.823 4.667a.693.693 0 0 1-.46-.172 10.624 10.624 0 0 1-1.957-2.27.705.705 0 0 1 .21-.971.697.697 0 0 1 .968.21 9.09 9.09 0 0 0 1.697 1.967c.292.256.324.7.07.993a.698.698 0 0 1-.528.243m12.835 0a.705.705 0 0 1-.459-1.234 9.121 9.121 0 0 0 1.698-1.968.698.698 0 0 1 .967-.211c.326.21.42.646.21.971a10.56 10.56 0 0 1-1.957 2.27.698.698 0 0 1-.459.172m-5.024 2.305a.7.7 0 0 1-.691-.604.702.702 0 0 1 .593-.795 8.961 8.961 0 0 0 2.485-.732.7.7 0 0 1 .928.347c.16.354.006.77-.345.932-.911.42-1.877.703-2.87.846a.631.631 0 0 1-.1.006m-2.788 0a.631.631 0 0 1-.099-.006 10.436 10.436 0 0 1-2.87-.846.705.705 0 0 1-.345-.932.7.7 0 0 1 .928-.347c.79.363 1.625.61 2.485.732a.704.704 0 0 1-.099 1.4" fill="#7547D8"/><path d="M42.897 344.497a.631.631 0 0 1-.1-.006 9.222 9.222 0 0 0-2.592 0 .703.703 0 0 1-.198-1.392 10.544 10.544 0 0 1 2.988 0 .7.7 0 0 1 .593.794.7.7 0 0 1-.69.604m-7.814 2.306a.706.706 0 0 1-.459-1.236 10.48 10.48 0 0 1 2.514-1.624.699.699 0 0 1 .928.347c.16.353.005.77-.347.932a9.044 9.044 0 0 0-2.177 1.409.698.698 0 0 1-.459.172m12.834.001a.693.693 0 0 1-.457-.172 9.037 9.037 0 0 0-2.179-1.409.704.704 0 0 1 .583-1.28c.909.419 1.754.965 2.512 1.626a.706.706 0 0 1-.459 1.235m-15.823 4.666a.703.703 0 0 1-.672-.9c.283-.966.701-1.887 1.243-2.734a.699.699 0 0 1 .969-.21c.325.21.418.645.209.972a9.162 9.162 0 0 0-1.077 2.366.702.702 0 0 1-.672.506m18.811.002a.702.702 0 0 1-.672-.505 9.147 9.147 0 0 0-1.075-2.368.704.704 0 0 1 .209-.971.698.698 0 0 1 .967.211c.544.847.962 1.767 1.243 2.731a.703.703 0 0 1-.672.902m-18.812 5.547a.699.699 0 0 1-.67-.507c-.282-.96-.424-1.96-.424-2.97 0-.389.314-.704.7-.704.387 0 .701.315.701.702 0 .879.123 1.745.366 2.578a.703.703 0 0 1-.673.9m18.812 0a.704.704 0 0 1-.672-.9c.243-.833.366-1.7.366-2.576a.701.701 0 1 1 1.4 0c0 1.01-.142 2.01-.422 2.971a.7.7 0 0 1-.672.506m-15.823 4.666a.693.693 0 0 1-.459-.172 10.55 10.55 0 0 1-1.958-2.269.704.704 0 0 1 .21-.971.696.696 0 0 1 .967.21 9.132 9.132 0 0 0 1.699 1.967.707.707 0 0 1-.46 1.235m12.836.002a.704.704 0 0 1-.459-1.236 9.162 9.162 0 0 0 1.698-1.967.698.698 0 0 1 .968-.211c.325.21.42.646.209.971a10.562 10.562 0 0 1-1.958 2.27.7.7 0 0 1-.458.173m-5.023 2.305a.704.704 0 0 1-.098-1.401 9.017 9.017 0 0 0 2.484-.73.698.698 0 0 1 .928.346c.16.354.006.77-.345.932a10.45 10.45 0 0 1-2.87.846.646.646 0 0 1-.1.007m-2.787 0a.633.633 0 0 1-.1-.007 10.423 10.423 0 0 1-2.87-.846.705.705 0 0 1-.345-.932.7.7 0 0 1 .928-.347c.788.362 1.625.61 2.485.731a.706.706 0 0 1-.098 1.401M586.126 21.1c.357-.222.818-.09 1.024.294l.75 1.392a.86.86 0 0 1 0 .804.743.743 0 0 1-.65.402h-1.5c-.414 0-.75-.36-.75-.804 0-.444.336-.803.75-.803h.202l-.102-.188c-.206-.384-.083-.875.276-1.097zm-20.275.294c.207-.384.665-.516 1.025-.294.358.222.48.713.274 1.097l-.1.188h.2c.414 0 .75.359.75.803 0 .444-.336.804-.75.804h-1.5a.743.743 0 0 1-.65-.402.853.853 0 0 1 0-.804zm17.439 1.598c.391 0 .71.224.71.5s-.319.5-.71.5h-2.516c-.391 0-.709-.224-.709-.5s.318-.5.71-.5h2.515zm-5.032 0c.392 0 .708.224.708.5s-.316.5-.708.5h-2.518c-.39 0-.707-.224-.707-.5s.317-.5.707-.5h2.518zm-5.033 0c.391 0 .707.224.707.5s-.316.5-.707.5h-2.516c-.392 0-.709-.224-.709-.5s.317-.5.709-.5h2.516zm11.37-6.159l1.306 2.124c.203.33.084.752-.269.943a.76.76 0 0 1-.365.092.744.744 0 0 1-.638-.345l-1.307-2.124a.666.666 0 0 1 .27-.942.76.76 0 0 1 1.004.252zm-15.186-.252a.67.67 0 0 1 .27.943l-1.306 2.124a.75.75 0 0 1-.639.344.761.761 0 0 1-.366-.092c-.353-.191-.472-.613-.27-.943l1.306-2.124a.763.763 0 0 1 1.005-.252zm2.612-4.249c.352.191.472.614.268.944l-1.306 2.124a.747.747 0 0 1-.636.345.776.776 0 0 1-.367-.092.67.67 0 0 1-.27-.944l1.306-2.123a.761.761 0 0 1 1.005-.254zm9.962.253l1.307 2.124a.669.669 0 0 1-.269.944.769.769 0 0 1-.368.091.744.744 0 0 1-.637-.345l-1.306-2.125a.67.67 0 0 1 .269-.942.762.762 0 0 1 1.004.253zm-2.61-4.249l1.305 2.125c.203.33.082.752-.27.943a.756.756 0 0 1-.366.093.746.746 0 0 1-.638-.345L578.1 9.027c-.204-.33-.083-.751.269-.942.351-.19.801-.077 1.005.251zm-4.741-.25c.351.19.472.611.27.941l-1.306 2.125a.744.744 0 0 1-.637.345.77.77 0 0 1-.368-.093c-.352-.19-.472-.612-.268-.942l1.306-2.124c.201-.33.652-.444 1.003-.253zm1.867-4.094c.269 0 .515.154.65.403l.75 1.39c.208.387.084.877-.274 1.1-.36.222-.818.09-1.025-.295l-.101-.186-.1.186a.743.743 0 0 1-.65.402.702.702 0 0 1-.375-.108c-.358-.222-.48-.712-.274-1.098l.75-1.391a.743.743 0 0 1 .649-.403z" fill="#F4B42E"/><path d="M535.196.888a.693.693 0 0 1 .589-.784 10.577 10.577 0 0 1 2.957 0 .694.694 0 0 1-.196 1.373 9.126 9.126 0 0 0-2.567 0 .694.694 0 0 1-.783-.589m7.968 2.697a9.032 9.032 0 0 0-2.157-1.389.691.691 0 0 1-.342-.917c.16-.348.57-.5.919-.343.9.411 1.736.951 2.487 1.602a.692.692 0 1 1-.907 1.047m-12.78-.067a.694.694 0 0 1 .07-.979c.75-.65 1.587-1.19 2.489-1.602a.694.694 0 0 1 .577 1.26 9.032 9.032 0 0 0-2.157 1.39.693.693 0 0 1-.978-.069m15.526 4.338a8.94 8.94 0 0 0-1.066-2.331.693.693 0 0 1 1.165-.752c.538.836.953 1.742 1.233 2.693a.694.694 0 0 1-1.332.39m-18.155.473a.695.695 0 0 1-.47-.86c.279-.952.693-1.857 1.23-2.693a.693.693 0 0 1 1.166.75 9.01 9.01 0 0 0-1.067 2.332.692.692 0 0 1-.859.471m18.628 5.467a.693.693 0 0 1-.471-.861c.24-.82.362-1.675.362-2.539a.693.693 0 0 1 1.386 0c0 .996-.141 1.981-.418 2.929a.696.696 0 0 1-.86.47m-19.097-.47a10.4 10.4 0 0 1-.419-2.929.693.693 0 0 1 1.387 0c0 .864.12 1.719.361 2.54a.691.691 0 1 1-1.329.39m15.81 4.858a.694.694 0 0 1 .07-.978 9.068 9.068 0 0 0 1.68-1.939.692.692 0 1 1 1.165.75 10.405 10.405 0 0 1-1.939 2.236.691.691 0 0 1-.977-.069m-12.64.07a10.452 10.452 0 0 1-1.938-2.236.693.693 0 0 1 1.165-.751 9.048 9.048 0 0 0 1.682 1.939.695.695 0 0 1-.455 1.217.688.688 0 0 1-.453-.17m5.329 2.435c-.984-.14-1.939-.42-2.84-.832a.693.693 0 0 1 .575-1.26c.783.355 1.609.599 2.46.72.38.053.643.405.59.785a.696.696 0 0 1-.785.587m2.174-.587a.694.694 0 0 1 .589-.785 8.994 8.994 0 0 0 2.46-.72.693.693 0 0 1 .577 1.259c-.903.414-1.858.693-2.842.833a.693.693 0 0 1-.784-.588" fill="#7547D8"/><path d="M578.412 45.894a.703.703 0 0 1 .593-.796 10.64 10.64 0 0 1 2.988 0 .704.704 0 0 1-.198 1.393 9.222 9.222 0 0 0-2.593 0 .702.702 0 0 1-.79-.597m8.046 2.736a9.112 9.112 0 0 0-2.178-1.408.705.705 0 0 1-.345-.932.7.7 0 0 1 .928-.348c.91.418 1.754.965 2.512 1.626a.705.705 0 0 1 .07.993.694.694 0 0 1-.987.07m-12.906-.07a.707.707 0 0 1 .07-.992 10.458 10.458 0 0 1 2.514-1.625.7.7 0 0 1 .928.346c.16.353.007.771-.346.932a9.135 9.135 0 0 0-2.178 1.41.699.699 0 0 1-.988-.07m15.681 4.403a9.08 9.08 0 0 0-1.077-2.366.707.707 0 0 1 .21-.973.698.698 0 0 1 .966.21c.544.848.964 1.767 1.246 2.732a.705.705 0 0 1-.673.902.703.703 0 0 1-.672-.505m-18.336.48a.705.705 0 0 1-.475-.874c.282-.965.7-1.884 1.243-2.733a.697.697 0 0 1 .967-.21c.326.21.42.645.21.972a9.163 9.163 0 0 0-1.076 2.366.7.7 0 0 1-.87.478m18.814 5.547a.703.703 0 0 1-.476-.873c.243-.833.366-1.7.366-2.577a.701.701 0 1 1 1.4 0c0 1.011-.142 2.01-.422 2.972a.703.703 0 0 1-.868.478m-19.287-.477a10.599 10.599 0 0 1-.423-2.973.701.701 0 1 1 1.401 0c0 .877.122 1.744.365 2.578a.702.702 0 0 1-.672.9.7.7 0 0 1-.67-.505m15.965 4.93a.707.707 0 0 1 .07-.993 9.189 9.189 0 0 0 1.698-1.967.697.697 0 0 1 .968-.21c.325.209.42.645.209.971-.541.846-1.2 1.61-1.958 2.268a.691.691 0 0 1-.987-.07m-12.765.072a10.592 10.592 0 0 1-1.958-2.27.705.705 0 0 1 .21-.971.698.698 0 0 1 .967.21 9.17 9.17 0 0 0 1.699 1.968.706.706 0 0 1 .07.992.701.701 0 0 1-.988.07m5.382 2.47a10.367 10.367 0 0 1-2.869-.844.704.704 0 0 1 .582-1.279c.79.361 1.625.608 2.485.732a.703.703 0 1 1-.197 1.392m2.195-.597a.704.704 0 0 1 .594-.795 9.051 9.051 0 0 0 2.485-.732.699.699 0 0 1 .928.347c.16.353.005.77-.345.932-.912.42-1.877.703-2.87.845a.701.701 0 0 1-.792-.596" fill="#E76D83"/><path d="M514 8.449v114.089a3.454 3.454 0 0 1-3.453 3.454H337.454a3.454 3.454 0 0 1-3.454-3.454V8.448a3.455 3.455 0 0 1 3.454-3.456h173.093A3.455 3.455 0 0 1 514 8.45" fill="#312C69"/><path d="M509 13.494v104a3.496 3.496 0 0 1-3.5 3.498H342.494c-.428 0-.837-.076-1.216-.222a3.48 3.48 0 0 1-2.278-3.276v-104a3.498 3.498 0 0 1 3.494-3.502H505.5c.467 0 .915.094 1.32.262a3.495 3.495 0 0 1 2.18 3.24" fill="#FFF9FF"/><g transform="translate(339 17.992)"><mask id="b" fill="#fff"><use xlink:href="#a"/></mask><path d="M13.217-3.413s25.88-3.053 25.75 4.767c-.132 7.82-25.826 3.775-25.826 3.775s27.9 4.24 25.74 18.934-29.516-11.02-29.516-11.02 17.974 20.069 14.94 25.747c-3.034 5.68-14.982-4.857-20.963-20.931 0 0 8.45 19.7 1.1 26.251-7.35 6.551-7.413-25.227-7.413-25.227L-3-.55l16.217-2.864z" fill="#5E10E1" mask="url(#b)"/></g><path stroke="#3700B1" stroke-width="1.003" stroke-linecap="round" stroke-linejoin="round" d="M342 22.992l32 17M358 53.992l-17-29"/><path d="M509 13.62v5.372H339v-5.371c0-2.004 1.564-3.629 3.495-3.629h163.009c1.932 0 3.496 1.625 3.496 3.629" fill="#DADAEF"/><path d="M362 14.992c0 .552.514 1 1.146 1h114.708c.632 0 1.146-.448 1.146-1 0-.551-.514-1-1.146-1H363.146c-.632 0-1.146.449-1.146 1" fill="#FFF9FF"/><path d="M348 14.992v.729c0 .21-.25.34-.45.234l-.7-.364-.698-.364a.257.257 0 0 1 0-.47l.698-.363.7-.364c.2-.105.45.024.45.234v.728zM352 14.992v.729c0 .21.251.34.451.234l.7-.364.698-.364a.258.258 0 0 0 0-.47l-.698-.363-.7-.364c-.2-.105-.451.024-.451.234v.728z" fill="#2E3062"/><path d="M495 14.492a1.5 1.5 0 1 1-3 0 1.5 1.5 0 0 1 3 0" fill="#6B5EFD"/><path d="M489 14.492a1.5 1.5 0 1 1-3 0 1.5 1.5 0 0 1 3 0" fill="#FDA803"/><path d="M501 14.492a1.5 1.5 0 1 1-3 0 1.5 1.5 0 0 1 3 0" fill="#FF495A"/><path d="M473 120.975h-84.86l-10.14.017c.686-3.12 2.138-6.285 3.457-8.727.346-.637.68-1.226.988-1.749.878-1.481 1.552-2.452 1.655-2.6a.053.053 0 0 0 .012-.02c1.628-2.418 5.354-5.262 9.743-8.126.536-.349 1.08-.699 1.634-1.05 1.87-1.183 17.12-6.431 19.06-7.585l16.118-1.143c.1.06 15.51 5.326 15.61 5.382.663.384 1.336.77 1.995 1.16 5.711 3.334 11.343 6.85 14.585 9.876.474.439.899.865 1.256 1.284.29.337.547.66.753.979l.004.002c.125.05 2.916 3.348 8.13 12.3" fill="#FEB300"/><path d="M423.455 106.992c-7.07 0-12.054-6.38-12.263-6.65a.938.938 0 0 1 .123-1.27.822.822 0 0 1 1.201.131c.064.083 4.705 5.984 10.939 5.984 6.16 0 9.916-6.679 9.954-6.746.238-.43.76-.576 1.165-.326a.932.932 0 0 1 .31 1.233c-.17.312-4.274 7.644-11.43 7.644M393 120.773l-.796-.45c-.366-.208-.856-.116-1.093.204a.631.631 0 0 0-.111.246h2zM395.998 104.025a.914.914 0 0 1-.1.49.86.86 0 0 1-.703.475c-.476.037-.887-.34-.92-.84l-.275-4.126c.544-.34 1.096-.687 1.662-1.032l.336 5.033zM433.856 111.992a.83.83 0 0 1-.471-.147.92.92 0 0 1-.244-1.24l3.286-5.21a.834.834 0 0 1 1.187-.254.92.92 0 0 1 .245 1.24l-3.287 5.209a.847.847 0 0 1-.716.402M411.115 114.992a.884.884 0 0 1-.789-.479l-3.227-6.232a.88.88 0 0 1 .383-1.19.888.888 0 0 1 1.194.38l3.225 6.232a.883.883 0 0 1-.786 1.29M394.2 117.708a.767.767 0 0 1-.114-.871l3.12-6.298c.22-.439.778-.658 1.248-.49.471.166.676.658.46 1.098l-3.122 6.3c-.217.438-.775.657-1.245.489a.837.837 0 0 1-.348-.228M427.201 120.992c-.264 0-.524-.15-.676-.425l-3.4-6.162c-.237-.428-.127-.998.246-1.269.374-.273.867-.145 1.104.283l3.4 6.161c.237.43.127.997-.246 1.27a.733.733 0 0 1-.428.142M384.599 116.854a.842.842 0 0 1-.462.138.855.855 0 0 1-.73-.413l-2.407-3.9c.35-.615.69-1.182 1.004-1.687l2.86 4.638a.9.9 0 0 1-.265 1.224M464 108.24l-1.46 2.354a.833.833 0 0 1-.704.398.775.775 0 0 1-.458-.145c-.386-.27-.495-.824-.24-1.235l1.622-2.62c.465.425.883.842 1.24 1.248M455.53 120.992a1 1 0 0 0 .166-.404l1.288-7.457c.09-.519-.214-1.02-.677-1.121-.465-.1-.915.238-1.004.758l-1.288 7.456c-.049.283.023.558.168.768h1.347zM445.756 120.992l.228-1.072c.09-.423-.214-.831-.682-.914-.467-.08-.92.196-1.011.619l-.291 1.367h1.756zM448.367 102.97a.757.757 0 0 1-.456-.027.856.856 0 0 1-.53-.63L446 95.993c.64.366 1.287.74 1.93 1.111l1.047 4.801c.106.478-.166.95-.61 1.064" fill="#DA9802"/><path d="M401.256 46.85s-9.1-3.112-8.192-10.049c.773-5.904 7.456-2.076 6.87-6.69-.588-4.614-1.895-8.808 3.858-9.962 5.031-1.009 5.116 2.57 11.722-2.622 7.806-6.132 13.801 8.068 20.768 8.494 10.275.63 11.572 6.66 12.583 11.484 1.01 4.824-3.96 10.487-3.96 10.487l-43.65-1.141z" fill="#21374D"/><path d="M403.54 56.581s-3.8-5.172-6.625-.895c-2.823 4.278 1.17 16.91 8.085 13.827l-1.46-12.932z" fill="#EA632E"/><path d="M403.379 65.992a.62.62 0 0 1-.598-.43c-1.137-3.852-5.34-5.414-5.383-5.428a.582.582 0 0 1-.357-.762.63.63 0 0 1 .799-.342c.196.071 4.826 1.777 6.137 6.214a.587.587 0 0 1-.43.726.616.616 0 0 1-.168.022" fill="#C63A00"/><path d="M399.564 63.992a.507.507 0 0 1-.306-.101c-.26-.194-.337-.593-.168-.893.027-.05.704-1.227 2.116-1.948.284-.147.617 0 .745.324.127.325 0 .706-.286.852a4.28 4.28 0 0 0-1.628 1.471.545.545 0 0 1-.473.295" fill="#C63A00"/><path d="M442.46 56.581s3.8-5.172 6.624-.895c2.825 4.278-1.169 16.91-8.084 13.827l1.46-12.932z" fill="#EA632E"/><path d="M442.622 65.992c.27 0 .52-.17.596-.43 1.138-3.852 5.34-5.414 5.383-5.428a.583.583 0 0 0 .359-.762c-.12-.303-.48-.456-.799-.342-.196.071-4.826 1.777-6.138 6.214-.092.313.101.638.43.726a.61.61 0 0 0 .169.022" fill="#C63A00"/><path d="M446.437 63.992c.104 0 .21-.032.304-.101.262-.194.337-.593.17-.893-.029-.05-.705-1.227-2.116-1.948-.284-.147-.618 0-.745.324-.129.325 0 .706.284.852a4.28 4.28 0 0 1 1.628 1.471.548.548 0 0 0 .475.295" fill="#C63A00"/><path d="M432 79.992v12.291s-3.67 6.26-8.634 6.687c-4.96.432-9.366-5.39-9.366-5.39V80.857l18-.864z" fill="#EA632E"/><path d="M432 79.992v5.262c-3.33 3.562-9.247 4.452-18 3.206v-7.634l18-.834z" fill="#B74418"/><path d="M444.985 48.45c-.223 4.784-.677 10.765-1.587 15.543v.015c0 .013-.005.027-.009.046 0 .004-.005.004-.005.009a41.113 41.113 0 0 1-.75 3.253c-.165.58-.344 1.185-.543 1.806-2.905 9.151-9.636 22.398-26.548 16.337-7.122-2.55-10.834-9.938-12.721-17.95-.11-.478-.216-.95-.308-1.406a55.85 55.85 0 0 1-.178-.888l-.082-.427c-.015-.073-.023-.123-.028-.156-.004-.019-.004-.028-.004-.028-1.117-6.161-1.287-12.39-1.204-16.842a12.858 12.858 0 0 1 6.491-10.93c10.655-6.07 21.905-3.805 29.31-.948 5.143 1.98 8.432 7.048 8.166 12.567" fill="#DA6A3E"/><path d="M433 58.492c0 1.38-.672 2.5-1.5 2.5s-1.5-1.12-1.5-2.5.672-2.5 1.5-2.5 1.5 1.12 1.5 2.5M415 58.492c0 1.38-.673 2.5-1.5 2.5-.828 0-1.5-1.12-1.5-2.5s.672-2.5 1.5-2.5c.827 0 1.5 1.12 1.5 2.5M436.835 49.865S430.912 46.84 426 48.48l.236 2.715s6.992.038 10.362 1.797c.403-1 .541-2.034.237-3.127M408.202 49.716S414.17 46.738 419 48.61l-.313 2.832s-6.944-.182-10.341 1.55c-.373-1.057-.48-2.144-.144-3.277" fill="#21374D"/><path d="M423.335 67.992c1.06 0 2.111-.369 2.276-.427.32-.118.472-.446.343-.734-.132-.287-.5-.426-.818-.309-.57.207-1.931.53-2.521.213-.115-.06-.27-.181-.31-.523-.227-1.964.374-8.545.38-8.612.029-.308-.228-.581-.574-.605-.347-.027-.65.204-.678.514-.024.274-.616 6.753-.376 8.819.088.778.545 1.176.912 1.374.402.214.885.29 1.366.29" fill="#C63A00"/><path d="M415 72.992c.453 2.112 1.955 6 7.016 6 5.072 0 6.496-3.553 6.984-6h-14z" fill="#FFF9FF"/><path d="M443.396 64.376l-2.601-.187s.63-4.088.921-6.751c.291-2.664.785-7.642-1.45-8.263-2.23-.616-.92-6.296-4.023-8.757-3.105-2.469-10.043-3.145-14.619-.28-4.576 2.859-9.733-.216-11.84.28-2.113.491-4.977 3.45-4.204 6.215.78 2.757-1.547 4.438-2.112 7.297-.565 2.858 1.24 10.552 1.24 10.552l-2.485.51c-1.119-6.24-1.287-12.541-1.205-17.045.086-4.599.627-11.476 4.562-13.742 10.659-6.143 27.281-2.893 34.685 0 5.141 2.007 4.982 8.853 4.72 14.434-.227 4.842-.68 10.896-1.589 15.737z" fill="#21374D"/><path d="M246 241.449v114.089a3.454 3.454 0 0 1-3.454 3.454H69.453A3.453 3.453 0 0 1 66 355.538v-114.09a3.453 3.453 0 0 1 3.453-3.456h173.093A3.454 3.454 0 0 1 246 241.45" fill="#2F2E65"/><path d="M241 246.492v104c0 1.935-1.565 3.5-3.499 3.5H74.492c-.427 0-.834-.076-1.212-.222a3.483 3.483 0 0 1-2.28-3.277v-104c0-1.935 1.564-3.5 3.492-3.5h163.01a3.498 3.498 0 0 1 3.499 3.5" fill="#FFF9FF"/><path d="M241 246.62v5.372H71v-5.371c0-2.004 1.565-3.629 3.496-3.629h163.008c1.93 0 3.496 1.625 3.496 3.629" fill="#DADAEF"/><path d="M94 246.992c0 .553.512 1 1.146 1h114.708c.632 0 1.146-.447 1.146-1 0-.551-.514-1-1.146-1H95.146c-.634 0-1.146.449-1.146 1" fill="#FFF9FF"/><path d="M81 246.992v.729c0 .21-.25.34-.451.234l-.7-.363-.698-.364a.259.259 0 0 1 0-.47l.699-.364.699-.365c.201-.104.451.026.451.235v.728zM85 246.992v.729c0 .21.25.34.451.234l.699-.363.7-.364a.26.26 0 0 0 0-.47l-.7-.364-.699-.365c-.201-.104-.451.026-.451.235v.728z" fill="#2E3062"/><path d="M228 247.493a1.5 1.5 0 1 1-3 0 1.5 1.5 0 0 1 3 0" fill="#6B5EFD"/><path d="M221 247.493a1.5 1.5 0 1 1-3 0 1.5 1.5 0 0 1 3 0" fill="#FDA803"/><path d="M234 247.493a1.5 1.5 0 1 1-3 0 1.5 1.5 0 0 1 3 0" fill="#FF495A"/><path d="M134.262 341.992c1.628-1.206 3.223-2.455 4.738-3.8-1.817-8.792-4.447-24.802-3.104-38.88 2.127-22.318-7.5-26.344-13.005-21.488-17.887 15.773 10.664 64.14 10.664 64.14l.707.028z" fill="#01A383"/><path d="M136.158 339.992c.282-.208.564-.418.842-.63-4.687-11.04-7.113-22.666-8.35-30.95-1.546-10.351-1.618-17.859-1.618-17.936 0-.268-.234-.486-.52-.484a.501.501 0 0 0-.512.492c0 .076.072 7.637 1.625 18.05 1.253 8.41 3.73 20.244 8.533 31.458" fill="#047B60"/><path d="M135 350.992a59.759 59.759 0 0 0-.146-4.206c-8.101-3.877-22.437-11.466-32.817-21.004-16.454-15.118-25.524-10.004-25.017-2.765 1.127 16.112 27.698 24.371 44.326 27.975H135z" fill="#01A383"/><path d="M135 350.992a67.947 67.947 0 0 0-.016-1.042c-11.63-3.289-22.408-8.68-29.8-12.902-9.24-5.274-15.327-9.907-15.389-9.954a.49.49 0 0 0-.694.098.503.503 0 0 0 .096.702c.06.046 6.19 4.712 15.484 10.02 7.505 4.286 18.48 9.77 30.319 13.078" fill="#047B60"/><path d="M141.332 350.992l1.668-.617s-20.31-26.466-29.254-55.259c-9.65-31.062-24.808-31.088-29.47-21.52-13.09 26.868 33.994 67.014 46.989 77.396h10.067z" fill="#00C09A"/><path d="M137.947 350.992H140c-13.252-12.81-23.694-28.167-30.33-39.235-7.878-13.14-12.24-23.229-12.284-23.331a.721.721 0 0 0-.946-.376.706.706 0 0 0-.382.935c.042.101 4.435 10.262 12.358 23.482 6.508 10.856 16.657 25.817 29.531 38.525" fill="#047B60"/><path d="M176.147 340.363c.295.212.601.421.918.63 0 0 .376-.003 1.04-.06 4.273-.358 20.494-2.88 26.148-20.546 5.35-16.72-3.002-34.837-6.2-40.848-.422-.791-1.593-.705-1.891.139-1.552 4.429-5.601 14.517-12.113 20.892-8.393 8.209-24.351 27.93-7.902 39.793" fill="#01A383"/><path d="M176 340.362c.294.212.599.422.914.63 0 0 .374-.002 1.036-.059 3.635-5.607 6.574-11.436 8.824-16.511 5.5-12.407 8.172-23.123 8.198-23.23a.974.974 0 1 0-1.893-.461c-.027.105-2.668 10.682-8.104 22.937-2.274 5.136-5.269 11.051-8.975 16.694" fill="#047B60"/><path d="M241 289.992v10.476c-4.133 6.822-8.3 16.334-13.127 28.81-8.674 22.428-30.774 24.505-35.284 24.695-.527.023-.812.02-.812.02a63.867 63.867 0 0 1-.924-1.856c-1.583-3.3-2.75-6.434-3.54-9.412a40.242 40.242 0 0 1-.677-2.97c-1.73-9.159.19-16.76 4.31-23.051a35.017 35.017 0 0 1 2.594-3.468c4.153-4.906 9.687-8.913 15.723-12.168 10.607-5.729 22.767-9.143 31.737-11.076" fill="#00C09A"/><path d="M191.931 353.992s.288.004.82-.018c8.86-24.02 34.58-48.736 34.901-49.041a1.128 1.128 0 0 0-1.56-1.627c-.098.095-10.211 9.764-19.938 22.793-7.044 9.43-12.104 18.123-15.154 26.02.294.618.605 1.241.931 1.873" fill="#047B60"/><path d="M199 353.992c-1.224-4.853-2.724-8.555-2.724-8.555-3.773-.818-6.585 3.959-9.276 8.555h12z" fill="#FFC792"/><path d="M196.836 353.992c.305-4.576.22-7.59-.56-8.555-1.08-1.336-2.842-2.763-4.999-4.216-3.297-2.222-7.53-4.512-11.702-6.67-5.68-2.938-11.244-5.63-14.2-7.559-3.162 1.352-5.678 2.092-8.391 2.076-.071 0-.152 0-.225-.008-.08.008-.161.008-.234.008-2.711.016-5.227-.724-8.387-2.076-3.184 2.08-9.54 5.125-15.801 8.405-2.639 1.39-5.266 2.817-7.628 4.232a67.62 67.62 0 0 0-2.839 1.796c-2.26 1.504-4.092 2.975-5.189 4.339-.766.947-.823 3.839-.48 8.228h80.635z" fill="#00BACB"/><path d="M175.352 353.992c3.188-3.128 4.463-5.696 4.577-5.932.182-.38.003-.828-.4-1-.406-.172-.881-.003-1.063.377-.029.061-1.53 3.076-5.466 6.555h2.352z" fill="#11757E"/><path d="M179 334.545c-3.829 8.61-12.82 20.287-25.056 18.203-11.85-2.02-17.888-10.963-21.944-17.356 6.23-3.28 12.554-6.321 15.722-8.4 3.144 1.349 5.649 2.088 8.344 2.075.074 0 .154 0 .231-.006.074.006.156.006.23.006 2.695.013 5.7-.726 8.848-2.075 2.94 1.927 8.099 4.403 13.747 7.339" fill="#FFC792"/><path d="M156.587 328.488v.009c-.056 0-.117 0-.173-.005.056 0 .117-.004.173-.004" fill="#2E3062"/><path d="M170 256.492c0 .932-.103 1.843-.295 2.713a12.491 12.491 0 0 1-12.206 9.787c-3.96 0-7.492-1.841-9.783-4.717a12.448 12.448 0 0 1-2.716-7.783c0-6.903 5.596-12.5 12.5-12.5 6.903 0 12.5 5.597 12.5 12.5" fill="#FA3B2F"/><path d="M169 259.782a13.057 13.057 0 0 1-1.92 4.566l-.617.644h-19.096A13.024 13.024 0 0 1 145 259.84c2.064-1.092 6.272-2.848 11.993-2.848 5.622 0 9.857 1.698 12.007 2.79" fill="#424548"/><path d="M136.54 292.42s-3.8-4.85-6.625-.84c-2.824 4.01 1.17 15.854 8.085 12.963l-1.46-12.124z" fill="#FFC792"/><path d="M136.468 300.992c-.233 0-.446-.17-.513-.43-.975-3.853-4.576-5.413-4.612-5.428-.274-.116-.413-.456-.308-.76.103-.304.41-.458.684-.344.169.071 4.138 1.778 5.261 6.213.08.314-.086.639-.368.726a.482.482 0 0 1-.144.023" fill="#E7A05E"/><path d="M132.563 298.992a.506.506 0 0 1-.304-.103c-.262-.192-.338-.592-.168-.89.027-.05.702-1.226 2.115-1.95.283-.145.617 0 .745.325.127.325 0 .706-.285.851a4.281 4.281 0 0 0-1.628 1.472.548.548 0 0 1-.475.295" fill="#E7A05E"/><path d="M174.462 292.42s3.798-4.85 6.622-.84c2.825 4.01-1.168 15.854-8.084 12.963l1.462-12.124z" fill="#FFC792"/><path d="M175.532 300.992c.232 0 .447-.17.512-.43.976-3.853 4.577-5.413 4.614-5.428.273-.116.411-.456.308-.76-.104-.304-.412-.458-.686-.344-.168.071-4.136 1.778-5.26 6.213-.08.314.085.639.368.726a.482.482 0 0 0 .144.023" fill="#E7A05E"/><path d="M178.436 298.992c.105 0 .21-.032.305-.103.262-.192.338-.592.17-.89-.03-.05-.705-1.226-2.116-1.95-.284-.145-.618 0-.746.325-.127.325 0 .706.285.851a4.28 4.28 0 0 1 1.628 1.472.548.548 0 0 0 .474.295" fill="#E7A05E"/><path d="M165 314.992l.375 12s-4.046 5.576-9.01 5.979c-4.959.41-9.365-5.106-9.365-5.106v-12.054l18-.819z" fill="#FFC792"/><path d="M165 314.992v5.089c-3.33 3.444-9.244 4.664-17.999 3.46l-.001-7.742 18-.807z" fill="#DDA269"/><path d="M177.986 283.877c-.222 4.605-.666 10.364-1.553 14.97a37.897 37.897 0 0 1-.75 3.197c-2.52 8.732-8.824 23.707-26.47 17.47-7.796-2.753-11.408-11.344-13.017-20.082-1.093-5.934-1.259-11.93-1.179-16.214.086-4.374 2.498-8.372 6.343-10.528 10.417-5.845 21.408-3.666 28.645-.911 5.023 1.908 8.236 6.788 7.98 12.098" fill="#FFC99A"/><path d="M148 292.493c0 1.38-.672 2.5-1.5 2.5s-1.5-1.12-1.5-2.5.672-2.5 1.5-2.5 1.5 1.12 1.5 2.5M166 292.493c0 1.38-.672 2.5-1.5 2.5s-1.5-1.12-1.5-2.5.672-2.5 1.5-2.5 1.5 1.12 1.5 2.5M143.425 285.864c1.251-.32 3.776-.864 6.442-.872.701-.002 1.24.561 1.115 1.184l-.004.016c-.098.496-.59.85-1.15.825-1.815-.076-6.575.153-8.822.975-.047-.352.185-.738.511-1.081.497-.518 1.177-.863 1.908-1.047M167.575 285.864c-1.252-.32-3.777-.864-6.442-.872-.701-.002-1.238.561-1.115 1.184l.004.016c.098.496.592.848 1.15.825 1.814-.077 6.574.153 8.822.975.046-.352-.186-.738-.512-1.081-.497-.518-1.176-.863-1.907-1.047" fill="#424548"/><path d="M156.336 302.992c-.481 0-.965-.076-1.366-.291-.367-.197-.824-.596-.913-1.372-.24-2.067.351-8.545.377-8.821.028-.309.33-.54.677-.514.346.025.604.297.575.606-.006.067-.607 6.65-.38 8.613.04.341.195.461.309.522.59.317 1.953-.006 2.52-.212.322-.118.689.022.818.308.131.287-.022.616-.343.733-.163.06-1.214.428-2.274.428" fill="#E7A05E"/><path d="M149 306.992c.42 2.114 1.815 6 6.514 6 4.712 0 6.032-3.553 6.486-6h-13z" fill="#FFF9FF"/><path d="M155.946 315.992c-1.393 0-2.622-.816-2.674-.852a.65.65 0 0 1-.186-.854.546.546 0 0 1 .784-.202c.01.007 1.014.667 2.076.667 1.15 0 2.18-.662 2.19-.67.27-.175.62-.082.782.212.162.292.076.673-.193.85-.053.036-1.304.85-2.78.85" fill="#F29D4F"/><path d="M179.776 282.384c-.183.516-.69.845-1.37 1.04.05 1.243-.08 2.744-.206 4.177-.704 8.158-2.778 9.592-3.248 7.576-.31-1.34-.291-9.022-.144-11.531a27.32 27.32 0 0 1-3.014-.373l-1.909-7.922-.666 7.823c-2.863.986-9.546-.595-9.546-.595l-2.24-7.805-1.389 7.51c-4.291 2.077-9.661.69-9.661.69l-1.233-8.098-2.849 8.099s-2.65.941-5.12 1.305c-.008 2.532-.165 9.406-1.446 9.01-1.357-.421-2.083-5.887-1.908-9.151-.475-.223-.77-.59-.79-1.164-.057-1.896-.251-7.773 1.42-11.743 2.272-5.404 5.065-8.669 9.236-10.568 9.792-4.459 23.7-2.558 27.703.077 10.759 7.085 8.38 21.643 8.38 21.643" fill="#FA3B2F"/><path d="M124 353.992c-.764-5.469-1.519-9.606-2.13-12.567-2.218 1.556-4.124 2.646-5.202 4.056-.75.98-.808 3.97-.47 8.511H124zM196.832 353.992c.313-4.658.225-7.726-.574-8.708-1.106-1.36-2.913-2.813-5.123-4.292-.65 3.016-1.466 7.58-2.135 13h7.832z" fill="#FFC792"/><path fill="#FFC792" d="M119 353.992l-2.329-8-2.671 8z"/><path d="M292 182.94a2.926 2.926 0 0 1-2.928 2.923h-65.918l3.899 19.13h-51.106l3.897-19.13h-65.916A2.925 2.925 0 0 1 111 182.94V63.915c0-.346.06-.678.17-.986l.06-.152a2.929 2.929 0 0 1 2.698-1.785h175.144c.173 0 .343.015.508.044l.163.034c.108.025.213.056.316.093l.152.06c.15.063.294.138.43.224l.134.09c.523.375.918.917 1.105 1.548l.042.16c.051.215.078.44.078.67V182.94z" fill="#000"/><path fill="#FFF0CA" d="M111 161.992h181v-96H111z"/><path fill="#FFF" d="M120 138.992h103v-69H120z"/><path stroke="#9A9DAB" stroke-width="3" stroke-linejoin="round" d="M124 135.992h96v-62h-96z"/><g transform="translate(125 75.992)"><g transform="translate(2.022 23.152)"><mask id="d" fill="#fff"><use xlink:href="#c"/></mask><path d="M39.623 28.848H.946a.784.784 0 0 1-.784-.783V.975c0-.432.351-.783.784-.783h38.677c.432 0 .783.35.783.784v27.089c0 .432-.35.783-.783.783" fill="#FFF" mask="url(#d)"/></g><path stroke="#E5E6E8" d="M.674 33.219h90.978M.674 41.941h90.978"/><path d="M11.457 28.854a2.354 2.354 0 0 1-2.36 2.349 2.353 2.353 0 0 1-2.358-2.349 2.353 2.353 0 0 1 2.359-2.348 2.353 2.353 0 0 1 2.359 2.348M11.457 37.576a2.354 2.354 0 0 1-2.36 2.348 2.353 2.353 0 0 1-2.358-2.348 2.353 2.353 0 0 1 2.359-2.348 2.353 2.353 0 0 1 2.359 2.348M11.457 46.297a2.353 2.353 0 0 1-2.36 2.349 2.353 2.353 0 0 1-2.358-2.349 2.353 2.353 0 0 1 2.359-2.348 2.353 2.353 0 0 1 2.359 2.348" fill="#D5E8F9"/><path stroke="#F1D5CE" stroke-width="2" stroke-linecap="round" stroke-linejoin="round" d="M12.804 28.683H34.37"/><path stroke="#F1D5CE" stroke-width=".98" stroke-linecap="round" stroke-linejoin="round" d="M12.804 29.19h3.37"/><path stroke="#F1D5CE" stroke-width="2" stroke-linecap="round" stroke-linejoin="round" d="M12.804 36.57H34.37M12.804 46.126H34.37"/><rect fill="#D5E8F9" x="6.739" y="6.709" width="80.196" height="16.772" rx="4"/><path d="M20.665 15.095c0 2.779-2.263 5.032-5.054 5.032-2.792 0-5.054-2.253-5.054-5.032 0-2.78 2.262-5.032 5.054-5.032 2.79 0 5.054 2.253 5.054 5.032" fill="#FFF"/><path fill="#F5F5F5" d="M1 0h92v4.696H1z"/><g fill-rule="nonzero"><path d="M4.886 1.915h.104l.266.593c.023.052.049.124.049.124h.003s.027-.072.05-.124l.266-.593h.102l.081 1.01h-.099l-.056-.707c-.005-.055-.003-.14-.003-.14h-.004s-.03.089-.053.14l-.238.518h-.093l-.238-.518a2.107 2.107 0 0 1-.055-.143h-.003s.002.088-.003.143l-.056.706h-.1l.08-1.009zm1.971.688H6.45l-.115.321h-.105L6.6 1.915h.106l.372 1.01h-.105l-.117-.322zm-.204-.583s-.022.083-.04.13l-.135.367h.35l-.134-.367a1.846 1.846 0 0 1-.038-.13h-.003zm1.043-.016h-.364v-.089h.827v.09h-.363v.92h-.1v-.92zm.909-.089h.1v.46h.587v-.46h.1v1.01h-.1v-.461h-.588v.46h-.1V1.915zm1.353.821s.105.11.266.11c.11 0 .201-.065.201-.174 0-.254-.506-.19-.506-.503 0-.145.129-.271.316-.271.176 0 .27.097.27.097l-.048.084s-.09-.087-.222-.087c-.13 0-.213.085-.213.174 0 .24.506.17.506.502 0 .151-.117.273-.307.273-.208 0-.322-.129-.322-.129l.06-.076zm1.08-.82h.35c.183 0 .314.117.314.304 0 .188-.131.308-.313.308h-.251v.396h-.1V1.915zm.338.523c.135 0 .223-.082.223-.22 0-.136-.087-.215-.222-.215h-.239v.435h.238zm1.273.164h-.408l-.116.321h-.105l.372-1.009h.107l.372 1.01h-.105l-.117-.322zm-.205-.583s-.021.083-.04.13l-.134.367h.349l-.133-.367c-.017-.047-.04-.13-.04-.13h-.002zm1.315-.122c.242 0 .365.13.365.13l-.054.074s-.118-.112-.308-.112c-.238 0-.408.184-.408.422 0 .241.17.438.41.438.205 0 .329-.135.329-.135l.057.07s-.138.157-.387.157a.509.509 0 0 1-.513-.528c0-.293.22-.516.509-.516zm.897.017h.571v.09h-.471v.367h.385v.088h-.385v.375h.497v.089h-.597V1.915z" fill="#21374D"/><path d="M1.817 2.133v.936c0 .136.11.245.246.245h.94l-1.186-1.18z" fill="#00945E"/><path d="M2.722 3.318h1.21c.171 0 .31-.137.31-.307V1.806l-1.52 1.512z" fill="#00A6CE"/><path d="M3.868 1.439L2.831 2.473l.37.37 1.04-1.037v-.213a.22.22 0 0 0-.373-.154z" fill="#005CB9"/><path d="M2.83 2.473l-.705-.702a.18.18 0 0 0-.308.128v.234l.678.675.336-.335z" fill="#3DAE2B"/><path d="M2.83 2.473l-.5.499a.203.203 0 0 0 .144.346h.746c.17 0 .254-.204.134-.323l-.523-.522z" fill="#93D500"/><path d="M2.495 2.808l.275.274a.135.135 0 0 0 .19 0l.241-.24-.37-.369-.336.335z" fill="#4C9C2E"/></g><path stroke="#FFF" stroke-width="2" stroke-linecap="round" stroke-linejoin="round" d="M24.709 14.759h53.913M24.709 12.076h53.913M24.709 17.443h8.761"/></g><path d="M272.435 145.473c-.577-5.565-5.078-9.901-10.646-10.258l-8.22-.528h-.814c-3.023 0-5.475-2.46-5.475-5.492v-25.203h-19.756v25.203c0 3.033-2.452 5.491-5.477 5.492h-.616l-8.222.528c-5.568.357-10.068 4.693-10.644 10.258-.31 2.991-.565 5.762-.565 6.734 0 .681 1.058 4.556 2.583 9.785h65.833c1.525-5.23 2.584-9.104 2.584-9.785 0-.972-.256-3.743-.565-6.734" fill="#ED8D5D"/><path d="M194 161.992h89s-5.089-13.668-9.714-21.242c-4.625-7.573-14.524-6.741-17.486-6.65-2.96.093-5.088-1.108-5.088-1.108l-24.61.74s-4.07.83-6.66.738c-2.59-.092-10.548-.092-15.635 6.28-5.089 6.374-9.807 21.242-9.807 21.242" fill="#E1E1E1"/><path d="M248 118.169v3.805a33.497 33.497 0 0 1-5.174 2.973 11.14 11.14 0 0 1-9.388.017c-1.67-.768-3.587-1.808-5.438-3.166v-3.806c1.851 1.36 3.769 2.399 5.438 3.182a11.203 11.203 0 0 0 9.388-.016 32.416 32.416 0 0 0 5.174-2.99" fill="#0B334C"/><path d="M263.602 97.75c-1.1 2.734-5.324 5.96-8.067 4.96-.44 3.003-1.026 5.572-1.803 7.32-1.335 3.062-3.565 5.498-5.956 7.38-1.906 1.51-3.915 2.659-5.645 3.51a10.43 10.43 0 0 1-9.182.015c-1.335-.656-2.86-1.493-4.37-2.554-2.86-1.987-5.676-4.706-7.274-8.306-.778-1.763-1.366-4.347-1.82-7.365-2.742 1.015-6.98-2.211-8.081-4.96-1.129-2.794.19-5.975 2.919-7.126a5.32 5.32 0 0 1 4.092.016c-.03-.45-.044-.912-.059-1.36-.014-.284-.014-.553-.014-.822 0-10.697 8.55-19.451 19.14-19.466 10.867-.014 19.608 9.188 19.168 20.242-.015.48-.044.942-.058 1.406a5.283 5.283 0 0 1 4.077-.016c2.742 1.15 4.047 4.332 2.933 7.126" fill="#ED8D5D"/><path d="M232 105.492a4.5 4.5 0 1 1-9 0 4.5 4.5 0 0 1 9 0M253 105.492a4.5 4.5 0 1 1-9 0 4.5 4.5 0 0 1 9 0" fill="#E6794E"/><path d="M237.42 94.992c.327.793.39 1.696.363 2.54-.034.852-.165 1.664-.302 2.436-.131.778-.325 1.53-.301 2.086-.012.566.4 1.216.82 1.938a2.771 2.771 0 0 1-1.04-.472 2.34 2.34 0 0 1-.802-1.15c-.162-.505-.172-1.017-.149-1.466.027-.452.088-.858.16-1.27.147-.82.362-1.583.579-2.33l.672-2.312zM233.197 90.593c-.477-.02-1.022-.052-1.514-.062-.5-.004-.991.003-1.465.077-.48.063-.92.216-1.354.415-.441.2-.806.516-1.209.85l-.037.032a.399.399 0 0 1-.52-.018.304.304 0 0 1-.07-.35c.235-.511.556-1.04 1.067-1.429a4.455 4.455 0 0 1 1.726-.894 5.926 5.926 0 0 1 1.942-.21 5.213 5.213 0 0 1 1.866.447c.333.151.466.515.298.814a.693.693 0 0 1-.637.333l-.093-.005zM242.372 89.45a5.212 5.212 0 0 1 1.865-.446 5.919 5.919 0 0 1 1.942.21c.64.165 1.242.489 1.725.894.51.389.833.918 1.068 1.43.078.168-.012.36-.199.43a.402.402 0 0 1-.39-.063l-.038-.032c-.402-.334-.768-.65-1.21-.85a4.738 4.738 0 0 0-1.352-.416c-.476-.074-.966-.08-1.466-.076-.491.01-1.037.041-1.513.063l-.094.004c-.373.016-.69-.241-.71-.576-.013-.247.141-.466.372-.571M246 97.993c0 1.657-.672 3-1.5 3s-1.5-1.343-1.5-3 .672-3 1.5-3 1.5 1.343 1.5 3M232 97.993c0 1.657-.672 3-1.5 3s-1.5-1.343-1.5-3 .672-3 1.5-3 1.5 1.343 1.5 3M242 107.979c.33-.227.673-.35.999-.518.342-.135.648-.294 1.001-.469-.172.395-.536.617-.876.791-.36.138-.73.25-1.124.196M237 106.21c1.48.161 2.927.208 4.181-.277.63-.221 1.177-.621 1.63-1.135.485-.5.806-1.144 1.189-1.806-.057.748-.231 1.534-.688 2.194-.188.358-.5.622-.788.91-.33.237-.672.456-1.051.6a4.866 4.866 0 0 1-2.329.253c-.763-.1-1.503-.33-2.144-.739" fill="#0B334C"/><path d="M258.673 77.029c-10.9-13.06-30.733-10.499-39.547-1.582-1.694 1.712-3.175 3.971-4.418 6.643-1.328 2.857-.76 6.267 1.467 8.5l.036.035a5.526 5.526 0 0 1 2.563.386c-.004-.053-.004-.107-.008-.16 1.276.809 2.525 2.176 2.655 4.48.003.045.01.075.015.117l.615.544c1.784-1.46 6.716-14.48 6.716-14.48s12.045 14.378 24.218 14.198c2.476-2.543 4.41-5.633 6.514-8.521l.03-.039c1.919-2.635 1.971-6.215.094-8.88a19.167 19.167 0 0 0-.95-1.241" fill="#0B334C"/><path d="M238.747 80.602c12.279.801 15.786 17.81 15.786 17.81s4.943 15.884-15.786 23.586c-5.755 0-11.18-3.003-14.01-8.045-2.495-4.447-3.863-8.962-4.167-14.097-.56-9.447 5.9-20.056 18.177-19.254m17.408 64.185c4.161-1.977 7.332-4.853 8.583-8.99 3.78-12.498 1.78-29.478.098-39.14l.062-.01s1.594-18.291-12.437-26.315c-14.032-8.022-39.225-1.444-42.893 18.132-3.12 16.659 5.187 33.425 7.732 38.053-.941.314-10.532 3.665-9.167 9.922 1.435 6.578 7.335 11.232 7.335 11.232s6.64.999 15.075 1.126c2.522 3.794 4.804 6.796 6.132 7.538 4.305 2.407 33.325-2.568 33.325-2.568-3.176-1.926-8.199-5.018-13.845-8.98" fill="#3C98D6"/><path d="M217 125.992s12.471.128 21-4M231 148.86s16.155 1.243 26-3.868M242 149.992s2.241 4.063 5 5M244 148.992s1.688 2.333 3 3" stroke="#0B334C" stroke-width=".668" stroke-linecap="round" stroke-linejoin="round"/><path d="M218 131.975s29.485 1.286 39.1-18.173c9.615-19.46-6.89-36.026-17.306-34.74" stroke="#0B334C" stroke-width=".668" stroke-linecap="round" stroke-linejoin="round"/><path stroke="#FFF" stroke-width="1.003" stroke-linecap="round" stroke-linejoin="round" d="M181 185.492h42M206 175.492a4.5 4.5 0 1 1-9 .001 4.5 4.5 0 0 1 9 0z"/><g><g transform="translate(527 120.906)"><mask id="f" fill="#fff"><use xlink:href="#e"/></mask><path d="M31.117 28H3.887A3.898 3.898 0 0 1 0 24.114V3.973A3.898 3.898 0 0 1 3.887.086h27.23a3.897 3.897 0 0 1 3.886 3.887v20.14A3.897 3.897 0 0 1 31.117 28" fill="#1ABC9C" mask="url(#f)"/></g><path d="M542.391 131.87v7.212l6.161-3.606-6.16-3.605zm-.505 8.596a.502.502 0 0 1-.504-.505v-8.97a.503.503 0 1 1 .759-.435l7.665 4.485a.505.505 0 0 1 0 .87l-7.665 4.486a.5.5 0 0 1-.255.069zm3.001-13.014c-4.425 0-8.024 3.599-8.024 8.024 0 4.424 3.6 8.024 8.024 8.024 4.424 0 8.024-3.6 8.024-8.024 0-4.425-3.6-8.024-8.024-8.024zm0 17.057c-4.98 0-9.034-4.052-9.034-9.033s4.053-9.034 9.034-9.034c4.981 0 9.032 4.053 9.032 9.034 0 4.98-4.05 9.033-9.032 9.033z" fill="#FFF9FF"/></g><g><path d="M558.117 260.82h-27.23a3.898 3.898 0 0 1-3.887-3.886v-20.14a3.898 3.898 0 0 1 3.887-3.888h27.23a3.897 3.897 0 0 1 3.886 3.887v20.141a3.897 3.897 0 0 1-3.886 3.886" fill="#E76D83"/><g fill="#FFF" fill-rule="nonzero"><path d="M545.023 241.026a4.927 4.927 0 0 0-4.915 4.914c0 1.415.62 2.776 1.662 3.695.778.778.708 2.44.69 2.458 0 .088.018.159.088.23a.326.326 0 0 0 .212.088h4.509c.088 0 .159-.035.212-.088a.336.336 0 0 0 .088-.23c0-.018-.088-1.68.69-2.458l.053-.053a4.96 4.96 0 0 0 1.626-3.642 4.927 4.927 0 0 0-4.915-4.914zm2.83 8.15c-.019.017-.054.053-.054.07-.69.743-.813 1.963-.83 2.546h-3.908c-.018-.583-.141-1.856-.884-2.616a4.309 4.309 0 0 1-1.485-3.253 4.308 4.308 0 0 1 4.314-4.314 4.308 4.308 0 0 1 4.314 4.314c0 1.255-.53 2.44-1.468 3.253z"/><path d="M545.006 242.28a.31.31 0 0 0-.3.301c0 .16.14.3.3.3a3.218 3.218 0 0 1 3.217 3.219c0 .159.142.3.3.3.16 0 .301-.141.301-.3.018-2.104-1.697-3.82-3.818-3.82zM546.968 252.747h-3.925a.747.747 0 0 0-.742.743c0 .406.336.742.742.742h3.907c.425-.018.76-.336.76-.742a.747.747 0 0 0-.742-.743zm0 .866h-3.925a.14.14 0 0 1-.141-.141c0-.088.053-.142.141-.142h3.907a.14.14 0 0 1 .142.142c0 .088-.053.141-.124.141zM546.385 254.533h-2.758a.747.747 0 0 0-.743.742c0 .407.336.743.743.743h2.758a.747.747 0 0 0 .742-.743.736.736 0 0 0-.742-.742zm0 .866h-2.758a.14.14 0 0 1-.142-.141c0-.089.053-.142.142-.142h2.758a.14.14 0 0 1 .141.142.14.14 0 0 1-.141.141zM545.006 239.558c.176 0 .3-.141.3-.3v-2.051a.31.31 0 0 0-.3-.3.31.31 0 0 0-.3.3v2.05c0 .16.14.301.3.301zM550.009 238.427c-.141-.106-.318-.053-.407.07l-1.131 1.698a.291.291 0 0 0 .07.424.285.285 0 0 0 .16.053.282.282 0 0 0 .247-.142l1.132-1.697a.274.274 0 0 0-.071-.406zM541.417 240.601a.285.285 0 0 0 .159-.053.31.31 0 0 0 .088-.424l-1.096-1.715a.31.31 0 0 0-.424-.088.31.31 0 0 0-.089.424l1.097 1.715c.07.106.159.141.265.141zM539.278 242.475l-1.786-.972c-.142-.07-.336-.018-.407.124a.282.282 0 0 0 .124.406l1.786.973c.053.017.088.035.141.035a.292.292 0 0 0 .265-.16c.071-.14.018-.335-.123-.406zM552.944 241.627c-.07-.142-.265-.195-.407-.124l-1.803.972c-.142.07-.195.265-.124.407.053.106.16.159.265.159a.333.333 0 0 0 .142-.035l1.803-.973c.142-.07.195-.265.124-.406z"/></g></g><g><path d="M64.81 124.95H41.886A3.897 3.897 0 0 1 38 121.066v-16.707a3.897 3.897 0 0 1 3.886-3.886H64.81a3.898 3.898 0 0 1 3.886 3.886v16.707a3.898 3.898 0 0 1-3.886 3.886" fill="#0875BE"/><path d="M61.467 108.222h-.534v-1c0-.276-.239-.5-.533-.5h-3.806c-.6-.785-1.565-1.25-2.594-1.25-1.03 0-1.995.465-2.594 1.25H47.6c-.294 0-.533.224-.533.5v1h-.534c-.294 0-.533.224-.533.5v10.25c0 .276.239.5.533.5h5.787c.306.61.96 1 1.68 1s1.374-.39 1.68-1h5.787c.294 0 .533-.224.533-.5v-10.25c0-.276-.239-.5-.533-.5zm-4.562-1H60.4v8.25h-4.8c-.502 0-.983.19-1.333.527v-4.54c1.04-.079 1.972-.629 2.498-1.473a2.828 2.828 0 0 0 .14-2.764zm-1.305 10h4.8v.75h-6.133v-.75c0-.69.597-1.25 1.333-1.25h4.8v.75h-4.8c-.147 0-.267.112-.267.25s.12.25.267.25zm-1.6-11.25c1.473 0 2.667 1.12 2.667 2.5s-1.194 2.5-2.667 2.5c-1.473 0-2.667-1.12-2.667-2.5.002-1.38 1.195-2.499 2.667-2.5zm-6.4 1.25h3.495a2.828 2.828 0 0 0 .14 2.764c.526.844 1.459 1.394 2.498 1.473V116a1.923 1.923 0 0 0-1.333-.527h-4.8v-8.25zm0 10h4.8c.147 0 .267-.112.267-.25s-.12-.25-.267-.25h-4.8v-.75h4.8c.736 0 1.332.56 1.333 1.25v.75H47.6v-.75zm13.867 1.75h-5.96l-.008.001a.273.273 0 0 0-.056.01.145.145 0 0 0-.084.036.143.143 0 0 0-.069.065.238.238 0 0 0-.03.049l-.005.007c-.188.498-.69.832-1.255.832-.564 0-1.067-.334-1.255-.832 0-.003-.003-.005-.004-.007a.24.24 0 0 0-.03-.048.14.14 0 0 0-.066-.064.264.264 0 0 0-.042-.026.278.278 0 0 0-.043-.01.272.272 0 0 0-.059-.012l-.008-.001h-5.96v-10.25h.534v9.25c0 .276.239.5.533.5h12.8c.294 0 .533-.224.533-.5v-9.25h.534v10.25z" fill="#FFF" fill-rule="nonzero"/></g><g><path d="M64.81 212.472H41.886A3.897 3.897 0 0 1 38 208.586v-16.707a3.897 3.897 0 0 1 3.886-3.886H64.81a3.898 3.898 0 0 1 3.886 3.886v16.707a3.898 3.898 0 0 1-3.886 3.886" fill="#F4B42E"/><path d="M57.697 206.111H45.623a1.054 1.054 0 0 1-1.054-1.054v-9.65c0-.583.472-1.055 1.054-1.055h12.072c.583 0 1.055.472 1.055 1.054v9.651c0 .582-.472 1.054-1.054 1.054M63.923 197.246v5.971a.642.642 0 0 1-.918.58l-2.949-1.408a.643.643 0 0 1-.365-.58v-3.155c0-.247.142-.472.365-.579l2.949-1.408a.642.642 0 0 1 .918.58" fill="#FFF9FF"/></g></g></svg>