<svg width="676" height="101" xmlns="http://www.w3.org/2000/svg"><path d="M117.92 13.904c-.043-3.013-.746-4.262-2.434-4.262-2.088 0-2.753 2.57-2.828 4.262h5.262zm4.177 5.566l-.14.177c-1.852 2.292-3.814 3.307-6.386 3.307-4.157 0-7.289-3.05-7.289-7.107 0-1.95.648-3.852 1.824-5.362 1.32-1.676 3.13-2.561 5.244-2.561 1.757 0 3.312.645 4.504 1.863 1.365 1.39 2.088 3.386 2.047 5.603l-.007.233h-9.18c.1 2.515 1.76 5.124 4.385 5.124 1.756 0 3.162-1.258 3.839-2.02l.163-.179.18.168.653.6.163.154zm-15.112.054v-7.469c0-2.329-1.832-4.215-4.09-4.215-1.882 0-3.169.908-4.456 1.947V.392l-.308.093-5.872 1.754-.175.053v1.283l.213.028c1.413.18 1.699 1.058 1.731 2.52v12.919c-.083 2.12-.737 2.12-1.568 2.12h-.236v1.373h7.961v-1.374h-.24c-.753 0-1.48-.128-1.506-1.635V11.76c.143-.077.291-.163.427-.242.64-.372 1.294-.754 1.947-.754 1.44 0 1.756 1.374 1.756 1.711v6.568c-.075 2.12-.733 2.12-1.56 2.12h-.241v1.378h7.968v-1.376h-.243c-.753 0-1.48-.126-1.505-1.63l-.003-.01zM91.64 6.924l.062.233-.226.066-1.008.284-.176.051-.1-.156c-1.337-2.213-3.576-4.576-5.909-4.784v16.07c0 1.868.54 2.406 2.404 2.406h.243v1.437H76.67v-1.437h.246c1.865 0 2.404-.536 2.404-2.406V2.658c-2.675.477-4.66 2.818-5.861 4.746l-.095.154-.176-.054-1.009-.286-.218-.065.05-.224 1.337-5.752.05-.187H90.13l.045.182 1.476 5.752h-.01zm503.085 27.489c8.581 0 9.51 12.413 9.51 17.746 0 2.178-.294 21.263-10.388 21.263-3.824 0-6.267-2.182-9.007-5.053v-28.32c2.07-2.62 5.43-5.636 9.885-5.636zM562.4 32.214v4.388l.602.075c5.188.66 6.255 3.875 6.348 9.206V86.22c-.276 7.736-2.705 7.736-5.776 7.736h-.683v4.642h28.207v-4.642h-.682c-2.778 0-5.495-.46-5.58-5.994V75.518c3.404 2.441 7.82 4.921 13.122 4.921 7.582 0 21.746-8.109 21.746-27.658 0-12.944-6.483-26.005-20.966-26.005-5.098 0-10.053 2.175-13.905 5.862v-7.126l-22.438 6.707.005-.005zm-26.62 40.589c3.998 0 7.528-3.796 8.712-5.233V51.957c-6.975.96-14.881 4.085-14.881 13.31 0 4.72 2.303 7.536 6.172 7.536h-.002zm4.602-46.03c2.374 0 10.478.29 14.834 3.983 4.76 4.118 4.76 9.246 4.76 13.769v21.95l.017.615c.08 2.78.246 4.478 2.625 4.478.665 0 1.49-.293 2.208-.572l.627-.252 1.074 2.88-.21.32c-2.57 3.826-7.272 6.498-11.437 6.498-4.052 0-7.578-2.19-9.853-5.932-5.119 4.062-10.212 5.93-16.405 5.93-9.449 0-15.092-5.131-15.092-13.725 0-15.222 21.245-19.093 30.962-20.74v-3.749c0-3.186-.133-7.166-2.045-9.183-.903-.954-2.127-1.416-3.738-1.416-4.17 0-5.287 3.191-6.574 6.894l-.125.361c-1.689 5.035-4.497 7.807-7.899 7.807-3.294 0-6.855-2.567-6.855-6.708 0-4.564 4.833-13.21 23.124-13.21l.002.003zm-110.55 61.175v-.124c.031-2.13 1.14-4.075 3.253-5.78l15.606 2.718c8.53 1.155 9.048 2.126 9.048 4.099 0 .13 0 .265-.008.405a3.748 3.748 0 0 1-1.149 2.683c-2.108 2.143-7.163 3.253-14.239 3.12-5.72-.097-12.513-1.43-12.513-7.126l.003.005zm5.51-42.955c.051-3.307 1.03-7.77 3.614-10.394 1.43-1.455 3.181-2.175 5.214-2.138 1.789.037 3.332.736 4.566 2.087 2.63 2.87 3.498 8.077 3.433 11.994-.076 4.641-2.008 12.455-8.732 12.327-7.919-.14-8.14-11.582-8.094-13.874v-.002zm17.564-16.39c-3.236-1.014-6.21-1.566-9.037-1.62-5.776-.104-13.845 1.708-19.16 7.11-3.151 3.208-4.792 7.127-4.857 11.65-.005.1-.005.2-.005.303 0 6.26 3.267 11.207 9.645 14.747a36.94 36.94 0 0 0-.733.372c-3.902 1.915-8.757 4.304-8.844 9.763v.196c0 4.692 2.795 6.754 5.936 8.726-3.563 1.27-8.496 3.577-8.581 8.985-.005.06-.005.1-.005.15 0 6.9 8.104 10.847 22.838 11.122 26.854.496 31.042-10.045 31.137-16.363v-.25c0-5.677-3.312-9.78-9.592-11.87-3.28-1.052-10.759-1.956-16.766-2.687-4.034-.496-7.846-.955-8.952-1.304-1.676-.622-1.914-1.38-1.914-1.98v-.042c.01-.931 1.38-1.684 2.308-2.19 2.258.56 4.336.872 6.338.914 5.929.105 14.116-1.663 19.31-6.94 3.046-3.098 4.629-6.94 4.704-11.412.005-.1.005-.21.005-.317 0-7.378-4.285-11.668-8.3-14.602.309-.298.602-.499 1.004-.49.456.008 1.197.355 1.972.723 1.222.573 2.594 1.22 4.072 1.246 3.663.07 6.81-2.993 6.875-6.684.033-1.731-.61-3.415-1.812-4.74-1.254-1.36-2.978-2.16-4.742-2.194-5.284-.1-10.174 4.71-12.846 9.677h.002zm-68.63 19.641h19.25c-.111-11.027-2.7-15.59-8.895-15.59-7.703 0-10.1 9.47-10.358 15.588l.003.002zm9.868-21.472c6.368 0 12.209 2.503 16.422 7.042 4.466 4.805 6.9 11.494 6.9 18.906 0 .233 0 .462-.008.692l-.012.704H384.5c.308 9.122 6.305 18.677 15.915 18.677 6.358 0 11.436-4.578 13.9-7.305l.451-.513 3.353 3.102-.442.536c-6.674 8.284-13.474 11.817-22.757 11.817-14.796 0-25.96-10.911-25.96-25.385 0-6.96 2.317-13.755 6.524-19.137 4.68-5.974 11.126-9.136 18.655-9.136h.003zm-71.87 5.882c6.19 0 8.777 4.565 8.89 15.588h-19.245c.251-6.12 2.655-15.59 10.353-15.59l.002.002zm-19.15 3.256c-4.207 5.385-6.515 12.18-6.515 19.144 0 14.47 11.158 25.385 25.959 25.385 9.278 0 16.083-3.535 22.757-11.819l.44-.54-3.353-3.098-.452.508c-2.464 2.725-7.54 7.313-13.9 7.313-4.516 0-8.651-2.203-11.652-6.19-2.602-3.47-4.11-7.989-4.26-12.495h32.944l.015-.706c.005-.228.005-.456.005-.687 0-7.415-2.44-14.108-6.895-18.91-4.223-4.542-10.062-7.043-16.427-7.043-7.527 0-13.976 3.162-18.66 9.138h-.005zM365.42.124v68.447c0 2.5.577 4.153 1.751 5.054 1.08.82 2.542.931 3.834.931h.683v4.642H343.38v-4.644h.688c3.016 0 5.871 0 5.871-7.741V20.495c-.093-5.328-1.159-8.547-6.348-9.206l-.597-.075V6.836L365.419.129V.124zM249.124 2.215l-5.089 21.88 4.753 1.351.276-.442c4.35-7 11.566-15.522 21.364-17.153v57.734c0 6.72-2.057 8.769-8.807 8.769h-.69v4.844h36.44v-4.844h-.685c-3.488 0-5.628-.573-6.925-1.845-1.305-1.29-1.887-3.423-1.887-6.928V7.784c8.526.629 16.693 9.19 21.563 17.21l.27.45 4.768-1.362-5.608-21.869h-59.74l-.003.002zm259.751 23.53c4.398 0 7.347 4.536 7.347 8.77 0 4.157-3.076 7.537-6.858 7.537-1.786 0-3.593-.806-5.183-1.514-1.23-.552-2.394-1.071-3.237-1.071-1.701 0-5.086 4.075-6.473 6.311v22.754c.265 5.123 2.233 6.02 6.272 6.02h.685v4.644h-29.296v-4.644h.688c4.054 0 6.172-.345 6.172-7.742V46.176c0-5.175-1.066-8.519-6.348-9.19l-.602-.079v-4.38l22.431-6.708v10.767c3.513-4.588 8.772-10.841 14.402-10.841zM616.263 6.834v4.378l.602.077c5.194.661 6.26 3.88 6.358 9.208v46.311c-.276 7.744-2.704 7.744-5.775 7.744h-.69v4.644h28.211v-4.644h-.684c-2.776 0-5.495-.461-5.583-5.992V40.626c.502-.28 1.63-.917 1.63-.917 2.299-1.337 4.673-2.716 7.086-2.716 5.32 0 6.469 5.047 6.469 6.295v23.527c-.286 7.744-2.71 7.744-5.781 7.744h-.688v4.644h28.222v-4.644h-.69c-2.77 0-5.495-.461-5.587-5.993V41.737c0-8.249-6.499-14.963-14.498-14.963-6.85 0-11.476 3.386-16.163 7.196V.126l-22.436 6.708h-.003zM95.268 72.8c4.007 0 7.532-3.796 8.724-5.233V51.954c-6.97.96-14.894 4.085-14.894 13.31 0 4.72 2.313 7.536 6.172 7.536h-.002zm4.604-46.026c2.383 0 10.488.289 14.836 3.982 4.76 4.123 4.76 9.246 4.76 13.769v21.95l.015.617c.075 2.772.25 4.472 2.63 4.472.667 0 1.454-.28 2.207-.57l.638-.252 1.063 2.88-.21.32c-2.567 3.826-7.27 6.497-11.442 6.497-4.052 0-7.577-2.189-9.855-5.931-5.106 4.061-10.202 5.929-16.392 5.929-9.452 0-15.095-5.13-15.095-13.724 0-15.222 21.252-19.093 30.962-20.74v-2.172l.005-1.58c0-3.185-.145-7.163-2.05-9.18-.903-.955-2.125-1.416-3.738-1.416-4.173 0-5.287 3.19-6.579 6.894 0 0-.125.372-.118.363-1.694 5.037-4.491 7.807-7.898 7.807-3.302 0-6.858-2.562-6.858-6.708 0-4.564 4.83-13.21 23.119-13.21v.003zm-72.57 37.67V16.562c0-6.46 0-8.874 6.855-8.874 10.756 0 21.746 3.699 21.746 31.161 0 30.92-11.04 34.888-20.67 34.888-7.928 0-7.928-1.603-7.928-9.293h-.003zM.362 2.215v4.85h.683c6.749 0 8.817 2.049 8.817 8.775v49.74c0 6.722-2.065 8.772-8.82 8.772H.36v4.844h34.775c5.362 0 11.622-.326 17.396-2.737 13.233-5.41 21.791-19.125 21.791-34.934 0-17.28-8.124-30.578-22.28-36.478C47.258 3.114 41.89 2.211 35.13 2.211H.365l-.003.004zm238.03 25.798V32.5l-.519.13c-5.884 1.551-7.535 5.468-9.81 10.886l-.502 1.199-14.698 34.468c-3.739 8.647-8.38 19.414-20.218 19.414-4.416 0-9.108-2.823-9.108-8.049 0-4.094 3.294-7.43 7.344-7.43 2.923 0 4.727 1.897 6.167 3.42.938.992 1.756 1.844 2.55 1.844 2.584 0 5.996-6.455 7.286-9.986-.251-.568-17.313-38.725-17.313-38.725l-.075-.173c-1.596-3.666-2.86-6.563-6.983-6.847l-.647-.04v-4.597h27.138v4.581l-.627.058c-1.631.159-3.588.839-3.588 3.203 0 1.774.823 3.712 1.548 5.42l.15.365s6.915 15.478 7.997 17.886c1.028-2.362 6.754-15.464 6.754-15.464.828-1.856 1.862-4.16 1.862-6.148 0-2.725-.979-4.472-5.98-5.264l-.576-.093v-4.541h21.841v-.005h.007zm-111.954 3.482v4.385l.602.077c5.29.675 6.353 4.013 6.353 9.19V66.81c0 7.744-2.68 7.744-5.778 7.744h-.688v4.644h28.212v-4.644h-.682c-2.775 0-5.495-.461-5.588-5.992V24.785l-22.431 6.707v.003zM179.542.124v68.447c0 5.527 2.886 5.985 5.588 5.985h.685v4.642h-28.312v-4.644h.687c3.021 0 5.876 0 5.876-7.741V20.495c-.1-5.328-1.164-8.547-6.353-9.206l-.602-.075V6.836L179.542.129V.124zm-48.72 12.28c0 5.59 4.31 10.14 9.624 10.14 5.394 0 9.627-4.452 9.627-10.14 0-5.589-4.32-10.14-9.627-10.14-5.312 0-9.625 4.549-9.625 10.14z" fill="#FFF" fill-rule="evenodd"/></svg>