<svg aria-label="Australian Financial Review" class="_3szyq" viewBox="0 0 300 34" xmlns="http://www.w3.org/2000/svg"><path d="M292.4.7v1.1h3.1l-3.7 24.4L287.5.7h-3.1l-3.7 26.1-3.5-25.1h3.5V.6h-11.1v1.1h2.4l4.9 32.1h4l3.4-20.3 3.7 20.3h4l4.9-32h3.2V.7h-7.7zm-40.3 1h3.2v31h-3.1v1.1h16.3v-8.7h-.8s-.2 3.5-.7 5c-.5 1.1-1.7 2.2-2.9 2.5-1.1.2-3.2.2-3.2.2V16.4s2.5-.1 3.2.3c1.1.9 1.2 2.5 1.4 4.3h.8v-9.7h-.9c0 1.2-.5 2.8-1.4 3.5-.9.9-3.2.5-3.2.5V1.8s3.1-.1 4.1.1c2.4 1.2 2.5 3.9 2.8 6.3h.8V.7H252l.1 1zm-5 0h3.1V.6h-10.9v1.1h2.7v31h-3.2v1.1h11.7v-1.1h-3.3c-.1 0-.1-31-.1-31zm-14.5 0h2.8l-4.9 28.9c-.1 0-4.9-28.9-4.9-28.9h2.9V.6h-10.3v1.1h1.6l6.1 32h5.3l5.7-32h1.6V.6h-5.7v1.1h-.2zm-16.4 28.2c-1.2 2.7-5.3 2.8-7.2 2.8V16.9s2.8 0 3.5.4c1.1.8 1.4 2.4 1.6 4h.8v-10h-.9c-.1 1.5-.2 3.3-1.6 4.3-.8.6-3.5.3-3.5.3V1.8c1.1 0 3.4-.2 4.4.2 2.5 1.2 2.6 4.1 2.8 6.6h.9v-8h-16v1.1h2.5v31.1h-2.3v1.1h16.5v-8.7h-.9c-.1 1.7-.2 3.3-.6 4.7zm-17.4 2.6c-1.4-4.2-1.8-8.4-3.7-12.3-1.2-2.4-3.8-3.5-6.2-3.7 2.8-.3 5.7-1.4 7.1-4.3.9-2.2 1.1-5.8-.3-8s-3.5-3.4-6-3.5h-13v1.1h3.2v31h-3.3v1h11.8v-1.1h-2.9V16.9h.7c1.4.1 3.2.6 3.8 1.7 1.6 2.5 2.9 11.6 3.2 13.4.1.7 0 1.4.4 1.9h7.1v-1.1c-.3 0-1.5 0-1.9-.3zm-13.6-16.7V1.7c.9 0 3.1 0 3.7.4 2.3 2.4 2.1 6.6 2 9.8-.2 1.4-.7 3.1-2.1 3.7-.8.3-3.6.2-3.6.2zm-19.3 9.6h-1.1c0 1.4 0 3-.3 4.3-.5 1.2-1.5 2.7-2.9 2.9h-4.2v-31h3.5V.5h-11.8v1.1h2.9v31h-3v1.1h16.9c0-2.6-.1-5.6 0-8.3zM139.2.7h-4.9l-5.4 32h-2.6v1h6.9v-1.1h-2.9l1.7-10.1h6.4l2 10.1h-3.1v1.1h10.8v-1.1H146c0 .1-6.8-31.9-6.8-31.9zm-4 20.6H132l2.5-15.7 3.4 15.7h-2.7zm-10-19.6V.6h-11.4v1.1h2.8v31h-2.9v1.1h11.4v-1.1h-2.7v-31h2.8zm-18.1 30.9c-1.1.6-3.2.4-4-.5-1.7-2-2.8-5.4-3-8.1-.6-6.2-.6-9.2.2-14.1.4-2.8 1.2-5.6 3.1-7.6 1.2-1.1 3.3-.9 4.6-.2 2.6 1.7 2.5 4.9 2.7 7.7h1.1V.6h-.9c0 .5 0 .9-.4 1.2-.9.2-1.4-.9-2.1-1.1-1.9-1.1-4.6-.7-6.5.3-4.3 2.5-7.1 7.2-7.4 12-.7 7.5.4 15.4 6.6 19.8 2 .9 4.8 2 6.8.5 0 0 1.6-1.6 2.2-1.6s.6 1.1.6 1.8h.9v-8.2h-1.2c-.2 2.7.2 4.9-3.3 7.3zM94.6 1.7V.6H88v1.1h2.5v22L81.7.6h-7.8v1.1h2.8v31h-2.9v1.1h7.1v-1.1h-2.8V6.5l10.4 27.4H92v-32h2.8l-.2-.2zM64.9.7h-5.1l-5.5 32h-2.8v1H59v-1.1h-3.2l1.7-10.3h5.9l2.1 10.3h-3v1.1h10.3v-1.1h-1.5c.1.1-6.4-31.9-6.4-31.9zm-7.3 20.4L60 6.4l3.1 14.7h-5.5zM52.9 1.7V.6h-6.8v1.1h2.8v22.8L39.9.7H32v1.1h2.8v31h-2.9v1h7.4v-1.1h-3V7.1l9.8 26.8h4.2v-32H53c-.1-.1-.1-.2-.1-.2zm-25.3 0h2.9V.6H19v1.1h3.2v31h-3.7v1.1h12.2v-1.1h-3.1v-31zM0 1.7h4.2v31H0v1.1h13.1v-1.1H9.6V16.6h2.9c1.5 0 1.8 2.8 1.7 4.3h1.1V10.7h-1.1c.1 1.7-.3 4.9-1.7 4.9H9.7v-14c1.8.1 4.6.2 5.9 1.6 1.7 1.7 1.6 4.2 1.8 6.5h.8v-9H0v1z" fill="#FFF"/></svg>