<svg width="749" height="535" xmlns="http://www.w3.org/2000/svg" xmlns:xlink="http://www.w3.org/1999/xlink"><defs><path id="a" d="M0 .12h450.34v186.69H0z"/><path id="c" d="M.186.251h185.579V367H.185z"/><path id="e" d="M.587.055h34.195v51.504H.587z"/></defs><g fill="none" fill-rule="evenodd"><path d="M522 303c0 106.59-86.185 193-192.5 193S137 409.59 137 303s86.185-193 192.5-193S522 196.41 522 303" fill="#68D7FD" opacity=".501"/><path d="M563.612 321.262c-14.036-26.41-16.475-57.552-6.686-86.25 6.343-18.592 7.335-47.313 2.1-66.372-16.82-61.23-94.609-97.712-169.615-70.455-68.77 24.992-85.608 128.1-138.413 116.891C126.802 188.713 82.07 277.3 88.62 349.413c4.232 46.581 43.272 104.195 126.666 98.146 24.553-1.782 48.666 4.258 69.444 16.283 35.486 20.536 91.887 25.351 150.48 9.234 88.132-24.242 147.832-86.654 133.343-139.399a60.505 60.505 0 0 0-4.94-12.415" fill="#7191F8" opacity=".676"/><g><g transform="translate(0 196)"><mask id="b" fill="#fff"><use xlink:href="#a"/></mask><path d="M50.002.12A.215.215 0 0 0 50 .493l76.84 45.118c26.95 15.521 57.626 23.804 88.708 23.95l80.86.173a214.866 214.866 0 0 1 108.155 29.842l15.304 16.864 24.378 61.105c17.66 24.38-8.67-7.054-8.735-7.094l-56.977-43.335a167.159 167.159 0 0 0-84.166-23.224l-80.86-.175c-39.327-.186-78.141-10.663-112.241-30.304L.216 14.365A.214.214 0 0 0 0 14.364" fill="#F8FAFB" mask="url(#b)"/></g><path d="M173.306 53a.214.214 0 0 0-.001.37L394.92 183.098c31.045 17.983 50.618 51.02 51.746 86.783v42.813c0 1.09.055 2.17.108 3.252v10.527c0 23.579 12.646 45.588 32.998 57.438L626 469.035l-17.911 30.859a.215.215 0 0 1-.294.076l-152.1-88.543c-34.048-19.823-55.484-56.19-56.617-95.476v-42.822c0-1.09-.046-2.174-.109-3.255V259.35c0-20.011-10.742-38.665-28.04-48.686L125.217 67.09a.214.214 0 0 0-.216-.002" fill="#F8FAFB"/><path d="M214.047 335a.215.215 0 0 0-.001.37l76.907 45.1c26.976 15.514 57.679 23.793 88.789 23.939l80.932.173a215.271 215.271 0 0 1 108.252 29.83L697 509.993l-36.899 20.978a.215.215 0 0 1-.215-.001l-117.012-69.032a167.483 167.483 0 0 0-84.242-23.214l-80.932-.175c-39.365-.184-78.212-10.659-112.343-30.291l-101.14-59.02a.214.214 0 0 0-.217-.002" fill="#F8FAFB"/><g transform="translate(478 168)"><mask id="d" fill="#fff"><use xlink:href="#c"/></mask><path d="M.186 42.353l43.068 49.902c16.16 19.095 16.57 39.686 14.667 59.544l-5.197 51.636c-2.33 24.284 7.112 49.414 27.31 72.673l78.949 90.893 26.743-20.977c.047-.038.052-.09.011-.138l-72.104-83.038c-15.717-18.101-23.066-37.657-21.252-56.555l5.196-51.637c2.41-25.127 12.207-51.178-8.243-75.336L21.12.25" fill="#F8FAFB" mask="url(#d)"/></g><path d="M167.853 157s2.505 3.228 2.996 5.352c.491 2.124-.374 3.188-.374 3.188s-3.753 2.079-4.944 2.453c-1.192.373-4.335 4.476-7.172 5.41-2.837.933-6.305 2.73-7.301.594-.997-2.137 11.294-14.753 11.294-14.753l5.501-2.244zM207.4 153.141s-.267 2.523-2.4 2.383c-2.134-.142-4-2.524-4-2.524l.534 8.97s1.199 13.454 4.933 14.854c3.733 1.402 4.533-6.025 4.533-6.025l-3.6-17.658z" fill="#48489D"/><path d="M197.683 67.622L197 92.247 211.115 107l12.623-3.958c3.04-.954 5.172-3.713 5.347-6.919l.312-5.74s6.222-6.834 4.198-7.353C231.571 82.51 204.061 64 204.061 64l-6.378 3.622z" fill="#F8BE6A"/><path d="M204.733 158a6.972 6.972 0 0 0 3.512-.95c3.415-1.978 4.608-6.401 2.664-9.878-2.54-4.567-9.055-18.507-8.667-27.996.178-4.383 11.385-12.17 21.284-16.202 3.647-1.487 5.422-5.702 3.964-9.418-1.46-3.715-5.595-5.522-9.247-4.036-4.93 2.01-29.552 12.849-30.214 29.053-.63 15.342 9.373 33.72 10.516 35.764a7.085 7.085 0 0 0 6.188 3.663" fill="#F8BE6A"/><path d="M164.184 163c3.711 0 6.854-2.879 7.144-6.664.685-8.927 3.378-34.19 7.564-43.76 2.48-5.673 15.004-11.878 23.104-14.473 3.773-1.208 5.864-5.265 4.667-9.06-1.2-3.8-5.22-5.91-9-4.703-4.289 1.363-25.971 8.853-31.909 22.422-5.92 13.545-8.461 44.932-8.732 48.465-.305 3.976 2.65 7.446 6.603 7.75.187.016.374.023.559.023" fill="#F8BE6A"/><path d="M198 26l-4.171 3.042s-17.157 41.647-16.824 45.035c.332 3.388 3.872 5.698 6.528 4.681 2.656-1.016 12.186-25.027 12.186-25.027L198 26z" fill="#97ACD8"/><path d="M216.003 30.267s-13.664-4.4-19.255-2.987c-5.593 1.415-5.237 9.352-5.705 11.238-.465 1.885 3.004 47.073 3.004 47.073s20.898 16.59 31.149 11.405c7.404-3.744 8.003-7.982 7.763-10.046-.145-1.25-.267-2.502-.226-3.76l-6.14-44.173-10.59-8.75z" fill="#BFC9E6"/><path d="M188.741 19.9c2.43 7.047 10.113 10.789 17.16 8.359 7.046-2.432 10.787-10.113 8.358-17.16C211.828 4.054 204.145.312 197.1 2.742c-7.047 2.43-10.79 10.113-8.359 17.16" fill="#FAC5B6"/><path d="M199 18.997l4.776 13.956c2.822 2.3 6.81 2.7 10.059 1.007.894-.466 1.347-1.462 1.097-2.414L211.372 18 199 18.997z" fill="#FAC5B6"/><path d="M179 82c3.849 0 7-3.15 7-7s-3.151-7-7-7c-3.85 0-7 3.15-7 7s3.15 7 7 7" fill="#97ACD8"/><path d="M165 74a5 5 0 1 0 10 0 5 5 0 0 0-10 0" fill="#FAC5B6"/><path d="M233.962 86.177c.024.194.034.413.037.644 0 .036.002.07 0 .105a6.147 6.147 0 0 1-.052.765l-.01.072c-.252 1.777-1.335 4.17-4.702 6.544-.001.001-.003.001-.003.003a55.165 55.165 0 0 1-5.832 2.61c-8.352 1.01-21.78-7.873-28.4-12.73.803-2 1.69-3.436 1.69-3.436l25.49-11.11 5.99-30.1.664-1.544-1.338.487 6.236 43.949c-.041 1.252.083 2.496.23 3.741" fill="#97ACD8"/><path d="M226.442 57.593S213.455 31.417 216.7 30c0 0 11.462 2.627 13.779 7.818 2.319 5.193 16.19 38.832 15.495 43.316-.695 4.485-4.947 6.063-16.308 9.112C218.893 93.138 210.425 94 210.425 94L210 89.042 231.1 76.2l-4.658-18.607z" fill="#BFC9E6"/><path d="M207 91a5 5 0 1 0 10.001-.001A5 5 0 0 0 207 91" fill="#FAC5B6"/><g transform="translate(187)"><mask id="f" fill="#fff"><use xlink:href="#e"/></mask><path d="M17.196 18.744c-.153-.992-.306-2.008-.14-3 .166-.99.712-1.972 1.61-2.387.46-.214.98-.264 1.485-.238 1.04.054 2.107.467 2.736 1.314.236.318.403.686.53 1.063.802 2.397-.127 5.282-2.17 6.725.54.789 1.15 1.224 2.05 1.51.9.289 1.421.681 2.36.763 1.036 1.859.447 4.545.113 6.656-.334 2.11.087 3.405-.541 5.444-1.49 4.836-2.287 10.06-1.037 14.965 1.543-3.123 4.59-5.091 6.87-7.705 2.546-2.918 4.047-6.868 3.659-10.752-.387-3.885-2.809-7.595-6.35-9.086 2.757-3.109 3.527-7.882 2.818-12.008-.707-4.126-3.362-7.86-6.99-9.83C21.675.809 18.787.282 15.932.109c-1.389-.085-2.79-.09-4.16.154-3.463.617-6.536 2.826-8.658 5.68C.993 8.796-.138 12.099 1.1 16.116c.832-1.264 3.62-2.202 5.07-1.836 1.45.365 5.46 4.421 7.786 4.778 1.013.154 2.492.4 3.24-.314" fill="#F17083" mask="url(#f)"/></g><path d="M212.735 24.478c-.257.178-.51.38-.642.65-.325.664.252 1.465.993 1.723.739.258 1.564.13 2.342-.004l1.497-.254c.501-.085 1.024-.179 1.428-.47.568-.41.77-1.165.575-1.805-.758-2.504-4.722-.853-6.193.16" fill="#48489D"/><path fill="#2E2E2E" d="M205.914 90.79L206 92l-26.914-12.79L179 78z"/><path fill="#434242" d="M206.717 91l.058 1.431-.491.569-.059-1.431z"/><path d="M179.167 77.795l.72-.49 26.866 13.036 1.431.694c1.022.496 1.093 1.412.161 2.048l-16.638 11.356c-.93.634-2.515.748-3.535.253l-30.358-14.727c-1.018-.494-1.092-1.412-.16-2.048l16.637-11.354c.933-.636 2.518-.75 3.536-.256l2.06.999-.72.49" fill="#F1F4F4"/><path d="M160.245 89.54l9.242-6.329c.13-.09.294-.15.47-.183a1.485 1.485 0 0 1 .53-.009c.029.004.057.01.084.016.056.012.11.028.16.049.026.008.05.02.074.032l27.89 13.577c.334.163.396.446.174.673a.671.671 0 0 1-.112.094l-9.243 6.329a1.23 1.23 0 0 1-.47.183 1.541 1.541 0 0 1-.615-.007 1.072 1.072 0 0 1-.234-.08l-27.89-13.58c-.19-.092-.293-.224-.304-.362a.364.364 0 0 1 .054-.21.332.332 0 0 1 .033-.05.714.714 0 0 1 .157-.143" fill="#DFE3E2"/><path d="M208.912 93.056c0 .026 0 .054-.003.08a1.179 1.179 0 0 1-.028.138c-.005.022-.014.042-.021.063-.01.026-.018.052-.031.08a1.453 1.453 0 0 1-.118.199c-.03.041-.063.08-.098.12-.013.014-.025.03-.038.042-.023.025-.048.047-.073.07l-.066.059-.084.065c-.03.023-.058.046-.09.067l-16.613 11.191a2.904 2.904 0 0 1-.226.134c-.023.012-.046.025-.07.035a2.528 2.528 0 0 1-.26.117c-.04.017-.083.03-.125.046l-.096.033-.134.039c-.033.007-.063.017-.095.026a5.655 5.655 0 0 1-.28.059l-.088.013a2.732 2.732 0 0 1-.277.033c-.045.004-.09.009-.137.012l-.115.004-.126.003c-.04 0-.077 0-.117-.002l-.127-.004a36.34 36.34 0 0 1-.11-.009c-.047-.003-.09-.008-.135-.013l-.105-.013c-.054-.007-.106-.017-.159-.026l-.086-.017a3.04 3.04 0 0 1-.274-.07c-.013-.003-.025-.01-.038-.012a2.865 2.865 0 0 1-.349-.137l-30.31-14.516c-.384-.184-.633-.427-.746-.694A.844.844 0 0 1 157 90l.085 1.215c.026.369.299.72.81.965l30.31 14.517c.11.052.228.097.35.136l.022.008.015.005a3.311 3.311 0 0 0 .296.075c.022.006.044.007.065.011.051.01.105.019.158.026.015.002.028.006.042.007.02.003.043.005.063.006.044.006.089.01.134.015l.054.004c.02.001.04.001.059.003.042.001.084.004.125.004.022.002.04.003.061.003l.056-.001.127-.002.064-.001.05-.005c.046-.003.091-.005.138-.01l.069-.005.038-.005a2.98 2.98 0 0 0 .169-.024l.068-.009.02-.004a4.422 4.422 0 0 0 .294-.062l.079-.023c.045-.012.092-.025.135-.04a2.53 2.53 0 0 0 .222-.078c.01-.003.02-.006.028-.01.016-.005.03-.014.044-.02a4.487 4.487 0 0 0 .258-.122c.079-.042.155-.085.226-.132l16.612-11.193.03-.02.06-.046c.03-.023.059-.043.087-.067.023-.018.043-.038.065-.059.025-.023.05-.044.072-.067l.014-.015c.009-.008.016-.018.025-.029.035-.038.067-.079.096-.12.008-.008.016-.016.022-.027.006-.007.01-.017.016-.025a.949.949 0 0 0 .051-.091l.024-.038a.07.07 0 0 0 .006-.018.601.601 0 0 0 .032-.08c.005-.016.013-.03.017-.046l.004-.016c.006-.024.01-.05.015-.076a.512.512 0 0 0 .012-.05v-.013c.003-.026.003-.052.004-.08 0-.016.003-.033.002-.05 0-.007 0-.015-.002-.022l-.086-1.215c.002.023 0 .048 0 .072M197.746 88.09c.318.149.34.425.05.617l-4.75 3.123c-.29.192-.784.226-1.103.078l-10.689-4.999c-.318-.148-.34-.425-.05-.616l4.75-3.125c.29-.19.784-.224 1.104-.076l10.688 4.999z" fill="#DFE3E2"/><path d="M188.556 83.591c-.003-.011-.003-.023-.005-.035-.002-.013-.007-.026-.01-.038a4.739 4.739 0 0 0-.033-.138l-.016-.063a2.04 2.04 0 0 0-.038-.119l-.025-.08-.018-.043c-.008-.024-.017-.047-.027-.07-.008-.021-.013-.04-.022-.06a1.735 1.735 0 0 1-.034-.077l-.025-.057-.013-.028a3.663 3.663 0 0 0-.074-.153l-.005-.006c-.002-.007-.007-.013-.011-.02a1.919 1.919 0 0 0-.066-.12c-.007-.015-.017-.03-.026-.045l-.03-.051-.028-.048-.068-.103-.019-.03-.007-.01a4.857 4.857 0 0 0-.1-.14l-.015-.021a1.097 1.097 0 0 1-.038-.049l-.058-.076a9.623 9.623 0 0 0-.09-.104 1.044 1.044 0 0 0-.039-.046c-.014-.017-.032-.033-.048-.05a1.834 1.834 0 0 0-.073-.077l-.032-.034c-.013-.015-.028-.025-.04-.038-.042-.04-.083-.08-.125-.116-.015-.012-.026-.025-.04-.037l-.023-.017a3.289 3.289 0 0 0-.26-.198l-.048-.031a2.543 2.543 0 0 0-.284-.165l-30.377-14.812a2.076 2.076 0 0 0-.227-.094c-.008-.002-.017-.007-.025-.01-.016-.006-.03-.007-.046-.012a1.426 1.426 0 0 0-.124-.033c-.014-.003-.027-.01-.04-.01-.014-.004-.027-.005-.04-.006-.023-.005-.048-.008-.071-.01l-.044-.007-.05-.001-.054-.002-.027-.001c-.03.001-.056.004-.084.007l-.024.003h-.008c-.035.005-.07.012-.105.02-.004 0-.01.004-.016.005l-.029.009c-.016.006-.034.009-.05.016-.016.006-.029.013-.043.02l-.03.011-.016.009a.715.715 0 0 0-.086.048c-.003.002-.004.005-.007.006l-1.02.7v-.001.001a.682.682 0 0 1 .11-.063l.029-.013a.71.71 0 0 1 .093-.034l.03-.01a.884.884 0 0 1 .128-.025c.008-.002.017-.002.026-.003.035-.003.073-.006.11-.006l.053.001c.031.002.063.005.094.01l.073.008c.026.004.052.01.078.016.041.01.084.02.126.034l.07.023c.074.025.15.056.226.093l30.378 14.812c.097.047.191.104.285.164.016.012.032.02.047.031.089.062.176.128.26.2l.062.052a4.707 4.707 0 0 1 .197.188l.074.078a2.664 2.664 0 0 1 .14.158c.033.039.063.078.095.118.012.017.025.032.037.05.042.056.083.113.122.17l.02.03c.033.05.065.1.096.152l.03.05a4.589 4.589 0 0 1 .104.185c.032.061.061.124.09.188a2.706 2.706 0 0 1 .082.192c.009.023.02.047.028.072.014.04.028.08.04.121l.03.089.026.095c.012.045.024.09.034.136l.013.075c.02.103.035.204.042.305l1.398 20.243c.038.552-.128.954-.427 1.161l1.018-.7c.3-.205.466-.607.428-1.16l-1.397-20.244a2.838 2.838 0 0 0-.042-.305" fill="#DFE3E2"/><path d="M186.587 82.205c1.02.496 1.91 1.812 1.986 2.94l1.421 20.522c.08 1.126-.685 1.64-1.704 1.144l-30.879-15.016c-1.019-.496-1.907-1.81-1.984-2.938l-1.421-20.523c-.079-1.127.683-1.64 1.702-1.145l30.88 15.016z" fill="#B1B6B6"/><path d="M170.772 83.34c-1.654-.89-2.89.028-2.763 2.05.126 2.024 1.566 4.381 3.222 5.271 1.65.888 2.886-.03 2.76-2.054-.126-2.022-1.568-4.379-3.219-5.267" fill="#F2F3F3"/><path d="M56.843 293.755s-1.184 10.762-1.438 11.158c-.253.397-15.165 8.758-19.075 3.168 0 0-1.225-2.078 1.046-4.415 2.269-2.335 7.155-4.337 8.027-7.683.87-3.347.941-4.983.941-4.983l5.628 1.87 5.028-.9-.157 1.785z" fill="#2E2F84"/><path d="M47.737 301.025c.18.16.296.49.255.734-.04.246-.22.315-.402.155l-3.327-2.94c-.181-.159-.295-.488-.255-.732.04-.245.22-.316.401-.157l3.328 2.94zM46.737 302.024c.18.162.296.491.255.737-.04.244-.22.313-.402.153l-3.327-2.94c-.181-.16-.295-.49-.255-.733.04-.244.22-.315.401-.157l3.328 2.94zM44.737 303.025c.18.16.296.49.255.734-.04.246-.22.315-.402.155l-3.327-2.94c-.181-.16-.295-.489-.255-.733.04-.245.22-.314.401-.156l3.328 2.94zM43.737 305.025c.18.16.296.49.255.734-.04.246-.22.315-.402.155l-3.327-2.94c-.181-.159-.295-.488-.255-.732.04-.245.22-.316.401-.157l3.328 2.94z" fill="#2E2F84"/><path d="M97 228.129s-.734 13.857-14.14 16.95C74.693 246.962 66.35 259.7 66.35 259.7L57.94 293 45 291.512l10.109-43.773L78.949 226 97 228.129z" fill="#48489D"/><path d="M74.586 303.803s.564 10.926.376 11.366c-.187.441-13.592 11.453-18.36 6.597 0 0-1.548-1.847.321-4.582 1.869-2.737 6.38-5.61 6.702-9.097.322-3.489.13-5.13.13-5.13l5.867.846L74.453 302l.133 1.803z" fill="#2E2F84"/><path d="M67.67 312.133c.182.113.33.391.33.615-.001.226-.15.317-.331.203l-3.34-2.085c-.182-.112-.33-.388-.329-.612 0-.226.148-.318.33-.206l3.34 2.085zM66.67 314.133c.183.113.33.39.33.615 0 .224-.15.317-.331.203l-3.34-2.085c-.182-.112-.329-.388-.329-.614 0-.224.15-.316.33-.204l3.34 2.085zM64.67 315.133c.183.113.33.39.33.615-.001.226-.15.317-.331.203l-3.34-2.085c-.182-.112-.329-.388-.329-.614 0-.224.15-.316.33-.204l3.34 2.085zM63.672 317.133c.181.113.33.39.328.615 0 .224-.148.317-.331.203l-3.342-2.085c-.18-.112-.328-.388-.327-.614 0-.224.148-.316.33-.204l3.342 2.085z" fill="#2E2F84"/><path d="M103.947 233s1.481 13.824-11.18 19.296c-7.713 3.334-13.873 17.424-13.873 17.424l-2.963 34.415L63 305l2.963-45.072 19.935-25.776L103.947 233z" fill="#48489D"/><path d="M80 199.133s-3.334 18.38-4.73 18.598c-1.395.22-12.786 4.51-12.786 4.51s-2.49 1.55-4.127 1.661c-1.637.11-5.733.473-6.201-1.51-.469-1.982.27-5.43.27-5.43l5.212-.594s-1.922-.753-2.077-1.37c-.153-.62 2.492-1.553 3.93-1.019 1.441.531 3.797 1.912 3.797 1.912l7.464-2.821L72.47 195 80 199.133z" fill="#FAC5B6"/><path d="M107 186.174C105.284 183.937 95.632 180 95.632 180l-14.314.688a7.392 7.392 0 0 0-2.799.718C77.144 189.326 77 204.904 77 204.904v22.859c2.618 3.616 7.525 7.444 12.592 8.76 7.956 2.063 14.906-3.232 14.906-3.232l-1.292-24.733L107 186.174z" fill="#F8BE6A"/><path d="M77.151 182.279C71.611 187.747 70 200.445 70 200.445L77.483 205s.143-15.91 1.517-24c-.668.325-1.3.738-1.849 1.279M109.914 189.572L117 201.898 106.262 210s-5.105-12.572-6.339-14.736c0 0-2.804-7.223 1.362-9.91 0 0 4.322-2.167 8.629 4.218" fill="#F8BE6A"/><path d="M80.088 239.916l-22.42-4.562a4.1 4.1 0 0 1-3.271-3.75l-1.388-21.235c-.176-2.697 2.258-4.824 4.903-4.285l22.42 4.562a4.1 4.1 0 0 1 3.271 3.75l1.388 21.233c.176 2.699-2.256 4.826-4.903 4.287" fill="#F17083"/><path d="M68 222.986l3.997-.165c.003.054.003.11.003.165 0 2.202-1.805 4.014-4 4.014-2.194 0-4-1.812-4-4.014A4.024 4.024 0 0 1 67.542 219l.459 3.986z" fill="#FEFEFE"/><path d="M114.608 203l-7.237 5.587 2.499 6.558s-12.148 5.696-16.692 7.83c-1.472-.008-5.038-.045-6.213.065-1.516.132-3.584 2.095-3.202 2.583.354.455 2.17.36 2.382.347L81 229.632s.628 3.396 1.798 4.974c1.17 1.58 7.013-2.05 8.47-2.835 1.447-.795 4.819-3.135 4.863-3.146l-.063-.153c5.606-2.552 21.256-8.739 21.859-9.879.468-.89-1.386-11.741-3.32-15.593M96 171v9.515s-3.862 9.258-8.618 8.433c0 0-2.768-1.283-2.336-6.142v-5.315L96 171z" fill="#FAC5B6"/><path d="M86.504 157c5.248.001 9.497 4.497 9.496 10.036l-.001 3.534c-.002 5.763-4.257 10.431-9.503 10.43-5.246-.003-9.497-4.675-9.496-10.437l.001-3.534s.359-5.188.014-6.758c-.345-1.57 9.49-3.271 9.49-3.271" fill="#FAC5B6"/><path d="M75.125 159.89c3.02 2.755 17.048 1.38 17.048 1.38L92.01 170l1.034-.473.494-1.848 3.238 2.274c3.288-3.464 4.74-6.602 5.128-9.324.837-5.86-3.94-10.985-9.558-10.646-5.396.325-14.493 1.75-14.929-6.983 0 0-10.476 9.421-2.292 16.89" fill="#48489D"/><path d="M98 169.5a2.5 2.5 0 1 0-4.999-.002 2.5 2.5 0 0 0 4.999.003" fill="#FAC5B6"/><path d="M716 510.5c0 13.531-24.178 24.5-54 24.5-29.824 0-54-10.969-54-24.5s24.176-24.5 54-24.5c29.822 0 54 10.969 54 24.5" fill="#758AC5"/><path d="M617 517c0 4.418-7.836 8-17.5 8-9.666 0-17.5-3.582-17.5-8s7.834-8 17.5-8c9.664 0 17.5 3.582 17.5 8M744 506c0 4.418-7.836 8-17.5 8s-17.5-3.582-17.5-8 7.836-8 17.5-8 17.5 3.582 17.5 8" fill="#758AC5"/><path fill="#373B97" d="M749 442.004v3.963L662.524 496 576 445.96V442z"/><path d="M614 456v46.071C614 518.047 635.714 531 662.5 531s48.5-12.953 48.5-28.929V456h-97z" fill="#48489D"/><path d="M615.082 468.729c-1.306.367 13.135 20.172 37.021 33.496 13.91 7.757 40.365 9.464 55.46 9.775 2.21-3.275 3.437-6.845 3.437-10.585V467.47L647.735 457s-30.66 11.167-32.653 11.729" fill="#2E2F84"/><path fill="#373B97" d="M576 445.99L662.5 396l86.5 49.995L662.523 496z"/><path fill="#48489D" d="M576 441.99L662.5 392l86.5 49.995L662.523 492z"/><path fill="#5154A4" d="M662 496v-3.962L576 442v3.962z"/><path d="M701.66 514h3.681c2.125 0 3.804-1.819 3.65-3.955l-1.841-9.63c-.141-1.924-1.733-3.415-3.65-3.415-1.916 0-3.507 1.491-3.648 3.416l-1.842 9.63c-.155 2.135 1.524 3.954 3.65 3.954" fill="#F8BE6A"/><path fill="#F8BE6A" d="M703.243 515H705v-52.741L656.893 434l-.893 1.506 47.243 27.752z"/><path d="M708 491a4 4 0 1 1-7.999-.001A4 4 0 0 1 708 491" fill="#F8BE6A"/><path d="M336.209 396s-2.306 5.394-2.206 8.532c.1 3.139 1.705 4.315 1.705 4.315s6.015 1.569 7.82 1.667c1.804.097 7.72 4.708 12.03 5.002 4.313.294 9.827 1.568 10.43-1.766.6-3.334-21.257-16.573-21.257-16.573L336.209 396zM312.68 399.17s.346 3.047 3.12 2.879c2.774-.17 5.2-3.049 5.2-3.049l-.693 10.838s-1.56 16.255-6.414 17.95c-4.852 1.692-5.893-7.282-5.893-7.282l4.68-21.336z" fill="#48489D"/><path d="M360.168 273.323l.832 29.4L321.863 318l-.265-17.502s-7.567-8.16-5.106-8.78c2.462-.62 35.918-22.718 35.918-22.718l7.758 4.323z" fill="#F8BE6A"/><path d="M360.98 229l4.635 5.14s13.75 40.84 13.378 44.517c-.373 3.677-4.344 6.184-7.323 5.08-2.98-1.102-13.67-27.16-13.67-27.16L360.98 229z" fill="#2E2F84"/><path d="M340.198 398a8.306 8.306 0 0 1-1.887-.22c-4.402-1.036-7.13-5.436-6.09-9.828l11.927-50.456.476-51.401c.041-4.487 3.7-8.095 8.186-8.095h.077c4.522.043 8.154 3.734 8.113 8.246l-.485 52.313a8.213 8.213 0 0 1-.218 1.799l-12.138 51.344c-.888 3.763-4.25 6.298-7.961 6.298" fill="#F8BE6A"/><path d="M335.453 230.596s14.809-4.83 20.88-3.294c6.07 1.535 8.096 5.631 8.6 7.68.507 2.048-2.023 51.713-2.023 51.713s-26.307 22.016-37.438 16.383c-8.038-4.067-8.688-8.67-8.427-10.911.157-1.358.29-2.718.244-4.085l6.666-47.98 11.498-9.506z" fill="#48489D"/><path d="M365.176 219.89c-2.7 7.83-11.236 11.986-19.065 9.287-7.83-2.702-11.987-11.237-9.288-19.067 2.702-7.828 11.237-11.987 19.066-9.287 7.83 2.702 11.988 11.236 9.287 19.066" fill="#FAC5B6"/><path d="M354 218.113l-5.073 15.6a9.429 9.429 0 0 1-10.688 1.126 2.412 2.412 0 0 1-1.166-2.7l3.78-15.139L354 218.113z" fill="#FAC5B6"/><path d="M317.086 404a8.066 8.066 0 0 1-1.666-.176c-4.366-.93-7.163-5.274-6.246-9.704l8.062-38.979 6.662-59.864c.498-4.495 4.496-7.74 8.93-7.223 4.434.508 7.62 4.566 7.12 9.064l-6.703 60.248c-.03.257-.07.51-.121.763l-8.142 39.356c-.798 3.864-4.155 6.515-7.896 6.515" fill="#F8BE6A"/><path d="M363.734 215.99c.769-.026 1.587-.114 2.192-.61.028-.023.048-.053.074-.079-.006-6.344-3.802-12.275-9.868-14.46-7.653-2.757-15.998 1.49-18.638 9.483a16.23 16.23 0 0 0-.494 1.947c.607.334 1.245.555 1.886.614 1.495.137 6.428-1.953 5.978-4.08l.662 3.12c1.096-.448 1.937-1.515 2.15-2.723 4.14 4.457 10.117 6.984 16.058 6.787" fill="#48489D"/><path d="M376.5 287c-4.126 0-7.5-3.376-7.5-7.5 0-4.126 3.374-7.5 7.5-7.5 4.126 0 7.5 3.374 7.5 7.5 0 4.124-3.374 7.5-7.5 7.5" fill="#2E2F84"/><path d="M342.752 211.967a4.5 4.5 0 1 1-8.506-2.935 4.5 4.5 0 0 1 8.506 2.935M392 278.5a5.5 5.5 0 1 1-11 0 5.5 5.5 0 0 1 11 0" fill="#FAC5B6"/><path d="M317.041 292.259a6.741 6.741 0 0 0-.04.7l-.001.113a7.057 7.057 0 0 0 .069.907c.27 1.928 1.436 4.523 5.063 7.099l.002.001a59.356 59.356 0 0 0 6.281 2.835c8.995 1.093 23.455-8.542 30.585-13.81-.863-2.17-1.819-3.728-1.819-3.728l-27.45-12.051-6.452-32.649-.715-1.676 1.44.527-6.716 47.673c.045 1.358-.088 2.71-.247 4.059" fill="#2E2F84"/><path d="M324.732 260.748s14.43-28.22 10.824-29.748c0 0-12.736 2.832-15.312 8.431-2.575 5.598-17.989 41.863-17.216 46.697.773 4.835 5.495 6.537 18.12 9.825C333.12 299.071 342.53 300 342.53 300l.469-5.346-23.444-13.844 5.176-20.062z" fill="#48489D"/><path d="M345 296.5a5.5 5.5 0 1 1-11.001-.001A5.5 5.5 0 0 1 345 296.5" fill="#FAC5B6"/><path fill="#2E2E2E" d="M344.178 294.796L344 296l27.822-10.796L372 284z"/><path fill="#434242" d="M343.327 294l-.122 1.386.468.614.122-1.384z"/><path d="M372.36 283.593l-.69-.544-28.255 11-1.507.584c-1.073.42-1.215 1.33-.318 2.037l16.01 12.602c.897.705 2.494.938 3.567.52l31.925-12.426c1.072-.418 1.215-1.33.32-2.035l-16.011-12.602c-.898-.706-2.497-.939-3.57-.523l-2.161.843.69.544" fill="#F1F4F4"/><path d="M389.78 296.449l-8.868-7.17a1.248 1.248 0 0 0-.46-.224 1.611 1.611 0 0 0-.625-.039c-.055.007-.11.02-.164.036-.026.009-.052.016-.076.026l-29.248 11.697c-.348.14-.436.423-.227.673.03.036.065.07.106.105l8.87 7.168c.124.102.285.178.46.225.03.007.059.015.09.02a1.57 1.57 0 0 0 .534.018c.087-.013.168-.034.242-.064l29.248-11.694c.2-.08.314-.208.334-.347a.36.36 0 0 0-.037-.218l-.03-.055a.725.725 0 0 0-.148-.157" fill="#DFE3E2"/><path d="M341.183 295.074c-.001.029-.003.056-.001.082 0 .023.003.045.005.067l.01.08c.005.022.013.044.017.066.007.027.015.056.025.084l.027.061a.977.977 0 0 0 .045.098c.01.02.023.04.033.057a1.403 1.403 0 0 0 .193.255c.021.022.04.046.062.067.025.025.053.049.082.074.028.026.056.052.087.076l15.959 12.864c.068.055.143.106.218.156l.067.042c.06.036.122.072.186.104l.07.036a8.279 8.279 0 0 0 .22.099c.042.017.086.034.132.05a3.534 3.534 0 0 0 .372.116c.03.01.059.015.088.023.057.012.111.025.169.036l.109.019c.046.009.092.015.137.022l.115.014.129.012c.04.003.078.006.118.007l.128.006h.114c.047 0 .092-.001.137-.003a5.155 5.155 0 0 0 .27-.02l.09-.011a3.299 3.299 0 0 0 .32-.063c.128-.03.25-.067.366-.113l31.822-12.685c.403-.161.675-.393.809-.66a.903.903 0 0 0 .087-.277l-.18 1.251c-.055.38-.359.723-.896.937L361.1 310.788a2.6 2.6 0 0 1-.364.114c-.01.003-.016.006-.024.007-.004.002-.009.002-.015.003-.093.021-.186.037-.283.052-.009 0-.015.003-.022.003-.022.003-.046.005-.067.006a2.906 2.906 0 0 1-.163.017c-.014 0-.028.003-.043.004-.02 0-.042 0-.064.002-.045.001-.09.003-.137.003l-.055.001-.06-.003c-.042 0-.084-.001-.129-.004-.019 0-.04 0-.06-.002l-.056-.006a3.738 3.738 0 0 1-.129-.012c-.02-.003-.042-.004-.065-.006a28.055 28.055 0 0 0-.189-.03l-.067-.01a465.563 465.563 0 0 0-.278-.061c-.006-.002-.013-.005-.02-.006a4.597 4.597 0 0 1-.28-.082l-.013-.004-.078-.03a3.588 3.588 0 0 1-.135-.05c-.032-.014-.063-.03-.095-.043l-.123-.056-.027-.012-.042-.024c-.065-.033-.126-.069-.186-.104l-.068-.044c-.076-.049-.15-.1-.217-.154l-15.96-12.864-.029-.023-.058-.053-.082-.075-.062-.067-.068-.076-.013-.015c-.008-.01-.014-.022-.021-.03a1.403 1.403 0 0 1-.09-.134l-.02-.028c-.005-.01-.008-.02-.013-.028a.733.733 0 0 1-.045-.098c-.006-.014-.015-.027-.021-.04a.924.924 0 0 1-.031-.106c-.004-.017-.01-.033-.013-.05l-.003-.016c-.006-.027-.008-.052-.01-.079-.002-.018-.007-.036-.008-.054v-.013c0-.028.001-.055.003-.082l.001-.052a.133.133 0 0 0 .003-.022l.182-1.252c-.004.024-.004.05-.006.074" fill="#DFE3E2"/><path d="M352.277 291.49c-.327.133-.37.42-.097.642l4.467 3.638c.274.223.762.296 1.09.165l10.985-4.425c.328-.131.372-.42.098-.642l-4.468-3.639c-.274-.221-.76-.295-1.088-.164l-10.987 4.425z" fill="#DFE3E2"/><path d="M361.018 288.292l.008-.036.013-.037c.011-.046.028-.092.044-.138l.02-.064.012-.03.035-.086c.012-.027.02-.052.03-.079l.023-.043c.01-.022.022-.046.03-.07l.03-.059.04-.074c.008-.02.018-.037.029-.057a7.781 7.781 0 0 1 .101-.175l.004-.006.013-.02.075-.117.03-.043a2081.89 2081.89 0 0 0 .067-.096l.076-.1.02-.028c.002-.003.005-.005.006-.008a3.493 3.493 0 0 1 .173-.202c.02-.023.041-.049.065-.072a.507.507 0 0 1 .04-.04c.018-.021.037-.04.056-.06.015-.013.028-.028.041-.041l.053-.048c.026-.027.054-.05.08-.074l.036-.033c.013-.012.027-.022.042-.034a2.38 2.38 0 0 1 .135-.107.478.478 0 0 1 .042-.034c.008-.006.016-.01.024-.017.09-.066.183-.126.275-.18l.051-.03c.099-.053.198-.103.298-.143l31.639-12.674c.08-.033.158-.057.234-.078.009-.003.019-.007.028-.008.014-.005.03-.006.045-.01a1.8 1.8 0 0 1 .13-.025c.012-.001.025-.006.039-.007l.04-.003.074-.005.045-.001.049.001.054.003a.753.753 0 0 1 .111.015l.025.003a1.758 1.758 0 0 1 .11.03l.017.007c.01.003.018.008.028.01l.049.02.044.024.027.015a.16.16 0 0 0 .017.009c.027.018.055.035.08.056l.009.006.971.787h-.001.001a.66.66 0 0 0-.105-.07l-.028-.017a.874.874 0 0 0-.093-.042l-.027-.012a.955.955 0 0 0-.128-.035l-.025-.005a1.376 1.376 0 0 0-.113-.015l-.052-.001a.986.986 0 0 0-.094 0l-.073.004c-.027.003-.054.008-.08.01a1.315 1.315 0 0 0-.13.026c-.025.004-.048.01-.073.016-.076.021-.154.046-.234.078l-31.64 12.674c-.099.04-.198.09-.296.145-.017.01-.034.018-.05.029a2.687 2.687 0 0 0-.277.18l-.066.05c-.047.034-.09.071-.135.108-.026.023-.052.043-.077.067-.027.024-.055.048-.08.073-.032.03-.062.06-.095.089l-.057.06c-.035.037-.072.075-.105.114l-.041.044c-.047.055-.093.11-.137.165l-.02.029c-.037.047-.075.096-.108.145l-.036.05-.104.158-.013.022a3.225 3.225 0 0 0-.202.372l-.032.07c-.02.04-.035.08-.051.12a2.225 2.225 0 0 0-.07.181l-.043.137-.02.074c-.027.103-.05.205-.065.306l-2.931 20.409c-.08.555.057.974.343 1.206l-.973-.786c-.284-.232-.422-.652-.341-1.208l2.93-20.407c.015-.102.037-.205.065-.307" fill="#DFE3E2"/><path d="M396.354 274.135c1.06-.413 1.787.152 1.623 1.26l-2.976 20.18c-.165 1.107-1.156 2.341-2.215 2.756l-32.139 12.533c-1.059.414-1.787-.151-1.624-1.256L362 289.426c.164-1.109 1.156-2.343 2.215-2.757l32.139-12.534z" fill="#B1B6B6"/><path d="M380.031 290.222c1.915-.676 3.224.243 2.927 2.053-.293 1.813-2.08 3.828-3.993 4.504-1.911.674-3.218-.245-2.923-2.058.293-1.81 2.08-3.824 3.99-4.499" fill="#F2F3F3"/><path d="M473.854 295s2.504 3.228 2.995 5.352c.491 2.123-.374 3.188-.374 3.188s-3.752 2.08-4.943 2.452c-1.193.375-4.337 4.479-7.173 5.41-2.837.934-6.305 2.73-7.302.595-.995-2.136 11.296-14.753 11.296-14.753l5.501-2.244zM514.4 291.14s-.266 2.522-2.4 2.383c-2.133-.14-4-2.523-4-2.523l.533 8.97s1.2 13.453 4.934 14.854c3.734 1.402 4.533-6.026 4.533-6.026l-3.6-17.658z" fill="#48489D"/><path d="M503.683 205.622L503 230.248 517.115 245l12.621-3.958c3.04-.954 5.172-3.713 5.347-6.92l.314-5.739s6.222-6.835 4.198-7.353c-2.024-.52-29.533-19.03-29.533-19.03l-6.379 3.622z" fill="#BFC9E6"/><path d="M510.734 296a6.985 6.985 0 0 0 3.512-.948c3.414-1.98 4.607-6.404 2.665-9.88-2.541-4.566-9.056-18.506-8.668-27.996.178-4.383 11.384-12.169 21.284-16.202 3.647-1.487 5.421-5.702 3.963-9.417-1.459-3.715-5.596-5.524-9.247-4.036-4.93 2.01-29.552 12.847-30.215 29.052-.629 15.342 9.374 33.72 10.518 35.764a7.088 7.088 0 0 0 6.188 3.663" fill="#BFC9E6"/><path d="M471.183 301c3.712 0 6.856-2.878 7.146-6.665.685-8.926 3.378-34.189 7.563-43.76 2.48-5.672 15.004-11.878 23.104-14.471 3.774-1.21 5.865-5.266 4.666-9.062-1.199-3.798-5.218-5.91-8.997-4.701-4.29 1.362-25.974 8.852-31.91 22.42-5.923 13.545-8.462 44.933-8.733 48.467-.305 3.975 2.65 7.445 6.603 7.751.186.015.375.021.558.021" fill="#BFC9E6"/><path d="M501.631 169l-6.796 4.616s-6.021 16.174-16.217 25.672c-11.12 10.353-26.481 14.173-26.197 15.894.547 3.302-2.315 6.632 2.054 5.64 2.184-.494 17.457-2.076 29.793-8.716 12.336-6.64 21.732-18.339 21.732-18.339L501.631 169z" fill="#ECA956"/><path d="M522.637 177.67c-5.798-4.13-12.521-6.833-19.587-7.537-1.877-.187-3.582-.198-4.792.106-4.844 1.212-6.064 4.447-6.255 6.065-.193 1.618 10.379 44.975 10.379 44.975s21.118 13.256 29.686 8.808c6.19-3.213 6.22-6.847 5.76-8.618-.28-1.072-.54-2.146-.653-3.226l-10.78-37.895-3.758-2.678z" fill="#F8BE6A"/><path d="M511.049 172s6.451 2.05 6.92 3.859c.47 1.808-4.574 7.595-10.673 7.113-6.1-.481-12.198-6.51-9.736-8.68 2.463-2.171 13.489-2.292 13.489-2.292" fill="#FEFEFE"/><path d="M497 165.799l7.468 11.439a7.97 7.97 0 0 0 8.913-1.452c.658-.63.81-1.633.365-2.432L507.426 162 497 165.799z" fill="#A1616B"/><path d="M488.066 169.51c3.717 5.716 11.178 7.21 16.664 3.338 5.486-3.872 6.92-11.644 3.204-17.359-3.717-5.713-11.178-7.209-16.663-3.337-5.488 3.872-6.921 11.643-3.205 17.358" fill="#A1616B"/><path d="M488.37 165.841c-.621.15-1.294.264-1.88.004-.027-.01-.05-.03-.075-.043-1.305-5.022.507-10.56 4.911-13.641 5.557-3.887 13.113-2.386 16.877 3.35.304.464.562.943.797 1.43-.415.4-.882.716-1.38.906-1.17.443-5.55-.112-5.63-1.896l.115 2.618c-.97-.112-1.862-.767-2.283-1.676-2.393 4.45-6.657 7.78-11.452 8.948" fill="#353535"/><path d="M504.603 158.463a3.5 3.5 0 1 0 5.795-3.927 3.5 3.5 0 0 0-5.795 3.927" fill="#A1616B"/><path d="M447 218.5a4.5 4.5 0 1 0 9.001-.001 4.5 4.5 0 0 0-9.001.001" fill="#FAC5B6"/><path d="M526.836 180s22.49 26.623 22.16 45.003c-.337 18.751-9.593 31.997-9.593 31.997l-7.572-.344s8.056-30.322 4.542-37.502c-3.51-7.18-18.55-36.916-9.537-39.154" fill="#F8BE6A"/><path d="M531.895 260.653a5.498 5.498 0 0 0 7.758-.549 5.5 5.5 0 1 0-7.758.55" fill="#FAC5B6"/><path d="M478.78 233.91l-23.821-4.83a4.348 4.348 0 0 1-3.476-3.972l-1.473-22.48c-.188-2.857 2.396-5.109 5.208-4.54l23.822 4.833a4.346 4.346 0 0 1 3.476 3.97l1.474 22.483c.188 2.856-2.398 5.108-5.21 4.537" fill="#F17083"/><path d="M466 215.987l3.997-.166c.002.055.003.11.003.166 0 2.202-1.806 4.013-4 4.013s-4-1.811-4-4.013a4.024 4.024 0 0 1 3.542-3.987l.457 3.987z" fill="#FEFEFE"/></g></g></svg>