<svg width="749" height="535" xmlns="http://www.w3.org/2000/svg" xmlns:xlink="http://www.w3.org/1999/xlink"><defs><path id="a" d="M.047.355h96.908v111.952H.047z"/><path id="c" d="M.065.715H151.39v98.112H.065z"/><path id="e" d="M.062.287h152.39v44.208H.062z"/><path d="M6.078.003A5.244 5.244 0 0 0 .84 5.254v130.472c0 2.9 2.345 5.253 5.24 5.253h228.57c2.892 0 5.24-2.353 5.24-5.253V5.254a5.245 5.245 0 0 0-5.24-5.251H6.08z" id="g"/><path d="M6.078.003A5.244 5.244 0 0 0 .84 5.254v130.472c0 2.9 2.345 5.253 5.24 5.253h228.57c2.892 0 5.24-2.353 5.24-5.253V5.254a5.245 5.245 0 0 0-5.24-5.251H6.08z" id="i"/><path d="M6.078.003A5.244 5.244 0 0 0 .84 5.254v130.472c0 2.9 2.345 5.253 5.24 5.253h228.57c2.892 0 5.24-2.353 5.24-5.253V5.254a5.245 5.245 0 0 0-5.24-5.251H6.08z" id="k"/><path d="M6.078.003A5.244 5.244 0 0 0 .84 5.254v130.472c0 2.9 2.345 5.253 5.24 5.253h228.57c2.892 0 5.24-2.353 5.24-5.253V5.254a5.245 5.245 0 0 0-5.24-5.251" id="m"/><path d="M6.078.003A5.244 5.244 0 0 0 .84 5.254v130.472c0 2.9 2.345 5.253 5.24 5.253h228.57c2.892 0 5.24-2.353 5.24-5.253V5.254a5.245 5.245 0 0 0-5.24-5.251" id="o"/><path d="M6.078.003A5.244 5.244 0 0 0 .84 5.254v130.472c0 2.9 2.345 5.253 5.24 5.253h228.57c2.892 0 5.24-2.353 5.24-5.253V5.254a5.245 5.245 0 0 0-5.24-5.251" id="q"/><path d="M6.078.003A5.244 5.244 0 0 0 .84 5.254v130.472c0 2.9 2.345 5.253 5.24 5.253h228.57c2.892 0 5.24-2.353 5.24-5.253V5.254a5.245 5.245 0 0 0-5.24-5.251" id="s"/><path d="M6.078.003A5.244 5.244 0 0 0 .84 5.254v130.472c0 2.9 2.345 5.253 5.24 5.253h228.57c2.892 0 5.24-2.353 5.24-5.253V5.254a5.245 5.245 0 0 0-5.24-5.251" id="u"/><path d="M6.078.003A5.244 5.244 0 0 0 .84 5.254v130.472c0 2.9 2.345 5.253 5.24 5.253h228.57c2.892 0 5.24-2.353 5.24-5.253V5.254a5.245 5.245 0 0 0-5.24-5.251" id="w"/></defs><g fill="none" fill-rule="evenodd"><path d="M68.09 518.506c.939-.37 2 .086 2.372 1.025a451.315 451.315 0 0 0 4.86 11.748 1.822 1.822 0 0 1-1.68 2.543 1.829 1.829 0 0 1-1.68-1.103 460.859 460.859 0 0 1-4.898-11.847 1.822 1.822 0 0 1 1.026-2.366zm677.244-12.263c1.028-.07 1.89.666 1.971 1.668a128.94 128.94 0 0 1 .409 12.937 1.827 1.827 0 0 1-1.827 1.788h-.035a1.826 1.826 0 0 1-1.793-1.859c.017-.792.025-1.581.025-2.37 0-3.383-.142-6.815-.423-10.197a1.825 1.825 0 0 1 1.673-1.967zM59.426 494.495a1.824 1.824 0 0 1 2.312 1.152 468.3 468.3 0 0 0 4.196 12.002 1.823 1.823 0 0 1-1.717 2.448 1.827 1.827 0 0 1-1.717-1.198 463.662 463.662 0 0 1-4.228-12.098 1.821 1.821 0 0 1 1.154-2.306zm680.9-13.242a1.821 1.821 0 0 1 2.264 1.24 128.756 128.756 0 0 1 2.998 12.593 1.824 1.824 0 0 1-1.8 2.154 1.827 1.827 0 0 1-1.795-1.491 124.424 124.424 0 0 0-2.911-12.237 1.823 1.823 0 0 1 1.244-2.26zM52.11 470.037a1.832 1.832 0 0 1 2.245 1.278 459.718 459.718 0 0 0 3.524 12.216 1.823 1.823 0 0 1-1.751 2.352 1.826 1.826 0 0 1-1.747-1.294 470.074 470.074 0 0 1-3.552-12.313 1.822 1.822 0 0 1 1.28-2.24zm678.25-12.248a1.832 1.832 0 0 1 2.474.752 124.91 124.91 0 0 1 5.499 11.729 1.822 1.822 0 0 1-1.695 2.508c-.72 0-1.404-.429-1.694-1.138a121.155 121.155 0 0 0-5.337-11.385 1.82 1.82 0 0 1 .753-2.466zM46.158 445.215a1.822 1.822 0 0 1 2.17 1.399c.89 4.134 1.846 8.303 2.844 12.392a1.824 1.824 0 0 1-1.777 2.255 1.83 1.83 0 0 1-1.774-1.394 467.892 467.892 0 0 1-2.865-12.487 1.821 1.821 0 0 1 1.402-2.165zm669.797-8.484a1.825 1.825 0 0 1 2.564.315c2.906 3.714 5.4 7.12 7.619 10.41a1.823 1.823 0 0 1-1.516 2.842 1.836 1.836 0 0 1-1.519-.805c-2.17-3.22-4.612-6.559-7.464-10.204a1.819 1.819 0 0 1 .316-2.558zM41.583 420.106c.995-.146 1.932.523 2.09 1.518.657 4.159 1.383 8.374 2.156 12.528a1.826 1.826 0 0 1-1.798 2.156c-.864 0-1.631-.612-1.795-1.49a466.775 466.775 0 0 1-2.173-12.627 1.825 1.825 0 0 1 1.52-2.085zm657.971-2.97a1.827 1.827 0 0 1 2.577.216l3.407 4.008c1.625 1.91 3.249 3.818 4.863 5.737.65.77.55 1.92-.223 2.568a1.826 1.826 0 0 1-2.575-.222 1391.99 1391.99 0 0 0-4.85-5.721l-3.413-4.016a1.82 1.82 0 0 1 .214-2.57zM38.401 394.78c1.025-.079 1.903.63 2.003 1.63.426 4.19.917 8.437 1.46 12.63a1.824 1.824 0 0 1-1.814 2.057c-.907 0-1.691-.67-1.81-1.59a465.195 465.195 0 0 1-1.472-12.729 1.823 1.823 0 0 1 1.633-1.998zm645.507 2.175a1.828 1.828 0 0 1 2.543.462c2.192 3.16 4.671 6.474 7.58 10.13a1.82 1.82 0 0 1-1.428 2.956 1.83 1.83 0 0 1-1.434-.688c-2.96-3.72-5.485-7.096-7.722-10.322a1.821 1.821 0 0 1 .461-2.538zm-11.659-22.637c.946-.345 2 .137 2.35 1.079 1.379 3.73 3.131 7.548 5.207 11.347a1.819 1.819 0 0 1-.728 2.474 1.825 1.825 0 0 1-2.478-.728c-2.164-3.955-3.99-7.934-5.432-11.827a1.827 1.827 0 0 1 1.081-2.345zM36.631 369.32a1.816 1.816 0 0 1 1.908 1.74c.193 4.202.447 8.472.756 12.688a1.823 1.823 0 0 1-1.824 1.957c-.948 0-1.75-.73-1.82-1.69a458.59 458.59 0 0 1-.763-12.79 1.826 1.826 0 0 1 1.743-1.905zm631.714-20.099c1.002 0 1.82.81 1.828 1.811.03 4.222.412 8.39 1.137 12.386a1.826 1.826 0 0 1-1.802 2.146 1.83 1.83 0 0 1-1.797-1.5 76.275 76.275 0 0 1-1.193-13.006 1.827 1.827 0 0 1 1.815-1.837zm-632.06-5.42c1.01.01 1.818.834 1.808 1.842a465.465 465.465 0 0 0 .044 12.712 1.824 1.824 0 0 1-1.795 1.855h-.032a1.825 1.825 0 0 1-1.826-1.79 459.105 459.105 0 0 1-.045-12.815 1.826 1.826 0 0 1 1.827-1.804zm633.685-18.437a1.827 1.827 0 0 1 3.54.908c-1.097 4.254-1.93 8.395-2.48 12.31a1.825 1.825 0 0 1-2.06 1.554 1.824 1.824 0 0 1-1.558-2.06c.568-4.048 1.427-8.325 2.558-12.712zm-632.71-7.067l.148.008a1.825 1.825 0 0 1 1.69 1.95c-.193 2.672-.352 5.34-.483 7.998a447.008 447.008 0 0 0-.208 4.683 1.824 1.824 0 0 1-1.825 1.753c-.023 0-.046 0-.07-.003a1.822 1.822 0 0 1-1.756-1.893c.06-1.57.13-3.145.207-4.72.134-2.683.295-5.382.49-8.08.073-1.006.913-1.785 1.955-1.688zM678.25 300.98a1.837 1.837 0 0 1 2.38-1.01 1.824 1.824 0 0 1 1.01 2.374c-1.728 4.279-3.19 8.159-4.466 11.86a1.823 1.823 0 0 1-2.32 1.13 1.822 1.822 0 0 1-1.134-2.317c1.294-3.76 2.777-7.698 4.53-12.037zM38.45 294.473c.168-.994 1.124-1.652 2.107-1.494a1.825 1.825 0 0 1 1.496 2.103 244.056 244.056 0 0 0-1.778 12.543 1.825 1.825 0 0 1-2.024 1.6 1.824 1.824 0 0 1-1.605-2.02 245.81 245.81 0 0 1 1.804-12.732zm649.922-17.022a1.827 1.827 0 0 1 3.347 1.464l-1.704 3.873c-1.146 2.606-2.295 5.212-3.43 7.82a1.826 1.826 0 0 1-3.352-1.452c1.136-2.614 2.285-5.226 3.436-7.837zM44.407 269.41a1.83 1.83 0 0 1 2.294-1.19 1.824 1.824 0 0 1 1.191 2.288 168.522 168.522 0 0 0-3.343 12.175 1.827 1.827 0 0 1-3.558-.833 171.748 171.748 0 0 1 3.416-12.44zm653.658-15.45a1.83 1.83 0 0 1 2.346-1.085 1.822 1.822 0 0 1 1.085 2.339c-1.34 3.646-2.881 7.552-4.714 11.943a1.826 1.826 0 0 1-3.372-1.402c1.81-4.342 3.332-8.2 4.655-11.796zm-643.623-8.37a1.827 1.827 0 0 1 3.21 1.745 122.27 122.27 0 0 0-5.433 11.338 1.829 1.829 0 0 1-2.39.98 1.823 1.823 0 0 1-.984-2.385 125.62 125.62 0 0 1 5.597-11.677zm650.48-15.857a1.807 1.807 0 0 1 2.12-1.474 1.824 1.824 0 0 1 1.477 2.115c-.715 4.007-1.718 8.245-2.977 12.6a1.83 1.83 0 0 1-2.262 1.246 1.823 1.823 0 0 1-1.25-2.257c1.224-4.233 2.197-8.347 2.891-12.23zm-635.444-5.257a1.832 1.832 0 0 1 2.582-.109 1.82 1.82 0 0 1 .108 2.577 99.395 99.395 0 0 0-7.88 9.746c-.355.503-.92.77-1.493.77a1.82 1.82 0 0 1-1.49-2.876 102.8 102.8 0 0 1 8.173-10.108zM707.29 202.85a1.827 1.827 0 0 1 2.054 1.565 75.26 75.26 0 0 1 .66 10.008c0 1.012-.02 2.021-.06 3.032a1.826 1.826 0 0 1-1.823 1.755l-.071-.001a1.824 1.824 0 0 1-1.756-1.892c.035-.965.054-1.93.054-2.894 0-3.222-.21-6.427-.626-9.524a1.826 1.826 0 0 1 1.568-2.05zm-618.325 4.606a1.83 1.83 0 0 1 2.554.405c.591.815.41 1.954-.406 2.546-3.632 2.63-6.873 5.182-9.91 7.81a1.824 1.824 0 0 1-1.195.444c-.512 0-1.02-.212-1.382-.628a1.82 1.82 0 0 1 .183-2.572c3.118-2.696 6.439-5.314 10.156-8.005zm21.6-13.956a1.834 1.834 0 0 1 2.509.627 1.822 1.822 0 0 1-.629 2.501c-4.299 2.57-7.744 4.691-10.84 6.671a1.82 1.82 0 0 1-.984.288 1.82 1.82 0 0 1-.988-3.357c3.127-2.001 6.601-4.14 10.933-6.73zm588.066-14.505a1.831 1.831 0 0 1 2.488.7 69.458 69.458 0 0 1 5.296 11.967 1.822 1.822 0 0 1-1.734 2.4 1.83 1.83 0 0 1-1.735-1.251 65.532 65.532 0 0 0-5.019-11.335 1.821 1.821 0 0 1 .704-2.481zm-566.168 1.374a1.829 1.829 0 0 1 2.519.577 1.822 1.822 0 0 1-.577 2.513c-3.883 2.429-7.724 4.725-10.969 6.652a1.828 1.828 0 0 1-2.504-.635 1.821 1.821 0 0 1 .636-2.499c3.226-1.916 7.044-4.198 10.895-6.608zm20.72-14.558a1.83 1.83 0 0 1 2.57.274 1.82 1.82 0 0 1-.275 2.564 190.32 190.32 0 0 1-6.636 5.106 189.452 189.452 0 0 1-3.68 2.63 1.826 1.826 0 0 1-2.545-.45 1.82 1.82 0 0 1 .45-2.54 186.332 186.332 0 0 0 3.61-2.58 184.528 184.528 0 0 0 6.506-5.004zm529.003-6.231a1.83 1.83 0 0 1 2.58-.12 87.68 87.68 0 0 1 8.986 9.445 1.82 1.82 0 0 1-.264 2.565 1.826 1.826 0 0 1-2.57-.265 84.144 84.144 0 0 0-8.61-9.05 1.817 1.817 0 0 1-.122-2.575zm-510.16-10.737a1.83 1.83 0 0 1 2.583.011c.71.715.707 1.868-.01 2.579a288.003 288.003 0 0 1-9.332 8.846 1.83 1.83 0 0 1-2.582-.127c-.676-.746-.619-1.9.129-2.576a281.99 281.99 0 0 0 9.212-8.733zm489.048-3.591a1.83 1.83 0 0 1 2.482-.723c3.872 2.12 7.584 4.42 11.034 6.833a1.818 1.818 0 0 1 .447 2.54 1.82 1.82 0 0 1-1.497.775c-.362 0-.728-.106-1.048-.33a114.885 114.885 0 0 0-10.696-6.62 1.82 1.82 0 0 1-.722-2.475zM189.562 130.39a1.828 1.828 0 0 1 2.58-.129 1.82 1.82 0 0 1 .13 2.575 601.165 601.165 0 0 1-8.704 9.41c-.36.38-.845.57-1.329.57a1.82 1.82 0 0 1-1.329-3.075 599.724 599.724 0 0 0 8.652-9.351zm447.912 5.075a1.832 1.832 0 0 1 2.308-1.164 147.911 147.911 0 0 1 12.118 4.567 1.82 1.82 0 0 1 .956 2.394 1.826 1.826 0 0 1-2.398.956 144.313 144.313 0 0 0-11.818-4.452 1.823 1.823 0 0 1-1.166-2.3zm-24.872-5.897a1.812 1.812 0 0 1 2.133-1.457c4.478.833 8.6 1.709 12.604 2.677a1.822 1.822 0 0 1-.43 3.595c-.141 0-.286-.017-.431-.05-3.938-.953-8-1.814-12.415-2.638a1.823 1.823 0 0 1-1.46-2.127zm-25.308-3.721a1.827 1.827 0 0 1 2.045-1.577c4.932.63 8.97 1.181 12.71 1.738a1.826 1.826 0 0 1 1.538 2.073 1.828 1.828 0 0 1-2.078 1.534 608.255 608.255 0 0 0-12.634-1.73c-1-.126-1.71-1.04-1.581-2.038zm-25.377-3.22a1.825 1.825 0 0 1 2.058-1.56c4.215.573 8.439 1.102 12.667 1.625a1.824 1.824 0 1 1-.45 3.618c-4.242-.524-8.48-1.056-12.709-1.63-1-.135-1.7-1.054-1.566-2.052zm-355.349-11.292a1.835 1.835 0 0 1 2.582-.151c.753.67.822 1.822.15 2.575l-8.486 9.55a1.827 1.827 0 0 1-2.579.154 1.82 1.82 0 0 1-.156-2.574zm330.145 6.942a1.825 1.825 0 0 1 2.167-1.409 280.46 280.46 0 0 0 12.49 2.325 1.823 1.823 0 1 1-.595 3.6c-4.54-.75-8.68-1.519-12.652-2.356a1.822 1.822 0 0 1-1.41-2.16zm-24.586-6.983a1.833 1.833 0 0 1 2.32-1.134 211.438 211.438 0 0 0 12.11 3.738 1.821 1.821 0 0 1 1.276 2.24 1.827 1.827 0 0 1-2.246 1.274 213.833 213.833 0 0 1-12.321-3.802 1.825 1.825 0 0 1-1.139-2.316zm-23.693-9.599a1.83 1.83 0 0 1 2.415-.916 310.488 310.488 0 0 0 11.7 4.966 1.82 1.82 0 0 1 1.018 2.37 1.829 1.829 0 0 1-2.377 1.015 315.507 315.507 0 0 1-11.837-5.025 1.82 1.82 0 0 1-.92-2.41zm-264.546-9.244a1.824 1.824 0 0 1 2.582-.057c.73.694.756 1.85.059 2.576a536.04 536.04 0 0 0-8.692 9.308 1.82 1.82 0 0 1-1.351.596c-.44 0-.88-.156-1.23-.476a1.82 1.82 0 0 1-.12-2.574 528.203 528.203 0 0 1 8.752-9.373zm241.563-1.974a1.83 1.83 0 0 1 2.46-.79 593.679 593.679 0 0 0 11.402 5.698 1.82 1.82 0 0 1 .844 2.437 1.83 1.83 0 0 1-2.442.843 601.093 601.093 0 0 1-11.473-5.733 1.823 1.823 0 0 1-.791-2.455zm-22.637-11.893a1.829 1.829 0 0 1 2.47-.759l3.644 1.927c2.551 1.352 5.103 2.7 7.66 4.045a1.82 1.82 0 0 1 .763 2.463 1.829 1.829 0 0 1-2.47.762 3428.082 3428.082 0 0 1-7.665-4.047l-3.642-1.927a1.822 1.822 0 0 1-.76-2.464zm-200.431-3.986a1.83 1.83 0 0 1 2.579.165c.665.757.59 1.91-.167 2.575a252.091 252.091 0 0 0-9.315 8.61 1.832 1.832 0 0 1-2.584-.038 1.82 1.82 0 0 1 .037-2.578 257.086 257.086 0 0 1 9.45-8.734zm177.687-7.7a1.832 1.832 0 0 1 2.45-.822 730.523 730.523 0 0 1 11.428 5.808 1.822 1.822 0 0 1-.845 3.441 1.84 1.84 0 0 1-.842-.206 705.543 705.543 0 0 0-11.367-5.776 1.823 1.823 0 0 1-.824-2.446zm-157.178-7.951a1.83 1.83 0 0 1 2.528.54c.55.844.307 1.973-.54 2.52a158.287 158.287 0 0 0-10.31 7.289 1.83 1.83 0 0 1-2.563-.334 1.822 1.822 0 0 1 .337-2.557c3.51-2.694 7.059-5.201 10.548-7.458zm133.869-2.567a1.832 1.832 0 0 1 2.388-.99 322.05 322.05 0 0 1 11.79 5.14 1.82 1.82 0 0 1 .896 2.417 1.827 1.827 0 0 1-2.424.895 319.538 319.538 0 0 0-11.658-5.081 1.823 1.823 0 0 1-.992-2.381zm-110.876-9.302c.944-.363 2 .1 2.367 1.037a1.823 1.823 0 0 1-1.037 2.361 117.86 117.86 0 0 0-11.45 5.193 1.826 1.826 0 0 1-2.464-.776 1.82 1.82 0 0 1 .777-2.458 121.862 121.862 0 0 1 11.807-5.357zm86.735.889a1.827 1.827 0 0 1 2.273-1.227 237.32 237.32 0 0 1 12.243 4.02 1.825 1.825 0 0 1 1.105 2.333 1.831 1.831 0 0 1-2.339 1.1 232.569 232.569 0 0 0-12.054-3.958 1.822 1.822 0 0 1-1.228-2.268zm-24.978-5.42a1.829 1.829 0 0 1 2.082-1.528c4.133.628 8.401 1.446 12.69 2.428a1.82 1.82 0 0 1 1.372 2.185 1.826 1.826 0 0 1-2.188 1.37 171.146 171.146 0 0 0-12.425-2.378 1.823 1.823 0 0 1-1.531-2.077zm-36.68-2.052a1.825 1.825 0 0 1 .514 3.611c-4.176.591-8.322 1.426-12.322 2.48a1.829 1.829 0 0 1-2.233-1.297 1.824 1.824 0 0 1 1.3-2.228 111.622 111.622 0 0 1 12.742-2.566zm12.938-1.11a132.82 132.82 0 0 1 12.96.226 1.828 1.828 0 0 1 1.704 1.939 1.828 1.828 0 0 1-1.943 1.7c-4.27-.278-8.46-.353-12.604-.22a1.834 1.834 0 0 1-1.884-1.764 1.825 1.825 0 0 1 1.767-1.882z" fill="#000"/><path d="M733.817 143.296c0 7.72-6.272 13.978-14.01 13.978-7.737 0-14.01-6.258-14.01-13.978s6.273-13.978 14.01-13.978c7.738 0 14.01 6.258 14.01 13.978zM47.075 180.975c0 9.734-7.908 17.625-17.664 17.625s-17.665-7.89-17.665-17.625c0-9.734 7.909-17.624 17.665-17.624s17.664 7.89 17.664 17.624zM746.482 373.856c0 6.042-4.908 10.94-10.963 10.94-6.056 0-10.964-4.898-10.964-10.94 0-6.041 4.908-10.938 10.964-10.938 6.055 0 10.963 4.897 10.963 10.938z" stroke="#1ABC9C" stroke-width="1.337"/><path d="M746 156.362c0 7.217-5.864 13.067-13.096 13.067-7.233 0-13.096-5.85-13.096-13.067 0-7.216 5.863-13.067 13.096-13.067 7.232 0 13.095 5.85 13.095 13.067M27.583 187.675c0 7.05-5.727 12.763-12.792 12.763C7.728 200.438 2 194.724 2 187.675c0-7.047 5.729-12.761 12.792-12.761 7.065 0 12.792 5.714 12.792 12.761M719.681 348.954c0 6.041-4.91 10.938-10.964 10.938-6.055 0-10.964-4.897-10.964-10.938 0-6.043 4.91-10.94 10.964-10.94 6.055 0 10.964 4.897 10.964 10.94M464.018 36.45c0 4.027-3.272 7.293-7.31 7.293-4.036 0-7.308-3.266-7.308-7.293s3.272-7.293 7.308-7.293c4.038 0 7.31 3.266 7.31 7.293" fill="#1ABC9C"/><path d="M624.852 233.603h-158.37c-5.047 0-9.138-4.082-9.138-9.117V66.474c0-5.035 4.091-9.117 9.137-9.117h158.371c5.046 0 9.137 4.082 9.137 9.117v158.012c0 5.035-4.09 9.117-9.137 9.117" fill="#000"/><path d="M615.327 211.116H476.005c-4.25 0-7.696-3.438-7.696-7.679V75.977c0-4.241 3.446-7.68 7.696-7.68h139.322c4.251 0 7.698 3.439 7.698 7.68v127.46c0 4.241-3.447 7.68-7.698 7.68" fill="#FFF"/><path d="M551.453 221.752c0 3.188-2.592 5.774-5.786 5.774-3.195 0-5.787-2.586-5.787-5.774s2.592-5.774 5.787-5.774c3.194 0 5.786 2.586 5.786 5.774" fill="#E1E1E1"/><path d="M595.776 187.329c-.817-7.856-7.204-13.978-15.103-14.483l-11.663-.744h-1.155c-4.289-.002-7.767-3.472-7.767-7.754v-35.58h-28.03v35.58c0 4.282-3.479 7.752-7.77 7.754h-.875l-11.666.744c-7.899.505-14.284 6.627-15.1 14.483-.44 4.223-.802 8.134-.802 9.507 0 .962 1.5 6.432 3.664 13.815h93.404c2.163-7.383 3.665-12.853 3.665-13.815 0-1.373-.363-5.284-.802-9.507" fill="#ED8D5D"/><path d="M560.098 147.91v5.503a46.615 46.615 0 0 1-7.254 4.3 15.186 15.186 0 0 1-13.163.025c-2.34-1.11-5.029-2.614-7.624-4.58v-5.503c2.595 1.966 5.284 3.469 7.624 4.602a15.27 15.27 0 0 0 13.163-.023c2.226-1.064 4.776-2.497 7.254-4.324" fill="#0B334C"/><path d="M482.287 211.088h126.436s-7.229-19.406-13.8-30.16c-6.57-10.753-20.633-9.572-24.84-9.441-4.206.13-7.23-1.574-7.23-1.574l-34.96 1.049s-5.782 1.18-9.463 1.048c-3.679-.13-14.984-.13-22.211 8.917-7.23 9.05-13.932 30.161-13.932 30.161" fill="#E1E1E1"/><path d="M583.636 119.683c-1.577 3.84-7.633 8.372-11.567 6.966-.63 4.218-1.47 7.826-2.584 10.281-1.915 4.301-5.112 7.721-8.54 10.365-2.734 2.12-5.613 3.734-8.094 4.93a15.236 15.236 0 0 1-13.165.02c-1.915-.921-4.1-2.097-6.267-3.586-4.1-2.791-8.138-6.61-10.43-11.666-1.115-2.475-1.957-6.105-2.608-10.344-3.932 1.427-10.01-3.105-11.587-6.966-1.618-3.923.273-8.392 4.185-10.008 1.956-.796 4.058-.713 5.868.022-.044-.63-.063-1.28-.085-1.91-.02-.399-.02-.776-.02-1.154 0-15.023 12.258-27.318 27.442-27.338 15.582-.02 28.114 12.903 27.484 28.429-.021.672-.062 1.323-.083 1.973 1.808-.735 3.889-.818 5.846-.022a7.68 7.68 0 0 1 4.205 10.008" fill="#ED8D5D"/><path d="M537.52 130.552c0 3.592-2.919 6.504-6.518 6.504-3.598 0-6.518-2.912-6.518-6.504 0-3.592 2.92-6.503 6.518-6.503 3.6 0 6.519 2.911 6.519 6.503M567.937 130.552c0 3.592-2.918 6.504-6.518 6.504-3.599 0-6.517-2.912-6.517-6.504 0-3.592 2.918-6.503 6.517-6.503 3.6 0 6.518 2.911 6.518 6.503" fill="#E6794E"/><path d="M546.418 115.81c.584 1.183.696 2.532.647 3.793-.06 1.271-.293 2.485-.538 3.637-.233 1.162-.578 2.284-.535 3.116-.022.846.712 1.817 1.46 2.895a5.429 5.429 0 0 1-1.853-.706c-.57-.372-1.146-.95-1.427-1.718-.288-.753-.306-1.518-.265-2.189.048-.675.156-1.28.283-1.897.264-1.223.645-2.363 1.032-3.48l1.196-3.452zM539.076 109.873c-.655-.032-1.404-.08-2.08-.096-.685-.005-1.36.004-2.011.117-.659.097-1.263.332-1.86.636-.606.305-1.107.79-1.66 1.3l-.052.049a.506.506 0 0 1-.81-.562c.324-.783.764-1.593 1.467-2.186a5.927 5.927 0 0 1 2.37-1.368c.874-.266 1.783-.387 2.666-.322.895.066 1.713.256 2.563.683a.927.927 0 0 1-.465 1.755l-.128-.006zM552.754 108.125c.85-.427 1.668-.618 2.562-.683a7.342 7.342 0 0 1 2.666.321c.879.253 1.706.748 2.37 1.367.701.594 1.144 1.404 1.467 2.187a.503.503 0 0 1-.81.56l-.051-.047c-.553-.512-1.055-.996-1.661-1.3-.596-.304-1.201-.538-1.859-.637-.653-.113-1.326-.12-2.013-.115-.674.015-1.424.062-2.078.095l-.128.007a.929.929 0 1 1-.465-1.755M558.571 119.376c0 2.182-1.103 3.95-2.463 3.95s-2.463-1.768-2.463-3.95c0-2.181 1.103-3.95 2.463-3.95s2.463 1.769 2.463 3.95M538.775 119.376c0 2.182-1.103 3.95-2.463 3.95-1.358 0-2.461-1.768-2.461-3.95 0-2.181 1.103-3.95 2.461-3.95 1.36 0 2.463 1.769 2.463 3.95M551.526 134.288c.588-.375 1.195-.58 1.774-.857.607-.223 1.151-.485 1.778-.774-.304.652-.952 1.02-1.555 1.308-.64.227-1.297.412-1.997.323M545.62 132.118c2.118.228 4.19.294 5.984-.392.902-.313 1.684-.88 2.333-1.606.693-.706 1.152-1.619 1.7-2.554-.082 1.058-.33 2.17-.984 3.104-.27.506-.716.88-1.128 1.286-.471.335-.962.646-1.504.85a7.04 7.04 0 0 1-3.333.358c-1.092-.142-2.151-.468-3.068-1.046" fill="#0B334C"/><path d="M575.96 89.66c-15.603-18.716-43.993-15.045-56.61-2.267-2.424 2.453-4.544 5.69-6.324 9.52-1.9 4.094-1.086 8.98 2.1 12.18l.052.05a7.902 7.902 0 0 1 3.668.553c-.005-.075-.005-.152-.01-.227 1.825 1.157 3.613 3.117 3.8 6.417.004.066.014.11.02.17l.881.78c2.555-2.094 9.614-20.75 9.614-20.75s17.242 20.602 34.667 20.344c3.544-3.644 6.312-8.072 9.324-12.21.014-.018.03-.037.043-.056 2.747-3.776 2.822-8.907.135-12.726-.437-.62-.89-1.215-1.36-1.779" fill="#0B334C"/><path d="M548.037 95.144c17.542 1.136 22.552 25.229 22.552 25.229s7.062 22.5-22.552 33.41c-8.222 0-15.972-4.253-20.015-11.396-3.565-6.3-5.52-12.695-5.954-19.969-.8-13.382 8.43-28.41 25.97-27.274m24.868 90.92c5.945-2.8 10.475-6.874 12.263-12.735 5.4-17.704 2.543-41.755.14-55.441l.088-.015s2.277-25.91-17.768-37.275c-20.047-11.364-56.039-2.046-61.279 25.684-4.458 23.597 7.41 47.347 11.046 53.902-1.344.445-15.046 5.192-13.096 14.055 2.05 9.318 10.48 15.91 10.48 15.91s9.486 1.415 21.536 1.595c3.604 5.375 6.864 9.627 8.76 10.678 6.151 3.41 47.61-3.637 47.61-3.637-4.538-2.729-11.713-7.109-19.78-12.72" fill="#F4B42E"/><path d="M517.396 160.185s17.657.19 29.73-5.947M536.315 191.744s22.735 1.828 36.59-5.68M552.138 192.648s2.961 5.91 6.607 7.273M555.328 192.421s2.05 3.182 3.643 4.091" stroke="#0B334C" stroke-width=".668" stroke-linecap="round" stroke-linejoin="round"/><path d="M518.196 167.648s41.915 1.818 55.583-25.683-9.796-50.912-24.602-49.093" stroke="#0B334C" stroke-width=".668" stroke-linecap="round" stroke-linejoin="round"/><path fill="#000" d="M316.044 533.481H215.492l12.569-61.658h75.414z"/><path d="M438.068 495.858h-344.6c-3.182 0-5.761-2.573-5.761-5.747V256.02c0-3.173 2.58-5.747 5.761-5.747h344.6c3.18 0 5.761 2.574 5.761 5.747v234.09c0 3.175-2.58 5.748-5.76 5.748" fill="#000"/><path d="M443.829 459.805V256.02c0-3.175-2.58-5.748-5.761-5.748h-344.6c-3.182 0-5.761 2.573-5.761 5.748v203.784h356.122z" fill="#000"/><path fill="#FFF" d="M87.715 449.133h356.142V260.264H87.715z"/><path stroke="#FFF" stroke-width="1.003" stroke-linecap="round" stroke-linejoin="round" d="M224.327 495.725h82.46M274.238 475.897c0 4.784-3.886 8.661-8.68 8.661s-8.681-3.877-8.681-8.66c0-4.785 3.887-8.662 8.68-8.662 4.795 0 8.68 3.877 8.68 8.661z"/><g><path d="M335.811 345.844l5.888-21.76V293.23c0-.93.762-1.686 1.701-1.686h77.338c.938 0 1.7.756 1.7 1.686v45.792c0 .93-.762 1.683-1.7 1.683h-59.3l-24.304 6.448c-.804.212-1.538-.515-1.323-1.31" fill="#FFF"/><path d="M335.811 345.844l5.888-21.76V293.23c0-.93.762-1.686 1.701-1.686h77.338c.938 0 1.7.756 1.7 1.686v45.792c0 .93-.762 1.683-1.7 1.683h-59.3l-24.304 6.448c-.804.212-1.538-.515-1.323-1.31z" stroke="#000"/><path d="M365.234 314.216c0 2.382-1.95 4.314-4.355 4.314-2.407 0-4.357-1.932-4.357-4.314s1.95-4.313 4.357-4.313c2.406 0 4.355 1.931 4.355 4.313M386.557 314.216c0 2.382-1.95 4.314-4.357 4.314-2.405 0-4.356-1.932-4.356-4.314s1.95-4.313 4.356-4.313c2.406 0 4.357 1.931 4.357 4.313M407.879 314.216c0 2.382-1.95 4.314-4.356 4.314-2.406 0-4.357-1.932-4.357-4.314s1.95-4.313 4.357-4.313c2.406 0 4.356 1.931 4.356 4.313" fill="#000"/><g transform="translate(88 261.5)"><mask id="b" fill="#fff"><use xlink:href="#a"/></mask><path d="M32.027-9.064S97.2-16.717 96.87 2.886c-.33 19.605-65.034 9.465-65.034 9.465s70.26 10.631 64.819 47.467c-5.44 36.837-74.328-27.625-74.328-27.625s45.264 50.31 37.623 64.545C52.31 110.976 22.222 84.561 7.161 44.264c0 0 21.28 49.39 2.77 65.813C-8.579 126.5-8.736 46.83-8.736 46.83L-8.81-1.883l40.837-7.18z" fill="#1ABC9C" mask="url(#b)"/></g><path stroke="#FFF" stroke-width="1.003" stroke-linecap="round" stroke-linejoin="round" d="M95.992 272.901l78.87 45.402M135.427 351.444l-41.728-71.278"/><g transform="translate(192.523 351.148)"><mask id="d" fill="#fff"><use xlink:href="#c"/></mask><path d="M145.292 85.29l-4.185-9.316a348.162 348.162 0 0 0-4.632-9.5 23.455 23.455 0 0 0-7.892-8.933 19.6 19.6 0 0 0-10.818-4.098l-14.059-.893h-1.391c-5.173-.001-9.366-4.15-9.366-9.273V.715H59.161v42.562c0 5.122-4.193 9.272-9.365 9.273H48.74l-14.06.893c-1.28.08-2.52.292-3.721.604-6.694 1.512-12.675 5.87-15.979 12.427a344.19 344.19 0 0 0-4.631 9.5L6.162 85.29A721.908 721.908 0 0 0 .065 99.796H151.39a721.963 721.963 0 0 0-6.098-14.507" fill="#CC6F49" mask="url(#d)"/></g><path d="M285.485 374.76v6.584c-2.99 2.157-6.06 3.871-8.744 5.146-5 2.404-10.838 2.404-15.866.025-2.822-1.327-6.064-3.124-9.192-5.475v-6.584c3.128 2.352 6.37 4.15 9.192 5.504a18.527 18.527 0 0 0 15.866-.026c2.683-1.274 5.755-2.988 8.744-5.173" fill="#0B334C"/><g transform="translate(192.377 405.48)"><mask id="f" fill="#fff"><use xlink:href="#e"/></mask><path d="M.21 45.464S10.915 9.827 22.99 2.412C35.064-5.002 98.496 10.13 125.396.596c0 0 17.884 8.172 27.055 44.644L.062 44.937" fill="#1CB7C8" mask="url(#f)"/></g><path d="M213.15 411.146s91.71 10.668 107.07-2.725M218.653 449.055l3.898-21.111M318.386 448.374l-5.044-19.75" stroke="#0B334C" stroke-width=".668" stroke-linecap="round" stroke-linejoin="round"/><path d="M309.139 330.056a9.302 9.302 0 0 0-7.057.025c.038-.788.074-1.577.106-2.362.751-18.589-14.344-34.034-33.134-34.016-18.79.02-33.852 15.494-33.063 34.08.033.765.069 1.532.106 2.299a9.296 9.296 0 0 0-7.06-.026c-4.73 1.915-6.998 7.264-5.064 11.948 1.911 4.628 9.239 10.058 13.977 8.341.778 5.075 1.801 9.409 3.147 12.366 4.213 9.253 13.412 15.072 20.131 18.254a18.505 18.505 0 0 0 15.87-.017c6.7-3.195 15.855-9.022 20.052-18.295 1.333-2.945 2.345-7.255 3.11-12.298 4.74 1.678 12.036-3.734 13.943-8.351 1.934-4.684-.334-10.033-5.064-11.948" fill="#CC6F49"/><path d="M258.27 353.997c0 4.297-3.518 7.78-7.858 7.78-4.339 0-7.857-3.483-7.857-7.78 0-4.295 3.518-7.779 7.857-7.779 4.34 0 7.857 3.484 7.857 7.78M294.935 353.997c0 4.297-3.517 7.78-7.857 7.78-4.339 0-7.857-3.483-7.857-7.78 0-4.295 3.518-7.779 7.857-7.779 4.34 0 7.857 3.484 7.857 7.78" fill="#C4533A"/><path d="M268.995 336.363c.703 1.416.838 3.028.778 4.539-.073 1.52-.351 2.97-.648 4.349-.28 1.39-.695 2.733-.643 3.727-.027 1.01.857 2.173 1.759 3.465a6.649 6.649 0 0 1-2.232-.845c-.688-.447-1.385-1.135-1.72-2.056-.348-.9-.37-1.816-.322-2.62.06-.805.188-1.53.342-2.267.318-1.465.778-2.828 1.244-4.164.489-1.34.939-2.642 1.442-4.128M260.143 329.262c-.788-.038-1.693-.097-2.505-.115-.828-.006-1.64.005-2.425.139-.793.117-1.527.397-2.236.772-.736.353-1.343.931-2.007 1.544l-.064.058a.612.612 0 0 1-.858-.03.599.599 0 0 1-.117-.642c.391-.935.922-1.904 1.76-2.624.811-.73 1.804-1.325 2.865-1.626 1.053-.32 2.15-.463 3.214-.386 1.078.079 2.063.307 3.088.818.552.276.774.942.495 1.491a1.125 1.125 0 0 1-1.055.609l-.155-.008zM276.632 327.17c1.025-.51 2.01-.74 3.088-.818 1.065-.077 2.161.067 3.215.386 1.059.301 2.053.896 2.864 1.626.838.72 1.37 1.69 1.76 2.625a.6.6 0 0 1-.329.787.614.614 0 0 1-.646-.116l-.063-.058c-.664-.611-1.272-1.191-2.009-1.544-.709-.375-1.441-.654-2.234-.772-.786-.134-1.597-.145-2.426-.139-.813.018-1.716.077-2.505.115l-.155.006a1.116 1.116 0 0 1-1.174-1.05 1.112 1.112 0 0 1 .614-1.048M283.644 340.63c0 2.609-1.329 4.725-2.968 4.725-1.638 0-2.968-2.116-2.968-4.726 0-2.609 1.33-4.725 2.968-4.725 1.64 0 2.968 2.116 2.968 4.725M259.782 340.63c0 2.609-1.329 4.725-2.968 4.725-1.64 0-2.968-2.116-2.968-4.726 0-2.609 1.328-4.725 2.968-4.725s2.968 2.116 2.968 4.725M275.151 358.466c.715-.432 1.431-.718 2.139-1.024.72-.293 1.395-.565 2.144-.926-.175.384-.48.687-.804.948-.323.268-.697.45-1.07.615-.761.3-1.57.478-2.409.387M268.032 355.87c2.555.273 5.052.352 7.212-.467 1.09-.375 2.032-1.053 2.814-1.923.834-.844 1.389-1.937 2.051-3.055-.101 1.267-.4 2.596-1.186 3.714-.327.604-.866 1.052-1.36 1.537-.57.402-1.16.774-1.815 1.016-1.305.48-2.697.6-4.016.43-1.317-.17-2.594-.56-3.7-1.252" fill="#0B334C"/><path d="M328.18 344.367s4.116-4.414 2.744-9.508c-1.371-5.093-6.173-7.81-6.173-7.81s6.173-12.564-.343-20.374c-6.517-7.81-18.178-6.452-18.178-6.452s5.83-15.62-16.12-22.412c-21.95-6.792-31.553 12.564-31.553 12.564-2.744-6.792-20.235-15.96-32.24-5.773-11.784 9.997-4.06 24.911-3.786 25.455-4.801-2.703-14.048.692-15.42 7.824-1.372 7.13 4.802 14.262 4.802 14.262s-11.661 7.81-8.574 21.393c3.086 13.583 15.776 16.639 15.776 16.639-6.516 11.885 5.83 17.658 5.83 17.658 11.456 7.063 21.142 4.414 26.739 1.48V375.27c-4.225-3.179-8.204-7.322-10.59-12.565-1.345-2.947-2.36-7.28-3.143-12.36-4.733 1.711-12.072-3.708-13.98-8.34-1.933-4.686.33-10.038 5.063-11.953a9.339 9.339 0 0 1 6.337-.234c2.871 10.94 5.95 14.49 7.41 13.871 1.6-.679 6.859-10.64 4.115-19.582 0 0 10.632 4.414 14.291-6.113 0 0 2.058 11.094 12.69 12.791 10.632 1.698 14.29-5.206 14.29-5.206s-2.515 19.129 5.26 19.469c4.244.186 7.09-7.765 8.8-15.02a9.302 9.302 0 0 1 6.912.024c4.733 1.915 6.996 7.267 5.062 11.953-1.907 4.618-9.205 10.024-13.938 8.353-.769 5.04-1.784 9.346-3.115 12.293-2.592 5.719-7.051 10.133-11.674 13.42v13.8c19.837 2.948 29.33-15.28 29.33-15.28s14.749-4.415 17.15-14.602c2.4-10.187-3.773-15.62-3.773-15.62" fill="#E1E1E1"/></g><g><path d="M628.378 498.444H466.337c-4.71 0-8.528-3.803-8.528-8.496v-229.4c0-4.692 3.817-8.495 8.528-8.495h162.041c4.71 0 8.528 3.803 8.528 8.496v229.4c0 4.692-3.819 8.495-8.528 8.495" fill="#000"/><path fill="#E1E1E1" d="M463.9 471.25h166.914V260.433H463.9zM522.534 484.79h49.646v-6.98h-49.646z"/><path d="M552.613 358.803v-29.588H529.27v29.588c0 3.561-2.898 6.447-6.472 6.447 20.57 30.394 36.517 0 36.517 0h-.231c-3.573 0-6.471-2.886-6.471-6.447" fill="#FA9778"/><path d="M552.622 345.134v4.575a38.932 38.932 0 0 1-6.04 3.578 12.67 12.67 0 0 1-10.963.019c-1.95-.924-4.188-2.174-6.35-3.808v-4.575c2.162 1.634 4.4 2.884 6.35 3.825a12.736 12.736 0 0 0 10.963-.018 37.782 37.782 0 0 0 6.04-3.596" fill="#0B334C"/><path d="M497.456 471.363h91.911l-2.35-28.523 12.184-34.44s-13.708-31.559-19.799-38.538c-6.092-6.979-20.711-5.31-20.711-5.31s-3.655 10.774-16.753 12.746c-13.097 1.971-19.797-15.78-19.797-15.78-22.61-3.398-29.393 23.82-29.393 23.82-17.972 37.777-18.429 51.129-18.429 51.129l23.149 7.89-.012 27.006z" fill="#FFF"/><path d="M524.233 369.18s15.077 24.578 30.612 4.78" stroke="#0B334C" stroke-width=".668" stroke-linecap="round" stroke-linejoin="round"/><path d="M605.006 355.798s-7.69-11.877-6.309-13.483c1.382-1.605 6.94 2.564 6.94 2.564s-.458-15.513 1.35-16.131c1.808-.618 3.018 11.888 3.018 11.888s1.084-10.37 3.131-10.973c2.05-.606 1.024 12.697 1.024 12.697s3.495-10.03 5.715-9.422c2.22.609-2.63 12.489-2.63 12.489s3.997-6.433 5.486-5.706c1.488.728-4.68 16.826-4.68 16.826l-13.045-.75z" fill="#FA8764"/><path d="M590.282 471.363l-1.741-18.889c8.566 9.215 15.762 4.551 15.762 4.551 22.73-11.72 23.187-100.36 20.103-101.157-3.084-.797-21.017-.457-22.844.454-1.828.909-1.714 53.368-1.714 53.368-1.713-17.069-18.733-43.127-18.733-43.127-1.597-7.739-10.85-10.81-10.85-10.81-5.025-5.234-17.476-3.186-17.476-3.186l-.228 5.688c.228 5.236 2.627 5.69 2.627 5.69 3.807 15.324-14.47 47.641-14.47 47.641s-19.993-40.706-17.19-46.336c0 0 5.18-.36 5.742-6.446v-5.935s-11.242-2.275-16.876 2.732c0 0-10.661 2.199-10.966 10.999 0 0-1.904 5.083-5.33 9.938-3.327 4.713-26.165 49.596-29.87 94.825h124.054z" fill="#E76D83"/><path d="M567.409 382.607c1.37-13.654 12.565-15.93 12.565-15.93M519.665 393.076l22.16 32.77 20.101-33.909M501.618 368.042s10.965 2.504 12.107 15.475M570.76 416.517l17.667 36.11-7.769-4.023M599.696 408.324c-.305 1.517-2.133 18.51-2.133 18.51l2.133-18.51zM593.909 415.909l5.786-7.585M497.354 470.831l11.575-59.473.457 6.98M602.361 361.214l21.702.228" stroke="#0B334C" stroke-width=".668" stroke-linecap="round" stroke-linejoin="round"/><path d="M568.728 313.348a6.392 6.392 0 0 0-4.875.016c.025-.547.05-1.094.071-1.64.521-12.923-9.91-23.66-22.892-23.647-12.98.013-23.386 10.771-22.842 23.69.023.531.048 1.065.074 1.599a6.393 6.393 0 0 0-4.877-.018c-3.27 1.332-4.835 5.05-3.5 8.307 1.32 3.216 6.384 6.99 9.657 5.797.538 3.527 1.246 6.542 2.174 8.597 2.91 6.432 9.266 10.477 13.908 12.69a12.706 12.706 0 0 0 10.964-.014c4.63-2.218 10.955-6.27 13.854-12.716.921-2.047 1.62-5.044 2.15-8.55 3.274 1.167 8.315-2.596 9.633-5.804 1.335-3.257-.23-6.975-3.5-8.307" fill="#FA9778"/><path d="M541.229 318.44c.484.985.586 2.108.533 3.154-.05 1.057-.235 2.068-.443 3.026-.188.966-.488 1.897-.45 2.591-.008.7.596 1.51 1.221 2.408a4.535 4.535 0 0 1-1.542-.589c-.477-.307-.952-.79-1.182-1.43-.257-.623-.24-1.26-.226-1.817a10.98 10.98 0 0 1 .234-1.58c.217-1.017.544-1.962.865-2.892l.99-2.871zM535.114 313.504c-.544-.023-1.167-.082-1.73-.08-.575-.003-1.134.003-1.68.088-.55.076-1.046.293-1.546.538-.504.253-.923.656-1.382 1.08l-.044.042a.42.42 0 0 1-.674-.467c.27-.651.638-1.325 1.22-1.818a4.922 4.922 0 0 1 1.979-1.128 5.865 5.865 0 0 1 2.217-.276c.743.067 1.427.208 2.133.568a.77.77 0 0 1 .338 1.037.777.777 0 0 1-.722.421l-.109-.005zM546.506 312.05c.708-.36 1.391-.5 2.135-.568a5.869 5.869 0 0 1 2.217.277 4.908 4.908 0 0 1 1.977 1.127c.583.495.951 1.169 1.22 1.818a.418.418 0 0 1-.228.548.424.424 0 0 1-.446-.08l-.043-.04c-.46-.426-.88-.83-1.382-1.081-.5-.247-.995-.462-1.548-.54-.545-.083-1.104-.09-1.678-.087-.562-.001-1.185.057-1.73.08l-.11.003a.773.773 0 0 1-.807-.738.778.778 0 0 1 .423-.719M551.35 321.407c0 1.814-.917 3.284-2.05 3.284-1.132 0-2.05-1.47-2.05-3.284 0-1.815.918-3.285 2.05-3.285 1.133 0 2.05 1.47 2.05 3.285M534.864 321.407c0 1.814-.918 3.284-2.05 3.284-1.133 0-2.05-1.47-2.05-3.284 0-1.815.917-3.285 2.05-3.285 1.132 0 2.05 1.47 2.05 3.285M545.483 333.806c.49-.312.995-.482 1.478-.71.506-.187.958-.405 1.48-.646-.253.542-.793.848-1.294 1.088-.532.188-1.081.343-1.664.268M540.564 332.002c.886.115 1.754.141 2.592.124.838-.04 1.653-.158 2.392-.448.752-.263 1.404-.733 1.942-1.338.57-.59.972-1.341 1.418-2.123-.082.875-.27 1.807-.82 2.58a4.362 4.362 0 0 1-2.194 1.777c-1.817.657-3.799.337-5.33-.572M521.47 335.453c-2.23-1.802-4.241-4.697-5.847-8.375 1.37.6 2.758.8 3.928.383.474 3.186 1.114 5.97 1.92 7.992M567.048 326.823c-2.887 7.337-7.437 11.179-7.437 11.179s-.074 0-.22.018c.402-.638.749-1.31 1.06-2.003.914-2.058 1.608-5.043 2.138-8.556 1.315.472 2.924.144 4.46-.638" fill="#0B334C"/><path d="M566.046 298.297c-.122-.43-.25-.843-.383-1.223 1.182-5.027 4.146-10.918-2.251-13.35-3.572-1.358-6.61-.334-8.962 1.326a14.59 14.59 0 0 0-1.538 1.09c1.786-3.02 2.613-6.329-2.178-6.513-2.587-.1-4.923.531-6.948 1.462-.773.235-1.538.487-2.295.753-1.358.478-2.778 1.09-3.883 2.005.267-1.502-.423-2.832-4.007-2.513-6.67.595-12.554 9.136-13.958 11.321-3.166 3.23-8.355 9.922-7.713 18.639.073.91.164 1.82.274 2.712a5.01 5.01 0 0 1 1.188-.655c1.48-.614 3.04-.584 4.452-.113l1.198 2.23c.559 1.042 1.245 2.186 2.396 2.47.776.192 1.615-.075 2.246-.566.63-.49 1.073-1.179 1.419-1.898 1.343-2.789 1.33-6.008 1.287-9.1a.298.298 0 0 0-.027-.116c2.339 1.323 5.514.942 7.369-1.01.56 1.195 1.883 1.635 3.155 2.01 2.198.65 4.475 1.14 6.766 1.042 2.29-.096 4.612-.823 6.31-2.36.935 1.023 2.287 1.07 3.674 1.016a21.887 21.887 0 0 0 4.397-.625c-.635 1.753-1.033 3.398-1.2 5.254-.108 1.204-.105 2.467.433 3.549.54 1.08 1.75 1.913 2.937 1.664.54-.113 1.015-.43 1.455-.764 1.153-.868 2.403-1.79 3.196-2.974 1.248-.294 2.599-.239 3.875.291.22.09.42.181.621.308-.085-4.521-1.039-9.66-3.305-15.362" fill="#0B334C"/><path d="M436.371 233.67H181.735c-4.374 0-7.92-3.533-7.92-7.889V87.412c0-4.358 3.546-7.889 7.92-7.889H436.37c4.373 0 7.92 3.531 7.92 7.89V225.78c0 4.356-3.547 7.889-7.92 7.889" fill="#000"/><path d="M420.31 226.842H191.05c-2.9 0-5.253-2.343-5.253-5.234V91.585c0-2.891 2.352-5.235 5.253-5.235H420.31c2.9 0 5.255 2.344 5.255 5.235v130.023c0 2.89-2.354 5.234-5.255 5.234M429.675 177.989h7.31v-42.785h-7.31z" fill="#E1E1E1"/></g><g><g transform="translate(186 85.5)"><mask id="h" fill="#fff"><use xlink:href="#g"/></mask><path d="M246.146 149.246s-8.652-103.89-39.106-109.3c-30.455-5.406 31.044 112.73 31.044 112.73l8.062-3.43z" fill="#1ABC9C" mask="url(#h)"/></g><g transform="translate(186 85.5)"><mask id="j" fill="#fff"><use xlink:href="#i"/></mask><path d="M240.947 149.76s-37.773-95.745-63.364-83.738c-25.59 12.007 59.198 89.414 59.198 89.414l4.166-5.676z" fill="#1ABC9C" mask="url(#j)"/></g><g transform="translate(186 85.5)"><mask id="l" fill="#fff"><use xlink:href="#k"/></mask><path d="M235.484 152.932s-55.54-62.931-76.665-48.208c-21.124 14.723 69.696 52.056 69.696 52.056l6.969-3.848z" fill="#1ABC9C" mask="url(#l)"/></g><g transform="translate(186 85.5)"><mask id="n" fill="#fff"><use xlink:href="#m"/></mask><path stroke="#FFF" stroke-width="1.003" stroke-linecap="round" stroke-linejoin="round" mask="url(#n)" d="M180.671 73.433l46.917 61.658"/></g><g transform="translate(186 85.5)"><mask id="p" fill="#fff"><use xlink:href="#o"/></mask><path stroke="#FFF" stroke-width="1.003" stroke-linecap="round" stroke-linejoin="round" mask="url(#p)" d="M163.361 109.971l40.996 27.403"/></g><g transform="translate(186 85.5)"><mask id="r" fill="#fff"><use xlink:href="#q"/></mask><path stroke="#FFF" stroke-width="1.003" stroke-linecap="round" stroke-linejoin="round" mask="url(#r)" d="M207.091 46.943l27.787 68.053"/></g><g transform="translate(186 85.5)"><mask id="t" fill="#fff"><use xlink:href="#s"/></mask><path d="M110.186 84.692V52.891h-24.93v31.801c0 3.828-3.094 6.93-6.911 6.93 21.967 32.668 38.998 0 38.998 0h-.247c-3.816 0-6.91-3.102-6.91-6.93" fill="#FFCBA1" mask="url(#t)"/></g><g transform="translate(186 85.5)"><mask id="v" fill="#fff"><use xlink:href="#u"/></mask><path d="M110.195 70v4.919a41.633 41.633 0 0 1-6.451 3.843 13.445 13.445 0 0 1-11.707.02c-2.082-.991-4.474-2.334-6.781-4.092v-4.919c2.307 1.757 4.699 3.1 6.781 4.113a13.515 13.515 0 0 0 11.707-.02c1.979-.951 4.246-2.232 6.451-3.865" fill="#0B334C" mask="url(#v)"/></g><g transform="translate(186 85.5)"><mask id="x" fill="#fff"><use xlink:href="#w"/></mask><path d="M84.46 85.836l14.136 3.34 12.512-3.829s3.087 6.518 7.474 5.702c4.387-.814 19.661.49 24.05 9.287 4.385 8.798 18.847 45.618 18.847 45.618H33.601s16.41-44.15 23.398-50.342c6.987-6.191 24.21-2.607 25.51-5.377 1.3-2.77 1.95-4.399 1.95-4.399" fill="#7547D8" mask="url(#x)"/></g><path d="M281.996 186.162l3.981-13.604-12.38-6.369a2.74 2.74 0 0 0-3.923 1.833l-1.954 8.37 3.715-.982 10.561 10.752z" fill="#5E3FA0"/><path d="M287.378 186.162l-3.98-13.604 12.38-6.369a2.74 2.74 0 0 1 3.923 1.833l1.814 7.958-3.575-.57-10.562 10.752z" fill="#5E3FA0"/><path d="M248.422 180.143s10.013 1.52 10.013 11.559M312.437 178.622s-6.37 4.563-5.156 11.256M257.221 207.217l-6.371 19.164M310.314 204.783l9.709 21.598M284.829 183.869v39.47" stroke="#5E3FA0" stroke-width=".668" stroke-linecap="round" stroke-linejoin="round"/><path d="M317.135 130.276c-1.417 3.443-6.827 7.501-10.302 6.217-.546 3.771-1.282 7.01-2.29 9.196-3.094 6.928-9.853 11.287-14.787 13.678a13.524 13.524 0 0 1-11.706 0c-4.96-2.364-11.748-6.709-14.855-13.637-.995-2.213-1.758-5.438-2.33-9.237-3.49 1.284-8.9-2.774-10.303-6.217a6.854 6.854 0 0 1 3.734-8.95c.382-.15.804-.288 1.213-.37.286-.068.586-.095.872-.122a6.764 6.764 0 0 1 3.12.532c-.013-.573-.054-1.161-.08-1.721-.587-13.897 10.52-25.457 24.407-25.484 13.846 0 24.994 11.532 24.435 25.43-.027.587-.068 1.188-.081 1.775a6.39 6.39 0 0 1 2.085-.505 6.702 6.702 0 0 1 3.12.464.734.734 0 0 1 .178.096 6.844 6.844 0 0 1 3.57 8.855" fill="#FFCBA1"/><path d="M284.029 126.808c.515 1.058.624 2.264.568 3.39-.04 1.139-.256 2.22-.472 3.251-.21 1.04-.507 2.04-.48 2.788-.009.751.634 1.622 1.302 2.585a4.842 4.842 0 0 1-1.646-.63c-.51-.332-1.018-.851-1.262-1.537-.269-.671-.278-1.357-.244-1.956.044-.602.139-1.145.252-1.695.237-1.094.567-2.114.925-3.11l1.057-3.086z" fill="#0B334C"/><path d="M277.498 121.502c-.583-.025-1.247-.088-1.848-.085-.613-.004-1.21.003-1.793.093-.59.083-1.118.314-1.652.58-.538.271-.985.705-1.476 1.16l-.046.045a.448.448 0 0 1-.72-.502c.288-.7.68-1.424 1.304-1.954a5.233 5.233 0 0 1 2.11-1.212 6.206 6.206 0 0 1 2.368-.298c.795.073 1.524.224 2.28.611a.83.83 0 0 1-.41 1.567l-.117-.005zM289.663 119.94c.755-.387 1.485-.539 2.28-.61a6.203 6.203 0 0 1 2.368.297c.776.23 1.522.65 2.11 1.212.625.53 1.017 1.254 1.305 1.954a.451.451 0 0 1-.244.588.447.447 0 0 1-.476-.087l-.046-.043c-.492-.457-.938-.89-1.476-1.16-.534-.267-1.063-.498-1.652-.581-.584-.09-1.181-.097-1.793-.093-.601-.003-1.266.06-1.848.085l-.117.004a.828.828 0 0 1-.41-1.566" fill="#E74C3C"/><path d="M294.837 129.996c0 1.95-.981 3.531-2.19 3.531-1.21 0-2.19-1.581-2.19-3.53 0-1.95.98-3.53 2.19-3.53 1.209 0 2.19 1.58 2.19 3.53M277.231 129.996c0 1.95-.981 3.531-2.19 3.531-1.21 0-2.19-1.581-2.19-3.53 0-1.95.98-3.53 2.19-3.53 1.209 0 2.19 1.58 2.19 3.53" fill="#0B334C"/><path d="M284.818 141.041a1.47 1.47 0 0 0-1.336-1.856c-1.596-.083-4.261.24-7.694 2.35-2.938 1.807-5.192 2.29-6.613 2.363-.377.02-.471.533-.13.697 3.814 1.827 13.293 5.325 15.773-3.554" fill="#E74C3C"/><path d="M283.424 141.041a1.47 1.47 0 0 1 1.336-1.856c1.596-.083 4.261.24 7.694 2.35 2.939 1.807 5.193 2.29 6.613 2.363.377.02.471.533.13.697-3.814 1.827-13.292 5.325-15.773-3.554M309.177 98.15c-11.25-12.12-42.752-8.198-49.92.342-4.715 5.644-3.939 15.974-2.876 22.342a6.764 6.764 0 0 1 3.121.533l-.001-.026c1.485 1.157 3.558 3.022 4.192 4.822 1.022 2.904 1.703-11.615 5.962-14.177 0 0 8.518 5.637 14.48 4.953 5.962-.683 15.502-5.124 15.502-5.124s4.089 8.37 4.089 13.665c0 0 2.672-2.728 4.577-4.154a6.464 6.464 0 0 1 1.964-.465c2.59-5.466 5.342-15.78-1.09-22.71" fill="#E74C3C"/><path d="M260.865 136.493s-3.816 10.68-.75 16.657c3.067 5.979 16.354 16.398 28.279 14.177 11.924-2.22 19.59-10.59 19.59-15.03 0-4.442-1.151-15.804-1.151-15.804l-3.244 6.011a19.564 19.564 0 0 1-10.191 8.972l-.394.156a23.406 23.406 0 0 1-16.972.077 19.558 19.558 0 0 1-11.15-8.602l-4.017-6.614z" fill="#E74C3C"/></g><g><path d="M189.448 215.256c0 16.313-13.306 29.537-29.72 29.537s-29.72-13.224-29.72-29.537 13.306-29.537 29.72-29.537 29.72 13.224 29.72 29.537" fill="#E76D83"/><path d="M149.368 214.128c-.02 1.841.006 3.513-.07 5.18-.086 1.852-.857 2.624-2.727 2.672-2.244.057-4.491.038-6.735-.006-1.595-.03-2.5-.913-2.58-2.485-.075-1.5-.104-3.014-.005-4.514.152-2.333 1.84-3.809 3.63-4.723 11.847-6.047 23.955-6.626 36.124-1.004 4.446 2.054 6.217 6.578 4.77 11.11-.362 1.135-1.217 1.745-2.394 1.758-2.355.027-4.714.03-7.068-.055-1.505-.054-2.428-1.066-2.487-2.62a64.072 64.072 0 0 1-.003-4.35c.026-.86-.251-1.29-1.156-1.494-6.434-1.445-12.806-1.144-19.299.531M206.416 136.223l-3.96-14.682V100.72c0-.627-.51-1.136-1.142-1.136h-91.446a1.14 1.14 0 0 0-1.144 1.136v30.9a1.14 1.14 0 0 0 1.144 1.137h79.32l16.338 4.35a.724.724 0 0 0 .89-.884" fill="#FFF"/><path d="M206.416 136.223l-3.96-14.682V100.72c0-.627-.51-1.136-1.142-1.136h-91.446a1.14 1.14 0 0 0-1.144 1.136v30.9a1.14 1.14 0 0 0 1.144 1.137h79.32l16.338 4.35a.724.724 0 0 0 .89-.884z" stroke="#000"/><path fill="#000" d="M117.183 111.172h74.528v-3.863h-74.528zM117.184 120.487h22.861v-3.862h-22.861z"/><path d="M717.92 232.672c0 18.418-15.023 33.35-33.556 33.35-18.533 0-33.559-14.932-33.559-33.35 0-18.419 15.026-33.35 33.56-33.35 18.532 0 33.555 14.931 33.555 33.35" fill="#F4B42E"/><path d="M684.364 236.249c-3.538 0-6.405-2.85-6.405-6.364v-11.223c0-3.514 2.867-6.364 6.405-6.364 3.536 0 6.403 2.85 6.403 6.364v11.223c0 3.514-2.867 6.364-6.403 6.364" fill="#FFF"/><path d="M684.364 243.78c-7.773 0-14.097-6.283-14.097-14.008v-1.732c0-.832.678-1.507 1.517-1.507a1.51 1.51 0 0 1 1.516 1.507v1.732c0 6.063 4.963 10.995 11.064 10.995 6.1 0 11.064-4.932 11.064-10.995v-1.732a1.51 1.51 0 0 1 1.515-1.507 1.51 1.51 0 0 1 1.516 1.507v1.732c0 7.725-6.323 14.008-14.095 14.008" fill="#FFF"/><path d="M684.364 251.688a1.51 1.51 0 0 1-1.516-1.506v-7.607a1.51 1.51 0 0 1 1.516-1.506 1.51 1.51 0 0 1 1.514 1.506v7.607a1.51 1.51 0 0 1-1.514 1.506" fill="#FFF"/><path d="M695.578 253.044h-22.43a1.51 1.51 0 0 1-1.516-1.506 1.51 1.51 0 0 1 1.516-1.506h22.43a1.51 1.51 0 0 1 1.516 1.506 1.51 1.51 0 0 1-1.516 1.506" fill="#FFF"/></g></g></svg>