<svg width="640" height="913" xmlns="http://www.w3.org/2000/svg" xmlns:xlink="http://www.w3.org/1999/xlink"><defs><path d="M2.808 1.492c0 53.275 34.047 111.284 108.779 112.943v2.176C35.37 114.944.65 55.804.65 1.492v-.001h2.157" id="a"/><path d="M2.788 1.493c0 50.412 32.177 105.298 102.798 106.956v2.177C33.482 108.959.633 52.942.633 1.493v-.001h2.155" id="c"/><path d="M2.827 1.491c0 56.138 35.914 117.27 114.76 118.929v2.175C37.261 120.925.67 58.666.67 1.49V1.49h2.157" id="e"/><path d="M2.77 1.494c0 47.55 30.307 99.312 96.816 100.97v2.178C31.595 102.978.614 50.082.614 1.494v-.001H2.77" id="g"/><path d="M2.845 1.489c0 59.003 37.785 123.256 120.742 124.919v2.167c-.007 0-.013.005-.02.005-37.986-.756-69.853-14.817-92.157-40.66C11.6 64.97.69 34.272.69 1.49V1.49" id="i"/><path d="M2.752 1.496c0 44.685 28.437 93.326 90.834 94.98v2.181C29.705 96.994.594 47.22.594 1.496v-.002h2.158" id="k"/></defs><g fill="none" fill-rule="evenodd"><path d="M25.815 407.8a101.928 101.928 0 0 1 20.911-19.912c32.335-23.017 74.01-26.655 114.313-30.174l6.922-.61c38.569-3.435 77.264-9.84 99.06-33.255 8.585-9.221 14.363-20.63 17.667-34.874 6.102-26.31 2.12-57.327-1.406-78.369-.765-4.567-1.567-9.162-2.374-13.772-6.152-35.217-12.514-71.639-4.598-105.77v-.002c1.487-6.413 3.465-12.617 5.882-18.444 3.69-8.904 8.667-17.343 14.79-25.086 20.345-25.713 51.99-42.313 86.825-45.543 16.869-1.566 36.056.358 57.027 5.712 25.882 6.612 55.003 18.502 89.028 36.35C550.456 54.854 813.58 208.75 834.564 236.462c14.493 19.145 22.869 39.533 24.894 60.598 1.29 13.405.367 27.002-2.742 40.41-8.835 38.093-33.307 67.433-52.28 85.337-16.71 15.769-35.72 29.552-54.101 42.883-33.927 24.601-65.974 47.838-83.118 81.728-4.675 9.241-8.229 19.256-10.864 30.617-5.796 25.003-5.925 51.962-5.283 75.038.122 4.417.276 8.842.441 13.271l.289 7.495c1.255 32.282 2.553 65.663-3.996 97.836a185.68 185.68 0 0 1-1.022 4.69c-6.38 27.513-18.767 51.336-35.82 68.893-10.249 10.552-22.117 18.773-35.275 24.431-29.123 12.531-66.23 13.112-104.49 1.632-17.489-5.248-35.201-12.857-54.146-23.26-11.87-6.52-258.636-149.483-272.679-158.935-43.268-29.128-75.779-58.132-99.392-88.67-11.721-15.163-21.321-30.894-28.535-46.758-14.788-32.532-19.06-69.34-11.722-100.986 3.96-17.07 11.056-32.181 21.092-44.912z" stroke="#21374D" stroke-width="2"/><path d="M65.814 409.082a92.623 92.623 0 0 1 19.033-18.108c29.434-20.929 67.384-24.216 104.085-27.394l6.303-.551c35.122-3.105 70.357-8.912 90.193-30.208 7.814-8.386 13.069-18.765 16.07-31.726 5.541-23.939 1.898-52.167-1.325-71.318-.7-4.156-1.433-8.338-2.17-12.534-5.623-32.051-11.437-65.2-4.248-96.257 1.351-5.835 3.149-11.48 5.346-16.782 3.355-8.1 7.883-15.777 13.456-22.82 18.512-23.388 47.321-38.477 79.042-41.396 15.362-1.415 32.836.346 51.937 5.23 23.574 6.033 50.101 16.87 81.097 33.13 18.761 9.844 258.47 150.041 277.595 175.272 13.21 17.43 20.849 35.989 22.705 55.16 1.183 12.2.35 24.572-2.474 36.772-8.024 34.66-30.293 61.347-47.563 77.629-15.208 14.34-32.512 26.873-49.244 38.993-30.882 22.37-60.053 43.497-75.647 74.328-4.252 8.407-7.482 17.518-9.875 27.856-5.265 22.75-5.367 47.283-4.77 68.283.114 4.02.257 8.047.41 12.078l.267 6.82c1.162 29.378 2.362 59.756-3.584 89.031a168.742 168.742 0 0 1-.927 4.266c-5.795 25.035-17.062 46.708-32.582 62.675-9.327 9.597-20.13 17.072-32.11 22.213-26.514 11.387-60.307 11.895-95.156 1.425-15.93-4.785-32.064-11.72-49.323-21.197-10.813-5.94-235.619-136.18-248.413-144.79-39.42-26.532-69.043-52.944-90.565-80.748-10.682-13.805-19.434-28.126-26.012-42.567-13.486-29.613-17.398-63.112-10.732-91.906 3.595-15.532 10.049-29.28 19.181-40.859z" fill="#7547D8"/><g transform="matrix(0 1 1 0 491.947 800.8)"><mask id="b" fill="#fff"><use xlink:href="#a"/></mask><path d="M2.808 1.492v-.001H.651v.001c0 54.312 34.72 113.452 110.936 115.119v-2.176C36.855 112.775 2.808 54.767 2.808 1.492" fill="#21374D" mask="url(#b)"/></g><g transform="matrix(0 1 1 0 491.947 806.8)"><mask id="d" fill="#fff"><use xlink:href="#c"/></mask><path d="M2.788 1.493v-.001H.633v.001c0 51.45 32.849 107.466 104.953 109.133v-2.177C34.965 106.79 2.788 51.905 2.788 1.493" fill="#21374D" mask="url(#d)"/></g><g transform="matrix(0 1 1 0 491.947 794.8)"><mask id="f" fill="#fff"><use xlink:href="#e"/></mask><path d="M2.827 1.491V1.49H.67v.001c0 57.175 36.59 119.435 116.917 121.104v-2.175C38.741 118.76 2.827 57.63 2.827 1.491" fill="#21374D" mask="url(#f)"/></g><g transform="matrix(0 1 1 0 491.947 812.8)"><mask id="h" fill="#fff"><use xlink:href="#g"/></mask><path d="M2.77 1.494v-.001H.615v.001c0 48.588 30.98 101.484 98.972 103.148v-2.179C33.076 100.806 2.771 49.044 2.771 1.494" fill="#21374D" mask="url(#h)"/></g><g transform="matrix(0 1 1 0 491.947 788.8)"><mask id="j" fill="#fff"><use xlink:href="#i"/></mask><path d="M2.845 1.489H.69v.001c0 32.782 10.91 63.48 30.719 86.43 22.304 25.843 54.171 39.904 92.158 40.66.006 0 .012-.005.02-.005v-2.167C40.63 124.745 2.844 60.492 2.844 1.488" fill="#21374D" mask="url(#j)"/></g><g transform="matrix(0 1 1 0 491.947 818.8)"><mask id="l" fill="#fff"><use xlink:href="#k"/></mask><path d="M2.752 1.496v-.002H.594v.002c0 45.724 29.11 95.498 92.992 97.161v-2.18C31.189 94.821 2.752 46.18 2.752 1.495" fill="#21374D" mask="url(#l)"/></g></g></svg>