<svg width="25" height="24" xmlns="http://www.w3.org/2000/svg"><g stroke="#9A9DAB" stroke-width="1.5" fill="none" fill-rule="evenodd" stroke-linecap="round" stroke-linejoin="round"><path d="M20.848 18.364l-8.607-6.51-1.258-3.611 3.817.227 8.606 6.51a2.115 2.115 0 0 1 .411 2.963l-.008.01a2.114 2.114 0 0 1-2.961.411z"/><path d="M16.746 6.042v-3a1.5 1.5 0 0 0-1.5-1.5h-12a1.5 1.5 0 0 0-1.5 1.5v15a1.5 1.5 0 0 0 1.5 1.5h7l3.5 3v-3h1.5a1.5 1.5 0 0 0 1.342-.829M4.746 4.542h4.5M6.996 4.542v4.5M4.746 12.792h3.75M4.746 15.792h6"/></g></svg>