<svg width="653" height="731" xmlns="http://www.w3.org/2000/svg" xmlns:xlink="http://www.w3.org/1999/xlink"><defs><path d="M2.173.006c0 35.062 22.596 73.238 72.199 74.331v1.432C23.786 74.672.741 35.75.741.006" id="a"/><path d="M2.16.006c0 33.154 21.35 69.251 68.212 70.341v1.431C22.526 70.683.728 33.843.728.006" id="c"/><path d="M2.185.006c0 36.969 23.843 77.226 76.187 78.32v1.432C25.045 78.659.754 37.658.754.006" id="e"/><path d="M2.146.006c0 31.247 20.105 65.263 64.226 66.351v1.432C21.267 66.695.716 31.936.716.006" id="g"/><path d="M2.198.006c0 38.877 25.089 81.215 80.174 82.309v1.43l-.015.002c-25.223-.498-46.382-9.762-61.192-26.791C8.011 41.834.767 21.605.767.006" id="i"/><path d="M2.133.006c0 29.34 18.859 61.275 60.239 62.362V63.8C20.008 62.707.703 30.027.703.006" id="k"/></defs><g fill="none" fill-rule="evenodd"><path d="M-24 726.515c16.475 6.947 33.2 3.508 50.176-10.316 56.198-59.108 62.295-190.84 134.83-190.84 44.251 0 146.469 138.245 268.496 78.614 122.027-59.63 121.065-147.282 185.826-300.624 29.72-69.604 69.385-148.835-9.788-217.257s-157.473-71.803-343.35 26.832C138.54 186.734 43.145 134.426-24-44v770.515z" stroke="#21374D" stroke-width="2"/><path d="M-37 690.515c16.475 6.947 33.2 3.508 50.176-10.316 56.198-59.108 62.295-190.84 134.83-190.84 44.251 0 146.469 138.245 268.496 78.614 122.027-59.63 121.065-147.282 185.826-300.624 29.72-69.604 69.385-148.835-9.788-217.257S435.067-21.711 249.19 76.924C125.54 150.734 30.145 98.426-37-80v770.515z" fill="#1CB7C8"/><g transform="matrix(-1 0 0 1 106 22)"><mask id="b" fill="#fff"><use xlink:href="#a"/></mask><path d="M2.173.006H.741c0 35.744 23.045 74.666 73.631 75.763v-1.432C24.769 73.244 2.173 35.068 2.173.006" fill="#21374D" mask="url(#b)"/></g><g transform="matrix(-1 0 0 1 102 22)"><mask id="d" fill="#fff"><use xlink:href="#c"/></mask><path d="M2.16.006H.728c0 33.837 21.798 70.677 69.644 71.772v-1.431C23.51 69.257 2.16 33.16 2.16.006" fill="#21374D" mask="url(#d)"/></g><g transform="matrix(-1 0 0 1 110 22)"><mask id="f" fill="#fff"><use xlink:href="#e"/></mask><path d="M2.185.006H.754c0 37.652 24.291 78.653 77.618 79.752v-1.432C26.028 77.232 2.185 36.975 2.185.006" fill="#21374D" mask="url(#f)"/></g><g transform="matrix(-1 0 0 1 98 22)"><mask id="h" fill="#fff"><use xlink:href="#g"/></mask><path d="M2.146.006H.716c0 31.93 20.551 66.689 65.656 67.783v-1.432C22.251 65.269 2.146 31.253 2.146.006" fill="#21374D" mask="url(#h)"/></g><g transform="matrix(-1 0 0 1 114 22)"><mask id="j" fill="#fff"><use xlink:href="#i"/></mask><path d="M2.198.006H.767c0 21.599 7.244 41.828 20.398 56.95 14.81 17.029 35.969 26.293 61.192 26.791l.015-.002v-1.43C27.287 81.221 2.198 38.883 2.198.006" fill="#21374D" mask="url(#j)"/></g><g transform="matrix(-1 0 0 1 94 22)"><mask id="l" fill="#fff"><use xlink:href="#k"/></mask><path d="M2.133.006H.703c0 30.021 19.305 62.701 61.669 63.794v-1.432C20.992 61.281 2.133 29.346 2.133.006" fill="#21374D" mask="url(#l)"/></g></g></svg>