<svg width="163" height="150" xmlns="http://www.w3.org/2000/svg"><path d="M34.144.601C41.457-.103 48.97 2.007 55.87 6.703c3.643 2.48 6.991 5.579 9.954 9.21 3.97 4.867 6.939 10.055 9.809 15.07 1.703 2.977 3.312 5.788 5.06 8.417 5.633 8.472 13.638 15.727 23.148 20.981a72.582 72.582 0 0 0 8.649 4.059c3.214 1.258 7.458 1.999 11.951 2.784 10.22 1.783 22.939 4.005 30.942 14.468 2.798 3.658 4.756 7.529 5.822 11.506 1.235 4.61 1.278 9.325.125 14.01-2 8.12-7.47 15.801-16.263 22.83-8.489 6.787-17.885 11.247-24.272 13.794-8.363 3.335-16.428 5.331-22.708 5.626-6.912.323-13.94-.279-20.891-1.788-21.925-4.762-42.758-18.568-57.157-37.879a102.044 102.044 0 0 1-3.973-5.722c-5.813-9.021-10.13-18.702-12.829-28.776C.381 64.63-.517 54.025.566 43.768c.4-3.768 1.075-7.5 2.005-11.096 2.092-8.083 5.992-15.591 10.981-21.14 5.763-6.41 12.884-10.19 20.592-10.93zm60.813 33.935c-7.988-13.626 10.681-23.542 16.487-19.703 14.789 4.923 29.473 30.171 16.64 37.208-12.071 4.124-25.004-5.67-33.127-17.505z" fill="#0E8997" fill-rule="evenodd"/></svg>