<svg id="Layer_1" data-name="Layer 1" xmlns="http://www.w3.org/2000/svg" viewBox="0 0 293 197"><defs><style>.cls-1{fill:#fff}.cls-1,.cls-10,.cls-11,.cls-12,.cls-13,.cls-14,.cls-3,.cls-4,.cls-5,.cls-8,.cls-9{fill-rule:evenodd}.cls-3{fill:#9e5125}.cls-4{fill:#522a14}.cls-5{fill:#633318}.cls-8{fill:#2c3e50}.cls-9{fill:#ffea63}.cls-10{fill:#fc0}.cls-11{fill:#ffb301}.cls-12{fill:#ff9501}.cls-13{fill:#ff6701}.cls-14{fill:#13816d}</style><mask id="mask" x="238.41" y=".22" width="17.65" height="38.39" maskUnits="userSpaceOnUse"><g id="mask-8"><path id="path-7" class="cls-1" d="M238.41.22h17.64V38.6h-17.64V.22z"/></g></mask><mask id="mask-2" x="32.78" y=".22" width="18.45" height="38.39" maskUnits="userSpaceOnUse"><g id="mask-10"><path id="path-9" class="cls-1" d="M32.78.22h18.45V38.6H32.78V.22z"/></g></mask></defs><path id="Fill-9" fill="#fed269" fill-rule="evenodd" d="M117.2 173.51l-3.83 17.38-5.43-2.44 8.03-14.91 1.23-.03z"/><path id="Fill-29" class="cls-3" d="M185 155.29q-36-.76-72.05.06l4-7.07q2.53-4.5 5.11-9 27.26-.85 54.53-.42 4.25 8.25 8.42 16.45"/><path id="Fill-31" class="cls-4" d="M166.91 143.6c-.09 4.63-12 8.3-26.73 8.48-10 .12-18.67-1.4-23.25-3.8q2.53-4.5 5.11-9 20-.63 40-.56c3.09 1.38 4.89 3.08 4.86 4.9"/><path id="Fill-33" class="cls-3" d="M113.49 184.76q2.76-7.89 5.55-15.85 29.52-.43 59-.2l6 16q-35.28-.07-70.59.06"/><path id="Fill-35" class="cls-5" d="M183.93 189.68h-70.35l-.09-4.92q35.3-.15 70.59-.06l-.15 5"/><path id="Fill-37" class="cls-1" d="M113.49 184.76c5.88-.11 11.77-.17 17.65-.22s11.76 0 17.65-.08h17.65l8.82.06 8.82.09h.09v.08l-.23 5 .08-5 .07.08-8.82.11-8.82.07H148.8c-5.89 0-11.77 0-17.65-.06s-11.77-.09-17.65-.19"/><path id="Fill-39" class="cls-5" d="M184.85 159.94q-35.88-.52-71.82.33l-.09-4.91q36-1 72.06-.4l-.15 5"/><path id="Fill-41" class="cls-1" d="M112.94 155.36c3-.15 6-.25 9-.36l9-.25c3-.08 6-.13 9-.17l9-.1h18l9 .14c3 .06 6 .13 9 .23h.08v.15l-.23 5 .07-5 .08.08h-36l-18 .13z"/><path id="Fill-43" class="cls-4" d="M180.86 182.67q-32.06-.1-64.12.07-.18-11.28-.37-22.54 32.57-.72 65.14-.31-.33 11.38-.65 22.78"/><path id="Fill-45" class="cls-4" d="M181.44 162.37q-32.49-.37-65 .28v-2.45q32.57-.72 65.14-.31c0 .83 0 1.66-.07 2.48"/><path id="Fill-47" class="cls-4" d="M165.69 165.71q-17.1 0-34.21.14c-.91 0-1.61 5.73-1.61 6.65v4.42a1.64 1.64 0 0 0 1.65 1.65q17-.09 33.9-.06a1.7 1.7 0 0 0 1.67-1.67l.09-4.45c0-.92-.62-6.67-1.53-6.68"/><path id="Fill-49" d="M166.7 164.33q-17.12-.08-34.24.12a1.68 1.68 0 0 0-1.65 1.68l.06 9.4a1.65 1.65 0 0 0 1.66 1.65q17-.09 33.93-.06a1.69 1.69 0 0 0 1.67-1.67q.1-4.72.19-9.45a1.62 1.62 0 0 0-1.62-1.67" fill="#f1c40f" fill-rule="evenodd"/><path id="Fill-51" class="cls-1" d="M168.13 175.45v-7.25-1.69a5.77 5.77 0 0 0 0-.85 1.46 1.46 0 0 0-.38-.7 1.37 1.37 0 0 0-.7-.4 4.59 4.59 0 0 0-.92 0h-2l-8.5.07h-15.92c-2.17 0-4-.07-5.24-.09l-2-.05 2-.06c1.26 0 3.07-.09 5.24-.12s4.7-.09 7.42-.11l8.49-.07h11a2.46 2.46 0 0 1 .53.06 1.85 1.85 0 0 1 .9.54 1.92 1.92 0 0 1 .46.91 4.86 4.86 0 0 1 0 .93c0 .58 0 1.15-.06 1.69-.08 2.17-.15 4-.2 5.24s-.1 2-.1 2"/><path id="Fill-53" d="M133.34 174.69q16.17-.12 32.34-.08c0-2.59.09-5.19.14-7.78q-16.26-.06-32.52.11v7.75m33.13 1.59q-17 0-33.95.07a.83.83 0 0 1-.83-.82c0-3.14 0-6.27-.05-9.41a.84.84 0 0 1 .82-.84q17.11-.18 34.22-.12a.81.81 0 0 1 .81.84l-.18 9.45a.84.84 0 0 1-.84.83" fill="#e67e22" fill-rule="evenodd"/><path id="Fill-55" class="cls-8" d="M165.38 170.72a1 1 0 0 1-.95.94.92.92 0 0 1-.91-.94 1 1 0 0 1 .95-.94.91.91 0 0 1 .91.94"/><path id="Fill-57" class="cls-8" d="M133.69 170.81a.93.93 0 0 0 .93.93 1 1 0 0 0 .93-1 .93.93 0 1 0-1.86 0"/><path id="Fill-59" class="cls-1" d="M155.17 164.31q-11.35 0-22.71.14a1.68 1.68 0 0 0-1.65 1.68l.06 9.4a1.65 1.65 0 0 0 1.66 1.65h9.8l12.84-12.83"/><path id="Fill-61" class="cls-1" d="M167.46 164.53a1.65 1.65 0 0 0-.76-.2h-2.8l-12.8 12.8h3.77z"/><path id="Fill-63" class="cls-9" d="M169.62 75l.07-4.07c11.25.23 20.4-2.57 27.27-8.52 11.83-10.15 14-27.08 14.41-32.86q-6.33-.84-12.71-1.47c-1.38 3.13-5.28 10-12.92 9.56l.12-4.06c6.17.39 9.12-8.28 9.15-8.37l.48-1.48q10.22.94 20.33 2.44v1.92c0 1.11-.24 24.1-15.85 37.35-7.72 6.66-17.91 9.81-30.34 9.56"/><path id="Fill-65" class="cls-1" d="M169.57 77.24c0-1.36.05-2.72.08-4.08 11.23.23 20.37-2.58 27.23-8.54 11.81-10.17 14-27.1 14.39-32.88q-6.33-.82-12.7-1.45c-1.37 3.13-5.27 10-12.9 9.57l.12-4.06c6.17.39 9.11-8.28 9.14-8.37l.48-1.49q10.22.94 20.3 2.41v1.92c0 1.11-.24 24.1-15.82 37.37-7.72 6.68-17.89 9.84-30.31 9.6"/><path id="Fill-67" class="cls-10" d="M169.55 78.14c0-1.36.06-2.72.08-4.07 11.22.22 20.36-2.59 27.21-8.56 11.82-10.17 14-27.1 14.39-32.88q-6.31-.83-12.69-1.44c-1.37 3.13-5.27 10-12.89 9.57l.12-4c6.16.38 9.1-8.29 9.13-8.39l.48-1.48q10.2.93 20.29 2.39v1.93c0 1.1-.24 24.1-15.82 37.38-7.71 6.68-17.87 9.84-30.29 9.6"/><path id="Fill-69" class="cls-9" d="M127.28 75.77c-12.44.72-22.6-2-30.25-8.27-15.46-12.35-15.42-34.89-15.43-36v-1.86q10.13-2 20.37-3.46l.45 1.44c0 .08 2.82 8.5 9.07 7.8 0 1.33 0 2.67.07 4-7.65.84-11.48-5.78-12.82-8.79-4.24.64-8.49 1.37-12.74 2.1.34 5.65 2.32 22.18 14 31.66 6.8 5.6 15.93 8 27.18 7.34v4"/><path id="Fill-71" class="cls-1" d="M127.3 78c-12.42.71-22.57-2-30.21-8.32-15.44-12.39-15.41-34.93-15.41-36V31.8q10.11-2 20.34-3.41l.46 1.44c0 .08 2.81 8.51 9.05 7.81 0 1.34 0 2.68.07 4-7.64.84-11.46-5.79-12.8-8.81q-6.37.93-12.71 2.07c.35 5.65 2.32 22.18 14 31.69 6.79 5.61 15.9 8 27.14 7.38v4"/><path id="Fill-73" class="cls-11" d="M127.31 78.92c-12.42.7-22.56-2-30.19-8.34-15.43-12.41-15.4-34.95-15.41-36v-1.92q10.11-1.95 20.33-3.39c.15.48.31 1 .46 1.44 0 .09 2.81 8.52 9 7.83 0 1.33 0 2.67.08 4-7.64.83-11.46-5.8-12.79-8.82q-6.39.93-12.71 2.06c.35 5.65 2.32 22.19 14 31.7 6.79 5.62 15.9 8 27.12 7.4v4"/><path id="Fill-75" class="cls-10" d="M166.89 144.66c-.06 3.27-8.5 5.86-18.86 5.94s-18.78-2.4-18.8-5.65 8.42-6.12 18.86-6.21 18.86 2.65 18.8 5.92"/><path id="Fill-77" class="cls-11" d="M140.11 139.39c-6.45 1-10.9 3.2-10.88 5.56s4.47 4.31 10.88 5.17z"/><path id="Fill-79" class="cls-10" d="M167 137.91q-18.9-.15-37.83.34v6.7q18.83-.42 37.66-.29l.12-6.75"/><path id="Fill-81" class="cls-11" d="M140.11 138c-3.64.06-7.29.13-10.93.23v6.7c3.63-.08 7.25-.15 10.88-.2V138"/><path id="Fill-83" class="cls-12" d="M167 137.91c-.06 3.27-8.54 5.85-18.94 5.94s-18.87-2.35-18.89-5.6 8.46-6.16 18.95-6.26 19 2.65 18.88 5.92"/><path id="Fill-85" class="cls-13" d="M141 143.49c.4-.69.79-1.38 1.14-2.09a45 45 0 0 0 1.8-6.27 12 12 0 0 1 1.08-3c-9 .59-15.81 3.22-15.79 6.14 0 2.47 4.89 4.45 11.77 5.24"/><path id="Fill-87" class="cls-1" d="M167 137.91a2.27 2.27 0 0 1 0 .46 2.66 2.66 0 0 1-.62 1.19 10 10 0 0 1-4.06 2.5 32.85 32.85 0 0 1-6.54 1.64c-1.22.18-2.49.34-3.78.43s-2.6.16-3.91.17-2.62 0-3.91-.1-2.55-.21-3.77-.38a32.08 32.08 0 0 1-6.52-1.53 9.61 9.61 0 0 1-4-2.42 2.57 2.57 0 0 1-.6-1.16 2.27 2.27 0 0 1 0-.46 2.48 2.48 0 0 0 .09.45 2.62 2.62 0 0 0 .68 1.05 6.24 6.24 0 0 0 1.64 1.12 16.89 16.89 0 0 0 2.44.93 37.08 37.08 0 0 0 6.36 1.2c1.2.14 2.44.22 3.71.29s2.56.09 3.86.08 2.58-.05 3.85-.14 2.52-.19 3.72-.35a37.41 37.41 0 0 0 6.48-1.34 16.87 16.87 0 0 0 2.45-1 6.17 6.17 0 0 0 1.65-1.15 2.73 2.73 0 0 0 .7-1.08 2.32 2.32 0 0 0 .09-.45"/><path id="Fill-89" class="cls-12" d="M166.86 136.36q-18.75-.17-37.51.34c4.72-.14 14-.45 15.55-24.77.13-2.09.21-4.35.22-6.8q3.16-.06 6.33-.09c0 2.45 0 4.71.14 6.8 1.25 24.33 10.55 24.46 15.27 24.52"/><path id="Fill-91" class="cls-13" d="M151.59 111.84a19.12 19.12 0 0 1-6.69.09c.13-2.09.21-4.35.22-6.8q3.16-.06 6.33-.09c0 2.45 0 4.71.14 6.8"/><path id="Fill-93" class="cls-13" d="M146.19 123.32q.93-9.09 1-18.22h-2c-.11 30.93-10.55 31.42-15.69 31.57q7.06-.18 14.13-.28a91 91 0 0 0 2.63-13.1"/><path id="Fill-95" class="cls-11" d="M167.05 70.77l-.39 21.58a16.88 16.88 0 0 1-1 5.52 18.69 18.69 0 0 1-17.39 12A17.83 17.83 0 0 1 131 98.4a16.4 16.4 0 0 1-1-5.46q0-10.72-.1-21.44 18.56-1 37.15-.73"/><path id="Fill-97" class="cls-12" d="M150.73 107.74a15.16 15.16 0 0 1-15.48-14.54c-.4-8 7.46-15.2 15.69-15.31a15.21 15.21 0 0 1 15.47 14.93c.23 8.05-7.62 14.82-15.68 14.92M129.9 71.5q.06 10.73.14 21.44a16.4 16.4 0 0 0 1 5.46 17.84 17.84 0 0 0 17.25 11.51 18.69 18.69 0 0 0 17.39-12 16.88 16.88 0 0 0 1-5.52l.39-21.58q-18.57-.28-37.15.73"/><path id="Fill-99" class="cls-12" d="M167.05 70.77l-.39 21.58a16.88 16.88 0 0 1-1 5.52 38.79 38.79 0 0 1-17.34 4.34A37.84 37.84 0 0 1 131 98.4a16.4 16.4 0 0 1-1-5.46q0-10.72-.1-21.44 18.56-1 37.15-.73"/><path id="Fill-101" class="cls-10" d="M148.32 99c-19.71.24-35.92-13.68-36.25-32.26q-.39-20.74-.76-41.5a403 403 0 0 1 74.85-2l-1.23 42C184.39 84.1 168 98.68 148.32 99"/><path id="Fill-103" class="cls-11" d="M175.93 86.42c-4.87 4.81-12 6.85-18.8 7.16-6.57.29-14.07-2.85-18.65-7.06a24.48 24.48 0 0 1-7.87-17.46q-.15-22.8-.29-45.6-9.52.69-19 1.82l.76 41.5c.33 18.58 16.54 32.5 36.25 32.26 13.76-.22 25.84-7.46 32.09-18.14a30.7 30.7 0 0 1-4.48 5.52"/><path id="Fill-105" class="cls-11" d="M185.48 23.25q-.66 22.83-1.31 45.66a22.61 22.61 0 0 1-.93 5.8 32.17 32.17 0 0 0 1.69-9.41l1.23-42h-.68"/><path id="Fill-107" class="cls-10" d="M148.7 30.58a228.93 228.93 0 0 1-24.36-.58c-8.13-.78-13-2.39-13-4.68s4.77-5.14 12.91-7.36a112.82 112.82 0 0 1 24.57-3.41 109.13 109.13 0 0 1 24.54 2.06c8.12 1.79 12.89 4.43 12.83 6.72s-4.95 4.2-13.09 5.41a228.41 228.41 0 0 1-24.37 1.88"/><path id="Fill-109" class="cls-11" d="M148.68 34.21a228.12 228.12 0 0 1-24.3-.66c-8.11-.8-13-2.42-13-4.7s4.76-5.13 12.89-7.34a113 113 0 0 1 24.51-3.38 109.2 109.2 0 0 1 24.48 2.06c8.1 1.78 12.87 4.42 12.8 6.71s-4.94 4.2-13.05 5.42a228.33 228.33 0 0 1-24.32 1.89"/><path id="Fill-111" class="cls-10" d="M148.69 32.39c-13.6.07-39.22.59-39.35-6.87-.17-7.81 25.69-12.75 39.46-12.83 13.77-.7 39.58 2.83 39.32 10.74-.21 7.55-25.83 8.33-39.43 9"/><path id="Fill-113" class="cls-9" d="M148.71 29.22c-13.63.07-39.3.64-39.43-6.81-.17-7.82 25.74-12.8 39.54-12.89 13.8-.71 39.66 2.84 39.4 10.76-.21 7.54-25.89 8.3-39.51 8.94"/><path id="Fill-115" class="cls-1" d="M188.22 20.28v.49a1.11 1.11 0 0 1-.06.38 4.22 4.22 0 0 1-1.36 2.1 12.11 12.11 0 0 1-3.52 2.07 33.6 33.6 0 0 1-5.18 1.59c-2 .46-4.09.84-6.37 1.17s-4.69.62-7.2.86-5.1.45-7.75.6-5.33.28-8 .36-5.38.08-8 .06-5.24-.1-7.75-.21-4.92-.26-7.19-.47-4.42-.48-6.36-.84a31.51 31.51 0 0 1-5.16-1.3 11.37 11.37 0 0 1-3.5-1.86 3.8 3.8 0 0 1-1.33-2 1 1 0 0 1-.07-.37v-.27-.22a1.73 1.73 0 0 1 0 .22c0 .07 0 .15.05.26a1 1 0 0 0 .09.35 3.9 3.9 0 0 0 1.46 1.83 11 11 0 0 0 3.53 1.59 37.51 37.51 0 0 0 5.15 1 131.2 131.2 0 0 0 13.46.88c2.49.07 5.07.07 7.69.08s5.29 0 8-.1 5.33-.17 8-.31 5.2-.28 7.69-.48a130.75 130.75 0 0 0 13.48-1.6 38.9 38.9 0 0 0 5.17-1.3 12.13 12.13 0 0 0 3.54-1.79 4.32 4.32 0 0 0 1.27-1.92 1.52 1.52 0 0 0 .1-.36c0-.11 0-.2.05-.27a1.73 1.73 0 0 1 0-.22"/><path id="Fill-117" class="cls-12" d="M148.72 26.05c-22.59.64-36.44-1.45-36.49-4.45 0-2.83 13.77-9.09 36.57-9.81 22.8-.57 36.56 5 36.48 7.83-.09 3-14 5.88-36.56 6.43"/><path id="Fill-119" class="cls-13" d="M165.05 12.46c.09.8.15 1.59.17 2.39a21.58 21.58 0 0 1-2.73 10.51c14.33-1.11 22.72-3.41 22.79-5.74.06-2.14-7.31-5.59-20.23-7.16"/><path id="Fill-121" class="cls-1" d="M112.23 21.6a1.47 1.47 0 0 1 .24-.77 6 6 0 0 1 1.79-1.68 33.79 33.79 0 0 1 8.12-3.63 81.83 81.83 0 0 1 12.21-2.87 117.7 117.7 0 0 1 14.22-1.31 114.1 114.1 0 0 1 14.21.51A77 77 0 0 1 175.19 14a31.07 31.07 0 0 1 8.09 3.22 5.26 5.26 0 0 1 1.77 1.6 1.46 1.46 0 0 1 .23.76 1.44 1.44 0 0 0-.28-.74 5.46 5.46 0 0 0-1.82-1.48 22.42 22.42 0 0 0-3.43-1.51c-1.37-.48-3-.93-4.7-1.36a83.91 83.91 0 0 0-12.13-1.9 114.91 114.91 0 0 0-14.12-.39 118.57 118.57 0 0 0-14.13 1.18c-2.24.34-4.41.71-6.45 1.14s-4 .92-5.7 1.43-3.34 1.06-4.72 1.62a23.56 23.56 0 0 0-3.44 1.68 6.2 6.2 0 0 0-1.85 1.56 1.66 1.66 0 0 0-.28.75"/><path id="Fill-123" class="cls-1" d="M158.81 82.87a3.09 3.09 0 0 1-2.74-1.59 2.9 2.9 0 0 1 1.38-4 2.87 2.87 0 0 1 .3-.14c1-.48 3.78-1.73 3.88-9q.12-8.74.25-17.48a3.08 3.08 0 0 1 3.21-2.92 3 3 0 0 1 3.1 3q-.15 8.73-.32 17.47c-.2 10.9-5.69 13.35-7.49 14.18l-.15.07a3.28 3.28 0 0 1-1.42.33"/><path id="Fill-125" class="cls-1" d="M165.13 45.29a3.05 3.05 0 0 1-3.13-3c0-1.53 0-3.07.07-4.61a3.19 3.19 0 0 1 6.36.09l-.08 4.61a3.08 3.08 0 0 1-3.22 2.89"/><path id="Fill-127" class="cls-1" d="M148.72 142.86a1.57 1.57 0 0 1-1.6-1.55 1.63 1.63 0 0 1 1.59-1.62 61.55 61.55 0 0 0 8.12-.82 1.59 1.59 0 0 1 1.81 1.34 1.61 1.61 0 0 1-1.38 1.8 64.87 64.87 0 0 1-8.52.85"/><path id="Fill-1" class="cls-14" d="M252.71 34.49s.2.7.56 2c.19.65.41 1.46.61 2.42s.5 2 .72 3.29.53 2.6.72 4.11.49 3.12.67 4.86c.45 3.47.68 7.42.9 11.72 0 1.07 0 2.17.06 3.29v3.41c0 1.16 0 2.34-.05 3.53s-.11 2.41-.17 3.64-.14 2.47-.25 3.73-.19 2.53-.34 3.81c-.34 2.55-.58 5.18-1 7.81s-1 5.3-1.5 8c-.34 1.33-.67 2.68-1 4-.18.67-.32 1.36-.51 2l-.6 2c-.41 1.33-.74 2.71-1.23 4s-.93 2.66-1.4 4-1.06 2.62-1.59 3.93l-.81 2-.92 1.92a90.51 90.51 0 0 1-8.41 14.65l-2.52 3.39c-.82 1.11-1.75 2.13-2.61 3.19l-1.32 1.57c-.42.53-.93 1-1.39 1.48l-2.8 2.89c-.94.94-2 1.77-2.93 2.65l-1.46 1.3-.72.65-.77.59-3 2.33c-.5.37-1 .77-1.49 1.13l-1.55 1c-2.05 1.34-4 2.71-6.07 3.77a66.84 66.84 0 0 1-5.93 3.13l-2.87 1.34-1.39.65c-.46.21-.93.36-1.39.55l-5.22 2c-1.64.62-3.25 1-4.69 1.51s-2.79.92-4 1.24c-2.46.59-4.4 1.11-5.72 1.43l-2 .52 2.07-.3c1.35-.19 3.34-.46 5.87-.85 1.26-.22 2.63-.57 4.14-.89l2.35-.53c.81-.21 1.66-.35 2.51-.64l5.45-1.67c.47-.15 1-.28 1.45-.47l1.45-.58 3-1.2a67.44 67.44 0 0 0 6.27-2.86 65.25 65.25 0 0 0 6.44-3.62l1.65-1c.54-.35 1.06-.74 1.6-1.11l3.23-2.29.82-.58.78-.65 1.56-1.31c1-.89 2.12-1.73 3.12-2.69l3-2.94c.5-.51 1-1 1.49-1.52l1.42-1.6c.93-1.08 1.92-2.13 2.82-3.26s1.73-2.32 2.61-3.49a94.44 94.44 0 0 0 8.9-15.21l.94-2 .83-2c.53-1.37 1.13-2.72 1.61-4.1s.95-2.78 1.42-4.16.82-2.79 1.24-4.18c.86-2.76 1.39-5.59 2-8.35s1-5.53 1.34-8.26.62-5.41.84-8c.09-1.32.12-2.63.19-3.92s.11-2.55.1-3.81a131.44 131.44 0 0 0-.56-14.12 117.65 117.65 0 0 0-1.7-11.81 89.75 89.75 0 0 0-2.19-8.95c-.32-1.22-.73-2.3-1-3.23s-.61-1.72-.87-2.35l-.77-1.94"/><g mask="url(#mask)"><path id="Fill-3" class="cls-14" d="M254.3 38.6C262.66 23.81 238.47.22 238.47.22s-1.94 34.67 15.83 38.38"/></g><path id="Fill-6" class="cls-14" d="M257.91 50.71c16.5-2.71 19.29-37.07 19.29-37.07s-27.6 20.49-19.29 37.07"/><path id="Fill-8" class="cls-14" d="M258.88 66.78C275.76 69.33 288.79 38 288.79 38s-33 10.71-29.91 28.81"/><path id="Fill-10" class="cls-14" d="M258.71 85.08c16.55 4.12 32.4-26.26 32.4-26.26s-33.83 7.74-32.4 26.26"/><path id="Fill-12" class="cls-14" d="M254 106.18c15.48 7.44 37.08-19.55 37.08-19.55s-34.83.85-37.08 19.55"/><path id="Fill-14" class="cls-14" d="M247.08 125c14.38 9.11 39.39-13.73 39.39-13.73s-34.68-3.77-39.39 13.73"/><path id="Fill-16" class="cls-14" d="M236.66 144.57c12.76 11.15 40.54-8.24 40.54-8.24s-33.41-8.63-40.54 8.24"/><path id="Fill-18" class="cls-14" d="M223.91 158.41c10.51 13.39 41.71-.45 41.71-.45s-31.43-14.82-41.71.45"/><path id="Fill-20" class="cls-14" d="M203.06 171c5.84 16.47 39.39 12.58 39.39 12.58s-25.09-24.45-39.39-12.58"/><path id="Fill-22" class="cls-14" d="M185.68 173.4c1.08 17.18 34.76 23.28 34.76 23.28s-17.57-30.25-34.76-23.28"/><path id="Fill-24" class="cls-14" d="M203.85 171.2c10.06-13.89-11.4-40.55-11.4-40.55s-5.92 34.67 11.4 40.55"/><path id="Fill-26" class="cls-14" d="M186.79 174.67c11.65-9.58-2.1-35.91-2.1-35.91s-12.09 27.66 2.1 35.91"/><path id="Fill-28" class="cls-14" d="M219.54 160.77c6.13-16-21.11-35.91-21.11-35.91s3 34.87 21.11 35.91"/><path id="Fill-30" class="cls-14" d="M237.52 142.15C241.17 125.7 210 111 210 111s8.84 33.15 27.51 31.2"/><path id="Fill-32" class="cls-14" d="M248.18 125.67c1.69-17.1-30.06-28.62-30.06-28.62s12.25 32.67 30.06 28.62"/><path id="Fill-34" class="cls-14" d="M254 105.21C252.79 87.84 219.28 82 219.28 82S237 112.43 254 105.21"/><path id="Fill-36" class="cls-14" d="M258.67 82.72C256.05 65.43 221.6 62.3 221.6 62.3s20.38 29 37.07 20.42"/><path id="Fill-38" class="cls-14" d="M257.51 66.92c-1.5-16.87-34.76-22-34.76-22s18.05 29.3 34.76 22"/><path id="Fill-40" class="cls-14" d="M256.35 49.38c-1.91-17.31-35.91-21.84-35.91-21.84s19 29.72 35.91 21.84"/><path id="Fill-42" class="cls-14" d="M36.4 34.49s-.2.7-.56 2c-.19.65-.41 1.46-.61 2.42s-.5 2-.72 3.29-.52 2.6-.72 4.11-.49 3.12-.67 4.86c-.45 3.47-.68 7.42-.9 11.72 0 1.07 0 2.17-.06 3.29v3.41c0 1.16 0 2.34.05 3.53s.11 2.41.17 3.64.14 2.47.25 3.73.2 2.53.35 3.81c.33 2.55.57 5.18 1 7.81s1 5.3 1.51 8c.33 1.33.66 2.68 1 4 .17.67.31 1.36.51 2s.39 1.34.59 2c.41 1.33.74 2.71 1.23 4s.93 2.66 1.4 4 1.06 2.62 1.59 3.93l.81 2 .92 1.92A90.51 90.51 0 0 0 52 138.68l2.46 3.32c.83 1.11 1.75 2.13 2.62 3.19l1.31 1.57c.42.53.93 1 1.39 1.48l2.8 2.89c.94.94 2 1.77 2.93 2.65l1.46 1.3.73.65.76.59 3 2.33c.5.37 1 .77 1.49 1.13l1.55 1a70.17 70.17 0 0 0 6.08 3.77 65.34 65.34 0 0 0 5.92 3.13l2.87 1.34 1.39.65c.46.21.93.36 1.39.55l5.22 2c1.65.62 3.25 1 4.69 1.51s2.79.92 4 1.24c2.46.59 4.4 1.11 5.72 1.43l2 .52-2.08-.3c-1.35-.19-3.34-.46-5.87-.85-1.25-.22-2.63-.57-4.14-.89l-2.35-.53c-.8-.21-1.66-.35-2.51-.64l-5.44-1.67c-.48-.15-1-.28-1.46-.47l-1.45-.58-3-1.2a67.44 67.44 0 0 1-6.2-2.79 65.25 65.25 0 0 1-6.44-3.62l-1.65-1c-.54-.35-1.06-.74-1.59-1.11L66.36 159l-.82-.58-.78-.65-1.55-1.31c-1-.89-2.13-1.73-3.13-2.69l-3-2.94c-.49-.51-1-1-1.49-1.52l-1.42-1.6c-.93-1.08-1.92-2.13-2.82-3.26s-1.73-2.32-2.61-3.49a94.44 94.44 0 0 1-8.9-15.21l-.94-2-.82-2c-.54-1.37-1.14-2.72-1.62-4.1s-1-2.78-1.42-4.16-.82-2.79-1.24-4.18c-.86-2.76-1.39-5.59-2-8.35s-1-5.53-1.34-8.26-.62-5.41-.83-8c-.1-1.32-.13-2.63-.19-3.92s-.12-2.55-.11-3.81a131.44 131.44 0 0 1 .56-14.12c.45-4.36 1-8.33 1.7-11.81S33 44.46 33.72 42c.32-1.22.73-2.3 1-3.23s.61-1.72.87-2.35l.77-1.94"/><g mask="url(#mask-2)"><path id="Fill-44" class="cls-14" d="M34.62 38.6C25.88 23.81 51.17.22 51.17.22s2 34.67-16.55 38.38"/></g><path id="Fill-47-2" data-name="Fill-47" class="cls-14" d="M31.2 50.71C14.71 48 11.91 13.64 11.91 13.64s27.6 20.49 19.29 37.07"/><path id="Fill-49-2" data-name="Fill-49" class="cls-14" d="M31.39 66.78C14.51 69.33 1.48 38 1.48 38s33 10.71 29.91 28.81"/><path id="Fill-51-2" data-name="Fill-51" class="cls-14" d="M31.56 85.08C15 89.2-.84 58.82-.84 58.82S33 66.56 31.56 85.08"/><path id="Fill-53-2" data-name="Fill-53" class="cls-14" d="M36.24 106.18C20.76 113.62-.84 86.63-.84 86.63s34.83.85 37.08 19.55"/><path id="Fill-55-2" data-name="Fill-55" class="cls-14" d="M42 125c-14.35 9.14-39.36-13.7-39.36-13.7S37.32 107.53 42 125"/><path id="Fill-57-2" data-name="Fill-57" class="cls-14" d="M52.45 144.57c-12.76 11.15-40.54-8.24-40.54-8.24s33.41-8.63 40.54 8.24"/><path id="Fill-59-2" data-name="Fill-59" class="cls-14" d="M65.2 158.41C54.69 171.8 23.49 158 23.49 158s31.43-14.82 41.71.45"/><path id="Fill-61-2" data-name="Fill-61" class="cls-14" d="M87.21 171c-5.84 16.47-39.39 12.58-39.39 12.58S72.91 159.13 87.21 171"/><path id="Fill-63-2" data-name="Fill-63" class="cls-14" d="M104.59 173.4c-1.09 17.18-34.76 23.28-34.76 23.28s17.57-30.25 34.76-23.28"/><path id="Fill-65-2" data-name="Fill-65" class="cls-14" d="M86.42 171.2c-10.06-13.89 11.4-40.55 11.4-40.55s5.92 34.67-11.4 40.55"/><path id="Fill-67-2" data-name="Fill-67" class="cls-14" d="M103.48 174.67c-11.65-9.58 2.1-35.91 2.1-35.91s12.09 27.66-2.1 35.91"/><path id="Fill-69-2" data-name="Fill-69" class="cls-14" d="M69.57 160.77c-6.13-16 21.12-35.91 21.12-35.91s-3 34.87-21.12 35.91"/><path id="Fill-71-2" data-name="Fill-71" class="cls-14" d="M52.75 142.15C49.09 125.7 80.26 111 80.26 111s-8.84 33.15-27.51 31.2"/><path id="Fill-73-2" data-name="Fill-73" class="cls-14" d="M42.09 125.67c-1.69-17.1 30.06-28.62 30.06-28.62s-12.25 32.67-30.06 28.62"/><path id="Fill-75-2" data-name="Fill-75" class="cls-14" d="M36.24 105.21C37.48 87.84 71 82 71 82s-17.75 30.44-34.75 23.22"/><path id="Fill-77-2" data-name="Fill-77" class="cls-14" d="M31.6 82.72C34.22 65.43 68.67 62.3 68.67 62.3s-20.38 29-37.07 20.42"/><path id="Fill-79-2" data-name="Fill-79" class="cls-14" d="M32.76 66.92c1.5-16.87 34.76-22 34.76-22s-18 29.3-34.76 22"/><path id="Fill-81-2" data-name="Fill-81" class="cls-14" d="M33.92 49.38c1.9-17.31 35.91-21.84 35.91-21.84s-19 29.72-35.91 21.84"/></svg>