<svg id="Layer_1" data-name="Layer 1" xmlns="http://www.w3.org/2000/svg" viewBox="0 0 479 273" width="360" height="288"><defs><style>.cls-2{fill:#1abc9c}.cls-3{fill:#108794}.cls-16,.cls-18,.cls-3{fill-rule:evenodd}.cls-15{fill:#9bc4e0}.cls-16{fill:#fff}.cls-18{fill:#2f3795}</style></defs><path d="M.88 246.66c21.14 37 99.78 22.72 137.43 10.58 81.93-26.43 0-84.58-5.28-23.79-3.84 44.14 74.32 43.15 103.07 10.55 39.64-44.93 71.7-144.39 108.36-105.71s67.21-29.12 100.43 2.64" fill="none" stroke="#21374d" stroke-linecap="round" stroke-width="2"/><path class="cls-2" d="M352.67 175.68v28.4l17.92-14.23zm.16 33.16v28.4L370.75 223zm20.43-16.3v28.4l17.92-14.23zM396.7 175.74v28.4l17.93-14.23zm.16 33.16v28.4l17.93-14.23zm20.44-16.3V221l17.92-14.23zM440.49 175.74v28.4l17.92-14.23zm.16 33.16v28.4l17.92-14.23zm20.43-16.3V221L479 206.77z"/><path class="cls-3" d="M49.48 2h246.9a11.24 11.24 0 0 1 11.08 11.38v169.04a11.24 11.24 0 0 1-11.08 11.38H49.48a11.24 11.24 0 0 1-11.08-11.38V13.36A11.24 11.24 0 0 1 49.48 2z"/><rect x="31.31" y=".53" width="276.15" height="191.81" rx="11.38" fill="#0d6872"/><path class="cls-3" d="M54.08.53h243.08a11.14 11.14 0 0 1 10.91 11.37V181a11.14 11.14 0 0 1-10.91 11.37H54.08A11.14 11.14 0 0 1 43.17 181V11.9A11.14 11.14 0 0 1 54.08.53z"/><path d="M58.85 17.38h208.87a7 7 0 0 1 6.89 7.09v144.79a7 7 0 0 1-6.89 7.09H58.85a7 7 0 0 1-6.85-7.09V24.47a7 7 0 0 1 6.85-7.09z" fill="#f9fafb" fill-rule="evenodd"/><path d="M59.06 17.38h208.47a7.13 7.13 0 0 1 7.1 7.1v7.83H52v-7.83a7.13 7.13 0 0 1 7.06-7.1z" fill="#e1e2f1" fill-rule="evenodd"/><path d="M41 78.59h2.29c1.43 0 2.59 8.19 2.59 18.28 0 10.1-1.16 18.28-2.59 18.28H41c-1.43 0-2.58-8.18-2.58-18.28-.01-10.09 1.14-18.28 2.58-18.28z" fill="#1cb7c8" fill-rule="evenodd"/><circle cx="290.39" cy="96.87" r="9.51" fill="#1cb7c8"/><circle cx="290.39" cy="96.87" r="4.92" fill="#0f737e"/><circle cx="74.79" cy="26.21" r="3.22" fill="#b3493b"/><circle cx="85.2" cy="26.21" r="3.22" fill="#eab54d"/><circle cx="95.59" cy="26.21" r="3.22" fill="#1bbc9c"/><path d="M234.48 22.94h9.67c6.09 0 11 1.16 11 2.59s-4.93 2.59-11 2.59h-9.67c-6.09 0-11-1.16-11-2.59-.02-1.43 4.91-2.59 11-2.59z" fill="#21374d" fill-rule="evenodd"/><path d="M99.2 44.68h42c6.26 0 11.34.77 11.34 1.72v3.38c0 .95-5.08 1.71-11.34 1.71h-42c-6.26 0-11.33-.76-11.33-1.71V46.4c0-.95 5.07-1.72 11.33-1.72z" fill="#465a6d" fill-rule="evenodd"/><path class="cls-15" d="M89.59 58.16H100a2.59 2.59 0 0 1 1.85.76 2.68 2.68 0 0 1 .76 1.85v3.38a2.67 2.67 0 0 1-.76 1.84 2.55 2.55 0 0 1-1.84.76H89.59a2.6 2.6 0 0 1-1.86-.75 2.63 2.63 0 0 1-.73-1.85v-3.38a2.63 2.63 0 0 1 .76-1.85 2.6 2.6 0 0 1 1.83-.76zM100 59.94H89.59a.84.84 0 0 0-.59.25.81.81 0 0 0-.24.58v3.38a.8.8 0 0 0 .24.57.84.84 0 0 0 .59.25H100a.82.82 0 0 0 .58-.25.8.8 0 0 0 .24-.57v-3.38a.81.81 0 0 0-.24-.58.82.82 0 0 0-.58-.25zM89.59 72.53h61.26a2.53 2.53 0 0 1 1.84.76 2.59 2.59 0 0 1 .77 1.84v3.38a2.56 2.56 0 0 1-.77 1.84 2.67 2.67 0 0 1-1.84.76H89.59a2.68 2.68 0 0 1-1.86-.76 2.63 2.63 0 0 1-.73-1.84v-3.38a2.63 2.63 0 0 1 .76-1.84 2.6 2.6 0 0 1 1.83-.76zm61.26 1.78H89.59a.84.84 0 0 0-.59.25.8.8 0 0 0-.24.57v3.38a.81.81 0 0 0 .24.58.83.83 0 0 0 .59.24h61.26a.83.83 0 0 0 .59-.24.89.89 0 0 0 .23-.58v-3.38a.81.81 0 0 0-.25-.57.78.78 0 0 0-.57-.25z"/><path class="cls-16" d="M109.35 59.06h9c1.34 0 2.43.76 2.43 1.71v3.38c0 .95-1.09 1.72-2.43 1.72h-9c-1.34 0-2.42-.77-2.42-1.72v-3.38c0-.95 1.07-1.71 2.42-1.71zM128.41 59.06h9c1.34 0 2.43.76 2.43 1.71v3.38c0 .95-1.09 1.72-2.43 1.72h-9c-1.34 0-2.42-.77-2.42-1.72v-3.38c.01-.95 1.08-1.71 2.42-1.71z"/><path d="M78.81 104.62h4.51c.67 0 1.21.77 1.21 1.72v3.38c0 1-.54 1.72-1.21 1.72h-4.51c-.67 0-1.21-.77-1.21-1.72v-3.38c0-.95.54-1.72 1.21-1.72z" fill="#999" fill-rule="evenodd"/><path class="cls-18" d="M89.64 104.62h4.51c.67 0 1.21.77 1.21 1.72v3.38c0 1-.54 1.72-1.21 1.72h-4.51c-.67 0-1.21-.77-1.21-1.72v-3.38c0-.95.57-1.72 1.21-1.72zM138.29 104.62h13.17c2 0 3.54.77 3.54 1.72v3.38c0 1-1.58 1.72-3.54 1.72h-13.17c-2 0-3.54-.77-3.54-1.72v-3.38c0-.95 1.58-1.72 3.54-1.72z"/><path d="M207.59 76.19L216 45.32l-32.9 38.86zm-21.5 8.94h41l-1.68-7.3h-16.94zM180.32 87h-.45a.2.2 0 0 1 0-.11.87.87 0 0 1 0-.1L217.27 41H218.43l36.62 35.3a.93.93 0 0 1 0 1.29h-.06.01-.1l-26.25 9.08a.84.84 0 0 1-.38.08zm68.85-9.12h-21.9l1.63 7zM225 76l-7.1-30.66L209.54 76zm-5.41-31.61L226.85 76h25.49z" fill="#ccc"/><path d="M257.24 150.42c0 7.9-4.57 14.31-10.2 14.31H77.73c-5.64 0-10.21-6.41-10.21-14.31V51.2c0-7.89 4.57-14.31 10.21-14.31H247c5.63 0 10.2 6.42 10.2 14.31z" fill="#eef6ff"/><path d="M110.11 57h106.37a3.63 3.63 0 0 1 3.52 3.72v76.49a3.63 3.63 0 0 1-3.51 3.74H110.11a3.63 3.63 0 0 1-3.51-3.74V60.72a3.63 3.63 0 0 1 3.51-3.72z" fill="#d09925" fill-rule="evenodd"/><path d="M121.4 57h94.87c1.73 0 3.13 1.68 3.13 3.74v76.49c0 2.06-1.4 3.74-3.13 3.74H121.4c-1.73 0-3.13-1.68-3.13-3.74V60.72c0-2.06 1.4-3.72 3.13-3.72z" fill="#f4b42e" fill-rule="evenodd"/><path fill="#c8566b" d="M150.57 73.34v50.22l32.4-25.16-32.4-25.06z"/><path fill="#e76d83" opacity=".99" d="M159.13 79.95v37.07l23.84-18.57-23.84-18.5z"/></svg>