<svg id="Layer_1" data-name="Layer 1" xmlns="http://www.w3.org/2000/svg" viewBox="0 0 100 100"><defs><style>.cls-1{fill:#21374d;}</style></defs><path class="cls-1" d="M26.6,65.05A2.93,2.93,0,0,0,23.67,68v8.77H41.22V68a2.93,2.93,0,0,0-2.92-2.93Z"/><circle class="cls-1" cx="32.45" cy="50.43" r="2.93"/><path class="cls-1" d="M97.07,82.28H2.93A2.93,2.93,0,0,0,0,85.21,8.8,8.8,0,0,0,8.79,94H91.21A8.79,8.79,0,0,0,100,85.21,2.93,2.93,0,0,0,97.07,82.28Z"/><path class="cls-1" d="M17.82,68A8.79,8.79,0,0,1,26.6,59.2h5.85a8.78,8.78,0,1,1,8.77-8.77,8.78,8.78,0,0,1-8.77,8.77H38.3A8.78,8.78,0,0,1,47.07,68v8.77h47V47.5H55.85a8.79,8.79,0,0,1-8.78-8.77V24.1H8.85A2.93,2.93,0,0,0,5.93,27V76.75H17.82Zm38-14.63h23.4a2.93,2.93,0,0,1,0,5.85H55.85a2.93,2.93,0,1,1,0-5.85Zm0,11.7h23.4a2.93,2.93,0,0,1,0,5.85H55.85a2.93,2.93,0,1,1,0-5.85Z"/><path class="cls-1" d="M73.4,24.78l6-3.6-6-3.61Z"/><path class="cls-1" d="M97,.7H55.85a2.93,2.93,0,0,0-2.93,2.93v35.1a2.93,2.93,0,0,0,2.93,2.92H97a2.93,2.93,0,0,0,2.93-2.92V3.63A2.93,2.93,0,0,0,97,.7Zm-10.39,23L72,32.46A2.92,2.92,0,0,1,67.55,30V12.4A2.93,2.93,0,0,1,72,9.89L86.6,18.67a2.92,2.92,0,0,1,0,5Z"/></svg>