<svg id="Layer_1" data-name="Layer 1" xmlns="http://www.w3.org/2000/svg" xmlns:xlink="http://www.w3.org/1999/xlink" viewBox="0 0 283 160"><defs><style>.cls-1{fill:none;}.cls-2{clip-path:url(#clip-path);}.cls-3{clip-path:url(#clip-path-2);}.cls-4{fill:#2e3696;}.cls-5{fill:#5758f7;}.cls-6{clip-path:url(#clip-path-3);}.cls-7{fill:#26276d;}.cls-8{fill:#434aa0;}.cls-9{clip-path:url(#clip-path-4);}.cls-10{clip-path:url(#clip-path-5);}</style><clipPath id="clip-path"><path class="cls-1" d="M-294.25,0h265.5A8.75,8.75,0,0,1-20,8.75v151.4H-303V8.75A8.75,8.75,0,0,1-294.25,0Z"/></clipPath><clipPath id="clip-path-2"><rect class="cls-1" x="-308.78" y="-7.03" width="295.37" height="168.93"/></clipPath><clipPath id="clip-path-3"><path class="cls-1" d="M8.75,0h265.5A8.75,8.75,0,0,1,283,8.75v151.4H0V8.75A8.75,8.75,0,0,1,8.75,0Z"/></clipPath><clipPath id="clip-path-4"><path class="cls-1" d="M311.75,0h265.5A8.75,8.75,0,0,1,586,8.75v151.4H303V8.75A8.75,8.75,0,0,1,311.75,0Z"/></clipPath><clipPath id="clip-path-5"><circle class="cls-1" cx="170" cy="230" r="50"/></clipPath></defs><g class="cls-2"><g class="cls-3"><path class="cls-4" d="M-75,164s-60.8-79.63-21.71-123.92,150.65,9,193.44,49.33c38.42,36.24,60.95,75.69,60.95,75.69Z"/><path class="cls-5" d="M100.69,151.87C52,79.73,5.44,64.71-24.94,75.26c-23.51,8.16-44.13,46-53.47,52.3-16.6,11.27-32.6,22.2-64.69,10.29a64.6,64.6,0,0,0-23.67-4.47,64.59,64.59,0,0,0-23.66,4.47c-32.09,11.91-37.95,10.24-49.2,9.33s-39.54-51.57-69-59.77c-27.59-7.68-63.25,5.36-105.25,64.3-38.29,53.73,160.63,47.71,196.17,46.22-.95,4.71-1.46,7.77-1.46,7.77l52.37-4.29,52.38,4.29s-.51-3.06-1.46-7.77C-80.31,199.42,137.57,206.57,100.69,151.87Z"/></g></g><g class="cls-6"><path class="cls-7" d="M216.87,139.94c-17.85-2.79-30.12-27.89-39.05-43.51s-17.29-38.49-34-58.57S98.61,10,67.38,40.09,30,81.37,17.73,81.37-6.17,51.8-6.17,51.8V165.33H290.5V74.87S279.1,94.78,262.55,111,234.72,142.73,216.87,139.94Z"/><path class="cls-4" d="M-6.17-15.59V51.8S5.46,81.37,17.73,81.37,36.14,70.21,67.38,40.09s59.68-22.31,76.41-2.23,25.11,43,34,58.57,21.2,40.72,39.05,43.51,29.12-12.81,45.68-29S290.5,74.87,290.5,74.87V-15.59Z"/><path class="cls-8" d="M-6.17,53.51s21.9,43.37,48.67,43.9S73.05,87.56,98.73,87.3c24.5-.25,39.62,23,55.92,22.29s20.64-22.35,20.64-22.35,17.13,49.89,43.37,53.06,63.61-41.08,71.84-65.43c0,0-26.45,4.71-60.44,0-21.9-3.05-27.61-17.38-59.71-21.36-32.47-4-113.69,21.36-113.69,21.36L-6.17,127.53Z"/><path class="cls-5" d="M-6.17,88.58s10.84,10,45-5.51S83.6,60.93,108.41,62.35,156,74.11,178,86.17s44.91,26.88,77.21,18.27S290.5,74.87,290.5,74.87V40s-16.31-.69-41.12,17.23-28.95,35.5-50,48.25-42.74,12.38-60.66,1.54S96.16,73.55,75,74.87s-41,26.47-48.25,33-23,19.31-32.9,19.65Z"/></g><g class="cls-9"><rect class="cls-7" x="281.91" y="21.63" width="317.85" height="139.47" transform="translate(881.66 182.74) rotate(180)"/><path class="cls-5" d="M539.28,59.07c-23.62,13.53-40.44,36.47-62.92,51.83a118.7,118.7,0,0,1-88.58,18.25c-21.13-4.12-40.64-13.94-60.89-21.24a265.41,265.41,0,0,0-55.68-13.52c-6.08-.79-12.35-1.36-18.28.23-5.22,1.41-9.84,4.41-14.51,7.14a164.63,164.63,0,0,1-45.1,18.07c-12.74,3-26.9,4.1-39.45,1.08-1.57-.38-4-102.91,2.33-107.26a104.92,104.92,0,0,1,22-11.49c29.79-11.31,62.62-10.69,94.44-9.09,90,4.54,182.34,16.52,261.24,60.13Z"/><path class="cls-4" d="M616.29-9.63c1.93,14-5.75,28-16.79,36.74s-25,13-38.86,15.59c-18.29,3.44-37.21,4.35-55.51,1-15.74-2.92-30.72-8.94-46.25-12.8-27.3-6.8-57.19-6.59-82.51,5.69-32.35,15.7-52.52,48-75.45,75.73-6.63,8-14.1,16.06-24,19.26-11.72,3.8-24.59,0-35.58-5.56-24.61-12.47-43.8-33.39-61.09-54.89-3.52-4.38-7-8.84-10.16-13.51-3.36-5-1.92-59.47,2.81-63a50.4,50.4,0,0,1,13.5-7c10.34-3.6,21.44-4.33,32.38-4.64,43-1.23,86,3.45,129,4.7,87.2,2.53,174.45-9,261.56-4.46,1.77.09,4,2.3,2.37,2.94Z"/></g><g class="cls-10"><image width="512" height="512" transform="translate(94.32 159.76) scale(0.25)" xlink:href="A1.png"/></g></svg>