<svg id="Layer_1" data-name="Layer 1" xmlns="http://www.w3.org/2000/svg" xmlns:xlink="http://www.w3.org/1999/xlink" viewBox="0 0 283 160"><defs><style>.cls-1{fill:none;}.cls-2{clip-path:url(#clip-path);}.cls-3{font-size:23.45px;font-family:ProximaNova-Semibold, Proxima Nova;font-weight:600;}.cls-4{fill:#26276d;}.cls-5{fill:#5758f7;}.cls-6{fill:#434aa0;}.cls-7{fill:#2e3696;}</style><clipPath id="clip-path"><path class="cls-1" d="M8.75,0h265.5A8.75,8.75,0,0,1,283,8.75v151.4H0V8.75A8.75,8.75,0,0,1,8.75,0Z"/></clipPath></defs><g class="cls-2"><text class="cls-3" transform="translate(84.9 130.19)">Meet the teachers</text><rect class="cls-4" x="-5.6" y="-5.62" width="295.18" height="170.69"/><rect class="cls-4" x="-21.09" y="21.63" width="317.85" height="139.47" transform="translate(275.66 182.74) rotate(180)"/><path class="cls-5" d="M236.28,59.07c-23.62,13.53-40.44,36.47-62.92,51.83a118.7,118.7,0,0,1-88.58,18.25C63.65,125,44.14,115.21,23.89,107.91A265.41,265.41,0,0,0-31.79,94.39c-6.08-.79-12.35-1.36-18.28.23C-55.29,96-59.91,99-64.58,101.76a164.63,164.63,0,0,1-45.1,18.07c-12.74,3-26.9,4.1-39.45,1.08-1.57-.38-4-102.91,2.33-107.26a104.92,104.92,0,0,1,22-11.49C-95.06-9.15-62.23-8.53-30.41-6.93c90,4.54,182.34,16.52,261.24,60.13Z"/><path class="cls-6" d="M359.85,59.31c-1.39,16.18-11.23,30.38-23.46,39.36s-.66,57.64-15,61C297.1,165.4,258,153.19,229,134.5,194.47,112.22,161.62,81.79,130,67.82A130.59,130.59,0,0,0,60.51,57.68C50.43,59,40,61.47,30.31,58.12,16.31,53.29,7.88,37.92.73,23.74-1.65,19,343.05,13.93,344.27,18.4c3.42,12.54,6.84,25.1,14.29,35.09Z"/><path class="cls-7" d="M313.29-9.63c1.93,14-5.75,28-16.79,36.74s-25,13-38.86,15.59c-18.29,3.44-37.21,4.35-55.51,1-15.74-2.92-30.72-8.94-46.25-12.8-27.3-6.8-57.19-6.59-82.51,5.69C41,52.26,20.85,84.59-2.08,112.29c-6.63,8-14.1,16.06-24,19.26-11.72,3.8-24.59,0-35.58-5.56-24.61-12.47-43.8-33.39-61.09-54.89-3.52-4.38-7-8.84-10.16-13.51-3.36-5-1.92-59.47,2.81-63a50.4,50.4,0,0,1,13.5-7c10.34-3.6,21.44-4.33,32.38-4.64,43-1.23,86,3.45,129,4.7,87.2,2.53,174.45-9,261.56-4.46,1.77.09,4,2.3,2.37,2.94Z"/></g></svg>