<svg id="Layer_1" data-name="Layer 1" xmlns="http://www.w3.org/2000/svg" xmlns:xlink="http://www.w3.org/1999/xlink" viewBox="0 0 283 160"><defs><style>.cls-1{fill:none;}.cls-2{clip-path:url(#clip-path);}.cls-3{font-size:23.45px;font-family:ProximaNova-Semibold, Proxima Nova;font-weight:600;}.cls-4{fill:#26276d;}.cls-5{clip-path:url(#clip-path-2);}.cls-6{fill:#2e3696;}.cls-7{fill:#5758f7;}</style><clipPath id="clip-path"><path class="cls-1" d="M8.75,0h265.5A8.75,8.75,0,0,1,283,8.75v151.4H0V8.75A8.75,8.75,0,0,1,8.75,0Z"/></clipPath><clipPath id="clip-path-2"><rect class="cls-1" x="-5.78" y="-7.03" width="295.37" height="168.93"/></clipPath></defs><g class="cls-2"><text class="cls-3" transform="translate(84.9 130.19)">Meet the teachers</text><rect class="cls-4" x="-5.6" y="-5.62" width="295.18" height="170.69"/><g class="cls-5"><path class="cls-6" d="M60,120.16c8.88-17.34,35.09-41.55,73.3-33.73s59.93,39.95,76.43,67.74-152,59.92-152,59.92S47.62,144.32,60,120.16Z"/><path class="cls-6" d="M228,164s-60.8-79.63-21.71-123.92,150.65,9,193.44,49.33c38.42,36.24,60.95,75.69,60.95,75.69Z"/><path class="cls-6" d="M-14.9,160.8S45.89,81.17,6.81,36.88s-150.65,9-193.45,49.33c-38.41,36.24-60.94,75.69-60.94,75.69Z"/><circle class="cls-7" cx="184.24" cy="22.74" r="11"/><circle class="cls-7" cx="41.35" cy="34.86" r="11"/><circle class="cls-6" cx="159.34" cy="66.18" r="19.97"/><circle class="cls-6" cx="86.98" cy="71.38" r="6.67"/><circle class="cls-7" cx="60.81" cy="104.3" r="18.29"/><path class="cls-7" d="M403.69,151.87C355,79.73,308.44,64.71,278.06,75.26c-23.51,8.16-44.13,46-53.47,52.3-16.6,11.27-32.6,22.2-64.69,10.29a64.88,64.88,0,0,0-47.33,0c-32.09,11.91-37.95,10.24-49.2,9.33S23.83,95.61-5.6,87.41c-27.59-7.68-63.25,5.36-105.25,64.3-38.29,53.73,160.63,47.71,196.17,46.22-.95,4.71-1.46,7.77-1.46,7.77l52.37-4.29,52.38,4.29s-.51-3.06-1.46-7.77C222.69,199.42,440.57,206.57,403.69,151.87Z"/></g></g></svg>