<svg id="Layer_1" data-name="Layer 1" xmlns="http://www.w3.org/2000/svg" xmlns:xlink="http://www.w3.org/1999/xlink" viewBox="0 0 283 160"><defs><style>.cls-1,.cls-43{fill:none;}.cls-2{clip-path:url(#clip-path);}.cls-3{clip-path:url(#clip-path-2);}.cls-4{fill:#3b429c;}.cls-5{fill:#6b6cf8;}.cls-6{fill:#4d54a6;}.cls-7{clip-path:url(#clip-path-3);}.cls-8{font-size:23.45px;font-family:ProximaNova-Semibold, Proxima Nova;font-weight:600;}.cls-9{fill:#26276d;}.cls-10{clip-path:url(#clip-path-4);}.cls-11{fill:#2e3696;}.cls-12{fill:#5758f7;}.cls-13{fill:#fd7b33;}.cls-14{font-size:11.46px;fill:#fff;font-family:ProximaNova-Bold, Proxima Nova;font-weight:700;}.cls-15{letter-spacing:-0.01em;}.cls-16{letter-spacing:0em;}.cls-17{letter-spacing:0.01em;}.cls-18{letter-spacing:0em;}.cls-19{letter-spacing:0em;}.cls-20{letter-spacing:0em;}.cls-21{letter-spacing:0em;}.cls-22{letter-spacing:-0.01em;}.cls-23{letter-spacing:0em;}.cls-24{letter-spacing:-0.01em;}.cls-25{letter-spacing:0em;}.cls-26{letter-spacing:-0.01em;}.cls-27{letter-spacing:0em;}.cls-28{font-size:41.25px;}.cls-29{letter-spacing:-0.09em;}.cls-30{letter-spacing:-0.01em;}.cls-31{letter-spacing:-0.01em;}.cls-32{letter-spacing:0em;}.cls-33{letter-spacing:-0.01em;}.cls-34{letter-spacing:0.01em;}.cls-35{letter-spacing:0.01em;}.cls-36{letter-spacing:0em;}.cls-37{letter-spacing:0em;}.cls-38{letter-spacing:0em;}.cls-39{letter-spacing:-0.01em;}.cls-40{letter-spacing:0em;}.cls-41{letter-spacing:0.01em;}.cls-42{letter-spacing:0.01em;}.cls-43{stroke:#fff;stroke-miterlimit:10;stroke-width:0.5px;}.cls-44{fill:#8182f9;}.cls-45{fill:#6f6ff8;}.cls-46{fill:#1cb7c8;}</style><clipPath id="clip-path"><path class="cls-1" d="M-294.25,0h265.5A8.75,8.75,0,0,1-20,8.75v151.4H-303V8.75A8.75,8.75,0,0,1-294.25,0Z"/></clipPath><clipPath id="clip-path-2"><rect class="cls-1" x="-309.48" y="-49.78" width="417.51" height="213.73"/></clipPath><clipPath id="clip-path-3"><path class="cls-1" d="M8.75,0h265.5A8.75,8.75,0,0,1,283,8.75v151.4H0V8.75A8.75,8.75,0,0,1,8.75,0Z"/></clipPath><clipPath id="clip-path-4"><rect class="cls-1" x="-8.7" y="-10.52" width="298.9" height="174.35"/></clipPath></defs><g class="cls-2"><g class="cls-3"><rect class="cls-4" x="-267.98" y="-22.54" width="319.42" height="179"/><path class="cls-5" d="M-92.27-58.45l54.61,46.38S-43,9.3-57.41,17.3s-35.77,5.87-49-6.4-26.77-23.49-42.78-23-31,8-43.24,31c-3.54,6.62-6.5,12.66-9.85,18,6.61-3.23,14-8.54,22.13-17C-162.57,1.82-138,5-122,24S-99.58,62.8-62.22,59s42.17-32.62,48-46S5.57-16.25,16.25-25.9C25.25-34-64-52.76-92.27-58.45Z"/><path class="cls-6" d="M54.15,24c-2.68-3.7-5.64-9.67-9.55-15.8A73.07,73.07,0,0,0,33.86,12C-9.37,31.18,16.25,107.51-9.37,136.34c-5.59,6.28-11.54,10.41-17.71,12.73C-13.47,164.35,2.41,165.34,13.05,162c11.74-3.74,20.81-11.75,23.48-29.36S25.86,76,56.28,66.41,108,84,108,84V53.6C69.56,55.73,60.55,32.78,54.15,24Z"/><path class="cls-5" d="M56.28,66.41C25.86,76,39.2,115,36.53,132.6S24.79,158.22,13.05,162c-10.64,3.38-26.52,2.39-40.13-12.89a62.75,62.75,0,0,1-4.18-5.26C-45.67,123.53-74,80.29-114.53,84.56a32.75,32.75,0,0,0-13.36,4.5c-29.82,17.58-41,79-75.25,84.64H108V84S86.71,56.8,56.28,66.41Z"/><path class="cls-6" d="M-100.73-60.12s-15.93,23,5.42,47S-38.2.24-21.12-5.11,2.37-18.46,21.05-12.59C31.92-9.18,39.17-.37,44.6,8.15,82.13-1.88,108,25.77,108,25.77v-85.3Z"/><path class="cls-5" d="M44.6,8.15c3.91,6.13,6.87,12.1,9.55,15.8C60.55,32.78,69.56,55.73,108,53.6V25.77S82.13-1.88,44.6,8.15Z"/></g></g><g class="cls-7"><text class="cls-8" transform="translate(84.9 130.19)">Meet the teachers</text><rect class="cls-9" x="-5.6" y="-5.62" width="295.18" height="170.69"/><g class="cls-10"><rect class="cls-9" x="119.51" y="-255.19" width="192.7" height="662.23" transform="translate(139.94 291.78) rotate(-90)"/><path class="cls-11" d="M96.61-39.53c-26.78-7.6-54,9.67-60.67,36.7-4.3,17.42-16.13,40.33-46.8,60.11C-69.74,95.25-81.1,221,40.39,196.41,142,175.84,174.75-17.36,96.61-39.53Z"/><path class="cls-12" d="M260.39,119c15.19.08,27-13,26.53-28.17-.28-9.78,2.59-23.56,15.82-38.44,25.41-28.57,13-96.35-47.28-65.66C205.07,12.34,216.07,118.72,260.39,119Z"/><circle class="cls-12" cx="117.7" cy="132.01" r="5.29"/><circle class="cls-12" cx="117.7" cy="103.93" r="5.29"/><circle class="cls-12" cx="104.62" cy="118.03" r="5.29"/><circle class="cls-12" cx="130.28" cy="118.03" r="5.29"/><path class="cls-13" d="M-21.92,151.67l31,31c-1.18-.33-2.35-.7-3.5-1.12L-20.8,155.17C-21.22,154-21.59,152.85-21.92,151.67Z"/><path class="cls-13" d="M-23.34,143.33l40.72,40.72c-.89-.07-1.78-.16-2.66-.28L-23.06,146C-23.18,145.11-23.27,144.22-23.34,143.33Z"/><path class="cls-13" d="M-23.31,136.43,24.28,184c-.75.06-1.51.1-2.26.13l-45.46-45.46C-23.42,137.94-23.37,137.18-23.31,136.43Z"/><path class="cls-13" d="M-22.4,130.42l52.69,52.69c-.66.15-1.32.28-2,.39l-51.09-51.09C-22.68,131.74-22.55,131.08-22.4,130.42Z"/><path class="cls-13" d="M-20.84,125.06l56.49,56.49c-.59.22-1.19.42-1.79.6l-55.3-55.3C-21.26,126.25-21.06,125.65-20.84,125.06Z"/><path class="cls-13" d="M-18.76,120.22l59.25,59.25c-.53.27-1.08.53-1.62.77l-58.4-58.4C-19.29,121.29-19,120.75-18.76,120.22Z"/><path class="cls-13" d="M-16.23,115.84l61.1,61.1c-.48.31-1,.62-1.46.91L-17.14,117.3C-16.85,116.81-16.54,116.32-16.23,115.84Z"/><path class="cls-13" d="M-13.27,111.87,48.84,174c-.43.37-.87.72-1.32,1.07l-61.86-61.86C-14,112.74-13.64,112.3-13.27,111.87Z"/><path class="cls-13" d="M-9.94,108.28l62.37,62.37-.59.6c-.2.2-.4.4-.61.59l-62.36-62.36c.19-.21.39-.41.59-.61Z"/><path class="cls-13" d="M-6.22,105.08l61.85,61.85c-.34.45-.69.89-1.06,1.33L-7.55,106.14C-7.11,105.77-6.67,105.42-6.22,105.08Z"/><path class="cls-13" d="M-2.11,102.27l60.55,60.55c-.29.49-.6,1-.92,1.47l-61.1-61.1C-3.1,102.87-2.61,102.56-2.11,102.27Z"/><path class="cls-13" d="M2.43,99.88l58.4,58.4c-.25.55-.5,1.08-.77,1.62L.81,100.65C1.35,100.38,1.88,100.12,2.43,99.88Z"/><path class="cls-13" d="M7.43,98l55.31,55.31c-.19.6-.39,1.19-.6,1.78L5.65,98.57C6.24,98.36,6.83,98.16,7.43,98Z"/><path class="cls-13" d="M13,96.62l51.09,51.09c-.12.67-.24,1.33-.4,2L11,97C11.67,96.86,12.33,96.74,13,96.62Z"/><path class="cls-13" d="M19.28,96l45.45,45.45c0,.75-.06,1.51-.13,2.26L17,96.1C17.77,96,18.53,96,19.28,96Z"/><path class="cls-13" d="M26.58,96.36l37.77,37.77c.13.89.22,1.78.28,2.67L23.91,96.07C24.8,96.14,25.69,96.23,26.58,96.36Z"/><path class="cls-13" d="M35.76,98.61,62.1,125c.42,1.15.79,2.32,1.11,3.5L32.26,97.5C33.44,97.82,34.61,98.19,35.76,98.61Z"/><path class="cls-13" d="M51.84,108.87a44.56,44.56,0,0,1,5.69,7L44.86,103.18A44.56,44.56,0,0,1,51.84,108.87Z"/><path class="cls-13" d="M201.18,27.34l9.9,9.9a35,35,0,0,1-5.45-4.45A34.12,34.12,0,0,1,201.18,27.34Z"/><path class="cls-13" d="M196.73,17.48l24.21,24.21c-.92-.26-1.84-.54-2.74-.88L197.61,20.22C197.28,19.32,197,18.4,196.73,17.48Z"/><path class="cls-13" d="M195.62,11,227.46,42.8c-.69,0-1.39-.12-2.08-.22L195.84,13C195.74,12.35,195.67,11.66,195.62,11Z"/><path class="cls-13" d="M195.65,5.57l37.2,37.21c-.58,0-1.17.08-1.76.1L195.54,7.34C195.56,6.74,195.6,6.15,195.65,5.57Z"/><path class="cls-13" d="M196.36.87l41.19,41.19c-.51.12-1,.23-1.55.31L196.05,2.42C196.14,1.9,196.24,1.38,196.36.87Z"/><path class="cls-13" d="M197.58-3.32l44.16,44.17c-.46.17-.92.32-1.39.47L197.11-1.93C197.25-2.4,197.41-2.86,197.58-3.32Z"/><path class="cls-13" d="M199.2-7.11l46.33,46.33c-.42.21-.84.41-1.27.6L198.6-5.84C198.79-6.27,199-6.69,199.2-7.11Z"/><path class="cls-13" d="M201.18-10.54,249,37.24c-.38.25-.76.49-1.15.72L200.47-9.39Z"/><path class="cls-13" d="M203.49-13.64l48.57,48.57c-.34.29-.69.56-1,.83L202.66-12.6C202.93-12.95,203.2-13.3,203.49-13.64Z"/><path class="cls-13" d="M206.1-16.44l48.76,48.76c-.15.16-.3.32-.46.47l-.47.47L205.17-15.51l.46-.47C205.78-16.14,205.94-16.29,206.1-16.44Z"/><path class="cls-13" d="M209-18.95l48.36,48.37c-.27.35-.55.69-.83,1L208-18.12C208.31-18.4,208.65-18.68,209-18.95Z"/><path class="cls-13" d="M212.22-21.14,259.57,26.2l-.72,1.15L211.07-20.42C211.45-20.67,211.83-20.91,212.22-21.14Z"/><path class="cls-13" d="M215.77-23l45.66,45.66c-.19.43-.39.85-.6,1.27L214.51-22.41Q215.13-22.72,215.77-23Z"/><path class="cls-13" d="M219.68-24.5l43.24,43.24c-.14.47-.3.93-.47,1.39L218.29-24C218.75-24.2,219.21-24.36,219.68-24.5Z"/><path class="cls-13" d="M224-25.56,264,14.38c-.09.53-.19,1-.31,1.56L222.48-25.25C223-25.37,223.51-25.47,224-25.56Z"/><path class="cls-13" d="M228.94-26.06,264.48,9.48c0,.59,0,1.18-.1,1.76L227.18-26C227.76-26,228.36-26,228.94-26.06Z"/><path class="cls-13" d="M234.65-25.77,264.19,3.77c.09.69.17,1.39.22,2.08L232.57-26C233.26-25.93,234-25.86,234.65-25.77Z"/><circle class="cls-11" cx="194.38" cy="54.97" r="5.28"/><circle class="cls-11" cx="194.38" cy="26.91" r="5.28"/><circle class="cls-11" cx="181.31" cy="41" r="5.28"/><circle class="cls-11" cx="206.95" cy="41" r="5.28"/><circle class="cls-12" cx="30.26" cy="43.44" r="5.28"/><circle class="cls-12" cx="30.26" cy="15.38" r="5.28"/><circle class="cls-12" cx="17.18" cy="29.47" r="5.28"/><circle class="cls-12" cx="42.82" cy="29.47" r="5.28"/></g><text class="cls-14" transform="translate(156.3 74.49)"><tspan class="cls-15">A</tspan><tspan class="cls-16" x="7.76" y="0">u</tspan><tspan class="cls-17" x="14.41" y="0">st</tspan><tspan class="cls-18" x="23.89" y="0">ra</tspan><tspan class="cls-19" x="34.14" y="0">l</tspan><tspan class="cls-20" x="37" y="0">i</tspan><tspan class="cls-21" x="39.85" y="0">a</tspan><tspan x="46.03" y="0">n </tspan><tspan class="cls-22" x="55.6" y="0">C</tspan><tspan class="cls-23" x="63.4" y="0">u</tspan><tspan class="cls-24" x="70" y="0">rr</tspan><tspan class="cls-25" x="78.1" y="0">i</tspan><tspan class="cls-26" x="80.94" y="0">c</tspan><tspan class="cls-23" x="86.57" y="0">u</tspan><tspan class="cls-20" x="93.17" y="0">l</tspan><tspan class="cls-23" x="96.02" y="0">u</tspan><tspan class="cls-27" x="102.62" y="0">m</tspan><tspan class="cls-28"><tspan class="cls-29" x="-13.52" y="36.67">Y</tspan><tspan class="cls-30" x="9.37" y="36.67">e</tspan><tspan class="cls-31" x="31.82" y="36.67">a</tspan><tspan class="cls-32" x="53.65" y="36.67">r </tspan><tspan class="cls-33" x="79.06" y="36.67">1</tspan><tspan x="95.42" y="36.67">1</tspan></tspan><tspan class="cls-34" x="26.81" y="66.92">M</tspan><tspan class="cls-18" x="36.68" y="66.92">a</tspan><tspan class="cls-35" x="42.85" y="66.92">t</tspan><tspan x="46.79" y="66.92">h</tspan><tspan class="cls-36" x="53.44" y="66.92">s</tspan><tspan class="cls-37" x="58.89" y="66.92">p</tspan><tspan class="cls-38" x="65.59" y="66.92">a</tspan><tspan class="cls-39" x="71.77" y="66.92">c</tspan><tspan x="77.33" y="66.92">e </tspan><tspan class="cls-40" x="86.59" y="66.92">2</tspan><tspan class="cls-41" x="93.45" y="66.92">0</tspan><tspan class="cls-42" x="100.64" y="66.92">1</tspan><tspan x="105.41" y="66.92">9</tspan></text><line class="cls-43" x1="268.67" y1="124.35" x2="161.65" y2="124.35"/><g class="cls-10"><rect class="cls-44" x="119.51" y="-255.19" width="192.7" height="662.23" transform="translate(139.94 291.78) rotate(-90)"/><path class="cls-45" d="M96.61-39.53c-26.78-7.6-54,9.67-60.67,36.7-4.3,17.42-16.13,40.33-46.8,60.11C-69.74,95.25-81.1,221,40.39,196.41,142,175.84,174.75-17.36,96.61-39.53Z"/><path class="cls-45" d="M260.39,119c15.19.08,27-13,26.53-28.17-.28-9.78,2.59-23.56,15.82-38.44,25.41-28.57,13-96.35-47.28-65.66C205.07,12.34,216.07,118.72,260.39,119Z"/><circle class="cls-12" cx="117.7" cy="132.01" r="5.29"/><circle class="cls-12" cx="117.7" cy="103.93" r="5.29"/><circle class="cls-12" cx="104.62" cy="118.03" r="5.29"/><circle class="cls-12" cx="130.28" cy="118.03" r="5.29"/><path class="cls-46" d="M-21.92,151.67l31,31c-1.18-.33-2.35-.7-3.5-1.12L-20.8,155.17C-21.22,154-21.59,152.85-21.92,151.67Z"/><path class="cls-46" d="M-23.34,143.33l40.72,40.72c-.89-.07-1.78-.16-2.66-.28L-23.06,146C-23.18,145.11-23.27,144.22-23.34,143.33Z"/><path class="cls-46" d="M-23.31,136.43,24.28,184c-.75.06-1.51.1-2.26.13l-45.46-45.46C-23.42,137.94-23.37,137.18-23.31,136.43Z"/><path class="cls-46" d="M-22.4,130.42l52.69,52.69c-.66.15-1.32.28-2,.39l-51.09-51.09C-22.68,131.74-22.55,131.08-22.4,130.42Z"/><path class="cls-46" d="M-20.84,125.06l56.49,56.49c-.59.22-1.19.42-1.79.6l-55.3-55.3C-21.26,126.25-21.06,125.65-20.84,125.06Z"/><path class="cls-46" d="M-18.76,120.22l59.25,59.25c-.53.27-1.08.53-1.62.77l-58.4-58.4C-19.29,121.29-19,120.75-18.76,120.22Z"/><path class="cls-46" d="M-16.23,115.84l61.1,61.1c-.48.31-1,.62-1.46.91L-17.14,117.3C-16.85,116.81-16.54,116.32-16.23,115.84Z"/><path class="cls-46" d="M-13.27,111.87,48.84,174c-.43.37-.87.72-1.32,1.07l-61.86-61.86C-14,112.74-13.64,112.3-13.27,111.87Z"/><path class="cls-46" d="M-9.94,108.28l62.37,62.37-.59.6c-.2.2-.4.4-.61.59l-62.36-62.36c.19-.21.39-.41.59-.61Z"/><path class="cls-46" d="M-6.22,105.08l61.85,61.85c-.34.45-.69.89-1.06,1.33L-7.55,106.14C-7.11,105.77-6.67,105.42-6.22,105.08Z"/><path class="cls-46" d="M-2.11,102.27l60.55,60.55c-.29.49-.6,1-.92,1.47l-61.1-61.1C-3.1,102.87-2.61,102.56-2.11,102.27Z"/><path class="cls-46" d="M2.43,99.88l58.4,58.4c-.25.55-.5,1.08-.77,1.62L.81,100.65C1.35,100.38,1.88,100.12,2.43,99.88Z"/><path class="cls-46" d="M7.43,98l55.31,55.31c-.19.6-.39,1.19-.6,1.78L5.65,98.57C6.24,98.36,6.83,98.16,7.43,98Z"/><path class="cls-46" d="M13,96.62l51.09,51.09c-.12.67-.24,1.33-.4,2L11,97C11.67,96.86,12.33,96.74,13,96.62Z"/><path class="cls-46" d="M19.28,96l45.45,45.45c0,.75-.06,1.51-.13,2.26L17,96.1C17.77,96,18.53,96,19.28,96Z"/><path class="cls-46" d="M26.58,96.36l37.77,37.77c.13.89.22,1.78.28,2.67L23.91,96.07C24.8,96.14,25.69,96.23,26.58,96.36Z"/><path class="cls-46" d="M35.76,98.61,62.1,125c.42,1.15.79,2.32,1.11,3.5L32.26,97.5C33.44,97.82,34.61,98.19,35.76,98.61Z"/><path class="cls-46" d="M51.84,108.87a44.56,44.56,0,0,1,5.69,7L44.86,103.18A44.56,44.56,0,0,1,51.84,108.87Z"/><path class="cls-46" d="M201.18,27.34l9.9,9.9a35,35,0,0,1-5.45-4.45A34.12,34.12,0,0,1,201.18,27.34Z"/><path class="cls-46" d="M196.73,17.48l24.21,24.21c-.92-.26-1.84-.54-2.74-.88L197.61,20.22C197.28,19.32,197,18.4,196.73,17.48Z"/><path class="cls-46" d="M195.62,11,227.46,42.8c-.69,0-1.39-.12-2.08-.22L195.84,13C195.74,12.35,195.67,11.66,195.62,11Z"/><path class="cls-46" d="M195.65,5.57l37.2,37.21c-.58,0-1.17.08-1.76.1L195.54,7.34C195.56,6.74,195.6,6.15,195.65,5.57Z"/><path class="cls-46" d="M196.36.87l41.19,41.19c-.51.12-1,.23-1.55.31L196.05,2.42C196.14,1.9,196.24,1.38,196.36.87Z"/><path class="cls-46" d="M197.58-3.32l44.16,44.17c-.46.17-.92.32-1.39.47L197.11-1.93C197.25-2.4,197.41-2.86,197.58-3.32Z"/><path class="cls-46" d="M199.2-7.11l46.33,46.33c-.42.21-.84.41-1.27.6L198.6-5.84C198.79-6.27,199-6.69,199.2-7.11Z"/><path class="cls-46" d="M201.18-10.54,249,37.24c-.38.25-.76.49-1.15.72L200.47-9.39Z"/><path class="cls-46" d="M203.49-13.64l48.57,48.57c-.34.29-.69.56-1,.83L202.66-12.6C202.93-12.95,203.2-13.3,203.49-13.64Z"/><path class="cls-46" d="M206.1-16.44l48.76,48.76c-.15.16-.3.32-.46.47l-.47.47L205.17-15.51l.46-.47C205.78-16.14,205.94-16.29,206.1-16.44Z"/><path class="cls-46" d="M209-18.95l48.36,48.37c-.27.35-.55.69-.83,1L208-18.12C208.31-18.4,208.65-18.68,209-18.95Z"/><path class="cls-46" d="M212.22-21.14,259.57,26.2l-.72,1.15L211.07-20.42C211.45-20.67,211.83-20.91,212.22-21.14Z"/><path class="cls-46" d="M215.77-23l45.66,45.66c-.19.43-.39.85-.6,1.27L214.51-22.41Q215.13-22.72,215.77-23Z"/><path class="cls-46" d="M219.68-24.5l43.24,43.24c-.14.47-.3.93-.47,1.39L218.29-24C218.75-24.2,219.21-24.36,219.68-24.5Z"/><path class="cls-46" d="M224-25.56,264,14.38c-.09.53-.19,1-.31,1.56L222.48-25.25C223-25.37,223.51-25.47,224-25.56Z"/><path class="cls-46" d="M228.94-26.06,264.48,9.48c0,.59,0,1.18-.1,1.76L227.18-26C227.76-26,228.36-26,228.94-26.06Z"/><path class="cls-46" d="M234.65-25.77,264.19,3.77c.09.69.17,1.39.22,2.08L232.57-26C233.26-25.93,234-25.86,234.65-25.77Z"/><circle class="cls-12" cx="194.38" cy="54.97" r="5.28"/><circle class="cls-12" cx="194.38" cy="26.91" r="5.28"/><circle class="cls-12" cx="181.31" cy="41" r="5.28"/><circle class="cls-12" cx="206.95" cy="41" r="5.28"/><circle class="cls-12" cx="30.26" cy="43.44" r="5.28"/><circle class="cls-12" cx="30.26" cy="15.38" r="5.28"/><circle class="cls-12" cx="17.18" cy="29.47" r="5.28"/><circle class="cls-12" cx="42.82" cy="29.47" r="5.28"/></g></g></svg>