<svg id="Layer_1" data-name="Layer 1" xmlns="http://www.w3.org/2000/svg" xmlns:xlink="http://www.w3.org/1999/xlink" viewBox="0 0 283 160"><defs><style>.cls-1{fill:none;}.cls-2{clip-path:url(#clip-path);}.cls-3{clip-path:url(#clip-path-2);}.cls-4{fill:#2e3696;}.cls-5{fill:#5758f7;}.cls-6{clip-path:url(#clip-path-3);}.cls-7{font-size:23.45px;font-family:ProximaNova-Semibold, Proxima Nova;font-weight:600;}.cls-8{fill:#26276d;}.cls-9{fill:#8182f9;}.cls-10{fill:#6f6ff8;}</style><clipPath id="clip-path"><path class="cls-1" d="M8.75-180h265.5a8.75,8.75,0,0,1,8.75,8.75v151.4H0v-151.4A8.75,8.75,0,0,1,8.75-180Z"/></clipPath><clipPath id="clip-path-2"><rect class="cls-1" x="-5.78" y="-187.03" width="295.37" height="168.93"/></clipPath><clipPath id="clip-path-3"><path class="cls-1" d="M8.75,0H274.29A8.74,8.74,0,0,1,283,8.75V160.17H0V8.75A8.75,8.75,0,0,1,8.75,0Z"/></clipPath></defs><g class="cls-2"><g class="cls-3"><path class="cls-4" d="M60-59.84c8.88-17.34,35.09-41.55,73.3-33.73s59.93,39.95,76.43,67.74-152,59.92-152,59.92S47.62-35.68,60-59.84Z"/><path class="cls-5" d="M403.69-28.13c-48.66-72.14-95.25-87.16-125.63-76.61-23.51,8.16-44.13,46-53.47,52.3C208-41.17,192-30.24,159.9-42.15a64.88,64.88,0,0,0-47.33,0c-32.09,11.91-37.95,10.24-49.2,9.33S23.83-84.39-5.6-92.59c-27.59-7.68-63.25,5.36-105.25,64.3C-149.14,25.44,49.78,19.42,85.32,17.93c-.95,4.71-1.46,7.77-1.46,7.77l52.37-4.29,52.38,4.29s-.51-3.06-1.46-7.77C222.69,19.42,440.57,26.57,403.69-28.13Z"/></g></g><g class="cls-6"><text class="cls-7" transform="translate(84.91 130.21)">Meet the teachers</text><rect class="cls-8" x="-5.6" y="-5.62" width="295.21" height="170.71"/><rect class="cls-9" x="-1.61" y="-17.12" width="285.33" height="201.75"/><path class="cls-10" d="M257.92,36.73c-8.7-2.52-17.89-2.74-26.76-4.54A23.2,23.2,0,0,1,224.58,30a19.31,19.31,0,0,1-5.15-4.38c-10-11.59-10.79-28.11-15.56-42.78h79.85V53.71A53,53,0,0,0,257.92,36.73Z"/><path class="cls-5" d="M107.8-9.5c.57,10.78.21,21.78,3.23,32.14,2.68,9.2,8.17,18.76,17.87,21.46,5.06,1.4,10.43,1.71,15.28,3.71C152,51,157.56,58.41,160.54,66.35c3,8.1,2.15,17.06,4.94,25a41.47,41.47,0,0,0,12.64,17.51c13.13,10.43,32.38,9.45,47.79,2.87,10.59-4.52,21-11.53,32.48-10.41,11.85,1.16,21.25,11.18,25.33,22.42v60.9H234.67c-.41-1-.79-1.92-1.16-2.88q-2.5-6.68-4.39-13.55c-1.75-6.45-3.18-13.23-7.24-18.53-6.91-9-21-13.56-31.84-15-11.31-1.55-22.77.21-34.16.84-23.29,1.29-46.88-7.71-52.48-32.8-4.18-18.72,3.26-40.71-8.21-57.55-6.28-9.21-17.77-12.67-26.62-18.68C58.94,19.89,50.68,10,47.18-1.23a70.35,70.35,0,0,1-2.62-15.89h62.59C107.46-14.58,107.66-12,107.8-9.5Z"/><path class="cls-10" d="M31,83.06c11,6.67,14.3,20.82,16.75,33.45s6.14,26.79,17.43,33c8.45,4.62,18.75,3.3,28.3,4.54a51.86,51.86,0,0,1,21.46,7.85c4.81,3.1,9.2,7.14,11.69,12.31a28.62,28.62,0,0,1,2.56,10.46H50.68A38.1,38.1,0,0,1,46,177.36,96.93,96.93,0,0,1,36.72,150c-1.72-9.69-2.41-20.58-9.58-27.31-6-5.58-14.7-6.61-22.72-8.16a55.74,55.74,0,0,1-6-1.48V71.33A24.29,24.29,0,0,0,.61,73C9.62,78.83,21.82,77.5,31,83.06Z"/></g></svg>