<svg id="Layer_1" data-name="Layer 1" xmlns="http://www.w3.org/2000/svg" xmlns:xlink="http://www.w3.org/1999/xlink" viewBox="0 0 283 160"><defs><style>.cls-1{fill:none;}.cls-2{clip-path:url(#clip-path);}.cls-3{fill:#434aa0;}.cls-4{fill:#2e3696;}.cls-5{clip-path:url(#clip-path-2);}.cls-6{font-size:23.45px;font-family:ProximaNova-Semibold, Proxima Nova;font-weight:600;}.cls-7{fill:#26276d;}.cls-8{clip-path:url(#clip-path-3);}.cls-9{fill:#3b429c;}.cls-10{fill:#6b6cf8;}.cls-11{fill:#4d54a6;}.cls-12{clip-path:url(#clip-path-4);}.cls-13{clip-path:url(#clip-path-5);}.cls-14{fill:#5758f7;}.cls-15{fill:#fd7b33;}.cls-16{fill:#8182f9;}.cls-17{fill:#6f6ff8;}.cls-18{fill:#1cb7c8;}</style><clipPath id="clip-path"><path class="cls-1" d="M-294.25,0h265.5A8.75,8.75,0,0,1-20,8.75v151.4H-303V8.75A8.75,8.75,0,0,1-294.25,0Z"/></clipPath><clipPath id="clip-path-2"><path class="cls-1" d="M8.75,0h265.5A8.75,8.75,0,0,1,283,8.75v151.4H0V8.75A8.75,8.75,0,0,1,8.75,0Z"/></clipPath><clipPath id="clip-path-3"><rect class="cls-1" x="-6.48" y="-49.78" width="417.51" height="213.73"/></clipPath><clipPath id="clip-path-4"><path class="cls-1" d="M311.75,0h265.5A8.75,8.75,0,0,1,586,8.75v151.4H303V8.75A8.75,8.75,0,0,1,311.75,0Z"/></clipPath><clipPath id="clip-path-5"><rect class="cls-1" x="294.3" y="-10.52" width="298.9" height="174.35"/></clipPath></defs><g class="cls-2"><path class="cls-3" d="M56.85,59.31C55.46,75.49,45.62,89.69,33.39,98.67s-.66,57.64-15,61C-5.9,165.4-45,153.19-74,134.5c-34.54-22.28-67.39-52.71-99.06-66.68a130.59,130.59,0,0,0-69.44-10.14c-10.08,1.31-20.51,3.79-30.2.44-14-4.83-22.43-20.2-29.58-34.38C-304.65,19,40.05,13.93,41.27,18.4c3.42,12.54,6.84,25.1,14.29,35.09Z"/><path class="cls-4" d="M10.29-9.63c1.93,14-5.75,28-16.79,36.74s-25,13-38.86,15.59c-18.29,3.44-37.21,4.35-55.51,1-15.74-2.92-30.72-8.94-46.25-12.8-27.3-6.8-57.19-6.59-82.51,5.69-32.35,15.7-52.52,48-75.45,75.73-6.63,8-14.1,16.06-24,19.26-11.72,3.8-24.59,0-35.58-5.56-24.61-12.47-43.8-33.39-61.09-54.89-3.52-4.38-7-8.84-10.16-13.51-3.36-5-1.92-59.47,2.81-63a50.4,50.4,0,0,1,13.5-7c10.34-3.6,21.44-4.33,32.38-4.64,43-1.23,86,3.45,129,4.7,87.2,2.53,174.45-9,261.56-4.46,1.77.09,4,2.3,2.37,2.94Z"/></g><g class="cls-5"><text class="cls-6" transform="translate(84.9 130.19)">Meet the teachers</text><rect class="cls-7" x="-5.6" y="-5.62" width="295.18" height="170.69"/><g class="cls-8"><rect class="cls-9" x="35.02" y="-22.54" width="319.42" height="179"/><path class="cls-10" d="M210.73-58.45l54.61,46.38S260,9.3,245.59,17.3s-35.77,5.87-49-6.4-26.77-23.49-42.78-23-31,8-43.24,31c-3.54,6.62-6.5,12.66-9.85,18,6.61-3.23,14-8.54,22.13-17C140.43,1.82,165,5,181,24S203.42,62.8,240.78,59s42.17-32.62,48-46,19.75-29.28,30.43-38.93C328.25-34,239-52.76,210.73-58.45Z"/><path class="cls-11" d="M153.78-12.06c16-.53,29.51,10.68,42.78,23s34.62,14.41,49,6.4,19.75-29.37,19.75-29.37L210.73-58.45c-5.29-1.06-8.46-1.67-8.46-1.67H48.36C45.1-51.7,33.2-17.95,40.61,8.11c8.54,30,29.36,32.68,40,33.21a40.11,40.11,0,0,0,20-4.4c3.35-5.36,6.31-11.4,9.85-18C122.82-4,137.76-11.52,153.78-12.06Z"/><path class="cls-11" d="M357.15,24c-2.68-3.7-5.64-9.67-9.55-15.8A73.07,73.07,0,0,0,336.86,12c-43.23,19.22-17.61,95.55-43.23,124.38-5.59,6.28-11.54,10.41-17.71,12.73,13.61,15.28,29.49,16.27,40.13,12.89,11.74-3.74,20.81-11.75,23.48-29.36S328.86,76,359.28,66.41,411,84,411,84V53.6C372.56,55.73,363.55,32.78,357.15,24Z"/><path class="cls-10" d="M359.28,66.41C328.86,76,342.2,115,339.53,132.6S327.79,158.22,316.05,162c-10.64,3.38-26.52,2.39-40.13-12.89a62.75,62.75,0,0,1-4.18-5.26c-14.41-20.28-42.7-63.52-83.27-59.25a32.75,32.75,0,0,0-13.36,4.5c-29.82,17.58-41,79-75.25,84.64H411V84S389.71,56.8,359.28,66.41Z"/><path class="cls-11" d="M202.27-60.12s-15.93,23,5.42,47,57.11,13.36,74.19,8,23.49-13.35,42.17-7.48C334.92-9.18,342.17-.37,347.6,8.15,385.13-1.88,411,25.77,411,25.77v-85.3Z"/><path class="cls-11" d="M129.43,78.66c-26.09,3-38.26,25.18-53.07,46.51,3.94,6,6.68,11.85,7,17.57,1.06,22.42-9.08,31-9.08,31H99.86c34.29-5.64,45.43-67.06,75.25-84.64C162.94,80,150.38,76.22,129.43,78.66Z"/><path class="cls-11" d="M76.36,125.17C64.89,107.82,43.28,90.06,43.28,75c0-20.28,15.48-36.12,15.48-36.12L-6.48,5.93V173.7s35.81-1.42,61.59-23.58C63.47,142.94,70.15,134.13,76.36,125.17Z"/><path class="cls-10" d="M83.32,142.74c-.28-5.72-3-11.62-7-17.57-6.21,9-12.89,17.77-21.25,25C29.33,172.28-6.48,173.7-6.48,173.7H74.24S84.38,165.16,83.32,142.74Z"/><path class="cls-10" d="M80.65,41.32c-10.68-.53-31.5-3.2-40-33.21C33.2-17.95,45.1-51.7,48.36-60.12H-6.48V21.57s22.54,45.91,61,41.1c27.36-3.42,37.94-12.51,46.2-25.75A40.11,40.11,0,0,1,80.65,41.32Z"/></g></g><g class="cls-12"><g class="cls-13"><rect class="cls-7" x="422.51" y="-255.19" width="192.7" height="662.23" transform="translate(442.94 594.78) rotate(-90)"/><path class="cls-4" d="M399.61-39.53c-26.78-7.6-54,9.67-60.67,36.7-4.3,17.42-16.13,40.33-46.8,60.11-58.88,38-70.24,163.73,51.25,139.13C445,175.84,477.75-17.36,399.61-39.53Z"/><path class="cls-4" d="M221.43,75.89c15.19.08,27-13,26.53-28.16-.28-9.79,2.59-23.57,15.82-38.45,25.41-28.57,13-96.35-47.28-65.65C166.11-30.72,177.11,75.66,221.43,75.89Z"/><circle class="cls-14" cx="279.53" cy="35.24" r="3.3"/><circle class="cls-14" cx="279.53" cy="17.71" r="3.3"/><circle class="cls-14" cx="271.36" cy="26.51" r="3.3"/><circle class="cls-14" cx="202.61" cy="134" r="3.3"/><circle class="cls-14" cx="202.61" cy="116.47" r="3.3"/><circle class="cls-14" cx="194.44" cy="125.28" r="3.3"/><circle class="cls-14" cx="210.46" cy="125.28" r="3.3"/><path class="cls-15" d="M281.08,151.67l31,31c-1.18-.33-2.35-.7-3.5-1.12L282.2,155.17C281.78,154,281.41,152.85,281.08,151.67Z"/><path class="cls-15" d="M279.66,143.33l40.72,40.72c-.89-.07-1.78-.16-2.66-.28L279.94,146C279.82,145.11,279.73,144.22,279.66,143.33Z"/><path class="cls-15" d="M279.69,136.43,327.28,184c-.75.06-1.51.1-2.26.13l-45.46-45.46C279.58,137.94,279.63,137.18,279.69,136.43Z"/><path class="cls-15" d="M280.6,130.42l52.69,52.69c-.66.15-1.32.28-2,.39l-51.09-51.09C280.32,131.74,280.45,131.08,280.6,130.42Z"/><path class="cls-15" d="M282.16,125.06l56.49,56.49c-.59.22-1.19.42-1.79.6l-55.3-55.3C281.74,126.25,281.94,125.65,282.16,125.06Z"/></g><g class="cls-13"><rect class="cls-16" x="422.51" y="-255.19" width="192.7" height="662.23" transform="translate(442.94 594.78) rotate(-90)"/><path class="cls-17" d="M399.61-39.53c-26.78-7.6-54,9.67-60.67,36.7-4.3,17.42-16.13,40.33-46.8,60.11-58.88,38-70.24,163.73,51.25,139.13C445,175.84,477.75-17.36,399.61-39.53Z"/><path class="cls-4" d="M221.43,75.89c15.19.08,27-13,26.53-28.16-.28-9.79,2.59-23.57,15.82-38.45,25.41-28.57,13-96.35-47.28-65.65C166.11-30.72,177.11,75.66,221.43,75.89Z"/><circle class="cls-14" cx="279.53" cy="35.24" r="3.3"/><circle class="cls-14" cx="279.53" cy="17.71" r="3.3"/><circle class="cls-14" cx="271.36" cy="26.51" r="3.3"/><circle class="cls-14" cx="202.61" cy="134" r="3.3"/><circle class="cls-14" cx="202.61" cy="116.47" r="3.3"/><circle class="cls-14" cx="194.44" cy="125.28" r="3.3"/><circle class="cls-14" cx="210.46" cy="125.28" r="3.3"/><path class="cls-18" d="M281.08,151.67l31,31c-1.18-.33-2.35-.7-3.5-1.12L282.2,155.17C281.78,154,281.41,152.85,281.08,151.67Z"/><path class="cls-18" d="M279.66,143.33l40.72,40.72c-.89-.07-1.78-.16-2.66-.28L279.94,146C279.82,145.11,279.73,144.22,279.66,143.33Z"/><path class="cls-18" d="M279.69,136.43,327.28,184c-.75.06-1.51.1-2.26.13l-45.46-45.46C279.58,137.94,279.63,137.18,279.69,136.43Z"/><path class="cls-18" d="M280.6,130.42l52.69,52.69c-.66.15-1.32.28-2,.39l-51.09-51.09C280.32,131.74,280.45,131.08,280.6,130.42Z"/><path class="cls-18" d="M282.16,125.06l56.49,56.49c-.59.22-1.19.42-1.79.6l-55.3-55.3C281.74,126.25,281.94,125.65,282.16,125.06Z"/></g></g></svg>