<svg id="Layer_1" data-name="Layer 1" xmlns="http://www.w3.org/2000/svg" viewBox="0 0 100 100"><defs><style>.cls-1{fill:#21374d;}</style></defs><path class="cls-1" d="M97.07,78.54H2.93A2.93,2.93,0,0,0,0,81.47a8.78,8.78,0,0,0,8.79,8.79H91.21A8.78,8.78,0,0,0,100,81.47,2.93,2.93,0,0,0,97.07,78.54Z"/><path class="cls-1" d="M29.49,28.28v23.4a28.53,28.53,0,0,1,9.5.58,34,34,0,0,1,8.08,3.37V33.2a33.53,33.53,0,0,0-9.5-4.55A23.08,23.08,0,0,0,29.49,28.28Z"/><path class="cls-1" d="M62.43,28.65a33.55,33.55,0,0,0-9.5,4.54V55.63A34,34,0,0,1,61,52.26a28.57,28.57,0,0,1,9.5-.58V28.28A23.33,23.33,0,0,0,62.43,28.65Z"/><path class="cls-1" d="M94.14,17a2.93,2.93,0,0,0-2.93-2.93H8.79A2.93,2.93,0,0,0,5.86,17V72.68H94.14ZM76.37,55.1A3,3,0,0,1,72.73,58a24.49,24.49,0,0,0-10.3,0c-5.23,1.3-10.62,5.32-10.67,5.36a3,3,0,0,1-3.52,0c-.05,0-5.47-4.07-10.67-5.36a24.34,24.34,0,0,0-10.3,0,2.93,2.93,0,0,1-3.64-2.85V25.81A2.92,2.92,0,0,1,25.85,23,30,30,0,0,1,39,23a38.59,38.59,0,0,1,11,5.14A38.59,38.59,0,0,1,61,23a29.83,29.83,0,0,1,13.14,0,2.92,2.92,0,0,1,2.22,2.84Z"/></svg>