<svg id="Layer_1" data-name="Layer 1" xmlns="http://www.w3.org/2000/svg" viewBox="0 0 100 100"><defs><style>.cls-1{fill:#21374d;}.cls-2,.cls-3{fill:#fff;}.cls-3{stroke:#fff;stroke-miterlimit:10;}</style></defs><path class="cls-1" d="M97.07,78.72H2.93A2.93,2.93,0,0,0,0,81.65a8.79,8.79,0,0,0,8.79,8.79H91.21A8.79,8.79,0,0,0,100,81.65,2.93,2.93,0,0,0,97.07,78.72Z"/><path class="cls-1" d="M94.14,17.2a2.93,2.93,0,0,0-2.93-2.93H8.79A2.93,2.93,0,0,0,5.86,17.2V72.86H94.14Z"/><path class="cls-2" d="M71.77,55.68H71.7a2.72,2.72,0,0,0-2.65,2.79v2.18a.79.79,0,0,1-1.58,0v-4a2.6,2.6,0,1,0-5.17,0v4.26a.79.79,0,0,1-1.57,0V55.46a2.73,2.73,0,0,0-2.62-2.82H58a2.63,2.63,0,0,0-2.58,2.7v6.11a.79.79,0,1,1-1.57,0v-20a2.63,2.63,0,1,0-5.25,0l0,23a.79.79,0,0,1-.52.74.8.8,0,0,1-.87-.24L44.46,61.6a4.16,4.16,0,0,0-3-1.56,4.07,4.07,0,0,0-3.08,1.1l0,0-.54.45L47.4,79.94a8.46,8.46,0,0,0,7.43,4.7h11c4.69,0,8.51-4.13,8.52-9.18v-6.3c0-4.32,0-5.91,0-10.67A2.71,2.71,0,0,0,71.77,55.68Z"/><path class="cls-3" d="M44.1,41.7a.78.78,0,0,0,.78-.78,6.35,6.35,0,1,1,12.69,0,.79.79,0,0,0,1.57,0,7.92,7.92,0,1,0-15.83,0A.78.78,0,0,0,44.1,41.7Z"/></svg>