<svg width="737" height="370" xmlns="http://www.w3.org/2000/svg" xmlns:xlink="http://www.w3.org/1999/xlink"><defs><rect id="a" x="20.238" y="20.214" width="384.524" height="242.571" rx="8"/><filter x="-21%" y="-27.8%" width="142%" height="155.6%" filterUnits="objectBoundingBox" id="b"><feOffset dy="3" in="SourceAlpha" result="shadowOffsetOuter1"/><feGaussianBlur stdDeviation="14" in="shadowOffsetOuter1" result="shadowBlurOuter1"/><feColorMatrix values="0 0 0 0 0.203921569 0 0 0 0 0.28627451 0 0 0 0 0.368627451 0 0 0 0.15 0" in="shadowBlurOuter1" result="shadowMatrixOuter1"/><feMerge><feMergeNode in="shadowMatrixOuter1"/><feMergeNode in="SourceGraphic"/></feMerge></filter><filter x="-104.2%" y="-103.3%" width="308.3%" height="305.8%" filterUnits="objectBoundingBox" id="c"><feOffset in="SourceAlpha" result="shadowOffsetOuter1"/><feGaussianBlur stdDeviation="31" in="shadowOffsetOuter1" result="shadowBlurOuter1"/><feColorMatrix values="0 0 0 0 0 0 0 0 0 0 0 0 0 0 0 0 0 0 0.32 0" in="shadowBlurOuter1" result="shadowMatrixOuter1"/><feMerge><feMergeNode in="shadowMatrixOuter1"/><feMergeNode in="SourceGraphic"/></feMerge></filter></defs><g fill="none" fill-rule="evenodd"><path fill="#F1F1F3" d="M227 103h283v72H227z"/><path fill="#34495E" d="M0 290h737v80H0z"/><path d="M485.094 290H705c-11.624-53.333-64.567-80-158.828-80-94.261 0-114.62 26.667-61.078 80z" fill="#E1E2F1"/><path d="M268 347.318c-61.948 0-245.924 17.853-211.924-117.327 14.306-56.876 117.635-87.608 189.613-123.628 60.39-30.22 80.733-114.59 171-105.707 109.14 10.738 93.445 121.446 93.445 229.335 0 55.442-50.014 78.502-100.134 99.85-47.413 20.195-89.558 17.477-142 17.477z" fill="#0875BE" opacity=".28"/><path d="M175.014 69.458c4.286-1.22 2.33-7.676-1.949-6.458-4.285 1.22-2.33 7.676 1.949 6.458zm37.587 34.78c4.285-1.22 2.33-7.677-1.948-6.459-4.287 1.22-2.33 7.677 1.948 6.459zm-43.37-.966c4.286-1.221 2.33-7.677-1.948-6.459-4.286 1.22-2.33 7.676 1.948 6.459zm-50.115 4.83c4.285-1.219 2.33-7.676-1.95-6.458-4.285 1.219-2.329 7.675 1.95 6.458zm31.486 47.509c4.285-1.22 2.329-7.676-1.95-6.46-4.285 1.22-2.33 7.677 1.95 6.46zm4 28c4.285-1.22 2.329-7.676-1.95-6.46-4.285 1.22-2.33 7.677 1.95 6.46zM99.84 160.27c4.286-1.219 2.33-7.676-1.949-6.458-4.285 1.22-2.33 7.677 1.949 6.459zm26.76-18.66c4.287-1.22 2.331-7.677-1.948-6.459-4.285 1.22-2.33 7.677 1.949 6.459zm46-7c4.287-1.22 2.331-7.677-1.948-6.459-4.285 1.22-2.33 7.677 1.949 6.459zm-30.354-12.017c4.285-1.22 2.33-7.677-1.948-6.459-4.287 1.22-2.33 7.677 1.948 6.459zM86.347 85.882c4.287-1.22 2.33-7.677-1.948-6.459-4.285 1.22-2.33 7.677 1.948 6.459zm34.675 84.355c-4.286 1.219-2.33 7.676 1.949 6.458 4.285-1.219 2.33-7.675-1.949-6.458zm-30.82-42.813c4.287-1.22 2.33-7.676-1.948-6.458-4.285 1.22-2.33 7.676 1.948 6.458zm55.399-39.966c4.286-1.22 2.33-7.676-1.949-6.458-4.285 1.22-2.33 7.676 1.949 6.458zm2-32.847c4.286-1.22 2.33-7.677-1.949-6.459-4.285 1.22-2.33 7.677 1.949 6.459zm-30 26c4.286-1.22 2.33-7.676-1.948-6.46-4.287 1.22-2.33 7.677 1.947 6.46zm-10-29c4.286-1.22 2.33-7.676-1.948-6.46-4.287 1.22-2.33 7.677 1.947 6.46z" fill="#D5E8F9" opacity=".6"/><path d="M661.6 121.204c4.287-1.22 2.331-7.676-1.948-6.459-4.285 1.221-2.33 7.677 1.949 6.459zm-35 67.407c4.287-1.221 2.331-7.677-1.948-6.459-4.285 1.22-2.33 7.676 1.949 6.459zm55.001-40c4.285-1.22 2.33-7.677-1.948-6.459-4.287 1.22-2.33 7.677 1.948 6.459zm-56 88c4.285-1.22 2.33-7.677-1.948-6.459-4.287 1.22-2.33 7.677 1.948 6.459zm23.052-91.459c-4.286 1.22-2.33 7.676 1.948 6.459 4.286-1.221 2.33-7.677-1.948-6.459zm-51.537 3.103c4.285-1.22 2.33-7.677-1.95-6.459-4.285 1.22-2.329 7.675 1.95 6.459zm46.486 59.356c4.285-1.22 2.329-7.676-1.95-6.46-4.285 1.22-2.33 7.677 1.95 6.46zm-65.762-7.187c4.286-1.22 2.33-7.676-1.949-6.458-4.285 1.22-2.33 7.676 1.949 6.458zm11.565-20.288c4.287-1.22 2.33-7.676-1.948-6.458-4.285 1.22-2.33 7.676 1.948 6.458zm30.841-17.39c4.285-1.22 2.33-7.676-1.948-6.458-4.287 1.22-2.33 7.676 1.948 6.458zm-55.899-36.712c4.287-1.22 2.33-7.676-1.948-6.458-4.285 1.22-2.33 7.676 1.948 6.458zm36.624 90.814c4.285-1.22 2.33-7.675-1.949-6.459-4.286 1.22-2.33 7.677 1.949 6.459zm-32.769-49.271c4.287-1.22 2.33-7.677-1.948-6.459-4.285 1.22-2.33 7.677 1.948 6.459zm55.399-39.966c4.286-1.22 2.33-7.677-1.949-6.459-4.285 1.22-2.33 7.677 1.949 6.459zm41 53c4.286-1.22 2.33-7.677-1.949-6.459-4.285 1.22-2.33 7.677 1.949 6.459zm-69.414-59.407c4.287-1.22 2.331-7.675-1.947-6.459-4.287 1.22-2.33 7.677 1.947 6.459z" fill="#E1E2F1" opacity=".6"/><g transform="translate(156 55)"><rect stroke="#F1F2F3" stroke-width="4" fill="#FFF" x="2" y="2" width="421" height="279" rx="8"/><use fill="#DBE2E8" xlink:href="#a"/></g><g filter="url(#b)" opacity=".9" transform="translate(227 91)"><path fill="#F1F2F3" d="M0 13.495h283V214H0z"/><path fill="#FFF" d="M6.738 35.667h119.361v43.378H6.738zM6.738 82.901h119.361v43.378H6.738zM6.738 131.099h57.755v72.297H6.738zM68.344 131.099h57.755v72.297H68.344zM129.949 35.667h147.276v167.73H129.949z"/><g transform="translate(136.687 55.91)"><rect fill="#FFEAE7" x="107.81" width="24.065" height="12.532" rx="2"/><rect fill="#34495E" y="1.928" width="36.578" height="1.928" rx=".964"/><rect fill="#34495E" x="50.054" y="1.928" width="17.327" height="1.928" rx=".964"/><rect fill="#34495E" x="69.787" y="1.928" width="27.915" height="1.928" rx=".964"/><rect fill="#34495E" x="39.947" y="1.928" width="8.663" height="1.928" rx=".964"/><rect fill="#34495E" y="6.748" width="22.139" height="1.928" rx=".964"/><rect fill="#D4D7D9" y="13.495" width="13.476" height="1.928" rx=".964"/></g><g transform="translate(136.687 129.171)"><rect fill="#FFEAE7" x="107.81" width="24.065" height="12.532" rx="2"/><rect fill="#34495E" y="1.928" width="36.578" height="1.928" rx=".964"/><rect fill="#34495E" x="50.054" y="1.928" width="17.327" height="1.928" rx=".964"/><rect fill="#34495E" x="69.787" y="1.928" width="27.915" height="1.928" rx=".964"/><rect fill="#34495E" x="39.947" y="1.928" width="8.663" height="1.928" rx=".964"/><rect fill="#34495E" y="6.748" width="22.139" height="1.928" rx=".964"/><rect fill="#D4D7D9" y="13.495" width="13.476" height="1.928" rx=".964"/></g><g transform="translate(136.687 94.468)"><rect fill="#FFEAE7" x="107.81" width="24.065" height="12.532" rx="2"/><rect fill="#34495E" y="1.928" width="25.99" height="1.928" rx=".964"/><rect fill="#34495E" x="39.947" y="1.928" width="52.942" height="1.928" rx=".964"/><rect fill="#34495E" x="27.915" y="1.928" width="8.663" height="1.928" rx=".964"/><rect fill="#34495E" y="6.748" width="79.895" height="1.928" rx=".964"/><rect fill="#D4D7D9" y="13.495" width="13.476" height="1.928" rx=".964"/></g><g transform="translate(136.687 167.73)"><rect fill="#FFEAE7" x="107.81" width="24.065" height="12.532" rx="2"/><rect fill="#34495E" y="1.928" width="25.99" height="1.928" rx=".964"/><rect fill="#34495E" x="39.947" y="1.928" width="52.942" height="1.928" rx=".964"/><rect fill="#34495E" x="27.915" y="1.928" width="8.663" height="1.928" rx=".964"/><rect fill="#D4D7D9" y="7.712" width="13.476" height="1.928" rx=".964"/></g><path fill="#F1F2F3" d="M6.738 45.306h119.361v1H6.738zM6.738 91.577h119.361v1H6.738zM6.738 149.414h57.755v1H6.738zM68.344 149.414h57.755v1H68.344z"/><path d="M96.48 140.143l-1.917-1.92a.786.786 0 0 1 0-1.11.784.784 0 0 1 1.11 0l1.916 1.92 1.917-1.92a.784.784 0 0 1 1.109 0 .786.786 0 0 1 0 1.11l-1.917 1.92 1.917 1.92a.786.786 0 0 1 0 1.11.784.784 0 0 1-1.11 0l-1.916-1.919-1.917 1.92a.784.784 0 0 1-1.109 0 .786.786 0 0 1 0-1.111l1.917-1.92z" fill="#D96C84" fill-rule="nonzero"/><path fill="#F1F2F3" d="M129.949 45.306h147.276v1H129.949z"/><rect fill="#D4D7D9" x="12.514" y="39.523" width="22.139" height="1.928" rx=".964"/><rect fill="#D4D7D9" x="12.514" y="86.757" width="22.139" height="1.928" rx=".964"/><rect fill="#34495E" x="12.514" y="112.784" width="17.327" height="1.928" rx=".964"/><rect fill="#34495E" x="41.391" y="112.784" width="17.327" height="1.928" rx=".964"/><rect fill="#34495E" x="73.156" y="112.784" width="17.327" height="1.928" rx=".964"/><rect fill="#34495E" x="102.034" y="112.784" width="17.327" height="1.928" rx=".964"/><rect fill="#D4D7D9" x="12.514" y="116.64" width="13.476" height="1.928" rx=".964"/><rect fill="#D4D7D9" x="41.391" y="116.64" width="13.476" height="1.928" rx=".964"/><rect fill="#D4D7D9" x="73.156" y="116.64" width="13.476" height="1.928" rx=".964"/><rect fill="#D4D7D9" x="102.034" y="116.64" width="13.476" height="1.928" rx=".964"/><rect fill="#D4D7D9" x="12.514" y="156.162" width="22.139" height="1.928" rx=".964"/><path d="M21.178 164.838H33.69a.964.964 0 1 1 0 1.928H21.18a.964.964 0 0 1 0-1.928zm18.29 0h7.697a.964.964 0 1 1 0 1.928h-7.698a.964.964 0 0 1 0-1.928z" fill="#0875BE"/><path d="M86.634 164.838h6.735a.964.964 0 1 1 0 1.928h-6.735a.964.964 0 0 1 0-1.928zm11.551 0h13.473a.964.964 0 1 1 0 1.928H98.185a.964.964 0 0 1 0-1.928z" fill="#34495E"/><rect fill="#0875BE" x="20.214" y="182.189" width="17.327" height="1.928" rx=".964"/><rect fill="#34495E" x="85.67" y="182.189" width="17.327" height="1.928" rx=".964"/><rect fill="#0875BE" x="20.214" y="190.865" width="17.327" height="1.928" rx=".964"/><path d="M21.178 173.514h19.25a.964.964 0 1 1 0 1.927h-19.25a.964.964 0 1 1 0-1.927zm24.065 0h2.885a.964.964 0 1 1 0 1.927h-2.885a.964.964 0 1 1 0-1.927zm6.738 0h7.698a.964.964 0 1 1 0 1.927H51.98a.964.964 0 1 1 0-1.927z" fill="#0875BE"/><path d="M86.634 173.514h1.922a.964.964 0 1 1 0 1.927h-1.922a.964.964 0 1 1 0-1.927zm5.776 0h19.248a.964.964 0 1 1 0 1.927H92.41a.964.964 0 1 1 0-1.927z" fill="#34495E"/><rect fill="#34495E" x="85.67" y="190.865" width="13.476" height="1.928" rx=".964"/><rect fill="#D4D7D9" x="74.119" y="156.162" width="22.139" height="1.928" rx=".964"/><rect fill="#D4D7D9" x="136.687" y="39.523" width="27.915" height="1.928" rx=".964"/><path d="M91.446 52.054h23.99a2 2 0 0 1 2 2v12.387a2 2 0 0 1-2 2h-23.99V52.054z" fill="#005E90"/><path fill="#0875BE" d="M53.905 52.054h39.466v16.387H53.905z"/><path fill="#D1E8FB" d="M35.616 52.054h18.289v16.387H35.616z"/><path fill="#E6E7E7" d="M17.327 52.054h18.289v16.387H17.327z"/><rect fill="#34495E" x="4.813" y="19.279" width="48.129" height="3.856" rx="1.928"/><rect fill="#9A9DAB" x="4.813" y="26.027" width="30.803" height="2.892" rx="1.446"/><path fill="#5E6D7F" d="M0 0h283v12.532H0z"/></g><path d="M265.153 227.468a1 1 0 1 1 1.693 1.064l-3.772 6a1 1 0 0 1-1.655.057l-2.227-3.06a1 1 0 0 1 1.616-1.177l1.359 1.866 2.986-4.75z" fill="#1ABC9C" fill-rule="nonzero"/><circle fill="#D5E8F9" cx="246" cy="194" r="6"/><circle fill="#E1E2F1" cx="275" cy="194" r="6"/><circle fill="#FFEAE7" cx="306" cy="194" r="6"/><circle fill="#D5E8F9" cx="335" cy="194" r="6"/><g filter="url(#c)" transform="translate(308 139)"><ellipse stroke="#21374D" stroke-width="11" fill="#FFF" cx="59.991" cy="60.102" rx="59.991" ry="60.102"/><path d="M85.073 55.457L51.8 34.494c-.984-.585-2.205-.488-3.128-.488-3.69 0-3.673 2.849-3.673 3.57v42.847c0 .61-.016 3.571 3.673 3.571.923 0 2.144.097 3.128-.488l33.272-20.963C87.803 60.918 87.332 59 87.332 59s.472-1.918-2.26-3.543z" fill="#21374D" fill-rule="nonzero"/></g><g transform="translate(301 262)" fill-rule="nonzero"><circle fill="#FFEAE7" cx="3" cy="3" r="3"/><path d="M3.454 4.103c.708-.16 1.177-.791 1.092-1.471-.086-.68-.698-1.192-1.426-1.192s-1.34.512-1.426 1.192c-.085.68.384 1.312 1.092 1.471-.744.09-1.41.48-1.826 1.067 1.2 1.107 3.12 1.107 4.32 0a2.617 2.617 0 0 0-1.826-1.067z" fill="#D96C84"/></g><g transform="translate(301 280)" fill-rule="nonzero"><circle fill="#FFEAE7" cx="3" cy="3" r="3"/><path d="M3.454 4.103c.708-.16 1.177-.791 1.092-1.471-.086-.68-.698-1.192-1.426-1.192s-1.34.512-1.426 1.192c-.085.68.384 1.312 1.092 1.471-.744.09-1.41.48-1.826 1.067 1.2 1.107 3.12 1.107 4.32 0a2.617 2.617 0 0 0-1.826-1.067z" fill="#D96C84"/></g><g transform="translate(301 253)" fill-rule="nonzero"><circle fill="#FFEAE7" cx="3" cy="3" r="3"/><path d="M3.454 4.103c.708-.16 1.177-.791 1.092-1.471-.086-.68-.698-1.192-1.426-1.192s-1.34.512-1.426 1.192c-.085.68.384 1.312 1.092 1.471-.744.09-1.41.48-1.826 1.067 1.2 1.107 3.12 1.107 4.32 0a2.617 2.617 0 0 0-1.826-1.067z" fill="#D96C84"/></g><g transform="translate(240 253)" fill-rule="nonzero"><circle fill="#D5E8F9" cx="3" cy="3" r="3"/><path d="M3.454 4.103c.708-.16 1.177-.791 1.092-1.471-.086-.68-.698-1.192-1.426-1.192s-1.34.512-1.426 1.192c-.085.68.384 1.312 1.092 1.471-.744.09-1.41.48-1.826 1.067 1.2 1.107 3.12 1.107 4.32 0a2.617 2.617 0 0 0-1.826-1.067z" fill="#0875BE"/></g><g transform="translate(240 270)" fill-rule="nonzero"><circle fill="#D5E8F9" cx="3" cy="3" r="3"/><path d="M3.454 4.103c.708-.16 1.177-.791 1.092-1.471-.086-.68-.698-1.192-1.426-1.192s-1.34.512-1.426 1.192c-.085.68.384 1.312 1.092 1.471-.744.09-1.41.48-1.826 1.067 1.2 1.107 3.12 1.107 4.32 0a2.617 2.617 0 0 0-1.826-1.067z" fill="#0875BE"/></g><g transform="translate(240 261)" fill-rule="nonzero"><circle fill="#D5E8F9" cx="3" cy="3" r="3"/><path d="M3.454 4.103c.708-.16 1.177-.791 1.092-1.471-.086-.68-.698-1.192-1.426-1.192s-1.34.512-1.426 1.192c-.085.68.384 1.312 1.092 1.471-.744.09-1.41.48-1.826 1.067 1.2 1.107 3.12 1.107 4.32 0a2.617 2.617 0 0 0-1.826-1.067z" fill="#0875BE"/></g><g transform="translate(240 280)" fill-rule="nonzero"><circle fill="#D5E8F9" cx="3" cy="3" r="3"/><path d="M3.454 4.103c.708-.16 1.177-.791 1.092-1.471-.086-.68-.698-1.192-1.426-1.192s-1.34.512-1.426 1.192c-.085.68.384 1.312 1.092 1.471-.744.09-1.41.48-1.826 1.067 1.2 1.107 3.12 1.107 4.32 0a2.617 2.617 0 0 0-1.826-1.067z" fill="#0875BE"/></g><g transform="translate(301 271)" fill-rule="nonzero"><circle fill="#FFEAE7" cx="3" cy="3" r="3"/><path d="M3.454 4.103c.708-.16 1.177-.791 1.092-1.471-.086-.68-.698-1.192-1.426-1.192s-1.34.512-1.426 1.192c-.085.68.384 1.312 1.092 1.471-.744.09-1.41.48-1.826 1.067 1.2 1.107 3.12 1.107 4.32 0a2.617 2.617 0 0 0-1.826-1.067z" fill="#D96C84"/></g><g fill-rule="nonzero"><g transform="translate(598.42 138.471)"><ellipse fill="#A1C5DC" cx="19.804" cy="19.841" rx="19.804" ry="19.841"/><path d="M21.865 27.303c4.718-1.041 7.844-5.168 7.275-9.604-.57-4.436-4.654-7.779-9.506-7.779s-8.936 3.343-9.505 7.779c-.57 4.436 2.557 8.563 7.275 9.604-4.96.59-9.4 3.13-12.172 6.963 8 7.22 20.805 7.22 28.805 0-2.772-3.833-7.211-6.373-12.172-6.963z" fill="#FFF" opacity=".8"/></g><g transform="translate(566.062 97)"><ellipse fill="#D4D7D9" cx="11.552" cy="11.573" rx="11.552" ry="11.573"/><path d="M12.853 15.707c2.752-.625 4.576-3.105 4.244-5.772-.332-2.666-2.715-4.674-5.545-4.674S6.339 7.269 6.007 9.935c-.332 2.667 1.492 5.147 4.244 5.772-2.894.355-5.484 1.881-7.1 4.185 4.666 4.34 12.135 4.34 16.802 0-1.617-2.304-4.206-3.83-7.1-4.185z" fill="#21374D"/></g></g><path d="M37 299.876c55.225-33.79 109.453-45.076 162.686-33.861 79.849 16.822 114.92 72.366 196.692 72.366 81.773 0-67.064 39.183-199.378 19.418-88.21-13.177-141.543-32.484-160-57.923z" fill="#34495E"/></g></svg>