<svg width="64" height="64" xmlns="http://www.w3.org/2000/svg"><g fill="#21374D" fill-rule="evenodd"><path d="M14.826 38.507l-5.459 5.46 10.67 10.67 5.459-5.459a28.52 28.52 0 0 1-10.67-10.67zM2.211 51.123a7.542 7.542 0 0 0 0 10.67c2.942 2.942 7.728 2.943 10.67 0l4.504-4.504-10.67-10.67-4.504 4.504z"/><path d="M39.446 0C52.985 0 64 11.016 64 24.556c0 13.54-11.015 24.556-24.554 24.556-13.54 0-24.554-11.016-24.554-24.556C14.892 11.016 25.907 0 39.446 0zm.446 14c-7.273 0-13.528 4.51-16 10.91 2.472 6.4 8.727 10.908 16 10.908 7.272 0 13.527-4.509 16-10.909-2.473-6.4-8.728-10.909-16-10.909zm0 18.182c-4.073 0-7.273-3.2-7.273-7.273 0-4.073 3.2-7.273 7.273-7.273 4.072 0 7.272 3.2 7.272 7.273 0 4.073-3.2 7.273-7.272 7.273zm0-11.637c-2.473 0-4.364 1.891-4.364 4.364s1.89 4.364 4.364 4.364c2.472 0 4.363-1.891 4.363-4.364s-1.89-4.364-4.363-4.364z" fill-rule="nonzero"/></g></svg>