<svg width="73" height="73" xmlns="http://www.w3.org/2000/svg"><g stroke="#2E3696" stroke-width="3" fill="none" fill-rule="evenodd" stroke-linecap="round" stroke-linejoin="round"><path d="M39.296 24H6.706A4.706 4.706 0 0 0 2 28.706v37.588A4.707 4.707 0 0 0 6.707 71h37.586c2.6 0 4.707-2.108 4.707-4.706v-32.65M29 35H11M40 47H11M40 59H11M46.375 15L44 28l13-2.375z"/><path d="M57.022 27l13.049-13.049a3.173 3.173 0 0 0 0-4.487l-6.535-6.535a3.174 3.174 0 0 0-4.487 0L46 15.977M68 7L53 22M45 24l4 4M44 29l-6.48 6L35 32.669"/></g></svg>