<svg width="52" height="68" xmlns="http://www.w3.org/2000/svg"><g transform="translate(2 2)" stroke="#2E3696" stroke-width="3" fill="none" fill-rule="evenodd" stroke-linecap="round" stroke-linejoin="round"><path d="M.255 10.928V6.73A6.342 6.342 0 0 1 6.597.388h34.806a6.342 6.342 0 0 1 6.342 6.342v50.635a6.342 6.342 0 0 1-6.342 6.342H6.587a6.342 6.342 0 0 1-6.342-6.342V16.197"/><circle cx="24" cy="56.783" r="1.583"/><path d="M13.818 16.208h20.364M13.818 24.684h20.364M13.818 29.525h15.37M13.818 34.366h20.364M13.818 39.207h17.8M36.643 49.849c2.543 0 4.606-1.92 4.606-4.29V11.306c0-2.37-2.063-4.29-4.606-4.29H11.357c-2.543 0-4.606 1.92-4.606 4.29v34.253c0 2.37 2.063 4.29 4.606 4.29h20.19"/></g></svg>