<svg id="Layer_1" xmlns="http://www.w3.org/2000/svg" width="831.3" height="81.6"><style>.st0{fill:#8f8f8f}</style><path class="st0" d="M0 0h70.7l1.6 29.2h-4.7C63.4 6.1 57.5 5.1 34.4 5.1c-7 0-8.7.5-8.7 4.4v27H30c10.2 0 14.9-4.3 15.6-15.5h5.3v37.1h-5.3c0-10.1-4.2-16.5-13.4-16.5h-6.4v30.5c0 4 1.6 4.4 8.7 4.4 27.3 0 28.9-2.4 35.1-25.1h4.7L72 81.6H0v-5.1h6.4c4.6 0 6.6-1.2 6.6-5.8V10.8C13 6.3 11 5 6.4 5H0V0zM79.2 23.3h28.1c12.1 0 19.2 2.7 23.7 7.7 5 5.7 7.6 12.9 7.6 22.2 0 7.8-2.9 16.2-8.1 21.2-5.9 5.6-12.1 7.3-23.9 7.3H79.2V78h4.6c3.3 0 4.7-.9 4.7-4.1V31c0-3.2-1.4-4.1-4.7-4.1h-4.6v-3.6zm18.6 51.5c0 2.8 1.2 3.1 6.2 3.1 11.5 0 15.6-1.3 18.9-5.4 3.9-4.8 4.9-11.1 4.9-20.1 0-19.9-6.3-25.5-22.7-25.5-6.7 0-7.3.8-7.3 3.6v44.3zM180.2 23.3h24.4v3.6c-9 .2-9.9 4-9.9 11.4v21.6c0 15.1-8 22.8-24.1 22.8-13.1 0-24.7-5.1-24.7-16.9V31c0-3.2-1.5-4.1-4.9-4.1h-5v-3.6h29.1v3.6h-4.8c-3.4 0-4.9.9-4.9 4.1v30.3c0 6.5.7 10.3 4.5 13.3 3.6 3 7.4 4 13.2 4 9.5 0 17.2-6.2 17.2-15.9V38.3c0-7.4-.9-11.1-10.2-11.4v-3.6z"/><path class="st0" d="M246.7 22.4h3l1.2 23.5h-3.4c-2.8-10.8-8.4-20.4-19.1-20.4-12.7 0-18 11.8-18 27 0 5.9.4 12.3 3.2 17.7 2.9 5.6 8.6 8.9 15 8.9 12.2 0 18-7.9 19.7-18.1l3.9.6c-1.9 13.1-10.1 21.1-24.6 21.1-7.8 0-15.3-3.4-20.5-8.9-5.1-5.4-7.4-12.8-7.4-20.1 0-20.1 14.9-31.9 29-31.9 4.8 0 10.5 1.8 14.5 5.6l3.5-5zM249.4 77.9c4.6-.1 7.2-2.4 8.8-6.3l20.5-49.8h3.4l22.4 52.6c1.3 3 2.8 3.5 7.5 3.5v3.6h-26v-3.6h2.1c5.1 0 6.6-.7 6.6-2.1 0-.7-.3-1.9-1.2-4l-4-9.6h-22.9l-2.3 6.4c-.8 2.3-1.3 3.7-1.3 4.6 0 3.8 3.6 4.5 8.7 4.6v3.6h-22.4v-3.5zM288 58.3l-10-23.7-9.7 23.7H288zM318.3 77.9h5.6c3.4 0 4.8-.9 4.8-4.2V30.6c0-3.7-.9-5-4.1-5-8.9 0-12.9 6.8-14.8 19.4h-3.4l1.4-23.1h51.5l1.4 23.1h-3.4c-2-12.6-6-19.4-14.8-19.4-3.3 0-4.1 1.2-4.1 5v43.1c0 3.3 1.5 4.2 4.8 4.2h5.6v3.7h-30.3v-3.7zM363.9 77.9h4.8c3.4 0 4.9-.9 4.9-4.2V29.8c0-3.3-1.5-4.2-4.9-4.2h-4.8v-3.7h28.9v3.7H388c-3.4 0-4.9.9-4.9 4.2v43.8c0 3.3 1.5 4.2 4.9 4.2h4.8v3.7h-28.9v-3.6zM424.3 82.8c-17.8 0-29.6-14.8-29.6-30.5 0-12.1 9.5-30.5 29.4-30.5 17.8 0 29.6 14.8 29.6 30.5 0 12.1-9.5 30.5-29.4 30.5zm-.1-57.3c-15.5 0-18.4 15.1-18.4 26.8 0 8.2.9 26.8 18.6 26.8 15.5 0 18.4-15.1 18.4-26.8 0-8.2-1-26.8-18.6-26.8zM495.5 21.9h24.3v3.7c-4.2.3-7.2 1.1-8.4 3.3s-1.6 5-1.6 9.4v44.5h-3.4l-38.2-50.7h-.2V68c0 6.7.9 9.5 10.1 9.8v3.7h-24.4v-3.7c7.7-.2 10-3.1 10-9.8V28.3c-1.9-2.4-4.1-2.7-8.7-2.7h-1.3v-3.7h17.8l33.9 44.5h.2V37.2c0-7.6-.9-11.4-10-11.7v-3.6zM630.8 0h28.9v5.1c-7.7.3-10 4-13 13.4l-20.1 64.2h-5.4l-19-56.6h-.2l-17.4 56.6h-5.4L553.9 10c-1.5-4.3-2.3-5-8-5h-1.8V0h33.4v5.1H571c-2.9 0-3.9 1-3.9 2.5 0 1.1.8 4 1.9 7.1l15.8 47.2h.2l14.3-45.2-3.1-8.7c-1-2.5-2.5-2.9-6.9-2.9h-3.7V0H620v5.1h-3.7c-5.7 0-6.4 1.7-6.4 3.7 0 2.7 1.3 6.3 2.7 10.6l14.3 42.5h.2l13.8-45c.7-2.3 1.2-4.4 1.2-6.2 0-4.7-5.5-5.4-11.3-5.7V0zM653.8 23H705l1.2 20.9h-3.4c-3.1-16.6-7.4-17.3-24-17.3-5.1 0-6.3.3-6.3 3.2v19.4h3c7.4 0 10.8-3.1 11.3-11.1h3.8v26.6h-3.8c0-7.2-3-11.9-9.7-11.9h-4.7v21.9c0 2.8 1.2 3.2 6.3 3.2 19.7 0 20.9-1.7 25.4-18h3.4l-1.6 21.7h-52.1v-3.7h4.7c3.3 0 4.7-.9 4.7-4.1v-43c0-3.2-1.4-4.1-4.7-4.1h-4.7V23zM710.2 23h51.1l1.2 20.9h-3.4c-3.1-16.6-7.4-17.3-24-17.3-5.1 0-6.3.3-6.3 3.2v19.4h3c7.4 0 10.8-3.1 11.3-11.1h3.8v26.6h-3.8c0-7.2-3-11.9-9.7-11.9h-4.7v21.9c0 2.8 1.2 3.2 6.3 3.2 19.7 0 20.9-1.7 25.4-18h3.4l-1.6 21.7h-52.1v-3.7h4.7c3.3 0 4.7-.9 4.7-4.1v-43c0-3.2-1.4-4.1-4.7-4.1h-4.7V23zM801.9 23h26v3.7c-6.4.2-10.6 2.9-15.1 7.1l-12 11.4 20.4 28.4c2 2.8 3.5 3.8 4.8 4 1.3.2 3.5.3 5.2.3v3.7h-28.7v-3.7h4.7c2.6 0 4-.2 4-1.5 0-1.2-1.1-2.8-2.1-4.2l-14.8-20.6-9.9 9.8v12.4c0 3.2 1.4 4.1 4.7 4.1h4.6v3.7h-28v-3.7h4.6c3.3 0 4.7-.9 4.7-4.1v-43c0-3.2-1.4-4.1-4.7-4.1h-4.6V23h28v3.7h-4.6c-3.3 0-4.7.9-4.7 4.1v24.8L806.7 34c1.4-1.4 2.8-3.4 2.8-4.8 0-1.6-1.5-2.5-6.1-2.5h-1.6V23z"/></svg>