<svg xmlns="http://www.w3.org/2000/svg" height="933" width="2500"><path d="M664.6 768.2c-40.3-5.9-75.6-22.9-102.5-49.6-22.5-22.3-37-46.7-47.8-80.3-16.8-52.4-16.8-119.7 0-171 16.2-49.7 52.8-93 97.5-115.4 62-31.1 149.2-29.2 206.6 4.6 51.7 30.4 82.9 84.4 91.6 158.2 2.7 22.5.9 70.1-3.3 89.8-17.1 80.4-67 136.6-140.1 157.8-7.9 2.3-20.1 5-27.1 5.9-14.9 2.1-60.4 2.1-74.9 0zm60.4-32.3c11.8-3.5 26.3-17.1 34.1-31.9 16-30.6 23.1-75.8 23.3-147.6.2-90-13.9-147.3-43.7-177.3-12.5-12.6-21.4-16.5-37.4-16.5-35.5.1-58 37.1-66.9 110-4.1 33.5-4.1 113.4 0 142.7 12.6 90.8 45.1 134.1 90.6 120.6zm653.9 32.2c-16.5-1.7-66.9-10.1-84.5-14.1l-12.2-2.8.9-65.1c2.3-156.7 2.6-242.2 1.1-325.3-1.5-81.5-1.9-90.1-5-102.1-4-15.3-9.7-25.9-16.6-30.8-2.7-1.9-10-4.6-16.2-6-20.7-4.7-19.6-3.9-20.1-13.4-.3-5.4.3-9 1.7-10.1 1.9-1.5 171.7-33.9 177.1-33.8 1.6 0 1.8 21.7 1 96.5-.6 53.1-.6 96.5-.2 96.5.5 0 6.7-2.7 13.8-6 21.4-9.9 41.2-14.2 69.9-15.2 19.1-.7 27.9-.2 37.7 1.8 64.1 13.3 111.5 65.7 128 141.6 4.3 19.8 5.9 69 3.1 93.7-2.4 21-9.4 49.3-16.7 67.7-27.4 69.3-86.2 114.6-164.2 126.3-18 2.8-74.4 3.1-98.6.6zm66.6-33c12.1-2.3 21.5-7.1 31.5-16.2 25.3-22.7 44.2-69.6 51.7-127.7 3-23.7 2.6-77.6-.7-97.3-9.1-53.4-28.7-88.5-57.3-102.6-11.9-5.9-13.7-6.3-27.8-6.3-10.1 0-18.7 1.1-26.1 3.2l-11 3.2-.8 60.8c-1 77.9 1.5 272.8 3.6 278.4 1.4 3.6 2.9 4.3 9.6 4.9 16 1.3 18.6 1.2 27.3-.4zm411.5 32.2c-82.5-14.9-141.5-73.4-160.8-159.4-2.5-11.1-3.6-23.5-4.2-47.4-1-37.9 2.1-61.4 11.9-90.7 18.8-56.1 52.4-95.9 101.3-119.7 51.6-25.2 122.2-26.8 167.8-3.9 51.4 25.8 81.7 77.2 89.4 152 1 10.1 1.6 22 1.3 26.6l-.5 8.3-123.1.4-123.1.4.5 14.5c1.1 33.7 8.3 63.5 21.7 89.4 6.1 11.8 10.9 18.2 22.7 30.1 26.6 26.9 53.1 37.3 94.8 37.3 30.3 0 52-6 74.8-20.8 6.4-4.1 12.8-7.5 14.4-7.5 3.5 0 11.5 10.3 11.5 14.8 0 7.3-23.9 31-47.1 46.7-19.1 12.9-49.3 24.5-75.5 29.1-18.4 3.2-59.6 3.1-77.8-.2zm52.3-271.1l28.9-1-1-20.6c-3.7-72.5-21.4-112.1-50.2-112.1-31.3 0-56.2 40.2-66.6 107.2-1.3 8.2-2.3 18-2.4 21.7v6.7l31.2-.5c17.1-.1 44.1-.8 60.1-1.4zm280.4 272.7c-29.6-3.2-76.8-13.5-92.5-20.2l-7.7-3.3-1-38c-.6-20.9-1.2-48.8-1.5-62.1l-.4-24.1 4.6-2.2c2.5-1.2 7.6-2.3 11.3-2.5l6.7-.3 5.7 14.1c22.4 55.1 48.7 84.9 83 93.9 13.1 3.5 37.6 3.5 47.3.1 27.2-9.6 42-30.1 42.2-58.2.2-33.3-18.1-49.2-87.2-76.2-42.8-16.7-57.7-25.3-75.5-43.5-19.2-19.6-28.4-42-30.1-73.1-2.1-37.6 9.7-69.3 35.8-96.3 26.2-27.2 60.3-41.9 106.7-46.1 40.9-3.7 103.6 4.9 136.5 18.9l6 2.5 1.1 33.9c.6 18.6 1.2 43.6 1.4 55.5l.3 21.6-8.1 3c-12.7 4.7-13.6 4.1-20.6-14.6-19.9-52.6-42.9-77.5-78.8-85.1-21.9-4.6-40.2.3-53.5 14.6-10.4 11.1-14.4 20.9-15.4 37.5-1.1 17.9 2.1 27.6 13.1 39.6 13.5 14.8 35.6 27.5 79.6 45.9 53.9 22.5 79.7 41.7 93.7 69.6 9.1 18.2 11.7 32.7 10.7 60.6-.7 21-1.4 25.3-6.1 39.3-15.5 45.9-50.6 76.1-104.8 90.2-18.4 4.8-21 5-57.5 5.4-21.2.2-41.4 0-45-.4zm-2097.6-10c-1.4-.6-2.1-4.7-2.1-12.4 0-13.8-.9-13.2 25.8-18.1 20.4-3.8 27.8-7.7 36.8-19.5 17.5-23 21.3-67.1 21.3-249.1 0-170.9-3.3-206.8-21.4-233.2-8-11.7-21.6-18.1-44.2-20.8l-17.5-2.1-.5-13.6-.5-13.6 5.5-1c3-.5 108.7-.8 234.9-.5l229.5.5 1.1 6.7c.6 3.7 1.6 41.2 2.2 83.4l1.1 76.7-11.8 3.6c-17.8 5.4-17.7 5.5-25.7-15.7-19.7-52.1-42.2-82.1-73.1-97.2-21.3-10.4-31.1-11.7-91.3-11.7h-52.3l-.9 8.7c-1.7 16.4-4.4 121.7-4.3 171.3v49.5l15.4-.1c8.5 0 25.1-.7 37.1-1.4 17.9-1.1 23.3-2 30.8-5.5 18.4-8.5 31-27.3 38.7-57.9l4-15.8 13.6-.5 13.6-.5v199.8l-13.6-.5-13.6-.5-3.9-15.8c-7.2-29.7-21.2-50.9-38.4-58.6-8-3.5-27.6-5.5-65.7-6.7l-17.9-.5v37.5c0 40.9 2.3 96.2 5.1 126.3 4 41.9 14.7 65 33.9 73.4 3.7 1.6 15.3 4.2 25.8 5.8 10.5 1.6 20.4 3.5 22 4.4 4.1 2.1 4.3 23.8.3 25.3-3.3 1.2-296.8 1.1-299.8-.1zm819.8-.3c-1.5-1-2-4.8-1.7-12.9l.5-11.5 5.8-1.2c3.2-.7 10.1-2 15.3-3 16.1-3 25.4-11.7 30.6-28.9 4.2-13.9 6.1-58.6 6.2-148.2.1-109.6-2.2-135.5-13.2-150.1-6-8-10.3-10.2-24.9-13-7.2-1.4-14.8-2.9-16.8-3.3-3.3-.7-3.7-1.8-3.7-9.9 0-7.9.5-9.4 3.7-10.7 5-2 169.7-35 175-35h4.1l-.8 24.5c-.4 13.5-1.2 33.1-1.6 43.7l-.8 19.1 6-10.8c19.1-34.5 40.5-55.8 69-68.9 15.6-7.2 26.1-9.3 45.4-9.3 22.9 0 45.8 7.5 45.8 15 0 5-40.4 111.7-42.6 112.6-1.1.4-9-2.6-17.5-6.7-17.8-8.6-34.6-12.7-50.8-12.7-20.2 0-42.8 7.5-51.7 17.1-3.8 4.1-3.8 4.3-4.8 65.4-.9 60.5 1.1 134.3 4.5 164 2.9 25.3 9.6 37.7 23.5 43.5 4.6 1.9 33.9 5.9 43.5 6 .7 0 1.1 5.8.8 12.9l-.5 12.9-123.1.4c-67.7.2-124-.2-125.2-1z" fill="#8f8f8f"/></svg>