<svg viewBox="0 0 258 38" width="258" height="38" xmlns="http://www.w3.org/2000/svg"><g fill="none" fill-rule="evenodd"><path d="M59.16 11.03h1.99l5.08 11.4c.44.99.94 2.37.94 2.37h.06s.52-1.38.97-2.37l5.08-11.4h1.96l1.55 19.4h-1.9l-1.08-13.58c-.08-1.05-.06-2.7-.06-2.7h-.06s-.58 1.71-1.02 2.7l-4.55 9.96h-1.79l-4.55-9.96c-.44-.97-1.05-2.76-1.05-2.76h-.06s.03 1.71-.06 2.76l-1.08 13.58h-1.9l1.53-19.4zM96.89 24.25h-7.81l-2.21 6.18h-2.01l7.12-19.4h2.04l7.12 19.4h-2.01l-2.24-6.18zm-3.92-11.21s-.41 1.6-.75 2.51l-2.59 7.04h6.68l-2.54-7.04c-.33-.91-.74-2.51-.74-2.51h-.06zM112.95 12.74h-6.98v-1.71h15.84v1.71h-6.95v17.69h-1.9V12.74zM130.34 11.03h1.9v8.83h11.26v-8.83h1.9v19.4h-1.9v-8.86h-11.26v8.86h-1.9zM156.25 26.81s2.01 2.13 5.08 2.13c2.12 0 3.86-1.27 3.86-3.37 0-4.88-9.69-3.64-9.69-9.66 0-2.79 2.46-5.22 6.04-5.22 3.37 0 5.19 1.88 5.19 1.88l-.94 1.6s-1.71-1.66-4.25-1.66c-2.48 0-4.08 1.63-4.08 3.34 0 4.61 9.69 3.28 9.69 9.66 0 2.9-2.24 5.24-5.88 5.24-3.97 0-6.15-2.48-6.15-2.48l1.13-1.46zM176.92 11.03h6.71c3.48 0 5.99 2.26 5.99 5.85 0 3.62-2.51 5.93-5.99 5.93h-4.8v7.62h-1.9v-19.4h-.01zm6.46 10.07c2.59 0 4.28-1.57 4.28-4.22 0-2.62-1.68-4.14-4.25-4.14h-4.58v8.36h4.55zM207.75 24.25h-7.81l-2.21 6.18h-2.01l7.12-19.4h2.04l7.12 19.4h-2.01l-2.24-6.18zm-3.92-11.21s-.41 1.6-.75 2.51l-2.59 7.04h6.68l-2.54-7.04c-.33-.91-.75-2.51-.75-2.51h-.05zM229 10.7c4.64 0 6.98 2.51 6.98 2.51l-1.02 1.41s-2.26-2.15-5.91-2.15c-4.55 0-7.81 3.53-7.81 8.11 0 4.64 3.26 8.42 7.86 8.42 3.92 0 6.29-2.59 6.29-2.59l1.1 1.35s-2.65 3.01-7.42 3.01c-5.74 0-9.82-4.5-9.82-10.16.01-5.63 4.21-9.91 9.75-9.91zM246.17 11.03h10.93v1.71h-9.02v7.06h7.37v1.71h-7.37v7.2h9.52v1.71h-11.42V11.03z" fill="#FFF" fill-rule="nonzero"/><path d="M.4 15.22v17.99c0 2.61 2.11 4.72 4.72 4.72h17.99L.4 15.22z" fill="#00945E" fill-rule="nonzero"/><path d="M17.74 38h23.17c3.26 0 5.9-2.64 5.9-5.9V8.93L17.74 38z" fill="#00A6CE" fill-rule="nonzero"/><path d="M39.67 1.87L19.81 21.76l7.09 7.09L46.82 8.93v-4.1c-.01-3.73-4.52-5.59-7.15-2.96z" fill="#005CB9" fill-rule="nonzero"/><path d="M19.81 21.76L6.31 8.26C4.13 6.08.4 7.62.4 10.71v4.51L13.38 28.2l6.43-6.44z" fill="#3DAE2B" fill-rule="nonzero"/><path d="M19.81 21.76l-9.57 9.58C7.78 33.8 9.52 38 12.99 38h14.27c3.24 0 4.87-3.92 2.57-6.21L19.81 21.76z" fill="#93D500" fill-rule="nonzero"/><path d="M13.38 28.2l5.27 5.27c1 1 2.63 1 3.63 0l4.62-4.62-7.09-7.09-6.43 6.44z" fill="#4C9C2E"/></g></svg>