<svg id="Layer_1" xmlns="http://www.w3.org/2000/svg" viewBox="0 0 689 585"><style>.st1{fill:#076aab}.st4{fill:#ecf0f1}.st5{fill:#101520}.st6{fill:#fff}.st7{fill:#f2b06e}.st8{fill:#b9864f}.st10{fill:#282f3a}.st11{fill:#0e131f}.st12{fill:#b9babc}.st13{fill:#1cb7c8}.st14{fill:#14ce47}.st16{fill:#543419}.st17{fill:#383c3d}.st18{fill:#d8bea0}.st20{fill:#434548}.st21{fill:#cdcdce}.st22{fill:#221f1f}.st26{fill:#34495e}.st27{fill:#e37263}.st30{fill:#424548}.st31{fill:#513bc1}.st32{fill:#b6b6b7}.st33{fill:#f7d5b6}.st35{fill:#e74c3c}.st37{fill:#e7ad74}.st39{fill:#9a652f}.st43{fill:#bf9771}.st44{fill:#d8d8d7}.st45{fill:#858485}.st46{fill:#b9b7b7}.st47{fill:#a4a2a2}.st48{fill:#6e6e6e}.st49{fill:#d28c51}.st50{fill:#2c2a6b}.st52{fill:#2c2b55}</style><path d="M687.8 326.5C688.1 178.5 613.2-13 435 3.6c-178.1 16.6-163.5 188.2-321 318C13.1 404.8-4.6 509.3 2.7 585h625.6c39-83.9 59.3-178.4 59.5-258.5" fill="#1d78b2"/><path class="st1" d="M628.2 147.9h-49.8c-1.6 0-2.9 1.2-2.9 2.7V167c0 1.5 1.3 2.7 2.9 2.7h49.8c1.6 0 3-1.3 2.9-2.7v-16.4c0-1.5-1.3-2.7-2.9-2.7M593.6 175.2h-49.8c-1.6 0-2.9 1.3-2.9 2.8v17.1c0 1.6 1.3 2.8 2.9 2.8h49.9c1.6 0 2.9-1.4 2.8-3v-17c0-1.4-1.3-2.7-2.9-2.7M659.2 177h-49.8c-1.6 0-2.9 1.2-2.9 2.7v16.4c0 1.5 1.3 2.7 2.9 2.7h49.8c1.6 0 3-1.3 2.9-2.7v-16.4c0-1.4-1.3-2.7-2.9-2.7M625.5 205.3h-49.8c-1.6 0-2.9 1.2-2.9 2.7v16.4c0 1.5 1.3 2.7 2.9 2.7h49.9c1.6 0 2.9-1.3 2.8-2.7V208c0-1.5-1.3-2.7-2.9-2.7"/><path d="M77.3 478H27.4c-1.6 0-2.9 1.3-2.9 2.9V498c0 1.6 1.3 2.9 2.9 2.9h49.8c1.6 0 2.9-1.3 2.9-2.9v-17.1c.1-1.6-1.1-2.9-2.8-2.9" fill="#2082c3"/><path class="st1" d="M140.2 478.9H90.3c-1.6 0-2.9 1.3-2.9 2.9v17.1c0 1.6 1.3 2.9 2.9 2.9h49.8c1.6 0 2.9-1.3 2.9-2.9v-17.1c0-1.6-1.2-2.9-2.8-2.9M105.5 448.9H55.7c-1.6 0-2.9 1.3-2.9 2.9v17.1c0 1.6 1.3 2.9 2.9 2.9h49.8c1.6 0 2.9-1.3 2.9-2.9V452c.1-1.9-1.2-3.1-2.9-3.1"/><g id="black_board"><path d="M94.3 336.4c-9.2 0-16.8-7.5-16.8-16.8V66.7C77.5 57.5 85 50 94.3 50h472.6c9.2 0 16.8 7.5 16.8 16.8v252.9c0 9.2-7.5 16.8-16.8 16.8H94.3v-.1z" fill="#364f46"/><path class="st4" d="M566.9 53.8c7.1 0 12.9 5.8 12.9 12.9v252.9c0 7.1-5.8 12.9-12.9 12.9H94.3c-7.1 0-12.9-5.8-12.9-12.9V66.7c0-7.1 5.8-12.9 12.9-12.9h472.6m0-7.7H94.3c-11.4 0-20.6 9.3-20.6 20.6v252.9c0 11.4 9.3 20.6 20.6 20.6h472.6c11.4 0 20.6-9.3 20.6-20.6V66.7c0-11.3-9.3-20.6-20.6-20.6z"/><path class="st5" d="M595.6 341.5H71.9c-6.2 0-11.2-4.8-11.2-10.7 0-5.9 5-10.7 11.2-10.7h523.7c6.2 0 11.2 4.8 11.2 10.7 0 5.9-5 10.7-11.2 10.7z"/><path class="st6" d="M501.6 107.7h-74.1c-.9 0-1.5-.7-1.5-1.5s.7-1.5 1.5-1.5h74.1c.9 0 1.5.7 1.5 1.5s-.6 1.5-1.5 1.5zM481.6 119.7h-54c-.9 0-1.5-.7-1.5-1.5s.7-1.5 1.5-1.5h54c.9 0 1.5.7 1.5 1.5s-.7 1.5-1.5 1.5zM460 131.7h-32.4c-.9 0-1.5-.7-1.5-1.5 0-.9.7-1.5 1.5-1.5H460c.9 0 1.5.7 1.5 1.5s-.7 1.5-1.5 1.5zM501.6 143.6h-74.1c-.9 0-1.5-.7-1.5-1.5 0-.9.7-1.5 1.5-1.5h74.1c.9 0 1.5.7 1.5 1.5.1.8-.6 1.5-1.5 1.5zM478.5 155.6h-51c-.9 0-1.5-.7-1.5-1.5s.7-1.5 1.5-1.5h51c.9 0 1.5.7 1.5 1.5s-.7 1.5-1.5 1.5z"/><path class="st4" d="M366.1 320.9h-21.6c-.9 0-1.5-.7-1.5-1.5 0-.9.7-1.5 1.5-1.5h21.6c.9 0 1.5.7 1.5 1.5s-.7 1.5-1.5 1.5z"/></g><g id="head"><path class="st7" d="M234 150.1c-1.5-1.4-4.7-6.7-6.3-9.3-.2-.9-.4-1.8-.7-2.6l-.2-.6c-.6-2.1-1.1-3.9-1.7-5.5-1.8-.5-3.9.5-3.9.5 1.4-2.9 3.3-2.2 3.3-2.2l.3.8c-1.3-3.9-2.3-5.9-2.3-5.9s0-15.9-5.8-20.2-31.8-7.2-52 0-23.1 46.3-18.8 53.5-13 10.1-5.8 13 23.1 5.8 23.1 5.8v15.9c-2.3 0-6.9 8-11.1 17-7.4 24.1 8.6 18.5 14.4 17.3 12.5-2.5 22.7 1.2 30-3.8 5.2-3.5 2.3-15.8 3-15.4-5.5-3.4-7.1-4.3-6-12.2 1.4-10.1 7.2-11.6 17.3-11.6 6.8 0 14.2-7.2 17.5-17.2 0 0-3-1.6-3-4.5 0 0 1.8 3.5 3.8 1.7.6-2.6.9-5.3.9-8.1 3.5-1.4 5.9-4.7 4-6.4z"/><path class="st8" d="M221.3 132.6s2.1-1.1 3.9-.5c-.1-.3-.2-.5-.3-.8l-.3-.8c0-.1-1.9-.8-3.3 2.1zM227.3 139.2c1.7.8 2.7-2.2 2.7-2.2-1.4 1.4-3.1.5-3.1.5v.1c.1.2.1.4.2.6l.2 1zM225.6 162.9c0 2.9 3 4.5 3 4.5v-.1l.7-2.5v-.1c-1.9 1.7-3.7-1.8-3.7-1.8zM197.3 155.5L157.2 200s.1.5 2.1.5c2.3 0 6.9-.6 16.4-2.9 18.1-4.5 25.1-18 26.5-25.4 1.5-7.5-4.9-16.7-4.9-16.7M196.7 116.7s18.4 11.6 26.6 11.6c8.1 0 3.8-5.8 3.8-5.8l-30.4-5.8"/><path d="M223 125.3s-12.5.3-26.2-9.1c0 0 .1 23.1-5.6 19.1-5.4-3.8-7.1 2.5-6.7 7.1.4 4.6 0 10.9 9.5 11 11.8.1 12.3 28-9.4 38.1-9.4 4.4-17 7.1-25.6 7.1-15.9 0-35.6-13.8-26.6-39.7 1-2.9 5.9-15.4 6.2-20.1.3-4.8.6-17.3 2.9-22.7 2.2-5.4 8.4-16.8 25.9-24.3s38.7-2.2 45.6 2.3 9.8 7.8 15.6 22c2.2 5.4 6.7 14.2 2.1 15.9-1.9.7-4.6 1.4-5 .6-.2 0-1.6-4.3-2.7-7.3z" fill="#533413"/></g><g id="iPad"><path class="st10" d="M284.7 206.5c-2.2 0-4.5 1.1-5.4 2.8l-34.7 64.1c-1 1.9.2 3.9 2.7 4.3l.6.1 51.4 8.9.4.1h.6c2.2 0 4.5-1.1 5.4-2.8l34.7-64.1c1-1.8 0-3.6-2.3-4.2l-.4-.1-51.4-8.9-.6-.1c-.2-.1-.6-.1-1-.1"/><path class="st5" d="M241 269.4l34.7-64.1c1-1.9 4-3.1 6.5-2.7l.6.1 51.4 8.9.4.1c2.3.6 3.3 2.4 2.3 4.2L302.3 280c-1 1.8-3.6 3-6.1 2.8l-.4-.1-51.4-8.9-.6-.1c-2.6-.5-3.8-2.4-2.8-4.3z"/><path class="st11" d="M271.5 275c-.7-.1-1-.7-.7-1.2s1.1-.9 1.8-.8c.7.1 1 .7.7 1.2-.4.6-1.2.9-1.8.8zM310.8 209.9l-7.4-1.3c-.1 0-.2-.1-.2-.3 0-.1.1-.2.3-.2l7.4 1.3c.1 0 .2.1.2.3l-.3.2z"/><path class="st4" d="M248.9 264.1l30.7-56.8c.3-.6 1.1-.9 1.8-.8l49.4 8.6c.7.1 1 .7.7 1.2l-30.7 56.8c-.3.6-1.1.9-1.8.8l-49.4-8.6c-.7-.1-1-.6-.7-1.2z"/></g><g id="screen"><path class="st12" d="M318.4 220.8h-.1l-10.5-1.8c-.4-.1-.8-.5-.7-1 .1-.4.5-.7 1-.7l10.5 1.8c.4.1.8.5.7 1-.2.4-.6.7-.9.7zM310.9 224.4h-.1l-21.2-3.6c-.5-.1-.8-.5-.7-1 .1-.4.5-.7 1-.7l21.2 3.6c.4.1.8.5.7 1-.2.4-.5.7-.9.7zM286.3 215.4h-.1l-1.5-.3c-.4-.1-.8-.5-.7-1 .1-.4.5-.8 1-.7l1.5.3c.4.1.8.5.7 1-.1.4-.5.7-.9.7z"/><path class="st12" d="M283.1 214.9h-.1l-1.5-.3c-.5-.1-.8-.5-.7-1 .1-.5.5-.7 1-.7l1.5.3c.4.1.8.5.7 1-.2.4-.5.7-.9.7zM309.3 227.5h-.1l-23.8-4.1c-.5-.1-.8-.5-.7-1 .1-.5.5-.8 1-.7l23.8 4.1c.4.1.8.5.7 1-.2.5-.5.7-.9.7zM293.3 255.4l-25.5-4.4 6.7-11 25.5 4.4-6.7 11zm-22.9-5.6l22 3.8 4.8-7.9-22-3.8-4.8 7.9zM298.1 215.5l-9.6-1.6-.9 1.5 9.8 1.7zM307.8 230.1h-.1l-23.8-4.1c-.5-.1-.8-.5-.7-1 .1-.4.5-.8 1-.7l23.8 4.1c.5.1.8.5.7 1-.1.5-.5.7-.9.7zM306.4 232.7h-.1l-23.8-4.1c-.5-.1-.8-.5-.7-1 .1-.4.5-.7 1-.7l23.8 4.1c.5.1.8.5.7 1-.2.5-.5.7-.9.7zM291.7 258.9h-.1l-23.8-4.1c-.5-.1-.8-.5-.7-1 .1-.4.5-.8 1-.7l23.8 4.1c.4.1.8.5.7 1-.2.4-.5.7-.9.7z"/><path class="st13" d="M271.7 258.6h-.1l-5.3-.9c-.4-.1-.8-.5-.7-1 .1-.5.5-.8 1-.7l5.3.9c.4.1.8.5.7 1-.2.4-.5.7-.9.7z"/><path class="st12" d="M299.5 239.8h-.1l-3.7-.6c-.4-.1-.8-.5-.7-1 .1-.4.5-.7 1-.7l3.7.6c.5.1.8.5.7 1-.2.4-.5.7-.9.7z"/><path class="st12" d="M300.7 238.8h-.1l-3.7-.6c-.4-.1-.8-.5-.7-1 .1-.4.5-.7 1-.7l3.7.6c.4.1.8.5.7 1-.1.4-.5.7-.9.7zM320.8 222.4c-.3 0-.6-.2-.7-.4-.2-.4-.1-.9.3-1.1l.5-.3-.3-.4c-.3-.4-.2-.9.1-1.2.4-.3.9-.2 1.2.1l.9 1.1c.2.2.2.4.2.7 0 .2-.2.4-.4.6l-1.4.8c-.1.1-.2.1-.4.1zM290 241c-3.8 0-4.8-1.8-4.9-2.1-.2-.3-.1-.7.2-1l6.8-6.2c.2-.2.6-.3.9-.1.3.1.5.4.5.8l.1 7.5c0 .4-.3.7-.7.8-1.2.2-2.1.3-2.9.3zm-3-2.4c.6.4 2 1 4.8.6v-4.9l-4.8 4.3zM288 234.7c-.3 0-.6-.2-.7-.5l-1-2-2.5-.4c-.5-.1-.8-.5-.7-.9.1-.5.5-.8.9-.7l2.9.4c.3 0 .5.2.6.5l1.1 2.4c.2.4 0 .9-.4 1.1l-.2.1z"/><path class="st14" d="M279 249.9l5.6 1.1c.2 0 .4 0 .5-.2l3-4.9c.1-.2 0-.5-.3-.6l-5.6-1.1c-.2 0-.4 0-.5.2l-3 4.9c-.2.3 0 .6.3.6z"/><path class="st4" d="M283.1 248.8l-.6-1.7 2-.8z"/></g><g id="right_arm"><path class="st10" d="M308.5 272.7c-8.1 0-12.4 18.6-16.4 24.6-6.2 9.3-28 24.7-38.7 24.7-.6 0-1.2-.1-1.7-.2 0 0-28.3 15.6-31.6 26.2 0 0 16.2 7.2 23.8 7.1 6.2-.1 10.7-2.4 13.8-4.4 14.5-9.3 30.7-28.1 37.4-40.5 8.8-16.3 18.7-14.2 23.1-23.1 1.9-3.9-1.4-10.1-1.4-10.1s-.8-3.3-7.2-4.3h-1.1"/><path class="st7" d="M232.7 343.6c11.6 2.9 44.8-28.9 54.9-47.7 8.8-16.3 18.7-14.2 23.1-23.1 1.9-3.9-1.4-10.1-1.4-10.1s-.8-3.3-7.2-4.3c-8.7-1.4-13.2 18.3-17.3 24.6-6.6 9.8-30.6 26.5-40.5 24.6 0-.1 4.3 25.9-11.6 36z"/></g><g id="left_arm"><path class="st10" d="M277.9 235.2c-13.8 0-32.5 8.5-39 9.8-7 1.4-44.7 6.9-44.7 6.9s-12.5 35.9-9 35.9h.2c4.2-1.4 47.9-30.2 52.1-32.9.9-.6 2.2-.8 3.6-.8 1.3 0 2.8.2 4.5.3 1.7.2 3.5.3 5.5.3 3.5 0 7.4-.5 11.5-2.6 11.2-5.6-2.8-9.8 9.8-12.5 12.6-2.8 8.4-4.2 8.4-4.2-.9-.2-1.9-.2-2.9-.2"/><path class="st7" d="M192.6 246s37.7-5.5 44.7-6.9 27.9-11.1 41.9-9.7c0 0 4.2 1.4-8.4 4.2s1.4 7-9.8 12.5c-11.2 5.6-20.9 0-25.1 2.7-4.2 2.8-39.2 26.4-43.3 27.8-4.3 1.5 0-30.6 0-30.6z"/></g><g id="desk_and_laptop"><path d="M639.2 434.3c0 7.1-5.7 12.8-12.8 12.8H351.1c-7.1 0-12.8-5.7-12.8-12.8V401c0-7.1 5.7-7.4 12.8-7.4h275.2c7.1 0 12.8.3 12.8 7.4l.1 33.3" fill="#683d17"/><path class="st16" d="M602.2 445.8h-9.5v.7h9.5v-.7"/><path class="st17" d="M602.2 446.5h-9.5V462h9.5v-15.5"/><path class="st16" d="M386.2 445.8h-9.5v.7h9.5v-.7"/><path class="st17" d="M386.2 446.5h-9.5V462h9.5v-15.5"/><path class="st18" d="M338.7 398.4h-.6v6.8h.3V401c-.1-1 .1-1.9.3-2.6"/><path d="M638.7 398.4h-300c-.2.8-.3 1.6-.3 2.6v4.1h300.4v-6.7" fill="#5e3417"/><path class="st20" d="M330.6 389.1h317.9v10.6H330.6z"/><path class="st21" d="M469.4 383.7H380c0 2 2.2 3.7 5.2 4l4.7.5c5 .6 10.1.8 15.1.8h128.6c5.1 0 10.1-.3 15.1-.8l4.7-.5c3-.3 5.2-2 5.2-4h-89.2"/><path class="st22" d="M542.4 289.4H396.5c-2.8 0-5 2.3-5 5v88.1h156v-88.1c-.1-2.7-2.3-5-5.1-5z"/><path fill="#eae9f3" d="M401.1 303.6h136.6v73.9H401.1z"/><path d="M558.8 383.7H380c0 2 2.2 3.7 5.2 4l4.7.5c5 .6 10.1.8 15.1.8h128.6c5.1 0 10.1-.3 15.1-.8l4.7-.5c3.2-.3 5.4-2 5.4-4" fill="#9b9c9c"/><path class="st6" d="M381.3 386.1h176.3c.8-.7 1.2-1.5 1.2-2.4H380c.1.9.5 1.7 1.3 2.4z"/><path d="M534.3 297.7H403.1c-2.2 0-4.1 1.8-4.1 4.1V373c0 2.2 1.8 4.1 4.1 4.1h131.2c2.2 0 4.1-1.8 4.1-4.1v-71.2c-.1-2.3-1.9-4.1-4.1-4.1z" fill="#e0e6ff"/><path class="st26" d="M406.8 307.1h23.1c.7 0 1.4-.6 1.4-1.4 0-.7-.6-1.4-1.4-1.4h-23.1c-.7 0-1.4.6-1.4 1.4.1.8.7 1.4 1.4 1.4"/><path class="st27" d="M406.8 312.4h125.1c.7 0 1.4-.6 1.4-1.4 0-.7-.6-1.4-1.4-1.4H406.8c-.7 0-1.4.6-1.4 1.4.1.8.7 1.4 1.4 1.4"/><path class="st26" d="M411.9 325.4c0-1.2-.9-2.2-2.1-2.2s-2.1 1-2.1 2.2.9 2.2 2.1 2.2 2.1-.9 2.1-2.2z"/><path class="st13" d="M490.9 327.7h-68.3c-.7 0-1.2-.6-1.2-1.3v-3.1l-1.9-.9 1.9-1.1v-1.6c0-.7.6-1.3 1.2-1.3h68.3c.7 0 1.2.6 1.2 1.3v6.7c0 .7-.6 1.3-1.2 1.3z"/><path class="st6" d="M524.2 342.7h-63.4c-.7 0-1.2-.6-1.2-1.3v-6.7c0-.7.6-1.3 1.2-1.3h63.4c.7 0 1.2.6 1.2 1.3v6.7c0 .7-.5 1.3-1.2 1.3z"/><path d="M461.1 355.2h-27.4c-.7 0-1.2-.6-1.2-1.3v-6.7c0-.7.6-1.3 1.2-1.3h27.4c.7 0 1.2.6 1.2 1.3v6.7c0 .7-.5 1.3-1.2 1.3z" fill="#8e8f91"/><path d="M478.9 355.2H466c-.7 0-1.2-.6-1.2-1.3v-6.7c0-.7.6-1.3 1.2-1.3h12.9c.7 0 1.2.6 1.2 1.3v6.7c.1.7-.5 1.3-1.2 1.3z" fill="#f4b42e"/><path class="st6" d="M398.8 357.6h139.7V377H398.8z"/><path class="st13" d="M519.1 357.6h19.4v20.6h-19.4z"/><path class="st14" d="M519.1 364.3h19.4v13.9h-19.4z"/><path class="st30" d="M445.7 361.4c-1.7-1.1-4.6.9-4.1 2.9.2.8 1 1.4 1.8 1.1.8-.4 1.2-1.5 1.3-2.3h-.8c.1.9.4 1.6.9 2.3.3.4 1 0 .7-.4-.5-.6-.7-1.4-.9-2.2-.1-.4-.7-.4-.8 0-.1.5-.2 1-.5 1.4-.5.7-1.2.3-1.2-.5.1-1.3 1.9-2.4 2.9-1.7.7.4 1.1-.3.7-.6zM434.9 367.6c5.6.1 11.2.2 16.9.2.5 0 .5-.8 0-.8-5.6-.1-11.2-.2-16.9-.2-.5 0-.5.8 0 .8zM434.9 372.1l1.8 2.1c.2.3.7.1.7-.3-.1-1-.7-3.3.2-4 .3-.2 2.2.1 2.5.1.7 0 1.4 0 2.1.1 2.9.1 5.9.1 8.8.2.5 0 .5-.8 0-.8-4.8-.1-9.6-.2-14.3-.3-.2 0-.4.2-.4.4.1 1.5.2 2.9.3 4.4.2-.1.4-.2.7-.3l-1.8-2.1c-.3-.5-.9.1-.6.5z"/><path class="st30" d="M441.3 372.1c-.6-1.4-2.7-.9-2.6.7s2.2 1.7 2.7.3h-.8c.1.8.6 1.3 1.3 1.5.5.1.7-.7.2-.8-.5-.1-.7-.4-.8-.9-.1-.4-.6-.3-.8 0-.2.7-1.2.5-1.1-.2 0-.8.9-.7 1.2-.2.2.5.9.1.7-.4zM442.6 371.8h-.1.1l-.1.2c-.1.2-.3.3-.4.4-.3.3 0 .8.4.7.5-.2.9-.3 1.4-.5s.3-.9-.2-.8c-.5.2-.9.3-1.4.5.1.2.3.4.4.7.4-.3.8-.9.6-1.4-.2-.5-.8-.7-1.2-.3-.4.3.1.8.5.5zM444.8 374.2c.6-.2 1.2-.4 1.8-.2.5.1.7-.7.2-.8-.8-.1-1.5-.1-2.3.2-.4.2-.2 1 .3.8z"/><path class="st30" d="M445.2 372.2l.3 2.7c.1.5.8.5.8 0l-.3-2.7c0-.5-.8-.5-.8 0zM447.9 371.6c.3.8.6 1.6.8 2.4.1.4.6.4.8 0 .1-.2.2-.8.5-.9.4-.1.4.3.3.6-.2.7-1.2.6-1.8.5-.5 0-.5.8 0 .8.7.1 1.6.1 2.2-.5.4-.4.5-1 .4-1.5s-.6-.9-1.1-.8c-.7.1-1 .9-1.2 1.5h.8c-.3-.8-.6-1.6-.8-2.4-.3-.4-1.1-.2-.9.3zM451.1 371.8c-.4.2-.3.8.1.9.6.1 1.1 0 1.7-.3.5-.2.1-.9-.4-.7-.4.2-.8.2-1.3.2 0 .3.1.5.1.8.5-.2.8-.7.6-1.2-.2-.5-.8-.6-1.2-.4-.4.2 0 .9.4.7zM433.9 362c-2.9-1.3-2.7 5-2.7 6.5-.1 2.1-.5 4.7.1 6.8.3 1.1 1.1 1.3 2.2 1.2.5 0 .5-.8 0-.8-2.1.1-1.6-4.5-1.5-5.9 0-1 .4-7.6 1.6-7 .3.1.7-.6.3-.8zM455.2 369.2h2.3c.5 0 .5-.8 0-.8h-2.3c-.5 0-.5.8 0 .8z"/><path class="st30" d="M456.1 367.5c.2.8.3 1.6.1 2.4-.1.5.7.7.8.2.2-1 .1-1.9-.1-2.9-.2-.4-.9-.2-.8.3zM460.4 366.9c-.1.9-.2 1.7-.2 2.6 0 .5 0 2.4-.8 2.5-.5 0-.5.8 0 .8.8-.1 1.2-.7 1.3-1.5.3-1.4.3-3 .4-4.4.2-.5-.6-.5-.7 0zM460.6 364.9c.5 0 .5-.8 0-.8s-.5.8 0 .8zM465.4 367.5c4.9.2 9.8 0 14.7-.1.5 0 .5-.8 0-.8-4.9.2-9.8.3-14.7.1-.5 0-.5.8 0 .8zM470.7 360c.1 1.5 0 2.9-.2 4.4 0 .4.6.6.7.2.2-.4.9-3.2 1.9-2.1.8.9-.7 1.8-1.4 2.1-.5.2-.3.9.2.8 1.3-.5 2.9-2 1.7-3.4-.4-.5-1-.6-1.6-.3-1 .5-1.1 1.7-1.5 2.6.2.1.5.1.7.2.2-1.4.2-2.9.2-4.4 0-.6-.7-.6-.7-.1zM462.5 373c.5.6 1 1.1 1.6 1.5.2.2.6 0 .6-.3-.1-.9-.4-2.6-.2-3.4.4-1.3.9-1.1 1.8-1.1h4.6c3 0 6.1.1 9.1.1.5 0 .5-.8 0-.8-2.8 0-5.6 0-8.4-.1-2.3 0-5.4-.6-7.6.1-.1 0-.2.1-.3.3-.3 1.5 0 3.3.1 4.9l.6-.3c-.6-.3-1.1-.8-1.5-1.4-.2-.5-.8.1-.4.5z"/><path class="st30" d="M468.3 371.9c0-.8-.7-1.2-1.4-1.1-.9.2-1.2 1.2-1.1 2.1.1.7.5 1.9 1.4 1.6.8-.3.4-1.3.8-1.9-.2-.1-.5-.1-.7-.2 0 .7 0 1.5.6 2 .4.4 1 .5 1.5.2.4-.3 0-.9-.4-.7-.8.5-.9-1.1-.9-1.6 0-.4-.5-.5-.7-.2s-.2.6-.3.9c0 .2 0 .4-.1.5-.1.3-.2.1-.3-.2-.2-.4-.3-1.2 0-1.6.2-.2.8-.4.8.1.1.7.8.7.8.1z"/><path class="st30" d="M469.2 371.1c-.2 0-.2-.3-.2 0l-.1.3c-.1.2-.1.4-.2.7-.1.2.1.5.4.5.5 0 1-.2 1.4-.4.4-.3 0-1-.4-.7-.3.2-.6.3-1 .3.1.2.2.3.4.5.2-.6.7-1.8-.3-1.9-.5-.1-.5.7 0 .7zM472.3 373c.3-.1.6-.2.9-.1.5.1.7-.7.2-.8-.5-.1-1 0-1.5.2-.5.3-.1 1 .4.7z"/><path class="st30" d="M472.6 371.1c-.3 1-.3 1.9 0 2.9.1.5.9.3.7-.2-.3-.8-.3-1.6 0-2.5.2-.4-.6-.7-.7-.2zM475.4 370.4c-.1 1.1-.1 2.2 0 3.4.3 0 .5-.1.8-.1-.2-.9 1.1-.8 1 .1-.2.8-1.1.7-1.5.2-.4-.4-.9.2-.6.6 1.2 1.2 3.3.3 2.8-1.5-.5-1.7-2.8-.8-2.4.8.1.4.8.4.8-.1-.1-1.1-.1-2.2 0-3.4 0-.5-.8-.5-.9 0zM477.5 371.3c.2-.1.4 0 .6.1-.1-.2-.1-.3-.2-.5-.1.2-.1.4-.2.6 0 .2 0 .4.2.5.4.2.7.3 1.1.3.5 0 .5-.8 0-.8-.3 0-.5 0-.7-.1.1.2.1.3.2.5.1-.2.1-.4.2-.6 0-.2 0-.4-.2-.5-.4-.3-.8-.3-1.2-.2-.5 0-.3.8.2.7zM480.7 361.6c2.9-.1 2.2 5.4 2.2 7.2 0 1.8.8 6.7-1.8 7-.5.1-.5.9 0 .8 3.5-.5 2.6-5.7 2.6-8.2 0-2.4.7-7.7-2.9-7.6-.6 0-.6.8-.1.8z"/><path class="st31" d="M586.5 366.5l-3.8-.7 5.4-31.3 3.8.7-5.4 31.3"/><path class="st31" d="M590 334.8l-4.4 25.6v5.6l.2.3.9-1.1 5.2-30-1.9-.4"/><path class="st32" d="M590 334.8l-4.4 25.6v5.6l.2.3.9-1.1 5.2-30-1.9-.4"/><path class="st33" d="M582.7 365.8l1.1 5.2 2.7-4.5.2-1.3-.9 1.1-1-1.4-1.3 1-.6-1.4-.2 1.3"/><path class="st22" d="M583.8 371l1.2-1.9c-.3-.1-.5-.1-.8-.1s-.5-.1-.8-.1l.4 2.1"/><circle class="st21" cx="583.6" cy="378.2" r=".4"/><path class="st11" d="M585.6 373.1h-3.9v-38.9h3.9v38.9"/><path class="st11" d="M586 349.5h-4.8v-17c0-1.3 1.1-2.4 2.4-2.4 1.3 0 2.4 1.1 2.4 2.4v17M585.6 349.5h-3.9v.6h3.9v-.6"/><path class="st32" d="M585.6 349.5h-3.9v.6h3.9v-.6"/><path class="st11" d="M586 332.9v.6h.7v13.1c-.2.1-.4.2-.4.5v1.7c0 .3.2.5.5.5h.4V333H586v-.1z"/><path fill="#3a3436" d="M581.7 373.1h3.9v1.5h-3.9z"/><path class="st22" d="M584 378.2l1.6-3.6h-3.9l1.6 3.6z"/><path class="st6" d="M604.7 332.7c-.1.2-.3.3-.5.2-.2-.1-.3-.3-.2-.5s.3-.3.5-.2.3.3.2.5z"/><path class="st31" d="M600.7 336.6l3.6 1.4-14 36.3-3.6-1.4 14-36.3"/><path class="st31" d="M591.8 358.4l4.5 1.7-6.1 15.8c-.5 1.2-1.9 1.8-3.1 1.4-1.2-.5-1.8-1.9-1.4-3.1l6.1-15.8"/><path class="st31" d="M595.1 359.1l-.1.6.8.3.2-.5-.9-.4"/><path class="st26" d="M595.1 359.1l-.1.6.8.3.2-.5-.9-.4"/><path class="st31" d="M585.8 374l.2-.5-.6-.3L590 361c.2 0 .4-.1.5-.3l.6-1.6c.1-.2 0-.5-.3-.6l-.4-.2-.3.8-.7 1.8-4.9 12.7 1.3.4z"/><path transform="rotate(-68.832 602.852 336.7)" class="st4" d="M602.1 334.7h1.5v3.9h-1.5z"/><path class="st31" d="M604 332.4l-2.7 2.8 3.6 1.4-.2-3.9z"/><path class="st27" d="M583.1 372l-3.9.6-5.2-31.3 3.8-.6 5.3 31.3"/><path class="st32" d="M581.7 372.2l-.6.1.6-.1"/><path class="st11" d="M583.1 372l-1.4.2 1.4-.2"/><path class="st32" d="M583.1 372l-1.4.2 1.4-.2"/><path class="st27" d="M577.8 340.7l-1.9.3 5.2 31.3.6-.1 1.4-.2-1.4-8-3.9-23.3"/><path class="st32" d="M577.8 340.7l-1.9.3 5.2 31.3.6-.1 1.4-.2-1.4-8-3.9-23.3"/><path class="st33" d="M579.2 372.6l2.8 4.5 1.1-5.1-.3-1.3-.4 1.4-1.5-1.1-.8 1.5-1.1-1.2z"/><path class="st22" d="M582 377.1l.5-2.2c-.3 0-.5.1-.8.1s-.5.1-.8.1l1.1 2z"/><path class="st35" d="M596.7 343.4l-3.8-.4-3.3 31.6 3.8.4 3.3-31.6"/><path class="st32" d="M591.5 374.8l1.9.2-1.9-.2m3.3-31.6l1.9.2-1.9-.2"/><path class="st35" d="M594.8 343.2l-3.3 31.6 1.9.2 3.3-31.6-1.9-.2"/><path class="st32" d="M594.8 343.2l-3.3 31.6 1.9.2 3.3-31.6-1.9-.2"/><path class="st33" d="M592.9 343l2.4-4.7 1.4 5.1-.1 1.3-.6-1.4-1.3 1.2-1-1.4-1 1.2z"/><path class="st30" d="M595.3 338.3l.6 2.2c-.3 0-.5 0-.8-.1-.3 0-.5-.1-.8-.1l1-2z"/><path d="M597.5 365.5h-23.8v11.4c0 6.6 5.3 11.9 11.9 11.9 6.6 0 11.9-5.3 11.9-11.9v-11.4z" fill="#e8e7e7"/></g><g id="head_x5F_boy"><path class="st37" d="M483.1 315.8h-12.8s-21.4-4.3-21.4-25.7v-25.7h38.5l21.4 34.2 4 23.9-27.1 5.4-2.6-12.1"/><path class="st18" d="M510.1 306.5l.4 2.7c1.4-1.4-.4-2.7-.4-2.7m-2.9-10.3"/><path d="M478 294.6s7.2 17.1 21.1 17.1c.5 0 1 0 1.6-.1 6.3-.6 8.9-1.6 9.9-2.6l-.4-2.7-2.9-10.3-29.3-1.4" fill="#c98a55"/><path class="st39" d="M448.8 274.8s3 .3 4.4.3-4.4 1.5-4.4 1.5v-1.8zM452 302.9s3.9-.6 5.3-3.3c0 0 .1 4.2-3.3 6.2l-2-2.9zM448.8 281.4l-2.4.5 2.4 1.5z"/><path d="M465.9 281.5s-4.3-8.6 4.3-8.6 4.3 17.1 4.3 17.1 12.1 17.6 20.7 17.6 13.6-9 13.6-9 21.4-21.4 12.8-42.8c-8.6-21.4-21.4-21.4-21.4-21.4s-25.7-4.3-38.5 4.3-12.8-8.6-17.1 0c-4.3 8.6-8.6 21.4 4.3 30 12.8 8.6 17 12.8 17 12.8z" fill="#a57d2d"/></g><g id="boy"><path class="st37" d="M523.6 525.7l4.1-12.2h-35.2l6.8 12.2s-1.9 23.4-1.4 31.1c.4 6.3 2.1 17 4.1 28.2h21.7c2.6-19.1-.1-59.3-.1-59.3zM476.2 525.7l5.4-12.2h-32.5l2.7 12.2s-2.1 17.3-1.4 23c1.5 10.8 3.5 23.9 5.4 36.3h20.3c2.8-19.1.1-59.3.1-59.3z"/><path class="st26" d="M539.9 456.6c-10.2-18.9-88-1.4-88-1.4s-13.5 5.4-19 28.4c-1.2 5.1-.9 10.4 0 15.3.5 2.8 1.3 5.4 2 7.8 2.1 6.4 4.7 10.8 4.7 10.8l44.7 1.4 2.3-12.2 1.8-9.5 1.2 9.5 1.5 12.2h43.1c-.4-.2-.9-1.8 1.6-12.2.4-1.6.8-3.4 1.4-5.4.5-1.9 1-3.7 1.5-5.4 4.7-15.4 9.7-23.4 1.2-39.3M534.4 518.9h-.2.2z"/><path class="st26" d="M538.7 495.9H432.9v3.1c.5 2.8 1.3 5.4 2 7.8h51.7l1.8-9.5 1.2 9.5h46.2c.4-1.6.8-3.4 1.4-5.4.5-2 1-3.8 1.5-5.5"/><path class="st10" d="M538.7 495.9H432.9v3.1c.5 2.8 1.3 5.4 2 7.8h51.7l1.8-9.5 1.2 9.5h46.2c.4-1.6.8-3.4 1.4-5.4.5-2 1-3.8 1.5-5.5"/><path class="st18" d="M449.1 406.5s3.5 37.7 4.1 47.4c0 .7-4.1 2.3-4.1 2.7v.2c1.6-1.1 2.7-1.5 2.7-1.5s32.9-7.4 58.7-7.4c13.9 0 25.8 2.1 29.3 8.7.4.8.8 1.6 1.2 2.3-.6-1.3-2.4-5.8-2.5-9.1-.5-13.4 1.4-32.5 1.4-32.5l-90.8-10.8"/><path class="st26" d="M510.5 447.9c-25.8 0-58.7 7.4-58.7 7.4s-1 .4-2.7 1.5c1.8 8 37 11.8 50.1 12h.8c10.8 0 39.9-2.9 41.2-9.5 0 0-.1-.1-.2-.4-.4-.8-.8-1.5-1.2-2.3-3.5-6.6-15.3-8.7-29.3-8.7"/><path class="st10" d="M510.5 447.9c-25.8 0-58.7 7.4-58.7 7.4s-1 .4-2.7 1.5c1.8 8 37 11.8 50.1 12h.8c10.8 0 39.9-2.9 41.2-9.5 0 0-.1-.1-.2-.4-.4-.8-.8-1.5-1.2-2.3-3.5-6.6-15.3-8.7-29.3-8.7"/><path d="M478.9 325.3s29.8-9.5 39.3-6.8c9.5 2.7 12.2 9.5 12.2 9.5l-54.5 2.6 3-5.3z" fill="#2078b2"/><path d="M476.2 330.7s-25.9 4.2-28.4 8.1-27.1 46-27.1 46l28.4 12.2s-.9 50.2 0 55.5c1.4 8.1 36.9 9.3 50.1 9.5 10.2.1 39.3-1.4 40.6-5.4 2.2-6.6 0-48.8 0-48.8l21.7-20.3-10.8-37.9s-2.7-19-20.3-21.7c-17.6-2.6-54.2 2.8-54.2 2.8z" fill="#1a5e8c"/></g><g id="right_arm_x5F_boy"><path class="st10" d="M553.6 387.6l-17.8 28.7 13.3 5.7s3.1.7 6.5.7c3.5 0 7.4-.7 9-3.6 3.3-5.7-3.3-20.1-3.3-20.1l-7.7-11.4"/><path class="st37" d="M553.4 382.1s8.1 20.3 4.1 28.4c-4.1 8.1-19 4.1-19 4.1l14.9-32.5z"/></g><g id="left_arm_x5F_boy"><path class="st37" d="M413.9 382.1s4.3-9.8 11.6-7.6c7.3 2.2 19.7 14.6 19.7 14.6l-6.9 30.9s-8.1 6.8-13.5 0-9.5-21.3-5.4-31c-.1.1-8.2-2.8-5.5-6.9z"/></g><g id="chair"><path class="st10" d="M539 355.5h-93.1c-4.9 0-8.9 4-8.9 8.9V419c0 4.9 4 8.9 8.9 8.9H460v-34.1h10.6v34.1h53v-34.1h10.6v34.1h4.7c4.9 0 8.9-4 8.9-8.9v-54.7c.1-4.9-3.9-8.8-8.8-8.8"/><path class="st10" d="M470.6 427.8H460v54.9h10.6v-54.9"/><path class="st43" d="M470.6 393.7H460v34.1h10.6v-34.1"/><path class="st10" d="M534.3 427.8h-10.6v54.9h10.6v-54.9"/><path class="st43" d="M534.3 393.7h-10.6v34.1h10.6v-34.1"/><path class="st44" d="M545.5 421.3c0 4.9-4 8.9-8.9 8.9h-93.1c-4.9 0-8.9-4-8.9-8.9v-54.7c0-4.9 4-8.9 8.9-8.9h93.1c4.9 0 8.9 4 8.9 8.9v54.7zM557.5 492.2c0 5.3-4.3 9.5-9.5 9.5H434.7c-5.3 0-9.5-4.3-9.5-9.5 0-5.3 4.3-9.5 9.5-9.5H548c5.2 0 9.5 4.2 9.5 9.5"/><path class="st45" d="M453.3 393.7h10.6v90.1h-10.6zM516.4 393.7H527v90.1h-10.6z"/><path class="st46" d="M546.6 501.7h-.2v4.5h.2v-4.5"/><path class="st47" d="M546.6 500.7h-10.4v.6h10.2v.4h.2v-1"/><path class="st48" d="M546.4 501.3h-10.2v4.9h10.2v-4.9"/><path class="st46" d="M446.9 501.7h-.2v4.5h.2v-4.5"/><path class="st47" d="M446.9 500.7h-10.4v.6h10.2v.4h.2v-1"/><path class="st48" d="M446.7 501.3h-10.2v4.9h10.2v-4.9"/><path class="st20" d="M376.7 446.5h10V585h-10zM592.6 446.5h10V585h-10z"/><path class="st45" d="M436.5 501.3h10.2V585h-10.2zM536.2 501.3h10.2V585h-10.2z"/></g><g id="body"><path class="st7" d="M226.4 488.9c.3-3.3.5-5.4.5-6.2v-.1l-.5 6.3zM157.6 485.3s-1.6 2.4-3.6 5.6l3.6-5.6zM181.3 539.8l-1.9-6.8 24.1-41.9-15.4 1.5-34.1-1.7c-2.1 3.2-4.6 7.2-6.5 10.3-5.4 8.9-12.9 49.6-19 83.8h24.7c12.8-26.1 26.1-52 26.1-52s.7 2.5 2 6.8z"/><path class="st7" d="M226.4 488.9l-10.5 1c-11.2 15.9-34.6 49.9-34.7 49.9 2.7 9.3 7.8 26.8 13.1 45.2h25.8c.9-37.6 4.9-80.2 6.3-96.1z"/><path class="st18" d="M181.3 539.8zM222.5 482.8l-46.8 1.4-18 1.1h28.8zM186.5 485.3l36-2.5zM181.3 539.8h-.1z"/><path class="st49" d="M154 490.8zM226.4 488.9zM203.5 491.1L179.4 533l1.9 6.8c0-.1 23.5-34 34.7-49.9l10.5-1 .5-6.2-4.4.1-36 2.5h-28.8l-3.7 5.6 34.1 1.7 15.3-1.5z"/><path class="st50" d="M226.9 482.5v.1l.1-.1zM226.9 482.5l-4.4.3z"/><path class="st50" d="M222.5 482.8l4.4-.2v-.1zM232.5 353h.4l-.2-7.8-.2 7.8z"/><path d="M244.3 307.5c-7.2-1.4-8.7-44.8-13-62.2-4.3-17.3-13.1-26-23.2-33.2-2.2-1.6-4.1-2.7-5.6-3.7-1.6-.9-12-4.1-33.3.2-5.7 1.1-13.4 1.5-18.8 1.6-3.7 8.2-5.2 16.4-5.8 27.9-1.4 27.5 10.1 46.3 8.7 63.6-.4 4.9-2 10.4-4.1 16.3-5.3 14.9-11.8 32.5-14.7 50.2-5.9 37.4-5.9 153.3-5.9 153.3h107.1L232.9 353c-.1 0-.4.1-.4 0 0 0-9.8-2.2-19.9-9.4-5-3.6-9.3-16.8-12.4-29.2-3.1-12.6-4.9-24.3-4.9-24.3s.3-11.4 1-11.4c.1 0 .3.4.4 1.3 3.1 16.9 7.1 29.4 11.3 38.5 8.7 18.8 18.3 23.5 22.6 24.7 1.4.4 2.3.4 2.3.4 11.5 2.7 21.2-34.1 11.4-36.1z" fill="#26276d"/><path class="st18" d="M232.8 345.2v-1.6h-.1zM232.8 345.2l-.1-1.6z"/><path class="st52" d="M232.8 343.6h-.1zM230.6 343.2c.9 3 1.5 6.2 1.9 9.8l.3-7.8v-1.6h.1c-.1 0-.9 0-2.3-.4z"/><path class="st11" d="M196.7 280c-.2-.9-.3-1.3-.4-1.3-.7 0-1 11.4-1 11.4s1.8 11.7 4.9 24.3c2.8 1.4 5.4 2.7 7.8 4.1-4.2-9.1-8.2-21.5-11.3-38.5z"/><path class="st11" d="M232.5 353c-.4-3.6-1.1-6.8-1.9-9.8-4.3-1.2-13.9-5.9-22.6-24.7-2.4-1.3-5-2.7-7.8-4.1 3.1 12.4 7.4 25.6 12.4 29.2 10.1 7.3 19.9 9.4 19.9 9.4z"/></g></svg>