<svg id="Layer_1" xmlns="http://www.w3.org/2000/svg" xmlns:xlink="http://www.w3.org/1999/xlink" viewBox="0 0 748 662"><style>.st1{fill:#1cb7c8}.st2{fill:#fff}.st3{fill:#434649}.st6{fill:#111521}.st7{fill:#4eb748}.st8{fill:#edf0f1}.st9{fill:#bababc}.st10{fill:#21b6c7}.st11{fill:#3f95d1}.st12{fill:#d4d7d9}.st14{fill:#34495e}.st15{fill:#979797}.st16{fill:#9a9a9a}.st17{fill:#999}.st23{fill:#2c2b6c}.st24{fill:#d6d5d5}.st27{fill:#b88750}.st28{fill:#606f74}.st29{fill:#95a1d1}.st36{fill:#9b652f}</style><path d="M737.2 565c26.7-142.8 17.9-387.7-191.2-383.8-209.2 4-201.5 195.3-376.8 292.7C59.4 534.8 17 606 5.1 662h698.6c15.8-30.1 27-62.7 33.5-97z" fill="#1abc9c" id="background"/><g id="hint"><path class="st1" d="M443.1 160l41.7 5.1c6.2.8 11.9-3.7 12.6-9.9.8-6.2-3.7-11.9-9.9-12.6l-41.7-5.1c-6.2-.8-11.9 3.7-12.6 9.9-.8 6.2 3.6 11.9 9.9 12.6z"/><path class="st2" d="M466.1 155l.9-6.3.6.1-.4 2.8 3.6.5.4-2.8.6.1-.9 6.2h-.6l.4-2.9-3.6-.5-.4 2.9zM473.2 150.3l.1-.8.6.1-.1.8-.6-.1zm-.7 5.5l.6-4.5.6.1-.6 4.5-.6-.1zM474.5 156.1l.6-4.5.6.1-.1.7-.1.4c.1-.3.4-.5.7-.7s.8-.3 1.3-.2.8.3 1 .6.2.8.2 1.3l-.4 2.8-.6-.1.4-2.7c.1-.4 0-.8-.1-1s-.3-.4-.7-.5c-.4-.1-.7 0-1.1.2-.5.3-.8.8-.9 1.4l-.3 2.1-.5.1zM480 155.2l.3-2.3-.6-.1.1-.5.6.1.2-1.3.6.1-.2 1.3 1.1.2-.1.5-1-.2-.3 2.2c-.1.5 0 .9.4 1.1.1.1.3.2.5.2h.2l-.1.6h-.3c-.1 0-.2 0-.3-.1-.1 0-.2-.1-.4-.2-.1-.1-.3-.2-.4-.3s-.2-.3-.2-.5c-.1-.2-.1-.5-.1-.8zM453.7 157.2c-3.7-.5-6.4-4-5.9-7.7s4-6.4 7.7-5.9 6.4 4 5.9 7.7c-.5 3.8-4 6.4-7.7 5.9zm1.8-13.2c-3.5-.5-6.8 2-7.3 5.5s2 6.8 5.5 7.3 6.8-2 7.3-5.5-2-6.8-5.5-7.3z"/><path class="st2" d="M454 151.9l.1-.5c0-.3.1-.6.3-.8.2-.2.3-.4.5-.6.2-.1.4-.3.6-.4.5-.3.7-.7.8-1.1 0-.3 0-.6-.3-.9-.2-.3-.5-.4-.9-.5h-.6c-.2 0-.4.1-.5.2l-.2.1-.3-.6c.2-.1.4-.2.8-.3.3-.1.6-.1.9 0 .6.1 1 .3 1.4.7.3.4.5.8.4 1.4 0 .3-.1.6-.3.8-.2.2-.3.4-.5.6-.2.1-.4.3-.6.4-.5.3-.8.7-.8 1.1l-.1.4h-.7zm-.3 1.9l.1-.8.8.1-.1.8-.8-.1z"/><path class="st1" d="M497.3 137.2c1.2-.6 2.3-1.4 3.4-2.1l1.6-1.1 1.6-1.1c.5-.4 1.1-.7 1.7-1s1-.8 1.3-1.4c.3-.6.6-1.2.7-1.9.2-.7.2-1.5.1-2.5l-.4-.4c-1-.1-1.8.1-2.5.3-.7.2-1.3.5-1.9.9-.5.4-1 .8-1.3 1.4-.3.6-.6 1.2-.9 1.7l-1 1.6-1 1.7c-.6 1.1-1.3 2.3-1.8 3.5l.4.4zM499.5 171c1 .9 2 1.7 3 2.6l1.5 1.2 1.6 1.1c.5.4 1 .8 1.5 1.3.5.4 1.1.7 1.7.8s1.3.2 2.1.1c.7-.1 1.5-.2 2.4-.7l.2-.5c-.3-1-.6-1.7-1.1-2.3-.4-.6-.9-1.1-1.4-1.5s-1.1-.7-1.7-.8c-.7-.1-1.3-.2-1.9-.3l-1.9-.5-1.9-.4c-1.3-.2-2.6-.5-3.9-.6l-.2.5zM430.3 133c-.1-1.3-.4-2.6-.6-3.9l-.4-1.9-.5-1.9c-.2-.6-.2-1.3-.3-1.9-.1-.6-.4-1.2-.8-1.7s-.9-1-1.5-1.4-1.3-.8-2.3-1.1l-.5.2c-.4.9-.6 1.7-.7 2.4-.1.7 0 1.4.1 2.1.1.6.4 1.2.8 1.7s.9 1 1.3 1.5l1.1 1.6 1.2 1.5c.8 1 1.6 2 2.6 3l.5-.2zM507.4 152.9c1.2.7 2.2.9 3.2 1 1 0 1.8-.1 2.7-.4.8-.3 1.6-.8 2.3-1.5s1.3-1.5 1.7-2.9c-1.2-.7-2.2-.9-3.2-1-1 0-1.8.1-2.7.4-.8.3-1.6.8-2.3 1.5s-1.3 1.6-1.7 2.9zM415.9 140.8c.5 1.3 1.1 2.1 1.8 2.8.7.6 1.5 1.1 2.3 1.4.8.3 1.7.4 2.7.3 1-.1 2-.4 3.2-1.1-.5-1.3-1.1-2.2-1.8-2.8-.7-.7-1.5-1.1-2.3-1.4-.8-.3-1.7-.4-2.7-.3-1 .1-2 .4-3.2 1.1zM415.5 165.1c1.4.5 2.6.5 3.7.4s2.1-.5 3-.9c.9-.5 1.7-1.1 2.5-1.9.7-.8 1.4-1.8 1.7-3.3-1.4-.5-2.6-.5-3.7-.4s-2.1.5-3 .9c-.9.5-1.7 1.1-2.5 1.9-.6.9-1.3 1.9-1.7 3.3z"/></g><path class="st3" d="M239.1 385.2c0 1.3 1.3 2 4 2.7 26.6 3.3 188.2 25.2 188.2 25.2 8 .7 21.3-2 29.9-7.3 0 0 93.8-48.5 95.8-49.8 3.3-3.3 4.7-6 4.7-9.3-1.3-20.6-16.6-81-25.9-79.7-60.5 6-296 115.5-296 115.5l-.7 2.7z"/><path d="M228.5 375.3c0 1.3 1.3 2 4 2.7 26.6 3.3 188.2 25.2 188.2 25.2 8 .7 21.3-2 29.9-7.3 0 0 93.8-48.5 95.8-49.8 3.3-3.3 4.7-6 4.7-9.3-1.3-20.6-16.6-81-25.9-79.7-60.5 6-296 115.5-296 115.5l-.7 2.7z" fill="#bfbebe"/><path d="M444 389.2c-4 2-8.6 2.7-12.6 2l-184.9-23.9c-4-.7-4-3.3 0-5.3l83.1-40.5 200.9 24.6-86.5 43.1z" fill="#e6e6e3"/><path class="st2" d="M490.5 349.4c4 .7 6 .7 10 1.3-4 2-6 3.3-10.6 5.3-4-.7-6-.7-10-1.3 4-2 6-2.7 10.6-5.3zM475.2 348.1c4 .7 6 .7 10 1.3-4 2-6 3.3-10.6 5.3-4-.7-6-.7-10-1.3 4.7-2.7 6.7-3.4 10.6-5.3zM460.6 346.1c4 .7 6 .7 10 1.3-4 2-6 3.3-10.6 5.3-4-.7-6-.7-10-1.3 4.6-2 6.6-3.3 10.6-5.3zM446 344.1c4 .7 6 .7 10 1.3-4 2-6 3.3-10 4.6-4-.7-6-.7-10-1.3 3.3-1.3 5.3-2 10-4.6zM430.7 342.7c4 .7 6 .7 10 1.3-4 2-6 3.3-10 4.6-4-.7-6-.7-10-1.3 4-1.9 6-2.6 10-4.6zM416 340.8c4 .7 6 .7 10 1.3-4 2-6 2.7-10 4.6-4-.7-6-.7-10-1.3 4.1-1.3 6.1-2.7 10-4.6zM401.4 339.4c4 .7 6 .7 10 1.3-4 2-6 2.7-10 4.6-4-.7-6-.7-10-1.3 4-1.9 6-3.2 10-4.6zM386.1 337.4c4 .7 6 .7 10 1.3-4 2-6 2.7-10 4.6-4-.7-6-.7-10-1.3 4-1.9 6-2.6 10-4.6zM371.5 335.4c4 .7 6 .7 10 1.3-4 2-6 2.7-10 4.6-4-.7-6-.7-10-1.3 4-1.9 6-2.6 10-4.6zM356.9 334.1c4 .7 6 .7 10 1.3-4 2-6 2.7-10 4.6-4-.7-6-.7-10-1.3 4-1.9 6-3.3 10-4.6zM341.6 332.1c4 .7 6 .7 10 1.3-4 2-6 2.7-10 4.6-4-.7-6-.7-10-1.3 4.6-1.9 6-2.6 10-4.6zM326.9 330.1c4 .7 6 .7 10 1.3-4 2-6 2.7-10 4.6-4-.7-6-.7-10-1.3 4-1.9 6-2.6 10-4.6zM475.9 356.7c4 .7 6 .7 10 1.3-4 2-6 2.7-10 4.6-4-.7-6-.7-10-1.3 4-1.3 6-2.6 10-4.6zM461.3 354.7c4 .7 6 .7 10 1.3-4 2-6 2.7-10 4.6-4-.7-6-.7-10-1.3 3.3-1.3 5.3-2.6 10-4.6zM446 353.4c4 .7 6 .7 10 1.3-4 2-6 2.7-10 4.6-4-.7-6-.7-10-1.3 4-2 6-2.6 10-4.6zM431.3 351.4c4 .7 6 .7 10 1.3-4 2-6 2.7-10 4.6-4-.7-6-.7-10-1.3 4.1-2 6.1-2.6 10-4.6zM416.7 349.4c4 .7 6 .7 10 1.3-4 2-6 2.7-10 4.6-4-.7-6-.7-10-1.3 4-2 6-2.6 10-4.6zM402.1 347.4c4 .7 6 .7 10 1.3-4 2-6 2.7-10 4.6-4-.7-6-.7-10-1.3 4-1.3 6-2.6 10-4.6zM387.4 346.1c4 .7 6 .7 10 1.3-4 2-6 2.7-10 4.6-4-.7-6-.7-10-1.3 4.1-2 6.1-2.6 10-4.6zM372.2 344.1c4 .7 6 .7 10 1.3-4 2-6 2.7-10 4.6-4-.7-6-.7-10-1.3 4-2 6-2.6 10-4.6zM357.5 342.1c4 .7 6 .7 10 1.3-4 2-6 2.7-10 4.6-4-.7-6-.7-10-1.3 4-2 6-2.6 10-4.6zM342.9 340.1c4 .7 6 .7 10 1.3-4 2-6 2.7-10 4.6-4-.7-6-.7-10-1.3 4-1.3 6-2.6 10-4.6zM328.3 338.8c4 .7 6 .7 10 1.3-4 2-6 2.7-10 4.6-4-.7-6-.7-10-1.3 4-2 6-2.6 10-4.6z"/><path class="st2" d="M313 336.8c6.7.7 10 1.3 16.6 2-4 2-6 2.7-10 4.6-6.7-.7-10-1.3-16.6-2 4.6-2 6.6-2.6 10-4.6zM455.3 362.7c6.7.7 10 1.3 16.6 2-4 2-6 2.7-10 4.6-6.7-.7-10-1.3-16.6-2 4-2 6-2.6 10-4.6z"/><path class="st2" d="M446.6 361.3c4 .7 6 .7 10 1.3-4 2-6 2.7-10 4.6-4-.7-6-.7-10-1.3 4.1-1.2 6.7-2.6 10-4.6zM432 360c4 .7 6 .7 10 1.3-4 2-6 2.7-10 4.6-4-.7-6-.7-10-1.3 4-1.9 6-2.6 10-4.6zM417.4 358c4 .7 6 .7 10 1.3-4 2-6 2.7-10 4.6-4-.7-6-.7-10-1.3 4-1.9 6-2.6 10-4.6zM402.7 356c4 .7 6 .7 10 1.3-4 2-6 2.7-10 4.6-4-.7-6-.7-10-1.3 4.1-1.9 6.1-2.6 10-4.6zM388.1 354.7c4 .7 6 .7 10 1.3-4 2-6 2.7-10 4.6-4-.7-6-.7-10-1.3 4-2 6-3.3 10-4.6zM373.5 352.7c4 .7 6 .7 10 1.3-4 2-6 2.7-10 4.6-4-.7-6-.7-10-1.3 4-1.9 6-2.6 10-4.6zM358.8 350.7c4 .7 6 .7 10 1.3-4 2-6 2.7-10 4.6-4-.7-6-.7-10-1.3 4.1-1.9 6.1-2.6 10-4.6zM343.6 348.7c4 .7 6 .7 10 1.3-4 2-6 2.7-10 4.6-4-.7-6-.7-10-1.3 4.6-1.9 6.6-2.6 10-4.6zM328.9 346.7c4 .7 6 .7 10 1.3-4 2-6 2.7-10 4.6-4-.7-6-.7-10-1.3 4-1.3 6-2.6 10-4.6zM314.3 345.4c4 .7 6 .7 10 1.3-4 2-6 2.7-10 4.6-4-.7-6-.7-10-1.3 4-1.9 6-2.6 10-4.6zM299.7 343.4c4 .7 6 .7 10 1.3-4 2-6 2.7-10 4.6-4-.7-6-.7-10-1.3 4-1.9 6-2.6 10-4.6zM448 370c4 .7 6 .7 10 1.3-4 2-6 2.7-9.3 4.6-4-.7-6-.7-10-1.3 3.3-2 5.3-2.6 9.3-4.6zM433.3 368c4 .7 6 .7 10 1.3-4 2-6 2.7-10 4.6-4-.7-6-.7-10-1.3 4.1-1.3 6.1-2.6 10-4.6zM418.7 366.6c4 .7 6 .7 10 1.3-4 2-6 2.7-10 4.6-4-.7-6-.7-10-1.3 4-1.9 6-3.2 10-4.6zM403.4 364.7c4 .7 6 .7 10 1.3-4 2-6 2.7-10 4.6-4-.7-6-.7-10-1.3 4.7-2 6.7-2.7 10-4.6zM388.8 362.7c4 .7 6 .7 10 1.3-4 2-6 2.7-10 4.6-4-.7-6-.7-10-1.3 4-2 6-2.6 10-4.6zM374.1 360.7c4 .7 6 .7 10 1.3-4 2-6 2.7-10 4.6-4-.7-6-.7-10-1.3 4.1-1.3 6.1-2.6 10-4.6zM359.5 359.3c4 .7 6 .7 10 1.3-4 2-6 2.7-10 4.6-4-.7-6-.7-10-1.3 4-1.9 6-3.2 10-4.6zM344.9 357.3c4 .7 6 .7 10 1.3-4 2-6 2.7-10 4.6-4-.7-6-.7-10-1.3 4-1.9 6-2.6 10-4.6zM330.2 355.4c4 .7 6 .7 10 1.3-4 2-6 2.7-10 4.6-4-.7-6-.7-10-1.3 4.1-1.3 6.1-2.7 10-4.6zM315.6 353.4c4 .7 6 .7 10 1.3-4 2-6 2.7-10 4.6-4-.7-6-.7-10-1.3 4-1.3 6-2.6 10-4.6zM294.3 351.4c6.7.7 10 1.3 16.6 2-4 2-6 2.7-10 4.6-6.7-.7-10-1.3-16.6-2 4-2 6-3.3 10-4.6z"/><path class="st2" d="M285.7 350c4 .7 6 .7 10 1.3-4 2-6 2.7-10 4.6-4-.7-6-.7-10-1.3 4-1.9 6-2.6 10-4.6zM432.7 377.3c4 .7 6 .7 10 1.3-4 2-6 2.7-9.3 4.6-4-.7-6-.7-10-1.3 3.3-2 5.3-2.6 9.3-4.6zM418 375.9c4 .7 6 .7 10 1.3-4 2-6 2.7-9.3 4.6-4-.7-6-.7-10-1.3 3.4-1.9 5.4-3.2 9.3-4.6zM402.7 373.9c4 .7 6 .7 10 1.3-4 2-6 2.7-9.3 4.6-4-.7-6-.7-10-1.3 4-1.9 5.4-2.6 9.3-4.6zM314.3 363.3c27.9 3.3 55.9 6.6 83.8 10-4 2-6 2.7-10 4.6-27.9-3.3-56.5-6.6-84.5-10 4.7-1.9 6.7-2.6 10.7-4.6zM299.7 361.3c4 .7 6 .7 10 1.3-4 2-6 2.7-10 4.6-4-.7-6-.7-10-1.3 4-1.9 6-2.6 10-4.6zM284.4 359.3c4 .7 6 .7 10 1.3-4 2-6 2.7-10 4.6-4-.7-6-.7-10-1.3 4-1.2 6-2.6 10-4.6zM269.7 358c4 .7 6 .7 10 1.3-4 2-6 2.7-10 4.6-4-.7-6-.7-10-1.3 4-1.9 6-2.6 10-4.6z"/><g id="iPad"><path class="st3" d="M350.9 190v1.3l-23.3 118.8v1.3c-.7 5.3 2.7 10.6 8 11.3l186.9 25.2c5.3.7 10.6-2.7 12-8v-1.3l23.3-118.8v-1.3c1.3-6-2.7-11.3-8-12l-186.9-25.2c-5.4-1.2-11.4 2.8-12 8.7"/><path class="st6" d="M538 275.5c1.5-1 3.4-.8 4.2.4s.2 3-1.4 4c-1.5 1-3.4.8-4.2-.4-.8-1.2-.2-3 1.4-4zM344.2 258.4c.7 0 1.3-.7 1.3-.7l3.3-17.3c0-.7 0-1.3-.7-1.3s-1.3 0-1.3.7l-3.3 17.3c-.6.7.1 1.3.7 1.3z"/><path class="st7" d="M525.7 310.7l1.4.2.2-.8-1.4-.2z"/><path class="st8" d="M501.4 306.3l1.1-8L346.7 276l-1.7 8.9 155.6 22s.7 0 0 .7c0 0 0 .7-.7 0l-155-22-4.6 23.3c0 1.3.7 3.3 2.7 3.3l154 21.6 4.2-27.6.2.1zM359.5 281l-4 2.7h-1.3l-2.7-3.3v-1.3h1.3l2 2.7 3.3-2h1.3c.1.5.1.5.1 1.2zm57.9 7.3l10.6 1.3s.7 0 0 .7c0 0 0 .7-.7 0l-10-1.3.1-.7zm63.8 12h-.7v1.3l-2-2.7 2.7-2v1.3c.7.7 1.3.7 2 1.3.7.7.7 1.3.7 2-1.3-.6-2-1.2-2.7-1.2zm8.7 1.9l-.7-1.3c-.7 0-1.3 0-2.7.7.7-.7.7-1.3 1.3-2 .7-.7 1.3-.7 2.7-.7v-1.3l2 2.7-2.6 1.9zm8 1.4h-4l.7-4h1.3v-.7h1.3v.7h1.4l-.7 4zM346.8 275.4l156.4 22.2s.2 0 .3.1l24.1 3.6 8.8-44.5-180.9-25.4-8.7 44z"/><path class="st8" d="M543.8 219.3c0-1.3-.7-3.3-2.7-3.3l-174.9-24.6c-1.3 0-2.7 1.3-3.3 2.7l-7.4 37.4 180.9 25.4 7.4-37.6M379.5 200l73.2 10.6c.7 0 1.3.7.7 1.3 0 .7-.7 1.3-1.3.7L378.8 202c-.7 0-.7-.7-.7-1.3 0-.7.7-1.4 1.4-.7m-10.7-2l4-2h1.3c0 .7 0 .7-.7 1.3l-3.3 2 1.3 3.3c.7 0 .7.7-.7.7h0l-2.7-4c.2-.6.2-.6.8-1.3m-8 8.6l39.2 5.3v2l-39.9-6 .7-1.3"/><path class="st9" d="M371.5 202.7l-1.3-3.3 3.3-2c.7-.7.7-.7.7-1.3h-1.3l-4 2c-.7.7-.7.7-.7 1.3l2.7 4c1.3-.1 1.3-.7.6-.7z"/><path class="st10" d="M354.9 281.7l-2-2.7h-1.3v1.3l2.7 3.3h1.3l4-2.7v-1.3h-1.3l-3.4 2.1z"/><path class="st11" d="M490.5 298.9c-1.3 0-2 0-2.7.7s-.7 1.3-1.3 2c1.3-.7 2-.7 2.7-.7h0l.7 1.3 2.7-2-2-2.7v1.4h-.1zM481.2 298.3V297l-2.7 2 2 2.7v-1.3h.7c.7 0 1.3.7 2.7 1.3 0-.7 0-1.3-.7-2-.6-.8-1.3-.8-2-1.4zM497.2 302.9l.7-3.3h-.7l-.7 3.3.7-3.3v-.7c-.7 0-1.3-.2-1.3-.2v.7l-1.3-.1-.7 4.3 3.9.6.8-4.6h-.7l-.7 3.3zm-.7-3.3l-.7 3.3.7-3.3z"/><path class="st9" d="M378.8 202l73.2 10.6c.7.7 1.3 0 1.3-.7.7-.7 0-1.3-.7-1.3L379.5 200c-.7-.7-1.3 0-1.3.7-.1.6-.1 1.3.6 1.3zM449.5 227.3L375 216.6c-.7-.7-1.3 0-1.3.7s0 1.3.7 1.3l74.5 10.6c.7.7 1.3 0 1.3-.7.6-.6 0-1.2-.7-1.2zM369.4 215.7l-3.4-.7c-.7-.7-1.3 0-1.3.7s0 1.3.7 1.3l3.3.7c.7.7 1.3 0 1.3-.7.7-.6 0-1.3-.6-1.3z"/><path class="st7" d="M400.1 212l-39.3-5.4-.6 1.4 39.9 5.9z"/><path class="st9" d="M356.8 224.5l180.9 25.4.1-.7L357 223.7z"/><path class="st12" d="M368.3 252.3l75.8 10.9.1-.7-75.7-11z"/><path class="st12" d="M369.9 242.8l-1.6 9.4.7.1 1.7-9.3zM445 253.3l-1.5 9.4.6.1 1.7-9.4z"/><path fill="#e6e7e7" d="M369.8 243l76 10.7 1.5-8.5-76.2-10.8z"/><path class="st9" d="M502.5 297.6l.9.1c-.1-.1-.3-.1-.3-.1l-156.4-22.2-.1.6 155.7 22.2.2-.6zM428 290.3c.7-.7 0-.7 0-.7l-10.6-1.3v.7l10 1.3c.6.7.6 0 .6 0zM428 291.6l-10.6-1.3v.7l10 1.3c.7.7.7 0 .7 0 .6-.7-.1-.7-.1-.7zM427.8 293.8l-10.6-1.3v.7l10 1.3c.7.7.7 0 .7 0 .5-.7-.1-.7-.1-.7z"/><path class="st10" d="M503.2 298.3s0 .7-.7 0h-.1l-1.1 8 24.5 3.7 1.7-8.6-24.1-3.6c.1 0 .1.2-.2.5z"/><path class="st10" d="M502.4 298.2c.8.7.8 0 .8 0 .3-.3.3-.4.3-.5l-.9-.1-.2.6z"/><path class="st7" d="M521.1 334.1l4.6-23.4-24.6-3.1.2-1.3h-.2l-4.2 27.6 20.8 2.9c1.4 0 3.4-.7 3.4-2.7z"/><path class="st7" d="M525.7 310.7l.2-.8-24.5-3.6-.2 1.3z"/><path class="st9" d="M500.5 307.6c.7-.7 0-.7 0-.7l-155.6-22-.1.6 155 22c.7.7.7.1.7.1zM400.1 212l141 20.2v1.3l-141-19.6zM380 239.6l-3.3-.7c-.7-.7-1.3 0-1.3.7s0 1.3.7 1.3l3.3.7c.7.7 1.3 0 1.3-.7.6-.7 0-1.3-.7-1.3zM404.1 242.8l-3.3-.7c-.7-.7-1.3 0-1.3.7s0 1.3.7 1.3l3.3.7c.7.7 1.3 0 1.3-.7.6-.7-.1-1.3-.7-1.3zM421.9 245l-3.3-.7c-.7-.7-1.3 0-1.3.7s0 1.3.7 1.3l3.3.7c.7.7 1.3 0 1.3-.7.6-.7-.1-1.3-.7-1.3zM439.6 247.7l-3.3-.7c-.7-.7-1.3 0-1.3.7s0 1.3.7 1.3l3.3.7c.7.7 1.3 0 1.3-.7.6-.7-.1-1.3-.7-1.3z"/><path class="st12" d="M385.5 236.4l-2.9 17.3.7.1 3-17.3zM394.1 237.7l-3 17.5.7.2 3.1-17.5zM410.8 240.2l-3 17.6.6.1 3.2-17.5zM428.7 242.6l-3 17.5.7.1 3.1-17.5z"/><path class="st9" d="M353.9 308.3l-1.1-.2c-.2 0-.4-.2-.3-.5 0-.2.2-.4.5-.3l1.1.1c.2 0 .4.2.3.5-.1.3-.3.4-.5.4zM485.6 327l-2.2-.3c-.2 0-.4-.2-.3-.5 0-.2.2-.4.5-.3l2.1.3c.2 0 .4.2.3.5 0 .2-.2.3-.4.3zm-4.2-.6l-2.2-.3c-.2 0-.4-.2-.3-.5 0-.2.2-.4.5-.3l2.1.3c.2 0 .4.2.3.5-.1.2-.2.3-.4.3zm-4.3-.6l-2.2-.3c-.2 0-.4-.2-.3-.5 0-.2.2-.4.5-.3l2.1.3c.2 0 .4.2.3.5 0 .2-.2.3-.4.3zm-4.2-.6l-2.2-.3c-.2 0-.4-.2-.3-.5 0-.2.2-.4.5-.3l2.1.3c.2 0 .4.2.3.5-.1.2-.2.3-.4.3zm-4.3-.6l-2.2-.3c-.2 0-.4-.2-.3-.5 0-.2.2-.4.5-.3l2.1.3c.2 0 .4.2.3.5 0 .2-.2.3-.4.3zm-4.2-.6l-2.2-.3c-.2 0-.4-.2-.3-.5 0-.2.2-.4.5-.3l2.1.3c.2 0 .4.2.3.5-.1.1-.2.3-.4.3zm-4.3-.6l-2.2-.3c-.2 0-.4-.2-.3-.5 0-.2.2-.4.5-.3l2.1.3c.2 0 .4.2.3.5 0 .1-.2.3-.4.3zm-4.2-.6l-2.2-.3c-.2 0-.4-.2-.3-.5 0-.2.2-.4.5-.3l2.1.3c.2 0 .4.2.3.5 0 .1-.2.3-.4.3zm-4.3-.6l-2.2-.3c-.2 0-.4-.2-.3-.5 0-.2.2-.4.5-.3l2.1.3c.2 0 .4.2.3.5 0 .1-.2.3-.4.3zm-4.2-.6l-2.2-.3c-.2 0-.4-.2-.3-.5 0-.2.2-.4.5-.3l2.1.3c.2 0 .4.2.3.5 0 .1-.2.3-.4.3zm-4.3-.6l-2.2-.3c-.2 0-.4-.2-.3-.5 0-.2.2-.4.5-.3l2.1.3c.2 0 .4.2.3.5 0 .1-.2.3-.4.3zm-4.2-.6l-2.2-.3c-.2 0-.4-.2-.3-.5 0-.2.2-.4.5-.3l2.1.3c.2 0 .4.2.3.5 0 .1-.2.3-.4.3zm-4.3-.6l-2.2-.3c-.2 0-.4-.2-.3-.5 0-.2.2-.4.5-.3l2.1.3c.2 0 .4.2.3.5 0 .1-.2.3-.4.3zm-4.2-.6l-2.2-.3c-.2 0-.4-.2-.3-.5 0-.2.2-.4.5-.3l2.1.3c.2 0 .4.2.3.5 0 .1-.2.3-.4.3zm-4.3-.6l-2.2-.3c-.2 0-.4-.2-.3-.5 0-.2.2-.4.5-.3l2.1.3c.2 0 .4.2.3.5 0 .1-.2.3-.4.3zm-4.2-.6l-2.2-.3c-.2 0-.4-.2-.3-.5 0-.2.2-.4.5-.3l2.1.3c.2 0 .4.2.3.5 0 .1-.2.3-.4.3zm-4.3-.6l-2.2-.3c-.2 0-.4-.2-.3-.5 0-.2.2-.4.5-.3l2.1.3c.2 0 .4.2.3.5 0 .1-.2.3-.4.3zm-4.2-.6l-2.2-.3c-.2 0-.4-.2-.3-.5 0-.2.2-.4.5-.3l2.1.3c.2 0 .4.2.3.5 0 .1-.2.3-.4.3zm-4.3-.7l-2.2-.3c-.2 0-.4-.2-.3-.5 0-.2.2-.4.5-.3l2.1.3c.2 0 .4.2.3.5 0 .2-.2.3-.4.3zm-4.2-.6l-2.2-.3c-.2 0-.4-.2-.3-.5 0-.2.2-.4.5-.3l2.1.3c.2 0 .4.2.3.5 0 .2-.2.3-.4.3zm-4.2-.6l-2.2-.3c-.2 0-.4-.2-.3-.5 0-.2.2-.4.5-.3l2.1.3c.2 0 .4.2.3.5-.1.2-.3.3-.4.3zm-4.3-.6l-2.2-.3c-.2 0-.4-.2-.3-.5 0-.2.2-.4.5-.3l2.1.3c.2 0 .4.2.3.5 0 .2-.2.3-.4.3zm-4.2-.6l-2.2-.3c-.2 0-.4-.2-.3-.5 0-.2.2-.4.5-.3l2.1.3c.2 0 .4.2.3.5-.1.2-.3.3-.4.3zm-4.3-.6l-2.2-.3c-.2 0-.4-.2-.3-.5 0-.2.2-.4.5-.3l2.1.3c.2 0 .4.2.3.5 0 .2-.2.3-.4.3zm-4.2-.6l-2.2-.3c-.2 0-.4-.2-.3-.5 0-.2.2-.4.5-.3l2.1.3c.2 0 .4.2.3.5-.1.2-.2.3-.4.3zm-4.3-.6l-2.2-.3c-.2 0-.4-.2-.3-.5 0-.2.2-.4.5-.3l2.1.3c.2 0 .4.2.3.5 0 .2-.2.3-.4.3zm-4.2-.6l-2.2-.3c-.2 0-.4-.2-.3-.5 0-.2.2-.4.5-.3l2.1.3c.2 0 .4.2.3.5-.1.2-.2.3-.4.3zm-4.3-.6l-2.2-.3c-.2 0-.4-.2-.3-.5 0-.2.2-.4.5-.3l2.1.3c.2 0 .4.2.3.5 0 .2-.2.3-.4.3zm-4.2-.6l-2.2-.3c-.2 0-.4-.2-.3-.5 0-.2.2-.4.5-.3l2.1.3c.2 0 .4.2.3.5-.1.2-.2.3-.4.3zm-4.3-.6l-2.2-.3c-.2 0-.4-.2-.3-.5 0-.2.2-.4.5-.3l2.1.3c.2 0 .4.2.3.5 0 .2-.2.3-.4.3zm-4.2-.6l-2.2-.3c-.2 0-.4-.2-.3-.5 0-.2.2-.4.5-.3l2.1.3c.2 0 .4.2.3.5-.1.2-.2.3-.4.3zM488.8 327.5l-1.1-.2c-.2 0-.4-.2-.3-.5 0-.2.2-.4.5-.3l1.1.1c.2 0 .4.2.3.5-.1.2-.3.4-.5.4z"/><path class="st14" d="M372.8 246.3v-.2c.5.1.9 0 1.2-.2l.1.1v.1l-.5 3.6v.2c0 .1.1.1.3.2 0 0 .2 0 .4.1v.2c-.1 0-.3-.1-.4-.1l-1.2-.2h-.4v-.2h.2c.3 0 .5 0 .6-.1l.1-.2.5-3.3c-.3.1-.6.1-.9 0zM375 250.4l.1-.2 1.4-1.2c.5-.4.8-.9.9-1.3 0-.3 0-.5-.1-.7s-.3-.4-.6-.4c-.2 0-.4 0-.5.1-.2.1-.3.2-.4.4.2 0 .3.2.3.4l-.1.2-.2.1c-.2 0-.3-.2-.3-.4 0-.3.2-.6.5-.8s.5-.3.8-.2c.4.1.7.2.9.5.2.3.3.6.3 1 0 .2-.1.5-.3.7-.1.1-.3.3-.6.5l-1.5 1.1 1.3.2h.5s.1-.2.2-.5h.2l-.3 1.1-2.5-.6zM378.1 249.9c0-.1.1-.2.1-.2.1-.1.2-.1.3-.1.1 0 .2.1.2.1.1.1.1.2.1.3s-.1.2-.1.2c-.1.1-.2.1-.3.1h-.1c.1.2.2.3.4.4.2.1.3.2.5.2.3 0 .5-.1.6-.3s.2-.4.2-.7 0-.5-.1-.7c-.1-.3-.3-.4-.6-.4h-.3l-.1-.1.1-.1h.2c.3 0 .5-.1.6-.3s.2-.4.3-.7c0-.2 0-.4-.1-.5-.1-.2-.2-.3-.4-.3-.4-.1-.7.1-.9.3.3 0 .4.2.3.4l-.1.2-.2.1-.2-.1-.1-.2c0-.3.2-.5.5-.6.2-.1.5-.2.8-.1.3 0 .5.1.8.3.2.2.3.4.3.7s-.2.5-.4.7c-.2.2-.4.3-.7.3.3.1.5.3.7.5s.2.5.2.8-.2.6-.5.8-.6.3-1 .2c-.3 0-.6-.2-.8-.4-.1-.2-.3-.5-.2-.8z"/><path class="st9" d="M389.9 242.3l-1.1-.2c-.2 0-.4-.2-.3-.5 0-.2.2-.4.5-.3l1.1.1c.2 0 .4.2.3.5-.1.3-.3.4-.5.4zM388.6 250.4l-1.1-.2c-.2 0-.4-.2-.3-.5 0-.2.2-.4.5-.3l1.1.1c.2 0 .4.2.3.5s-.3.4-.5.4z"/><path class="st15" d="M535 226.6l-4.2-.7c-.3 0-.5-.3-.4-.6l.9-5.3c0-.3.3-.5.6-.4l4.2.7c.3 0 .5.3.4.6l-.9 5.3c0 .3-.3.5-.6.4zm-3.2-6.7c-.1 0-.3.1-.3.2l-.9 5.3c0 .1.1.3.2.3l4.2.7c.1 0 .3-.1.3-.2l.9-5.3c0-.1-.1-.3-.2-.3l-4.2-.7z"/><path class="st16" d="M532.3 220.5c.1 0 .2.2.2.3s-.2.2-.3.2-.2-.2-.2-.3c0-.1.1-.2.3-.2zM533.3 220.7c.1 0 .2.2.2.3s-.2.2-.3.2-.2-.2-.2-.3c0-.1.2-.2.3-.2zM534.4 220.8c.1 0 .2.2.2.3s-.2.2-.3.2-.2-.2-.2-.3c0-.1.1-.2.3-.2zM535.4 221c.1 0 .2.2.2.3s-.2.2-.3.2-.2-.2-.2-.3c0-.1.2-.2.3-.2zM532.3 225.2h-.2c-.2-.1-.3-.2-.3-.3 0-.3.4-.5 1.3-.9.5-.2 1.5-.7 1.5-.9-.1-.1-.8.2-1.1.3-.7.3-1.1.4-1.4.3-.2-.1-.2-.2-.2-.3 0-.2.2-.4.6-.7.3-.2.7-.5.8-.7v-.1c-.1 0-.2 0-.7.2-.1 0-.2 0-.3-.1 0-.1 0-.2.1-.3.6-.2.9-.3 1.1-.1.1.1.2.2 0 .5-.1.3-.5.6-.9.9-.1.1-.3.2-.4.3.2 0 .7-.2 1-.3.6-.2 1.2-.5 1.5-.3.1.1.2.2.2.4 0 .5-.7.8-1.8 1.3-.3.1-.8.3-1 .5.4.1.9-.1 1.4-.3s.9-.4 1.2-.2c.2.2.2.6.1.9 0 .1-.1.2-.2.1-.1 0-.2-.1-.1-.2.1-.4 0-.5 0-.5-.1-.1-.5.1-.8.2-.4.2-.9.4-1.4.3z"/><path class="st15" d="M525.6 224.4l-3.9-.7c-.2 0-.4-.2-.3-.5l.9-4.7c0-.2.2-.4.5-.3l3.9.7c.2 0 .4.2.3.5l-.9 4.7c0 .2-.3.3-.5.3zm-2.9-6l-.2.1-.9 4.7.1.2 3.9.7.2-.1.9-4.7-.1-.2-3.9-.7z"/><path class="st15" d="M525.1 225l-3.9-.7c-.4-.1-.6-.4-.5-.8l.9-4.7.2-.1.1.2-.9 4.7c0 .2.1.4.3.5l3.9.7.1.2h-.2z"/><path class="st16" d="M523.1 219.3l2.8.6.1.1-.1.1-2.9-.5-.1-.2zM522.8 220.9l1 .2.1.1-.1.1-1.1-.1-.1-.2zM522.5 222.5l1.3.2.1.2-.2.1-1.3-.3-.1-.1zM522.9 220.1l2.6.5.1.2-.1.1-2.6-.5-.1-.2zM522.6 221.7l2.9.5.1.2-.2.1-2.8-.6-.1-.1z"/><path class="st17" d="M515.9 223.1l-.1-.1-.8-.1-.1.1c.1.1.3.2.5.2.1 0 .3 0 .5-.1"/><path class="st17" d="M515.7 221.1c-.6-.1-1.1.3-1.2.9-.1.6.3 1.1.9 1.2.6.1 1.1-.3 1.2-.9 0-.6-.3-1.1-.9-1.2"/><path class="st8" d="M516.7 217.8"/><defs><path id="SVGID_1_" d="M511.2 216.7h5.5v6h-5.5v-6"/></defs><clipPath id="SVGID_2_"><use xlink:href="#SVGID_1_" overflow="visible"/></clipPath><path d="M511.6 222.2l2.6.5-2.6-.5m.5-5.2s0 .1 0 0l-.8 4.7.8-4.7" clip-path="url(#SVGID_2_)" fill="#edf0f1"/><defs><path id="SVGID_3_" d="M511.2 216.7h5.5v6h-5.5v-6"/></defs><clipPath id="SVGID_4_"><use xlink:href="#SVGID_3_" overflow="visible"/></clipPath><path d="M512.5 216.7c-.2 0-.3.1-.4.3l-.8 4.7c0 .2.1.3.3.4l2.6.5c0-.1-.1-.2-.1-.3l-2.5-.4-.1-.2.8-4.7.2-.1 3.8.7.1.2-.5 2.9.3.1.5-2.9v-.1c0-.2-.1-.4-.3-.4l-3.9-.7" clip-path="url(#SVGID_4_)" fill="#969696"/><path class="st8" d="M514.6999999999999 223.3"/><g><defs><path id="SVGID_5_" d="M514.3 223.3h1.6v1.5h-1.6v-1.5"/></defs><clipPath id="SVGID_6_"><use xlink:href="#SVGID_5_" overflow="visible"/></clipPath><path d="M514.6999999999999 223.3" clip-path="url(#SVGID_6_)" fill="#edf0f1"/><g><defs><path id="SVGID_7_" d="M514.3 223.3h1.6v1.5h-1.6v-1.5"/></defs><clipPath id="SVGID_8_"><use xlink:href="#SVGID_7_" overflow="visible"/></clipPath><path d="M514.7 223.3l-.3 1.1v.1l.2.1.5-.2h.1l.4.4h.1l.1-.1v-1.2H515.2c-.2 0-.4-.1-.5-.2" clip-path="url(#SVGID_8_)" fill="#999"/></g></g><g><path class="st14" d="M404.4 298.8c-1.4.7-2.5 1.6-3.5 2.8-1 1.1.6 2.8 1.7 1.7l1.1-1.1c-.2 2.9-.6 5.8-1.2 8.7-.3 1.5 2 2.1 2.3.6.8-3.9 1.2-7.8 1.4-11.7.1-.9-1-1.4-1.8-1zM424 311.7c-2.4-.3-4.9-.8-7.3-1.3 2.8-1.4 5.7-3.6 5.9-6.4.2-4.5-6.2-4.3-8.9-2.9-1.4.7-.2 2.8 1.2 2.1 1-.5 2.7-1.1 3.9-.5 2.6 1.3.3 3-.5 3.7-1.7 1.4-3.6 2.4-5.6 3.1-1.1.4-1.2 2 0 2.3 3.8 1 7.5 1.7 11.4 2.3 1.5.2 1.4-2.2-.1-2.4zM437 308.1c.7-1 1-2.1.5-3.5-.9-2.4-3.6-3-5.7-1.9-1.4.7-.1 2.8 1.2 2.1.6 0 1.3.1 1.9.1.5 1 .5 1.8-.2 2.3-.4.6-1.1 1-1.7 1.3-1.1.7-.4 2.6.9 2.2.8-.2 1.6-.5 2.4-.5 1.4-.1 1.9.6 1.5 2.2-.3.3-.7.6-1.1.7-1.8.8-4 .6-5.9.5-1.5-.1-1.5 2.3 0 2.4 3.1.1 9.2.2 9.8-4.1.4-2.6-1.5-3.6-3.6-3.8z"/></g></g><g><path d="M479.8 418.3c-2.5 0-5.2.4-7.3 1.4l-74.5 31c-4.2 1.9-5 4.5-1.8 6.5l35.9 19.9c1.6.7 3.9 1.1 6.2 1.1 2.5 0 5.2-.4 7.3-1.4l74.5-31.1c4.2-1.9 5.1-5.1 1.8-6.5L486 419.3c-1.6-.6-3.8-1-6.2-1" fill="#f5f6f6"/><path class="st6" d="M397.6 446.8l62.6-24.8c3.5-1.2 8.9-1.1 11.5.3l30.7 16.5c2.6 1.4 1.8 4-1.7 5.2L438 468.8c-3.5 1.2-8.9 1.1-11.5-.3L395.8 452c-2.5-2-2.4-4 1.8-5.2z"/><path class="st6" d="M397.4 448.8l-3.4.5.2-2.6zM500.9 439.4l2.6 2 .8-2.6z"/><path class="st23" d="M397.7 444.2l62.6-24.8c3.5-1.2 8.9-1.1 11.5.3l30.7 16.5c2.6 1.4 1.8 4-1.7 5.2l-62.6 24.8c-3.5 1.2-8.9 1.1-11.5-.3L396 449.4c-2.5-2.1-1.7-4 1.7-5.2z"/><path class="st7" d="M456.6 424.6l2.1-.6c2.8-1.2 6.8-1.2 9.5.2l24.8 13.7c1.9 1.4 1.8 3.3-.9 3.9l-2.1.6c-2.8 1.2-6.8 1.2-9.5-.2l-24.8-13.7c-2.7-.8-1.9-2.7.9-3.9z"/><path class="st24" d="M460.6 445l3.5-1.2c1.4-.6 3.4-.6 4.1.1l2.6 1.4c.6.7.6 1.3-.8 2l-3.5 1.2c-1.4.6-3.4.6-4.1-.1l-2.6-1.4c-.7-.1-.6-1.4.8-2zM452.8 440.9l3.5-1.2c1.4-.6 3.4-.6 4.1.1l2.6 1.4c.6.7.6 1.3-.8 2l-3.5 1.2c-1.4.6-3.4.6-4.1-.1l-2.6-1.4c-.7-.7-.6-1.4.8-2zM444.9 436.8l3.5-1.2c1.4-.6 3.4-.6 4.1.1l2.6 1.4c.6.7.6 1.3-.8 2l-3.5 1.2c-1.4.6-3.4.6-4.1-.1l-2.6-1.4c-.6-.8-.6-1.4.8-2zM450.2 449.4l3.5-1.2c1.4-.6 3.4-.6 4.1.1l2.6 1.4c.6.7.6 1.3-.8 2l-3.5 1.2c-1.4.6-3.4.6-4.1-.1l-2.6-1.4c-.7-.8.1-2.1.8-2zM442.3 445.2l3.5-1.2c1.4-.6 3.4-.6 4.1.1l2.6 1.4c.6.7.6 1.3-.8 2l-3.5 1.2c-1.4.6-3.4.6-4.1-.1l-2.6-1.4c-.6-.7.1-2 .8-2zM434.5 440.4l3.5-1.2c1.4-.6 3.4-.6 4.1.1l2.6 1.4c.6.7.6 1.3-.8 2l-3.5 1.2c-1.4.6-3.4.6-4.1-.1l-2.6-1.4c-.6-.7.1-1.3.8-2zM440.4 453.1l3.5-1.2c1.4-.6 3.4-.6 4.1.1l2.6 1.4c.6.7.6 1.3-.8 2l-3.5 1.2c-1.4.6-3.4.6-4.1-.1l-2.6-1.4c-.6-.8-.6-1.4.8-2zM432.6 448.9l3.5-1.2c1.4-.6 3.4-.6 4.1.1l2.6 1.4c.6.7.6 1.3-.8 2l-3.5 1.2c-1.4.6-3.4.6-4.1-.1l-2.6-1.4c-.6-.7-.6-1.3.8-2zM424.8 444.8l3.5-1.2c1.4-.6 3.4-.6 4.1.1l2.6 1.4c.6.7.6 1.3-.8 2l-3.5 1.2c-1.4.6-3.4.6-4.1-.1l-2.6-1.4c-.7-.7-.6-2 .8-2zM430.7 456.8l3.5-1.2c1.4-.6 3.4-.6 4.1.1l2.6 1.4c.6.7.6 1.3-.8 2l-3.5 1.2c-1.4.6-3.4.6-4.1-.1l-2.6-1.4c-.6-.7-.6-1.4.8-2zM422.9 452.6l3.5-1.2c1.4-.6 3.4-.6 4.1.1l2.6 1.4c.6.7.6 1.3-.8 2l-3.5 1.2c-1.4.6-3.4.6-4.1-.1l-2.6-1.4c-.7-.7-.6-1.3.8-2zM415 448.5l3.5-1.2c1.4-.6 3.4-.6 4.1.1l2.6 1.4c.6.7.6 1.3-.8 2l-3.5 1.2c-1.4.6-3.4.6-4.1-.1l-2.6-1.4c-.6-.7-.6-1.4.8-2z"/><path class="st2" d="M437.1 432.6l3.5-1.2c1.4-.6 3.4-.6 4.1.1l2.6 1.4c.6.7.6 1.3-.8 2l-3.5 1.2c-1.4.6-3.4.6-4.1-.1l-2.6-1.4c-.7-.7-.6-1.4.8-2z"/><path d="M427.4 436.3l3.5-1.2c1.4-.6 3.4-.6 4.1.1l2.6 1.4c.6.7.6 1.3-.8 2l-3.5 1.2c-1.4.6-3.4.6-4.1-.1l-2.6-1.4c-1.4-.7-.6-1.3.8-2z" fill="#e47263"/><path d="M421.8 438.2l-11.1 4.3-2.1.6c-1.4.6-2.2 2.6-.2 3.3l2 .7h2l3.5-1.2 2.1-.6 8.3-3.1c1.4-.6 2.2-2.6.2-3.3l-2-.7h-2.7z" fill="#f3b42b"/></g><g><path class="st27" d="M147.2 358.1c-1.6 41.4 22.2 29.8 61 25.5 24.2-3.1 56.6-13.2 85.6-22.7 27.7-8.9 59.6-9.6 66-12.7 13.7-6.3 17.2-12.1 5-21.4-15.7-12.3-48.3 1.1-66.7 7.6-13.8 5.4-104.2 9.5-104.2 9.5-9.2-5.6-46.2-3.2-46.7 14.2z"/></g><g id="right_arm_shadow"><path class="st28" d="M446.8 347.6c-16.6 0-32 17.4-43.9 29.3-9.9 9.6-72.2 38.3-72.2 38.3-9.3-1.6-43.8-31.4-49.6-31.4-.4 0-.7.2-.8.5-.7 1.2 2.7 9.5 2 11.3 3.1 16.4 7.4 33.4 13.7 48.7 6.2 15.1 12.6 20.7 20.2 20.7 10.7 0 23.8-10.9 42.3-21.7 20.1-11.6 28.7-23.3 51-42.4 20.3-17.9 42.4-27.1 47.1-32.5 9.9-10.8 10.2-17.1-4.2-20.2-1.9-.4-3.8-.6-5.6-.6"/></g><g id="body"><path class="st27" d="M232.3 215.1c-8.6-2.6-15.3-4.6-16.6-7.3-2.7-4.6-1.3-14.6-.7-19.2-3.3.7-31.8 5.3-57.7 0-8.6 7.9-19.9 19.2-31.8 35.8 7.3 2 21.2 6 40.5 6.6 21.2 0 52.3-10.6 66.3-15.9z"/><path class="st29" d="M131.4 395.3c13.3-47-11.9 14.6 69-142.4 6.7-10.4 38.3-26.4 51.7-32.9-8.4-2.6-16.4-4.6-22.5-6.2-18.6.7-37.2.7-59.1 0-19.2-.7-30.5-2-37.8-4.6-4.6 6.6-25.9 48.4-29.2 74.2-6.6 49.7 0 102.7 21.9 168.9 6 17.9 0 45.7 0 45.7l141.3-1.3s6.2-30.3 11.4-56.9L129.4 449c0-.1-7.9-19.3 2-53.7z"/><path class="st23" d="M278.2 439.7l1.2-.1c0-4.4 7.9-22.2 5.1-34.8-1 6.8-3.5 20.3-6.3 34.9z"/><path d="M284 403.2c-.7-2-2-6.6-5.3-14.6 0 0-17.3 8.6-17.9 4-6.6-82.1-8.6-117.9-7.3-134.5.9-13.4 12.8-24.9 19.9-30.6-6.8-2.9-14.2-5.5-21.4-7.6-13.4 6.5-44.9 22.5-51.7 32.9-80.9 157-55.7 95.4-69 142.4-10 34.4-2 53.7-2 53.7l148.7-9.2c2.8-14.6 5.3-28.1 6.3-34.8 0-.6-.1-1.2-.3-1.7z" fill="#808bb4"/><path class="st23" d="M279.4 439.6s-15.9-2-39.1-4c-23.2-1.3-120.1 2-120.1 2v25.8l155.3 4 5.3-27.2-1.4-.6z"/><path class="st23" d="M243.6 217.1s-23.2 10.6-31.8 23.8C177.9 293.2 142 439.6 142 439.6l139.3.7 6-31.1-3.3-7.3s-2 33.1-6.6 33.8c-4.6.7-25.2 0-25.2 0-6-106.6-1.3-161.6 0-180.8s19.9-27.8 19.9-27.8l-28.5-10zM136.7 439.6c-15.9-19.9-35.8-113.3-35.8-113.3-2.7 49 19.9 113.3 19.9 113.3h15.9zM276.7 463.5L294.3 662H76.2l44.6-201.2z"/></g><g><path class="st27" d="M272.9 394.9c5.1 16 11.4 32.8 19.4 47.4 18.7 34.9 32.8 13.9 62.7-8.4 18.5-14.3 29.3-28.7 48.7-50.5 18.6-20.8 37.9-33.5 41.6-39.2 8.3-11.9 8.3-18.3-6.2-20.1-18.9-2.6-32.7 21-44.7 35.4-8.8 11.1-66.1 43.8-66.1 43.8-6.2-.1-11.1-20.5-11.2-46.8-.1-17.3-54.7-5.3-52.1 5.3 2 7.9 3.8 14.2 3.3 16.6-.6 2.4 5 14.6 4.6 16.5z"/></g><g id="sleeve"><path class="st29" d="M253.5 258.1c-1.3 16.6.7 52.3 7.3 134.5.7 4.6 18.6-4 18.6-4l57.7-35.1s-37.8-113.3-57.7-123.2c-1.9-1-3.9-1.9-5.9-2.7-7.2 5.7-19.1 17.1-20 30.5z"/></g><g><path class="st28" d="M665.8 392.5h0m8.2-17.7l-52.8-10.3S518 388.1 507.3 418.2c-.4 1.1-.3 3.6 3.2 4.4 2.9.8 6.4 1.8 6.4 1.8l54.3 14.3c.4.2.9.3 1.4.3 1.2 0 2.6-.5 3.6-1.1l112.4-55.6c.7 0 .7-.8 1.4-1.5v-1.5.1c0-.5-.4-.8-1.1-.8l-5-1.5-9.9-2.3"/><path d="M455.3 408.5h-.3.3m0 0h-.3.3" fill="#ececec"/><path class="st23" d="M672.7 380.5c0-.4-.3-.7-1-.7l-4.6-1.3-9.3-2-62.3-15.9-81.5 39.9s-5.4 2.7-5.9 9.7c-.6 7.3 3.9 9 3.9 9l54.3 15.3c1.3.7 3.3 0 4.6-.7l100.4-50.7c.7 0 .7-.7 1.3-1.3l.1-1.3z"/><path fill="#f3f3f3" d="M570.4 417.1l-55.1-10.6-1.3 8 54.4 15.3z"/><path fill="#e1e1e2" d="M570.4 417.1l92.1-46-2 12.7-92.1 46z"/><path class="st23" d="M571.7 417.5l-56.4-11 80.2-45.9 70.8 6.5c1.6.1 2 2.2.6 3l-87.8 46.3c-2.2 1.1-4.8 1.6-7.4 1.1z"/></g><g id="Group_4_" transform="translate(21.252)"><path id="Shape_17_" class="st27" d="M194.4 197.8c.7-1.3.7-2 .7-2s19.3 0 33.9-8c12-7.3 26.6-19.9 17.3-65-4.7-21.9 1.3-39.8 1.3-39.8l-61.2-38.5-63.8 37.2s31.3 49.8 38.6 75.7c4 15.3-5.3 18.6-24.6 31.2 25.2 9.2 53.8 9.2 57.8 9.2z"/><path d="M161.1 12c-2.1 0-4.1.2-5.9.6-33.9 8-45.2 21.9-51.9 30.5-10.6 13.3-.7 35.2-.7 65 0 19.9 9.3 40.5 12.6 65l12.2 13.2c5.9 2.4 21.2 4.4 36.2 5.8 15.8-6.5 15.8-26.9 26.8-64.2-17.3-3.3-24.6-19.2-23.9-27.9.5-6 5.7-11.7 11.8-11.7 2.7 0 5.5 1.1 8.1 3.7.9.8 1.7 1.2 2.5 1.2 8 0 13.4-34.4 13.4-34.4C224.2 80 246.2 90 246.2 90c19.5-16-48.9-78-85.1-78z" fill="#977041"/><path d="M199.7 195.2s-17.8-1-36.1-2.8c-15-1.5-30.3-3.5-36.2-5.8-1-.4-1.8-.9-2.2-1.3-5.3-6.6-15.3 21.2-15.3 21.2s1.3 18.6 102.4 7.3l-12.6-18.6z" fill="#cad0e9"/><path id="Shape_20_" class="st27" d="M245.6 143.4s19.9-11.3 12.6-17.3-14.6-21.2-14.6-21.2l2 38.5z"/><path id="Shape_21_" class="st36" d="M248.9 88.3c-10 0-23.3 5.3-17.3 0s12.6-4 12.6-4 14.7 4 4.7 4z"/><path id="Shape_22_" class="st36" d="M244.2 104.3c0 1.3 10.6-3.3 6.6-2.7-4 .7-6.6-.7-6.6-.7v3.4z"/><path id="Shape_23_" d="M244.9 97.6c.7 1.3 10.6.7 14 0 8.6-1.3 3.3-18.6 1.3-29.2-6-27.9-10.6-34.5-21.9-44.5C227 14 190.4-1.9 156.5 6s-45.2 21.9-51.9 30.5c-10.6 13.9-23.9 35.2-23.9 65 0 23.9 29.3 59.1 23.9 86.3-13.3 66.4-52.5 105.5-4 273.4 15.3 53.8 18-266.1 35.9-272.8 25.9-9.3 58.5-49.1 53.9-61.1-17.3-3.3-18.6-16.6-18-24.6.7-8.6 5.3-19.2 14.6-10.6s16-33.2 16-33.2c21.9 21.2 44.5 24.6 44.5 24.6-3.3 9.5-2.6 13.5-2.6 14.1z" fill="#291a0f"/><path id="Shape_62_" d="M126.4 203.7l-25.5-6c-4.7-1.3-7.4-6-6.7-10.6 1.3-4.6 6-7.3 10.7-6.6l25.5 6c4.7 1.3 7.4 6 6.7 10.6-1.3 4.6-6 8-10.7 6.6z" fill="#b25c27"/></g><g><path class="st36" d="M269.5 159.4c-5.3 2.7-18-12.6-13.3-10 8.6 5.3 14 6 14 6l-.7 4z"/></g></svg>