<svg width="58" height="63" xmlns="http://www.w3.org/2000/svg" xmlns:xlink="http://www.w3.org/1999/xlink"><defs><path id="a" d="M0 61.807h57.305V0H0z"/></defs><g transform="translate(0 .246)" fill="none" fill-rule="evenodd"><path d="M51.124 44.082c-3.857 7.22-11.466 12.133-20.222 12.133-12.653 0-22.91-10.257-22.91-22.91s10.257-22.91 22.91-22.91c12.652 0 22.909 10.257 22.909 22.91 0 2.037-.265 4.011-.765 5.89" stroke="#2E3696" stroke-width="3" stroke-linecap="round" stroke-linejoin="round"/><mask id="b" fill="#fff"><use xlink:href="#a"/></mask><path stroke="#2E3696" stroke-width="3" stroke-linecap="round" stroke-linejoin="round" mask="url(#b)" d="M23.445 6.339h14.912V1.427H23.445zM5.925 13.59l5.262-5.261 3.474 3.473-5.263 5.262zM30.902 6.338v7.046M16.816 19.22l-4.76-4.762M55.879 13.59L50.617 8.33l-3.474 3.473 5.262 5.262zM44.987 19.22l4.76-4.762M30.902 56.215v-2.99M7.992 33.305h2.989M53.81 33.305h-2.988M16.816 47.39l-2.113 2.115M44.987 47.39l2.115 2.115M33.94 33.305a3.038 3.038 0 1 0-6.076.001 3.038 3.038 0 0 0 6.075-.001zM33.05 35.453l7.346 7.347M26.265 28.669l2.49 2.488M2.408 40.88a29.517 29.517 0 0 1-.982-7.575M19.232 60.38A29.592 29.592 0 0 1 5.609 48.45"/></g></svg>