<svg width="68" height="68" xmlns="http://www.w3.org/2000/svg"><g stroke="#2E3696" stroke-width="3" fill="none" fill-rule="evenodd" stroke-linecap="round" stroke-linejoin="round"><path d="M6.848 50.293V4.94A2.948 2.948 0 0 1 9.802 2h53.244A2.948 2.948 0 0 1 66 4.942v50.391M52.424 55.333H66M2 55.333h32.97"/><path d="M49.515 23.819a5.333 5.333 0 1 1-10.666-.001 5.333 5.333 0 0 1 10.666 0zM14.606 34.97l10.991 11.314L36.24 35.329h14.15l9.793 10.082-7.756 7.983"/><path d="M36.818 66H51.58l3.752-27.232-3.93-3.798H37.063l-4.034 3.9zM14.606 25.325l2.829-3.931 4.889 6.788 4.888-6.788M43.697 43.697l-6.788-8.727M50.485 34.97l-6.788 8.727M43.697 43.697v6.788"/></g></svg>