<svg width="66" height="66" xmlns="http://www.w3.org/2000/svg"><g stroke="#2E3696" stroke-width="3" fill="none" fill-rule="evenodd" stroke-linecap="round" stroke-linejoin="round"><path d="M52.886 64.492H7.814a6.307 6.307 0 0 1-6.307-6.307V17.234M1.508 11.985v-4.17a6.306 6.306 0 0 1 6.306-6.307h50.371a6.307 6.307 0 0 1 6.308 6.307v50.37a6.308 6.308 0 0 1-6.308 6.307"/><path d="M20.51 17.234a3.154 3.154 0 1 1-6.307 0 3.154 3.154 0 0 1 6.308 0zM20.51 33a3.154 3.154 0 1 1-6.307 0 3.154 3.154 0 0 1 6.308 0zM20.51 48.766a3.153 3.153 0 1 1-6.305 0 3.153 3.153 0 0 1 6.306 0zM28.332 17.234h23.464M28.332 33h23.464M28.332 48.766h23.464"/></g></svg>