<svg data-name="Layer 1" xmlns="http://www.w3.org/2000/svg" width="680.61" height="538.9"><g data-name="background"><path d="M646.7 101.8h-49.8a2.8 2.8 0 0 0-2.9 2.7v16.4a2.8 2.8 0 0 0 2.9 2.7h49.8a2.8 2.8 0 0 0 2.9-2.7v-16.4a2.8 2.8 0 0 0-2.9-2.7m-34.6 27.3h-49.8a2.88 2.88 0 0 0-2.9 2.8V149a2.82 2.82 0 0 0 2.9 2.8h49.9a2.84 2.84 0 0 0 2.8-3v-17a2.87 2.87 0 0 0-2.9-2.7m65.6 1.8h-49.8a2.8 2.8 0 0 0-2.9 2.7V150a2.8 2.8 0 0 0 2.9 2.7h49.8a2.8 2.8 0 0 0 2.9-2.7v-16.4a2.87 2.87 0 0 0-2.9-2.7M644 159.2h-49.8a2.8 2.8 0 0 0-2.9 2.7v16.4a2.8 2.8 0 0 0 2.9 2.7h49.9a2.71 2.71 0 0 0 2.8-2.7v-16.4a2.8 2.8 0 0 0-2.9-2.7" fill="#076aab"/><path d="M52.8 431.9H2.9a2.9 2.9 0 0 0-2.9 2.9v17.1a2.9 2.9 0 0 0 2.9 2.9h49.8a2.9 2.9 0 0 0 2.9-2.9v-17.1a2.7 2.7 0 0 0-2.8-2.9" fill="#2082c3"/><path d="M115.7 432.8H65.8a2.9 2.9 0 0 0-2.9 2.9v17.1a2.9 2.9 0 0 0 2.9 2.9h49.8a2.9 2.9 0 0 0 2.9-2.9v-17.1a2.82 2.82 0 0 0-2.8-2.9m-34.7-30H31.2a2.9 2.9 0 0 0-2.9 2.9v17.1a2.9 2.9 0 0 0 2.9 2.9H81a2.9 2.9 0 0 0 2.9-2.9v-16.9a2.79 2.79 0 0 0-2.9-3.1" fill="#195e8c"/></g><g data-name="black board"><path d="M89.8 290.3A16.84 16.84 0 0 1 73 273.5V20.6A16.75 16.75 0 0 1 89.8 3.9h472.6a16.84 16.84 0 0 1 16.8 16.8v252.9a16.84 16.84 0 0 1-16.8 16.8H89.8z" fill="#364f46"/><path d="M562.4 7.7a12.93 12.93 0 0 1 12.9 12.9v252.9a12.93 12.93 0 0 1-12.9 12.9H89.8a12.93 12.93 0 0 1-12.9-12.9V20.6A12.93 12.93 0 0 1 89.8 7.7h472.6m0-7.7H89.8a20.63 20.63 0 0 0-20.6 20.6v252.9a20.63 20.63 0 0 0 20.6 20.6h472.6a20.63 20.63 0 0 0 20.6-20.6V20.6A20.7 20.7 0 0 0 562.4 0z" fill="#ecf0f1"/><path d="M591.1 295.4H67.4a11 11 0 0 1-11.2-10.7A11 11 0 0 1 67.4 274h523.7a11 11 0 0 1 11.2 10.7 11 11 0 0 1-11.2 10.7z" fill="#101520"/><path d="M497.1 61.6H423a1.47 1.47 0 0 1-1.5-1.5 1.54 1.54 0 0 1 1.5-1.5h74.1a1.5 1.5 0 0 1 0 3zm-20 12h-54a1.47 1.47 0 0 1-1.5-1.5 1.54 1.54 0 0 1 1.5-1.5h54a1.47 1.47 0 0 1 1.5 1.5 1.54 1.54 0 0 1-1.5 1.5zm-21.6 12h-32.4a1.5 1.5 0 0 1 0-3h32.4a1.47 1.47 0 0 1 1.5 1.5 1.54 1.54 0 0 1-1.5 1.5zm41.6 11.9H423a1.5 1.5 0 0 1 0-3h74.1a1.47 1.47 0 0 1 1.5 1.5 1.42 1.42 0 0 1-1.5 1.5zm-23.1 12h-51a1.47 1.47 0 0 1-1.5-1.5 1.54 1.54 0 0 1 1.5-1.5h51a1.47 1.47 0 0 1 1.5 1.5 1.54 1.54 0 0 1-1.5 1.5z" fill="#fff"/><path d="M361.6 274.8H340a1.5 1.5 0 0 1 0-3h21.6a1.47 1.47 0 0 1 1.5 1.5 1.54 1.54 0 0 1-1.5 1.5z" fill="#ecf0f1"/></g><g data-name="head"><path d="M229.5 104c-1.5-1.4-4.7-6.7-6.3-9.3a19.73 19.73 0 0 0-.7-2.6l-.2-.6c-.6-2.1-1.1-3.9-1.7-5.5a6.51 6.51 0 0 0-3.9.5c1.4-2.9 3.3-2.2 3.3-2.2l.3.8a49.78 49.78 0 0 0-2.3-5.9s0-15.9-5.8-20.2-31.8-7.2-52 0-23.1 46.3-18.8 53.5-13 10.1-5.8 13 23.1 5.8 23.1 5.8v15.9c-2.3 0-6.9 8-11.1 17-7.4 24.1 8.6 18.5 14.4 17.3 12.5-2.5 22.7 1.2 30-3.8 5.2-3.5 2.3-15.8 3-15.4-5.5-3.4-7.1-4.3-6-12.2 1.4-10.1 7.2-11.6 17.3-11.6 6.8 0 14.2-7.2 17.5-17.2 0 0-3-1.6-3-4.5 0 0 1.8 3.5 3.8 1.7a35.91 35.91 0 0 0 .9-8.1c3.5-1.4 5.9-4.7 4-6.4z" fill="#f2b06e"/><path d="M216.8 86.5a5.78 5.78 0 0 1 3.9-.5c-.1-.3-.2-.5-.3-.8l-.3-.8c0-.1-1.9-.8-3.3 2.1zm6 6.6c1.7.8 2.7-2.2 2.7-2.2a2.7 2.7 0 0 1-3.1.5v.1c.1.2.1.4.2.6zm-1.7 23.7c0 2.9 3 4.5 3 4.5v-.1l.7-2.5v-.1c-1.9 1.7-3.7-1.8-3.7-1.8zm-28.3-7.4l-40.1 44.5s.1.5 2.1.5c2.3 0 6.9-.6 16.4-2.9 18.1-4.5 25.1-18 26.5-25.4s-4.9-16.7-4.9-16.7m-.6-38.8s18.4 11.6 26.6 11.6 3.8-5.8 3.8-5.8l-30.4-5.8" fill="#b9864f"/><path d="M218.5 79.2s-12.5.3-26.2-9.1c0 0 .1 23.1-5.6 19.1-5.4-3.8-7.1 2.5-6.7 7.1s0 10.9 9.5 11c11.8.1 12.3 28-9.4 38.1-9.4 4.4-17 7.1-25.6 7.1-15.9 0-35.6-13.8-26.6-39.7 1-2.9 5.9-15.4 6.2-20.1s.6-17.3 2.9-22.7 8.4-16.8 25.9-24.3 38.7-2.2 45.6 2.3 9.8 7.8 15.6 22c2.2 5.4 6.7 14.2 2.1 15.9-1.9.7-4.6 1.4-5 .6-.2 0-1.6-4.3-2.7-7.3z" fill="#533413"/></g><g data-name="iPad"><path d="M280.2 160.4a6.24 6.24 0 0 0-5.4 2.8l-34.7 64.1c-1 1.9.2 3.9 2.7 4.3l.6.1 51.4 8.9.4.1h.6a6.24 6.24 0 0 0 5.4-2.8l34.7-64.1c1-1.8 0-3.6-2.3-4.2l-.4-.1-51.4-8.9-.6-.1a2.79 2.79 0 0 0-1-.1" fill="#282f3a"/><path d="M236.5 223.3l34.7-64.1c1-1.9 4-3.1 6.5-2.7l.6.1 51.4 8.9.4.1c2.3.6 3.3 2.4 2.3 4.2l-34.6 64.1c-1 1.8-3.6 3-6.1 2.8l-.4-.1-51.4-8.9-.6-.1c-2.6-.5-3.8-2.4-2.8-4.3z" fill="#101520"/><path d="M267 228.9a.8.8 0 0 1-.7-1.2 2 2 0 0 1 1.8-.8.8.8 0 0 1 .7 1.2 1.93 1.93 0 0 1-1.8.8zm39.3-65.1l-7.4-1.3c-.1 0-.2-.1-.2-.3s.1-.2.3-.2l7.4 1.3c.1 0 .2.1.2.3z" fill="#0e131f"/><path d="M244.4 218l30.7-56.8a1.76 1.76 0 0 1 1.8-.8l49.4 8.6a.8.8 0 0 1 .7 1.2L296.3 227a1.76 1.76 0 0 1-1.8.8l-49.4-8.6c-.7-.1-1-.6-.7-1.2z" fill="#ecf0f1"/></g><g data-name="screen"><path d="M313.9 174.7h-.1l-10.5-1.8a.9.9 0 0 1-.7-1 1 1 0 0 1 1-.7l10.5 1.8a.9.9 0 0 1 .7 1 1.21 1.21 0 0 1-.9.7zm-7.5 3.6h-.1l-21.2-3.6a.82.82 0 0 1-.7-1 1 1 0 0 1 1-.7l21.2 3.6a.9.9 0 0 1 .7 1 1.07 1.07 0 0 1-.9.7zm-24.6-9h-.1l-1.5-.3a.863.863 0 0 1 .3-1.7l1.5.3a.9.9 0 0 1 .7 1 1 1 0 0 1-.9.7z" fill="#b9babc"/><path d="M278.6 168.8h-.1l-1.5-.3a.82.82 0 0 1-.7-1 .9.9 0 0 1 1-.7l1.5.3a.9.9 0 0 1 .7 1 1.07 1.07 0 0 1-.9.7zm26.2 12.6h-.1l-23.8-4.1a.863.863 0 0 1 .3-1.7l23.8 4.1a.9.9 0 0 1 .7 1 .93.93 0 0 1-.9.7zm-16 27.9l-25.5-4.4 6.7-11 25.5 4.4zm-22.9-5.6l22 3.8 4.8-7.9-22-3.8zm27.7-34.3l-9.6-1.6-.9 1.5 9.8 1.7.7-1.6zm9.7 14.6h-.1l-23.8-4.1a.82.82 0 0 1-.7-1 .9.9 0 0 1 1-.7l23.8 4.1a.82.82 0 0 1 .7 1 .86.86 0 0 1-.9.7zm-1.4 2.6h-.1l-23.8-4.1a.82.82 0 0 1-.7-1 1 1 0 0 1 1-.7l23.8 4.1a.82.82 0 0 1 .7 1 .93.93 0 0 1-.9.7zm-14.7 26.2h-.1l-23.8-4.1a.82.82 0 0 1-.7-1 .9.9 0 0 1 1-.7l23.8 4.1a.9.9 0 0 1 .7 1 1.07 1.07 0 0 1-.9.7z" fill="#b9babc"/><path d="M267.2 212.5h-.1l-5.3-.9a.9.9 0 0 1-.7-1 .82.82 0 0 1 1-.7l5.3.9a.9.9 0 0 1 .7 1 1.07 1.07 0 0 1-.9.7z" fill="#1cb7c8"/><path d="M295 193.7h-.1l-3.7-.6a.9.9 0 0 1-.7-1 1 1 0 0 1 1-.7l3.7.6a.82.82 0 0 1 .7 1 1.07 1.07 0 0 1-.9.7z" fill="#b9babc"/><path d="M296.2 192.7h-.1l-3.7-.6a.9.9 0 0 1-.7-1 1 1 0 0 1 1-.7l3.7.6a.9.9 0 0 1 .7 1 1 1 0 0 1-.9.7zm20.1-16.4a.84.84 0 0 1-.7-.4.8.8 0 0 1 .3-1.1l.5-.3-.3-.4a.851.851 0 0 1 1.3-1.1l.9 1.1a.84.84 0 0 1 .2.7c0 .2-.2.4-.4.6l-1.4.8c-.1.1-.2.1-.4.1zm-30.8 18.6c-3.8 0-4.8-1.8-4.9-2.1a.8.8 0 0 1 .2-1l6.8-6.2a.74.74 0 0 1 .9-.1.79.79 0 0 1 .5.8l.1 7.5a.85.85 0 0 1-.7.8 17.78 17.78 0 0 1-2.9.3zm-3-2.4c.6.4 2 1 4.8.6v-4.9zm1-3.9a.75.75 0 0 1-.7-.5l-1-2-2.5-.4a.81.81 0 1 1 .2-1.6l2.9.4a.63.63 0 0 1 .6.5l1.1 2.4a.84.84 0 0 1-.4 1.1z" fill="#b9babc"/><path d="M274.5 203.8l5.6 1.1c.2 0 .4 0 .5-.2l3-4.9a.45.45 0 0 0-.3-.6l-5.6-1.1c-.2 0-.4 0-.5.2l-3 4.9a.37.37 0 0 0 .3.6z" fill="#14ce47"/><path fill="#ecf0f1" d="M278.6 202.7l-.6-1.7 2-.8-1.4 2.5z"/></g><g data-name="right arm"><path d="M304 226.6c-8.1 0-12.4 18.6-16.4 24.6-6.2 9.3-28 24.7-38.7 24.7a8.81 8.81 0 0 1-1.7-.2s-28.3 15.6-31.6 26.2c0 0 16.2 7.2 23.8 7.1a25.56 25.56 0 0 0 13.8-4.4c14.5-9.3 30.7-28.1 37.4-40.5 8.8-16.3 18.7-14.2 23.1-23.1 1.9-3.9-1.4-10.1-1.4-10.1s-.8-3.3-7.2-4.3H304" fill="#282f3a"/><path d="M228.2 297.5c11.6 2.9 44.8-28.9 54.9-47.7 8.8-16.3 18.7-14.2 23.1-23.1 1.9-3.9-1.4-10.1-1.4-10.1s-.8-3.3-7.2-4.3c-8.7-1.4-13.2 18.3-17.3 24.6-6.6 9.8-30.6 26.5-40.5 24.6 0-.1 4.3 25.9-11.6 36z" fill="#f2b06e"/></g><g data-name="left arm"><path d="M273.4 189.1c-13.8 0-32.5 8.5-39 9.8-7 1.4-44.7 6.9-44.7 6.9s-12.5 35.9-9 35.9h.2c4.2-1.4 47.9-30.2 52.1-32.9a6.63 6.63 0 0 1 3.6-.8c1.3 0 2.8.2 4.5.3a46.78 46.78 0 0 0 5.5.3 24.44 24.44 0 0 0 11.5-2.6c11.2-5.6-2.8-9.8 9.8-12.5s8.4-4.2 8.4-4.2a13.68 13.68 0 0 0-2.9-.2" fill="#282f3a"/><path d="M188.1 199.9s37.7-5.5 44.7-6.9 27.9-11.1 41.9-9.7c0 0 4.2 1.4-8.4 4.2s1.4 7-9.8 12.5-20.9 0-25.1 2.7-39.2 26.4-43.3 27.8c-4.3 1.5 0-30.6 0-30.6z" fill="#f2b06e"/></g><g data-name="desk and laptop"><path d="M634.7 388.2a12.76 12.76 0 0 1-12.8 12.8H346.6a12.76 12.76 0 0 1-12.8-12.8v-33.3c0-7.1 5.7-7.4 12.8-7.4h275.2c7.1 0 12.8.3 12.8 7.4v33.3" fill="#683d17"/><path fill="#543419" d="M597.7 399.7h-9.5v.7h9.5v-.7"/><path fill="#383c3d" d="M597.7 400.4h-9.5v15.5h9.5v-15.5"/><path fill="#543419" d="M381.7 399.7h-9.5v.7h9.5v-.7"/><path fill="#383c3d" d="M381.7 400.4h-9.5v15.5h9.5v-15.5"/><path d="M334.2 352.3h-.6v6.8h.3v-4.2a6.89 6.89 0 0 1 .3-2.6" fill="#d8bea0"/><path d="M634.2 352.3h-300a10.32 10.32 0 0 0-.3 2.6v4.1h300.4v-6.7" fill="#5e3417"/><path fill="#434548" d="M326.1 343H644v10.6H326.1z"/><path d="M464.9 337.6h-89.4c0 2 2.2 3.7 5.2 4l4.7.5a127.32 127.32 0 0 0 15.1.8h128.6a151.14 151.14 0 0 0 15.1-.8l4.7-.5c3-.3 5.2-2 5.2-4h-89.2" fill="#cdcdce"/><path d="M537.9 243.3H392a5 5 0 0 0-5 5v88.1h156v-88.1a5.17 5.17 0 0 0-5.1-5z" fill="#221f1f"/><path fill="#eae9f3" d="M396.6 257.5h136.6v73.9H396.6z"/><path d="M554.3 337.6H375.5c0 2 2.2 3.7 5.2 4l4.7.5a127.32 127.32 0 0 0 15.1.8h128.6a151.14 151.14 0 0 0 15.1-.8l4.7-.5c3.2-.3 5.4-2 5.4-4" fill="#9b9c9c"/><path d="M376.8 340h176.3a3.13 3.13 0 0 0 1.2-2.4H375.5a3.62 3.62 0 0 0 1.3 2.4z" fill="#fff"/><path d="M529.8 251.6H398.6a4.12 4.12 0 0 0-4.1 4.1v71.2a4.12 4.12 0 0 0 4.1 4.1h131.2a4.12 4.12 0 0 0 4.1-4.1v-71.2a4.18 4.18 0 0 0-4.1-4.1z" fill="#e0e6ff"/><path d="M402.3 261h23.1a1.4 1.4 0 1 0 0-2.8h-23.1a1.43 1.43 0 0 0-1.4 1.4 1.5 1.5 0 0 0 1.4 1.4" fill="#34495e"/><path d="M402.3 266.3h125.1a1.4 1.4 0 0 0 0-2.8H402.3a1.43 1.43 0 0 0-1.4 1.4 1.5 1.5 0 0 0 1.4 1.4" fill="#e37263"/><path d="M407.4 279.3a2.1 2.1 0 1 0-2.1 2.2 2.08 2.08 0 0 0 2.1-2.2z" fill="#34495e"/><path d="M486.4 281.6h-68.3a1.24 1.24 0 0 1-1.2-1.3v-3.1l-1.9-.9 1.9-1.1v-1.6a1.31 1.31 0 0 1 1.2-1.3h68.3a1.24 1.24 0 0 1 1.2 1.3v6.7a1.31 1.31 0 0 1-1.2 1.3z" fill="#1cb7c8"/><path d="M519.7 296.6h-63.4a1.24 1.24 0 0 1-1.2-1.3v-6.7a1.31 1.31 0 0 1 1.2-1.3h63.4a1.24 1.24 0 0 1 1.2 1.3v6.7a1.24 1.24 0 0 1-1.2 1.3z" fill="#fff"/><path d="M456.6 309.1h-27.4a1.24 1.24 0 0 1-1.2-1.3v-6.7a1.31 1.31 0 0 1 1.2-1.3h27.4a1.24 1.24 0 0 1 1.2 1.3v6.7a1.24 1.24 0 0 1-1.2 1.3z" fill="#8e8f91"/><path d="M474.4 309.1h-12.9a1.24 1.24 0 0 1-1.2-1.3v-6.7a1.31 1.31 0 0 1 1.2-1.3h12.9a1.24 1.24 0 0 1 1.2 1.3v6.7a1.18 1.18 0 0 1-1.2 1.3z" fill="#f4b42e"/><path fill="#fff" d="M394.3 311.5H534v19.4H394.3z"/><path fill="#1cb7c8" d="M514.6 311.5H534v20.6h-19.4z"/><path fill="#14ce47" d="M514.6 318.2H534v13.9h-19.4z"/><path d="M441.2 315.3c-1.7-1.1-4.6.9-4.1 2.9a1.42 1.42 0 0 0 1.8 1.1 3 3 0 0 0 1.3-2.3h-.8a4.65 4.65 0 0 0 .9 2.3c.3.4 1 0 .7-.4a5.39 5.39 0 0 1-.9-2.2.42.42 0 0 0-.8 0 3.36 3.36 0 0 1-.5 1.4c-.5.7-1.2.3-1.2-.5.1-1.3 1.9-2.4 2.9-1.7.7.4 1.1-.3.7-.6zm-10.8 6.2c5.6.1 11.2.2 16.9.2a.4.4 0 0 0 0-.8c-5.6-.1-11.2-.2-16.9-.2a.4.4 0 0 0 0 .8zm0 4.5l1.8 2.1c.2.3.7.1.7-.3-.1-1-.7-3.3.2-4a10.48 10.48 0 0 1 2.5.1 14.77 14.77 0 0 1 2.1.1c2.9.1 5.9.1 8.8.2a.4.4 0 0 0 0-.8l-14.3-.3a.43.43 0 0 0-.4.4c.1 1.5.2 2.9.3 4.4a4.88 4.88 0 0 1 .7-.3l-1.8-2.1c-.3-.5-.9.1-.6.5z" fill="#424548"/><path d="M436.8 326a1.36 1.36 0 0 0-2.6.7 1.38 1.38 0 0 0 2.7.3h-.8a1.71 1.71 0 0 0 1.3 1.5c.5.1.7-.7.2-.8a1 1 0 0 1-.8-.9c-.1-.4-.6-.3-.8 0a.56.56 0 0 1-1.1-.2c0-.8.9-.7 1.2-.2s.9.1.7-.4zm1.3-.3l-.1.2c-.1.2-.3.3-.4.4a.42.42 0 0 0 .4.7c.5-.2.9-.3 1.4-.5a.412.412 0 0 0-.2-.8c-.5.2-.9.3-1.4.5a4.35 4.35 0 0 1 .4.7 1.34 1.34 0 0 0 .6-1.4.73.73 0 0 0-1.2-.3c-.4.3.1.8.5.5zm2.2 2.4a2.82 2.82 0 0 1 1.8-.2c.5.1.7-.7.2-.8a4.53 4.53 0 0 0-2.3.2c-.4.2-.2 1 .3.8z" fill="#424548"/><path d="M440.7 326.1l.3 2.7c.1.5.8.5.8 0l-.3-2.7a.4.4 0 0 0-.8 0zm2.7-.6a22.5 22.5 0 0 1 .8 2.4c.1.4.6.4.8 0 .1-.2.2-.8.5-.9s.4.3.3.6c-.2.7-1.2.6-1.8.5a.4.4 0 0 0 0 .8 2.54 2.54 0 0 0 2.2-.5 1.67 1.67 0 0 0 .4-1.5 1 1 0 0 0-1.1-.8c-.7.1-1 .9-1.2 1.5h.8a22.5 22.5 0 0 1-.8-2.4c-.3-.4-1.1-.2-.9.3zm3.2.2a.49.49 0 0 0 .1.9 2.59 2.59 0 0 0 1.7-.3c.5-.2.1-.9-.4-.7a2.74 2.74 0 0 1-1.3.2c0 .3.1.5.1.8a.93.93 0 0 0 .6-1.2.87.87 0 0 0-1.2-.4c-.4.2 0 .9.4.7zm-17.2-9.8c-2.9-1.3-2.7 5-2.7 6.5-.1 2.1-.5 4.7.1 6.8.3 1.1 1.1 1.3 2.2 1.2a.4.4 0 0 0 0-.8c-2.1.1-1.6-4.5-1.5-5.9 0-1 .4-7.6 1.6-7 .3.1.7-.6.3-.8zm21.3 7.2h2.3a.4.4 0 0 0 0-.8h-2.3a.4.4 0 0 0 0 .8z" fill="#424548"/><path d="M451.6 321.4a4.89 4.89 0 0 1 .1 2.4c-.1.5.7.7.8.2a7.1 7.1 0 0 0-.1-2.9.43.43 0 0 0-.8.3zm4.3-.6a22.75 22.75 0 0 0-.2 2.6c0 .5 0 2.4-.8 2.5a.4.4 0 0 0 0 .8 1.51 1.51 0 0 0 1.3-1.5 32.7 32.7 0 0 0 .4-4.4c.2-.5-.6-.5-.7 0zm.2-2a.4.4 0 0 0 0-.8.4.4 0 0 0 0 .8zm4.8 2.6c4.9.2 9.8 0 14.7-.1a.4.4 0 0 0 0-.8c-4.9.2-9.8.3-14.7.1a.4.4 0 0 0 0 .8zm5.3-7.5a21.63 21.63 0 0 1-.2 4.4c0 .4.6.6.7.2s.9-3.2 1.9-2.1c.8.9-.7 1.8-1.4 2.1a.412.412 0 0 0 .2.8c1.3-.5 2.9-2 1.7-3.4a1.23 1.23 0 0 0-1.6-.3c-1 .5-1.1 1.7-1.5 2.6.2.1.5.1.7.2a31.68 31.68 0 0 0 .2-4.4c0-.6-.7-.6-.7-.1zm-8.2 13a7.52 7.52 0 0 0 1.6 1.5c.2.2.6 0 .6-.3a13.22 13.22 0 0 1-.2-3.4c.4-1.3.9-1.1 1.8-1.1h4.6c3 0 6.1.1 9.1.1a.4.4 0 0 0 0-.8c-2.8 0-5.6 0-8.4-.1-2.3 0-5.4-.6-7.6.1q-.15 0-.3.3a20.19 20.19 0 0 0 .1 4.9l.6-.3a4 4 0 0 1-1.5-1.4c-.2-.5-.8.1-.4.5z" fill="#424548"/><path d="M463.8 325.8a1.14 1.14 0 0 0-1.4-1.1 1.77 1.77 0 0 0-1.1 2.1c.1.7.5 1.9 1.4 1.6s.4-1.3.8-1.9c-.2-.1-.5-.1-.7-.2a2.42 2.42 0 0 0 .6 2 1.21 1.21 0 0 0 1.5.2.41.41 0 0 0-.4-.7c-.8.5-.9-1.1-.9-1.6a.38.38 0 0 0-.7-.2 3.18 3.18 0 0 0-.3.9.75.75 0 0 1-.1.5c-.1.3-.2.1-.3-.2a1.8 1.8 0 0 1 0-1.6c.2-.2.8-.4.8.1.1.7.8.7.8.1z" fill="#424548"/><path d="M464.7 325c-.2 0-.2-.3-.2 0l-.1.3a6.37 6.37 0 0 0-.2.7c-.1.2.1.5.4.5a3.26 3.26 0 0 0 1.4-.4c.4-.3 0-1-.4-.7a1.69 1.69 0 0 1-1 .3 1.76 1.76 0 0 0 .4.5c.2-.6.7-1.8-.3-1.9-.5-.1-.5.7 0 .7zm3.1 1.9a1.41 1.41 0 0 1 .9-.1c.5.1.7-.7.2-.8a2.62 2.62 0 0 0-1.5.2.403.403 0 1 0 .4.7z" fill="#424548"/><path d="M468.1 325a4.78 4.78 0 0 0 0 2.9c.1.5.9.3.7-.2a3.58 3.58 0 0 1 0-2.5c.2-.4-.6-.7-.7-.2zm2.8-.7a19.29 19.29 0 0 0 0 3.4c.3 0 .5-.1.8-.1-.2-.9 1.1-.8 1 .1s-1.1.7-1.5.2-.9.2-.6.6a1.62 1.62 0 0 0 2.8-1.5c-.5-1.7-2.8-.8-2.4.8a.41.41 0 0 0 .8-.1 19.29 19.29 0 0 1 0-3.4c0-.5-.8-.5-.9 0zm2.1.9a.66.66 0 0 1 .6.1c-.1-.2-.1-.3-.2-.5-.1.2-.1.4-.2.6s0 .4.2.5a2.28 2.28 0 0 0 1.1.3.4.4 0 0 0 0-.8 1.48 1.48 0 0 1-.7-.1c.1.2.1.3.2.5.1-.2.1-.4.2-.6s0-.4-.2-.5a1.32 1.32 0 0 0-1.2-.2c-.5 0-.3.8.2.7zm3.2-9.7c2.9-.1 2.2 5.4 2.2 7.2s.8 6.7-1.8 7c-.5.1-.5.9 0 .8 3.5-.5 2.6-5.7 2.6-8.2s.7-7.7-2.9-7.6c-.6 0-.6.8-.1.8z" fill="#424548"/><path fill="#513bc1" d="M582 320.4l-3.8-.7 5.4-31.3 3.8.7-5.4 31.3"/><path d="M585.5 288.7l-4.4 25.6v5.6l.2.3.9-1.1 5.2-30-1.9-.4" fill="#513bc1"/><path d="M585.5 288.7l-4.4 25.6v5.6l.2.3.9-1.1 5.2-30-1.9-.4" fill="#b6b6b7"/><path fill="#f7d5b6" d="M578.2 319.7l1.1 5.2 2.7-4.5.2-1.3-.9 1.1-1-1.4-1.3 1-.6-1.4-.2 1.3"/><path d="M579.3 324.9l1.2-1.9a2.2 2.2 0 0 0-.8-.1c-.3 0-.5-.1-.8-.1l.4 2.1" fill="#221f1f"/><circle cx="579.1" cy="332.1" r=".4" fill="#cdcdce"/><path fill="#0e131f" d="M581.1 327h-3.9v-38.9h3.9V327"/><path d="M581.5 303.4h-4.8v-17a2.4 2.4 0 1 1 4.8 0v17m-.4 0h-3.9v.6h3.9v-.6" fill="#0e131f"/><path fill="#b6b6b7" d="M581.1 303.4h-3.9v.6h3.9v-.6"/><path d="M581.5 286.8v.6h.7v13.1c-.2.1-.4.2-.4.5v1.7a.47.47 0 0 0 .5.5h.4v-16.3h-1.2z" fill="#0e131f"/><path fill="#3a3436" d="M577.2 327h3.9v1.5h-3.9z"/><path fill="#221f1f" d="M579.5 332.1l1.6-3.6h-3.9l1.6 3.6h.7z"/><path d="M600.2 286.6a.38.38 0 1 1-.2-.5.37.37 0 0 1 .2.5z" fill="#fff"/><path fill="#513bc1" d="M596.2 290.5l3.6 1.4-14 36.3-3.6-1.4 14-36.3"/><path d="M587.3 312.3l4.5 1.7-6.1 15.8a2.41 2.41 0 0 1-4.5-1.7l6.1-15.8" fill="#513bc1"/><path fill="#513bc1" d="M590.6 313l-.1.6.8.3.2-.5-.9-.4"/><path fill="#34495e" d="M590.6 313l-.1.6.8.3.2-.5-.9-.4"/><path d="M581.3 327.9l.2-.5-.6-.3 4.6-12.2a.55.55 0 0 0 .5-.3l.6-1.6a.45.45 0 0 0-.3-.6l-.4-.2-.3.8-.7 1.8-4.9 12.7z" fill="#513bc1"/><path fill="#ecf0f1" d="M596.266 290.6l.542-1.399 3.637 1.409-.542 1.398z"/><path fill="#513bc1" d="M599.5 286.3l-2.7 2.8 3.6 1.4-.2-3.9-.7-.3z"/><path fill="#e37263" d="M578.6 325.9l-3.9.6-5.2-31.3 3.8-.6 5.3 31.3"/><path fill="#b6b6b7" d="M577.2 326.1l-.6.1.6-.1"/><path fill="#0e131f" d="M578.6 325.9l-1.4.2 1.4-.2"/><path fill="#b6b6b7" d="M578.6 325.9l-1.4.2 1.4-.2"/><path fill="#e37263" d="M573.3 294.6l-1.9.3 5.2 31.3.6-.1 1.4-.2-1.4-8-3.9-23.3"/><path fill="#b6b6b7" d="M573.3 294.6l-1.9.3 5.2 31.3.6-.1 1.4-.2-1.4-8-3.9-23.3"/><path fill="#f7d5b6" d="M574.7 326.5l2.8 4.5 1.1-5.1-.3-1.3-.4 1.4-1.5-1.1-.8 1.5-1.1-1.2.2 1.3z"/><path d="M577.5 331l.5-2.2c-.3 0-.5.1-.8.1s-.5.1-.8.1z" fill="#221f1f"/><path fill="#e74c3c" d="M592.2 297.3l-3.8-.4-3.3 31.6 3.8.4 3.3-31.6"/><path d="M587 328.7l1.9.2-1.9-.2m3.3-31.6l1.9.2-1.9-.2" fill="#b6b6b7"/><path fill="#e74c3c" d="M590.3 297.1l-3.3 31.6 1.9.2 3.3-31.6-1.9-.2"/><path fill="#b6b6b7" d="M590.3 297.1l-3.3 31.6 1.9.2 3.3-31.6-1.9-.2"/><path fill="#f7d5b6" d="M588.4 296.9l2.4-4.7 1.4 5.1-.1 1.3-.6-1.4-1.3 1.2-1-1.4-1 1.2.2-1.3z"/><path d="M590.8 292.2l.6 2.2a2.2 2.2 0 0 1-.8-.1c-.3 0-.5-.1-.8-.1z" fill="#424548"/><path d="M593 319.4h-23.8v11.4a11.9 11.9 0 1 0 23.8 0v-11.4z" fill="#e8e7e7"/></g><g data-name="head_boy"><path d="M478.6 269.7h-12.8s-21.4-4.3-21.4-25.7v-25.7h38.5l21.4 34.2 4 23.9-27.1 5.4-2.6-12.1" fill="#e7ad74"/><path d="M505.6 260.4l.4 2.7c1.4-1.4-.4-2.7-.4-2.7m-2.9-10.3" fill="#d8bea0"/><path d="M473.5 248.5s7.2 17.1 21.1 17.1a9.15 9.15 0 0 0 1.6-.1c6.3-.6 8.9-1.6 9.9-2.6l-.4-2.7-2.9-10.3-29.3-1.4" fill="#c98a55"/><path d="M444.3 228.7s3 .3 4.4.3-4.4 1.5-4.4 1.5zm3.2 28.1s3.9-.6 5.3-3.3c0 0 .1 4.2-3.3 6.2zm-3.2-21.5l-2.4.5 2.4 1.5v-2z" fill="#9a652f"/><path d="M461.4 235.4s-4.3-8.6 4.3-8.6 4.3 17.1 4.3 17.1 12.1 17.6 20.7 17.6 13.6-9 13.6-9 21.4-21.4 12.8-42.8-21.4-21.4-21.4-21.4-25.7-4.3-38.5 4.3-12.8-8.6-17.1 0-8.6 21.4 4.3 30 17 12.8 17 12.8z" fill="#a57d2d"/></g><g data-name="boy"><path d="M519.1 479.6l4.1-12.2H488l6.8 12.2s-1.9 23.4-1.4 31.1c.4 6.3 2.1 17 4.1 28.2h21.7c2.6-19.1-.1-59.3-.1-59.3zm-47.4 0l5.4-12.2h-32.5l2.7 12.2s-2.1 17.3-1.4 23c1.5 10.8 3.5 23.9 5.4 36.3h20.3c2.8-19.1.1-59.3.1-59.3z" fill="#e7ad74"/><path d="M535.4 410.5c-10.2-18.9-88-1.4-88-1.4s-13.5 5.4-19 28.4a37.55 37.55 0 0 0 0 15.3 73.73 73.73 0 0 0 2 7.8 60.35 60.35 0 0 0 4.7 10.8l44.7 1.4 2.3-12.2 1.8-9.5 1.2 9.5 1.5 12.2h43.1c-.4-.2-.9-1.8 1.6-12.2.4-1.6.8-3.4 1.4-5.4s1-3.7 1.5-5.4c4.7-15.4 9.7-23.4 1.2-39.3m-5.5 62.3z" fill="#34495e"/><path d="M534.2 449.8H428.4v3.1a73.73 73.73 0 0 0 2 7.8h51.7l1.8-9.5 1.2 9.5h46.2c.4-1.6.8-3.4 1.4-5.4s1-3.8 1.5-5.5" fill="#34495e"/><path d="M534.2 449.8H428.4v3.1a73.73 73.73 0 0 0 2 7.8h51.7l1.8-9.5 1.2 9.5h46.2c.4-1.6.8-3.4 1.4-5.4s1-3.8 1.5-5.5" fill="#282f3a"/><path d="M444.6 360.4s3.5 37.7 4.1 47.4c0 .7-4.1 2.3-4.1 2.7v.2a13.49 13.49 0 0 1 2.7-1.5s32.9-7.4 58.7-7.4c13.9 0 25.8 2.1 29.3 8.7.4.8.8 1.6 1.2 2.3-.6-1.3-2.4-5.8-2.5-9.1-.5-13.4 1.4-32.5 1.4-32.5l-90.8-10.8" fill="#d8bea0"/><path d="M506 401.8c-25.8 0-58.7 7.4-58.7 7.4a17.8 17.8 0 0 0-2.7 1.5c1.8 8 37 11.8 50.1 12h.8c10.8 0 39.9-2.9 41.2-9.5a1.09 1.09 0 0 1-.2-.4c-.4-.8-.8-1.5-1.2-2.3-3.5-6.6-15.3-8.7-29.3-8.7" fill="#34495e"/><path d="M506 401.8c-25.8 0-58.7 7.4-58.7 7.4a17.8 17.8 0 0 0-2.7 1.5c1.8 8 37 11.8 50.1 12h.8c10.8 0 39.9-2.9 41.2-9.5a1.09 1.09 0 0 1-.2-.4c-.4-.8-.8-1.5-1.2-2.3-3.5-6.6-15.3-8.7-29.3-8.7" fill="#282f3a"/><path d="M474.4 279.2s29.8-9.5 39.3-6.8 12.2 9.5 12.2 9.5l-54.5 2.6z" fill="#2078b2"/><path d="M471.7 284.6s-25.9 4.2-28.4 8.1-27.1 46-27.1 46l28.4 12.2s-.9 50.2 0 55.5c1.4 8.1 36.9 9.3 50.1 9.5 10.2.1 39.3-1.4 40.6-5.4 2.2-6.6 0-48.8 0-48.8l21.7-20.3-10.8-37.9s-2.7-19-20.3-21.7-54.2 2.8-54.2 2.8z" fill="#1a5e8c"/></g><g data-name="right arm_boy"><path d="M549.1 341.5l-17.8 28.7 13.3 5.7a33.34 33.34 0 0 0 6.5.7c3.5 0 7.4-.7 9-3.6 3.3-5.7-3.3-20.1-3.3-20.1l-7.7-11.4" fill="#282f3a"/><path d="M548.9 336s8.1 20.3 4.1 28.4-19 4.1-19 4.1z" fill="#e7ad74"/></g><path d="M409.4 336s4.3-9.8 11.6-7.6 19.7 14.6 19.7 14.6l-6.9 30.9s-8.1 6.8-13.5 0-9.5-21.3-5.4-31c-.1.1-8.2-2.8-5.5-6.9z" fill="#e7ad74" data-name="left arm_boy"/><g data-name="chair"><path d="M534.5 309.4h-93.1a8.92 8.92 0 0 0-8.9 8.9v54.6a8.92 8.92 0 0 0 8.9 8.9h14.1v-34.1h10.6v34.1h53v-34.1h10.6v34.1h4.7a8.92 8.92 0 0 0 8.9-8.9v-54.7a8.69 8.69 0 0 0-8.8-8.8" fill="#282f3a"/><path fill="#282f3a" d="M466.1 381.7h-10.6v54.9h10.6v-54.9"/><path fill="#bf9771" d="M466.1 347.6h-10.6v34.1h10.6v-34.1"/><path fill="#282f3a" d="M529.8 381.7h-10.6v54.9h10.6v-54.9"/><path fill="#bf9771" d="M529.8 347.6h-10.6v34.1h10.6v-34.1"/><path d="M541 375.2a8.92 8.92 0 0 1-8.9 8.9H439a8.92 8.92 0 0 1-8.9-8.9v-54.7a8.92 8.92 0 0 1 8.9-8.9h93.1a8.92 8.92 0 0 1 8.9 8.9zm12 70.9a9.5 9.5 0 0 1-9.5 9.5H430.2a9.5 9.5 0 0 1 0-19h113.3a9.5 9.5 0 0 1 9.5 9.5" fill="#d8d8d7"/><path fill="#858485" d="M448.8 347.6h10.6v90.1h-10.6zm63.1 0h10.6v90.1h-10.6z"/><path fill="#b9b7b7" d="M542.1 455.6h-.2v4.5h.2v-4.5"/><path fill="#a4a2a2" d="M542.1 454.6h-10.4v.6h10.2v.4h.2v-1"/><path fill="#6e6e6e" d="M541.9 455.2h-10.2v4.9h10.2v-4.9"/><path fill="#b9b7b7" d="M442.4 455.6h-.2v4.5h.2v-4.5"/><path fill="#a4a2a2" d="M442.4 454.6H432v.6h10.2v.4h.2v-1"/><path fill="#6e6e6e" d="M442.2 455.2H432v4.9h10.2v-4.9"/><path fill="#434548" d="M372.2 400.4h10v138.5h-10zm215.9 0h10v138.5h-10z"/><path fill="#858485" d="M432 455.2h10.2v83.7H432zm99.7 0h10.2v83.7h-10.2z"/></g><g data-name="body"><path d="M221.9 442.8c.3-3.3.5-5.4.5-6.2v-.1zm-68.8-3.6s-1.6 2.4-3.6 5.6l3.6-5.6zm23.7 54.5l-1.9-6.8L199 445l-15.4 1.5-34.1-1.7c-2.1 3.2-4.6 7.2-6.5 10.3-5.4 8.9-12.9 49.6-19 83.8h24.7c12.8-26.1 26.1-52 26.1-52s.7 2.5 2 6.8z" fill="#f2b06e"/><path d="M221.9 442.8l-10.5 1c-11.2 15.9-34.6 49.9-34.7 49.9 2.7 9.3 7.8 26.8 13.1 45.2h25.8c.9-37.6 4.9-80.2 6.3-96.1z" fill="#f2b06e"/><path fill="#d8bea0" d="M218 436.7l-46.8 1.4-18 1.1H182l36-2.5zm-36 2.5l36-2.5-36 2.5zm-5.2 54.5h-.1.1z"/><path d="M199 445l-24.1 41.9 1.9 6.8c0-.1 23.5-34 34.7-49.9l10.5-1 .5-6.2-4.4.1-36 2.5h-28.8l-3.7 5.6 34.1 1.7z" fill="#d28c51"/><path fill="#2c2a6b" d="M222.4 436.4v.1l.1-.1h-.1zm0 0l-4.4.3 4.4-.3z"/><path fill="#2c2a6b" d="M218 436.7l4.4-.2v-.1l-4.4.3zm10-129.8h.4l-.2-7.8z"/><path d="M239.8 261.4c-7.2-1.4-8.7-44.8-13-62.2s-13.1-26-23.2-33.2c-2.2-1.6-4.1-2.7-5.6-3.7s-12-4.1-33.3.2a122.37 122.37 0 0 1-18.8 1.6c-3.7 8.2-5.2 16.4-5.8 27.9-1.4 27.5 10.1 46.3 8.7 63.6-.4 4.9-2 10.4-4.1 16.3-5.3 14.9-11.8 32.5-14.7 50.2-5.9 37.4-5.9 153.3-5.9 153.3h107.1l-2.8-168.5c-.1 0-.4.1-.4 0a61.37 61.37 0 0 1-19.9-9.4c-5-3.6-9.3-16.8-12.4-29.2-3.1-12.6-4.9-24.3-4.9-24.3s.3-11.4 1-11.4c.1 0 .3.4.4 1.3 3.1 16.9 7.1 29.4 11.3 38.5 8.7 18.8 18.3 23.5 22.6 24.7a9.28 9.28 0 0 0 2.3.4c11.5 2.7 21.2-34.1 11.4-36.1z" fill="#424548"/><path fill="#d8bea0" d="M228.3 299.1v-1.6h-.1l.1 1.6zm0 0l-.1-1.6.1 1.6z"/><path fill="#2c2b55" d="M228.3 297.5h-.1.1zm-2.2-.4a54.94 54.94 0 0 1 1.9 9.8l.3-7.8v-1.6h.1a8.66 8.66 0 0 1-2.3-.4z"/><path d="M192.2 233.9c-.2-.9-.3-1.3-.4-1.3-.7 0-1 11.4-1 11.4s1.8 11.7 4.9 24.3c2.8 1.4 5.4 2.7 7.8 4.1-4.2-9.1-8.2-21.5-11.3-38.5z" fill="#0e131f"/><path d="M228 306.9a65.53 65.53 0 0 0-1.9-9.8c-4.3-1.2-13.9-5.9-22.6-24.7-2.4-1.3-5-2.7-7.8-4.1 3.1 12.4 7.4 25.6 12.4 29.2a58.91 58.91 0 0 0 19.9 9.4z" fill="#0e131f"/></g></svg>