<svg width="1110" height="192" xmlns="http://www.w3.org/2000/svg" xmlns:xlink="http://www.w3.org/1999/xlink"><defs><rect id="a" width="1110" height="192" rx="8"/></defs><g fill="none" fill-rule="evenodd"><mask id="b" fill="#fff"><use xlink:href="#a"/></mask><use fill="#21374D" xlink:href="#a"/><path d="M108.438 319c-10.061 0-18.809-2.76-26.002-8.202-7.9-5.978-13.458-14.97-16.52-26.728-1.85-7.107-2.839-15.295-3.023-25.034-.04-2.046-.06-4.109-.08-6.18-.147-14.646-.298-29.791-7.421-41.426a38.662 38.662 0 0 0-2.475-3.572c-9.105-11.67-24.214-17.198-40.21-23.048-14.006-5.123-28.49-10.422-39.982-20.325-17.33-14.932-26.192-40.093-23.126-65.662 1.444-12.048 5.365-24.251 11.653-36.27 7.427-14.192 11.294-30.25 11.182-46.439v-.195c-.016-4.738.986-9.418 2.895-13.575 1.854-4.038 4.448-7.41 7.713-10.023C-12.671-11.11-7.263-13-1.73-13c4.225 0 8.24 1.134 11.612 3.28 5.06 3.22 9.701 10.773 3.075 28.477-7.564 20.21-2.076 44.852 13.346 59.928 8.247 8.063 19.441 13.452 31.52 15.175 2.753.394 5.547.593 8.305.593 7.153 0 13.993-1.295 20.327-3.848 4.433-1.786 8.657-4.136 13.13-6.623 4.92-2.736 10.006-5.564 15.542-7.682 5.44-2.081 11.136-3.181 16.47-3.181 7.85 0 14.715 2.375 19.857 6.87a26.226 26.226 0 0 1 3.961 4.336c3.994 5.509 5.889 12.736 5.48 20.9-.423 8.46-3.1 15.846-5.273 20.552-1.718 3.724-3.678 7.353-5.573 10.864-4.638 8.594-9.02 16.711-9.66 25.42-.545 7.433 2.437 15.245 8.18 21.433 5.937 6.397 13.789 10.065 21.543 10.065.734 0 1.473-.034 2.198-.1 7.987-.732 15.478-4.641 23.41-8.78 4.005-2.09 8.146-4.252 12.46-6.042 6.051-2.513 12.818-3.897 19.051-3.897 11.334 0 20.3 4.388 25.246 12.357 4.784 7.704 4.437 16.577 4.131 24.405-.181 4.643-.352 9.027.452 12.872.322 1.537.776 2.877 1.387 4.1 2.176 4.342 6.694 7.7 11.48 11.252 6.327 4.7 13.499 10.029 16.144 18.85 1.829 6.099.936 12.817-2.513 18.92-3.08 5.452-7.913 9.986-13.605 12.766a29.92 29.92 0 0 1-2.092.924c-4.714 1.867-10.022 2.815-15.776 2.815-5.713 0-11.906-.885-19.49-2.783a352.26 352.26 0 0 1-6.924-1.832c-7.974-2.169-15.506-4.217-23.099-4.236h-.11c-4.732 0-9.545.766-14.714 2.343-9.871 3.014-19.659 8.641-29.123 14.084-3.482 2.002-7.082 4.072-10.663 6.001-9.674 5.21-24.385 11.422-39.52 11.422h-.005z" fill="#142C41" mask="url(#b)"/><path d="M45.198 26.006c0 38.877 25.089 81.215 80.174 82.309v1.43l-.015.002c-25.223-.498-46.382-9.762-61.192-26.791-13.154-15.122-20.398-35.351-20.398-56.95zm3.987 0l.007 1.11c.473 36.66 24.36 76.127 76.18 77.21v1.432c-53.327-1.099-77.618-42.1-77.618-79.752h1.431zm3.988 0l.007 1.053c.448 34.769 23.085 72.196 72.192 73.278v1.432c-50.586-1.097-73.631-40.019-73.631-75.763h1.432zm3.987 0l.006.995c.424 32.877 21.813 68.267 68.206 69.346v1.431c-47.846-1.095-69.644-37.935-69.644-71.772h1.432zm3.986 0l.006.938c.399 30.986 20.54 64.336 64.22 65.413v1.432c-45.105-1.094-65.656-35.853-65.656-67.783h1.43zm3.987 0l.006.88c.373 29.096 19.267 60.406 60.233 61.482V89.8c-42.364-1.093-61.669-33.773-61.669-63.794h1.43z" fill="#002C47" mask="url(#b)"/><path d="M1025.198 46.006c0 38.877 25.089 81.215 80.174 82.309v1.43l-.015.002c-25.223-.498-46.382-9.762-61.192-26.791-13.154-15.122-20.398-35.351-20.398-56.95zm3.987 0l.007 1.11c.473 36.66 24.36 76.127 76.18 77.21v1.432c-53.327-1.099-77.618-42.1-77.618-79.752h1.431zm3.988 0l.007 1.053c.448 34.769 23.085 72.196 72.192 73.278v1.432c-50.586-1.097-73.631-40.019-73.631-75.763h1.432zm3.987 0l.006.995c.424 32.877 21.813 68.267 68.206 69.346v1.431c-47.846-1.095-69.644-37.935-69.644-71.772h1.432zm3.986 0l.006.938c.399 30.986 20.54 64.336 64.22 65.413v1.432c-45.105-1.094-65.656-35.853-65.656-67.783h1.43zm3.987 0l.006.88c.373 29.096 19.267 60.406 60.233 61.482v1.432c-42.364-1.093-61.669-33.773-61.669-63.794h1.43z" fill="#002C47" mask="url(#b)" transform="scale(1 -1) rotate(15 1732.058 0)"/><path d="M1127.765 115c-8.23 0-16.001-1.476-23.099-4.387a53.397 53.397 0 0 1-11.808-6.695c-14.755-11.093-22.043-27.87-29.091-44.096l-1.213-2.786c-6.776-15.521-14.908-30.81-28.414-37.535-5.319-2.65-11.243-3.937-18.11-3.937-12.684 0-26.123 4.592-35.127 8.046-1.955.75-3.917 1.517-5.885 2.288-15.037 5.884-30.589 11.969-47.043 11.969h-.001c-3.091 0-6.156-.222-9.11-.66a56.873 56.873 0 0 1-13.309-3.686c-14.345-5.91-26.115-17.33-32.292-31.337-2.992-6.782-4.726-14.85-5.155-23.977-.528-11.265.883-24.364 4.314-40.046 2.078-9.492 6.58-23.17 16.224-34.433 6.663-7.78 14.716-13.164 23.935-16.004 5.866-1.808 12.119-2.724 18.582-2.724 18.365 0 34.904 7.26 45.544 13.35 9.371 5.364 18.16 11.861 26.658 18.144 15.686 11.596 30.501 22.55 48.098 26.365 4.798 1.04 9.793 1.546 15.27 1.546 12.053 0 24.22-2.517 34.532-4.98 1.974-.47 3.947-.955 5.921-1.445l3.339-.833c14.378-3.592 29.245-7.306 44.632-7.681.75-.018 1.5-.027 2.252-.027 13.264 0 25.679 2.819 35.902 8.153 6.145 3.206 11.458 7.299 15.791 12.167 9.595 10.772 14.886 25.965 14.898 42.78.006 7.686-1.023 15.689-3.143 24.465-1.33 5.499-3.122 11.414-5.478 18.085-7.263 20.554-15.927 36.677-26.489 49.29-5.244 6.261-11.032 11.705-17.204 16.181-12.656 9.177-28.665 14.44-43.921 14.44" fill="#0C2C43" mask="url(#b)"/><path d="M1064.3 285c-7.663 0-15.53-.487-24.052-1.488-7.095-.835-14.477-2.008-22.567-3.586-17.537-3.421-40.168-8.97-59.661-21.608a96.783 96.783 0 0 1-9.156-6.729c-15.416-12.8-25.415-29.278-28.155-46.4-.921-5.756-.945-11.686-.071-17.626 1.979-13.449 8.247-25.431 17.65-33.738a45.918 45.918 0 0 1 10.907-7.187c6.771-3.171 14.396-4.779 22.667-4.779 10.93 0 23.014 2.724 36.942 8.328 3.913 1.575 7.835 3.277 11.626 4.922 9.49 4.12 18.453 8.01 27.767 10.302 4.05.997 7.82 1.604 11.526 1.856 1.097.074 2.214.112 3.317.112 13.182 0 26.709-5.395 38.086-15.191 1.646-1.418 3.306-2.959 4.91-4.45 7.274-6.753 14.794-13.738 25.292-13.738 5.057 0 10.05 1.639 15.267 5.01a49.542 49.542 0 0 1 10.372 8.978c8.413 9.608 13.512 22.752 14.745 38.012 1.622 20.056-3.695 41.744-13.875 56.599-3.49 5.093-7.644 9.875-12.346 14.212-13.64 12.58-32.358 21.67-52.707 25.596-8.92 1.72-18.503 2.593-28.483 2.593h-.002z" fill="#002C45" mask="url(#b)"/></g></svg>