<svg width="749" height="535" xmlns="http://www.w3.org/2000/svg" xmlns:xlink="http://www.w3.org/1999/xlink"><defs><path id="a" d="M.51.238h462.417V27H.51z"/><path id="c" d="M0 0h39v44H0z"/><path id="e" d="M.162.192h40.244v28.656H.162z"/><path id="g" d="M0 .086h35.003V28H0z"/></defs><g fill="none" fill-rule="evenodd"><path d="M570.847 494.181c10.306 2.224 21.034-.159 29.697-6.205 8.447-5.894 17.123-14.643 11.846-23.473-9.265-15.505-49.012 5.27-52.164 19.045-1.427 6.243 4.123 9.232 10.62 10.633M648.058 407.123c-3.943-6.483 3.735-29.416 13.16-26.936 5.368 1.412 5.274 8.04 4.196 13.481-1.103 5.582-4.384 10.531-9.232 13.552-3.056 1.903-6.338 2.84-8.124-.097zm-11.813-30.137c2.754-3.375 6.537-3.295 9.283-2.602 2.817.712 4.484 2.792 4.472 5.852-.008 1.929-.652 3.998-2.991 5.113-5.157 2.462-15.597-2.438-10.764-8.363zM120.427 39.191c.173 7.586-17.943 23.607-24.866 16.747-3.943-3.906-.547-9.6 3.107-13.773 3.747-4.282 9.062-6.928 14.77-7.12 3.6-.12 6.91.71 6.989 4.146zm-4.839 32.006c-4.072 1.546-7.309-.415-9.34-2.388-2.084-2.025-2.487-4.66-.947-7.304.971-1.667 2.564-3.136 5.147-2.933 5.697.447 12.288 9.91 5.14 12.625z" fill="#DADAEF"/><g transform="translate(156 496)"><mask id="b" fill="#fff"><use xlink:href="#a"/></mask><path d="M.51 13.62C.51 21.01 104.025 27 231.719 27c127.692 0 231.208-5.99 231.208-13.38C462.927 6.227 359.41.237 231.719.237 104.025.238.509 6.228.509 13.619" fill="#DADAEF" mask="url(#b)"/></g><path d="M551 512h-76c0-3.898 1.582-7.427 4.136-9.98a14.05 14.05 0 0 1 9.98-4.136h.133s16.128-2.105 16.128-15.279V404h15.246v78.605c0 13.174 16.128 15.28 16.128 15.28h.133c7.797 0 14.116 6.318 14.116 14.115" fill="#424548"/><path fill="#27292C" d="M521 404v3.269L506 412v-8z"/><path d="M586 404H440c2.412-13.344 14.03-23.038 27.572-23l45.427.122 45.429-.122c13.54-.038 25.16 9.656 27.572 23" fill="#424548"/><path d="M482.075 233.87c-3.817 14.108-23.054 50.865-30.523 56.131-9.722 6.858-40.207 19.728-56.062 26.292-2.862 1.184 7.749 13.707 7.749 13.707s41.007-10.433 57.713-21.1c4.725-3.017 14.964-13.265 27.926-33.81 3.93-6.229 13.03-18.607 14.04-27.448 1.161-10.175-10.297-17.177-20.843-13.771" fill="#E13C67"/><path d="M436.467 477l.533 15.212s-3.833 2.786-11.76 1.402L422 477.253l14.467-.253z" fill="#F7AD89"/><path d="M427.14 492.489s-2.659-3.61-4.814-3.486c-2.155.123-18.948 12.835-24.654 13.823-5.705.989-5.42 7.946-3.18 8.738 2.55.901 44.728.126 44.728.126s1.603-14.716.213-18.693c-1.39-3.98-7.86.49-12.294-.508" fill="#F41F65"/><path d="M417.98 500.965c.197.06.418.045.615-.06a.755.755 0 0 0 .308-1.038c-.07-.125-1.738-3.043-4.023-4.206-3.04-1.55-5.452.104-5.554.176a.75.75 0 0 0-.177 1.067.796.796 0 0 0 1.094.172c.066-.044 1.746-1.159 3.91-.059 1.863.947 3.361 3.562 3.376 3.588.1.178.265.303.451.36" fill="#FFF9FF"/><path d="M419.98 498.965c.196.06.417.045.614-.06a.756.756 0 0 0 .309-1.039c-.071-.123-1.738-3.041-4.024-4.204-3.041-1.552-5.452.102-5.553.174a.75.75 0 0 0-.177 1.067.795.795 0 0 0 1.094.173c.066-.045 1.746-1.16 3.911-.06 1.869.952 3.36 3.56 3.374 3.588.1.179.265.303.451.36M413.979 502.965c.198.06.42.045.615-.06a.753.753 0 0 0 .309-1.039c-.07-.123-1.738-3.041-4.023-4.205-3.042-1.55-5.453.104-5.554.175a.748.748 0 0 0-.177 1.066.795.795 0 0 0 1.093.174c.066-.044 1.749-1.159 3.912-.06 1.87.953 3.36 3.561 3.373 3.588a.78.78 0 0 0 .452.36" fill="#FFF9FF"/><path d="M476.114 346.96s-59.22-9.761-77.005 1.367c-13.484 8.436 21.254 133.027 21.254 133.027 6.187 1.927 14.783-.755 18.141-4.11 0 0 5.463-14.705.445-57.243-.666-5.652 0-18.55-6.027-41.389L478 358.732l-1.886-11.772z" fill="#001030"/><path d="M529.418 215.899s16.453 5.348 25.249 13.038c8.797 7.689 1.44 30.634 1.654 43.664.216 13.03-1.942 88.674-20.692 98.18-14.16 7.177-73.761-3.721-69.402-23.06 2.899-12.863 8.393-36.502 12.211-68.485 2.518-21.098 1.455-36.68 3.817-45.439C484.614 225.04 512.16 215 512.16 215l17.257.899z" fill="#F86382"/><path d="M513.263 234.78c8.5 1.533 18.09-5.46 18.507-5.767a.542.542 0 0 0 .098-.797.639.639 0 0 0-.858-.092c-.1.073-10.144 7.395-18.241 5.387-.323-.082-.66.099-.748.402-.087.302.106.614.433.695.268.067.539.125.81.173M524.4 334a.605.605 0 0 0 .067-1.207c-22.053-2.553-31.188-40.938-31.277-41.325a.603.603 0 1 0-1.174.275c.373 1.616 9.425 39.603 32.312 42.253a.639.639 0 0 0 .071.004" fill="#E62461"/><path d="M515.396 322a.6.6 0 0 0 .515-.292.621.621 0 0 0-.198-.844c-11.75-7.37-13.496-18.232-13.513-18.34a.602.602 0 0 0-.686-.516.614.614 0 0 0-.507.698c.07.466 1.825 11.52 14.073 19.204.099.062.208.09.316.09" fill="#E62461"/><path d="M519.308 199.63c13.111-2.307 20.59-14.612 18.274-27.663-2.318-13.051-13.556-21.908-26.666-19.601-13.112 2.307-21.861 14.757-19.544 27.809 2.318 13.052 14.826 21.762 27.936 19.454z" fill="#232323"/><path d="M492.478 172s-10.731-4.286-8.047-9.748c1.714-3.489 5.616-1.444 7.34-6.698 1.724-5.256 8.878-6.122 14.972-5.962 5.553.147 7.429-2.509 15.63-1.254 8.201 1.253 11.876 7.835 8.201 12.536-3.673 4.702-38.096 11.126-38.096 11.126" fill="#232323"/><path d="M496.263 185.846s-4.742-4.34-6.847.29c-2.106 4.63 4.137 16.154 10.584 11.962l-3.737-12.252z" fill="#FA8465"/><path d="M497.486 194.991a.63.63 0 0 1-.668-.327c-1.833-3.63-6.268-4.48-6.312-4.487a.597.597 0 0 1-.495-.695c.064-.32.39-.533.727-.472.205.038 5.092.959 7.2 5.138.15.296.02.65-.29.793a.666.666 0 0 1-.162.05" fill="#FA664D"/><path d="M493.733 193.992a.68.68 0 0 1-.35-.037c-.317-.123-.468-.462-.334-.756.022-.049.56-1.209 1.977-2.1a.656.656 0 0 1 .867.154.552.552 0 0 1-.166.803c-1.097.689-1.523 1.582-1.527 1.59a.618.618 0 0 1-.467.346" fill="#FA664D"/><path d="M527.826 204L530 216.224s-4.097 6.275-8.98 7.571c-4.876 1.3-8.93-4.02-8.93-4.02L510 208.02l17.826-4.02z" fill="#F7AD89"/><path d="M528.025 204l.975 5.475c-2.704 4.295-8.514 6.27-17.584 6.525L510 208.058 528.025 204z" fill="#FA8465"/><path d="M535.994 186.484a38.736 38.736 0 0 1-.181 3.418 60.16 60.16 0 0 1-.438 3.333c-1.535 9.481-6.311 22.231-23.246 19.35-8.406-1.423-13.623-9.593-16.843-18.274a73.757 73.757 0 0 1-1.982-6.255 96.777 96.777 0 0 1-2.15-10.176 12.924 12.924 0 0 1 4.528-11.949c9.507-7.868 21.051-7.604 28.89-6.08a12.855 12.855 0 0 1 10.288 10.986c.61 4.77 1.204 10.76 1.134 15.647" fill="#F7AD89"/><path d="M524.734 204.25c-3.888 2.927-8.846 3.655-11.58 3.46a15.13 15.13 0 0 1-4.666-1.066c-2.683-1.07-3.058-4.775-.593-6.286 1.568-.96 4.056-1.63 7.967-1.696 6.109-2.607 8.796-1.584 9.947.15 1.176 1.773.62 4.162-1.075 5.437zm5.872-21.25s.601 6.427-.492 11.319c-4.101-3.834-15.636 2.22-15.636 2.22s-12.241-1.104-13.9 3.386c-1.841-2.44-3.813-7.985-5.148-11.795l-2.43-.252c.557 2.07 1.21 4.2 1.978 6.298 3.214 8.743 8.424 16.972 16.814 18.407 16.907 2.9 22.208-9.287 23.698-20.06-.693-5.545-1.49-9.023-1.49-9.023l-3.394-.5z" fill="#232323"/><path d="M505.944 186.222c.223 1.372-.244 2.609-1.042 2.762-.798.154-1.624-.832-1.847-2.204-.222-1.373.246-2.61 1.044-2.764.798-.154 1.624.833 1.845 2.206M522.944 183.222c.223 1.372-.244 2.609-1.042 2.762-.799.154-1.625-.832-1.846-2.204-.223-1.373.244-2.61 1.042-2.764.799-.154 1.625.833 1.846 2.206M498.051 180.54s5.79-3.488 10.949-2.29l-.007 2.248s-5.396-.235-10.143 2.502c-.499-.95-1.017-1.358-.799-2.46M526.679 175.314s-6.414-1.35-10.679 1.546l.764 2.14s4.803-2.062 10.02-1.072c.13-1.074.463-1.638-.105-2.614" fill="#232323"/><path d="M515.691 193.949c.984-.17 1.893-.712 2.033-.799a.572.572 0 0 0 .186-.797.6.6 0 0 0-.817-.18c-.49.298-1.696.844-2.302.618-.117-.044-.284-.14-.383-.48-.57-1.954-1.22-8.718-1.225-8.786a.59.59 0 0 0-.646-.522.58.58 0 0 0-.534.629c.026.283.666 6.94 1.267 8.996.226.774.722 1.104 1.1 1.245.412.154.874.154 1.321.076" fill="#FA8465"/><path d="M509 201.53c.914 2.245 3.317 6.252 8.74 5.336 5.435-.917 6.236-5.084 6.26-7.866l-15 2.53z" fill="#FFF9FF"/><path d="M496.416 190.579c-.857-2.332-1.833-5.366-1.798-7.016.07-2.924 2.09-4.995.844-7.577-1.248-2.594 1.085-6.027 3.096-6.887 2.004-.864 7.08-.685 11.492-3.859 4.208-3.032 12.474-2.88 14.298-.128 2.207 3.33.123 4.054 5.105 7.192 1.984 1.252.659 5.658.83 8.34.08 1.234.164 1.828.438 3.12l.132.657 5.147-.922c-.145-4.18-.608-8.735-1.087-12.529-.704-5.559-4.857-13.036-10.303-14.108-7.85-1.543-19.401-1.812-28.925 6.149-3.51 2.938-5.239 10.523-4.527 15.08.55 3.537 1.455 8.168 2.898 12.909l2.36-.421z" fill="#232323"/><path d="M534.378 185.771a24.404 24.404 0 0 1-.378-4.194c.001-1.926.225-3.715 1.87-4.831 1.322-.898 2.84-1.2 4.208.326 3.366 3.756 2.57 17.592-4.461 15.762l-1.24-7.063z" fill="#F7AD89"/><path d="M535.802 188.958a.625.625 0 0 0 .355-.635c-.375-4.173 2.628-7.217 2.658-7.248a.661.661 0 0 0 .04-.871.527.527 0 0 0-.792-.046c-.142.14-3.456 3.482-3.024 8.285.03.34.305.587.613.554a.534.534 0 0 0 .15-.039" fill="#FA8465"/><path d="M539.58 185.957a.659.659 0 0 0 .294-.21.584.584 0 0 0-.146-.855c-.052-.034-1.225-.81-3.036-.891-.362-.018-.674.245-.691.582-.018.338.262.625.626.64 1.401.064 2.317.655 2.325.66a.7.7 0 0 0 .628.074" fill="#FA8465"/><path d="M516.148 181.794c-.175-.834.377-1.647 1.226-1.817l9.274-1.853c.853-.172 1.684.365 1.858 1.2l.242 1.16c.35 1.676.017 3.412-.918 4.753-.932 1.34-2.13 2.177-3.555 2.494l-.223.046a6.58 6.58 0 0 1-4.871-.918 6.38 6.38 0 0 1-2.829-4.084l-.204-.98zm-1.094.219l.204.98a7.457 7.457 0 0 0 3.311 4.78 7.705 7.705 0 0 0 5.706 1.074l.246-.05c1.714-.38 3.136-1.369 4.235-2.945 1.1-1.588 1.495-3.622 1.086-5.587l-.242-1.16a2.534 2.534 0 0 0-.365-.877 2.629 2.629 0 0 0-.789-.79 2.73 2.73 0 0 0-2.023-.384l-9.272 1.853c-1.05.209-1.829.99-2.07 1.945-.09.348-.108.72-.038 1.092.001.022.007.048.01.069zM497.146 185.795c-.174-.835.377-1.648 1.227-1.817l9.275-1.855c.85-.17 1.684.367 1.86 1.201l.24 1.16c.35 1.676.014 3.412-.917 4.754-.932 1.337-2.13 2.175-3.555 2.493l-.226.046a6.568 6.568 0 0 1-4.869-.918 6.369 6.369 0 0 1-2.83-4.084l-.205-.98zm-1.094.218l.205.982c.413 1.975 1.59 3.673 3.31 4.778a7.704 7.704 0 0 0 5.706 1.074l.248-.05c1.71-.378 3.137-1.37 4.232-2.944 1.1-1.588 1.5-3.623 1.09-5.589l-.243-1.158a.21.21 0 0 0-.014-.05 2.509 2.509 0 0 0-.429-.944 2.711 2.711 0 0 0-2.732-1.058l-9.276 1.853a2.692 2.692 0 0 0-1.832 1.336 2.516 2.516 0 0 0-.306 1.058c-.024.235-.008.473.041.712z" fill="#FFF9FF"/><path d="M534.78 175c-3.14.497-5.177 1.837-5.966 2.448-.222.168-.79.724-.814.748l.701.804c.007-.005.635-.575.891-.76.78-.574 2.529-1.761 5.408-2.171l-.22-1.069zM515.86 182.04l.14-.975c-.065-.008-1.636-.196-3.246.107-1.716.323-2.712 1.018-2.754 1.047l.649.781c.006-.005.858-.589 2.319-.864 1.429-.27 2.876-.097 2.891-.095M492 184.063l.218.728c2.24-.183 4.477.205 4.508.209l.274-.716c-.133-.024-2.534-.44-5-.22" fill="#FFF9FF"/><path d="M469.467 477l.533 15.212s-3.833 2.786-11.76 1.402L455 477.253l14.467-.253z" fill="#F7AD89"/><path d="M460.138 492.489s-2.656-3.61-4.812-3.486c-2.155.123-18.95 12.835-24.653 13.823-5.705.989-5.423 7.946-3.181 8.738 2.551.901 44.728.126 44.728.126s1.603-14.716.213-18.693c-1.39-3.98-7.86.49-12.295-.508" fill="#FF5480"/><path d="M450.98 500.965c.197.06.418.045.615-.06a.755.755 0 0 0 .308-1.038c-.07-.125-1.738-3.043-4.023-4.206-3.04-1.55-5.452.104-5.554.176a.75.75 0 0 0-.177 1.067.796.796 0 0 0 1.094.172c.065-.044 1.745-1.159 3.91-.059 1.863.947 3.361 3.562 3.376 3.588.1.178.265.303.451.36" fill="#FFF9FF"/><path d="M452.98 498.965c.196.06.417.045.614-.06a.756.756 0 0 0 .309-1.039c-.071-.123-1.738-3.041-4.024-4.204-3.04-1.552-5.451.102-5.552.174a.751.751 0 0 0-.179 1.067.796.796 0 0 0 1.095.173c.066-.045 1.747-1.16 3.911-.06 1.869.952 3.36 3.56 3.374 3.588.1.179.265.303.451.36M447.98 502.965c.197.06.418.045.614-.06a.753.753 0 0 0 .309-1.039c-.07-.123-1.738-3.041-4.023-4.205-3.043-1.55-5.453.104-5.554.175a.75.75 0 0 0-.177 1.066.797.797 0 0 0 1.094.174c.065-.044 1.746-1.159 3.91-.06 1.87.953 3.36 3.561 3.374 3.588a.787.787 0 0 0 .453.36" fill="#FFF9FF"/><path d="M548.072 348.522s-103.04-5.637-120.725-.055c-15.216 4.8 26.38 132.888 26.38 132.888 6.207 1.924 14.831-.755 18.2-4.106 0 0 3.164-7.646-1.872-50.14-.669-5.647-1.376-23.254-7.423-46.066l68.352.342c14.642 0 19.274-12.284 17.735-26.767l-.647-6.096z" fill="#2E3062"/><path d="M449.228 317s-15.627 2.6-22.144 7.959c-6.52 5.357-15.256 9.969-13.954 12.74 1.306 2.771 10.504-3.11 10.504-3.11s2.19 4.995 9.725 7.163C440.893 343.92 457 331.169 457 331.169L449.228 317z" fill="#F7AD89"/><path d="M551.4 226c-8.636 13.107-41.69 58.42-49.148 63.684-9.71 6.854-36.869 21.096-52.702 27.655-2.856 1.184 6.345 14.661 6.345 14.661s39.06-12.766 55.743-23.428c4.718-3.016 24.345-22.7 36.859-40.16 4.288-5.982 11.26-14.29 12.27-23.125 1.161-10.17-2.03-15.612-9.366-19.287" fill="#E13C67"/><path d="M471.945 348h-79.889c-1.688 0-3.056-1.343-3.056-3v-5.002c0-1.656 1.368-2.998 3.056-2.998h79.89c1.687 0 3.054 1.342 3.054 2.998V345c0 1.657-1.367 3-3.055 3" fill="#001030"/><path d="M374.659 349l-17.46-65.689c-.981-3.69 1.787-7.311 5.589-7.311h38.417a5.789 5.789 0 0 1 5.57 4.241L426 349h-51.341z" fill="#2E3062"/><path d="M406.566 280.216L425.614 348H430l-19.048-67.784a5.785 5.785 0 0 0-5.566-4.216H401c2.59 0 4.86 1.722 5.566 4.216" fill="#001030"/><path d="M396.792 315c.996 4.418-1.685 8-5.989 8-4.303 0-8.6-3.582-9.595-8-.996-4.418 1.685-8 5.989-8 4.303 0 8.599 3.582 9.595 8" fill="#524E82"/><path d="M226 255a1 1 0 0 1-1-1v-2a1 1 0 1 1 2 0v2a1 1 0 0 1-1 1" fill="#2E3062"/><path d="M601 342a1 1 0 0 1 0 2h-4a1 1 0 0 1 0-2zm8 0a1 1 0 1 1 0 2h-4a1 1 0 0 1 0-2zm-16 0a1 1 0 1 1 0 2h-4a1 1 0 1 1 0-2zm-8 0a1 1 0 0 1 0 2h-4a1 1 0 0 1 0-2zm-80 0a1 1 0 0 1 0 2h-4a1 1 0 0 1 0-2zm8 0a1 1 0 0 1 0 2h-4a1 1 0 0 1 0-2zm-16 0a1 1 0 1 1 0 2h-4a1 1 0 1 1 0-2zm80 0a1 1 0 1 1 0 2h-4a1 1 0 1 1 0-2zm-88 0a1 1 0 0 1 0 2h-4a1 1 0 0 1 0-2zm32 0a1 1 0 1 1 0 2h-4a1 1 0 1 1 0-2zm-40 0a1 1 0 1 1 0 2h-4a1 1 0 1 1 0-2zm80 0a1 1 0 0 1 0 2h-4a1 1 0 0 1 0-2zm8 0a1 1 0 0 1 0 2h-4a1 1 0 0 1 0-2zm-40 0a1 1 0 0 1 0 2h-4a1 1 0 0 1 0-2zm24 0a1 1 0 1 1 0 2h-4a1 1 0 0 1 0-2zm-8 0a1 1 0 0 1 0 2h-4a1 1 0 0 1 0-2zm-8 0a1 1 0 1 1 0 2h-4a1 1 0 1 1 0-2zm80 0a1 1 0 0 1 0 2h-4a1 1 0 0 1 0-2zm2-5a1 1 0 0 1 1 1v4a1 1 0 1 1-2 0v-4a1 1 0 0 1 1-1zm0-8a1 1 0 0 1 1 1v4a1 1 0 0 1-2 0v-4a1 1 0 0 1 1-1zm0-8a1 1 0 0 1 1 1v4a1 1 0 1 1-2 0v-4a1 1 0 0 1 1-1zm0-8a1 1 0 0 1 1 1v4a1 1 0 0 1-2 0v-4a1 1 0 0 1 1-1zm-298.027 1c.549 0 .994.448.994 1s-.445 1-.994 1h-3.978a.998.998 0 0 1-.995-1c0-.552.445-1 .995-1h3.978zm45.034 0c.549 0 .993.448.993 1s-.444 1-.993 1h-1.276a.998.998 0 0 1-.995-1c0-.552.445-1 .995-1h1.276zm-21.166 0c.55 0 .994.448.994 1s-.445 1-.994 1h-3.979a.996.996 0 0 1-.993-1c0-.552.444-1 .993-1h3.98zm7.956 0c.55 0 .995.448.995 1s-.446 1-.995 1h-3.98a.996.996 0 0 1-.993-1c0-.552.444-1 .994-1h3.979zm-15.913 0c.55 0 .995.448.995 1s-.446 1-.995 1h-3.978a.997.997 0 0 1-.993-1c0-.552.445-1 .993-1h3.978zm23.869 0c.548 0 .994.448.994 1s-.446 1-.994 1h-3.978a.998.998 0 0 1-.995-1c0-.552.445-1 .995-1h3.978zm-31.825 0c.55 0 .995.448.995 1s-.445 1-.995 1h-3.977a.996.996 0 0 1-.994-1c0-.552.444-1 .994-1h3.977zM619 305a1 1 0 0 1 1 1v4a1 1 0 0 1-2 0v-4a1 1 0 0 1 1-1zm0-8a1 1 0 0 1 1 1v4a1 1 0 0 1-2 0v-4a1 1 0 0 1 1-1zm0-8a1 1 0 0 1 1 1v4a1 1 0 0 1-2 0v-4a1 1 0 0 1 1-1zm0-8a1 1 0 0 1 1 1v4a1 1 0 1 1-2 0v-4a1 1 0 0 1 1-1zm0-8a1 1 0 0 1 1 1v4a1 1 0 0 1-2 0v-4a1 1 0 0 1 1-1zm0-8a1 1 0 0 1 1 1v4a1 1 0 1 1-2 0v-4a1 1 0 0 1 1-1zm0-8a1 1 0 0 1 1 1v4a1 1 0 0 1-2 0v-4a1 1 0 0 1 1-1zm0-8a1 1 0 0 1 1 1v4a1 1 0 0 1-2 0v-4a1 1 0 0 1 1-1zm-345-4.315c.552 0 1 .44 1 .986v3.342a.994.994 0 0 1-1 .987c-.552 0-1-.442-1-.987v-3.342a.993.993 0 0 1 1-.986zM619 241a1 1 0 0 1 1 1v4a1 1 0 0 1-2 0v-4a1 1 0 0 1 1-1zm-345-3c.552 0 1 .442 1 .987v3.341a.994.994 0 0 1-1 .987c-.552 0-1-.442-1-.987v-3.34a.994.994 0 0 1 1-.988zm345-5a1 1 0 0 1 1 1v4a1 1 0 0 1-2 0v-4a1 1 0 0 1 1-1zm-345-2.315c.552 0 1 .44 1 .986v3.342a.994.994 0 0 1-1 .987c-.552 0-1-.442-1-.987v-3.342a.993.993 0 0 1 1-.986zM619 225a1 1 0 0 1 1 1v4a1 1 0 0 1-2 0v-4a1 1 0 0 1 1-1zm-345-1c.552 0 1 .442 1 .987v3.341a.994.994 0 0 1-1 .987c-.552 0-1-.442-1-.987v-3.34a.994.994 0 0 1 1-.988zm0-5a1 1 0 0 1 1 .999v2a1 1 0 1 1-2 0v-2a1 1 0 0 1 1-.999zm345-2a1 1 0 0 1 1 1v4a1 1 0 0 1-2 0v-4a1 1 0 0 1 1-1zm0-8a1 1 0 0 1 1 1v4a1 1 0 0 1-2 0v-4a1 1 0 0 1 1-1zm0-8a1 1 0 0 1 1 1v4a1 1 0 0 1-2 0v-4a1 1 0 0 1 1-1zm0-7a1 1 0 0 1 1 1v4a1 1 0 0 1-2 0v-4a1 1 0 0 1 1-1zm0-8a1 1 0 0 1 1 1v4a1 1 0 0 1-2 0v-4a1 1 0 0 1 1-1zm0-8a1 1 0 0 1 1 1v4a1 1 0 0 1-2 0v-4a1 1 0 0 1 1-1zm0-8a1 1 0 0 1 1 1v4a1 1 0 0 1-2 0v-4a1 1 0 0 1 1-1zm0-8a1 1 0 0 1 1 1v4a1 1 0 0 1-2 0v-4a1 1 0 0 1 1-1zm0-8a1 1 0 0 1 1 1v4a1 1 0 0 1-2 0v-4a1 1 0 0 1 1-1zm0-8a1 1 0 0 1 1 1v4a1 1 0 0 1-2 0v-4a1 1 0 0 1 1-1zm0-8a1 1 0 0 1 1 1v4a1 1 0 0 1-2 0v-4a1 1 0 0 1 1-1zm0-8a1 1 0 0 1 1 1v4a1 1 0 0 1-2 0v-4a1 1 0 0 1 1-1zm0-8a1 1 0 0 1 1 1v4a1 1 0 0 1-2 0v-4a1 1 0 0 1 1-1zm0-8a1 1 0 0 1 1 1v4a1 1 0 0 1-2 0v-4a1 1 0 0 1 1-1zm0-8a1 1 0 0 1 1 1v4a1 1 0 0 1-2 0v-4a1 1 0 0 1 1-1zm0-8a1 1 0 0 1 1 1v4a1 1 0 0 1-2 0v-4a1 1 0 0 1 1-1zm0-8a1 1 0 0 1 1 1v4a1 1 0 0 1-2 0v-4a1 1 0 0 1 1-1zm-229 3a1 1 0 0 1 0 2h-4a1 1 0 0 1 0-2h4zm8 0a1 1 0 0 1 0 2h-4a.998.998 0 0 1-.998-1c0-.552.445-1 .997-1h4.002zm8.001 0a1 1 0 0 1 0 2h-4a1 1 0 0 1 0-2h4zM619 82a1 1 0 0 1 1 .999v4a1 1 0 0 1-2 0v-4a1 1 0 0 1 1-.999zm0-8a1 1 0 0 1 1 1v4a1 1 0 0 1-2 0v-4a1 1 0 0 1 1-1zm0-8a1 1 0 0 1 1 1v4a1 1 0 0 1-2 0v-4a1 1 0 0 1 1-1zm0-8a1 1 0 0 1 1 1v4a1 1 0 0 1-2 0v-4a1 1 0 0 1 1-1zm-16-3a1 1 0 0 1 0 2h-4a1 1 0 1 1 0-2zm8 0a1 1 0 0 1 0 2h-4a1 1 0 0 1 0-2zm-24.708 0c.392 0 .708.448.708 1s-.316 1-.708 1H586v-2zM595 55a1 1 0 0 1 0 2h-4a1 1 0 0 1 0-2zm24 0a1 1 0 0 1 0 2h-4a1 1 0 1 1 0-2zM378.138 95h3.89c.536 0 .972-.448.972-1s-.436-1-.973-1h-3.889c-.537 0-.973.448-.973 1s.436 1 .973 1m-7.779 0h3.89c.537 0 .972-.448.972-1s-.435-1-.972-1h-3.89c-.537 0-.972.448-.972 1s.435 1 .972 1m-4.386 0h.497c.537 0 .973-.448.973-1s-.436-1-.973-1h-.497c-.537 0-.973.448-.973 1s.436 1 .973 1M135.418 101.997h-3.966a.995.995 0 0 1-.991-.999c0-.55.444-.998.991-.998h3.966c.548 0 .99.447.99.998a.994.994 0 0 1-.99.999m7.932 0h-3.966a.995.995 0 0 1-.992-.999c0-.55.444-.998.992-.998h3.966c.547 0 .991.447.991.998a.995.995 0 0 1-.991.999m7.931 0h-3.966a.995.995 0 0 1-.991-.999c0-.55.444-.998.991-.998h3.966c.548 0 .992.447.992.998a.995.995 0 0 1-.992.999m7.932 0h-3.966a.995.995 0 0 1-.992-.999c0-.55.444-.998.992-.998h3.966c.547 0 .991.447.991.998a.995.995 0 0 1-.991.999m7.931 0h-3.966a.994.994 0 0 1-.99-.999c0-.55.443-.998.99-.998h3.966c.548 0 .992.447.992.998a.995.995 0 0 1-.992.999m7.933 0h-3.967a.995.995 0 0 1-.99-.999c0-.55.443-.998.99-.998h3.967c.546 0 .99.447.99.998a.995.995 0 0 1-.99.999m7.931 0h-3.967a.994.994 0 0 1-.99-.999c0-.55.443-.998.99-.998h3.967c.548 0 .992.447.992.998a.995.995 0 0 1-.992.999m-57.016 2.487a.995.995 0 0 1-.992-.997v-2.489c0-.55.444-.998.992-.998h1.495c.547 0 .991.447.991.998a.995.995 0 0 1-.991.999h-.503v1.49c0 .55-.445.997-.992.997m0 7.984a.994.994 0 0 1-.992-.997v-3.992c0-.551.444-.998.992-.998.547 0 .992.447.992.998v3.992a.994.994 0 0 1-.992.997m0 7.986a.995.995 0 0 1-.992-.999v-3.992c0-.55.444-.998.992-.998.547 0 .992.447.992.998v3.992a.995.995 0 0 1-.992.999m0 7.984a.995.995 0 0 1-.992-.998v-3.992c0-.552.444-.999.992-.999.547 0 .992.447.992.999v3.992a.995.995 0 0 1-.992.998m0 7.984a.995.995 0 0 1-.992-.998v-3.992c0-.551.444-.999.992-.999.547 0 .992.448.992.999v3.992a.995.995 0 0 1-.992.998m0 7.984a.995.995 0 0 1-.992-.998v-3.992c0-.55.444-.997.992-.997.547 0 .992.447.992.997v3.992a.995.995 0 0 1-.992.998m0 7.985a.994.994 0 0 1-.992-.997V147.4c0-.551.444-.998.992-.998.547 0 .992.447.992.998v3.994a.994.994 0 0 1-.992.997m0 7.984a.995.995 0 0 1-.992-.997v-3.994c0-.55.444-.997.992-.997.547 0 .992.446.992.997v3.994c0 .55-.445.997-.992.997m0 7.984a.995.995 0 0 1-.992-.997v-3.992c0-.551.444-.998.992-.998.547 0 .992.447.992.998v3.992c0 .55-.445.997-.992.997m0 7.986a.995.995 0 0 1-.992-.999v-3.992c0-.551.444-.998.992-.998.547 0 .992.447.992.998v3.992a.995.995 0 0 1-.992.999m0 7.984a.995.995 0 0 1-.992-.998v-3.993c0-.55.444-.998.992-.998.547 0 .992.447.992.998v3.993a.995.995 0 0 1-.992.998m0 7.984a.995.995 0 0 1-.992-.998v-3.992c0-.552.444-.999.992-.999.547 0 .992.447.992.999v3.992a.995.995 0 0 1-.992.998m0 7.984a.995.995 0 0 1-.992-.998v-3.992c0-.551.444-.997.992-.997.547 0 .992.446.992.997v3.992a.995.995 0 0 1-.992.998m0 7.985a.995.995 0 0 1-.992-.997v-3.994c0-.551.444-.998.992-.998.547 0 .992.447.992.998v3.994c0 .55-.445.997-.992.997m0 7.984a.995.995 0 0 1-.992-.997v-3.994c0-.55.444-.997.992-.997.547 0 .992.446.992.997v3.994c0 .55-.445.997-.992.997m0 7.984a.995.995 0 0 1-.992-.998v-3.991c0-.551.444-.998.992-.998.547 0 .992.447.992.998v3.99a.995.995 0 0 1-.992.999m0 7.984a.994.994 0 0 1-.992-.997v-3.992c0-.551.444-.998.992-.998.547 0 .992.447.992.998v3.992a.994.994 0 0 1-.992.997m0 7.986a.995.995 0 0 1-.992-.999v-3.992c0-.551.444-.998.992-.998.547 0 .992.447.992.998v3.992a.995.995 0 0 1-.992.999m0 7.984a.995.995 0 0 1-.992-.998v-3.992c0-.552.444-.999.992-.999.547 0 .992.447.992.999v3.992a.995.995 0 0 1-.992.998m0 7.984a.995.995 0 0 1-.992-.998v-3.992c0-.552.444-.999.992-.999.547 0 .992.447.992.999v3.992a.995.995 0 0 1-.992.998m0 7.984a.995.995 0 0 1-.992-.998v-3.99c0-.553.444-1 .992-1 .547 0 .992.447.992 1v3.99a.995.995 0 0 1-.992.998m0 7.985a.994.994 0 0 1-.992-.997v-3.994c0-.551.444-.998.992-.998.547 0 .992.447.992.998v3.994a.994.994 0 0 1-.992.997m0 7.984a.995.995 0 0 1-.992-.998v-3.993c0-.55.444-.997.992-.997.547 0 .992.446.992.997v3.993a.995.995 0 0 1-.992.998m0 7.985a.995.995 0 0 1-.992-.998v-3.992c0-.551.444-.998.992-.998.547 0 .992.447.992.998v3.992a.995.995 0 0 1-.992.998m0 7.985a.995.995 0 0 1-.992-.999v-3.993c0-.551.444-.997.992-.997.547 0 .992.446.992.997v3.993a.995.995 0 0 1-.992.999m0 7.983a.995.995 0 0 1-.992-.999v-3.99c0-.552.444-.999.992-.999.547 0 .992.447.992.998v3.991a.995.995 0 0 1-.992.999m0 7.985a.995.995 0 0 1-.992-.998v-3.992c0-.552.444-.999.992-.999.547 0 .992.447.992.999v3.992a.995.995 0 0 1-.992.998m4.036 3.921h-3.965a.994.994 0 0 1-.99-.998c0-.552.442-.999.99-.999h3.965c.55 0 .992.447.992.999a.994.994 0 0 1-.992.998m7.932 0h-3.965a.995.995 0 0 1-.991-.998c0-.552.444-.999.991-.999h3.965c.547 0 .991.447.991.999a.995.995 0 0 1-.991.998" fill="#21374D"/><path d="M460 232.274v22.027c0 2.91-2.386 5.273-5.327 5.273h-40.397l-12.197 4.332c-1.251.446-2.45-.774-1.97-2l4.612-11.795v-17.837c0-2.912 2.387-5.274 5.33-5.274h44.622c2.94 0 5.327 2.362 5.327 5.274" stroke="#21374D"/><path d="M425 244a4 4 0 1 1-8 0 4 4 0 0 1 8 0M437 244a4.001 4.001 0 0 1-8 0 4 4 0 0 1 8 0M449 244a4 4 0 1 1-8 0 4 4 0 0 1 8 0" fill="#21374D"/><path d="M103.874 415.108c.36.222.482.713.276 1.098l-.1.187h.2c.414 0 .75.36.75.803 0 .444-.336.804-.75.804h-1.5a.746.746 0 0 1-.65-.402.86.86 0 0 1 0-.805l.75-1.391c.208-.384.666-.516 1.024-.294zm19.276.294l.75 1.391a.86.86 0 0 1 0 .805.746.746 0 0 1-.65.402h-1.5c-.414 0-.75-.36-.75-.804 0-.443.336-.803.75-.803h.2l-.1-.187c-.206-.385-.084-.876.275-1.098.36-.222.817-.09 1.025.294zM109.225 417c.391 0 .709.224.709.5s-.318.5-.71.5h-2.516c-.392 0-.708-.224-.708-.5s.316-.5.708-.5h2.517zm5.033 0c.391 0 .709.224.709.5s-.318.5-.71.5h-2.515c-.391 0-.709-.224-.709-.5s.318-.5.71-.5h2.515zm5.034 0c.392 0 .708.224.708.5s-.316.5-.708.5h-2.517c-.391 0-.709-.224-.709-.5s.318-.5.71-.5h2.516zm-12.882-6.413c.352.19.47.614.268.944l-1.306 2.122a.745.745 0 0 1-.636.347.785.785 0 0 1-.368-.093.668.668 0 0 1-.27-.943l1.307-2.123c.204-.33.652-.443 1.005-.254zm14.185.254l1.306 2.123a.669.669 0 0 1-.269.943.785.785 0 0 1-.367.093.745.745 0 0 1-.637-.347l-1.306-2.122a.67.67 0 0 1 .268-.944c.353-.19.802-.076 1.005.254zm-11.574-4.502c.351.192.472.614.269.943l-1.305 2.125a.744.744 0 0 1-.637.345.784.784 0 0 1-.368-.092c-.352-.192-.472-.613-.27-.944l1.306-2.123c.203-.33.653-.443 1.005-.254zm8.963.254l1.305 2.123a.668.668 0 0 1-.269.943.785.785 0 0 1-.367.093.745.745 0 0 1-.637-.345l-1.305-2.125c-.204-.33-.083-.75.269-.943.35-.19.801-.076 1.004.254zm-6.351-4.5c.351.19.47.611.269.943l-1.307 2.122a.744.744 0 0 1-.637.346.76.76 0 0 1-.366-.092c-.352-.192-.472-.613-.27-.943l1.306-2.124a.76.76 0 0 1 1.005-.251zm3.74.252l1.305 2.124c.203.33.082.751-.27.943a.76.76 0 0 1-.366.092.744.744 0 0 1-.637-.346l-1.306-2.122a.667.667 0 0 1 .269-.942.76.76 0 0 1 1.004.25zM113.5 398c.267 0 .515.153.65.402l.748 1.391c.208.385.084.877-.273 1.099a.71.71 0 0 1-.375.108.742.742 0 0 1-.65-.404l-.1-.186-.101.186c-.207.386-.665.518-1.024.296-.36-.222-.483-.714-.275-1.099l.75-1.39a.742.742 0 0 1 .65-.403z" fill="#E76D83"/><path d="M150.896 415.505a.86.86 0 0 1-.1-.007 9.222 9.222 0 0 0-2.592 0 .7.7 0 0 1-.791-.597.701.701 0 0 1 .594-.795 10.534 10.534 0 0 1 2.987 0 .703.703 0 0 1-.098 1.399m-7.813 2.306a.706.706 0 0 1-.459-1.236 10.479 10.479 0 0 1 2.513-1.624.699.699 0 0 1 .928.346c.161.354.007.771-.345.933a9.037 9.037 0 0 0-2.178 1.409.698.698 0 0 1-.46.172m12.836.001a.693.693 0 0 1-.458-.172 9.037 9.037 0 0 0-2.179-1.409.705.705 0 0 1-.345-.932.7.7 0 0 1 .928-.348c.91.417 1.755.965 2.513 1.625.292.256.323.7.07.993a.7.7 0 0 1-.529.243m-15.823 4.666a.705.705 0 0 1-.673-.902c.282-.964.7-1.885 1.244-2.732a.697.697 0 0 1 .967-.21c.326.21.42.645.21.972a9.116 9.116 0 0 0-1.076 2.366.703.703 0 0 1-.672.506m18.81.002a.7.7 0 0 1-.67-.505 9.152 9.152 0 0 0-1.078-2.368.706.706 0 0 1 .21-.972.698.698 0 0 1 .967.21 10.57 10.57 0 0 1 1.244 2.733.705.705 0 0 1-.673.902m-18.811 5.547a.702.702 0 0 1-.672-.507c-.28-.96-.422-1.96-.422-2.97 0-.389.314-.704.7-.704a.7.7 0 0 1 .7.703c0 .878.123 1.743.366 2.577a.704.704 0 0 1-.672.901m18.81 0a.705.705 0 0 1-.672-.9c.244-.833.368-1.7.368-2.577a.7.7 0 1 1 1.4 0c0 1.01-.142 2.01-.423 2.972a.7.7 0 0 1-.672.505m-15.823 4.667a.693.693 0 0 1-.46-.172 10.624 10.624 0 0 1-1.957-2.27.705.705 0 0 1 .21-.97.697.697 0 0 1 .968.21 9.09 9.09 0 0 0 1.697 1.966c.292.256.324.7.07.993a.698.698 0 0 1-.528.243m12.835 0a.705.705 0 0 1-.459-1.234 9.121 9.121 0 0 0 1.698-1.967.698.698 0 0 1 .967-.212c.326.21.42.646.21.972a10.56 10.56 0 0 1-1.957 2.27.698.698 0 0 1-.459.171M150.893 435a.7.7 0 0 1-.691-.604.702.702 0 0 1 .593-.796 8.961 8.961 0 0 0 2.485-.731.7.7 0 0 1 .928.346c.16.355.006.771-.345.933-.911.419-1.877.702-2.87.845a.631.631 0 0 1-.1.007m-2.788 0a.631.631 0 0 1-.099-.007 10.436 10.436 0 0 1-2.87-.845.705.705 0 0 1-.345-.933.7.7 0 0 1 .928-.346c.79.362 1.625.61 2.485.731a.704.704 0 0 1-.099 1.4" fill="#7547D8"/><path d="M115.897 357.505a.631.631 0 0 1-.1-.007 9.222 9.222 0 0 0-2.592 0 .703.703 0 0 1-.198-1.392 10.544 10.544 0 0 1 2.988 0 .7.7 0 0 1 .593.795.7.7 0 0 1-.69.604m-7.814 2.306a.706.706 0 0 1-.459-1.236 10.48 10.48 0 0 1 2.514-1.624.699.699 0 0 1 .928.346c.16.354.005.771-.347.933a9.044 9.044 0 0 0-2.177 1.409.698.698 0 0 1-.459.172m12.834 0a.693.693 0 0 1-.457-.171 9.037 9.037 0 0 0-2.179-1.41.704.704 0 0 1 .583-1.28c.909.42 1.754.966 2.512 1.626a.706.706 0 0 1-.459 1.236m-15.823 4.665a.703.703 0 0 1-.672-.9c.283-.966.701-1.886 1.243-2.733a.699.699 0 0 1 .969-.21c.325.21.418.645.209.972a9.162 9.162 0 0 0-1.077 2.366.702.702 0 0 1-.672.505m18.811.003a.702.702 0 0 1-.672-.506 9.147 9.147 0 0 0-1.075-2.367.704.704 0 0 1 .209-.972.698.698 0 0 1 .967.212c.544.846.962 1.767 1.243 2.73a.703.703 0 0 1-.672.903m-18.812 5.546a.699.699 0 0 1-.67-.507c-.282-.96-.424-1.96-.424-2.97 0-.388.314-.704.7-.704.387 0 .701.316.701.703 0 .878.123 1.745.366 2.577a.703.703 0 0 1-.673.901m18.812 0a.704.704 0 0 1-.672-.9c.243-.833.366-1.7.366-2.577a.701.701 0 1 1 1.4 0c0 1.01-.142 2.01-.422 2.972a.7.7 0 0 1-.672.505m-15.823 4.667a.693.693 0 0 1-.459-.172 10.55 10.55 0 0 1-1.958-2.27.704.704 0 0 1 .21-.97.696.696 0 0 1 .967.21 9.132 9.132 0 0 0 1.699 1.966.707.707 0 0 1-.46 1.236m12.836.001a.704.704 0 0 1-.459-1.236 9.162 9.162 0 0 0 1.698-1.966.698.698 0 0 1 .968-.212c.325.21.42.646.209.972a10.562 10.562 0 0 1-1.958 2.27.7.7 0 0 1-.458.172M115.895 377a.704.704 0 0 1-.098-1.401 9.017 9.017 0 0 0 2.484-.73.698.698 0 0 1 .928.345c.16.355.006.771-.345.933a10.45 10.45 0 0 1-2.87.845.646.646 0 0 1-.1.008m-2.787 0a.633.633 0 0 1-.1-.008 10.423 10.423 0 0 1-2.87-.845.705.705 0 0 1-.345-.933.7.7 0 0 1 .928-.346c.788.362 1.625.609 2.485.73a.706.706 0 0 1-.098 1.402M659.126 34.108c.357-.222.818-.09 1.024.294l.75 1.391a.86.86 0 0 1 0 .805.743.743 0 0 1-.65.402h-1.5c-.414 0-.75-.36-.75-.804 0-.445.336-.803.75-.803h.202l-.102-.188c-.206-.384-.083-.875.276-1.097zm-20.275.294c.207-.384.665-.516 1.025-.294.358.222.48.713.274 1.097l-.1.188h.2c.414 0 .75.358.75.803 0 .444-.336.804-.75.804h-1.5a.743.743 0 0 1-.65-.402.853.853 0 0 1 0-.805zM656.29 36c.391 0 .71.224.71.5 0 .275-.319.5-.71.5h-2.516c-.391 0-.709-.225-.709-.5 0-.276.318-.5.71-.5h2.515zm-5.032 0c.392 0 .708.224.708.5 0 .275-.316.5-.708.5h-2.518c-.39 0-.707-.225-.707-.5 0-.276.317-.5.707-.5h2.518zm-5.033 0c.391 0 .707.224.707.5 0 .275-.316.5-.707.5h-2.516c-.392 0-.709-.225-.709-.5 0-.276.317-.5.709-.5h2.516zm11.37-6.16l1.306 2.125c.203.33.084.751-.269.942a.76.76 0 0 1-.365.093.744.744 0 0 1-.638-.345l-1.307-2.125a.666.666 0 0 1 .27-.942.76.76 0 0 1 1.004.253zm-15.186-.252a.67.67 0 0 1 .27.944l-1.306 2.124a.75.75 0 0 1-.639.344.761.761 0 0 1-.366-.093c-.353-.19-.472-.612-.27-.942l1.306-2.124a.763.763 0 0 1 1.005-.253zm2.612-4.248c.352.19.472.613.268.943l-1.306 2.124a.747.747 0 0 1-.636.346.776.776 0 0 1-.367-.093.67.67 0 0 1-.27-.943l1.306-2.123a.761.761 0 0 1 1.005-.254zm9.962.252l1.307 2.125a.669.669 0 0 1-.269.943.769.769 0 0 1-.368.092.744.744 0 0 1-.637-.346l-1.306-2.124a.67.67 0 0 1 .269-.942.762.762 0 0 1 1.004.252zm-2.61-4.248l1.305 2.124c.203.331.082.753-.27.944a.756.756 0 0 1-.366.093.746.746 0 0 1-.638-.346l-1.305-2.124c-.204-.33-.083-.752.269-.942.351-.191.801-.078 1.005.251zm-4.741-.251c.351.19.472.612.27.942l-1.306 2.124a.744.744 0 0 1-.637.345.77.77 0 0 1-.368-.092c-.352-.191-.472-.613-.268-.943l1.306-2.124c.201-.33.652-.443 1.003-.252zM649.499 17c.269 0 .515.153.65.402l.75 1.391c.208.386.084.877-.274 1.099-.36.222-.818.09-1.025-.294l-.101-.186-.1.186a.743.743 0 0 1-.65.402.702.702 0 0 1-.375-.108c-.358-.222-.48-.713-.274-1.099l.75-1.39a.743.743 0 0 1 .649-.403z" fill="#F4B42E"/><path d="M608.196 13.896a.693.693 0 0 1 .589-.785 10.577 10.577 0 0 1 2.957 0 .694.694 0 0 1-.196 1.373 9.126 9.126 0 0 0-2.567 0 .694.694 0 0 1-.783-.589m7.968 2.698a9.032 9.032 0 0 0-2.157-1.389.691.691 0 0 1-.342-.918c.16-.348.57-.5.919-.342.9.411 1.736.95 2.487 1.602a.692.692 0 1 1-.907 1.047m-12.78-.068a.694.694 0 0 1 .07-.978c.75-.651 1.587-1.19 2.489-1.602a.694.694 0 0 1 .577 1.26 9.032 9.032 0 0 0-2.157 1.389.693.693 0 0 1-.978-.069m15.526 4.338a8.94 8.94 0 0 0-1.066-2.33.693.693 0 0 1 1.165-.752c.538.836.953 1.741 1.233 2.693a.694.694 0 0 1-1.332.39m-18.155.473a.695.695 0 0 1-.47-.86c.279-.952.693-1.858 1.23-2.694a.693.693 0 0 1 1.166.75 9.01 9.01 0 0 0-1.067 2.333.692.692 0 0 1-.859.47m18.628 5.467a.693.693 0 0 1-.471-.86c.24-.82.362-1.675.362-2.54a.693.693 0 0 1 1.386 0c0 .997-.141 1.982-.418 2.93a.696.696 0 0 1-.86.47m-19.097-.47a10.4 10.4 0 0 1-.419-2.93.693.693 0 0 1 1.387 0c0 .865.12 1.72.361 2.54a.691.691 0 1 1-1.329.39m15.81 4.859a.694.694 0 0 1 .07-.979 9.068 9.068 0 0 0 1.68-1.938.692.692 0 1 1 1.165.75 10.405 10.405 0 0 1-1.939 2.235.691.691 0 0 1-.977-.069m-12.64.07a10.452 10.452 0 0 1-1.938-2.236.693.693 0 0 1 1.165-.75 9.048 9.048 0 0 0 1.682 1.938.695.695 0 0 1-.455 1.218.688.688 0 0 1-.453-.17m5.329 2.435c-.984-.14-1.939-.42-2.84-.832a.693.693 0 0 1 .575-1.261c.783.356 1.609.6 2.46.72.38.054.643.406.59.785a.696.696 0 0 1-.785.588m2.174-.588a.694.694 0 0 1 .589-.784 8.994 8.994 0 0 0 2.46-.721.693.693 0 0 1 .577 1.26c-.903.413-1.858.693-2.842.833a.693.693 0 0 1-.784-.588" fill="#7547D8"/><path d="M651.412 58.901a.703.703 0 0 1 .593-.796 10.64 10.64 0 0 1 2.988 0 .704.704 0 0 1-.198 1.394 9.222 9.222 0 0 0-2.593 0 .702.702 0 0 1-.79-.597m8.046 2.736a9.112 9.112 0 0 0-2.178-1.408.705.705 0 0 1-.345-.932.7.7 0 0 1 .928-.348c.91.417 1.754.965 2.512 1.625a.705.705 0 0 1 .07.993.694.694 0 0 1-.987.07m-12.906-.069a.707.707 0 0 1 .07-.992 10.458 10.458 0 0 1 2.514-1.626.7.7 0 0 1 .928.347c.16.353.007.77-.346.932a9.135 9.135 0 0 0-2.178 1.409.699.699 0 0 1-.988-.07m15.681 4.403a9.08 9.08 0 0 0-1.077-2.366.707.707 0 0 1 .21-.973.698.698 0 0 1 .966.21c.544.848.964 1.768 1.246 2.733a.705.705 0 0 1-.673.902.703.703 0 0 1-.672-.506m-18.336.48a.705.705 0 0 1-.475-.874c.282-.965.7-1.884 1.243-2.732a.697.697 0 0 1 .967-.21c.326.21.42.644.21.971a9.163 9.163 0 0 0-1.076 2.367.7.7 0 0 1-.87.478m18.814 5.546a.703.703 0 0 1-.476-.873c.243-.832.366-1.7.366-2.576a.701.701 0 1 1 1.4 0c0 1.01-.142 2.01-.422 2.971a.703.703 0 0 1-.868.478m-19.287-.476a10.599 10.599 0 0 1-.423-2.973.701.701 0 1 1 1.401 0c0 .877.122 1.744.365 2.577a.702.702 0 0 1-.672.901.7.7 0 0 1-.67-.505m15.965 4.93a.707.707 0 0 1 .07-.994 9.189 9.189 0 0 0 1.698-1.967.697.697 0 0 1 .968-.21c.325.21.42.645.209.972-.541.846-1.2 1.609-1.958 2.268a.691.691 0 0 1-.987-.07m-12.765.071a10.592 10.592 0 0 1-1.958-2.269.705.705 0 0 1 .21-.972.698.698 0 0 1 .967.21 9.17 9.17 0 0 0 1.699 1.969.706.706 0 0 1 .07.991.701.701 0 0 1-.988.071m5.382 2.47a10.367 10.367 0 0 1-2.869-.844.704.704 0 0 1 .582-1.28c.79.362 1.625.609 2.485.732a.703.703 0 1 1-.197 1.392m2.195-.596a.704.704 0 0 1 .594-.796 9.051 9.051 0 0 0 2.485-.731.699.699 0 0 1 .928.346c.16.354.005.771-.345.933-.912.419-1.877.702-2.87.844a.701.701 0 0 1-.792-.596" fill="#E76D83"/><path d="M587 21.456v114.09a3.454 3.454 0 0 1-3.453 3.454H410.454a3.454 3.454 0 0 1-3.454-3.455V21.456A3.455 3.455 0 0 1 410.454 18h173.093A3.455 3.455 0 0 1 587 21.456" fill="#2E3062"/><path d="M582 26.501v104a3.496 3.496 0 0 1-3.5 3.499H415.494c-.428 0-.837-.076-1.216-.222A3.48 3.48 0 0 1 412 130.5v-104A3.498 3.498 0 0 1 415.494 23H578.5c.467 0 .915.093 1.32.262a3.495 3.495 0 0 1 2.18 3.24" fill="#FFF9FF"/><g transform="translate(412 31)"><mask id="d" fill="#fff"><use xlink:href="#c"/></mask><path d="M13.217-3.413s25.88-3.053 25.75 4.767c-.132 7.82-25.826 3.775-25.826 3.775s27.9 4.24 25.74 18.934-29.516-11.02-29.516-11.02 17.974 20.069 14.94 25.747c-3.034 5.68-14.982-4.857-20.963-20.931 0 0 8.45 19.7 1.1 26.251-7.35 6.551-7.413-25.227-7.413-25.227L-3-.55l16.217-2.864z" fill="#5E10E1" mask="url(#d)"/></g><path stroke="#3700B1" stroke-width="1.003" stroke-linecap="round" stroke-linejoin="round" d="M415 36l32 17M431 67l-17-29"/><path d="M582 26.628V32H412v-5.372c0-2.004 1.564-3.628 3.495-3.628h163.009c1.932 0 3.496 1.624 3.496 3.628" fill="#DADAEF"/><path d="M435 28c0 .552.514 1 1.146 1h114.708c.632 0 1.146-.448 1.146-1s-.514-1-1.146-1H436.146c-.632 0-1.146.448-1.146 1" fill="#FFF9FF"/><path d="M421 28v.728c0 .21-.25.34-.45.235l-.7-.364-.698-.364a.257.257 0 0 1 0-.47l.698-.364.7-.364c.2-.105.45.025.45.235V28zM425 28v.728c0 .21.251.34.451.235l.7-.364.698-.364a.258.258 0 0 0 0-.47l-.698-.364-.7-.364c-.2-.105-.451.025-.451.235V28z" fill="#2E3062"/><path d="M568 27.5a1.5 1.5 0 1 1-3 0 1.5 1.5 0 0 1 3 0" fill="#6B5EFD"/><path d="M562 27.5a1.5 1.5 0 1 1-3 0 1.5 1.5 0 0 1 3 0" fill="#FDA803"/><path d="M574 27.5a1.5 1.5 0 1 1-3 0 1.5 1.5 0 0 1 3 0" fill="#FF495A"/><path d="M546 133.983h-84.86L451 134c.686-3.12 2.138-6.286 3.457-8.727.346-.638.68-1.226.988-1.75.878-1.48 1.552-2.451 1.655-2.599a.053.053 0 0 0 .012-.02c1.628-2.419 5.354-5.262 9.743-8.127.536-.348 1.08-.699 1.634-1.05 1.87-1.182 17.12-6.43 19.06-7.585L503.667 103c.1.06 15.51 5.326 15.61 5.382.663.383 1.336.77 1.995 1.16 5.711 3.334 11.343 6.85 14.585 9.875.474.44.899.865 1.256 1.285.29.337.547.659.753.978l.004.003c.125.05 2.916 3.348 8.13 12.3" fill="#FEB300"/><path d="M496.455 120c-7.07 0-12.054-6.38-12.263-6.65a.938.938 0 0 1 .123-1.27.822.822 0 0 1 1.201.13c.064.084 4.705 5.984 10.939 5.984 6.16 0 9.916-6.678 9.954-6.745.238-.43.76-.577 1.165-.327a.932.932 0 0 1 .31 1.233c-.17.312-4.274 7.645-11.43 7.645M466 133.78l-.796-.45c-.366-.207-.856-.115-1.093.205a.631.631 0 0 0-.111.246h2zM468.998 117.032a.914.914 0 0 1-.1.49.86.86 0 0 1-.703.476c-.476.036-.887-.34-.92-.84l-.275-4.126c.544-.34 1.096-.688 1.662-1.032l.336 5.032zM506.856 125a.83.83 0 0 1-.471-.148.92.92 0 0 1-.244-1.24l3.286-5.21a.834.834 0 0 1 1.187-.253.92.92 0 0 1 .245 1.24l-3.287 5.208a.847.847 0 0 1-.716.403M484.115 128a.884.884 0 0 1-.789-.48l-3.227-6.231a.88.88 0 0 1 .383-1.19.888.888 0 0 1 1.194.38l3.225 6.231a.883.883 0 0 1-.786 1.29M467.2 130.716a.767.767 0 0 1-.114-.872l3.12-6.298c.22-.438.778-.658 1.248-.49.471.167.676.659.46 1.098l-3.122 6.3c-.217.438-.775.658-1.245.49a.837.837 0 0 1-.348-.228M500.201 134c-.264 0-.524-.15-.676-.426l-3.4-6.162c-.237-.428-.127-.997.246-1.269.374-.272.867-.144 1.104.284l3.4 6.16c.237.43.127.998-.246 1.27a.733.733 0 0 1-.428.143M457.599 129.861a.842.842 0 0 1-.462.139.855.855 0 0 1-.73-.413l-2.407-3.9c.35-.616.69-1.183 1.004-1.687l2.86 4.637a.9.9 0 0 1-.265 1.224M537 121.248l-1.46 2.353a.833.833 0 0 1-.704.399.775.775 0 0 1-.458-.146c-.386-.27-.495-.823-.24-1.235L535.76 120c.465.425.883.841 1.24 1.248M528.53 134a1 1 0 0 0 .166-.404l1.288-7.457c.09-.52-.214-1.02-.677-1.122-.465-.1-.915.238-1.004.759l-1.288 7.456c-.049.282.023.558.168.768h1.347zM518.756 134l.228-1.072c.09-.423-.214-.832-.682-.914-.467-.08-.92.195-1.011.618L517 134h1.756zM521.367 115.977a.757.757 0 0 1-.456-.027.856.856 0 0 1-.53-.63L519 109c.64.367 1.287.74 1.93 1.111l1.047 4.802c.106.477-.166.95-.61 1.064" fill="#DA9802"/><path d="M474.256 59.858s-9.1-3.112-8.192-10.05c.773-5.903 7.456-2.076 6.87-6.689-.588-4.614-1.895-8.809 3.858-9.962 5.031-1.01 5.116 2.57 11.722-2.623 7.806-6.132 13.801 8.068 20.768 8.495 10.275.629 11.572 6.66 12.583 11.483 1.01 4.824-3.96 10.488-3.96 10.488l-43.65-1.142z" fill="#21374D"/><path d="M476.54 69.589s-3.8-5.172-6.625-.895c-2.823 4.277 1.17 16.91 8.085 13.827l-1.46-12.932z" fill="#EA632E"/><path d="M476.379 79a.62.62 0 0 1-.598-.431c-1.137-3.852-5.34-5.413-5.383-5.428a.582.582 0 0 1-.357-.761.63.63 0 0 1 .799-.342c.196.07 4.826 1.777 6.137 6.214a.587.587 0 0 1-.43.725.616.616 0 0 1-.168.023" fill="#C63A00"/><path d="M472.564 77a.507.507 0 0 1-.306-.102c-.26-.193-.337-.592-.168-.892.027-.05.704-1.227 2.116-1.949.284-.147.617 0 .745.325.127.324 0 .706-.286.851a4.28 4.28 0 0 0-1.628 1.472.545.545 0 0 1-.473.295" fill="#C63A00"/><path d="M515.46 69.589s3.8-5.172 6.624-.895c2.825 4.277-1.169 16.91-8.084 13.827l1.46-12.932z" fill="#EA632E"/><path d="M515.622 79c.27 0 .52-.17.596-.431 1.138-3.852 5.34-5.413 5.383-5.428a.583.583 0 0 0 .359-.761c-.12-.303-.48-.456-.799-.342-.196.07-4.826 1.777-6.138 6.214-.092.313.101.638.43.725a.61.61 0 0 0 .169.023" fill="#C63A00"/><path d="M519.437 77c.104 0 .21-.032.304-.102.262-.193.337-.592.17-.892-.029-.05-.705-1.227-2.116-1.949-.284-.147-.618 0-.745.325-.129.324 0 .706.284.851a4.28 4.28 0 0 1 1.628 1.472.548.548 0 0 0 .475.295" fill="#C63A00"/><path d="M505 93v12.291s-3.67 6.26-8.634 6.686c-4.96.433-9.366-5.389-9.366-5.389V93.864L505 93z" fill="#EA632E"/><path d="M505 93v5.262c-3.33 3.562-9.247 4.451-18 3.206v-7.635L505 93z" fill="#B74418"/><path d="M517.985 61.458c-.223 4.783-.677 10.765-1.587 15.543v.014c0 .013-.005.028-.009.046 0 .004-.005.004-.005.01a41.113 41.113 0 0 1-.75 3.252c-.165.58-.344 1.186-.543 1.806-2.905 9.152-9.636 22.398-26.548 16.337-7.122-2.549-10.834-9.938-12.721-17.95-.11-.478-.216-.95-.308-1.406a55.85 55.85 0 0 1-.178-.887l-.082-.428c-.015-.072-.023-.122-.028-.156-.004-.018-.004-.027-.004-.027-1.117-6.161-1.287-12.391-1.204-16.843a12.858 12.858 0 0 1 6.491-10.93c10.655-6.07 21.905-3.804 29.31-.947 5.143 1.98 8.432 7.048 8.166 12.566" fill="#DA6A3E"/><path d="M506 71.5c0 1.38-.672 2.5-1.5 2.5s-1.5-1.12-1.5-2.5.672-2.5 1.5-2.5 1.5 1.12 1.5 2.5M488 71.5c0 1.38-.673 2.5-1.5 2.5-.828 0-1.5-1.12-1.5-2.5s.672-2.5 1.5-2.5c.827 0 1.5 1.12 1.5 2.5M509.835 62.873s-5.923-3.027-10.835-1.385l.236 2.714s6.992.039 10.362 1.798c.403-1 .541-2.034.237-3.127M481.202 62.723s5.968-2.977 10.798-1.105l-.313 2.832s-6.944-.181-10.341 1.55c-.373-1.057-.48-2.143-.144-3.277" fill="#21374D"/><path d="M496.335 81c1.06 0 2.111-.37 2.276-.428.32-.118.472-.446.343-.734-.132-.287-.5-.425-.818-.308-.57.207-1.931.53-2.521.213-.115-.06-.27-.182-.31-.523-.227-1.964.374-8.545.38-8.612.029-.309-.228-.582-.574-.606-.347-.027-.65.205-.678.514-.024.275-.616 6.754-.376 8.82.088.778.545 1.175.912 1.373.402.215.885.291 1.366.291" fill="#C63A00"/><path d="M488 86c.453 2.112 1.955 6 7.016 6 5.072 0 6.496-3.553 6.984-6h-14z" fill="#FFF9FF"/><path d="M516.396 77.384l-2.601-.187s.63-4.088.921-6.752c.291-2.663.785-7.641-1.45-8.262-2.23-.617-.92-6.296-4.023-8.758-3.105-2.468-10.043-3.144-14.619-.28-4.576 2.86-9.733-.216-11.84.28-2.113.492-4.977 3.45-4.204 6.216.78 2.757-1.547 4.438-2.112 7.296-.565 2.859 1.24 10.553 1.24 10.553l-2.485.51c-1.119-6.24-1.287-12.542-1.205-17.046.086-4.598.627-11.475 4.562-13.742 10.659-6.143 27.281-2.893 34.685 0 5.141 2.008 4.982 8.854 4.72 14.435-.227 4.841-.68 10.895-1.589 15.737z" fill="#21374D"/><path d="M319 254.456v114.09a3.454 3.454 0 0 1-3.454 3.454H142.453a3.453 3.453 0 0 1-3.453-3.455V254.456a3.453 3.453 0 0 1 3.453-3.456h173.093a3.454 3.454 0 0 1 3.454 3.456" fill="#2E3062"/><path d="M314 259.5v104c0 1.934-1.565 3.5-3.499 3.5H147.492c-.427 0-.834-.076-1.212-.222A3.483 3.483 0 0 1 144 363.5v-104c0-1.934 1.564-3.5 3.492-3.5h163.01a3.498 3.498 0 0 1 3.499 3.5" fill="#FFF9FF"/><path d="M314 259.628V265H144v-5.372c0-2.004 1.565-3.628 3.496-3.628h163.008c1.93 0 3.496 1.624 3.496 3.628" fill="#DADAEF"/><path d="M167 260c0 .553.512 1 1.146 1h114.708c.632 0 1.146-.447 1.146-1 0-.552-.514-1-1.146-1H168.146c-.634 0-1.146.448-1.146 1" fill="#FFF9FF"/><path d="M154 260v.728c0 .21-.25.34-.451.235l-.7-.363-.698-.364a.259.259 0 0 1 0-.47l.699-.365.699-.364c.201-.105.451.026.451.235V260zM158 260v.728c0 .21.25.34.451.235l.699-.363.7-.364a.26.26 0 0 0 0-.47l-.7-.365-.699-.364c-.201-.105-.451.026-.451.235V260z" fill="#2E3062"/><path d="M301 260.5a1.5 1.5 0 1 1-3 0 1.5 1.5 0 0 1 3 0" fill="#6B5EFD"/><path d="M294 260.5a1.5 1.5 0 1 1-3 0 1.5 1.5 0 0 1 3 0" fill="#FDA803"/><path d="M307 260.5a1.5 1.5 0 1 1-3 0 1.5 1.5 0 0 1 3 0" fill="#FF495A"/><path d="M207.262 355c1.628-1.206 3.223-2.455 4.738-3.8-1.817-8.792-4.447-24.802-3.104-38.88 2.127-22.319-7.5-26.344-13.005-21.488-17.887 15.773 10.664 64.14 10.664 64.14l.707.028z" fill="#01A383"/><path d="M209.158 353c.282-.209.564-.419.842-.631-4.687-11.04-7.113-22.665-8.35-30.949-1.546-10.352-1.618-17.86-1.618-17.936 0-.269-.234-.487-.52-.484a.501.501 0 0 0-.512.492c0 .075.072 7.636 1.625 18.05 1.253 8.41 3.73 20.243 8.533 31.458" fill="#047B60"/><path d="M208 364a59.759 59.759 0 0 0-.146-4.206c-8.101-3.878-22.437-11.466-32.817-21.005-16.454-15.118-25.524-10.004-25.017-2.764 1.127 16.111 27.698 24.37 44.326 27.975H208z" fill="#01A383"/><path d="M208 364a67.947 67.947 0 0 0-.016-1.043c-11.63-3.288-22.408-8.68-29.8-12.901-9.24-5.274-15.327-9.907-15.389-9.954a.49.49 0 0 0-.694.097.503.503 0 0 0 .096.702c.06.047 6.19 4.712 15.484 10.02 7.505 4.287 18.48 9.77 30.319 13.079" fill="#047B60"/><path d="M214.332 364l1.668-.617s-20.31-26.466-29.254-55.26c-9.65-31.061-24.808-31.087-29.47-21.52-13.09 26.869 33.994 67.015 46.989 77.397h10.067z" fill="#00C09A"/><path d="M210.947 364H213c-13.252-12.81-23.694-28.167-30.33-39.235-7.878-13.14-12.24-23.23-12.284-23.332a.721.721 0 0 0-.946-.375.706.706 0 0 0-.382.934c.042.102 4.435 10.263 12.358 23.482 6.508 10.856 16.657 25.817 29.531 38.526" fill="#047B60"/><path d="M249.147 353.37c.295.212.601.422.918.63 0 0 .376-.003 1.04-.059 4.273-.359 20.494-2.88 26.148-20.546 5.35-16.72-3.002-34.837-6.2-40.849-.422-.79-1.593-.704-1.891.14-1.552 4.429-5.601 14.517-12.113 20.891-8.393 8.21-24.351 27.931-7.902 39.793" fill="#01A383"/><path d="M249 353.37c.294.212.599.422.914.63 0 0 .374-.003 1.036-.059 3.635-5.607 6.574-11.436 8.824-16.512 5.5-12.407 8.172-23.122 8.198-23.229a.974.974 0 1 0-1.893-.461c-.027.105-2.668 10.682-8.104 22.937-2.274 5.136-5.269 11.05-8.975 16.694" fill="#047B60"/><path d="M314 303v10.476c-4.133 6.821-8.3 16.334-13.127 28.81-8.674 22.427-30.774 24.505-35.284 24.694-.527.024-.812.02-.812.02a63.867 63.867 0 0 1-.924-1.856c-1.583-3.3-2.75-6.433-3.54-9.411a40.242 40.242 0 0 1-.677-2.97c-1.73-9.16.19-16.76 4.31-23.052a35.017 35.017 0 0 1 2.594-3.468c4.153-4.905 9.687-8.913 15.723-12.168C292.87 308.347 305.03 304.933 314 303" fill="#00C09A"/><path d="M264.931 367s.288.004.82-.019c8.86-24.02 34.58-48.735 34.901-49.04a1.128 1.128 0 0 0-1.56-1.627c-.098.095-10.211 9.764-19.938 22.793-7.044 9.43-12.104 18.123-15.154 26.019.294.619.605 1.242.931 1.874" fill="#047B60"/><path d="M272 367c-1.224-4.853-2.724-8.555-2.724-8.555-3.773-.818-6.585 3.958-9.276 8.555h12z" fill="#FFC792"/><path d="M269.836 367c.305-4.577.22-7.59-.56-8.555-1.08-1.337-2.842-2.764-4.999-4.217-3.297-2.222-7.53-4.511-11.702-6.67-5.68-2.937-11.244-5.629-14.2-7.558-3.162 1.352-5.678 2.091-8.391 2.076-.071 0-.152 0-.225-.008-.08.008-.161.008-.234.008-2.711.015-5.227-.724-8.387-2.076-3.184 2.08-9.54 5.124-15.801 8.405-2.639 1.39-5.266 2.816-7.628 4.232a67.62 67.62 0 0 0-2.839 1.795c-2.26 1.505-4.092 2.976-5.189 4.34-.766.946-.823 3.838-.48 8.228h80.635z" fill="#00BACB"/><path d="M248.352 367c3.188-3.128 4.463-5.696 4.577-5.933.182-.38.003-.828-.4-1-.406-.171-.881-.003-1.063.377-.029.062-1.53 3.076-5.466 6.556h2.352z" fill="#11757E"/><path d="M252 347.553c-3.829 8.61-12.82 20.286-25.056 18.202-11.85-2.02-17.888-10.962-21.944-17.356 6.23-3.28 12.554-6.32 15.722-8.399 3.144 1.348 5.649 2.088 8.344 2.075.074 0 .154 0 .231-.007.074.007.156.007.23.007 2.695.013 5.7-.727 8.848-2.075 2.94 1.927 8.099 4.403 13.747 7.338" fill="#FFC792"/><path d="M229.587 341.495v.01c-.056 0-.117 0-.173-.005.056 0 .117-.005.173-.005" fill="#2E3062"/><path d="M243 269.5c0 .932-.103 1.842-.295 2.713A12.491 12.491 0 0 1 230.499 282c-3.96 0-7.492-1.842-9.783-4.718A12.448 12.448 0 0 1 218 269.5c0-6.903 5.596-12.499 12.5-12.499 6.903 0 12.5 5.596 12.5 12.5" fill="#FA3B2F"/><path d="M242 272.79a13.057 13.057 0 0 1-1.92 4.565l-.617.645h-19.096a13.024 13.024 0 0 1-2.367-5.152c2.064-1.092 6.272-2.848 11.993-2.848 5.622 0 9.857 1.697 12.007 2.79" fill="#424548"/><path d="M209.54 305.427s-3.8-4.85-6.625-.839c-2.824 4.01 1.17 15.853 8.085 12.963l-1.46-12.124z" fill="#FFC792"/><path d="M209.468 314c-.233 0-.446-.17-.513-.43-.975-3.853-4.576-5.414-4.612-5.429-.274-.116-.413-.456-.308-.76.103-.303.41-.458.684-.343.169.07 4.138 1.778 5.261 6.212.08.314-.086.64-.368.727a.482.482 0 0 1-.144.023" fill="#E7A05E"/><path d="M205.563 312a.506.506 0 0 1-.304-.103c-.262-.193-.338-.593-.168-.891.027-.05.702-1.226 2.115-1.95.283-.145.617 0 .745.326.127.325 0 .706-.285.85a4.281 4.281 0 0 0-1.628 1.472.548.548 0 0 1-.475.296" fill="#E7A05E"/><path d="M247.462 305.427s3.798-4.85 6.622-.839c2.825 4.01-1.168 15.853-8.084 12.963l1.462-12.124z" fill="#FFC792"/><path d="M248.532 314c.232 0 .447-.17.512-.43.976-3.853 4.577-5.414 4.614-5.429.273-.116.411-.456.308-.76-.104-.303-.412-.458-.686-.343-.168.07-4.136 1.778-5.26 6.212-.08.314.085.64.368.727a.482.482 0 0 0 .144.023" fill="#E7A05E"/><path d="M251.436 312c.105 0 .21-.033.305-.103.262-.193.338-.593.17-.891-.03-.05-.705-1.226-2.116-1.95-.284-.145-.618 0-.746.326-.127.325 0 .706.285.85a4.28 4.28 0 0 1 1.628 1.472.548.548 0 0 0 .474.296" fill="#E7A05E"/><path d="M238 328l.375 12s-4.046 5.576-9.01 5.978c-4.959.41-9.365-5.105-9.365-5.105v-12.054l18-.819z" fill="#FFC792"/><path d="M238 328v5.088c-3.33 3.445-9.244 4.665-17.999 3.46l-.001-7.742 18-.806z" fill="#DDA269"/><path d="M250.986 296.884c-.222 4.605-.666 10.365-1.553 14.971a37.897 37.897 0 0 1-.75 3.197c-2.52 8.732-8.824 23.707-26.47 17.47-7.796-2.753-11.408-11.344-13.017-20.082-1.093-5.935-1.259-11.93-1.179-16.214.086-4.375 2.498-8.372 6.343-10.528 10.417-5.846 21.408-3.666 28.645-.912 5.023 1.908 8.236 6.789 7.98 12.098" fill="#FFC99A"/><path d="M221 305.5c0 1.381-.672 2.5-1.5 2.5s-1.5-1.119-1.5-2.5c0-1.38.672-2.5 1.5-2.5s1.5 1.12 1.5 2.5M239 305.5c0 1.381-.672 2.5-1.5 2.5s-1.5-1.119-1.5-2.5c0-1.38.672-2.5 1.5-2.5s1.5 1.12 1.5 2.5M216.425 298.871c1.251-.32 3.776-.864 6.442-.871.701-.002 1.24.56 1.115 1.184l-.004.016c-.098.496-.59.849-1.15.824-1.815-.075-6.575.154-8.822.976-.047-.353.185-.738.511-1.082.497-.518 1.177-.862 1.908-1.047M240.575 298.871c-1.252-.32-3.777-.864-6.442-.871-.701-.002-1.238.56-1.115 1.184l.004.016c.098.496.592.847 1.15.824 1.814-.076 6.574.154 8.822.976.046-.353-.186-.738-.512-1.082-.497-.518-1.176-.862-1.907-1.047" fill="#424548"/><path d="M229.336 316c-.481 0-.965-.077-1.366-.292-.367-.196-.824-.595-.913-1.371-.24-2.068.351-8.546.377-8.822.028-.308.33-.539.677-.513.346.025.604.297.575.606-.006.066-.607 6.65-.38 8.613.04.34.195.46.309.522.59.317 1.953-.007 2.52-.212.322-.119.689.022.818.307.131.288-.022.616-.343.733-.163.06-1.214.429-2.274.429" fill="#E7A05E"/><path d="M222 320c.42 2.113 1.815 6 6.514 6 4.712 0 6.032-3.553 6.486-6h-13z" fill="#FFF9FF"/><path d="M228.946 329c-1.393 0-2.622-.817-2.674-.853a.65.65 0 0 1-.186-.854.546.546 0 0 1 .784-.201c.01.007 1.014.667 2.076.667 1.15 0 2.18-.663 2.19-.67.27-.176.62-.082.782.211.162.292.076.673-.193.85-.053.036-1.304.85-2.78.85" fill="#F29D4F"/><path d="M252.776 295.391c-.183.517-.69.845-1.37 1.04.05 1.244-.08 2.745-.206 4.178-.704 8.157-2.778 9.592-3.248 7.576-.31-1.34-.291-9.022-.144-11.532a27.32 27.32 0 0 1-3.014-.372l-1.909-7.922-.666 7.822c-2.863.986-9.546-.595-9.546-.595l-2.24-7.804-1.389 7.509c-4.291 2.078-9.661.691-9.661.691l-1.233-8.098-2.849 8.098s-2.65.942-5.12 1.305c-.008 2.532-.165 9.407-1.446 9.01-1.357-.42-2.083-5.887-1.908-9.15-.475-.223-.77-.59-.79-1.165-.057-1.896-.251-7.773 1.42-11.743 2.272-5.403 5.065-8.668 9.236-10.567 9.792-4.46 23.7-2.558 27.703.077 10.759 7.085 8.38 21.642 8.38 21.642" fill="#FA3B2F"/><path d="M197 367c-.764-5.47-1.519-9.606-2.13-12.568-2.218 1.557-4.124 2.646-5.202 4.057-.75.98-.808 3.97-.47 8.511H197zM269.832 367c.313-4.659.225-7.726-.574-8.708-1.106-1.36-2.913-2.813-5.123-4.292-.65 3.016-1.466 7.58-2.135 13h7.832z" fill="#FFC792"/><path fill="#FFC792" d="M192 367l-2.329-8-2.671 8z"/><path d="M365 195.948a2.926 2.926 0 0 1-2.928 2.922h-65.918l3.899 19.13h-51.106l3.897-19.13h-65.916a2.925 2.925 0 0 1-2.928-2.922V76.922c0-.346.06-.677.17-.985l.06-.152A2.929 2.929 0 0 1 186.928 74h175.144c.173 0 .343.015.508.044l.163.033c.108.026.213.057.316.094l.152.059c.15.063.294.139.43.225l.134.09c.523.374.918.917 1.105 1.548l.042.16c.051.215.078.439.078.67v119.025z" fill="#000"/><path fill="#FFF0CA" d="M184 175h181V79H184z"/><path fill="#FFF" d="M193 152h103V83H193z"/><path stroke="#9A9DAB" stroke-width="3" stroke-linejoin="round" d="M197 149h96V87h-96z"/><g transform="translate(198 89)"><g transform="translate(2.022 23.152)"><mask id="f" fill="#fff"><use xlink:href="#e"/></mask><path d="M39.623 28.848H.946a.784.784 0 0 1-.784-.783V.975c0-.432.351-.783.784-.783h38.677c.432 0 .783.35.783.784v27.089c0 .432-.35.783-.783.783" fill="#FFF" mask="url(#f)"/></g><path stroke="#E5E6E8" d="M.674 33.219h90.978M.674 41.941h90.978"/><path d="M11.457 28.854a2.354 2.354 0 0 1-2.36 2.349 2.353 2.353 0 0 1-2.358-2.349 2.353 2.353 0 0 1 2.359-2.348 2.353 2.353 0 0 1 2.359 2.348M11.457 37.576a2.354 2.354 0 0 1-2.36 2.348 2.353 2.353 0 0 1-2.358-2.348 2.353 2.353 0 0 1 2.359-2.348 2.353 2.353 0 0 1 2.359 2.348M11.457 46.297a2.353 2.353 0 0 1-2.36 2.349 2.353 2.353 0 0 1-2.358-2.349 2.353 2.353 0 0 1 2.359-2.348 2.353 2.353 0 0 1 2.359 2.348" fill="#D5E8F9"/><path stroke="#F1D5CE" stroke-width="2" stroke-linecap="round" stroke-linejoin="round" d="M12.804 28.683H34.37"/><path stroke="#F1D5CE" stroke-width=".98" stroke-linecap="round" stroke-linejoin="round" d="M12.804 29.19h3.37"/><path stroke="#F1D5CE" stroke-width="2" stroke-linecap="round" stroke-linejoin="round" d="M12.804 36.57H34.37M12.804 46.126H34.37"/><rect fill="#D5E8F9" x="6.739" y="6.709" width="80.196" height="16.772" rx="4"/><path d="M20.665 15.095c0 2.779-2.263 5.032-5.054 5.032-2.792 0-5.054-2.253-5.054-5.032 0-2.78 2.262-5.032 5.054-5.032 2.79 0 5.054 2.253 5.054 5.032" fill="#FFF"/><path fill="#F5F5F5" d="M1 0h92v4.696H1z"/><g fill-rule="nonzero"><path d="M4.886 1.915h.104l.266.593c.023.052.049.124.049.124h.003s.027-.072.05-.124l.266-.593h.102l.081 1.01h-.099l-.056-.707c-.005-.055-.003-.14-.003-.14h-.004s-.03.089-.053.14l-.238.518h-.093l-.238-.518a2.107 2.107 0 0 1-.055-.143h-.003s.002.088-.003.143l-.056.706h-.1l.08-1.009zm1.971.688H6.45l-.115.321h-.105L6.6 1.915h.106l.372 1.01h-.105l-.117-.322zm-.204-.583s-.022.083-.04.13l-.135.367h.35l-.134-.367a1.846 1.846 0 0 1-.038-.13h-.003zm1.043-.016h-.364v-.089h.827v.09h-.363v.92h-.1v-.92zm.909-.089h.1v.46h.587v-.46h.1v1.01h-.1v-.461h-.588v.46h-.1V1.915zm1.353.821s.105.11.266.11c.11 0 .201-.065.201-.174 0-.254-.506-.19-.506-.503 0-.145.129-.271.316-.271.176 0 .27.097.27.097l-.048.084s-.09-.087-.222-.087c-.13 0-.213.085-.213.174 0 .24.506.17.506.502 0 .151-.117.273-.307.273-.208 0-.322-.129-.322-.129l.06-.076zm1.08-.82h.35c.183 0 .314.117.314.304 0 .188-.131.308-.313.308h-.251v.396h-.1V1.915zm.338.523c.135 0 .223-.082.223-.22 0-.136-.087-.215-.222-.215h-.239v.435h.238zm1.273.164h-.408l-.116.321h-.105l.372-1.009h.107l.372 1.01h-.105l-.117-.322zm-.205-.583s-.021.083-.04.13l-.134.367h.349l-.133-.367c-.017-.047-.04-.13-.04-.13h-.002zm1.315-.122c.242 0 .365.13.365.13l-.054.074s-.118-.112-.308-.112c-.238 0-.408.184-.408.422 0 .241.17.438.41.438.205 0 .329-.135.329-.135l.057.07s-.138.157-.387.157a.509.509 0 0 1-.513-.528c0-.293.22-.516.509-.516zm.897.017h.571v.09h-.471v.367h.385v.088h-.385v.375h.497v.089h-.597V1.915z" fill="#21374D"/><path d="M1.817 2.133v.936c0 .136.11.245.246.245h.94l-1.186-1.18z" fill="#00945E"/><path d="M2.722 3.318h1.21c.171 0 .31-.137.31-.307V1.806l-1.52 1.512z" fill="#00A6CE"/><path d="M3.868 1.439L2.831 2.473l.37.37 1.04-1.037v-.213a.22.22 0 0 0-.373-.154z" fill="#005CB9"/><path d="M2.83 2.473l-.705-.702a.18.18 0 0 0-.308.128v.234l.678.675.336-.335z" fill="#3DAE2B"/><path d="M2.83 2.473l-.5.499a.203.203 0 0 0 .144.346h.746c.17 0 .254-.204.134-.323l-.523-.522z" fill="#93D500"/><path d="M2.495 2.808l.275.274a.135.135 0 0 0 .19 0l.241-.24-.37-.369-.336.335z" fill="#4C9C2E"/></g><path stroke="#FFF" stroke-width="2" stroke-linecap="round" stroke-linejoin="round" d="M24.709 14.759h53.913M24.709 12.076h53.913M24.709 17.443h8.761"/></g><path d="M345.435 158.48c-.577-5.564-5.078-9.9-10.646-10.258l-8.22-.527h-.814c-3.023-.001-5.475-2.46-5.475-5.493V117h-19.756v25.202c0 3.033-2.452 5.492-5.477 5.493h-.616l-8.222.527c-5.568.358-10.068 4.694-10.644 10.258-.31 2.992-.565 5.762-.565 6.735 0 .681 1.058 4.555 2.583 9.785h65.833c1.525-5.23 2.584-9.104 2.584-9.785 0-.973-.256-3.743-.565-6.735" fill="#ED8D5D"/><path d="M267 175h89s-5.089-13.668-9.714-21.242c-4.625-7.574-14.524-6.742-17.486-6.65-2.96.093-5.088-1.108-5.088-1.108l-24.61.739s-4.07.83-6.66.738c-2.59-.091-10.548-.091-15.635 6.28C271.718 160.132 267 175 267 175" fill="#E1E1E1"/><path d="M321 131.176v3.805a33.497 33.497 0 0 1-5.174 2.973 11.14 11.14 0 0 1-9.388.017c-1.67-.767-3.587-1.807-5.438-3.166V131c1.851 1.36 3.769 2.399 5.438 3.182a11.203 11.203 0 0 0 9.388-.016 32.416 32.416 0 0 0 5.174-2.99" fill="#0B334C"/><path d="M336.602 110.758c-1.1 2.734-5.324 5.96-8.067 4.96-.44 3.003-1.026 5.572-1.803 7.32-1.335 3.062-3.565 5.497-5.956 7.38-1.906 1.509-3.915 2.658-5.645 3.51a10.43 10.43 0 0 1-9.182.015c-1.335-.657-2.86-1.494-4.37-2.554-2.86-1.988-5.676-4.706-7.274-8.307-.778-1.762-1.366-4.347-1.82-7.365-2.742 1.016-6.98-2.21-8.081-4.96-1.129-2.793.19-5.975 2.919-7.125a5.32 5.32 0 0 1 4.092.015c-.03-.449-.044-.912-.059-1.36-.014-.284-.014-.553-.014-.822 0-10.696 8.55-19.45 19.14-19.465 10.867-.015 19.608 9.187 19.168 20.242-.015.479-.044.942-.058 1.405a5.283 5.283 0 0 1 4.077-.015c2.742 1.15 4.047 4.332 2.933 7.126" fill="#ED8D5D"/><path d="M305 118.5a4.5 4.5 0 1 1-9 0 4.5 4.5 0 0 1 9 0M326 118.5a4.5 4.5 0 1 1-9 0 4.5 4.5 0 0 1 9 0" fill="#E6794E"/><path d="M310.42 108c.327.793.39 1.696.363 2.54-.034.851-.165 1.664-.302 2.435-.131.778-.325 1.53-.301 2.087-.012.566.4 1.216.82 1.938a2.771 2.771 0 0 1-1.04-.473 2.34 2.34 0 0 1-.802-1.15c-.162-.504-.172-1.017-.149-1.466.027-.452.088-.857.16-1.27.147-.819.362-1.582.579-2.33l.672-2.311zM306.197 103.601c-.477-.02-1.022-.053-1.514-.062-.5-.004-.991.002-1.465.076-.48.064-.92.217-1.354.416-.441.2-.806.516-1.209.85l-.037.031a.399.399 0 0 1-.52-.017.304.304 0 0 1-.07-.35c.235-.512.556-1.041 1.067-1.429a4.455 4.455 0 0 1 1.726-.894 5.926 5.926 0 0 1 1.942-.21 5.213 5.213 0 0 1 1.866.446c.333.152.466.515.298.815a.693.693 0 0 1-.637.332l-.093-.004zM315.372 102.458a5.212 5.212 0 0 1 1.865-.447 5.919 5.919 0 0 1 1.942.21c.64.166 1.242.49 1.725.894.51.39.833.919 1.068 1.43.078.168-.012.36-.199.43a.402.402 0 0 1-.39-.063l-.038-.031c-.402-.335-.768-.651-1.21-.85a4.738 4.738 0 0 0-1.352-.416c-.476-.074-.966-.08-1.466-.076-.491.01-1.037.04-1.513.062l-.094.005c-.373.016-.69-.242-.71-.576-.013-.247.141-.467.372-.572M319 111c0 1.658-.672 3-1.5 3s-1.5-1.342-1.5-3c0-1.657.672-3 1.5-3s1.5 1.343 1.5 3M305 111c0 1.658-.672 3-1.5 3s-1.5-1.342-1.5-3c0-1.657.672-3 1.5-3s1.5 1.343 1.5 3M315 120.986c.33-.227.673-.35.999-.518.342-.135.648-.293 1.001-.468-.172.394-.536.617-.876.79-.36.139-.73.25-1.124.196M310 119.218c1.48.16 2.927.208 4.181-.277.63-.222 1.177-.622 1.63-1.136.485-.499.806-1.144 1.189-1.805-.057.748-.231 1.534-.688 2.194-.188.358-.5.622-.788.909-.33.237-.672.457-1.051.6a4.866 4.866 0 0 1-2.329.254c-.763-.1-1.503-.33-2.144-.74" fill="#0B334C"/><path d="M331.673 90.036c-10.9-13.06-30.733-10.498-39.547-1.581-1.694 1.712-3.175 3.97-4.418 6.643-1.328 2.857-.76 6.266 1.467 8.499l.036.036a5.526 5.526 0 0 1 2.563.385c-.004-.052-.004-.106-.008-.159 1.276.808 2.525 2.176 2.655 4.479.003.045.01.076.015.118l.615.544c1.784-1.46 6.716-14.48 6.716-14.48s12.045 14.377 24.218 14.197c2.476-2.542 4.41-5.632 6.514-8.52l.03-.04c1.919-2.634 1.971-6.214.094-8.88a19.167 19.167 0 0 0-.95-1.24" fill="#0B334C"/><path d="M311.747 93.61c12.279.801 15.786 17.81 15.786 17.81s4.943 15.884-15.786 23.586c-5.755 0-11.18-3.003-14.01-8.046-2.495-4.447-3.863-8.962-4.167-14.097-.56-9.447 5.9-20.056 18.177-19.254m17.408 64.186c4.161-1.978 7.332-4.853 8.583-8.991 3.78-12.498 1.78-29.477.098-39.139l.062-.01s1.594-18.292-12.437-26.315c-14.032-8.022-39.225-1.444-42.893 18.132-3.12 16.658 5.187 33.425 7.732 38.052-.941.314-10.532 3.666-9.167 9.922 1.435 6.578 7.335 11.232 7.335 11.232s6.64 1 15.075 1.126c2.522 3.794 4.804 6.796 6.132 7.538 4.305 2.407 33.325-2.567 33.325-2.567-3.176-1.926-8.199-5.019-13.845-8.98" fill="#3C98D6"/><path d="M290 139s12.471.127 21-4M304 161.867s16.155 1.244 26-3.867M315 163s2.241 4.062 5 5M317 162s1.688 2.333 3 3" stroke="#0B334C" stroke-width=".668" stroke-linecap="round" stroke-linejoin="round"/><path d="M291 144.982s29.485 1.287 39.1-18.173c9.615-19.46-6.89-36.026-17.306-34.739" stroke="#0B334C" stroke-width=".668" stroke-linecap="round" stroke-linejoin="round"/><path stroke="#FFF" stroke-width="1.003" stroke-linecap="round" stroke-linejoin="round" d="M254 198.5h42M279 188.5a4.5 4.5 0 1 1-9 0 4.5 4.5 0 0 1 9 0z"/><g><path d="M322.828 462.049c-4.136-11.466-14.353-36.226-5.004-72.049 16.226 20.01 17.265 48.909 15.6 75" fill="#FFF"/><path d="M322.828 462.049c-4.136-11.466-14.353-36.226-5.004-72.049 16.226 20.01 17.265 48.909 15.6 75M318 390s3.539 45.365 10 74M317.676 390s-3.969 32.649 7.324 74M330 464s-4.843-57.163-12-74M331.995 464s.686-53.73-13.995-74" stroke="#C5C8EF" stroke-linejoin="round"/><path d="M315.17 468.25c-6.087-8.162-20.481-25.6-17.853-54.25 19.378 12.965 25.597 34.862 28.683 55" fill="#FFF"/><path d="M315.17 468.25c-6.087-8.162-20.481-25.6-17.853-54.25 19.378 12.965 25.597 34.862 28.683 55M297 414s6.855 34.106 21 54M320 469s-17.303-47.259-23-55M323 469s-10.24-42.553-26-55" stroke="#C5C8EF" stroke-linejoin="round"/><path d="M343.79 461.355c5.163-11.851 17.72-37.386 9.48-75.355-18.868 20.299-21.611 50.565-21.239 78" fill="#FFF"/><path d="M343.79 461.355c5.163-11.851 17.72-37.386 9.48-75.355-18.868 20.299-21.611 50.565-21.239 78M353 386s-6.382 47.927-15 78M352.857 386s2.337 34.261-11.857 77M336 463s8.376-59.666 17-77M334 463s2.266-56.353 19-77" stroke="#C5C8EF" stroke-linejoin="round"/><path d="M346.894 475.974C353.3 466.481 368.248 446.31 369 411c-18.973 14.28-27.003 40.59-32 65" fill="#FFF"/><path d="M346.894 475.974C353.3 466.481 368.248 446.31 369 411c-18.973 14.28-27.003 40.59-32 65M369 412s-9.619 40.929-24 64M342 476s20.962-56.052 27-65M339 476s14.123-51.108 30-65" stroke="#C5C8EF" stroke-linejoin="round"/><path d="M358 462v10.779c0 23.864-9.811 39.221-9.811 39.221H317.81S308 496.643 308 472.779V462h50z" fill="#E5EAF9"/><path d="M255.167 476.67c-2.452-8.32-8.786-26.449 1.588-49.67 11.8 16.918 10.15 35.447 6.76 53" fill="#FFF"/><path d="M255.167 476.67c-2.452-8.32-8.786-26.449 1.588-49.67 11.8 16.918 10.15 35.447 6.76 53M257.498 426s-4.218 22.232 1.502 52M259.388 478s2.428-39.562-2.388-52M260.863 479s6.802-36.369-3.863-52" stroke="#C5C8EF" stroke-linejoin="round"/><path d="M246.782 482c-4.916-4.465-16.334-13.744-17.782-34 14.205 5.243 20.732 19.155 25 32.451" fill="#FFF"/><path d="M246.782 482c-4.916-4.465-16.334-13.744-17.782-34 14.205 5.243 20.732 19.155 25 32.451M229 448s4.965 16.914 20 34M252 481s-17.035-24.418-23-33M253 480s-11.71-24.131-24-32" stroke="#C5C8EF" stroke-linejoin="round"/><path d="M252.355 476.687c-3.868-5.786-15.159-23.2-11.708-41.687 13.035 9.932 18.278 29.631 19.353 43" fill="#FFF"/><path d="M252.355 476.687c-3.868-5.786-15.159-23.2-11.708-41.687 13.035 9.932 18.278 29.631 19.353 43M240 435s5.048 27.882 14 42M256 478s-12.225-37.462-16-43M258 478s-7.172-33.634-18-43" stroke="#C5C8EF" stroke-linejoin="round"/><path d="M270.96 476.365c3.437-7.44 11.805-23.468 6.104-47.365-12.645 12.719-14.379 31.746-14.023 49" fill="#FFF"/><path d="M270.96 476.365c3.437-7.44 11.805-23.468 6.104-47.365-12.645 12.719-14.379 31.746-14.023 49M277 429s-5.724 28.098-10 49M276.93 429s1.361 21.821-7.93 49M265 478s2.48-32.775 12-49" stroke="#C5C8EF" stroke-linejoin="round"/><path d="M271.376 483.987C275.78 479.02 287.094 466.627 288 450c-13.044 7.47-18.564 21.23-22 34" fill="#FFF"/><path d="M271.376 483.987C275.78 479.02 287.094 466.627 288 450c-13.044 7.47-18.564 21.23-22 34M288 450s-8.047 21.527-18 34M268 484s11.863-25.817 20-34" stroke="#C5C8EF" stroke-linejoin="round"/><path d="M281 475v7.976c0 17.66-8.438 29.024-8.438 29.024h-26.125S238 500.636 238 482.976V475h43z" fill="#E5EAF9"/></g><g><g transform="translate(600 133.914)"><mask id="h" fill="#fff"><use xlink:href="#g"/></mask><path d="M31.117 28H3.887A3.898 3.898 0 0 1 0 24.114V3.973A3.898 3.898 0 0 1 3.887.086h27.23a3.897 3.897 0 0 1 3.886 3.887v20.14A3.897 3.897 0 0 1 31.117 28" fill="#1ABC9C" mask="url(#h)"/></g><path d="M615.391 144.878v7.211l6.161-3.606-6.16-3.605zm-.505 8.595a.502.502 0 0 1-.504-.505v-8.97a.503.503 0 1 1 .759-.435l7.665 4.485a.505.505 0 0 1 0 .871l-7.665 4.485a.5.5 0 0 1-.255.07zm3.001-13.014c-4.425 0-8.024 3.6-8.024 8.024 0 4.424 3.6 8.024 8.024 8.024 4.424 0 8.024-3.6 8.024-8.024 0-4.425-3.6-8.024-8.024-8.024zm0 17.057c-4.98 0-9.034-4.052-9.034-9.033 0-4.98 4.053-9.034 9.034-9.034 4.981 0 9.032 4.053 9.032 9.034 0 4.981-4.05 9.033-9.032 9.033z" fill="#FFF9FF"/></g><g><path d="M631.117 273.828h-27.23a3.898 3.898 0 0 1-3.887-3.886V249.8a3.898 3.898 0 0 1 3.887-3.887h27.23a3.897 3.897 0 0 1 3.886 3.887v20.14a3.897 3.897 0 0 1-3.886 3.887" fill="#E76D83"/><g fill="#FFF" fill-rule="nonzero"><path d="M618.023 254.033a4.927 4.927 0 0 0-4.915 4.915c0 1.414.62 2.776 1.662 3.695.778.778.708 2.44.69 2.457 0 .089.018.16.088.23a.326.326 0 0 0 .212.089h4.509c.088 0 .159-.036.212-.089a.336.336 0 0 0 .088-.23c0-.017-.088-1.68.69-2.457l.053-.053a4.96 4.96 0 0 0 1.626-3.642 4.927 4.927 0 0 0-4.915-4.915zm2.83 8.15c-.019.018-.054.053-.054.071-.69.743-.813 1.962-.83 2.546h-3.908c-.018-.584-.141-1.856-.884-2.617a4.309 4.309 0 0 1-1.485-3.253 4.308 4.308 0 0 1 4.314-4.314 4.308 4.308 0 0 1 4.314 4.314c0 1.256-.53 2.44-1.468 3.253z"/><path d="M618.006 255.288a.31.31 0 0 0-.3.3c0 .16.14.301.3.301a3.218 3.218 0 0 1 3.217 3.218c0 .16.142.3.3.3.16 0 .301-.14.301-.3.018-2.104-1.697-3.819-3.818-3.819zM619.968 265.755h-3.925a.747.747 0 0 0-.742.742c0 .407.336.743.742.743h3.907c.425-.018.76-.336.76-.743a.747.747 0 0 0-.742-.742zm0 .866h-3.925a.14.14 0 0 1-.141-.142c0-.088.053-.141.141-.141h3.907a.14.14 0 0 1 .142.141c0 .089-.053.142-.124.142zM619.385 267.54h-2.758a.747.747 0 0 0-.743.743c0 .406.336.742.743.742h2.758a.747.747 0 0 0 .742-.742.736.736 0 0 0-.742-.743zm0 .867h-2.758a.14.14 0 0 1-.142-.142c0-.088.053-.141.142-.141h2.758a.14.14 0 0 1 .141.141.14.14 0 0 1-.141.142zM618.006 252.566c.176 0 .3-.142.3-.3v-2.052a.31.31 0 0 0-.3-.3.31.31 0 0 0-.3.3v2.051c0 .16.14.3.3.3zM623.009 251.434c-.141-.106-.318-.053-.407.07l-1.131 1.698a.291.291 0 0 0 .07.424.285.285 0 0 0 .16.053.282.282 0 0 0 .247-.141l1.132-1.697a.274.274 0 0 0-.071-.407zM614.417 253.609a.285.285 0 0 0 .159-.053.31.31 0 0 0 .088-.425l-1.096-1.715a.31.31 0 0 0-.424-.088.31.31 0 0 0-.089.424l1.097 1.715c.07.106.159.142.265.142zM612.278 255.483l-1.786-.973c-.142-.07-.336-.017-.407.124a.282.282 0 0 0 .124.407l1.786.972c.053.018.088.036.141.036a.292.292 0 0 0 .265-.16c.071-.141.018-.336-.123-.406zM625.944 254.634c-.07-.141-.265-.194-.407-.124l-1.803.973c-.142.07-.195.265-.124.406.053.106.16.16.265.16a.333.333 0 0 0 .142-.036l1.803-.972c.142-.07.195-.265.124-.407z"/></g></g><g><path d="M137.81 137.958h-22.924a3.897 3.897 0 0 1-3.886-3.886v-16.707a3.897 3.897 0 0 1 3.886-3.886h22.924a3.898 3.898 0 0 1 3.886 3.886v16.707a3.898 3.898 0 0 1-3.886 3.886" fill="#0875BE"/><path d="M134.467 121.23h-.534v-1c0-.277-.239-.5-.533-.5h-3.806c-.6-.785-1.565-1.25-2.594-1.25-1.03 0-1.995.465-2.594 1.25H120.6c-.294 0-.533.223-.533.5v1h-.534c-.294 0-.533.223-.533.5v10.25c0 .275.239.499.533.5h5.787c.306.61.96 1 1.68 1s1.374-.39 1.68-1h5.787c.294-.001.533-.225.533-.5v-10.25c0-.277-.239-.5-.533-.5zm-4.562-1h3.495v8.25h-4.8c-.502 0-.983.19-1.333.527v-4.54c1.04-.08 1.972-.63 2.498-1.474a2.828 2.828 0 0 0 .14-2.764zm-1.305 10h4.8v.75h-6.133v-.75c0-.69.597-1.25 1.333-1.25h4.8v.75h-4.8c-.147 0-.267.111-.267.25 0 .137.12.25.267.25zm-1.6-11.25c1.473 0 2.667 1.119 2.667 2.5 0 1.38-1.194 2.5-2.667 2.5-1.473 0-2.667-1.12-2.667-2.5.002-1.38 1.195-2.5 2.667-2.5zm-6.4 1.25h3.495a2.828 2.828 0 0 0 .14 2.763c.526.845 1.459 1.395 2.498 1.474v4.54a1.923 1.923 0 0 0-1.333-.528h-4.8v-8.25zm0 10h4.8c.147 0 .267-.113.267-.25 0-.139-.12-.25-.267-.25h-4.8v-.75h4.8c.736 0 1.332.56 1.333 1.25v.75H120.6v-.75zm13.867 1.75h-5.969a.273.273 0 0 0-.055.011.145.145 0 0 0-.084.036.143.143 0 0 0-.069.064.238.238 0 0 0-.03.05l-.005.006c-.188.499-.69.832-1.255.832-.564 0-1.067-.333-1.255-.832l-.004-.007a.24.24 0 0 0-.03-.048.14.14 0 0 0-.066-.063.264.264 0 0 0-.042-.026.278.278 0 0 0-.043-.011.272.272 0 0 0-.059-.011l-.008-.002h-5.96v-10.25h.534v9.25c0 .276.239.5.533.5h12.8c.294 0 .533-.224.533-.5v-9.25h.534v10.25z" fill="#FFF" fill-rule="nonzero"/></g><g><path d="M137.81 225.48h-22.924a3.897 3.897 0 0 1-3.886-3.887v-16.707a3.897 3.897 0 0 1 3.886-3.886h22.924a3.898 3.898 0 0 1 3.886 3.886v16.707a3.898 3.898 0 0 1-3.886 3.886" fill="#F4B42E"/><path d="M130.697 219.119h-12.072a1.054 1.054 0 0 1-1.054-1.054v-9.651c0-.582.472-1.054 1.054-1.054h12.072c.582 0 1.054.472 1.054 1.054v9.651c0 .582-.472 1.054-1.054 1.054M136.923 210.254v5.97a.642.642 0 0 1-.918.58l-2.949-1.407a.643.643 0 0 1-.365-.58v-3.155c0-.247.142-.472.365-.58l2.949-1.407a.642.642 0 0 1 .918.579" fill="#FFF9FF"/></g></g></svg>