<svg viewBox="0 0 238 545" fill="none" xmlns="http://www.w3.org/2000/svg">
<path d="M507.814 470.905C507.651 470.875 507.486 470.846 507.323 470.818L506.804 481.878C506.968 481.886 507.134 481.893 507.298 481.9L507.814 470.905ZM504.65 461.361C506.135 456.465 505.603 454.075 502.358 453.076C507.399 455.574 502.438 458.396 504.65 461.361ZM183.345 312.792C181.245 307.774 177.814 303.267 173.781 298.967C176.968 303.575 180.157 308.184 183.345 312.792ZM23.8821 160.265C24.9289 159.725 25.3233 159.611 25.312 159.512C24.8304 155.212 24.5206 150.92 25.3229 146.649C25.395 146.263 25.2109 145.868 24.5933 145.773C23.6949 145.633 23.4271 146.124 23.4404 146.586C23.5556 150.99 23.7174 155.394 23.8821 160.265ZM614.125 242.61C614.03 255.103 609.565 266.98 605.582 278.925C612.009 267.329 615.056 255.248 614.125 242.61ZM218.614 498.671C226.043 509.491 234.722 519.697 248.168 527.484C236.827 518.629 226.919 509.06 218.614 498.671ZM183.376 351.134C179.602 337.955 173.516 325.305 164.49 313.33C171.763 325.707 177.824 338.362 183.376 351.134ZM24.806 143.818C26.8594 132.361 31.469 121.457 37.9103 110.953C29.6342 121.028 25.2138 131.97 24.806 143.818ZM502.447 408.047C498.062 417.875 495.708 427.997 494.767 438.317C493.642 450.679 493.379 463.08 493.313 475.491C493.278 482.194 492.855 488.886 492.843 495.589C492.839 497.222 490.989 498.835 492.843 500.707C494.16 495.957 494.499 491.299 494.628 486.68C495.044 471.96 494.775 457.211 495.908 442.522C496.805 430.889 498.64 419.341 502.447 408.047ZM38.7095 137.158C38.5232 137.184 38.337 137.21 38.1507 137.236C37.838 139.922 37.2765 142.602 37.2607 145.297C37.2085 154.073 36.7245 162.828 41.3721 171.437C42.5892 173.694 42.1352 176.504 43.7772 178.928C46.0271 182.247 46.1073 185.937 48.4342 189.385C52.0241 194.701 55.4248 200.137 58.4171 205.644C60.4022 209.295 63.6156 212.421 66.2112 215.793C68.2315 218.416 71.0843 220.811 73.5236 223.292C78.1004 227.949 83.0522 232.378 88.5823 236.405C94.1942 240.492 100.065 244.441 105.993 248.324C111.843 252.156 117.926 255.825 123.655 259.745C130.397 264.358 137.402 268.767 144.854 272.719C148.579 274.694 150.887 277.455 154.491 279.51C157.47 281.208 160.807 283.016 163.312 285.294C167.774 289.351 171.924 293.548 175.503 298.007C187.46 312.903 195.442 328.829 201.325 345.263C203.136 350.325 205.47 355.373 205.019 360.695C204.88 362.334 204.841 364.133 205.628 365.649C207.211 368.693 207.943 371.812 208.147 374.936C208.585 381.57 210.255 388.131 210.922 394.76C212.003 405.503 212.948 416.24 213.133 426.978C213.245 433.512 214.649 440 214.529 446.554C214.452 450.748 216.411 455.015 217.552 459.238C222.945 479.207 233.376 497.651 253.11 513.078C255.61 515.034 255.315 517.629 258.22 519.319C271.286 526.92 284.213 534.644 296.696 542.743C309.814 551.253 326.123 556.272 340.752 563.135C343.728 564.531 343.789 564.441 345.273 567.088C345.423 567.356 346.124 567.491 346.587 567.666C355.793 571.15 364.61 575.186 374.225 578.089C380.237 579.905 386.147 582.083 392.742 582.462C415.716 583.788 434.444 577.929 449.51 566.285C458.003 559.719 464.148 551.979 469.773 544.033C481.441 527.55 487.858 509.991 488.929 491.343C489.994 472.78 489.208 454.15 491.189 435.609C493.145 417.284 499.587 400.1 511.345 383.968C525.446 364.623 542.974 346.888 560.732 329.254C572.908 317.163 584.436 304.77 593.309 291.217C605.787 272.157 610.611 251.915 609.252 230.671C608.432 217.82 606.468 205.034 603.184 192.361C594.18 157.601 578.484 124.294 554.722 92.8041C543.882 78.4418 531.2 65.0454 514.29 53.7822C502.891 46.1878 490.885 39.2061 476.727 34.357C468.419 31.5125 459.841 29.546 450.6 30.0655C439.196 30.7082 428.332 32.7473 418.106 36.1821C397.413 43.1353 379.903 53.3387 361.997 63.1493C344.437 72.7731 326.745 82.1506 304.938 87.0414C292.332 89.8687 279.559 91.5418 266.37 91.7182C232.603 92.1704 199.041 89.0089 165.488 85.9921C149.985 84.5992 134.592 82.2486 118.925 82.3385C108.419 82.3998 98.1477 83.2328 88.4991 86.168C73.8879 90.6143 58.3189 100.066 50.1796 112.842C49.9673 113.175 49.7702 113.556 49.4066 113.79C45.0368 116.609 44.4088 120.548 43.4068 124.386C43.1458 125.382 43.1577 126.713 42.2675 127.268C39.0703 129.259 41.4759 132.334 39.3325 134.69C38.3907 135.726 39.3923 138.288 38.8649 140.148C38.8126 139.151 38.7604 138.154 38.7095 137.158ZM629.904 233.82C630.102 233.3 630.301 232.778 630.499 232.255C631.192 242.016 630.459 251.668 627.916 261.162C624.299 274.666 617.715 287.397 608.728 299.453C599.951 311.227 589.671 322.303 578.619 333.027C562.505 348.666 546.685 364.446 533.052 381.301C521.714 395.317 514.342 410.313 511.506 426.526C510.39 432.899 509.428 439.28 508.984 445.871C507.316 445.053 508.726 444.079 507.823 442.861C507.732 444.792 506.836 446.66 507.792 447.684C509.114 449.098 509.334 450.617 508.58 451.527C505.353 455.428 507.429 459.684 507.089 463.739C506.817 466.955 508.834 470.172 508.426 473.493C507.906 477.711 508.782 481.98 506.748 486.166C505.838 488.035 506.584 490.505 507.327 492.768C508.013 494.859 508.146 497.54 506.824 499.288C504.601 502.23 505.82 505.376 504.904 508.372C502.657 515.724 500.122 522.97 496.651 530.045C491.698 540.137 484.913 549.557 477.082 558.62C464.106 573.639 444.768 582.82 421.676 588.495C398.545 594.179 375.714 593.385 353.333 584.857C341.549 580.367 329.757 575.886 318.541 570.684C311.356 567.352 304.684 563.505 298.884 558.993C293.717 554.975 287.202 552.368 280.801 549.652C263.916 542.489 248.259 534.236 235.187 523.685C221.986 513.03 212.667 500.802 205.834 487.654C196.748 470.17 193.467 452.063 191.821 433.733C189.455 407.361 187.185 380.956 177.999 355.024C171.524 336.75 162.988 318.987 149.199 302.566C143.1 295.302 135.027 289.25 126.469 283.413C111.381 273.127 95.4435 263.471 81.0286 252.692C70.6734 244.951 60.6387 236.995 52.726 227.88C38.8611 211.906 27.9813 195.043 23.2485 176.673C18.1754 156.986 18.0201 137.487 28.4825 118.808C38.4391 101.029 54.1055 86.9268 79.8351 79.6473C93.9072 75.6653 108.93 74.9018 124.106 75.5589C151.975 76.7666 179.682 79.9542 207.567 81.0936C226.459 81.8643 245.353 83.1629 264.203 81.9359C287.24 80.4387 307.403 74.1492 325.757 64.7296C338.091 58.3993 349.976 51.6622 362.126 45.1665C376.698 37.3753 391.87 30.2587 409.029 25.429C439.182 16.9409 468.114 19.9757 496.035 32.1012C512.381 39.1992 526.653 48.0274 539.485 58.1744C544.918 62.4704 549.861 67.0237 554.869 71.5152C559.407 75.5846 563.448 79.9998 566.854 84.6871C569.55 88.3979 573.329 91.7131 576.155 95.4455C586.405 108.986 595.548 122.838 603.222 137.173C607.814 145.755 611.523 154.509 615.131 163.269C618.018 170.277 620.332 177.399 622.251 184.602C623.831 190.542 625.647 196.502 626.922 202.482C627.604 205.689 626.645 208.983 627.199 212.288C628.301 218.863 629.171 225.458 628.903 232.068C628.877 232.73 628.925 233.398 629.924 233.79C628.612 237.927 629.321 242.137 629.285 246.319C630.014 242.174 630.451 238.017 629.904 233.82Z" fill="#E6BF80"/>
</svg>
