<svg viewBox="0 0 105 288" fill="none" xmlns="http://www.w3.org/2000/svg">
<mask id="mask0" mask-type="alpha" maskUnits="userSpaceOnUse" x="0" y="0" width="105" height="288">
<rect y="6.10352e-05" width="105" height="288" fill="#D9DBD4"/>
</mask>
<g mask="url(#mask0)">
<path d="M62.9255 164.049C62.5784 164.04 61.9831 163.838 61.6467 164.055C60.9124 164.529 60.0656 164.698 59.2465 164.93C58.475 165.149 57.7602 165.519 56.981 165.675C55.9318 165.885 54.9045 166.159 53.8482 166.348C52.6573 166.559 51.4931 166.888 50.2696 166.957C49.1886 167.017 48.1113 167.088 47.0314 167.151C45.9515 167.213 44.8724 167.333 43.7913 167.325C40.8323 167.306 37.964 167.648 35.0614 167.851C33.983 167.927 32.8307 167.903 31.8909 168.299C30.7619 168.774 29.3783 168.58 28.3997 169.383C27.1052 168.966 26.3025 170.096 25.1061 169.989C23.6968 170.803 22.0202 171.09 20.6939 172.08C20.3356 172.347 19.9639 172.602 19.3692 172.546C18.89 172.501 18.463 173.02 18.0415 173.332C17.8247 173.492 17.7011 173.792 17.4823 173.948C16.5938 174.58 15.6078 175.021 14.8132 175.852C14.0756 176.624 13.2698 177.339 12.5124 178.106C10.986 179.654 9.62776 181.373 8.46552 183.286C6.30293 186.846 4.95717 190.95 4.19803 195.382C3.76351 197.922 3.49637 200.54 3.21955 203.152C2.77056 207.381 2.36403 211.66 1.25506 215.618C0.859684 217.029 0.334383 218.402 -0.345659 219.613C-1.44971 221.579 -2.89799 222.884 -4.74356 223.904C-5.61011 224.382 -6.3629 225.072 -7.47874 225.108C-7.95014 225.123 -8.31218 225.603 -8.76254 225.791C-9.2294 225.987 -9.72264 226.176 -10.2406 226.202C-10.9343 226.239 -11.47 226.767 -12.1277 226.692C-13.1714 226.573 -14.0887 226.897 -15.0687 226.957C-16.2419 227.029 -17.4204 227.16 -18.6121 227.074C-19.819 226.987 -21.0225 226.945 -22.2587 226.74C-25.9861 226.121 -29.6952 225.248 -33.4055 223.913C-33.6994 223.807 -34.0219 223.704 -34.2967 223.731C-34.7677 223.779 -35.0379 223.285 -35.4077 223.124C-35.7892 222.958 -36.2724 223.095 -36.5796 222.849C-37.489 222.12 -38.4846 221.948 -39.4305 221.487C-40.3767 221.026 -41.3275 220.585 -42.266 220.093C-43.1876 219.609 -44.0985 219.082 -45.0086 218.557C-45.7561 218.126 -46.6381 218.029 -47.3804 216.761C-47.3418 216.706 -47.166 216.459 -46.9903 216.213C-47.4034 216.047 -47.6629 215.943 -47.9235 215.838C-47.9162 215.628 -47.9094 215.418 -47.8971 215.059C-49.6196 214.643 -50.9577 213.412 -52.2886 212.115C-52.852 211.565 -53.5326 211.18 -54.197 210.693C-54.1943 210.662 -54.1777 210.498 -54.1637 210.351C-55.2924 209.231 -56.3723 208.047 -57.5484 207.025C-58.5611 206.145 -59.5204 205.188 -60.5343 204.321C-61.5614 203.441 -62.6813 202.705 -63.3955 201.417C-64.961 200.434 -65.965 198.667 -67.3728 197.501C-68.054 196.938 -68.3171 195.744 -69.2917 195.826C-69.2615 194.637 -70.1397 194.473 -70.6839 193.949C-70.5025 193.42 -70.8985 192.907 -71.2452 192.572C-72.0422 191.801 -72.6711 190.893 -73.348 190.017C-74.0426 189.118 -74.8013 188.278 -75.3038 187.222C-75.5162 186.776 -75.7606 186.089 -76.0516 185.975C-76.8855 185.652 -76.8485 184.392 -77.707 184.22L-79.0154 181.954C-79.171 181.684 -79.2854 181.294 -79.4899 181.167C-80.1921 180.732 -80.4433 179.962 -80.8805 179.326C-81.3146 178.696 -81.8748 178.147 -82.2483 177.488C-82.8258 176.47 -83.6247 175.755 -84.4457 175.065C-86.7929 173.094 -89.3657 171.782 -91.957 170.563C-93.0072 170.069 -94.1064 169.841 -95.1644 169.453C-97.7732 168.498 -100.379 167.569 -103.005 166.857C-104.266 166.515 -105.527 166.122 -106.786 165.849C-108.269 165.526 -109.753 165.269 -111.232 165.057C-112.25 164.912 -113.257 164.95 -114.276 164.802C-115.45 164.632 -116.62 164.414 -117.79 164.369C-118.942 164.326 -120.129 163.985 -121.302 163.948C-122.367 163.916 -123.486 163.557 -124.61 163.336C-124.611 163.341 -124.644 163.483 -124.664 163.569C-125.014 163.363 -125.361 163.022 -125.666 163C-127.926 162.843 -130.132 161.906 -132.357 161.053C-134.779 160.125 -137.006 158.635 -139.162 156.955C-141.967 154.77 -144.76 152.545 -146.943 149.459C-147.78 149.07 -147.802 147.906 -148.418 147.471C-149.235 146.895 -149.633 146.041 -149.93 145.269C-150.299 144.307 -150.706 143.397 -151.15 142.676C-151.255 142.026 -151.254 141.51 -151.43 141.041C-151.952 139.649 -152.06 138.276 -152.061 136.93C-152.064 134.623 -152.309 132.237 -151.594 130.144C-151.39 129.546 -151.503 128.745 -151.273 128.171C-150.113 125.28 -149.137 122.266 -147.743 119.532C-146.558 117.208 -145.273 115.013 -143.598 113.12C-142.513 111.892 -141.394 110.676 -140.172 109.67C-138.735 108.486 -137.314 107.208 -135.567 106.464C-134.983 106.217 -134.43 105.888 -133.917 105.514C-132.228 104.285 -130.229 103.644 -128.34 102.812C-127.619 102.495 -126.882 101.966 -126.112 101.98C-125.33 101.993 -124.94 101.396 -124.246 101.352C-123.541 101.307 -122.838 101.159 -122.208 100.899C-121.131 100.456 -119.943 100.354 -118.813 100.075C-117.556 99.7648 -116.278 99.5222 -114.981 99.3282C-113.273 99.0726 -111.585 98.7485 -109.896 98.4293C-108.249 98.1181 -106.612 97.7747 -104.971 97.4482C-103.642 97.1844 -102.346 96.7925 -101.015 96.5794C-99.3829 96.3179 -97.9021 95.6861 -96.2845 95.402C-95.6993 95.2992 -95.1516 94.9948 -94.5501 94.8439C-93.9162 94.6844 -93.4567 94.0788 -92.6777 94.2353C-91.5915 93.4277 -90.2451 93.1332 -89.0551 92.5387C-87.9102 91.9672 -86.7399 91.415 -85.8759 90.3526C-85.4829 89.8685 -84.5169 89.8703 -84.3218 89.3263C-84.0609 88.5972 -83.2671 88.719 -83.0573 87.9972C-82.8737 87.3664 -81.9316 87.4849 -81.8264 86.6755C-80.009 85.2962 -78.9008 83.1692 -77.7387 81.1615C-76.4904 79.0075 -75.4083 76.6977 -74.757 74.0677C-74.2513 72.0298 -73.5454 70.0947 -73.2309 67.9503C-72.6634 64.077 -72.1924 60.1754 -71.9887 56.1679C-71.8921 54.2862 -71.7936 52.3971 -71.6445 50.5343C-71.4534 48.158 -71.3896 45.7334 -71.0918 43.4031C-70.7417 40.6517 -70.455 37.872 -69.7899 35.2316C-69.3394 33.4401 -68.9564 31.5996 -68.4772 29.8192C-68.0773 28.3315 -67.6038 26.8725 -67.0309 25.4931C-66.5209 24.2663 -66.1338 22.9641 -65.5372 21.7807C-64.9307 20.5789 -64.4578 19.2501 -63.8543 18.0334C-62.7839 15.8776 -61.7069 13.7268 -60.4558 11.712C-59.5564 10.2636 -58.6416 8.83866 -57.6189 7.50903C-56.0835 5.5145 -54.5714 3.4955 -53.0285 1.50853C-52.2824 0.547498 -51.5141 -0.44296 -50.6222 -1.18268C-49.6098 -2.02125 -49.0037 -3.38821 -47.6981 -3.82775C-46.5564 -5.50713 -44.8165 -6.44837 -43.5075 -7.93065C-42.9819 -8.52614 -42.1886 -8.79022 -41.6279 -9.42582C-41.1047 -10.0191 -40.357 -10.3653 -39.7667 -10.938C-39.0555 -11.6272 -38.1369 -12.0389 -37.3848 -12.7303C-36.4055 -13.6305 -35.1989 -14.2424 -34.1224 -15.0421C-31.6793 -16.8586 -28.7159 -17.8533 -26.4493 -19.9786C-25.5466 -20.8243 -24.2175 -20.8176 -23.1918 -21.4256C-21.9721 -22.1472 -20.7522 -22.8706 -19.5064 -23.5479C-18.2938 -24.2076 -17.1063 -24.8892 -15.7742 -25.3623C-14.1076 -25.9541 -12.6841 -27.0649 -10.9841 -27.6697C-9.22005 -28.2972 -7.60855 -29.2758 -5.9304 -30.1015C-5.84222 -30.1444 -5.75326 -30.2647 -5.67691 -30.2367C-4.95903 -29.9721 -4.52116 -30.4323 -4.08593 -30.7659C-3.56849 -31.1636 -2.89854 -31.0874 -2.34041 -31.3178C-1.28625 -31.7539 -0.250206 -32.2278 0.791985 -32.6878C0.880615 -32.7279 0.981929 -32.8568 1.04329 -32.8226C1.68009 -32.4661 1.95546 -33.0453 2.3983 -33.1807C2.88796 -33.3297 3.3973 -33.4338 3.87433 -33.6111C4.71598 -33.9237 5.48829 -34.493 6.38481 -34.5611C7.63916 -34.6569 8.66195 -35.3075 9.90679 -35.4144C10.4447 -35.4615 10.9915 -35.7115 11.5049 -35.9065C12.077 -36.1245 12.6602 -36.2815 13.25 -36.4495C14.9911 -36.9466 16.8211 -37.1801 18.5601 -37.6949C19.5034 -37.9744 20.5953 -37.9107 21.5939 -38.1644C22.6116 -38.4227 23.8037 -38.1874 24.7436 -38.7419C25.7723 -38.3734 26.6197 -38.8579 27.5715 -38.855C28.5707 -38.8517 29.497 -39.1111 30.51 -39.1238C32.5461 -39.1509 34.5779 -39.2112 36.6243 -39.1968C39.3022 -39.1782 42.0151 -38.8988 44.7108 -38.7385C46.3652 -38.6394 48.0266 -38.3798 49.6765 -38.127C51.5076 -37.8467 53.3582 -37.4905 55.2108 -37.031C56.4797 -36.7165 57.7379 -36.2518 58.9914 -35.979C60.2001 -35.7161 61.3908 -35.2725 62.5893 -34.9562C63.5284 -34.7085 64.4611 -34.23 65.3966 -33.8552C66.332 -33.4795 67.2734 -32.9427 68.2005 -32.7728C69.1456 -32.5998 69.8748 -31.9207 70.7013 -31.4766C70.7513 -31.4493 70.8052 -31.4321 70.8569 -31.4137C73.3936 -30.5015 75.7577 -28.942 78.1539 -27.4945C80.5402 -26.0546 84.5346 -22.8554 86.7209 -20.9337C88.1245 -19.6998 89.3879 -18.3311 90.6618 -16.9549C91.3629 -16.1978 92.2132 -15.4779 92.6586 -14.5882C93.4014 -13.1026 94.676 -12.0038 95.2053 -10.3514C95.5573 -9.25113 96.3056 -8.24981 96.7554 -7.1094C97.2744 -5.79529 97.6672 -4.47715 97.9154 -3.17054C98.3129 -1.08268 98.2867 0.961745 98.0578 2.94667C97.8435 4.80609 97.3109 6.49942 96.8466 8.23479C96.2353 10.5189 95.4321 12.6834 94.4108 14.6811C93.1011 17.2442 91.8439 19.8552 90.2049 22.1533C89.2576 23.4822 88.6038 25.1086 87.5971 26.368C86.2253 28.0845 85.2542 30.1434 84.032 31.9847C82.9424 33.6253 82.1657 35.5584 81.2565 37.3663C80.2964 39.2732 79.6758 41.4012 79.2377 43.6035C78.868 45.4608 78.7393 47.4417 78.6296 49.4061C78.558 50.69 78.5807 52.0382 78.8024 53.3633C79.0204 54.6692 79.304 55.995 79.536 57.3015C79.8118 58.8494 80.2711 60.3753 80.6923 61.8867C81.1329 63.4694 81.7363 65.0727 82.3927 66.613C83.1592 68.4118 83.9628 70.2146 84.8218 71.9735C85.6444 73.6584 86.2104 75.4757 87.3422 77.024C87.4513 77.1732 87.6208 77.3753 87.6102 77.5033C87.5387 78.4183 88.2772 79.0264 88.6016 79.7872C88.9263 80.5464 89.2216 81.3193 89.5848 82.0625C90.3568 83.6405 91.1639 85.203 91.9578 86.7716C91.9857 86.8275 92.0365 86.8789 92.0487 86.9344C92.5169 89.1318 93.9021 91.0997 94.3699 93.2974C94.956 93.9072 94.8083 94.7871 95.2673 95.4014C95.7702 96.0735 95.8422 96.8328 96.1087 97.5385C96.6979 99.0946 97.1644 100.687 97.6319 102.272C98.016 103.576 98.2954 104.886 98.4998 106.209C98.7112 107.58 99.0525 108.933 99.1643 110.327C99.422 113.545 99.5391 116.712 99.0968 119.744C98.811 121.705 98.5658 123.711 98.0035 125.523C97.4342 127.357 96.8686 129.204 96.175 130.98C95.0927 133.753 93.6742 136.246 92.4186 138.873C91.6842 139.245 91.564 140.229 91.0007 140.792C90.4887 141.305 90.0774 141.962 89.7196 142.634C89.3315 143.362 88.8024 143.937 88.3374 144.582C87.7361 145.417 87.2332 146.393 86.4814 147.029C84.6736 148.559 83.5172 150.863 81.488 152.115C81.499 153.056 80.431 152.796 80.2302 153.631C80.0895 154.216 79.212 154.141 78.8719 154.836C78.5884 155.415 77.7264 155.532 77.1665 155.925C76.8337 156.157 76.6207 156.569 76.2986 156.822C75.9173 157.122 75.4588 157.311 75.0731 157.606C74.9514 157.698 74.9563 157.976 74.941 158.029C74.5249 158.093 74.2102 158.064 73.9836 158.19C72.658 158.924 71.3753 159.737 70.033 160.44C68.7241 161.125 67.3651 161.72 66.0186 162.336C65.3374 162.648 64.8161 163.252 63.9128 163.179C63.5731 163.151 63.3033 163.695 62.9255 164.049ZM101.887 95.4963C101.465 94.3212 101.034 93.4956 100.904 92.679C100.692 91.3601 99.9892 90.1869 99.6185 88.9232C99.3911 88.1507 98.8682 87.3944 98.7537 86.6422C98.6734 86.1171 98.4663 85.7412 98.234 85.3388C97.5137 84.0902 96.9806 82.8064 96.6195 81.428C96.4203 80.6669 95.9066 79.9686 95.6304 79.1577C95.1541 77.7627 94.3498 76.4384 93.6771 75.0872C93.414 74.5585 93.0847 74.102 93.029 73.4495C92.9904 72.9954 92.5149 72.4848 92.2342 71.9986C91.9227 71.4591 91.4488 70.919 91.3504 70.3807C91.2693 69.9337 91.0238 69.557 90.8883 69.192C90.4121 67.9133 89.7163 66.6942 89.133 65.4409C88.836 64.8027 88.6177 64.1341 88.3321 63.4901C88.0469 62.8444 87.4382 62.2999 87.5474 61.534C86.6818 60.1509 86.4276 58.5683 85.7028 57.1301C85.234 56.2009 85.3297 55.1104 84.6824 54.1988C84.6847 52.2948 83.7855 50.3566 83.8486 48.4341C83.9032 46.7389 83.8982 45.0814 84.272 43.452C84.7343 41.4399 85.6532 39.7832 86.3716 37.9826C86.7568 37.017 87.3755 36.1462 87.943 35.2803C88.5098 34.4141 89.1135 33.5764 89.6044 32.6488C90.099 31.7158 90.6685 30.8306 91.2441 29.9981C92.2324 28.5712 93.2039 27.1262 94.0988 25.6226C95.4328 23.3803 96.6956 21.0715 97.8808 18.707C98.5982 17.2757 99.0517 15.64 99.733 14.1774C100.528 12.4692 101.03 10.5793 101.605 8.7481C102.173 6.94058 102.382 4.91837 102.707 2.97236C103.336 -0.78664 103.176 -4.7216 102.253 -8.75108C101.852 -10.5015 101.318 -12.2536 100.584 -14.0015C99.8395 -15.7725 98.8153 -17.3379 97.9387 -19.0035C97.6991 -19.4595 97.5456 -20.0674 96.9383 -20.2265C96.883 -20.2405 96.916 -20.8492 96.7763 -20.975C96.3664 -21.3462 96.0809 -21.8169 95.7574 -22.2483C95.37 -22.7654 95.0458 -23.3001 94.5801 -23.7862C94.1766 -24.2086 93.7844 -24.3953 93.5689 -24.5115C93.33 -25.0392 93.2412 -25.5039 92.9957 -25.7334C90.3726 -28.188 87.8029 -30.721 84.934 -32.7893C82.4926 -34.5495 80.0388 -36.2709 77.4798 -37.6862C73.9387 -39.6441 68.2538 -42.1822 64.4819 -43.3944C61.283 -44.422 58.0711 -45.5838 54.8516 -45.8168C54.7034 -45.8271 54.5215 -46.098 54.303 -46.2947C54.263 -46.1521 54.2274 -46.0255 54.1911 -45.897C52.8225 -46.5068 51.4436 -46.7697 50.0598 -46.8896C49.0411 -46.9782 48.0202 -47.0718 46.9958 -47.222C45.7744 -47.4016 44.579 -47.4649 43.3956 -47.3808C42.9863 -47.3518 42.489 -47.6979 42.0743 -47.6785C40.9434 -47.6247 39.7953 -47.6623 38.6557 -47.6668C37.701 -47.6704 36.6939 -47.9627 35.7352 -47.983C34.9765 -48 34.2582 -47.7824 33.5145 -47.7013C33.0981 -47.6556 32.6529 -47.7167 32.2415 -47.6572C31.8958 -47.6072 31.3662 -47.9394 31.2663 -47.3134C30.8703 -47.4259 30.5099 -47.6943 30.0772 -47.4864C29.7433 -47.3269 29.2187 -47.559 28.7936 -47.5455C28.4162 -47.5334 28.064 -47.4045 27.6922 -47.3592C27.2761 -47.3097 26.7909 -47.4102 26.4426 -47.24C25.9313 -46.9899 25.4453 -46.9712 24.8331 -47.1259C24.374 -47.2423 23.8811 -47.1034 23.4535 -46.9587C22.2263 -46.5437 20.7293 -46.9371 19.6302 -46.1529C18.5307 -46.4805 17.7084 -45.8332 16.7253 -45.7365C15.7886 -45.6445 14.9442 -45.172 14.0019 -45.1242C13.5305 -45.1006 13.1691 -44.7629 12.7887 -44.8464C12.2999 -44.9552 12.0414 -44.722 11.6879 -44.6018C11.2978 -44.4676 10.8564 -44.4502 10.4723 -44.3044C10.1083 -44.1647 9.80864 -43.8825 9.44344 -43.746C9.2463 -43.6734 8.97101 -43.7748 8.75217 -43.7957C8.66564 -43.5605 8.5957 -43.373 8.52991 -43.1933C8.42751 -43.1706 8.33453 -43.109 8.24658 -43.1365C7.84587 -43.2606 7.47811 -43.5168 7.06873 -43.2535C6.69466 -43.013 6.16801 -43.0303 5.73792 -42.8675C5.34456 -42.7195 5.04093 -42.3376 4.5087 -42.6033C3.89825 -42.015 2.99294 -42.0741 2.27031 -41.736C1.76148 -41.4977 1.32024 -41.1788 0.666951 -41.21C0.151622 -41.2346 -0.12404 -40.4676 -0.813272 -40.7891C-0.885077 -40.822 -0.984219 -40.7173 -1.07078 -40.6769C-2.36782 -40.072 -3.65562 -39.448 -4.96682 -38.8699C-5.5624 -38.6075 -6.20188 -38.433 -6.82255 -38.2195C-7.39651 -38.0219 -7.75818 -37.362 -8.55684 -37.6235C-8.75411 -37.6876 -8.978 -37.4064 -9.18991 -37.2841C-9.69804 -36.9907 -10.3052 -36.8087 -10.6865 -36.3741C-11.0731 -35.9317 -12.0442 -36.6983 -12.0624 -35.6779C-12.7012 -35.9121 -13.0568 -35.4449 -13.503 -35.2174C-14.0251 -34.9515 -14.4708 -34.4544 -15.0402 -34.3789C-16.7212 -34.1563 -17.9583 -33.112 -19.279 -32.2696C-20.9131 -31.228 -22.8547 -30.8328 -24.4769 -29.7791C-26.1164 -28.7154 -27.8427 -27.7883 -29.5487 -26.8334C-30.6746 -26.2032 -31.4698 -25.1014 -32.6698 -24.5597C-33.8276 -24.0385 -35.0312 -23.4988 -35.9428 -22.6265C-36.8693 -21.7402 -37.9752 -21.2086 -38.9872 -20.4985C-39.4793 -20.1526 -39.8827 -19.6736 -40.3575 -19.2989C-40.8352 -18.9226 -41.5322 -18.8392 -41.712 -18.0761C-42.7792 -17.7939 -43.2132 -16.5762 -44.2165 -16.2059C-44.7312 -16.0164 -44.9768 -15.5232 -45.3313 -15.1444C-45.6813 -14.7698 -46.1531 -14.605 -46.4712 -14.104C-46.9011 -13.4268 -47.6809 -13.0716 -48.2842 -12.5428C-48.5216 -12.3345 -48.6525 -11.9836 -48.8939 -11.7832C-49.9637 -10.8957 -50.8979 -9.85058 -51.8271 -8.79255C-53.1784 -7.25254 -54.6474 -5.83541 -55.9046 -4.20014C-56.386 -3.57321 -57.0119 -3.1042 -57.4017 -2.36073C-57.7762 -1.64436 -58.3376 -1.07879 -58.8039 -0.434423C-59.324 0.284539 -59.8436 1.00556 -60.339 1.74904C-61.2248 3.07801 -62.0635 4.45186 -62.9714 5.75875C-65.0647 8.77262 -66.7021 12.1652 -68.424 15.4878C-68.8022 16.2158 -69.0579 17.0401 -69.4282 17.7755C-70.4543 19.8186 -71.0483 22.1616 -72.1186 24.1724C-72.4373 26.7094 -73.6965 28.7178 -74.0976 31.2295C-74.3991 33.1187 -75.2008 34.7988 -75.4949 36.69C-75.8746 39.1364 -76.5104 41.5019 -76.3745 44.1476C-76.3594 44.4341 -76.4558 44.6995 -76.4843 44.9803C-76.6699 46.8057 -76.9176 48.6139 -77.0166 50.4645C-77.1221 52.4629 -77.2883 54.4425 -77.3837 56.439C-77.5056 58.9589 -77.6622 61.4561 -78.0068 63.8988C-78.1197 64.6993 -78.0118 65.5907 -78.1551 66.3739C-78.7152 69.4286 -79.1306 72.5888 -80.3784 75.2546C-81.38 77.392 -82.3704 79.5626 -84.0698 81.1366C-84.8917 81.8975 -85.6939 82.6797 -86.5302 83.4285C-87.2887 84.1078 -88.0759 84.7008 -88.9567 85.1586C-89.5306 85.4575 -90.2107 85.5573 -90.8012 85.8294C-91.4224 86.1152 -91.937 86.706 -92.6011 86.7863C-93.2625 86.8658 -93.7383 87.3281 -94.3308 87.3559C-94.9667 87.3859 -95.3824 87.8072 -95.9329 87.8765C-97.157 88.03 -98.2219 88.5799 -99.4402 88.7736C-100.44 88.9329 -101.419 89.293 -102.43 89.5024C-103.794 89.7861 -105.18 90.0106 -106.526 90.3448C-108.594 90.8574 -110.746 91.1072 -112.834 91.5654C-114.827 92.0023 -116.887 92.2535 -118.827 92.8561C-119.61 92.5033 -119.967 93.3854 -120.752 93.2373C-121.341 93.1259 -121.906 93.5675 -122.489 93.7427C-122.932 93.8769 -123.404 93.943 -123.834 94.1056C-124.228 94.2544 -124.53 94.6283 -125.066 94.3814C-125.135 94.3501 -125.229 94.4758 -125.318 94.5162C-126.446 95.0246 -127.506 95.728 -128.718 95.992C-130.441 96.3681 -131.704 97.5243 -133.231 98.2154C-133.607 98.3858 -133.867 98.7997 -134.454 98.5573C-134.674 98.4655 -135.042 98.7187 -135.202 98.9495C-136.086 100.23 -137.577 100.553 -138.729 101.406C-139.292 101.822 -139.813 102.301 -140.345 102.763C-140.84 103.195 -141.475 103.348 -141.897 103.991C-142.261 104.546 -142.971 104.864 -143.458 105.4C-143.935 105.923 -144.647 106.208 -145.029 106.804C-145.656 107.779 -146.644 108.293 -147.279 109.281C-147.882 110.221 -148.748 110.949 -149.399 111.876C-149.911 112.604 -150.468 113.296 -150.904 114.087C-151.803 115.72 -152.716 117.35 -153.475 119.088C-154.782 122.078 -156.008 125.123 -156.949 128.361C-157.263 129.441 -157.337 130.614 -157.645 131.672C-158.119 133.302 -158.104 135.107 -158.315 136.826C-158.489 138.24 -158.344 139.781 -158.284 141.276C-158.217 142.913 -157.876 144.563 -157.358 146.2C-157.08 147.078 -156.875 147.968 -156.422 148.818C-156.006 149.602 -155.754 150.471 -155.321 151.242C-154.981 151.847 -154.444 152.338 -154.05 152.921C-153.668 153.484 -153.43 154.401 -152.996 154.625C-152.32 154.974 -152.28 155.988 -151.539 156.075C-150.232 157.88 -148.571 159.196 -147.017 160.68C-145.598 162.033 -144.038 162.996 -142.543 164.117C-141.068 165.225 -139.529 166.216 -137.924 167.05C-135.973 168.065 -134.029 168.816 -132.02 169.418C-129.112 170.291 -126.22 170.87 -123.323 171.374C-121.503 171.691 -119.683 171.966 -117.865 172.234C-116.102 172.493 -114.343 172.683 -112.578 172.971C-111.24 173.189 -109.911 173.255 -108.554 173.75C-107.717 174.056 -106.854 174.103 -106.009 174.368C-104.571 174.816 -103.139 175.432 -101.701 175.812C-100.036 176.252 -98.4004 176.877 -96.772 177.577C-94.2809 178.648 -91.8668 180.031 -89.4759 181.492C-88.9102 181.837 -88.477 182.423 -88.0164 182.888C-87.2489 183.664 -86.6903 184.716 -86.0296 185.639C-85.5481 186.311 -85.0358 186.959 -84.5491 187.628C-84.0624 188.296 -83.8696 189.195 -83.069 189.635C-82.8689 189.745 -82.7626 190.159 -82.5928 190.419C-82.1309 191.127 -81.6548 191.825 -81.1887 192.53C-80.7543 193.188 -80.4107 194.138 -79.8754 194.442C-79.0968 194.883 -78.9893 195.789 -78.2628 196.287C-77.5406 196.782 -77.0822 197.886 -76.4627 198.681C-75.135 200.387 -73.8003 202.089 -72.424 203.748C-71.618 204.719 -70.7061 205.574 -69.8795 206.535C-69.1034 207.437 -68.1788 208.176 -67.3584 209.037C-66.4554 209.985 -65.4434 210.773 -64.4886 211.614C-62.719 213.174 -61.1675 215.024 -59.381 216.534C-57.0848 218.476 -55.0121 220.832 -52.4243 222.237C-50.8942 223.902 -48.9153 224.459 -47.2347 225.779C-46.4803 226.372 -45.5589 226.624 -44.7258 227.076C-41.8541 228.629 -38.8854 229.59 -35.965 230.845C-33.7827 231.783 -31.5766 232.442 -29.3761 232.955C-27.2572 233.45 -25.114 234.137 -23.0195 234.047C-21.8154 234.61 -20.6734 234.31 -19.4843 234.545C-18.4804 234.744 -17.4713 234.65 -16.493 234.569C-15.1366 234.456 -13.83 234.111 -12.4574 234.106C-11.6938 234.103 -11.1882 233.607 -10.4226 233.602C-9.62232 233.598 -8.9604 232.924 -8.16038 232.841C-6.8184 232.7 -5.88943 231.835 -4.79248 231.27C-3.70625 230.711 -2.60164 230.158 -1.63519 229.414C-0.994246 228.92 -0.454815 228.234 0.125403 227.645C2.06004 225.68 3.38516 223.186 4.64126 220.63C5.3072 219.275 5.86879 217.816 6.28695 216.298C7.31143 212.58 8.08819 208.72 8.38172 204.693C8.63385 201.245 9.19031 197.931 9.66838 194.583C10.0222 192.109 10.7978 189.853 11.9872 187.864C12.9551 186.244 14.1643 184.931 15.493 183.69C17.5197 181.797 20.0503 180.78 22.3689 179.405C23.257 178.878 24.2867 178.475 25.4098 178.371C25.7884 178.335 26.0821 177.993 26.4462 177.864C26.7887 177.743 27.1789 177.734 27.5383 177.648C28.8956 177.321 30.2329 176.935 31.6091 176.665C32.926 176.406 34.2635 176.093 35.6171 176.083C38.1353 176.065 40.6047 175.84 43.1098 175.776C45.7566 175.707 48.4134 175.601 50.9608 175.171C52.8457 174.852 54.8356 174.741 56.5339 173.861C57.2156 174.059 57.6014 173.445 58.1501 173.413C58.8192 173.372 59.2975 172.836 59.8873 172.896C60.6046 172.969 60.9302 172.442 61.4793 172.305C63.2507 171.862 64.9509 171.272 66.4761 170.299C66.5646 170.242 66.7764 170.386 66.9299 170.437C66.9573 170.284 66.9865 170.124 66.9998 170.049C67.5345 169.869 68.0287 169.733 68.4953 169.539C69.4581 169.138 70.1845 168.273 71.368 168.285C71.6446 168.287 71.8523 167.904 72.2133 167.593C72.236 167.596 72.4663 167.621 72.6797 167.643C72.7231 167.399 72.752 167.238 72.7806 167.08C72.9305 167.134 73.0837 167.19 73.3024 167.268C73.3849 167.115 73.4764 166.948 73.5546 166.804C73.9267 166.673 74.5263 166.682 74.635 166.379C74.9019 165.637 75.507 165.443 76.0509 165.216C77.4945 164.615 78.5793 163.464 79.7576 162.508C80.9682 161.526 82.1349 160.424 83.2219 159.264C83.8817 158.56 84.6917 158.017 85.1828 157.094C85.403 156.679 85.9366 156.528 86.2076 156.141C86.6371 155.53 87.3574 155.185 87.468 154.275C88.2095 154.092 88.6313 153.433 88.9864 152.828C89.3741 152.168 89.9098 151.667 90.294 150.998C90.6346 150.408 91.1337 149.882 91.5559 149.322C92.3143 148.316 93.2587 147.44 93.7661 146.255C94.3334 144.93 95.3065 144.01 95.8743 142.694C96.5069 141.228 97.452 139.986 98.1638 138.571C98.4643 137.974 99.1036 137.525 98.8103 136.556C99.5873 136.229 99.4704 135.164 99.905 134.538C100.303 133.965 100.534 133.219 100.778 132.512C101.224 131.217 101.549 129.841 102.064 128.597C102.751 126.941 102.828 124.97 103.496 123.316C103.362 121.8 104.224 120.643 103.908 119.029C103.789 118.423 104.018 117.795 104.141 117.203C104.614 114.934 104.394 112.476 104.398 110.078C104.402 108.5 104.238 106.897 103.991 105.295C103.663 103.163 103.372 101.024 102.783 98.8913C102.496 97.8538 102.19 96.8189 101.906 95.7815C101.862 95.6187 101.885 95.4485 101.887 95.4963Z" fill="#F7F5F1"/>
<path d="M36.3038 136.08C36.0129 136.073 35.5139 135.904 35.2318 136.085C34.6163 136.482 33.9063 136.624 33.2197 136.819C32.5729 137.003 31.9737 137.313 31.3205 137.444C30.4409 137.62 29.5798 137.85 28.6942 138.007C27.6958 138.184 26.7199 138.46 25.6942 138.518C24.788 138.569 23.8849 138.628 22.9796 138.681C22.0742 138.733 21.1696 138.833 20.2633 138.827C17.7827 138.811 15.3782 139.098 12.9449 139.268C12.0408 139.331 11.0748 139.312 10.287 139.643C9.34051 140.042 8.18063 139.879 7.36022 140.552C6.27503 140.202 5.60215 141.15 4.59922 141.06C3.41776 141.742 2.01226 141.983 0.900386 142.813C0.600004 143.037 0.288355 143.25 -0.210183 143.204C-0.611838 143.166 -0.969826 143.601 -1.32317 143.863C-1.50497 143.997 -1.60856 144.248 -1.79198 144.379C-2.53679 144.908 -3.36342 145.278 -4.02957 145.975C-4.64791 146.622 -5.32344 147.221 -5.95835 147.865C-7.23798 149.162 -8.37659 150.604 -9.35092 152.207C-11.1639 155.191 -12.292 158.632 -12.9284 162.347C-13.2927 164.476 -13.5167 166.672 -13.7487 168.861C-14.1251 172.407 -14.4659 175.994 -15.3956 179.311C-15.727 180.495 -16.1674 181.645 -16.7375 182.66C-17.663 184.309 -18.8772 185.403 -20.4243 186.258C-21.1508 186.659 -21.7819 187.237 -22.7173 187.267C-23.1125 187.28 -23.416 187.682 -23.7935 187.84C-24.1849 188.004 -24.5984 188.162 -25.0326 188.185C-25.6142 188.215 -26.0632 188.658 -26.6146 188.595C-27.4896 188.495 -28.2586 188.767 -29.0801 188.818C-30.0636 188.878 -31.0516 188.987 -32.0506 188.915C-33.0624 188.842 -34.0713 188.807 -35.1076 188.635C-38.2324 188.116 -41.3417 187.384 -44.4522 186.265C-44.6986 186.177 -44.9689 186.09 -45.1993 186.113C-45.5941 186.153 -45.8206 185.739 -46.1306 185.604C-46.4504 185.465 -46.8555 185.58 -47.1131 185.373C-47.8754 184.763 -48.71 184.618 -49.503 184.232C-50.2963 183.845 -51.0933 183.476 -51.8801 183.063C-52.6527 182.657 -53.4162 182.216 -54.1792 181.775C-54.8059 181.414 -55.5453 181.332 -56.1676 180.27C-56.1352 180.224 -55.9878 180.017 -55.8405 179.81C-56.1868 179.671 -56.4044 179.584 -56.6229 179.496C-56.6168 179.32 -56.611 179.144 -56.6008 178.843C-58.0447 178.495 -59.1665 177.462 -60.2822 176.375C-60.7545 175.914 -61.3251 175.591 -61.882 175.183C-61.8798 175.157 -61.8659 175.019 -61.8541 174.896C-62.8003 173.957 -63.7056 172.964 -64.6916 172.108C-65.5405 171.371 -66.3447 170.568 -67.1947 169.841C-68.0558 169.103 -68.9946 168.486 -69.5934 167.407C-70.9057 166.583 -71.7474 165.101 -72.9275 164.124C-73.4986 163.651 -73.7192 162.651 -74.5362 162.72C-74.5109 161.723 -75.2471 161.585 -75.7033 161.146C-75.5512 160.703 -75.8832 160.272 -76.1738 159.992C-76.842 159.346 -77.3693 158.584 -77.9367 157.85C-78.5189 157.097 -79.155 156.392 -79.5762 155.507C-79.7543 155.133 -79.9592 154.557 -80.2032 154.462C-80.9022 154.19 -80.8712 153.134 -81.5909 152.99L-82.6878 151.09C-82.8182 150.865 -82.9141 150.537 -83.0856 150.43C-83.6742 150.066 -83.8848 149.42 -84.2513 148.887C-84.6152 148.359 -85.0848 147.899 -85.398 147.347C-85.8821 146.493 -86.5518 145.894 -87.2401 145.316C-89.2078 143.663 -91.3646 142.563 -93.537 141.541C-94.4173 141.127 -95.3388 140.936 -96.2257 140.611C-98.4127 139.81 -100.597 139.031 -102.799 138.434C-103.855 138.147 -104.913 137.818 -105.968 137.589C-107.211 137.319 -108.456 137.103 -109.695 136.926C-110.549 136.804 -111.393 136.836 -112.248 136.711C-113.232 136.569 -114.212 136.386 -115.194 136.349C-116.159 136.312 -117.154 136.027 -118.137 135.996C-119.03 135.969 -119.968 135.668 -120.91 135.483C-120.911 135.487 -120.939 135.606 -120.955 135.678C-121.249 135.505 -121.54 135.219 -121.796 135.201C-123.69 135.069 -125.54 134.284 -127.405 133.569C-129.436 132.791 -131.303 131.542 -133.11 130.134C-135.461 128.301 -137.802 126.436 -139.633 123.85C-140.335 123.523 -140.353 122.548 -140.87 122.183C-141.554 121.7 -141.888 120.984 -142.136 120.337C-142.446 119.53 -142.787 118.767 -143.159 118.163C-143.247 117.618 -143.246 117.185 -143.394 116.792C-143.831 115.625 -143.922 114.474 -143.923 113.346C-143.926 111.412 -144.131 109.412 -143.532 107.657C-143.361 107.156 -143.455 106.484 -143.263 106.004C-142.291 103.58 -141.472 101.053 -140.304 98.761C-139.31 96.8128 -138.233 94.9724 -136.829 93.3855C-135.919 92.3559 -134.981 91.3367 -133.956 90.4932C-132.752 89.5012 -131.561 88.4293 -130.096 87.8061C-129.607 87.5984 -129.143 87.3226 -128.713 87.0092C-127.297 85.9789 -125.621 85.4418 -124.037 84.7444C-123.433 84.4786 -122.815 84.0349 -122.17 84.0464C-121.514 84.0579 -121.187 83.5574 -120.606 83.5203C-120.014 83.4826 -119.425 83.3583 -118.897 83.1409C-117.994 82.7696 -116.998 82.6835 -116.051 82.4499C-114.997 82.1898 -113.926 81.9864 -112.838 81.8238C-111.407 81.6095 -109.991 81.3378 -108.575 81.0702C-107.195 80.8093 -105.823 80.5214 -104.446 80.2477C-103.333 80.0266 -102.246 79.698 -101.13 79.5194C-99.7622 79.3002 -98.5208 78.7706 -97.1648 78.5324C-96.6742 78.4462 -96.215 78.1911 -95.7108 78.0645C-95.1794 77.9308 -94.7942 77.4231 -94.1411 77.5543C-93.2305 76.8773 -92.1018 76.6304 -91.1042 76.132C-90.1445 75.6529 -89.1634 75.19 -88.4391 74.2994C-88.1096 73.8936 -87.2997 73.8951 -87.1362 73.439C-86.9175 72.8278 -86.252 72.9299 -86.0761 72.3248C-85.9222 71.796 -85.1324 71.8954 -85.0442 71.2168C-83.5207 70.0605 -82.5917 68.2774 -81.6175 66.5943C-80.571 64.7886 -79.6638 62.8522 -79.1179 60.6474C-78.694 58.939 -78.1021 57.3168 -77.8385 55.5192C-77.3628 52.2721 -76.9679 49.0013 -76.7971 45.6417C-76.7161 44.0643 -76.6336 42.4806 -76.5086 40.9189C-76.3484 38.9269 -76.2949 36.8942 -76.0453 34.9408C-75.7517 32.6342 -75.5114 30.304 -74.9538 28.0904C-74.5762 26.5886 -74.2551 25.0457 -73.8534 23.5531C-73.5182 22.306 -73.1212 21.0829 -72.641 19.9265C-72.2134 18.898 -71.8889 17.8063 -71.3887 16.8143C-70.8803 15.8068 -70.4838 14.6928 -69.9779 13.6729C-69.0806 11.8657 -68.1778 10.0626 -67.1289 8.37353C-66.3749 7.15928 -65.608 5.96477 -64.7507 4.85011C-63.4635 3.17806 -62.1959 1.4855 -60.9025 -0.180213C-60.277 -0.985868 -59.633 -1.81619 -58.8853 -2.4363C-58.0365 -3.1393 -57.5284 -4.28524 -56.4339 -4.65372C-55.4768 -6.06157 -54.0182 -6.85063 -52.9208 -8.09325C-52.4802 -8.59246 -51.8152 -8.81384 -51.3451 -9.34668C-50.9066 -9.84403 -50.2797 -10.1343 -49.7849 -10.6144C-49.1887 -11.1922 -48.4186 -11.5372 -47.7881 -12.1169C-46.9671 -12.8715 -45.9556 -13.3845 -45.0531 -14.0549C-43.0051 -15.5777 -40.5208 -16.4116 -38.6207 -18.1933C-37.8639 -18.9023 -36.7497 -18.8966 -35.8898 -19.4063C-34.8674 -20.0113 -33.8447 -20.6176 -32.8002 -21.1855C-31.7837 -21.7385 -30.7882 -22.3099 -29.6715 -22.7065C-28.2744 -23.2027 -27.081 -24.1338 -25.6558 -24.6408C-24.1771 -25.1669 -22.8261 -25.9873 -21.4193 -26.6794C-21.3454 -26.7155 -21.2708 -26.8163 -21.2068 -26.7928C-20.605 -26.571 -20.2379 -26.9568 -19.873 -27.2365C-19.4392 -27.5698 -18.8776 -27.5059 -18.4097 -27.6991C-17.526 -28.0647 -16.6575 -28.462 -15.7838 -28.8476C-15.7095 -28.8812 -15.6246 -28.9893 -15.5731 -28.9606C-15.0393 -28.6618 -14.8084 -29.1473 -14.4372 -29.2608C-14.0267 -29.3857 -13.5997 -29.473 -13.1998 -29.6216C-12.4942 -29.8837 -11.8468 -30.361 -11.0952 -30.418C-10.0437 -30.4983 -9.18624 -31.0438 -8.14268 -31.1334C-7.69171 -31.1728 -7.23331 -31.3824 -6.80297 -31.5459C-6.32332 -31.7287 -5.83448 -31.8603 -5.34003 -32.0011C-3.88041 -32.4179 -2.34629 -32.6136 -0.888492 -33.0452C-0.0976527 -33.2795 0.817662 -33.2261 1.65484 -33.4387C2.50799 -33.6553 3.5074 -33.458 4.29529 -33.9229C5.15767 -33.6139 5.86805 -34.0201 6.66596 -34.0177C7.50359 -34.0149 8.28019 -34.2324 9.1294 -34.243C10.8363 -34.2657 12.5396 -34.3163 14.2551 -34.3042C16.5 -34.2886 18.7743 -34.0544 21.0342 -33.92C22.4211 -33.837 23.8138 -33.6193 25.197 -33.4074C26.7321 -33.1724 28.2835 -32.8738 29.8365 -32.4886C30.9002 -32.2249 31.955 -31.8353 33.0058 -31.6067C34.0191 -31.3863 35.0173 -31.0144 36.022 -30.7493C36.8093 -30.5416 37.5912 -30.1404 38.3754 -29.8262C39.1596 -29.5113 39.9488 -29.0613 40.726 -28.9189C41.5183 -28.7738 42.1296 -28.2045 42.8225 -27.8323C42.8643 -27.8093 42.9096 -27.795 42.9529 -27.7795C45.0795 -27.0148 47.0613 -25.7075 49.0701 -24.494C51.0706 -23.2869 54.4192 -20.605 56.252 -18.994C57.4286 -17.9595 58.4878 -16.8121 59.5557 -15.6585C60.1434 -15.0238 60.8563 -14.4202 61.2296 -13.6744C61.8524 -12.429 62.9209 -11.5079 63.3646 -10.1226C63.6597 -9.20023 64.287 -8.36081 64.6641 -7.40479C65.0991 -6.30314 65.4284 -5.19812 65.6365 -4.10277C65.9698 -2.35248 65.9478 -0.638596 65.7559 1.0254C65.5762 2.58419 65.1297 4.00373 64.7406 5.45853C64.2281 7.37331 63.5547 9.18792 62.6985 10.8626C61.6006 13.0112 60.5467 15.2001 59.1727 17.1267C58.3785 18.2407 57.8304 19.6041 56.9865 20.66C55.8365 22.0989 55.0224 23.8249 53.9979 25.3685C53.0844 26.7438 52.4333 28.3644 51.6711 29.88C50.8662 31.4786 50.3459 33.2626 49.9786 35.1088C49.6688 36.6657 49.5609 38.3264 49.4689 39.9732C49.4089 41.0495 49.4279 42.1797 49.6137 43.2906C49.7965 44.3853 50.0342 45.4968 50.2287 46.592C50.46 47.8897 50.845 49.1688 51.1981 50.4359C51.5674 51.7627 52.0733 53.1068 52.6236 54.398C53.2662 55.906 53.9399 57.4173 54.66 58.8918C55.3495 60.3043 55.8241 61.8278 56.7729 63.1258C56.8643 63.2508 57.0064 63.4202 56.9975 63.5275C56.9375 64.2947 57.5567 64.8044 57.8286 65.4422C58.1008 66.0786 58.3484 66.7266 58.6529 67.3496C59.3 68.6725 59.9767 69.9824 60.6422 71.2973C60.6656 71.3442 60.7081 71.3873 60.7183 71.4338C61.1109 73.2759 62.2721 74.9257 62.6642 76.7681C63.1556 77.2792 63.0318 78.0169 63.4166 78.5319C63.8381 79.0953 63.8985 79.7318 64.1219 80.3234C64.6158 81.628 65.0069 82.9627 65.3989 84.2916C65.7209 85.3849 65.9551 86.4831 66.1265 87.5924C66.3036 88.7414 66.5898 89.8754 66.6835 91.044C66.8995 93.7418 66.9977 96.3968 66.6269 98.9384C66.3873 100.583 66.1818 102.265 65.7104 103.784C65.2331 105.321 64.7589 106.869 64.1775 108.358C63.2702 110.683 62.081 112.773 61.0285 114.975C60.4128 115.287 60.3121 116.111 59.8398 116.584C59.4106 117.013 59.0658 117.564 58.7658 118.127C58.4405 118.738 57.9969 119.22 57.6071 119.761C57.103 120.461 56.6815 121.279 56.0512 121.812C54.5357 123.095 53.5662 125.026 51.8651 126.076C51.8744 126.865 50.979 126.647 50.8107 127.347C50.6928 127.837 49.9571 127.775 49.6721 128.357C49.4344 128.842 48.7117 128.94 48.2423 129.27C47.9634 129.465 47.7848 129.81 47.5148 130.022C47.1952 130.274 46.8107 130.432 46.4874 130.679C46.3854 130.756 46.3895 130.989 46.3767 131.033C46.0279 131.088 45.764 131.063 45.5741 131.169C44.4628 131.784 43.3875 132.465 42.2623 133.055C41.1649 133.629 40.0257 134.128 38.8969 134.645C38.3258 134.906 37.8888 135.412 37.1315 135.351C36.8468 135.328 36.6205 135.784 36.3038 136.08ZM68.9661 78.6114C68.6118 77.6263 68.2512 76.9342 68.1418 76.2496C67.9642 75.1439 67.375 74.1604 67.0643 73.1011C66.8736 72.4535 66.4353 71.8195 66.3392 71.1889C66.272 70.7487 66.0984 70.4336 65.9036 70.0962C65.2998 69.0495 64.8529 67.9732 64.5501 66.8177C64.3832 66.1796 63.9525 65.5942 63.721 64.9145C63.3217 63.7451 62.6474 62.6349 62.0835 61.5021C61.8629 61.0589 61.5868 60.6762 61.5402 60.1292C61.5078 59.7485 61.1092 59.3205 60.8739 58.9129C60.6127 58.4606 60.2155 58.0079 60.133 57.5566C60.0649 57.1818 59.8592 56.866 59.7456 56.5601C59.3463 55.4881 58.763 54.4661 58.2741 53.4154C58.0251 52.8804 57.8421 52.32 57.6027 51.7801C57.3636 51.2387 56.8533 50.7823 56.9449 50.1402C56.2192 48.9807 56.0061 47.6541 55.3985 46.4483C55.0055 45.6694 55.0857 44.7552 54.543 43.991C54.545 42.3948 53.7912 40.77 53.8441 39.1583C53.8899 37.7372 53.8856 36.3477 54.1991 34.9817C54.5866 33.295 55.3569 31.9061 55.9591 30.3966C56.282 29.5872 56.8007 28.8571 57.2765 28.1313C57.7516 27.4051 58.2577 26.7029 58.6693 25.9252C59.0839 25.1431 59.5613 24.401 60.0439 23.7031C60.8723 22.5069 61.6868 21.2955 62.437 20.035C63.5553 18.1553 64.6139 16.2198 65.6075 14.2375C66.209 13.0377 66.5891 11.6664 67.1603 10.4403C67.8271 9.00833 68.2476 7.42395 68.7299 5.88884C69.2055 4.37356 69.3814 2.67832 69.6535 1.04693C70.1804 -2.1043 70.0469 -5.40306 69.2726 -8.78104C68.9366 -10.2484 68.4894 -11.7173 67.874 -13.1826C67.2496 -14.6672 66.391 -15.9795 65.6561 -17.3758C65.4552 -17.7581 65.3265 -18.2677 64.8174 -18.4011C64.7711 -18.4128 64.7987 -18.9231 64.6816 -19.0286C64.3379 -19.3398 64.0987 -19.7344 63.8274 -20.096C63.5027 -20.5295 63.2309 -20.9777 62.8405 -21.3853C62.5022 -21.7393 62.1734 -21.8959 61.9928 -21.9933C61.7925 -22.4356 61.7181 -22.8252 61.5123 -23.0176C59.3132 -25.0754 57.159 -27.1988 54.754 -28.9327C52.7073 -30.4083 50.6503 -31.8514 48.505 -33.0379C45.5365 -34.6792 40.7707 -36.807 37.6087 -37.8231C34.9269 -38.6846 32.2344 -39.6586 29.5353 -39.8539C29.4112 -39.8625 29.2587 -40.0896 29.0755 -40.2546C29.0419 -40.135 29.0121 -40.0289 28.9817 -39.9211C27.8343 -40.4324 26.6784 -40.6528 25.5183 -40.7533C24.6644 -40.8275 23.8085 -40.906 22.9497 -41.0319C21.9258 -41.1825 20.9237 -41.2356 19.9316 -41.165C19.5885 -41.1408 19.1716 -41.4309 18.8239 -41.4146C17.8759 -41.3695 16.9134 -41.401 15.958 -41.4048C15.1577 -41.4078 14.3134 -41.6528 13.5097 -41.6698C12.8737 -41.6841 12.2715 -41.5017 11.6481 -41.4337C11.299 -41.3954 10.9258 -41.4466 10.5809 -41.3967C10.2911 -41.3549 9.84718 -41.6333 9.76336 -41.1085C9.43144 -41.2029 9.12925 -41.4278 8.76653 -41.2536C8.48663 -41.1198 8.04682 -41.3144 7.69051 -41.3031C7.37414 -41.2929 7.07889 -41.1849 6.76714 -41.1469C6.41835 -41.1054 6.01154 -41.1897 5.71962 -41.047C5.29094 -40.8373 4.88349 -40.8217 4.3703 -40.9513C3.98546 -41.049 3.57221 -40.9325 3.21382 -40.8111C2.18502 -40.4633 0.930057 -40.793 0.00865108 -40.1357C-0.91309 -40.4103 -1.60244 -39.8677 -2.42657 -39.7866C-3.21184 -39.7094 -3.91969 -39.3134 -4.70969 -39.2733C-5.10482 -39.2535 -5.40783 -38.9704 -5.72675 -39.0404C-6.13652 -39.1316 -6.3532 -38.9361 -6.64954 -38.8354C-6.97659 -38.7228 -7.34664 -38.7083 -7.66861 -38.5861C-7.97373 -38.4689 -8.22494 -38.2323 -8.53112 -38.1179C-8.69637 -38.057 -8.92715 -38.1421 -9.11061 -38.1596C-9.18316 -37.9624 -9.24177 -37.8052 -9.29695 -37.6546C-9.38278 -37.6355 -9.46072 -37.5839 -9.53446 -37.607C-9.87038 -37.711 -10.1787 -37.9258 -10.5219 -37.7051C-10.8355 -37.5034 -11.277 -37.5179 -11.6375 -37.3814C-11.9673 -37.2574 -12.2218 -36.9372 -12.668 -37.16C-13.1797 -36.6668 -13.9387 -36.7163 -14.5445 -36.4329C-14.971 -36.2331 -15.3409 -35.9658 -15.8886 -35.9919C-16.3206 -36.0125 -16.5517 -35.3696 -17.1295 -35.6391C-17.1897 -35.6667 -17.2728 -35.5789 -17.3454 -35.545C-18.4327 -35.038 -19.5123 -34.5148 -20.6115 -34.0302C-21.1108 -33.8102 -21.6469 -33.664 -22.1672 -33.485C-22.6483 -33.3193 -22.9515 -32.7661 -23.6211 -32.9853C-23.7864 -33.0391 -23.9741 -32.8033 -24.1518 -32.7008C-24.5778 -32.4548 -25.0868 -32.3023 -25.4064 -31.9379C-25.7305 -31.567 -26.5446 -32.2097 -26.5598 -31.3543C-27.0954 -31.5506 -27.3935 -31.1589 -27.7675 -30.9682C-28.2052 -30.7453 -28.5789 -30.3286 -29.0562 -30.2653C-30.4654 -30.0787 -31.5025 -29.2033 -32.6096 -28.497C-33.9796 -27.6238 -35.6072 -27.2925 -36.9672 -26.4092C-38.3415 -25.5175 -39.7888 -24.7403 -41.2189 -23.9398C-42.1628 -23.4115 -42.8295 -22.4878 -43.8354 -22.0337C-44.806 -21.5968 -45.815 -21.1443 -46.5792 -20.4131C-47.3559 -19.6701 -48.283 -19.2244 -49.1314 -18.6291C-49.5439 -18.3392 -49.8821 -17.9376 -50.2802 -17.6235C-50.6806 -17.308 -51.2649 -17.2381 -51.4156 -16.5984C-52.3103 -16.3618 -52.6741 -15.341 -53.5152 -15.0305C-53.9467 -14.8717 -54.1526 -14.4582 -54.4497 -14.1407C-54.7432 -13.8266 -55.1387 -13.6885 -55.4053 -13.2685C-55.7658 -12.7008 -56.4195 -12.403 -56.9252 -11.9597C-57.1242 -11.7851 -57.2339 -11.4909 -57.4363 -11.3229C-58.3332 -10.5789 -59.1163 -9.70277 -59.8953 -8.8158C-61.0282 -7.52477 -62.2596 -6.33677 -63.3136 -4.9659C-63.7171 -4.44033 -64.2418 -4.04716 -64.5686 -3.42388C-64.8825 -2.82333 -65.3532 -2.34921 -65.7441 -1.80903C-66.1801 -1.20631 -66.6157 -0.601865 -67.031 0.0214053C-67.7735 1.13551 -68.4767 2.28724 -69.2378 3.38282C-70.9926 5.9094 -72.3653 8.75342 -73.8088 11.5388C-74.1259 12.1492 -74.3402 12.8402 -74.6506 13.4566C-75.5108 15.1695 -76.0088 17.1336 -76.906 18.8194C-77.1732 20.9462 -78.2288 22.6298 -78.565 24.7354C-78.8178 26.3191 -79.4899 27.7276 -79.7364 29.313C-80.0548 31.3639 -80.5877 33.3469 -80.4738 35.5649C-80.4612 35.805 -80.542 36.0275 -80.5659 36.2629C-80.7215 37.7932 -80.9291 39.309 -81.0121 40.8604C-81.1006 42.5357 -81.2399 44.1953 -81.3199 45.869C-81.422 47.9815 -81.5533 50.0749 -81.8422 52.1227C-81.9369 52.7937 -81.8464 53.541 -81.9666 54.1976C-82.4361 56.7584 -82.7843 59.4077 -83.8304 61.6425C-84.67 63.4343 -85.5003 65.2539 -86.925 66.5734C-87.6139 67.2114 -88.2864 67.867 -88.9876 68.4947C-89.6234 69.0642 -90.2834 69.5613 -91.0217 69.9452C-91.5028 70.1957 -92.0729 70.2794 -92.568 70.5075C-93.0887 70.7471 -93.5202 71.2424 -94.0769 71.3096C-94.6313 71.3763 -95.0302 71.7638 -95.5269 71.7872C-96.06 71.8124 -96.4085 72.1655 -96.87 72.2236C-97.8962 72.3523 -98.7889 72.8133 -99.8102 72.9757C-100.648 73.1092 -101.469 73.4111 -102.316 73.5867C-103.46 73.8244 -104.622 74.0127 -105.751 74.2928C-107.484 74.7226 -109.288 74.9319 -111.038 75.3161C-112.709 75.6823 -114.436 75.8929 -116.062 76.3981C-116.719 76.1024 -117.018 76.8418 -117.677 76.7177C-118.17 76.6243 -118.643 76.9945 -119.132 77.1414C-119.504 77.2539 -119.9 77.3093 -120.26 77.4456C-120.59 77.5703 -120.843 77.8837 -121.293 77.6768C-121.351 77.6505 -121.43 77.7559 -121.504 77.7898C-122.449 78.216 -123.339 78.8056 -124.354 79.027C-125.799 79.3423 -126.857 80.3116 -128.138 80.8909C-128.453 81.0338 -128.671 81.3807 -129.163 81.1775C-129.348 81.1006 -129.656 81.3128 -129.79 81.5063C-130.531 82.5798 -131.781 82.8507 -132.747 83.5653C-133.219 83.9147 -133.655 84.3161 -134.101 84.7035C-134.516 85.0652 -135.049 85.1936 -135.403 85.733C-135.707 86.1982 -136.303 86.4648 -136.711 86.9135C-137.111 87.3524 -137.708 87.5911 -138.028 88.0908C-138.554 88.9083 -139.382 89.3389 -139.914 90.1675C-140.42 90.9552 -141.146 91.5653 -141.692 92.3431C-142.121 92.9532 -142.588 93.5332 -142.953 94.1965C-143.707 95.5653 -144.472 96.932 -145.109 98.3891C-146.204 100.895 -147.232 103.448 -148.021 106.162C-148.284 107.068 -148.346 108.051 -148.604 108.938C-149.002 110.304 -148.989 111.818 -149.166 113.259C-149.312 114.444 -149.191 115.736 -149.14 116.989C-149.084 118.361 -148.798 119.745 -148.364 121.118C-148.131 121.854 -147.959 122.599 -147.579 123.312C-147.23 123.969 -147.019 124.697 -146.656 125.344C-146.371 125.852 -145.921 126.263 -145.59 126.751C-145.27 127.224 -145.071 127.992 -144.707 128.18C-144.14 128.473 -144.106 129.323 -143.485 129.396C-142.39 130.908 -140.998 132.012 -139.695 133.256C-138.505 134.39 -137.198 135.197 -135.944 136.138C-134.707 137.066 -133.418 137.897 -132.072 138.596C-130.437 139.447 -128.807 140.076 -127.122 140.581C-124.685 141.313 -122.26 141.799 -119.832 142.221C-118.306 142.487 -116.78 142.717 -115.256 142.942C-113.778 143.159 -112.303 143.319 -110.824 143.56C-109.702 143.743 -108.588 143.798 -107.451 144.213C-106.749 144.469 -106.025 144.509 -105.317 144.731C-104.111 145.106 -102.911 145.623 -101.705 145.942C-100.31 146.31 -98.9385 146.834 -97.5734 147.421C-95.4851 148.319 -93.4614 149.478 -91.457 150.703C-90.9827 150.992 -90.6196 151.483 -90.2335 151.873C-89.5901 152.524 -89.1218 153.406 -88.5679 154.179C-88.1643 154.743 -87.7347 155.286 -87.3267 155.847C-86.9187 156.407 -86.7571 157.161 -86.086 157.53C-85.9182 157.622 -85.8291 157.969 -85.6867 158.187C-85.2995 158.78 -84.9004 159.366 -84.5097 159.957C-84.1455 160.508 -83.8575 161.305 -83.4087 161.559C-82.756 161.929 -82.6659 162.689 -82.0568 163.106C-81.4514 163.521 -81.0671 164.446 -80.5478 165.113C-79.4347 166.543 -78.3158 167.97 -77.1621 169.361C-76.4864 170.175 -75.7219 170.891 -75.029 171.697C-74.3784 172.454 -73.6033 173.073 -72.9155 173.795C-72.1585 174.589 -71.3101 175.25 -70.5097 175.955C-69.0262 177.262 -67.7255 178.814 -66.2279 180.08C-64.3029 181.708 -62.5654 183.683 -60.396 184.861C-59.1132 186.257 -57.4543 186.723 -56.0454 187.83C-55.413 188.327 -54.6406 188.538 -53.9422 188.917C-51.5347 190.219 -49.046 191.025 -46.5978 192.077C-44.7684 192.863 -42.9189 193.415 -41.0743 193.846C-39.298 194.26 -37.5012 194.836 -35.7454 194.761C-34.736 195.233 -33.7786 194.981 -32.7817 195.179C-31.9402 195.345 -31.0942 195.267 -30.2741 195.198C-29.137 195.104 -28.0417 194.815 -26.891 194.81C-26.2508 194.808 -25.827 194.392 -25.1852 194.388C-24.5143 194.384 -23.9594 193.82 -23.2887 193.75C-22.1637 193.632 -21.3849 192.907 -20.4653 192.433C-19.5547 191.964 -18.6287 191.5 -17.8185 190.877C-17.2812 190.463 -16.829 189.887 -16.3426 189.394C-14.7207 187.747 -13.6099 185.656 -12.5569 183.513C-11.9986 182.377 -11.5278 181.154 -11.1773 179.882C-10.3184 176.765 -9.66725 173.529 -9.42117 170.153C-9.2098 167.263 -8.74332 164.485 -8.34254 161.677C-8.04596 159.603 -7.39575 157.713 -6.39865 156.045C-5.58722 154.687 -4.57355 153.586 -3.45965 152.546C-1.76068 150.959 0.360785 150.107 2.30454 148.953C3.04901 148.511 3.91229 148.174 4.85373 148.087C5.17115 148.057 5.41736 147.77 5.7226 147.662C6.00972 147.56 6.33686 147.553 6.63811 147.48C7.77597 147.207 8.89705 146.883 10.0507 146.657C11.1547 146.44 12.276 146.177 13.4107 146.169C15.5218 146.154 17.592 145.965 19.692 145.911C21.9108 145.853 24.1381 145.765 26.2736 145.404C27.8538 145.137 29.5219 145.044 30.9457 144.306C31.5171 144.472 31.8406 143.958 32.3006 143.93C32.8615 143.896 33.2624 143.446 33.7568 143.497C34.3582 143.558 34.6312 143.117 35.0915 143.001C36.5765 142.63 38.0018 142.135 39.2804 141.319C39.3546 141.272 39.5322 141.393 39.6608 141.436C39.6838 141.308 39.7083 141.173 39.7194 141.111C40.1677 140.959 40.582 140.845 40.9732 140.683C41.7803 140.347 42.3893 139.621 43.3814 139.631C43.6132 139.633 43.7874 139.312 44.09 139.052C44.109 139.054 44.3021 139.074 44.481 139.093C44.5174 138.888 44.5416 138.754 44.5656 138.621C44.6913 138.667 44.8197 138.713 45.003 138.779C45.0722 138.651 45.1488 138.511 45.2144 138.39C45.5264 138.28 46.0291 138.288 46.1202 138.033C46.3439 137.412 46.8511 137.249 47.3071 137.059C48.5173 136.555 49.4267 135.59 50.4145 134.788C51.4294 133.966 52.4075 133.041 53.3187 132.069C53.8718 131.479 54.5508 131.024 54.9625 130.25C55.1472 129.902 55.5945 129.775 55.8217 129.451C56.1818 128.939 56.7856 128.649 56.8783 127.886C57.4999 127.733 57.8535 127.181 58.1512 126.674C58.4762 126.121 58.9253 125.7 59.2474 125.14C59.5329 124.645 59.9513 124.204 60.3053 123.734C60.9411 122.891 61.7328 122.156 62.1581 121.164C62.6337 120.052 63.4495 119.282 63.9254 118.178C64.4558 116.949 65.2481 115.908 65.8448 114.722C66.0967 114.221 66.6326 113.845 66.3867 113.032C67.0381 112.758 66.9401 111.865 67.3045 111.341C67.6384 110.86 67.8316 110.235 68.0361 109.642C68.4102 108.557 68.6822 107.404 69.1144 106.36C69.6904 104.972 69.7548 103.32 70.3149 101.933C70.2025 100.662 70.9255 99.6925 70.6602 98.3395C70.5608 97.8309 70.7523 97.305 70.8556 96.8088C71.2517 94.9061 71.068 92.8459 71.0714 90.8356C71.0741 89.513 70.9365 88.1692 70.7301 86.8261C70.4548 85.0383 70.2111 83.2456 69.717 81.4575C69.4767 80.5878 69.22 79.7202 68.9818 78.8505C68.9447 78.714 68.9643 78.5713 68.9661 78.6114Z" fill="#F7F5F1"/>
<path d="M18.9675 119.792C18.7551 119.786 18.3908 119.663 18.1849 119.795C17.7355 120.085 17.2173 120.189 16.716 120.331C16.2438 120.465 15.8064 120.692 15.3295 120.787C14.6874 120.916 14.0587 121.084 13.4122 121.199C12.6834 121.328 11.9709 121.529 11.2221 121.571C10.5606 121.608 9.90128 121.652 9.24038 121.69C8.57948 121.728 7.91905 121.801 7.25744 121.797C5.44655 121.785 3.69118 121.995 1.91475 122.119C1.25478 122.165 0.549568 122.151 -0.0255899 122.393C-0.716529 122.684 -1.56327 122.565 -2.1622 123.056C-2.95441 122.801 -3.44564 123.493 -4.17781 123.427C-5.04031 123.925 -6.06637 124.101 -6.87808 124.707C-7.09736 124.871 -7.32487 125.026 -7.68882 124.992C-7.98205 124.965 -8.24339 125.282 -8.50134 125.473C-8.63405 125.571 -8.70968 125.755 -8.84358 125.85C-9.38731 126.237 -9.99078 126.507 -10.4771 127.015C-10.9285 127.488 -11.4217 127.925 -11.8852 128.395C-12.8193 129.342 -13.6505 130.394 -14.3618 131.565C-15.6853 133.743 -16.5089 136.255 -16.9735 138.968C-17.2394 140.522 -17.4029 142.125 -17.5723 143.723C-17.8471 146.311 -18.0959 148.93 -18.7746 151.352C-19.0166 152.216 -19.3381 153.056 -19.7542 153.797C-20.4299 155 -21.3163 155.799 -22.4457 156.423C-22.9761 156.716 -23.4368 157.138 -24.1197 157.16C-24.4082 157.169 -24.6297 157.463 -24.9054 157.578C-25.1911 157.698 -25.4929 157.813 -25.8099 157.83C-26.2345 157.852 -26.5623 158.175 -26.9648 158.129C-27.6036 158.056 -28.165 158.255 -28.7647 158.292C-29.4827 158.336 -30.2039 158.415 -30.9332 158.363C-31.6719 158.31 -32.4084 158.284 -33.165 158.158C-35.4461 157.78 -37.7161 157.245 -39.9868 156.429C-40.1667 156.364 -40.364 156.3 -40.5322 156.317C-40.8204 156.347 -40.9858 156.044 -41.2121 155.946C-41.4456 155.844 -41.7413 155.928 -41.9293 155.777C-42.4859 155.331 -43.0951 155.226 -43.674 154.944C-44.2531 154.662 -44.835 154.392 -45.4094 154.091C-45.9734 153.794 -46.5308 153.472 -47.0878 153.15C-47.5453 152.887 -48.0851 152.827 -48.5394 152.052C-48.5158 152.018 -48.4082 151.867 -48.3006 151.716C-48.5534 151.614 -48.7122 151.551 -48.8718 151.486C-48.8673 151.358 -48.8631 151.23 -48.8556 151.01C-49.9097 150.756 -50.7287 150.002 -51.5432 149.208C-51.888 148.871 -52.3045 148.636 -52.7111 148.338C-52.7095 148.319 -52.6993 148.219 -52.6907 148.129C-53.3815 147.443 -54.0424 146.718 -54.7622 146.093C-55.3819 145.555 -55.969 144.969 -56.5895 144.438C-57.2181 143.9 -57.9035 143.449 -58.3406 142.661C-59.2987 142.059 -59.9131 140.978 -60.7747 140.265C-61.1915 139.92 -61.3526 139.189 -61.949 139.24C-61.9305 138.512 -62.468 138.411 -62.8011 138.091C-62.69 137.767 -62.9324 137.453 -63.1446 137.248C-63.6323 136.776 -64.0172 136.22 -64.4315 135.684C-64.8565 135.134 -65.3209 134.62 -65.6284 133.974C-65.7584 133.701 -65.908 133.28 -66.0861 133.211C-66.5964 133.013 -66.5738 132.242 -67.0992 132.137L-67.8999 130.75C-67.9952 130.585 -68.0652 130.346 -68.1903 130.268C-68.6201 130.002 -68.7738 129.53 -69.0413 129.141C-69.307 128.756 -69.6498 128.42 -69.8785 128.017C-70.2318 127.393 -70.7208 126.956 -71.2232 126.534C-72.6597 125.327 -74.2343 124.524 -75.8202 123.779C-76.4628 123.476 -77.1355 123.337 -77.783 123.099C-79.3796 122.515 -80.9743 121.946 -82.5814 121.51C-83.3529 121.301 -84.1248 121.061 -84.8955 120.893C-85.803 120.696 -86.7114 120.539 -87.6162 120.409C-88.2396 120.32 -88.8555 120.343 -89.4794 120.253C-90.198 120.149 -90.9137 120.015 -91.6301 119.988C-92.3349 119.961 -93.0615 119.753 -93.7789 119.73C-94.4311 119.711 -95.1156 119.491 -95.8036 119.356C-95.8042 119.358 -95.8245 119.446 -95.8364 119.498C-96.0507 119.372 -96.2631 119.163 -96.4501 119.15C-97.8328 119.054 -99.1833 118.48 -100.545 117.958C-102.027 117.39 -103.39 116.479 -104.71 115.451C-106.426 114.113 -108.135 112.751 -109.471 110.863C-109.984 110.625 -109.997 109.913 -110.374 109.646C-110.874 109.294 -111.118 108.771 -111.299 108.299C-111.525 107.71 -111.774 107.153 -112.046 106.712C-112.11 106.314 -112.11 105.998 -112.217 105.711C-112.537 104.859 -112.603 104.019 -112.603 103.195C-112.605 101.783 -112.755 100.323 -112.318 99.0421C-112.193 98.6759 -112.262 98.186 -112.121 97.8349C-111.412 96.0656 -110.814 94.2206 -109.961 92.5477C-109.236 91.1254 -108.449 89.7819 -107.424 88.6234C-106.76 87.8717 -106.075 87.1277 -105.328 86.5119C-104.448 85.7877 -103.579 85.0052 -102.51 84.5502C-102.152 84.3986 -101.813 84.1973 -101.499 83.9685C-100.466 83.2163 -99.2424 82.8243 -98.0862 82.3151C-97.6452 82.121 -97.1941 81.7972 -96.723 81.8056C-96.2442 81.814 -96.0056 81.4486 -95.5811 81.4215C-95.1493 81.394 -94.7194 81.3032 -94.3338 81.1445C-93.6747 80.8734 -92.9475 80.8106 -92.2562 80.6401C-91.4868 80.4501 -90.7045 80.3017 -89.9107 80.183C-88.8655 80.0265 -87.8323 79.8282 -86.7985 79.6329C-85.7907 79.4424 -84.7891 79.2322 -83.7844 79.0324C-82.9712 78.871 -82.1783 78.6311 -81.3635 78.5007C-80.3648 78.3407 -79.4585 77.954 -78.4686 77.7802C-78.1104 77.7172 -77.7752 77.531 -77.4071 77.4386C-77.0192 77.341 -76.738 76.9704 -76.2612 77.0661C-75.5964 76.5719 -74.7725 76.3916 -74.0442 76.0278C-73.3435 75.678 -72.6273 75.3401 -72.0985 74.69C-71.858 74.3937 -71.2668 74.3948 -71.1474 74.0618C-70.9877 73.6156 -70.5019 73.6902 -70.3735 73.2484C-70.2612 72.8624 -69.6846 72.9349 -69.6202 72.4395C-68.508 71.5954 -67.8298 70.2937 -67.1186 69.065C-66.3546 67.7467 -65.6924 66.3332 -65.2938 64.7236C-64.9843 63.4764 -64.5523 62.2921 -64.3598 60.9798C-64.0125 58.6093 -63.7242 56.2216 -63.5996 53.769C-63.5405 52.6174 -63.4802 51.4613 -63.3889 50.3212C-63.272 48.8669 -63.233 47.3831 -63.0507 45.957C-62.8364 44.2731 -62.661 42.572 -62.2539 40.956C-61.9782 39.8596 -61.7438 38.7333 -61.4505 37.6436C-61.2058 36.7332 -60.916 35.8403 -60.5655 34.9961C-60.2533 34.2453 -60.0164 33.4483 -59.6513 32.7241C-59.2801 31.9886 -58.9907 31.1754 -58.6214 30.4308C-57.9663 29.1115 -57.3072 27.7951 -56.5415 26.5621C-55.9911 25.6757 -55.4312 24.8036 -54.8053 23.9899C-53.8656 22.7692 -52.9403 21.5336 -51.996 20.3176C-51.5394 19.7295 -51.0692 19.1233 -50.5234 18.6706C-49.9038 18.1574 -49.5328 17.3208 -48.7338 17.0518C-48.0351 16.024 -46.9703 15.448 -46.1692 14.5409C-45.8475 14.1764 -45.362 14.0148 -45.0188 13.6258C-44.6987 13.2627 -44.2411 13.0508 -43.8798 12.7003C-43.4446 12.2786 -42.8824 12.0266 -42.4221 11.6035C-41.8228 11.0526 -41.0843 10.6781 -40.4255 10.1887C-38.9304 9.077 -37.1167 8.46825 -35.7296 7.16752C-35.1771 6.64995 -34.3638 6.65406 -33.736 6.28196C-32.9896 5.84035 -32.243 5.39767 -31.4805 4.98313C-30.7385 4.57939 -30.0117 4.16224 -29.1965 3.87271C-28.1765 3.51053 -27.3054 2.83076 -26.2649 2.46062C-25.1854 2.07661 -24.1991 1.47767 -23.1721 0.972391C-23.1181 0.946071 -23.0637 0.872507 -23.017 0.889596C-22.5776 1.05154 -22.3096 0.769901 -22.0433 0.565747C-21.7266 0.32237 -21.3166 0.369014 -20.975 0.227995C-20.3299 -0.0388879 -19.6958 -0.32892 -19.058 -0.610467C-19.0038 -0.634998 -18.9418 -0.713907 -18.9042 -0.692964C-18.5145 -0.474772 -18.346 -0.829265 -18.075 -0.912116C-17.7753 -1.00327 -17.4636 -1.06699 -17.1716 -1.17549C-16.6565 -1.3668 -16.1839 -1.71524 -15.6352 -1.75689C-14.8676 -1.81551 -14.2416 -2.21372 -13.4798 -2.27914C-13.1506 -2.30793 -12.8159 -2.46094 -12.5018 -2.58031C-12.1516 -2.7137 -11.7947 -2.80978 -11.4338 -2.9126C-10.3682 -3.21683 -9.24824 -3.35971 -8.18401 -3.6748C-7.60669 -3.84586 -6.93846 -3.80687 -6.3273 -3.96211C-5.70448 -4.1202 -4.97489 -3.97617 -4.3997 -4.31552C-3.77014 -4.09001 -3.25153 -4.38652 -2.66904 -4.38473C-2.05754 -4.38274 -1.4906 -4.54151 -0.870648 -4.54924C0.375411 -4.56584 1.61889 -4.60274 2.87127 -4.59393C4.51013 -4.58253 6.17042 -4.41156 7.82019 -4.31346C8.83266 -4.25284 9.84942 -4.09394 10.8592 -3.93925C11.9798 -3.76765 13.1124 -3.54968 14.2461 -3.26845C15.0227 -3.07599 15.7927 -2.79159 16.5598 -2.62468C17.2996 -2.46374 18.0283 -2.19229 18.7618 -1.9987C19.3365 -1.84712 19.9073 -1.55426 20.4798 -1.32487C21.0523 -1.09496 21.6284 -0.76646 22.1958 -0.662471C22.7742 -0.556595 23.2205 -0.140987 23.7263 0.130795C23.7568 0.147538 23.7899 0.158007 23.8215 0.169304C25.374 0.727533 26.8208 1.68195 28.2873 2.56784C29.7477 3.44903 32.1922 5.40692 33.5302 6.58302C34.3892 7.3382 35.1624 8.17584 35.9421 9.01801C36.3711 9.48136 36.8915 9.92197 37.1641 10.4665C37.6187 11.3757 38.3987 12.0481 38.7227 13.0594C38.9381 13.7327 39.396 14.3455 39.6713 15.0435C39.9889 15.8477 40.2293 16.6544 40.3812 17.454C40.6245 18.7318 40.6085 19.983 40.4684 21.1977C40.3372 22.3357 40.0113 23.372 39.7272 24.4341C39.353 25.8319 38.8615 27.1566 38.2364 28.3792C37.4349 29.9478 36.6655 31.5457 35.6624 32.9521C35.0827 33.7654 34.6825 34.7608 34.0665 35.5316C33.2269 36.582 32.6326 37.842 31.8847 38.9689C31.2178 39.973 30.7425 41.1561 30.1861 42.2625C29.5985 43.4295 29.2186 44.7318 28.9505 46.0796C28.7243 47.2163 28.6455 48.4286 28.5784 49.6308C28.5346 50.4165 28.5484 51.2417 28.6841 52.0526C28.8176 52.8518 28.9911 53.6632 29.1331 54.4627C29.3019 55.41 29.583 56.3439 29.8408 57.2689C30.1104 58.2375 30.4797 59.2187 30.8814 60.1613C31.3505 61.2622 31.8423 62.3655 32.368 63.4419C32.8714 64.4731 33.2178 65.5853 33.9105 66.5329C33.9773 66.6242 34.081 66.7478 34.0745 66.8262C34.0307 67.3862 34.4827 67.7583 34.6812 68.2239C34.8799 68.6885 35.0607 69.1616 35.283 69.6164C35.7554 70.5821 36.2494 71.5384 36.7352 72.4984C36.7523 72.5326 36.7834 72.564 36.7908 72.598C37.0774 73.9428 37.9251 75.1472 38.2114 76.4922C38.5701 76.8653 38.4797 77.4038 38.7606 77.7798C39.0684 78.1911 39.1124 78.6558 39.2755 79.0877C39.6361 80.04 39.9216 81.0144 40.2077 81.9846C40.4428 82.7827 40.6138 83.5844 40.7389 84.3942C40.8683 85.2331 41.0771 86.0609 41.1456 86.914C41.3033 88.8835 41.3749 90.8217 41.1042 92.6772C40.9293 93.8777 40.7793 95.1054 40.4352 96.2143C40.0867 97.3367 39.7406 98.467 39.3161 99.5539C38.6537 101.251 37.7856 102.777 37.0172 104.384C36.5678 104.612 36.4942 105.214 36.1495 105.559C35.8361 105.872 35.5844 106.274 35.3654 106.686C35.1279 107.131 34.8041 107.484 34.5195 107.878C34.1515 108.389 33.8438 108.986 33.3836 109.376C32.2773 110.312 31.5696 111.722 30.3277 112.488C30.3345 113.064 29.6808 112.905 29.5579 113.416C29.4718 113.774 28.9348 113.728 28.7267 114.153C28.5532 114.508 28.0256 114.579 27.683 114.82C27.4793 114.962 27.3489 115.214 27.1518 115.369C26.9185 115.553 26.6378 115.668 26.4018 115.849C26.3273 115.905 26.3303 116.075 26.321 116.108C26.0663 116.147 25.8737 116.129 25.7351 116.206C24.9238 116.656 24.1388 117.153 23.3173 117.583C22.5162 118.002 21.6846 118.367 20.8605 118.744C20.4436 118.935 20.1246 119.304 19.5717 119.26C19.3639 119.243 19.1987 119.575 18.9675 119.792ZM42.8119 77.8379C42.5533 77.1187 42.2901 76.6134 42.2102 76.1137C42.0805 75.3065 41.6504 74.5885 41.4236 73.8152C41.2844 73.3424 40.9643 72.8795 40.8942 72.4192C40.8451 72.0978 40.7184 71.8678 40.5762 71.6215C40.1354 70.8573 39.8091 70.0717 39.5881 69.2281C39.4663 68.7623 39.1519 68.3349 38.9828 67.8387C38.6913 66.985 38.1991 66.1745 37.7874 65.3476C37.6264 65.024 37.4248 64.7446 37.3908 64.3453C37.3671 64.0674 37.0761 63.7549 36.9044 63.4574C36.7137 63.1271 36.4237 62.7966 36.3635 62.4672C36.3138 62.1936 36.1636 61.9631 36.0806 61.7397C35.7892 60.9572 35.3634 60.211 35.0064 59.444C34.8247 59.0535 34.691 58.6443 34.5163 58.2502C34.3417 57.855 33.9692 57.5218 34.0361 57.053C33.5063 56.2066 33.3508 55.2381 32.9072 54.3578C32.6203 53.7892 32.6788 53.1218 32.2827 52.5639C32.2841 51.3987 31.7338 50.2125 31.7724 49.0359C31.8058 47.9985 31.8027 46.9841 32.0315 45.9869C32.3144 44.7555 32.8768 43.7416 33.3164 42.6396C33.5522 42.0487 33.9308 41.5157 34.2782 40.9858C34.625 40.4557 34.9945 39.9431 35.2949 39.3754C35.5977 38.8044 35.9462 38.2626 36.2984 37.7531C36.9032 36.8799 37.4978 35.9955 38.0455 35.0753C38.8619 33.7031 39.6347 32.2901 40.3601 30.843C40.7991 29.9671 41.0766 28.966 41.4936 28.0709C41.9804 27.0255 42.2874 25.8689 42.6395 24.7482C42.9867 23.642 43.1151 22.4044 43.3137 21.2135C43.6984 18.913 43.6009 16.5048 43.0357 14.0388C42.7904 12.9675 42.4639 11.8952 42.0147 10.8255C41.5588 9.74166 40.932 8.78366 40.3955 7.76428C40.2488 7.48521 40.1549 7.1132 39.7833 7.01584C39.7494 7.00727 39.7696 6.63477 39.6841 6.55773C39.4332 6.33057 39.2585 6.04248 39.0605 5.77851C38.8235 5.46201 38.6251 5.13482 38.34 4.8373C38.0931 4.5788 37.8531 4.46455 37.7212 4.39344C37.575 4.07048 37.5207 3.78606 37.3704 3.64564C35.765 2.1434 34.1924 0.593205 32.4367 -0.67254C30.9425 -1.74978 29.4408 -2.80328 27.8747 -3.66946C25.7076 -4.8677 22.2284 -6.42102 19.9201 -7.16284C17.9623 -7.79174 15.9966 -8.50279 14.0263 -8.64538C13.9356 -8.65165 13.8243 -8.81746 13.6906 -8.93785C13.6661 -8.85058 13.6443 -8.77311 13.6221 -8.69441C12.7845 -9.06766 11.9406 -9.22855 11.0937 -9.30193C10.4703 -9.35614 9.84553 -9.41342 9.21861 -9.50532C8.47107 -9.61525 7.73953 -9.65401 7.01526 -9.60252C6.76479 -9.58481 6.46045 -9.7966 6.20662 -9.7847C5.51455 -9.7518 4.81189 -9.77479 4.11445 -9.77753C3.5302 -9.77975 2.91385 -9.95865 2.32712 -9.97106C1.86277 -9.98148 1.42319 -9.8483 0.96806 -9.79865C0.713239 -9.77068 0.440807 -9.8081 0.188963 -9.77168C-0.0225585 -9.74111 -0.346654 -9.94439 -0.407838 -9.56129C-0.650162 -9.63015 -0.870761 -9.79437 -1.13556 -9.66717C-1.3399 -9.56953 -1.66097 -9.71158 -1.92109 -9.70332C-2.15205 -9.69591 -2.36758 -9.61702 -2.59517 -9.58927C-2.8498 -9.55899 -3.14679 -9.6205 -3.3599 -9.51636C-3.67285 -9.36328 -3.97029 -9.35188 -4.34494 -9.44654C-4.62588 -9.5178 -4.92757 -9.43275 -5.18921 -9.34418C-5.94026 -9.09026 -6.85642 -9.33097 -7.52907 -8.85107C-8.20196 -9.05156 -8.70521 -8.65541 -9.30686 -8.59625C-9.88012 -8.53991 -10.3969 -8.25077 -10.9736 -8.2215C-11.2621 -8.20704 -11.4833 -8.00038 -11.7161 -8.05147C-12.0152 -8.11804 -12.1734 -7.97536 -12.3898 -7.9018C-12.6285 -7.81966 -12.8986 -7.80901 -13.1337 -7.7198C-13.3564 -7.63431 -13.5398 -7.46157 -13.7634 -7.37806C-13.884 -7.33359 -14.0525 -7.39568 -14.1864 -7.40846C-14.2394 -7.26454 -14.2822 -7.14973 -14.3224 -7.03979C-14.3851 -7.02589 -14.442 -6.98818 -14.4958 -7.00506C-14.7411 -7.08095 -14.9661 -7.23776 -15.2167 -7.07665C-15.4456 -6.92945 -15.7679 -6.94003 -16.0311 -6.84037C-16.2719 -6.74982 -16.4577 -6.5161 -16.7834 -6.67874C-17.157 -6.3187 -17.711 -6.35483 -18.1533 -6.14794C-18.4647 -6.00206 -18.7347 -5.8069 -19.1345 -5.82601C-19.4499 -5.84106 -19.6186 -5.37167 -20.0404 -5.56842C-20.0844 -5.58858 -20.1451 -5.5245 -20.198 -5.49973C-20.9918 -5.12959 -21.7799 -4.74769 -22.5824 -4.39387C-22.9469 -4.23331 -23.3382 -4.12653 -23.7181 -3.99586C-24.0694 -3.87492 -24.2907 -3.47104 -24.7795 -3.63107C-24.9002 -3.67035 -25.0372 -3.49823 -25.1669 -3.42335C-25.4779 -3.24382 -25.8495 -3.13245 -26.0828 -2.86648C-26.3194 -2.59569 -26.9137 -3.06486 -26.9249 -2.44038C-27.3158 -2.58373 -27.5334 -2.29777 -27.8065 -2.15853C-28.126 -1.99584 -28.3988 -1.69159 -28.7473 -1.64541C-29.776 -1.50917 -30.5331 -0.870085 -31.3414 -0.354512C-32.3415 0.282957 -33.5297 0.52482 -34.5225 1.16969C-35.5259 1.82066 -36.5824 2.38802 -37.6264 2.9724C-38.3155 3.35811 -38.8022 4.03241 -39.5366 4.3639C-40.2451 4.68289 -40.9817 5.01321 -41.5396 5.547C-42.1066 6.08942 -42.7834 6.41476 -43.4028 6.84937C-43.7039 7.06103 -43.9508 7.35421 -44.2414 7.5835C-44.5337 7.81378 -44.9603 7.86485 -45.0703 8.33185C-45.7235 8.50455 -45.9891 9.24979 -46.6031 9.47643C-46.9181 9.59241 -47.0684 9.89425 -47.2853 10.1261C-47.4995 10.3553 -47.7883 10.4562 -47.9829 10.7628C-48.2461 11.1772 -48.7233 11.3946 -49.0925 11.7182C-49.2378 11.8457 -49.3179 12.0605 -49.4656 12.1831C-50.1204 12.7263 -50.6921 13.3659 -51.2607 14.0134C-52.0878 14.9559 -52.9867 15.8231 -53.7562 16.8239C-54.0508 17.2076 -54.4338 17.4946 -54.6724 17.9496C-54.9016 18.388 -55.2452 18.7342 -55.5305 19.1285C-55.8488 19.5685 -56.1668 20.0098 -56.47 20.4648C-57.0121 21.2781 -57.5254 22.1189 -58.081 22.9187C-59.3621 24.7632 -60.3642 26.8394 -61.418 28.8728C-61.6495 29.3184 -61.8059 29.8229 -62.0325 30.2729C-62.6605 31.5233 -63.0241 32.9572 -63.6791 34.1879C-63.8741 35.7405 -64.6448 36.9696 -64.8902 38.5068C-65.0747 39.6629 -65.5654 40.6911 -65.7454 41.8486C-65.9778 43.3458 -66.3668 44.7934 -66.2837 46.4126C-66.2744 46.5879 -66.3334 46.7503 -66.3509 46.9222C-66.4645 48.0393 -66.616 49.1459 -66.6766 50.2785C-66.7412 51.5015 -66.8429 52.713 -66.9013 53.9349C-66.9759 55.4771 -67.0718 57.0054 -67.2827 58.5003C-67.3517 58.9902 -67.2857 59.5357 -67.3734 60.015C-67.7162 61.8845 -67.9704 63.8185 -68.7341 65.45C-69.347 66.7581 -69.9532 68.0865 -70.9932 69.0497C-71.4962 69.5155 -71.9871 69.9941 -72.499 70.4524C-72.9632 70.8681 -73.4449 71.231 -73.9839 71.5112C-74.3352 71.6941 -74.7514 71.7552 -75.1128 71.9218C-75.4929 72.0967 -75.8079 72.4582 -76.2143 72.5073C-76.6191 72.556 -76.9103 72.8389 -77.2729 72.856C-77.6621 72.8743 -77.9165 73.1321 -78.2534 73.1745C-79.0025 73.2685 -79.6542 73.605 -80.3998 73.7236C-81.0116 73.8211 -81.6107 74.0415 -82.2295 74.1696C-83.0645 74.3432 -83.9125 74.4806 -84.7365 74.6852C-86.0022 74.9989 -87.319 75.1517 -88.5967 75.4321C-89.8165 75.6995 -91.0769 75.8532 -92.2644 76.2221C-92.7437 76.0062 -92.9622 76.546 -93.4428 76.4553C-93.8029 76.3872 -94.1485 76.6574 -94.5054 76.7647C-94.7769 76.8468 -95.0659 76.8873 -95.3288 76.9867C-95.5697 77.0778 -95.7545 77.3066 -96.0827 77.1556C-96.1249 77.1364 -96.1827 77.2133 -96.2372 77.238C-96.9271 77.5492 -97.5763 77.9796 -98.3176 78.1412C-99.3723 78.3714 -100.145 79.079 -101.08 79.5019C-101.31 79.6062 -101.469 79.8595 -101.828 79.7112C-101.963 79.655 -102.188 79.81 -102.286 79.9512C-102.827 80.7349 -103.74 80.9326 -104.444 81.4543C-104.789 81.7094 -105.108 82.0024 -105.433 82.2853C-105.736 82.5493 -106.125 82.6431 -106.383 83.0368C-106.606 83.3764 -107.04 83.5711 -107.338 83.8986C-107.631 84.219 -108.066 84.3933 -108.3 84.758C-108.684 85.3549 -109.288 85.6692 -109.677 86.2742C-110.046 86.8491 -110.576 87.2946 -110.975 87.8624C-111.288 88.3078 -111.629 88.7312 -111.895 89.2154C-112.446 90.2147 -113.004 91.2125 -113.469 92.2761C-114.269 94.1056 -115.019 95.9692 -115.595 97.9508C-115.787 98.6116 -115.832 99.3299 -116.021 99.9772C-116.311 100.975 -116.302 102.08 -116.431 103.131C-116.537 103.997 -116.449 104.94 -116.412 105.855C-116.371 106.857 -116.162 107.866 -115.845 108.869C-115.675 109.406 -115.55 109.95 -115.273 110.471C-115.018 110.95 -114.864 111.482 -114.599 111.954C-114.39 112.325 -114.062 112.625 -113.821 112.981C-113.587 113.326 -113.441 113.887 -113.176 114.024C-112.762 114.238 -112.737 114.859 -112.284 114.912C-111.484 116.016 -110.468 116.822 -109.517 117.73C-108.648 118.558 -107.694 119.147 -106.779 119.834C-105.876 120.512 -104.934 121.118 -103.952 121.629C-102.758 122.25 -101.568 122.709 -100.338 123.078C-98.5589 123.612 -96.7887 123.966 -95.016 124.275C-93.9019 124.469 -92.7885 124.637 -91.6759 124.801C-90.5965 124.959 -89.5201 125.076 -88.4402 125.252C-87.6214 125.386 -86.808 125.426 -85.9776 125.729C-85.4652 125.916 -84.9371 125.945 -84.4201 126.107C-83.5396 126.381 -82.6636 126.758 -81.7834 126.991C-80.7645 127.26 -79.7635 127.642 -78.7669 128.071C-77.2424 128.726 -75.765 129.573 -74.3017 130.467C-73.9555 130.678 -73.6904 131.036 -73.4085 131.321C-72.9388 131.796 -72.5969 132.44 -72.1926 133.005C-71.8979 133.416 -71.5844 133.813 -71.2865 134.222C-70.9886 134.631 -70.8706 135.181 -70.3807 135.45C-70.2582 135.518 -70.1932 135.771 -70.0893 135.93C-69.8066 136.363 -69.5152 136.791 -69.23 137.222C-68.9641 137.625 -68.7538 138.206 -68.4262 138.392C-67.9497 138.662 -67.8839 139.217 -67.4393 139.522C-66.9973 139.824 -66.7168 140.5 -66.3377 140.987C-65.5251 142.031 -64.7083 143.072 -63.866 144.088C-63.3727 144.682 -62.8146 145.205 -62.3088 145.793C-61.8338 146.345 -61.2679 146.798 -60.7658 147.324C-60.2132 147.904 -59.5939 148.387 -59.0095 148.902C-57.9266 149.856 -56.977 150.989 -55.8837 151.913C-54.4784 153.101 -53.21 154.543 -51.6262 155.403C-50.6898 156.422 -49.4787 156.763 -48.4502 157.571C-47.9885 157.933 -47.4246 158.088 -46.9148 158.364C-45.1573 159.315 -43.3404 159.903 -41.5532 160.671C-40.2176 161.245 -38.8675 161.648 -37.5208 161.962C-36.2241 162.265 -34.9124 162.685 -33.6306 162.631C-32.8937 162.975 -32.1948 162.791 -31.467 162.935C-30.8527 163.057 -30.2351 163 -29.6364 162.95C-28.8063 162.881 -28.0066 162.67 -27.1666 162.667C-26.6992 162.665 -26.3899 162.361 -25.9213 162.358C-25.4315 162.355 -25.0264 161.943 -24.5368 161.892C-23.7155 161.806 -23.147 161.277 -22.4757 160.931C-21.8109 160.589 -21.1349 160.25 -20.5434 159.795C-20.1512 159.493 -19.821 159.073 -19.466 158.712C-18.282 157.51 -17.471 155.983 -16.7023 154.419C-16.2947 153.59 -15.951 152.697 -15.6951 151.768C-15.0681 149.493 -14.5928 147.13 -14.4131 144.666C-14.2588 142.556 -13.9183 140.528 -13.6257 138.479C-13.4092 136.964 -12.9345 135.584 -12.2066 134.367C-11.6142 133.375 -10.8742 132.571 -10.061 131.812C-8.82073 130.653 -7.272 130.032 -5.853 129.189C-5.30952 128.867 -4.67929 128.62 -3.99201 128.557C-3.76029 128.535 -3.58055 128.326 -3.35771 128.247C-3.1481 128.173 -2.90929 128.167 -2.68936 128.114C-1.85869 127.915 -1.04027 127.678 -0.198043 127.513C0.607891 127.355 1.42644 127.163 2.25486 127.157C3.79597 127.146 5.30728 127.008 6.8404 126.969C8.4602 126.927 10.0861 126.862 11.6452 126.598C12.7987 126.403 14.0165 126.336 15.0559 125.797C15.4731 125.918 15.7092 125.542 16.045 125.522C16.4545 125.498 16.7472 125.169 17.1081 125.206C17.5472 125.251 17.7464 124.929 18.0825 124.845C19.1665 124.574 20.2071 124.212 21.1405 123.617C21.1946 123.582 21.3243 123.67 21.4182 123.701C21.4349 123.608 21.4528 123.51 21.461 123.464C21.7882 123.354 22.0907 123.27 22.3763 123.152C22.9655 122.906 23.41 122.377 24.1343 122.384C24.3036 122.386 24.4307 122.151 24.6516 121.961C24.6655 121.963 24.8064 121.978 24.9371 121.991C24.9637 121.842 24.9813 121.743 24.9988 121.647C25.0906 121.68 25.1843 121.714 25.3182 121.762C25.3687 121.669 25.4246 121.566 25.4725 121.478C25.7003 121.398 26.0672 121.403 26.1337 121.218C26.297 120.764 26.6673 120.645 27.0002 120.506C27.8837 120.138 28.5476 119.434 29.2687 118.849C30.0096 118.248 30.7236 117.573 31.3888 116.863C31.7927 116.432 32.2884 116.1 32.5889 115.535C32.7237 115.282 33.0503 115.189 33.2161 114.952C33.479 114.578 33.9198 114.367 33.9874 113.81C34.4412 113.698 34.6994 113.295 34.9167 112.925C35.154 112.521 35.4818 112.214 35.717 111.805C35.9254 111.444 36.2308 111.122 36.4893 110.779C36.9534 110.164 37.5314 109.627 37.8419 108.902C38.1891 108.091 38.7846 107.528 39.1321 106.723C39.5193 105.825 40.0977 105.066 40.5332 104.2C40.7172 103.834 41.1084 103.559 40.9289 102.966C41.4044 102.766 41.3329 102.114 41.5989 101.731C41.8427 101.381 41.9837 100.924 42.133 100.491C42.4061 99.6991 42.6047 98.8569 42.9202 98.0955C43.3407 97.0821 43.3877 95.876 43.7966 94.8635C43.7145 93.9354 44.2423 93.2276 44.0487 92.2399C43.9761 91.8687 44.1159 91.4847 44.1914 91.1225C44.4805 89.7335 44.3464 88.2294 44.3489 86.7618C44.3508 85.7963 44.2504 84.8153 44.0997 83.8348C43.8987 82.5297 43.7208 81.221 43.3601 79.9156C43.1847 79.2806 42.9972 78.6473 42.8234 78.0124C42.7963 77.9128 42.8106 77.8086 42.8119 77.8379Z" fill="#F7F5F1"/>
</g>
</svg>
