<svg viewBox="0 0 153 288" fill="none" xmlns="http://www.w3.org/2000/svg">
<mask id="mask0" mask-type="alpha" maskUnits="userSpaceOnUse" x="0" y="0" width="153" height="288">
<rect width="153" height="288" fill="#D9DBD4"/>
</mask>
<g mask="url(#mask0)">
<path d="M125.396 154.035C125.693 154.216 126.107 154.688 126.507 154.669C127.38 154.626 128.198 154.903 129.023 155.111C129.801 155.307 130.605 155.344 131.358 155.599C132.371 155.941 133.398 156.218 134.407 156.583C135.544 156.996 136.717 157.292 137.811 157.845C138.777 158.333 139.746 158.81 140.712 159.296C141.678 159.782 142.673 160.218 143.605 160.765C146.158 162.261 148.813 163.399 151.428 164.674C152.4 165.148 153.387 165.744 154.398 165.872C155.614 166.025 156.715 166.884 157.964 166.678C158.876 167.687 160.136 167.11 161.119 167.8C162.746 167.8 164.342 168.39 165.985 168.196C166.43 168.143 166.879 168.109 167.366 168.454C167.758 168.733 168.388 168.497 168.909 168.437C169.177 168.407 169.434 168.209 169.701 168.184C170.786 168.081 171.861 168.192 172.964 167.87C173.989 167.569 175.044 167.354 176.084 167.068C178.18 166.491 180.216 165.68 182.179 164.605C185.831 162.604 189.049 159.722 191.922 156.264C193.569 154.281 195.109 152.147 196.655 150.023C199.158 146.585 201.65 143.083 204.589 140.21C205.637 139.186 206.778 138.26 207.973 137.551C209.912 136.4 211.819 135.994 213.927 136.033C214.917 136.053 215.914 135.831 216.898 136.358C217.314 136.581 217.867 136.347 218.351 136.409C218.853 136.473 219.375 136.556 219.837 136.792C220.456 137.107 221.184 136.917 221.716 137.311C222.56 137.936 223.517 138.114 224.396 138.552C225.448 139.076 226.533 139.552 227.522 140.223C228.524 140.901 229.546 141.539 230.514 142.335C233.432 144.735 236.208 147.346 238.754 150.357C238.955 150.595 239.183 150.846 239.434 150.96C239.866 151.154 239.853 151.716 240.093 152.041C240.341 152.375 240.827 152.499 240.97 152.865C241.394 153.951 242.17 154.598 242.758 155.47C243.347 156.342 243.95 157.2 244.517 158.095C245.073 158.975 245.599 159.887 246.124 160.797C246.556 161.544 247.271 162.069 247.28 163.538C247.219 163.566 246.944 163.692 246.668 163.818C246.943 164.168 247.116 164.388 247.289 164.609C247.177 164.787 247.067 164.966 246.877 165.27C248.161 166.491 248.704 168.227 249.208 170.016C249.421 170.774 249.817 171.448 250.149 172.202C250.132 172.227 250.035 172.361 249.95 172.48C250.367 174.015 250.71 175.581 251.218 177.054C251.655 178.322 252.007 179.63 252.452 180.888C252.901 182.164 253.503 183.361 253.478 184.834C254.342 186.468 254.328 188.5 254.964 190.214C255.272 191.042 254.903 192.207 255.789 192.624C255.168 193.638 255.846 194.22 256.056 194.945C255.634 195.312 255.72 195.955 255.853 196.419C256.158 197.484 256.248 198.586 256.397 199.683C256.549 200.808 256.786 201.916 256.693 203.081C256.654 203.574 256.522 204.291 256.717 204.535C257.278 205.232 256.616 206.304 257.273 206.882V209.499C257.273 209.81 257.177 210.206 257.291 210.418C257.682 211.146 257.514 211.939 257.575 212.708C257.635 213.47 257.846 214.226 257.84 214.983C257.831 216.154 258.166 217.172 258.532 218.18C259.579 221.061 261.151 223.484 262.786 225.835C263.448 226.787 264.286 227.535 265.008 228.4C266.79 230.531 268.582 232.639 270.5 234.568C271.421 235.495 272.317 236.466 273.271 237.332C274.394 238.353 275.551 239.318 276.725 240.24C277.535 240.876 278.425 241.346 279.234 241.984C280.166 242.718 281.069 243.492 282.061 244.115C283.037 244.729 283.894 245.618 284.892 246.235C285.798 246.796 286.587 247.667 287.45 248.42C287.454 248.416 287.554 248.31 287.613 248.245C287.813 248.599 287.943 249.068 288.197 249.239C290.075 250.505 291.518 252.42 293.018 254.271C294.652 256.286 295.836 258.69 296.863 261.222C298.199 264.517 299.505 267.841 299.853 271.604C300.384 272.36 299.821 273.379 300.137 274.063C300.556 274.971 300.473 275.91 300.344 276.726C300.184 277.744 300.08 278.736 300.105 279.582C299.871 280.197 299.611 280.644 299.529 281.138C299.285 282.604 298.692 283.848 298.021 285.014C296.87 287.013 295.889 289.202 294.223 290.657C293.747 291.073 293.445 291.823 292.959 292.205C290.509 294.129 288.156 296.252 285.583 297.922C283.394 299.342 281.183 300.601 278.787 301.403C277.232 301.924 275.656 302.417 274.094 302.678C272.258 302.984 270.388 303.381 268.504 303.151C267.874 303.074 267.231 303.082 266.599 303.149C264.522 303.369 262.471 302.924 260.418 302.7C259.636 302.614 258.733 302.704 258.073 302.307C257.402 301.904 256.766 302.227 256.143 301.918C255.51 301.604 254.828 301.381 254.152 301.291C252.998 301.136 251.918 300.631 250.8 300.307C249.556 299.948 248.328 299.518 247.108 299.038C245.501 298.405 243.877 297.842 242.254 297.274C240.672 296.72 239.083 296.199 237.498 295.661C236.216 295.225 234.898 294.917 233.638 294.435C232.094 293.846 230.496 293.653 228.953 293.09C228.395 292.886 227.768 292.876 227.172 292.706C226.543 292.527 225.842 292.822 225.246 292.297C223.901 292.453 222.588 292.035 221.26 291.955C219.983 291.877 218.693 291.77 217.414 292.258C216.832 292.481 215.996 291.997 215.555 292.37C214.964 292.871 214.338 292.369 213.795 292.889C213.321 293.343 212.564 292.77 212.068 293.418C209.805 293.704 207.782 294.992 205.771 296.15C203.613 297.391 201.521 298.85 199.642 300.802C198.185 302.314 196.606 303.637 195.262 305.337C192.834 308.408 190.475 311.551 188.295 314.92C187.27 316.501 186.241 318.088 185.18 319.627C183.826 321.589 182.559 323.657 181.136 325.526C179.457 327.734 177.819 329.998 175.923 331.952C174.637 333.278 173.385 334.68 172.08 335.983C170.989 337.071 169.85 338.098 168.664 339.006C167.609 339.813 166.623 340.748 165.514 341.474C164.388 342.212 163.314 343.126 162.183 343.878C160.178 345.21 158.17 346.534 156.079 347.653C154.576 348.458 153.071 349.234 151.521 349.875C149.194 350.834 146.875 351.827 144.545 352.776C143.419 353.235 142.258 353.709 141.116 353.904C139.82 354.124 138.611 355.004 137.261 354.732C135.432 355.616 133.455 355.561 131.58 356.19C130.827 356.443 130.008 356.275 129.205 356.545C128.455 356.797 127.635 356.723 126.837 356.924C125.876 357.165 124.875 357.063 123.878 357.285C122.58 357.575 121.229 357.502 119.897 357.656C116.873 358.008 113.809 357.388 110.783 358.095C109.579 358.376 108.431 357.706 107.239 357.719C105.822 357.734 104.404 357.751 102.986 357.714C101.606 357.68 100.237 357.676 98.8467 357.42C97.1075 357.099 95.3193 357.349 93.5446 357.023C91.7032 356.684 89.8183 356.726 87.9522 356.602C87.8543 356.595 87.7171 356.655 87.665 356.592C87.1756 356.004 86.5663 356.184 86.0226 356.255C85.3756 356.341 84.8335 355.94 84.235 355.86C83.104 355.711 81.9698 355.603 80.8372 355.481C80.7404 355.471 80.5882 355.532 80.5522 355.472C80.179 354.845 79.6509 355.209 79.1997 355.104C78.7011 354.989 78.208 354.824 77.7062 354.739C76.821 354.589 75.8675 354.696 75.0571 354.307C73.9229 353.762 72.7118 353.814 71.5803 353.285C71.0909 353.056 70.4923 352.999 69.9502 352.912C69.3457 352.814 68.7623 352.659 68.1674 352.509C66.411 352.069 64.7095 351.357 62.9461 350.933C61.9893 350.703 61.0756 350.102 60.0839 349.823C59.0734 349.537 58.1587 348.738 57.0675 348.748C56.3608 347.914 55.3847 347.91 54.5619 347.432C53.6982 346.929 52.7663 346.691 51.8827 346.195C50.1058 345.201 48.316 344.237 46.551 343.201C44.2412 341.846 42.0315 340.248 39.777 338.761C38.3939 337.848 37.0849 336.793 35.7823 335.749C34.3368 334.591 32.9122 333.357 31.5376 332.033C30.5959 331.126 29.7387 330.094 28.7895 329.231C27.8741 328.399 27.0648 327.42 26.185 326.546C25.4955 325.862 24.9271 324.982 24.3043 324.189C23.6821 323.396 23.1352 322.461 22.4172 321.85C21.6853 321.228 21.3933 320.275 20.8996 319.477C20.87 319.428 20.8318 319.387 20.7963 319.345C19.0555 317.286 17.7879 314.754 16.4365 312.302C15.0898 309.862 13.2302 305.094 12.2977 302.337C11.6991 300.566 11.2893 298.749 10.8741 296.921C10.6455 295.914 10.2691 294.866 10.3282 293.873C10.4277 292.215 9.87329 290.626 10.2411 288.93C10.4864 287.801 10.339 286.56 10.5197 285.347C10.7273 283.95 11.0462 282.612 11.4845 281.356C12.1842 279.349 13.2291 277.592 14.4198 275.987C15.5351 274.484 16.843 273.284 18.1128 272.013C19.7842 270.341 21.5621 268.868 23.4455 267.649C25.8612 266.084 28.2555 264.451 30.8239 263.28C32.3088 262.603 33.6882 261.522 35.1897 260.934C37.236 260.134 39.1064 258.836 41.0855 257.853C42.8494 256.977 44.4886 255.691 46.18 254.58C47.9649 253.408 49.5664 251.876 51.0469 250.188C52.2957 248.764 53.3976 247.113 54.4748 245.466C55.1788 244.39 55.8333 243.211 56.3038 241.953C56.7679 240.713 57.1853 239.423 57.6376 238.176C58.1727 236.697 58.5378 235.146 58.9288 233.627C59.3386 232.036 59.6177 230.345 59.8194 228.683C60.0549 226.742 60.2603 224.779 60.3959 222.826C60.526 220.956 60.9444 219.099 60.7384 217.192C60.7185 217.009 60.6728 216.749 60.746 216.643C61.2655 215.887 60.9299 214.991 61.0294 214.17C61.1278 213.35 61.2585 212.533 61.3155 211.708C61.4359 209.955 61.5182 208.198 61.615 206.443C61.6188 206.381 61.6005 206.311 61.6177 206.256C62.3109 204.119 62.0953 201.722 62.789 199.585C62.5863 198.764 63.1542 198.076 63.0638 197.315C62.9644 196.481 63.2816 195.787 63.4037 195.043C63.6715 193.401 64.0636 191.789 64.4513 190.182C64.7708 188.861 65.1838 187.586 65.6684 186.338C66.1706 185.046 66.5514 183.704 67.1516 182.44C68.5374 179.525 70.0196 176.723 71.9185 174.319C73.1468 172.763 74.3622 171.148 75.7551 169.86C77.1652 168.556 78.5785 167.24 80.0671 166.049C82.3909 164.188 84.8658 162.739 87.2665 161.092C88.0888 161.136 88.6846 160.344 89.4542 160.138C90.1539 159.95 90.8385 159.587 91.4844 159.184C92.1846 158.747 92.9305 158.514 93.6554 158.188C94.5939 157.765 95.5172 157.172 96.4863 156.997C98.8171 156.575 100.97 155.159 103.354 155.089C103.815 154.268 104.61 155.028 105.201 154.405C105.615 153.969 106.338 154.472 106.98 154.041C107.515 153.681 108.32 154.011 109.001 153.95C109.406 153.915 109.796 153.665 110.202 153.607C110.682 153.538 111.173 153.603 111.655 153.541C111.806 153.522 111.941 153.279 111.981 153.241C112.373 153.393 112.631 153.575 112.891 153.579C114.405 153.607 115.923 153.544 117.436 153.607C118.913 153.668 120.387 153.832 121.861 153.971C122.607 154.042 123.361 153.78 124.107 154.294C124.387 154.488 124.892 154.152 125.396 154.035ZM57.3783 193.922C57.1568 195.151 57.1164 196.081 56.8212 196.854C56.3452 198.102 56.3673 199.469 56.0565 200.749C55.8672 201.532 55.9419 202.448 55.6649 203.157C55.4719 203.652 55.4633 204.081 55.4633 204.546C55.4627 205.987 55.2826 207.365 54.9061 208.74C54.698 209.498 54.7937 210.36 54.6275 211.2C54.3425 212.647 54.3769 214.196 54.2839 215.702C54.2473 216.292 54.3043 216.852 54.0263 217.445C53.8327 217.857 53.9892 218.537 53.9892 219.098C53.9892 219.721 54.1295 220.426 53.9456 220.942C53.7924 221.369 53.8166 221.818 53.7515 222.202C53.5245 223.547 53.5175 224.951 53.396 226.328C53.3342 227.029 53.1889 227.718 53.1142 228.418C53.0384 229.12 53.2933 229.896 52.8157 230.504C52.8738 232.135 52.3027 233.633 52.2112 235.241C52.1526 236.28 51.5245 237.176 51.6294 238.289C50.6753 239.937 50.485 242.065 49.4691 243.699C48.5742 245.139 47.7498 246.577 46.6113 247.802C45.2049 249.313 43.5808 250.288 42.0583 251.489C41.242 252.132 40.2707 252.577 39.3463 253.043C38.4223 253.51 37.4807 253.933 36.5917 254.491C35.6968 255.052 34.7611 255.534 33.8463 255.967C32.277 256.709 30.7132 257.474 29.1864 258.329C26.9099 259.604 24.662 260.972 22.4532 262.427C21.1163 263.308 19.9057 264.498 18.5844 265.424C17.0415 266.505 15.662 267.891 14.2482 269.189C12.8532 270.471 11.6604 272.118 10.4062 273.641C7.98242 276.582 6.15286 280.069 4.93799 284.02C4.40988 285.737 3.99582 287.521 3.75757 289.402C3.51718 291.308 3.62149 293.176 3.54782 295.056C3.52737 295.571 3.35635 296.174 3.80273 296.616C3.8436 296.655 3.51071 297.166 3.56879 297.345C3.73819 297.871 3.75003 298.422 3.81454 298.957C3.89145 299.599 3.90491 300.224 4.06516 300.878C4.20337 301.445 4.44971 301.803 4.57825 302.011C4.52124 302.588 4.36581 303.035 4.46368 303.356C5.50806 306.793 6.46695 310.272 7.91736 313.498C9.15158 316.243 10.4159 318.96 11.9244 321.465C14.0121 324.932 17.6664 329.972 20.3268 332.908C22.5834 335.397 24.784 338.009 27.4557 339.821C27.5789 339.904 27.601 340.229 27.6919 340.509C27.7978 340.406 27.8919 340.314 27.9876 340.221C28.868 341.433 29.9307 342.35 31.0692 343.146C31.907 343.732 32.7444 344.323 33.5564 344.966C34.5244 345.732 35.528 346.385 36.5949 346.903C36.9639 347.083 37.2215 347.631 37.5904 347.822C38.5966 348.341 39.5721 348.947 40.5568 349.521C41.3818 350.001 42.1078 350.758 42.9279 351.255C43.5765 351.649 44.3074 351.82 44.992 352.121C45.3754 352.29 45.7304 352.566 46.1165 352.72C46.4408 352.849 46.7333 353.402 47.1329 352.91C47.4196 353.205 47.5976 353.618 48.0762 353.654C48.4451 353.683 48.7834 354.146 49.1582 354.347C49.4911 354.525 49.8606 354.59 50.2053 354.736C50.5904 354.902 50.9604 355.231 51.347 355.258C51.9149 355.297 52.3452 355.524 52.798 355.964C53.1373 356.294 53.6337 356.42 54.0763 356.509C55.3466 356.763 56.4464 357.852 57.7903 357.723C58.5787 358.556 59.6145 358.407 60.5142 358.815C61.3714 359.203 62.3389 359.216 63.1789 359.646C63.5989 359.861 64.0808 359.749 64.3685 360.012C64.7374 360.351 65.0779 360.278 65.4441 360.351C65.849 360.429 66.24 360.635 66.6455 360.701C67.0306 360.762 67.4312 360.667 67.8157 360.732C68.0228 360.767 68.2105 360.993 68.3896 361.12C68.5821 360.96 68.7364 360.832 68.8832 360.71C68.9833 360.741 69.0946 360.734 69.157 360.802C69.442 361.11 69.6324 361.516 70.1185 361.492C70.5628 361.471 71.0102 361.75 71.4641 361.824C71.8787 361.892 72.3326 361.713 72.6607 362.209C73.4835 362.005 74.238 362.509 75.0329 362.577C75.5927 362.625 76.1343 362.57 76.6844 362.924C77.1184 363.203 77.7406 362.676 78.1768 363.299C78.2225 363.364 78.3607 363.323 78.4559 363.331C79.8816 363.456 81.3089 363.559 82.7335 363.714C83.3804 363.785 84.0215 363.953 84.6657 364.079C85.2616 364.194 85.9048 363.804 86.4657 364.429C86.6045 364.584 86.939 364.452 87.1837 364.452C87.7704 364.452 88.3872 364.598 88.9347 364.412C89.4908 364.222 89.9484 365.372 90.4744 364.497C90.9105 365.02 91.4521 364.793 91.9522 364.819C92.5374 364.85 93.1719 364.642 93.7027 364.861C95.2699 365.509 96.8633 365.223 98.4283 365.154C100.364 365.069 102.243 365.698 104.175 365.596C106.127 365.495 108.085 365.555 110.04 365.581C111.33 365.598 112.57 365.042 113.88 365.172C115.143 365.3 116.456 365.434 117.681 365.135C118.927 364.83 120.15 364.923 121.382 364.814C121.981 364.761 122.57 364.547 123.168 364.46C123.77 364.373 124.415 364.65 124.953 364.079C126.018 364.368 127.003 363.53 128.057 363.711C128.597 363.804 129.056 363.5 129.553 363.349C130.043 363.2 130.534 363.293 131.06 363.018C131.771 362.647 132.624 362.729 133.411 362.573C133.721 362.511 134.009 362.272 134.319 362.22C135.689 361.986 137.021 361.548 138.354 361.096C140.295 360.438 142.275 359.945 144.182 359.158C144.912 358.856 145.689 358.762 146.398 358.314C147.08 357.88 147.849 357.671 148.575 357.346C149.385 356.984 150.196 356.619 150.997 356.223C152.428 355.515 153.842 354.745 155.281 354.067C158.601 352.503 161.715 350.384 164.868 348.367C165.559 347.926 166.193 347.34 166.881 346.888C168.792 345.632 170.477 343.9 172.41 342.694C173.954 340.656 176.049 339.546 177.652 337.571C178.858 336.086 180.392 335.032 181.593 333.541C183.145 331.612 184.878 329.882 186.083 327.523C186.213 327.267 186.429 327.085 186.594 326.856C187.668 325.368 188.787 323.926 189.798 322.373C190.888 320.695 192.022 319.064 193.103 317.382C194.468 315.261 195.853 313.177 197.372 311.234C197.87 310.597 198.223 309.771 198.738 309.164C200.751 306.799 202.691 304.27 205.104 302.585C207.04 301.235 208.983 299.85 211.242 299.337C212.334 299.089 213.42 298.812 214.519 298.582C215.515 298.373 216.493 298.253 217.485 298.297C218.131 298.325 218.77 298.579 219.418 298.638C220.099 298.701 220.84 298.447 221.455 298.71C222.068 298.971 222.711 298.809 223.238 299.081C223.804 299.373 224.374 299.216 224.886 299.431C226.022 299.91 227.22 299.967 228.372 300.408C229.317 300.77 230.345 300.948 231.325 301.272C232.649 301.708 233.961 302.207 235.294 302.59C237.341 303.181 239.33 304.04 241.367 304.687C243.311 305.305 245.22 306.118 247.202 306.566C247.704 307.263 248.454 306.678 249.06 307.199C249.514 307.589 250.224 307.489 250.817 307.629C251.268 307.735 251.71 307.913 252.163 307.987C252.578 308.055 253.027 307.883 253.368 308.364C253.412 308.426 253.557 308.364 253.654 308.374C254.885 308.497 256.155 308.419 257.336 308.796C259.016 309.332 260.688 308.961 262.356 309.127C262.767 309.167 263.199 308.939 263.586 309.442C263.731 309.632 264.176 309.596 264.43 309.476C265.836 308.809 267.289 309.275 268.713 309.113C269.409 309.033 270.099 308.879 270.791 308.745C271.435 308.619 272.062 308.804 272.749 308.458C273.341 308.159 274.115 308.238 274.805 308.018C275.48 307.804 276.239 307.913 276.868 307.588C277.898 307.057 279.011 307.106 280.055 306.567C281.047 306.055 282.161 305.858 283.189 305.38C283.996 305.006 284.824 304.685 285.597 304.218C287.192 303.253 288.798 302.298 290.325 301.172C292.951 299.237 295.535 297.213 297.969 294.879C298.781 294.101 299.432 293.121 300.227 292.359C301.453 291.185 302.343 289.614 303.384 288.231C304.242 287.093 304.888 285.687 305.582 284.362C306.343 282.911 306.873 281.311 307.243 279.634C307.442 278.735 307.709 277.862 307.742 276.899C307.773 276.012 307.99 275.134 308 274.249C308.008 273.555 307.788 272.861 307.738 272.16C307.689 271.481 307.942 270.568 307.678 270.157C307.267 269.516 307.739 268.618 307.141 268.172C306.911 265.956 306.131 263.986 305.527 261.924C304.975 260.043 304.106 258.429 303.372 256.71C302.648 255.013 301.811 253.386 300.838 251.861C299.656 250.006 298.348 248.384 296.908 246.858C294.827 244.648 292.611 242.7 290.355 240.815C288.937 239.631 287.499 238.483 286.058 237.342C284.66 236.236 283.232 235.191 281.848 234.06C280.798 233.202 279.68 232.481 278.753 231.374C278.18 230.69 277.457 230.217 276.857 229.566C275.836 228.458 274.904 227.209 273.849 226.161C272.627 224.948 271.523 223.589 270.463 222.168C268.841 219.995 267.441 217.591 266.101 215.13C265.784 214.548 265.702 213.824 265.535 213.191C265.259 212.135 265.301 210.945 265.19 209.815C265.109 208.992 264.99 208.175 264.902 207.352C264.815 206.53 265.098 205.655 264.624 204.874C264.506 204.679 264.621 204.267 264.604 203.957C264.558 203.113 264.495 202.27 264.444 201.426C264.396 200.639 264.574 199.645 264.262 199.114C263.809 198.343 264.168 197.504 263.788 196.71C263.41 195.92 263.565 194.735 263.426 193.737C263.129 191.595 262.824 189.454 262.462 187.329C262.25 186.085 261.887 184.889 261.652 183.643C261.431 182.474 261 181.372 260.72 180.216C260.411 178.944 259.929 177.755 259.523 176.549C258.77 174.314 258.352 171.936 257.559 169.735C256.542 166.905 255.925 163.828 254.387 161.317C253.894 159.11 252.459 157.638 251.663 155.655C251.306 154.765 250.634 154.085 250.139 153.278C248.428 150.496 246.338 148.18 244.436 145.633C243.015 143.73 241.434 142.056 239.785 140.511C238.197 139.023 236.685 137.357 234.826 136.387C234.065 135.298 232.926 134.987 232.013 134.188C231.243 133.515 230.323 133.091 229.435 132.672C228.204 132.092 226.9 131.737 225.708 131.055C225.046 130.676 224.36 130.853 223.694 130.474C222.999 130.078 222.089 130.33 221.354 130.002C220.122 129.453 218.885 129.738 217.652 129.679C216.432 129.62 215.199 129.547 213.99 129.708C213.188 129.815 212.378 130.14 211.581 130.36C208.923 131.094 206.528 132.591 204.162 134.177C202.908 135.017 201.692 136 200.572 137.105C197.825 139.813 195.222 142.768 192.955 146.108C191.012 148.968 188.874 151.56 186.785 154.22C185.242 156.186 183.442 157.752 181.418 158.88C179.769 159.799 178.066 160.331 176.295 160.741C173.593 161.368 170.893 160.983 168.197 161.015C167.165 161.027 166.071 160.861 165.047 160.39C164.701 160.231 164.276 160.381 163.896 160.31C163.539 160.244 163.196 160.057 162.842 159.952C161.503 159.556 160.152 159.222 158.825 158.767C157.555 158.333 156.241 157.935 155.063 157.267C152.874 156.024 150.622 154.984 148.421 153.787C146.094 152.523 143.74 151.287 141.319 150.385C139.527 149.719 137.749 148.82 135.838 148.733C135.346 148.221 134.705 148.559 134.214 148.313C133.614 148.014 132.932 148.239 132.451 147.893C131.866 147.47 131.321 147.764 130.777 147.608C129.021 147.106 127.254 146.767 125.446 146.847C125.341 146.852 125.23 146.621 125.123 146.5C125.022 146.619 124.917 146.743 124.868 146.801C124.315 146.69 123.819 146.561 123.318 146.496C122.284 146.361 121.222 146.747 120.203 146.145C119.965 146.005 119.593 146.233 119.125 146.322C119.107 146.308 118.92 146.171 118.746 146.045C118.586 146.235 118.481 146.36 118.377 146.483C118.274 146.361 118.169 146.236 118.019 146.058C117.872 146.15 117.709 146.249 117.569 146.335C117.181 146.262 116.666 145.954 116.421 146.163C115.819 146.671 115.198 146.537 114.613 146.461C113.062 146.261 111.547 146.715 110.049 146.954C108.51 147.198 106.948 147.57 105.427 148.031C104.503 148.311 103.53 148.376 102.643 148.93C102.246 149.178 101.708 149.043 101.28 149.242C100.602 149.557 99.8056 149.496 99.2549 150.228C98.5213 150.016 97.8265 150.376 97.2166 150.722C96.5509 151.1 95.8362 151.266 95.1693 151.653C94.5793 151.993 93.884 152.2 93.2381 152.474C92.0786 152.965 90.8223 153.252 89.7909 154.024C88.6368 154.889 87.3343 155.198 86.1845 156.054C84.9034 157.008 83.4643 157.61 82.1403 158.48C81.5815 158.847 80.8033 158.916 80.5726 159.902C79.7364 159.797 79.3051 160.778 78.6156 161.103C77.9843 161.399 77.4115 161.931 76.8468 162.421C75.8132 163.319 74.8441 164.348 73.7755 165.168C72.3525 166.258 71.3006 167.927 69.8948 169.025C69.2527 170.406 67.9276 170.976 67.3947 172.532C67.1941 173.117 66.6826 173.546 66.2798 173.997C64.7358 175.726 63.6968 177.964 62.4943 180.039C61.7027 181.403 61.0434 182.873 60.4556 184.384C59.6736 186.395 58.8562 188.392 58.3001 190.534C58.0296 191.576 57.7774 192.626 57.5047 193.666C57.4617 193.829 57.3563 193.965 57.3783 193.922Z" fill="#F7F5F1"/>
<path d="M134.467 191.567C134.716 191.719 135.063 192.115 135.398 192.099C136.13 192.063 136.816 192.295 137.508 192.469C138.159 192.634 138.833 192.665 139.465 192.878C140.314 193.165 141.175 193.397 142.021 193.703C142.974 194.049 143.957 194.298 144.874 194.761C145.684 195.17 146.496 195.57 147.307 195.977C148.117 196.385 148.95 196.75 149.732 197.209C151.872 198.463 154.098 199.417 156.29 200.486C157.105 200.883 157.932 201.383 158.78 201.49C159.799 201.618 160.722 202.339 161.769 202.166C162.534 203.012 163.59 202.528 164.414 203.107C165.778 203.107 167.116 203.601 168.494 203.438C168.866 203.394 169.243 203.366 169.651 203.655C169.98 203.888 170.508 203.691 170.944 203.641C171.169 203.615 171.384 203.449 171.608 203.428C172.518 203.342 173.419 203.435 174.344 203.165C175.203 202.913 176.088 202.732 176.959 202.493C178.716 202.009 180.423 201.33 182.069 200.428C185.131 198.75 187.828 196.335 190.237 193.435C191.617 191.774 192.909 189.984 194.205 188.204C196.303 185.322 198.392 182.386 200.856 179.978C201.734 179.119 202.691 178.342 203.692 177.748C205.318 176.783 206.917 176.443 208.684 176.476C209.514 176.492 210.349 176.307 211.175 176.748C211.523 176.935 211.987 176.739 212.393 176.791C212.814 176.844 213.251 176.914 213.638 177.112C214.157 177.376 214.768 177.217 215.214 177.547C215.921 178.071 216.723 178.22 217.46 178.587C218.342 179.027 219.252 179.426 220.081 179.988C220.921 180.557 221.777 181.092 222.589 181.759C225.036 183.771 227.362 185.959 229.497 188.483C229.666 188.683 229.856 188.894 230.067 188.989C230.429 189.152 230.419 189.623 230.62 189.895C230.827 190.176 231.235 190.279 231.355 190.586C231.71 191.497 232.36 192.039 232.854 192.77C233.348 193.501 233.853 194.22 234.328 194.971C234.794 195.708 235.235 196.473 235.675 197.236C236.037 197.862 236.637 198.302 236.645 199.534C236.594 199.557 236.362 199.663 236.132 199.768C236.362 200.062 236.507 200.246 236.652 200.432C236.558 200.581 236.466 200.73 236.306 200.986C237.383 202.009 237.838 203.464 238.26 204.964C238.439 205.6 238.772 206.164 239.05 206.796C239.035 206.818 238.954 206.93 238.883 207.03C239.232 208.317 239.52 209.629 239.946 210.864C240.312 211.927 240.607 213.024 240.98 214.079C241.357 215.148 241.861 216.152 241.84 217.386C242.565 218.756 242.553 220.46 243.086 221.896C243.345 222.591 243.035 223.568 243.777 223.917C243.257 224.767 243.826 225.255 244.001 225.863C243.648 226.171 243.72 226.71 243.831 227.098C244.087 227.992 244.163 228.915 244.287 229.834C244.415 230.778 244.613 231.706 244.536 232.683C244.503 233.096 244.392 233.697 244.556 233.902C245.026 234.486 244.471 235.386 245.022 235.87V238.064C245.022 238.325 244.941 238.656 245.037 238.834C245.364 239.444 245.224 240.109 245.275 240.753C245.325 241.393 245.502 242.026 245.497 242.661C245.49 243.643 245.77 244.496 246.077 245.341C246.955 247.756 248.273 249.787 249.643 251.758C250.199 252.557 250.901 253.183 251.506 253.908C253 255.695 254.502 257.462 256.11 259.08C256.882 259.856 257.633 260.67 258.433 261.396C259.375 262.252 260.344 263.061 261.329 263.834C262.007 264.367 262.754 264.761 263.432 265.296C264.213 265.912 264.971 266.56 265.802 267.083C266.62 267.597 267.339 268.343 268.175 268.86C268.935 269.33 269.596 270.06 270.32 270.692C270.323 270.689 270.407 270.599 270.457 270.545C270.624 270.842 270.733 271.235 270.946 271.378C272.52 272.44 273.73 274.045 274.987 275.596C276.357 277.286 277.349 279.301 278.211 281.424C279.33 284.186 280.425 286.972 280.717 290.127C281.162 290.761 280.69 291.615 280.955 292.189C281.306 292.95 281.237 293.737 281.129 294.421C280.994 295.275 280.908 296.106 280.928 296.815C280.732 297.331 280.515 297.706 280.446 298.12C280.242 299.349 279.744 300.391 279.181 301.369C278.216 303.045 277.394 304.88 275.998 306.1C275.599 306.449 275.345 307.077 274.938 307.398C272.884 309.01 270.912 310.79 268.754 312.19C266.92 313.381 265.066 314.436 263.057 315.108C261.754 315.545 260.432 315.958 259.123 316.177C257.584 316.434 256.017 316.766 254.437 316.574C253.909 316.509 253.369 316.516 252.84 316.572C251.099 316.757 249.379 316.384 247.659 316.196C247.003 316.124 246.246 316.199 245.692 315.867C245.13 315.529 244.597 315.799 244.075 315.54C243.544 315.277 242.972 315.09 242.405 315.014C241.438 314.885 240.532 314.461 239.595 314.19C238.553 313.888 237.523 313.528 236.5 313.126C235.153 312.595 233.791 312.123 232.431 311.647C231.105 311.182 229.773 310.746 228.444 310.295C227.369 309.929 226.264 309.671 225.208 309.267C223.914 308.773 222.574 308.611 221.28 308.139C220.813 307.969 220.287 307.96 219.787 307.818C219.26 307.668 218.673 307.915 218.173 307.475C217.046 307.606 215.945 307.255 214.832 307.188C213.761 307.123 212.68 307.033 211.607 307.442C211.119 307.629 210.418 307.223 210.049 307.536C209.554 307.956 209.029 307.535 208.574 307.971C208.176 308.352 207.542 307.871 207.126 308.415C205.228 308.654 203.532 309.734 201.847 310.704C200.038 311.745 198.284 312.968 196.709 314.605C195.488 315.872 194.164 316.981 193.037 318.406C191.001 320.98 189.024 323.616 187.196 326.44C186.337 327.765 185.474 329.095 184.585 330.385C183.45 332.031 182.388 333.764 181.195 335.331C179.787 337.182 178.414 339.08 176.824 340.718C175.746 341.83 174.697 343.005 173.603 344.097C172.689 345.01 171.733 345.87 170.739 346.632C169.855 347.309 169.028 348.092 168.099 348.701C167.155 349.319 166.254 350.086 165.306 350.716C163.626 351.832 161.942 352.942 160.189 353.881C158.929 354.555 157.668 355.206 156.368 355.743C154.417 356.547 152.473 357.379 150.52 358.175C149.576 358.56 148.603 358.957 147.645 359.121C146.559 359.305 145.546 360.043 144.413 359.815C142.881 360.556 141.223 360.51 139.651 361.037C139.02 361.249 138.333 361.109 137.66 361.335C137.031 361.546 136.343 361.484 135.675 361.653C134.87 361.855 134.03 361.769 133.194 361.956C132.106 362.199 130.974 362.137 129.857 362.266C127.322 362.561 124.753 362.041 122.217 362.634C121.207 362.87 120.245 362.308 119.245 362.319C118.057 362.332 116.869 362.346 115.68 362.315C114.523 362.286 113.376 362.283 112.21 362.068C110.752 361.799 109.253 362.009 107.765 361.736C106.222 361.452 104.641 361.487 103.077 361.383C102.995 361.377 102.88 361.427 102.836 361.375C102.426 360.882 101.915 361.032 101.459 361.092C100.917 361.164 100.463 360.828 99.9609 360.761C99.0127 360.636 98.0619 360.546 97.1125 360.443C97.0313 360.435 96.9037 360.486 96.8735 360.435C96.5606 359.909 96.1179 360.215 95.7397 360.127C95.3217 360.03 94.9083 359.892 94.4877 359.821C93.7456 359.695 92.9463 359.785 92.2668 359.458C91.316 359.002 90.3008 359.046 89.3522 358.602C88.9419 358.41 88.4401 358.363 87.9857 358.289C87.4789 358.207 86.9898 358.077 86.4912 357.952C85.0187 357.583 83.5923 356.985 82.114 356.63C81.3119 356.438 80.546 355.934 79.7146 355.699C78.8675 355.46 78.1006 354.79 77.1859 354.798C76.5935 354.1 75.7752 354.096 75.0854 353.695C74.3614 353.274 73.5801 353.074 72.8393 352.659C71.3498 351.825 69.8494 351.017 68.3697 350.149C66.4334 349.013 64.5809 347.673 62.691 346.427C61.5314 345.661 60.4341 344.776 59.3421 343.901C58.1303 342.93 56.936 341.896 55.7837 340.786C54.9943 340.025 54.2756 339.161 53.4799 338.437C52.7126 337.74 52.0341 336.919 51.2965 336.187C50.7185 335.613 50.242 334.875 49.7199 334.211C49.1983 333.546 48.7398 332.761 48.1379 332.249C47.5243 331.728 47.2795 330.929 46.8657 330.26C46.8409 330.219 46.8089 330.184 46.7791 330.149C45.3197 328.424 44.2571 326.301 43.1241 324.245C41.9953 322.2 40.4363 318.203 39.6545 315.891C39.1527 314.407 38.8092 312.884 38.4611 311.351C38.2695 310.507 37.9539 309.628 38.0035 308.796C38.0869 307.406 37.6221 306.074 37.9305 304.652C38.1361 303.706 38.0125 302.665 38.164 301.649C38.338 300.477 38.6054 299.355 38.9728 298.303C39.5594 296.62 40.4353 295.147 41.4335 293.802C42.3685 292.542 43.465 291.536 44.5294 290.47C45.9306 289.068 47.4211 287.834 48.9999 286.811C51.0251 285.5 53.0322 284.131 55.1854 283.15C56.4302 282.582 57.5866 281.675 58.8453 281.183C60.5608 280.512 62.1288 279.424 63.7879 278.599C65.2666 277.865 66.6408 276.787 68.0586 275.856C69.555 274.874 70.8976 273.589 72.1387 272.174C73.1856 270.98 74.1093 269.596 75.0124 268.216C75.6025 267.314 76.1512 266.325 76.5457 265.27C76.9348 264.231 77.2846 263.15 77.6638 262.104C78.1123 260.864 78.4185 259.564 78.7462 258.29C79.0898 256.956 79.3237 255.54 79.4928 254.146C79.6903 252.519 79.8625 250.873 79.9761 249.236C80.0852 247.668 80.436 246.112 80.2633 244.513C80.2466 244.359 80.2083 244.141 80.2696 244.053C80.7051 243.418 80.4238 242.667 80.5072 241.979C80.5897 241.292 80.6992 240.607 80.747 239.915C80.848 238.446 80.917 236.973 80.9982 235.502C81.0013 235.449 80.986 235.391 81.0004 235.345C81.5815 233.554 81.4007 231.544 81.9823 229.753C81.8124 229.064 82.2885 228.487 82.2127 227.849C82.1293 227.15 82.3953 226.569 82.4976 225.945C82.7222 224.568 83.0508 223.217 83.3759 221.87C83.6437 220.762 83.9899 219.694 84.3961 218.648C84.8172 217.564 85.1364 216.439 85.6395 215.38C86.8013 212.935 88.0439 210.587 89.6358 208.571C90.6655 207.267 91.6844 205.913 92.852 204.834C94.0341 203.741 95.2189 202.637 96.4669 201.638C98.4149 200.079 100.49 198.864 102.502 197.483C103.192 197.52 103.691 196.856 104.336 196.684C104.923 196.526 105.497 196.222 106.038 195.884C106.625 195.518 107.25 195.322 107.858 195.049C108.645 194.694 109.419 194.197 110.231 194.05C112.185 193.697 113.99 192.509 115.989 192.45C116.375 191.763 117.041 192.399 117.537 191.877C117.884 191.512 118.49 191.933 119.028 191.572C119.477 191.27 120.152 191.547 120.723 191.496C121.062 191.467 121.389 191.257 121.729 191.208C122.132 191.15 122.544 191.205 122.947 191.153C123.074 191.137 123.187 190.934 123.22 190.901C123.55 191.029 123.766 191.182 123.983 191.185C125.253 191.208 126.525 191.156 127.794 191.208C129.032 191.259 130.268 191.397 131.504 191.514C132.129 191.573 132.761 191.353 133.386 191.785C133.621 191.947 134.045 191.666 134.467 191.567ZM77.4465 225.005C77.2607 226.036 77.2269 226.815 76.9794 227.463C76.5804 228.509 76.5989 229.656 76.3383 230.728C76.1796 231.385 76.2423 232.153 76.0101 232.747C75.8482 233.162 75.841 233.522 75.841 233.911C75.8406 235.12 75.6895 236.275 75.3739 237.427C75.1995 238.063 75.2797 238.785 75.1404 239.49C74.9015 240.702 74.9303 242.001 74.8523 243.264C74.8217 243.758 74.8694 244.227 74.6364 244.724C74.4741 245.07 74.6053 245.64 74.6053 246.111C74.6053 246.633 74.7229 247.224 74.5687 247.656C74.4403 248.015 74.4605 248.391 74.406 248.713C74.2157 249.841 74.2099 251.017 74.108 252.172C74.0561 252.76 73.9344 253.337 73.8717 253.924C73.8082 254.512 74.0219 255.163 73.6215 255.673C73.6702 257.04 73.1914 258.295 73.1148 259.643C73.0656 260.514 72.5391 261.266 72.627 262.199C71.8272 263.58 71.6676 265.365 70.816 266.734C70.0658 267.942 69.3746 269.147 68.4202 270.173C67.2413 271.44 65.8797 272.258 64.6034 273.264C63.9191 273.804 63.1048 274.177 62.3298 274.567C61.5553 274.959 60.7659 275.314 60.0207 275.781C59.2705 276.251 58.486 276.655 57.7191 277.019C56.4036 277.64 55.0925 278.282 53.8126 278.999C51.9042 280.067 50.0197 281.214 48.1681 282.434C47.0473 283.173 46.0325 284.17 44.9248 284.946C43.6313 285.853 42.4749 287.015 41.2897 288.103C40.1202 289.178 39.1203 290.558 38.0689 291.835C36.037 294.3 34.5032 297.224 33.4848 300.536C33.042 301.975 32.6949 303.471 32.4952 305.047C32.2937 306.645 32.3811 308.211 32.3194 309.788C32.3022 310.219 32.1589 310.725 32.5331 311.095C32.5673 311.128 32.2883 311.556 32.3369 311.706C32.479 312.148 32.4889 312.609 32.543 313.058C32.6074 313.596 32.6187 314.12 32.7531 314.668C32.8689 315.144 33.0754 315.444 33.1832 315.618C33.1354 316.102 33.0051 316.476 33.0871 316.746C33.9627 319.627 34.7665 322.543 35.9824 325.247C37.0171 327.549 38.077 329.827 39.3416 331.927C41.0918 334.833 44.1552 339.058 46.3855 341.519C48.2772 343.606 50.1221 345.796 52.3618 347.315C52.4651 347.384 52.4836 347.657 52.5598 347.892C52.6486 347.805 52.7274 347.728 52.8077 347.65C53.5457 348.666 54.4366 349.435 55.391 350.102C56.0934 350.593 56.7954 351.089 57.4761 351.628C58.2876 352.27 59.1289 352.817 60.0234 353.252C60.3326 353.403 60.5486 353.862 60.8579 354.022C61.7014 354.457 62.5192 354.966 63.3447 355.447C64.0363 355.849 64.6449 356.484 65.3324 356.9C65.8761 357.231 66.4888 357.374 67.0627 357.627C67.3842 357.768 67.6817 357.999 68.0054 358.128C68.2773 358.237 68.5226 358.7 68.8575 358.287C69.0978 358.535 69.2471 358.881 69.6483 358.911C69.9576 358.935 70.2412 359.324 70.5554 359.492C70.8345 359.642 71.1442 359.696 71.4332 359.819C71.756 359.957 72.0661 360.233 72.3903 360.256C72.8664 360.289 73.2271 360.479 73.6067 360.848C73.8911 361.125 74.3073 361.23 74.6783 361.305C75.7432 361.518 76.6651 362.431 77.7918 362.322C78.4527 363.021 79.321 362.896 80.0753 363.237C80.7939 363.563 81.605 363.574 82.3092 363.934C82.6613 364.115 83.0652 364.021 83.3064 364.241C83.6157 364.525 83.9011 364.464 84.2081 364.525C84.5476 364.591 84.8754 364.764 85.2153 364.819C85.5381 364.87 85.874 364.791 86.1963 364.845C86.3699 364.875 86.5272 365.064 86.6774 365.17C86.8388 365.036 86.9681 364.929 87.0912 364.826C87.1751 364.853 87.2684 364.847 87.3207 364.904C87.5596 365.162 87.7192 365.502 88.1268 365.482C88.4992 365.465 88.8743 365.698 89.2548 365.76C89.6024 365.817 89.9829 365.667 90.2579 366.083C90.9477 365.912 91.5802 366.335 92.2466 366.392C92.7159 366.432 93.1699 366.386 93.6311 366.682C93.9949 366.916 94.5165 366.475 94.8822 366.997C94.9205 367.051 95.0363 367.017 95.1161 367.024C96.3113 367.128 97.5078 367.215 98.7021 367.345C99.2445 367.404 99.7819 367.545 100.322 367.65C100.822 367.748 101.361 367.42 101.831 367.945C101.947 368.074 102.228 367.964 102.433 367.964C102.925 367.964 103.442 368.086 103.901 367.93C104.367 367.771 104.751 368.735 105.191 368.001C105.557 368.439 106.011 368.249 106.43 368.271C106.921 368.297 107.453 368.123 107.898 368.307C109.212 368.85 110.547 368.61 111.859 368.552C113.482 368.481 115.058 369.008 116.677 368.923C118.313 368.838 119.955 368.888 121.594 368.91C122.675 368.924 123.715 368.458 124.813 368.567C125.872 368.674 126.972 368.787 127.999 368.536C129.044 368.281 130.069 368.358 131.102 368.267C131.604 368.222 132.098 368.043 132.599 367.97C133.104 367.897 133.645 368.129 134.095 367.65C134.988 367.893 135.814 367.191 136.697 367.342C137.15 367.421 137.536 367.165 137.952 367.039C138.363 366.914 138.774 366.992 139.215 366.761C139.811 366.45 140.526 366.519 141.186 366.388C141.446 366.336 141.688 366.136 141.947 366.092C143.096 365.896 144.212 365.529 145.33 365.15C146.957 364.599 148.617 364.186 150.215 363.525C150.828 363.272 151.479 363.194 152.073 362.817C152.645 362.454 153.29 362.279 153.899 362.007C154.578 361.703 155.257 361.397 155.928 361.065C157.128 360.471 158.313 359.826 159.52 359.257C162.303 357.947 164.914 356.17 167.557 354.479C168.137 354.109 168.668 353.618 169.245 353.24C170.846 352.186 172.26 350.734 173.879 349.723C175.174 348.015 176.93 347.084 178.274 345.429C179.285 344.184 180.571 343.3 181.577 342.05C182.879 340.433 184.332 338.983 185.342 337.005C185.451 336.791 185.632 336.638 185.771 336.446C186.671 335.199 187.608 333.99 188.456 332.688C189.37 331.281 190.321 329.914 191.227 328.504C192.371 326.726 193.532 324.978 194.806 323.35C195.223 322.816 195.519 322.123 195.951 321.615C197.638 319.632 199.264 317.512 201.288 316.099C202.911 314.967 204.54 313.807 206.433 313.376C207.349 313.168 208.259 312.937 209.18 312.744C210.015 312.568 210.835 312.468 211.667 312.505C212.209 312.528 212.744 312.741 213.287 312.791C213.858 312.844 214.479 312.63 214.995 312.85C215.508 313.07 216.048 312.934 216.489 313.162C216.964 313.407 217.442 313.275 217.871 313.456C218.824 313.857 219.827 313.904 220.793 314.274C221.586 314.578 222.447 314.727 223.269 314.998C224.379 315.364 225.479 315.782 226.596 316.104C228.313 316.599 229.979 317.319 231.687 317.862C233.317 318.38 234.918 319.061 236.579 319.437C237 320.021 237.629 319.53 238.137 319.967C238.517 320.294 239.112 320.21 239.609 320.328C239.988 320.416 240.358 320.566 240.738 320.628C241.086 320.685 241.462 320.54 241.748 320.944C241.785 320.996 241.906 320.944 241.988 320.952C243.019 321.056 244.084 320.99 245.074 321.306C246.483 321.755 247.884 321.445 249.283 321.583C249.627 321.617 249.99 321.426 250.314 321.848C250.436 322.007 250.809 321.977 251.021 321.876C252.2 321.317 253.418 321.708 254.612 321.572C255.195 321.505 255.774 321.376 256.354 321.263C256.894 321.157 257.42 321.313 257.996 321.022C258.492 320.772 259.141 320.839 259.719 320.654C260.285 320.474 260.921 320.566 261.448 320.293C262.312 319.848 263.245 319.889 264.12 319.438C264.952 319.008 265.886 318.843 266.748 318.442C267.424 318.129 268.119 317.86 268.766 317.468C270.104 316.659 271.45 315.858 272.73 314.915C274.931 313.292 277.098 311.596 279.138 309.639C279.819 308.987 280.364 308.166 281.031 307.527C282.058 306.543 282.805 305.226 283.678 304.066C284.397 303.112 284.938 301.933 285.52 300.822C286.158 299.606 286.602 298.265 286.913 296.859C287.079 296.105 287.303 295.374 287.331 294.566C287.357 293.823 287.538 293.087 287.547 292.345C287.554 291.763 287.37 291.181 287.328 290.593C287.287 290.024 287.498 289.259 287.277 288.914C286.932 288.377 287.328 287.624 286.827 287.25C286.634 285.393 285.981 283.741 285.474 282.012C285.011 280.435 284.282 279.083 283.667 277.641C283.06 276.219 282.359 274.855 281.543 273.576C280.552 272.021 279.455 270.662 278.249 269.382C276.504 267.53 274.647 265.897 272.755 264.317C271.566 263.324 270.361 262.361 269.153 261.405C267.981 260.478 266.784 259.602 265.624 258.653C264.744 257.934 263.806 257.329 263.029 256.401C262.549 255.829 261.942 255.432 261.44 254.886C260.583 253.958 259.802 252.91 258.917 252.032C257.893 251.015 256.967 249.875 256.079 248.684C254.719 246.863 253.546 244.847 252.423 242.784C252.157 242.296 252.088 241.689 251.948 241.159C251.717 240.273 251.752 239.276 251.659 238.329C251.591 237.639 251.491 236.954 251.418 236.264C251.345 235.575 251.581 234.841 251.185 234.186C251.085 234.023 251.182 233.677 251.167 233.418C251.129 232.71 251.076 232.003 251.033 231.296C250.993 230.636 251.142 229.803 250.881 229.358C250.501 228.711 250.802 228.008 250.484 227.342C250.167 226.68 250.296 225.687 250.18 224.85C249.931 223.055 249.676 221.26 249.372 219.478C249.194 218.435 248.89 217.433 248.693 216.388C248.508 215.408 248.146 214.484 247.911 213.515C247.653 212.449 247.248 211.452 246.908 210.441C246.277 208.567 245.926 206.574 245.262 204.728C244.409 202.356 243.892 199.777 242.602 197.672C242.189 195.822 240.986 194.588 240.319 192.925C240.02 192.179 239.456 191.609 239.041 190.932C237.607 188.601 235.855 186.659 234.261 184.523C233.069 182.928 231.744 181.525 230.361 180.23C229.03 178.982 227.762 177.586 226.204 176.773C225.566 175.86 224.611 175.599 223.846 174.929C223.201 174.364 222.429 174.009 221.684 173.658C220.652 173.172 219.559 172.875 218.561 172.303C218.005 171.984 217.43 172.133 216.872 171.816C216.289 171.483 215.526 171.695 214.911 171.42C213.877 170.96 212.84 171.198 211.807 171.149C210.784 171.1 209.75 171.038 208.737 171.173C208.065 171.263 207.385 171.535 206.717 171.72C204.489 172.335 202.481 173.59 200.498 174.919C199.447 175.624 198.428 176.448 197.488 177.374C195.186 179.644 193.003 182.122 191.103 184.922C189.474 187.319 187.681 189.492 185.931 191.722C184.637 193.37 183.128 194.683 181.431 195.629C180.049 196.399 178.621 196.846 177.136 197.189C174.871 197.714 172.608 197.391 170.348 197.418C169.482 197.429 168.566 197.29 167.707 196.894C167.417 196.762 167.06 196.887 166.742 196.828C166.443 196.772 166.156 196.615 165.859 196.527C164.736 196.195 163.603 195.915 162.491 195.534C161.427 195.17 160.324 194.837 159.338 194.277C157.502 193.234 155.615 192.363 153.769 191.359C151.819 190.3 149.845 189.263 147.816 188.508C146.313 187.949 144.822 187.195 143.221 187.122C142.809 186.693 142.271 186.977 141.859 186.771C141.356 186.519 140.784 186.709 140.381 186.418C139.891 186.064 139.434 186.31 138.978 186.179C137.506 185.758 136.024 185.474 134.509 185.542C134.421 185.546 134.328 185.352 134.238 185.251C134.154 185.35 134.065 185.454 134.024 185.503C133.56 185.41 133.145 185.301 132.725 185.247C131.858 185.134 130.968 185.458 130.113 184.953C129.914 184.835 129.602 185.027 129.21 185.101C129.195 185.089 129.038 184.975 128.892 184.869C128.758 185.028 128.67 185.133 128.583 185.236C128.497 185.134 128.409 185.029 128.283 184.88C128.159 184.957 128.022 185.04 127.905 185.112C127.58 185.051 127.149 184.793 126.943 184.967C126.438 185.394 125.917 185.281 125.427 185.218C124.127 185.05 122.857 185.431 121.601 185.631C120.311 185.836 119.002 186.147 117.726 186.534C116.952 186.768 116.136 186.823 115.393 187.287C115.059 187.496 114.609 187.382 114.25 187.549C113.682 187.813 113.014 187.762 112.552 188.376C111.937 188.198 111.355 188.5 110.844 188.79C110.285 189.106 109.686 189.246 109.127 189.57C108.633 189.856 108.05 190.029 107.508 190.258C106.536 190.67 105.483 190.911 104.618 191.558C103.651 192.283 102.559 192.542 101.595 193.26C100.521 194.059 99.3148 194.564 98.2048 195.294C97.7364 195.601 97.0841 195.659 96.8907 196.486C96.1896 196.397 95.828 197.22 95.25 197.492C94.7208 197.741 94.2406 198.186 93.7672 198.597C92.9007 199.35 92.0883 200.213 91.1925 200.9C89.9996 201.814 89.1178 203.213 87.9393 204.134C87.401 205.291 86.2901 205.769 85.8433 207.073C85.6752 207.564 85.2464 207.923 84.9087 208.301C83.6144 209.751 82.7433 211.627 81.7353 213.366C81.0716 214.51 80.5189 215.743 80.0262 217.009C79.3706 218.695 78.6853 220.37 78.2192 222.165C77.9924 223.039 77.781 223.918 77.5524 224.791C77.5163 224.927 77.428 225.041 77.4465 225.005Z" fill="#F7F5F1"/>
<path d="M141.337 214.342C141.518 214.452 141.772 214.741 142.016 214.73C142.55 214.703 143.051 214.873 143.556 215C144.032 215.12 144.524 215.143 144.985 215.298C145.605 215.508 146.234 215.677 146.851 215.901C147.547 216.153 148.265 216.335 148.934 216.673C149.526 216.972 150.118 217.264 150.71 217.561C151.301 217.858 151.91 218.125 152.48 218.46C154.043 219.376 155.668 220.072 157.268 220.853C157.863 221.142 158.467 221.507 159.086 221.585C159.83 221.679 160.504 222.205 161.268 222.079C161.826 222.696 162.597 222.343 163.199 222.766C164.195 222.766 165.171 223.127 166.177 223.008C166.449 222.976 166.724 222.955 167.022 223.166C167.262 223.336 167.647 223.192 167.966 223.156C168.13 223.137 168.287 223.016 168.451 223C169.115 222.937 169.773 223.005 170.448 222.808C171.075 222.624 171.721 222.492 172.357 222.317C173.64 221.964 174.886 221.468 176.087 220.81C178.323 219.585 180.292 217.822 182.05 215.705C183.058 214.492 184.001 213.186 184.947 211.886C186.479 209.782 188.004 207.639 189.802 205.881C190.444 205.254 191.142 204.687 191.873 204.253C193.06 203.549 194.227 203.3 195.517 203.325C196.123 203.336 196.733 203.201 197.335 203.523C197.59 203.66 197.928 203.516 198.225 203.554C198.532 203.593 198.851 203.644 199.134 203.788C199.513 203.981 199.958 203.865 200.284 204.106C200.801 204.489 201.386 204.598 201.924 204.866C202.568 205.187 203.232 205.478 203.838 205.888C204.451 206.304 205.076 206.694 205.668 207.181C207.454 208.65 209.153 210.247 210.711 212.09C210.834 212.236 210.974 212.39 211.128 212.459C211.392 212.578 211.384 212.922 211.531 213.121C211.682 213.326 211.98 213.401 212.068 213.626C212.327 214.29 212.802 214.686 213.162 215.22C213.522 215.754 213.891 216.278 214.238 216.826C214.579 217.365 214.9 217.923 215.222 218.48C215.486 218.937 215.924 219.258 215.929 220.157C215.892 220.174 215.723 220.252 215.555 220.328C215.723 220.543 215.829 220.677 215.935 220.813C215.866 220.922 215.799 221.031 215.682 221.217C216.468 221.965 216.8 223.027 217.109 224.122C217.239 224.586 217.482 224.998 217.685 225.459C217.674 225.475 217.615 225.557 217.563 225.63C217.818 226.569 218.028 227.527 218.339 228.429C218.607 229.205 218.822 230.006 219.094 230.776C219.369 231.556 219.738 232.289 219.722 233.19C220.251 234.19 220.242 235.434 220.632 236.483C220.82 236.99 220.595 237.703 221.136 237.957C220.757 238.578 221.172 238.934 221.3 239.378C221.042 239.603 221.095 239.997 221.176 240.28C221.362 240.932 221.418 241.606 221.509 242.278C221.602 242.966 221.747 243.644 221.69 244.357C221.666 244.659 221.585 245.098 221.705 245.247C222.048 245.674 221.643 246.33 222.045 246.684V248.285C222.045 248.476 221.986 248.718 222.056 248.848C222.295 249.293 222.192 249.778 222.229 250.249C222.267 250.716 222.396 251.178 222.392 251.642C222.386 252.358 222.591 252.981 222.815 253.598C223.456 255.361 224.418 256.844 225.419 258.283C225.824 258.866 226.337 259.323 226.779 259.852C227.869 261.157 228.966 262.447 230.14 263.628C230.703 264.195 231.252 264.789 231.836 265.319C232.523 265.943 233.231 266.534 233.95 267.099C234.445 267.488 234.99 267.775 235.485 268.166C236.055 268.615 236.608 269.089 237.215 269.47C237.812 269.846 238.337 270.39 238.947 270.768C239.502 271.111 239.985 271.644 240.513 272.105C240.515 272.103 240.576 272.037 240.613 271.998C240.735 272.214 240.815 272.501 240.97 272.606C242.12 273.381 243.002 274.553 243.921 275.685C244.921 276.919 245.645 278.39 246.274 279.94C247.091 281.956 247.891 283.99 248.104 286.293C248.428 286.756 248.084 287.379 248.277 287.798C248.534 288.354 248.483 288.929 248.404 289.428C248.306 290.051 248.243 290.658 248.258 291.176C248.114 291.552 247.956 291.826 247.905 292.128C247.756 293.026 247.393 293.786 246.982 294.5C246.278 295.724 245.678 297.063 244.658 297.954C244.367 298.209 244.182 298.667 243.884 298.901C242.385 300.079 240.945 301.378 239.37 302.4C238.031 303.269 236.678 304.039 235.211 304.53C234.26 304.849 233.295 305.151 232.339 305.31C231.216 305.498 230.071 305.741 228.918 305.6C228.533 305.553 228.139 305.558 227.752 305.599C226.481 305.733 225.226 305.461 223.97 305.324C223.491 305.272 222.938 305.327 222.534 305.084C222.124 304.837 221.735 305.034 221.354 304.845C220.966 304.653 220.548 304.517 220.135 304.462C219.429 304.367 218.767 304.058 218.083 303.86C217.322 303.639 216.57 303.377 215.824 303.083C214.84 302.696 213.846 302.351 212.853 302.003C211.885 301.664 210.913 301.345 209.943 301.016C209.158 300.749 208.351 300.561 207.58 300.266C206.635 299.905 205.657 299.787 204.713 299.443C204.371 299.318 203.988 299.312 203.623 299.208C203.238 299.098 202.809 299.279 202.444 298.957C201.622 299.053 200.818 298.797 200.005 298.748C199.224 298.701 198.434 298.635 197.651 298.934C197.295 299.07 196.783 298.774 196.513 299.002C196.152 299.309 195.769 299.001 195.437 299.32C195.146 299.598 194.683 299.247 194.38 299.644C192.994 299.818 191.756 300.607 190.526 301.315C189.205 302.075 187.925 302.968 186.775 304.163C185.883 305.088 184.917 305.897 184.094 306.938C182.608 308.817 181.165 310.741 179.83 312.802C179.203 313.77 178.573 314.741 177.924 315.683C177.096 316.884 176.32 318.149 175.449 319.293C174.422 320.644 173.419 322.03 172.259 323.226C171.472 324.038 170.705 324.896 169.907 325.693C169.24 326.359 168.542 326.987 167.816 327.543C167.171 328.037 166.567 328.609 165.889 329.054C165.2 329.505 164.542 330.065 163.85 330.525C162.623 331.34 161.394 332.15 160.115 332.835C159.195 333.328 158.274 333.803 157.325 334.195C155.901 334.782 154.482 335.389 153.056 335.97C152.366 336.251 151.656 336.541 150.957 336.66C150.164 336.795 149.424 337.334 148.598 337.168C147.479 337.708 146.269 337.675 145.121 338.06C144.66 338.215 144.159 338.112 143.667 338.277C143.209 338.431 142.706 338.386 142.218 338.509C141.631 338.657 141.018 338.594 140.408 338.73C139.613 338.908 138.786 338.863 137.971 338.957C136.12 339.172 134.245 338.793 132.394 339.225C131.656 339.397 130.954 338.987 130.224 338.996C129.357 339.005 128.489 339.015 127.622 338.993C126.777 338.971 125.939 338.969 125.088 338.812C124.024 338.616 122.93 338.769 121.844 338.569C120.717 338.362 119.563 338.388 118.421 338.312C118.361 338.308 118.277 338.344 118.245 338.306C117.946 337.946 117.573 338.056 117.24 338.1C116.844 338.152 116.512 337.907 116.146 337.858C115.454 337.767 114.76 337.701 114.067 337.626C114.007 337.62 113.914 337.657 113.892 337.62C113.664 337.236 113.341 337.459 113.064 337.395C112.759 337.324 112.458 337.224 112.15 337.172C111.609 337.08 111.025 337.145 110.529 336.907C109.835 336.574 109.094 336.606 108.401 336.282C108.102 336.142 107.736 336.107 107.404 336.053C107.034 335.994 106.677 335.899 106.313 335.807C105.238 335.538 104.196 335.102 103.117 334.842C102.532 334.702 101.973 334.334 101.366 334.163C100.747 333.988 100.187 333.499 99.5196 333.505C99.0872 332.995 98.4898 332.993 97.9862 332.7C97.4576 332.392 96.8873 332.246 96.3465 331.943C95.2591 331.334 94.1638 330.745 93.0836 330.111C91.67 329.281 90.3176 328.303 88.9379 327.393C88.0914 326.835 87.2903 326.189 86.4932 325.55C85.6085 324.841 84.7366 324.086 83.8954 323.275C83.3191 322.72 82.7944 322.089 82.2135 321.561C81.6534 321.052 81.1581 320.452 80.6196 319.918C80.1977 319.499 79.8498 318.96 79.4687 318.475C79.0879 317.99 78.7531 317.417 78.3138 317.044C77.8658 316.663 77.6871 316.08 77.385 315.592C77.3669 315.562 77.3435 315.536 77.3218 315.511C76.2564 314.251 75.4806 312.701 74.6535 311.2C73.8294 309.707 72.6913 306.789 72.1206 305.102C71.7543 304.018 71.5035 302.906 71.2494 301.787C71.1095 301.171 70.8791 300.529 70.9153 299.922C70.9762 298.907 70.6369 297.935 70.862 296.897C71.0121 296.206 70.9219 295.446 71.0325 294.704C71.1595 293.849 71.3547 293.03 71.623 292.262C72.0511 291.033 72.6906 289.958 73.4193 288.976C74.1019 288.056 74.9024 287.322 75.6794 286.544C76.7024 285.52 77.7904 284.619 78.943 283.873C80.4215 282.915 81.8867 281.916 83.4586 281.199C84.3674 280.785 85.2116 280.123 86.1305 279.763C87.3828 279.274 88.5275 278.479 89.7387 277.878C90.8182 277.341 91.8214 276.554 92.8565 275.875C93.9488 275.158 94.929 274.22 95.8351 273.187C96.5993 272.315 97.2737 271.305 97.9329 270.297C98.3637 269.639 98.7643 268.917 99.0523 268.147C99.3363 267.388 99.5917 266.599 99.8685 265.835C100.196 264.93 100.419 263.981 100.659 263.051C100.91 262.078 101.08 261.043 101.204 260.026C101.348 258.838 101.474 257.637 101.557 256.442C101.636 255.297 101.892 254.16 101.766 252.994C101.754 252.881 101.726 252.722 101.771 252.658C102.089 252.194 101.883 251.646 101.944 251.144C102.005 250.642 102.084 250.142 102.119 249.637C102.193 248.564 102.243 247.489 102.303 246.415C102.305 246.377 102.294 246.334 102.304 246.301C102.729 244.993 102.597 243.526 103.021 242.218C102.897 241.716 103.245 241.294 103.189 240.828C103.128 240.318 103.323 239.894 103.397 239.438C103.561 238.433 103.801 237.447 104.039 236.463C104.234 235.655 104.487 234.875 104.783 234.111C105.091 233.32 105.324 232.498 105.691 231.725C106.539 229.941 107.446 228.227 108.608 226.755C109.36 225.803 110.104 224.815 110.956 224.026C111.819 223.229 112.684 222.423 113.595 221.694C115.017 220.555 116.532 219.668 118.001 218.66C118.505 218.687 118.869 218.203 119.34 218.077C119.768 217.962 120.187 217.739 120.583 217.493C121.011 217.225 121.468 217.082 121.911 216.883C122.486 216.624 123.051 216.261 123.644 216.154C125.07 215.896 126.388 215.029 127.847 214.986C128.129 214.484 128.615 214.949 128.977 214.568C129.231 214.301 129.673 214.609 130.066 214.345C130.393 214.125 130.886 214.326 131.303 214.29C131.55 214.268 131.789 214.115 132.038 214.079C132.331 214.037 132.632 214.077 132.927 214.039C133.02 214.027 133.102 213.879 133.126 213.855C133.367 213.949 133.525 214.06 133.683 214.063C134.61 214.079 135.539 214.041 136.465 214.079C137.369 214.117 138.271 214.217 139.173 214.303C139.63 214.346 140.091 214.185 140.547 214.5C140.719 214.619 141.028 214.413 141.337 214.342ZM99.7099 238.752C99.5743 239.505 99.5496 240.074 99.3689 240.546C99.0776 241.31 99.0911 242.147 98.9009 242.93C98.785 243.409 98.8308 243.97 98.6613 244.404C98.5431 244.707 98.5378 244.969 98.5378 245.254C98.5375 246.136 98.4272 246.98 98.1969 247.821C98.0695 248.285 98.1281 248.812 98.0264 249.326C97.8519 250.212 97.873 251.16 97.8161 252.082C97.7937 252.442 97.8286 252.785 97.6584 253.148C97.5399 253.4 97.6357 253.817 97.6357 254.16C97.6357 254.541 97.7216 254.973 97.609 255.288C97.5152 255.55 97.5301 255.825 97.4902 256.059C97.3513 256.883 97.3471 257.742 97.2727 258.585C97.2348 259.014 97.146 259.435 97.1002 259.864C97.0538 260.293 97.2098 260.768 96.9176 261.141C96.9531 262.138 96.6036 263.055 96.5476 264.039C96.5117 264.675 96.1273 265.224 96.1915 265.905C95.6076 266.913 95.4911 268.216 94.8694 269.215C94.3217 270.097 93.8172 270.977 93.1204 271.726C92.2598 272.651 91.2658 273.248 90.3341 273.983C89.8344 274.377 89.2401 274.649 88.6743 274.934C88.1088 275.22 87.5325 275.479 86.9885 275.82C86.4408 276.164 85.8682 276.458 85.3083 276.724C84.3479 277.177 83.3908 277.646 82.4565 278.169C81.0633 278.949 79.6875 279.787 78.3358 280.677C77.5176 281.216 76.7767 281.944 75.9681 282.511C75.0238 283.173 74.1796 284.021 73.3143 284.816C72.4606 285.6 71.7306 286.608 70.9631 287.54C69.4797 289.34 68.36 291.474 67.6165 293.892C67.2933 294.943 67.0399 296.034 66.8941 297.185C66.747 298.352 66.8108 299.495 66.7657 300.646C66.7532 300.961 66.6486 301.33 66.9217 301.6C66.9467 301.625 66.743 301.937 66.7786 302.047C66.8822 302.369 66.8895 302.706 66.929 303.033C66.976 303.426 66.9843 303.809 67.0824 304.209C67.1669 304.556 67.3177 304.775 67.3963 304.902C67.3615 305.255 67.2663 305.529 67.3262 305.725C67.9654 307.829 68.5522 309.958 69.4399 311.932C70.1952 313.612 70.969 315.275 71.8922 316.808C73.1698 318.93 75.4063 322.014 77.0344 323.811C78.4155 325.335 79.7622 326.933 81.3973 328.042C81.4727 328.093 81.4862 328.292 81.5418 328.463C81.6067 328.4 81.6642 328.344 81.7228 328.286C82.2616 329.029 82.912 329.59 83.6087 330.077C84.1215 330.435 84.6339 330.797 85.1309 331.19C85.7233 331.659 86.3375 332.059 86.9905 332.376C87.2162 332.486 87.3739 332.822 87.5997 332.938C88.2155 333.256 88.8125 333.627 89.4151 333.978C89.92 334.272 90.3643 334.735 90.8663 335.04C91.2632 335.281 91.7105 335.385 92.1294 335.57C92.3641 335.673 92.5813 335.842 92.8176 335.936C93.0161 336.015 93.1951 336.353 93.4397 336.052C93.6151 336.233 93.724 336.485 94.017 336.508C94.2428 336.525 94.4498 336.809 94.6792 336.932C94.8829 337.041 95.109 337.08 95.32 337.17C95.5556 337.271 95.7821 337.473 96.0187 337.489C96.3663 337.513 96.6296 337.652 96.9067 337.921C97.1144 338.124 97.4182 338.201 97.689 338.255C98.4664 338.41 99.1395 339.077 99.962 338.998C100.444 339.508 101.078 339.416 101.629 339.666C102.154 339.904 102.746 339.912 103.26 340.175C103.517 340.306 103.812 340.238 103.988 340.399C104.214 340.606 104.422 340.561 104.646 340.606C104.894 340.654 105.133 340.78 105.381 340.82C105.617 340.858 105.862 340.8 106.098 340.839C106.224 340.861 106.339 340.999 106.449 341.077C106.567 340.979 106.661 340.901 106.751 340.826C106.812 340.845 106.88 340.841 106.918 340.882C107.093 341.071 107.209 341.319 107.507 341.305C107.779 341.292 108.053 341.462 108.33 341.507C108.584 341.549 108.862 341.44 109.063 341.744C109.566 341.619 110.028 341.927 110.514 341.969C110.857 341.998 111.188 341.964 111.525 342.181C111.791 342.351 112.172 342.029 112.438 342.411C112.466 342.45 112.551 342.425 112.609 342.43C113.482 342.506 114.355 342.57 115.227 342.664C115.623 342.708 116.015 342.811 116.41 342.887C116.774 342.958 117.168 342.719 117.511 343.102C117.596 343.197 117.801 343.116 117.951 343.116C118.31 343.116 118.687 343.205 119.022 343.092C119.363 342.976 119.643 343.679 119.965 343.144C120.231 343.463 120.563 343.325 120.869 343.341C121.227 343.359 121.615 343.232 121.94 343.367C122.899 343.763 123.875 343.588 124.832 343.546C126.017 343.494 127.167 343.878 128.349 343.816C129.544 343.754 130.742 343.791 131.939 343.807C132.728 343.817 133.487 343.477 134.289 343.557C135.062 343.635 135.865 343.717 136.615 343.534C137.377 343.348 138.126 343.404 138.88 343.338C139.246 343.305 139.607 343.174 139.973 343.121C140.341 343.068 140.736 343.237 141.065 342.887C141.717 343.065 142.32 342.552 142.965 342.663C143.296 342.72 143.577 342.533 143.88 342.441C144.181 342.35 144.481 342.407 144.803 342.239C145.238 342.011 145.76 342.062 146.242 341.966C146.431 341.928 146.608 341.782 146.797 341.75C147.636 341.607 148.451 341.339 149.267 341.062C150.454 340.66 151.667 340.358 152.833 339.876C153.28 339.691 153.756 339.634 154.19 339.359C154.607 339.094 155.078 338.966 155.522 338.767C156.018 338.546 156.514 338.322 157.004 338.08C157.88 337.647 158.745 337.175 159.626 336.76C161.658 335.803 163.564 334.506 165.493 333.272C165.916 333.002 166.304 332.644 166.725 332.367C167.894 331.598 168.926 330.538 170.109 329.8C171.054 328.553 172.336 327.874 173.317 326.665C174.055 325.756 174.994 325.111 175.729 324.199C176.678 323.018 177.739 321.959 178.477 320.515C178.556 320.359 178.689 320.248 178.79 320.108C179.447 319.197 180.131 318.314 180.75 317.364C181.418 316.337 182.111 315.339 182.773 314.31C183.608 313.011 184.456 311.736 185.386 310.547C185.691 310.157 185.906 309.651 186.222 309.28C187.453 307.833 188.64 306.285 190.118 305.254C191.302 304.427 192.492 303.58 193.874 303.266C194.542 303.114 195.207 302.945 195.879 302.804C196.489 302.676 197.088 302.603 197.695 302.629C198.09 302.647 198.481 302.802 198.878 302.838C199.294 302.877 199.748 302.721 200.124 302.882C200.499 303.042 200.893 302.943 201.215 303.109C201.562 303.288 201.911 303.192 202.224 303.324C202.92 303.617 203.652 303.651 204.357 303.921C204.936 304.143 205.565 304.251 206.165 304.45C206.975 304.717 207.778 305.022 208.594 305.257C209.847 305.618 211.063 306.144 212.31 306.54C213.5 306.918 214.669 307.416 215.882 307.69C216.189 308.116 216.648 307.758 217.019 308.077C217.296 308.316 217.731 308.255 218.094 308.34C218.37 308.405 218.64 308.515 218.918 308.56C219.172 308.601 219.446 308.496 219.655 308.791C219.682 308.828 219.77 308.791 219.83 308.796C220.583 308.872 221.36 308.824 222.083 309.054C223.112 309.382 224.135 309.156 225.156 309.257C225.407 309.282 225.672 309.142 225.908 309.45C225.997 309.566 226.269 309.544 226.425 309.471C227.285 309.063 228.175 309.348 229.046 309.249C229.472 309.2 229.894 309.106 230.318 309.023C230.712 308.946 231.096 309.059 231.516 308.848C231.879 308.665 232.352 308.713 232.774 308.579C233.188 308.447 233.652 308.514 234.037 308.315C234.667 307.99 235.348 308.02 235.987 307.691C236.594 307.377 237.276 307.257 237.905 306.964C238.399 306.735 238.906 306.539 239.379 306.253C240.355 305.663 241.338 305.078 242.272 304.389C243.88 303.204 245.461 301.966 246.951 300.537C247.448 300.061 247.846 299.462 248.333 298.995C249.083 298.277 249.627 297.315 250.265 296.469C250.79 295.773 251.185 294.912 251.61 294.101C252.076 293.213 252.4 292.234 252.626 291.208C252.748 290.657 252.911 290.123 252.931 289.534C252.951 288.991 253.083 288.454 253.089 287.912C253.094 287.487 252.96 287.063 252.93 286.634C252.9 286.218 253.054 285.659 252.893 285.408C252.641 285.016 252.93 284.466 252.564 284.193C252.423 282.837 251.946 281.631 251.576 280.369C251.238 279.218 250.706 278.23 250.257 277.178C249.814 276.14 249.302 275.144 248.707 274.21C247.983 273.075 247.182 272.083 246.302 271.149C245.028 269.796 243.672 268.604 242.291 267.451C241.423 266.726 240.543 266.023 239.661 265.325C238.806 264.648 237.932 264.009 237.085 263.316C236.442 262.792 235.758 262.35 235.19 261.672C234.84 261.254 234.397 260.965 234.03 260.566C233.405 259.888 232.835 259.124 232.189 258.482C231.441 257.74 230.766 256.908 230.117 256.038C229.124 254.709 228.268 253.237 227.448 251.731C227.253 251.375 227.203 250.932 227.101 250.545C226.932 249.898 226.958 249.17 226.89 248.479C226.841 247.975 226.767 247.475 226.714 246.972C226.661 246.468 226.833 245.933 226.544 245.455C226.471 245.335 226.542 245.083 226.531 244.893C226.503 244.377 226.465 243.861 226.433 243.345C226.404 242.863 226.513 242.255 226.322 241.93C226.045 241.458 226.265 240.945 226.032 240.458C225.801 239.975 225.895 239.25 225.811 238.639C225.629 237.328 225.442 236.018 225.22 234.717C225.09 233.956 224.869 233.224 224.725 232.462C224.59 231.746 224.326 231.071 224.154 230.364C223.965 229.586 223.67 228.858 223.422 228.12C222.961 226.752 222.705 225.297 222.22 223.95C221.597 222.218 221.22 220.335 220.278 218.798C219.977 217.447 219.098 216.547 218.612 215.333C218.393 214.788 217.982 214.372 217.679 213.878C216.632 212.176 215.353 210.758 214.189 209.199C213.319 208.035 212.351 207.01 211.342 206.065C210.371 205.154 209.445 204.135 208.307 203.541C207.841 202.874 207.144 202.684 206.586 202.195C206.115 201.783 205.551 201.524 205.008 201.267C204.255 200.912 203.456 200.695 202.727 200.278C202.322 200.045 201.902 200.154 201.495 199.922C201.069 199.68 200.512 199.834 200.063 199.634C199.308 199.298 198.551 199.472 197.797 199.436C197.05 199.4 196.296 199.355 195.556 199.453C195.065 199.519 194.569 199.717 194.081 199.852C192.455 200.301 190.989 201.218 189.541 202.188C188.774 202.702 188.03 203.304 187.344 203.98C185.663 205.637 184.07 207.446 182.682 209.49C181.494 211.24 180.185 212.826 178.907 214.455C177.962 215.658 176.861 216.616 175.622 217.306C174.613 217.869 173.57 218.195 172.486 218.446C170.833 218.829 169.181 218.593 167.531 218.613C166.899 218.621 166.23 218.519 165.603 218.23C165.391 218.134 165.131 218.225 164.898 218.182C164.68 218.141 164.47 218.027 164.253 217.962C163.434 217.72 162.607 217.516 161.795 217.238C161.018 216.972 160.213 216.728 159.493 216.319C158.153 215.558 156.775 214.922 155.427 214.19C154.004 213.416 152.563 212.659 151.081 212.108C149.985 211.7 148.896 211.15 147.727 211.097C147.426 210.783 147.034 210.99 146.733 210.84C146.366 210.656 145.948 210.794 145.654 210.582C145.296 210.324 144.963 210.503 144.63 210.408C143.555 210.101 142.473 209.893 141.367 209.943C141.303 209.945 141.235 209.804 141.169 209.73C141.108 209.803 141.043 209.879 141.013 209.914C140.675 209.846 140.371 209.767 140.065 209.727C139.432 209.645 138.782 209.881 138.158 209.513C138.012 209.427 137.785 209.567 137.499 209.621C137.488 209.612 137.373 209.529 137.267 209.452C137.169 209.568 137.104 209.644 137.041 209.719C136.978 209.645 136.914 209.568 136.822 209.46C136.732 209.516 136.632 209.576 136.546 209.629C136.309 209.584 135.994 209.396 135.844 209.523C135.475 209.835 135.095 209.753 134.737 209.706C133.788 209.583 132.861 209.862 131.944 210.008C131.002 210.157 130.046 210.385 129.115 210.667C128.55 210.838 127.955 210.878 127.412 211.217C127.168 211.369 126.839 211.286 126.577 211.408C126.163 211.601 125.675 211.563 125.338 212.012C124.889 211.882 124.464 212.102 124.091 212.314C123.683 212.545 123.246 212.647 122.838 212.883C122.477 213.092 122.051 213.218 121.656 213.386C120.946 213.687 120.177 213.863 119.546 214.335C118.84 214.864 118.043 215.053 117.339 215.577C116.555 216.161 115.674 216.53 114.864 217.062C114.522 217.286 114.046 217.329 113.905 217.932C113.393 217.868 113.129 218.468 112.707 218.667C112.321 218.848 111.97 219.173 111.625 219.473C110.992 220.023 110.399 220.653 109.745 221.155C108.874 221.822 108.23 222.843 107.37 223.515C106.977 224.36 106.166 224.709 105.84 225.661C105.717 226.019 105.404 226.282 105.158 226.558C104.213 227.616 103.577 228.986 102.841 230.256C102.356 231.091 101.953 231.99 101.593 232.915C101.115 234.146 100.614 235.368 100.274 236.679C100.108 237.317 99.9541 237.959 99.7872 238.596C99.7609 238.695 99.6964 238.778 99.7099 238.752Z" fill="#F7F5F1"/>
</g>
</svg>
