<svg width="75" height="79" viewBox="0 0 75 79" fill="none" xmlns="http://www.w3.org/2000/svg">
<path d="M43.4587 43.5098L40.5143 49.5536C39.5128 51.6094 36.9945 52.4086 34.9907 51.3066L31.9503 49.6343C30.0758 48.6034 29.3443 46.28 30.2902 44.3611L33.7661 37.309C34.6997 35.4148 36.945 34.5727 38.894 35.3858L43.6657 37.3764C44.946 37.9105 45.8663 39.0605 46.0324 40.4377C47.0878 49.1873 46.6476 61.2004 41.8717 70.2105C32.4 88.0792 5.45436 74.3387 1.85177 54.4383C-0.67886 40.4594 2.58892 24.7018 19.7982 11.9773C22.8671 9.70813 26.3254 7.98336 29.9207 6.70239C55.2311 -2.31538 91.0303 -5.49727 65.1185 43.5098" stroke="#F7B9B9"/>
</svg>
