<svg width="93" height="96" viewBox="0 0 93 96" fill="none" xmlns="http://www.w3.org/2000/svg">
<path d="M39.9255 45.9941L41.2052 39.3942C41.6406 37.1492 43.8662 35.7254 46.087 36.2713L49.4565 37.0997C51.534 37.6103 52.8419 39.6653 52.425 41.7636L50.8927 49.475C50.4811 51.5463 48.5303 52.9408 46.4373 52.6599L41.3129 51.9721C39.9381 51.7875 38.7514 50.915 38.2345 49.6277C34.9505 41.4493 32.2665 29.7317 34.5478 19.7925C39.0719 0.0811329 68.6557 6.37939 77.2861 24.6693C83.3486 37.5169 84.2705 53.5833 70.9409 70.3284C68.5639 73.3145 65.6698 75.8756 62.5286 78.0434C40.4147 93.3047 6.65879 105.644 19.0037 51.6" stroke="#F7B9B9"/>
</svg>
