<svg width="79" height="75" viewBox="0 0 79 75" fill="none" xmlns="http://www.w3.org/2000/svg">
<path d="M43.1631 31.982L49.2069 34.9264C51.2628 35.9279 52.062 38.4462 50.9599 40.45L49.2877 43.4904C48.2567 45.3649 45.9333 46.0964 44.0144 45.1506L36.9623 41.6746C35.0681 40.741 34.226 38.4957 35.0391 36.5467L37.0298 31.775C37.5639 30.4947 38.7138 29.5744 40.091 29.4083C48.8407 28.3529 60.8537 28.7931 69.8638 33.569C87.7326 43.0407 73.9921 69.9863 54.0917 73.5889C40.1127 76.1196 24.3552 72.8518 11.6306 55.6425C9.36145 52.5736 7.63668 49.1153 6.35571 45.52C-2.66206 20.2097 -5.84395 -15.5896 43.1631 10.3222" stroke="#F7B9B9"/>
</svg>
