<svg viewBox="0 0 292 572" fill="none" xmlns="http://www.w3.org/2000/svg">
<path d="M168.634 450.409C168.471 450.379 168.306 450.35 168.143 450.322L167.624 461.382C167.788 461.39 167.954 461.397 168.118 461.404L168.634 450.409ZM165.47 440.865C166.955 435.969 166.423 433.579 163.178 432.58C168.219 435.078 163.258 437.9 165.47 440.865ZM-155.835 292.296C-157.935 287.278 -161.367 282.771 -165.399 278.471C-162.212 283.079 -159.023 287.688 -155.835 292.296ZM-315.298 139.769C-314.251 139.228 -313.857 139.115 -313.868 139.016C-314.35 134.716 -314.659 130.424 -313.857 126.153C-313.785 125.767 -313.969 125.372 -314.587 125.277C-315.485 125.137 -315.753 125.628 -315.74 126.09C-315.624 130.494 -315.463 134.898 -315.298 139.769ZM274.945 222.114C274.85 234.607 270.385 246.484 266.402 258.429C272.829 246.833 275.876 234.752 274.945 222.114ZM-120.566 478.175C-113.137 488.995 -104.458 499.201 -91.0116 506.988C-102.353 498.132 -112.261 488.564 -120.566 478.175ZM-155.804 330.638C-159.579 317.459 -165.664 304.809 -174.69 292.834C-167.417 305.211 -161.356 317.866 -155.804 330.638ZM-314.374 123.322C-312.321 111.865 -307.711 100.961 -301.27 90.4574C-309.546 100.532 -313.966 111.473 -314.374 123.322ZM163.267 387.55C158.882 397.379 156.528 407.501 155.587 417.821C154.462 430.183 154.199 442.584 154.133 454.995C154.098 461.698 153.675 468.39 153.663 475.093C153.659 476.725 151.808 478.339 153.663 480.211C154.98 475.461 155.319 470.803 155.448 466.184C155.864 451.463 155.595 436.715 156.728 422.026C157.625 410.393 159.46 398.845 163.267 387.55ZM-300.471 116.661C-300.657 116.688 -300.843 116.714 -301.029 116.74C-301.342 119.426 -301.904 122.106 -301.919 124.801C-301.972 133.577 -302.456 142.332 -297.808 150.941C-296.591 153.198 -297.045 156.008 -295.403 158.432C-293.153 161.751 -293.073 165.441 -290.746 168.889C-287.156 174.205 -283.755 179.641 -280.763 185.148C-278.778 188.799 -275.564 191.925 -272.969 195.297C-270.949 197.92 -268.096 200.315 -265.656 202.796C-261.08 207.453 -256.128 211.882 -250.598 215.909C-244.986 219.996 -239.115 223.945 -233.187 227.828C-227.337 231.66 -221.254 235.329 -215.525 239.249C-208.783 243.862 -201.778 248.271 -194.326 252.223C-190.601 254.198 -188.293 256.959 -184.689 259.014C-181.71 260.711 -178.373 262.52 -175.868 264.798C-171.406 268.855 -167.256 273.052 -163.677 277.511C-151.72 292.406 -143.738 308.333 -137.855 324.767C-136.044 329.829 -133.71 334.877 -134.161 340.199C-134.3 341.838 -134.339 343.637 -133.552 345.152C-131.97 348.197 -131.237 351.316 -131.033 354.44C-130.595 361.074 -128.925 367.635 -128.258 374.264C-127.177 385.007 -126.232 395.744 -126.047 406.482C-125.935 413.016 -124.531 419.504 -124.651 426.058C-124.728 430.252 -122.769 434.519 -121.628 438.742C-116.235 458.711 -105.804 477.155 -86.07 492.582C-83.5696 494.538 -83.8648 497.133 -80.96 498.823C-67.8937 506.424 -54.9673 514.148 -42.484 522.247C-29.3658 530.757 -13.0571 535.776 1.57235 542.639C4.54784 544.035 4.60892 543.945 6.0933 546.592C6.24246 546.86 6.9443 546.995 7.40671 547.17C16.6126 550.654 25.4296 554.69 35.0445 557.593C41.0573 559.409 46.9672 561.587 53.5619 561.966C76.5356 563.292 95.264 557.433 110.33 545.789C118.823 539.223 124.968 531.483 130.593 523.536C142.261 507.054 148.678 489.495 149.749 470.847C150.814 452.284 150.028 433.654 152.009 415.113C153.965 396.788 160.407 379.604 172.165 363.472C186.266 344.127 203.793 326.392 221.552 308.758C233.728 296.667 245.256 284.274 254.129 270.721C266.607 251.661 271.431 231.419 270.072 210.175C269.252 197.324 267.288 184.538 264.004 171.865C254.999 137.105 239.304 103.798 215.542 72.308C204.702 57.9457 192.02 44.5493 175.11 33.2861C163.711 25.6917 151.705 18.71 137.546 13.8609C129.239 11.0164 120.661 9.0499 111.42 9.56944C100.016 10.2121 89.1517 12.2512 78.926 15.686C58.2329 22.6392 40.7227 32.8426 22.8171 42.6532C5.25684 52.2771 -12.4347 61.6545 -34.2417 66.5453C-46.8476 69.3726 -59.6208 71.0457 -72.8104 71.2221C-106.578 71.6743 -140.139 68.5128 -173.692 65.496C-189.195 64.1031 -204.588 61.7525 -220.255 61.8424C-230.761 61.9037 -241.032 62.7367 -250.681 65.6719C-265.292 70.1182 -280.861 79.5696 -289 92.3458C-289.213 92.6791 -289.41 93.0595 -289.773 93.294C-294.143 96.1132 -294.771 100.052 -295.773 103.889C-296.034 104.886 -296.022 106.217 -296.913 106.772C-300.11 108.763 -297.704 111.838 -299.848 114.194C-300.789 115.23 -299.788 117.792 -300.315 119.652C-300.367 118.655 -300.42 117.658 -300.471 116.661ZM290.724 213.324C290.921 212.803 291.121 212.282 291.319 211.759C292.012 221.52 291.278 231.172 288.736 240.666C285.119 254.17 278.535 266.901 269.548 278.957C260.771 290.731 250.491 301.807 239.439 312.531C223.325 328.17 207.505 343.95 193.872 360.805C182.534 374.821 175.162 389.817 172.326 406.03C171.21 412.403 170.248 418.783 169.804 425.375C168.136 424.557 169.546 423.583 168.643 422.364C168.552 424.296 167.656 426.164 168.612 427.188C169.934 428.602 170.154 430.121 169.4 431.031C166.173 434.932 168.249 439.188 167.909 443.243C167.637 446.459 169.654 449.676 169.246 452.997C168.726 457.215 169.602 461.484 167.568 465.669C166.658 467.539 167.403 470.009 168.147 472.272C168.832 474.363 168.966 477.044 167.644 478.792C165.42 481.734 166.64 484.88 165.724 487.876C163.477 495.228 160.942 502.474 157.471 509.549C152.518 519.641 145.733 529.061 137.902 538.124C124.926 553.143 105.588 562.324 82.4958 567.999C59.3648 573.683 36.5337 572.889 14.1532 564.361C2.3689 559.87 -9.42317 555.39 -20.6393 550.188C-27.8239 546.856 -34.4962 543.009 -40.2964 538.497C-45.4627 534.479 -51.9776 531.872 -58.3795 529.155C-75.2636 521.993 -90.9207 513.74 -103.993 503.189C-117.194 492.534 -126.513 480.306 -133.346 467.158C-142.432 449.673 -145.713 431.567 -147.359 413.236C-149.725 386.865 -151.995 360.46 -161.182 334.528C-167.656 316.254 -176.192 298.491 -189.981 282.07C-196.08 274.806 -204.153 268.753 -212.711 262.917C-227.799 252.631 -243.737 242.975 -258.151 232.196C-268.507 224.455 -278.541 216.499 -286.454 207.384C-300.319 191.41 -311.199 174.547 -315.932 156.177C-321.005 136.49 -321.16 116.991 -310.698 98.3118C-300.741 80.5327 -285.075 66.4307 -259.345 59.1512C-245.273 55.1692 -230.25 54.4057 -215.074 55.0628C-187.205 56.2705 -159.498 59.4581 -131.613 60.5975C-112.721 61.3682 -93.8272 62.6668 -74.9768 61.4399C-51.9405 59.9426 -31.7769 53.6531 -13.4234 44.2335C-1.08867 37.9032 10.796 31.1661 22.9461 24.6704C37.5177 16.8792 52.69 9.76263 69.8488 4.93295C100.002 -3.55522 128.934 -0.520441 156.855 11.6051C173.201 18.7031 187.473 27.5313 200.305 37.6783C205.738 41.9743 210.681 46.5276 215.689 51.0191C220.227 55.0885 224.268 59.5037 227.674 64.191C230.37 67.9018 234.148 71.2171 236.975 74.9494C247.225 88.4903 256.368 102.342 264.042 116.677C268.634 125.259 272.343 134.013 275.951 142.773C278.838 149.781 281.152 156.903 283.071 164.106C284.651 170.046 286.467 176.006 287.742 181.986C288.424 185.193 287.465 188.487 288.019 191.792C289.121 198.367 289.991 204.962 289.723 211.572C289.697 212.234 289.745 212.902 290.744 213.294C289.432 217.431 290.141 221.641 290.105 225.823C290.834 221.678 291.271 217.52 290.724 213.324Z" fill="#E6BF80"/>
</svg>
