<svg viewBox="0 0 199 62" fill="none" xmlns="http://www.w3.org/2000/svg">
<path d="M79.9874 25.496L77.8994 33.268L75.6374 25.496H71.5774L69.3154 33.268L67.2274 25.496H62.5874L67.2274 39.996H71.2874L73.6074 32.253L75.9274 39.996H79.9874L84.6274 25.496H79.9874Z" fill="#21374D"/>
<path d="M96.0244 25.496V26.859C95.0674 25.757 93.6464 25.09 91.7034 25.09C87.9044 25.09 84.7724 28.425 84.7724 32.746C84.7724 37.067 87.9044 40.402 91.7034 40.402C93.6464 40.402 95.0674 39.735 96.0244 38.633V39.996H100.374V25.496H96.0244ZM92.5734 36.284C90.5724 36.284 89.1224 34.921 89.1224 32.746C89.1224 30.571 90.5724 29.208 92.5734 29.208C94.5744 29.208 96.0244 30.571 96.0244 32.746C96.0244 34.921 94.5744 36.284 92.5734 36.284Z" fill="#21374D"/>
<path d="M112.411 25.496L109.685 34.37L106.466 25.496H101.681L107.452 39.329C106.814 41.098 105.857 41.736 103.827 41.736V45.796C107.887 45.999 110.468 44.172 112.092 39.561L117.051 25.496H112.411Z" fill="#21374D"/>
<path d="M127.035 25.09C125.092 25.09 123.671 25.757 122.714 26.859V25.496H118.364V45.796H122.714V38.633C123.671 39.735 125.092 40.402 127.035 40.402C130.834 40.402 133.966 37.067 133.966 32.746C133.966 28.425 130.834 25.09 127.035 25.09ZM126.165 36.284C124.164 36.284 122.714 34.921 122.714 32.746C122.714 30.571 124.164 29.208 126.165 29.208C128.166 29.208 129.616 30.571 129.616 32.746C129.616 34.921 128.166 36.284 126.165 36.284Z" fill="#21374D"/>
<path d="M143.102 40.402C147.365 40.402 150.787 37.067 150.787 32.746C150.787 28.425 147.365 25.09 143.102 25.09C138.839 25.09 135.417 28.425 135.417 32.746C135.417 37.067 138.839 40.402 143.102 40.402ZM143.102 36.168C141.217 36.168 139.767 34.805 139.767 32.746C139.767 30.687 141.217 29.324 143.102 29.324C144.987 29.324 146.437 30.687 146.437 32.746C146.437 34.805 144.987 36.168 143.102 36.168Z" fill="#21374D"/>
<path d="M155.133 24.22C156.554 24.22 157.743 23.031 157.743 21.61C157.743 20.189 156.554 19 155.133 19C153.712 19 152.523 20.189 152.523 21.61C152.523 23.031 153.712 24.22 155.133 24.22ZM152.958 39.996H157.308V25.496H152.958V39.996Z" fill="#21374D"/>
<path d="M168.698 25.09C166.784 25.09 165.334 25.786 164.551 26.859V25.496H160.201V39.996H164.551V32.079C164.551 30.02 165.653 29.092 167.248 29.092C168.64 29.092 169.771 29.933 169.771 31.731V39.996H174.121V31.093C174.121 27.178 171.627 25.09 168.698 25.09Z" fill="#21374D"/>
<path d="M185.315 29.672V25.496H182.328V21.436L177.978 22.741V25.496H175.658V29.672H177.978V34.805C177.978 38.865 179.631 40.576 185.315 39.996V36.052C183.401 36.168 182.328 36.052 182.328 34.805V29.672H185.315Z" fill="#21374D"/>
<path d="M191.464 29.73C191.464 29.208 191.928 28.918 192.682 28.918C193.639 28.918 194.219 29.44 194.625 30.194L198.337 28.193C197.119 26.134 195.031 25.09 192.682 25.09C189.666 25.09 186.998 26.685 186.998 29.846C186.998 34.863 194.132 34.022 194.132 35.617C194.132 36.197 193.61 36.516 192.566 36.516C191.29 36.516 190.478 35.907 190.101 34.805L186.331 36.951C187.462 39.3 189.666 40.402 192.566 40.402C195.698 40.402 198.598 38.981 198.598 35.646C198.598 30.281 191.464 31.383 191.464 29.73Z" fill="#21374D"/>
<path d="M167.587 47.0754H169.837V51.9054H169.867C170.127 51.5554 170.457 51.3104 170.857 51.1704C171.267 51.0204 171.707 50.9454 172.177 50.9454C172.697 50.9454 173.162 51.0554 173.572 51.2754C173.982 51.4854 174.327 51.7704 174.607 52.1304C174.897 52.4904 175.117 52.9054 175.267 53.3754C175.427 53.8354 175.507 54.3204 175.507 54.8304C175.507 55.3804 175.422 55.8854 175.252 56.3454C175.082 56.8054 174.837 57.2054 174.517 57.5454C174.207 57.8754 173.832 58.1354 173.392 58.3254C172.952 58.5054 172.462 58.5954 171.922 58.5954C171.662 58.5954 171.417 58.5604 171.187 58.4904C170.957 58.4204 170.742 58.3304 170.542 58.2204C170.352 58.1104 170.182 57.9904 170.032 57.8604C169.892 57.7204 169.777 57.5854 169.687 57.4554H169.657V58.4154H167.587V47.0754ZM169.657 54.7704C169.657 55.3204 169.812 55.7654 170.122 56.1054C170.442 56.4454 170.887 56.6154 171.457 56.6154C172.027 56.6154 172.467 56.4454 172.777 56.1054C173.097 55.7654 173.257 55.3204 173.257 54.7704C173.257 54.2204 173.097 53.7754 172.777 53.4354C172.467 53.0954 172.027 52.9254 171.457 52.9254C170.887 52.9254 170.442 53.0954 170.122 53.4354C169.812 53.7754 169.657 54.2204 169.657 54.7704Z" fill="#D25564"/>
<path d="M183.726 57.1554C183.366 57.6154 182.911 57.9704 182.361 58.2204C181.811 58.4704 181.241 58.5954 180.651 58.5954C180.091 58.5954 179.561 58.5054 179.061 58.3254C178.571 58.1454 178.141 57.8904 177.771 57.5604C177.411 57.2204 177.126 56.8154 176.916 56.3454C176.706 55.8754 176.601 55.3504 176.601 54.7704C176.601 54.1904 176.706 53.6654 176.916 53.1954C177.126 52.7254 177.411 52.3254 177.771 51.9954C178.141 51.6554 178.571 51.3954 179.061 51.2154C179.561 51.0354 180.091 50.9454 180.651 50.9454C181.171 50.9454 181.641 51.0354 182.061 51.2154C182.491 51.3954 182.851 51.6554 183.141 51.9954C183.441 52.3254 183.671 52.7254 183.831 53.1954C183.991 53.6654 184.071 54.1904 184.071 54.7704V55.4754H178.851C178.941 55.9054 179.136 56.2504 179.436 56.5104C179.736 56.7604 180.106 56.8854 180.546 56.8854C180.916 56.8854 181.226 56.8054 181.476 56.6454C181.736 56.4754 181.961 56.2604 182.151 56.0004L183.726 57.1554ZM181.821 53.9454C181.831 53.5654 181.706 53.2404 181.446 52.9704C181.186 52.7004 180.851 52.5654 180.441 52.5654C180.191 52.5654 179.971 52.6054 179.781 52.6854C179.591 52.7654 179.426 52.8704 179.286 53.0004C179.156 53.1204 179.051 53.2654 178.971 53.4354C178.901 53.5954 178.861 53.7654 178.851 53.9454H181.821Z" fill="#D25564"/>
<path d="M190.404 52.9254H188.424V55.3554C188.424 55.5554 188.434 55.7404 188.454 55.9104C188.474 56.0704 188.519 56.2104 188.589 56.3304C188.659 56.4504 188.764 56.5454 188.904 56.6154C189.054 56.6754 189.249 56.7054 189.489 56.7054C189.609 56.7054 189.764 56.6954 189.954 56.6754C190.154 56.6454 190.304 56.5854 190.404 56.4954V58.3704C190.154 58.4604 189.894 58.5204 189.624 58.5504C189.354 58.5804 189.089 58.5954 188.829 58.5954C188.449 58.5954 188.099 58.5554 187.779 58.4754C187.459 58.3954 187.179 58.2704 186.939 58.1004C186.699 57.9204 186.509 57.6904 186.369 57.4104C186.239 57.1304 186.174 56.7904 186.174 56.3904V52.9254H184.734V51.1254H186.174V48.9654H188.424V51.1254H190.404V52.9254Z" fill="#D25564"/>
<path d="M196.122 57.5004H196.092C195.842 57.8904 195.507 58.1704 195.087 58.3404C194.677 58.5104 194.242 58.5954 193.782 58.5954C193.442 58.5954 193.112 58.5454 192.792 58.4454C192.482 58.3554 192.207 58.2154 191.967 58.0254C191.727 57.8354 191.537 57.6004 191.397 57.3204C191.257 57.0404 191.187 56.7154 191.187 56.3454C191.187 55.9254 191.262 55.5704 191.412 55.2804C191.572 54.9904 191.782 54.7504 192.042 54.5604C192.312 54.3704 192.617 54.2254 192.957 54.1254C193.297 54.0154 193.647 53.9354 194.007 53.8854C194.377 53.8354 194.742 53.8054 195.102 53.7954C195.472 53.7854 195.812 53.7804 196.122 53.7804C196.122 53.3804 195.977 53.0654 195.687 52.8354C195.407 52.5954 195.072 52.4754 194.682 52.4754C194.312 52.4754 193.972 52.5554 193.662 52.7154C193.362 52.8654 193.092 53.0754 192.852 53.3454L191.652 52.1154C192.072 51.7254 192.562 51.4354 193.122 51.2454C193.682 51.0454 194.262 50.9454 194.862 50.9454C195.522 50.9454 196.062 51.0304 196.482 51.2004C196.912 51.3604 197.252 51.6004 197.502 51.9204C197.762 52.2404 197.942 52.6354 198.042 53.1054C198.142 53.5654 198.192 54.1004 198.192 54.7104V58.4154H196.122V57.5004ZM195.567 55.2204C195.397 55.2204 195.182 55.2304 194.922 55.2504C194.672 55.2604 194.427 55.3004 194.187 55.3704C193.957 55.4404 193.757 55.5454 193.587 55.6854C193.427 55.8254 193.347 56.0204 193.347 56.2704C193.347 56.5404 193.462 56.7404 193.692 56.8704C193.922 57.0004 194.162 57.0654 194.412 57.0654C194.632 57.0654 194.842 57.0354 195.042 56.9754C195.252 56.9154 195.437 56.8304 195.597 56.7204C195.757 56.6104 195.882 56.4704 195.972 56.3004C196.072 56.1304 196.122 55.9304 196.122 55.7004V55.2204H195.567Z" fill="#D25564"/>
<path d="M54.0053 19.8092C53.919 19.6581 53.7943 19.5327 53.6437 19.4456C53.4931 19.3585 53.3221 19.3129 53.1482 19.3134L36.5738 19.3597C36.4447 19.359 36.3168 19.3842 36.1976 19.4338C36.0785 19.4835 35.9705 19.5565 35.8801 19.6487C35.7889 19.7402 35.7167 19.8488 35.6677 19.9683C35.6186 20.0878 35.5938 20.2158 35.5944 20.345L35.6188 29.1113L25.8766 29.1388C25.7476 29.1382 25.6197 29.1635 25.5006 29.2132C25.3815 29.2628 25.2735 29.3358 25.183 29.4278C25.0918 29.5193 25.0196 29.6279 24.9705 29.7474C24.9215 29.8669 24.8966 29.9949 24.8973 30.1241L24.9247 39.8736C24.9249 40.0026 24.9506 40.1304 25.0003 40.2495C25.05 40.3686 25.1227 40.4767 25.2142 40.5677C25.3057 40.6587 25.4143 40.7307 25.5337 40.7797C25.6531 40.8286 25.781 40.8535 25.91 40.853L53.208 40.7769C53.2452 40.7772 53.2824 40.7751 53.3193 40.7706C53.4826 40.7515 53.6385 40.6916 53.7727 40.5966C53.9068 40.5016 54.015 40.3744 54.0873 40.2268C54.1596 40.0791 54.1937 39.9156 54.1865 39.7514C54.1793 39.5871 54.1309 39.4273 54.0459 39.2866L48.4738 30.0586L53.9956 20.7996C54.0846 20.6501 54.1324 20.4797 54.1342 20.3057C54.1359 20.1317 54.0914 19.9604 54.0053 19.8092Z" fill="#3F4694"/>
<path d="M37.5196 29.7344C37.4477 29.5495 37.3214 29.3907 37.1574 29.279C36.9934 29.1673 36.7994 29.1079 36.601 29.1087L25.8768 29.138C25.7477 29.1375 25.6199 29.1628 25.5007 29.2124C25.3816 29.262 25.2736 29.335 25.1831 29.427C25.0919 29.5185 25.0197 29.6271 24.9707 29.7466C24.9217 29.8661 24.8968 29.9942 24.8975 30.1233L24.9249 39.8728C24.9255 40.063 24.9814 40.249 25.0857 40.408C25.19 40.5671 25.3382 40.6925 25.5124 40.769C25.6865 40.8455 25.8791 40.8698 26.0668 40.8389C26.2545 40.8081 26.4292 40.7234 26.5698 40.5952L37.2666 30.8164C37.4132 30.6828 37.5159 30.5078 37.5611 30.3147C37.6062 30.1215 37.5918 29.9192 37.5196 29.7344Z" fill="#36A6B2"/>
<path d="M37.2434 9.89517C37.1519 9.80396 37.0433 9.73176 36.9237 9.68273C36.8042 9.63371 36.6762 9.60883 36.547 9.60953L11.1983 9.6806C11.0692 9.68082 10.9415 9.70651 10.8224 9.75617C10.7033 9.80584 10.5952 9.87852 10.5042 9.97005C10.4132 10.0616 10.3412 10.1702 10.2923 10.2896C10.2433 10.409 10.2184 10.5369 10.219 10.6659L10.2741 30.1638C10.2743 30.2928 10.3 30.4205 10.3497 30.5396C10.3994 30.6587 10.472 30.7669 10.5636 30.8579C10.6551 30.9488 10.7637 31.0209 10.8831 31.0698C11.0025 31.1188 11.1304 31.1437 11.2594 31.1431L36.6069 31.0732C36.6441 31.0735 36.6813 31.0714 36.7183 31.0669C36.958 31.039 37.1791 30.9238 37.3392 30.7432C37.4993 30.5626 37.5873 30.3293 37.5863 30.088L37.5324 10.5889C37.5323 10.4599 37.5067 10.3323 37.4571 10.2132C37.4075 10.0941 37.3348 9.98607 37.2434 9.89517Z" fill="#398984"/>
<rect x="6.35522" y="5.31628" width="5.896" height="55.0293" rx="2.948" fill="#1ABC9C"/>
</svg>
