<?xml version="1.0" encoding="utf-8"?>
<!-- Generator: Adobe Illustrator 22.1.0, SVG Export Plug-In . SVG Version: 6.00 Build 0)  -->
<svg version="1.1" id="Layer_1" xmlns="http://www.w3.org/2000/svg" xmlns:xlink="http://www.w3.org/1999/xlink" x="0px" y="0px"
	 viewBox="0 0 105 57" style="enable-background:new 0 0 105 57;" xml:space="preserve">
<style type="text/css">
	.st0{fill:#D4D7D9;}
	.st1{fill:#F1F1F1;}
	.st2{fill:#5758F7;}
	.st3{fill:#F4B32D;}
	.st4{fill:#FCE055;}
</style>
<path class="st0" d="M96,38c-4.9,0-9.5-4.5-11.6-11l0,0H67c0,0,0,0,0,0H29H10.9c0.4,0,0.8-0.1,1.2-0.2c0.3-0.2,0.7-0.4,0.9-0.7
	c0.8-0.9,1.4-2.4,1.6-4.2c0.2-1.2,0.2-2.5,0.1-3.8c0-0.7-0.1-1.4-0.2-2c-0.8-5.3-2-11-7.3-11C2,5,0,11.6,0,19.7
	C0,29.8,6.2,38,12.7,38h52.4v0H96z"/>
<path class="st1" d="M96.1,5H69.5H67H7c5.3,0,6.5,5.7,7.3,11c0.1,0.7,0.2,1.4,0.2,2c0.1,1.3,0,2.7-0.1,3.8c-0.2,1.8-0.8,3.3-1.6,4.2
	c-0.3,0.3-0.6,0.5-0.9,0.7C11.4,26.9,11,27,10.6,27H67h14.4h19.8c2,0,3.6-1.6,3.8-3.6c0-0.6,0.1-1.3,0.1-1.9C105,12.4,101,5,96.1,5z
	"/>
<path class="st2" d="M44,29.2v27.2l10.9-11l10.9,11V28.5c-2.9,2.8-6.9,4.5-11.3,4.5C50.5,33,46.9,31.6,44,29.2z"/>
<path class="st3" d="M54.5,0C45.4,0,38,7.4,38,16.5c0,5.1,2.3,9.7,6,12.7c2.9,2.4,6.5,3.8,10.5,3.8c4.4,0,8.3-1.7,11.3-4.5
	c3.2-3,5.2-7.3,5.2-12C71,7.4,63.6,0,54.5,0z"/>
<path id="Fill-15" class="st4" d="M63,16c0,5-4,9-9,9s-9-4-9-9c0-5,4-9,9-9S63,11,63,16"/>
</svg>
