<svg id="Layer_1" xmlns="http://www.w3.org/2000/svg" viewBox="0 0 90 41"><style>.st0{fill:#e6e7e7}.st2{fill:#1cb7c8}</style><path id="Rectangle-path" class="st0" d="M5.7 4.5L82.3 0c2.8-.2 5.1 1.9 5.3 4.7l1.6 26.5c.2 2.8-1.9 5.1-4.7 5.3L7.8 41c-2.8.2-5.1-1.9-5.3-4.7L1 9.8C.8 7 2.9 4.7 5.7 4.5z"/><path id="Rectangle-path_1_" d="M8.6 6.5l70.9-4.4c2.8-.2 5.1 1.9 5.3 4.7L86.2 29c.2 2.8-1.9 5.1-4.7 5.3l-70.9 4.4c-2.8.2-5.1-1.9-5.3-4.7L3.9 11.8c-.1-2.7 2-5.1 4.7-5.3z" fill="#f9fafb"/><path id="Shape" class="st0" d="M14 8.9l-3.1 3.3-2.3-2c-.2-.1-.4-.2-.6-.1s-.3.3-.3.5v.7l.2 2.8c0 .4.4.7.8.7l1.2-.1 1.9-.1h.5l2.2-.1c.3 0 .5-.1.7-.3.2-.2.3-.4.3-.7l-.3-3.5v-.6c0-.3-.2-.5-.5-.6-.3-.1-.6 0-.7.1z"/><path id="Shape_1_" class="st2" d="M20 27.9l.1 1.5-1.6.1-.1-1.5c-1.5 0-2.9-.5-4-1.5l1.2-1.9c.8.7 1.7 1.2 2.7 1.3l-.2-2.7c-1.7-.3-3.7-.9-3.8-3.2-.1-1.7 1.2-3.3 3.4-3.6l-.1-1.6 1.6-.1.1 1.6c1.3 0 2.5.5 3.5 1.3l-1.2 1.8c-.6-.5-1.3-.8-2.1-1l.1 2.4c1.8.4 3.7.9 3.8 3.2.1 2-1 3.5-3.4 3.9zm-1.9-7.3l-.1-2.1c-.8.1-1.3.6-1.2 1.2 0 .5.5.8 1.3.9zm2.9 3.9c0-.6-.6-.9-1.5-1.1l.1 2.4c1-.2 1.4-.7 1.4-1.3z"/><path id="Shape_2_" class="st2" d="M27.6 19l-1.8 2-1.5-1.3 3.5-3.7 2.1-.2.7 11-2.5.2z"/><path id="Shape_3_" class="st2" d="M35.8 15.3c3.1-.2 4.7 2.6 4.9 5.4.2 2.9-1.1 5.8-4.2 6s-4.7-2.6-4.9-5.5c-.1-2.8 1.1-5.7 4.2-5.9zm.1 2.1c-1.6.1-2.1 1.7-1.9 3.7.1 2 .8 3.6 2.4 3.5 1.6-.1 2-1.7 1.9-3.8-.1-2-.8-3.5-2.4-3.4z"/><path id="Shape_4_" class="st2" d="M50.6 14.5c3.1-.2 4.7 2.6 4.9 5.4.2 2.8-1.1 5.8-4.2 6-3.1.2-4.7-2.6-4.9-5.5s1.1-5.7 4.2-5.9zm.1 2.1c-1.6.1-2.1 1.7-1.9 3.7.1 2 .8 3.6 2.4 3.5 1.6-.1 2-1.7 1.9-3.8-.2-2-.8-3.5-2.4-3.4z"/><path id="Shape_5_" class="st2" d="M60.7 14.3c3.1-.2 4.7 2.6 4.8 5.5.2 2.9-1.1 5.8-4.2 6s-4.7-2.6-4.9-5.5c-.1-2.9 1.2-5.8 4.3-6zm.1 2.1c-1.6.1-2.1 1.7-1.9 3.7.1 2 .8 3.6 2.4 3.5 1.6-.1 2-1.7 1.9-3.8-.1-2-.8-3.5-2.4-3.4z"/><path id="Shape_6_" class="st2" d="M71.4 13.3c3.1-.2 4.7 2.6 4.9 5.4.2 2.8-1 5.8-4.2 6-3.1.2-4.7-2.6-4.9-5.5s1.1-5.7 4.2-5.9zm.1 2.1c-1.6.1-2.1 1.7-1.9 3.7.1 2 .8 3.6 2.4 3.5 1.6-.1 2-1.7 1.9-3.8-.2-2-.8-3.5-2.4-3.4z"/><path id="Shape_7_" class="st0" d="M25.4 31.9l-16.3.9c-.2 0-.5-.2-.5-.5s.2-.5.4-.5l16.3-.9c.2 0 .3.1.4.2.1.2.1.3 0 .5 0 .2-.2.3-.3.3z"/><path id="Shape_8_" class="st0" d="M28.6 34.4L8.7 35.6c-.2 0-.3-.1-.4-.2-.1-.1-.1-.3 0-.5.1-.1.2-.2.4-.3l19.9-1.2c.2 0 .3.1.4.2.1.1.1.3 0 .5s-.3.3-.4.3z"/><path id="Shape_9_" class="st0" d="M82.6 30.7L62.9 32h-.1v-.1-.1h.1l19.8-1.3c.1 0 .1 0 .1.1v.1h-.2z"/><path id="Shape_10_" class="st0" d="M67.7 31.1h-.2c-.1 0-.1 0-.1-.1-.2-.4-.1-.8 0-1.2.2-.5.6-.9 1-1.2l-.1-1.3c0-.3-.1-.5-.2-.7-.4-.4-1.1.1-1.3.2-1 .7-1.9 1.5-2.8 2.4h-.1s-.1 0-.1-.1c-.1-.1-.1-.2 0-.2.9-.9 1.8-1.7 2.9-2.4.7-.5 1.3-.5 1.7-.2.2.3.3.6.3.9l.1 1.2c.1 0 .2-.1.2-.1.6-.2 1 .3 1.2.7.1.2.3.4.3.4l.1-.1c.2-.4.5-.6.9-.7.6-.2 1.1.2 1.6.5l.3.2c1.5.9 3.7.7 5.5-.4.8-.5 1.6-1.1 2.3-1.8 0-.1.1-.1.2-.1s.1.1.1.1c0 .1 0 .1-.1.2-.7.7-1.5 1.4-2.4 1.9-2 1.1-4.2 1.3-5.8.4l-.3-.2c-.5-.3-.9-.6-1.4-.4-.3.1-.6.3-.7.6-.1.2-.2.3-.4.3s-.4-.2-.6-.5c-.3-.4-.5-.7-.9-.6-.1 0-.2.1-.3.2.1.5 0 1-.1 1.4.1.3-.3.6-.8.7zm0-.3c.3 0 .6-.3.7-.6.1-.4.1-.8.1-1.2-.3.2-.6.6-.8.9-.1.3-.1.6 0 .9z"/></svg>