<?xml version="1.0" encoding="utf-8"?>
<!-- Generator: Adobe Illustrator 24.0.1, SVG Export Plug-In . SVG Version: 6.00 Build 0)  -->
<svg version="1.1" id="Layer_1" xmlns="http://www.w3.org/2000/svg" xmlns:xlink="http://www.w3.org/1999/xlink" x="0px" y="0px"
	 viewBox="0 0 201 271" style="enable-background:new 0 0 201 271;" xml:space="preserve">
<style type="text/css">
	.st0{fill-rule:evenodd;clip-rule:evenodd;fill:#10EB7F;}
	.st1{fill-rule:evenodd;clip-rule:evenodd;fill:#1ABC9C;}
	.st2{fill-rule:evenodd;clip-rule:evenodd;fill:#F4B42E;}
	.st3{fill-rule:evenodd;clip-rule:evenodd;fill:#5758F7;}
	.st4{filter:url(#Adobe_OpacityMaskFilter);}
	.st5{fill-rule:evenodd;clip-rule:evenodd;fill:#FFFFFF;}
	.st6{mask:url(#mask-180_2_);fill-rule:evenodd;clip-rule:evenodd;fill:#88FFE8;}
	.st7{fill-rule:evenodd;clip-rule:evenodd;fill:#FD7B33;}
	.st8{fill-rule:evenodd;clip-rule:evenodd;fill:#1CB7C8;}
</style>
<polygon id="Fill-402_3_" class="st0" points="46,271 41.9,266.6 47,261.9 43.7,253.4 51.8,245.8 55.9,250.3 50.8,255 54.1,263.5 
	"/>
<polygon id="Fill-408_3_" class="st1" points="128.2,117.7 127,113.7 122.8,113.6 123,107.5 131.5,107.8 134,115.9 "/>
<polygon id="Fill-410_1_" class="st2" points="162.5,221.7 153.6,229.3 149.6,224.7 155.1,220 152.7,214.3 158.9,208.6 163.1,213 
	160,215.9 "/>
<polygon id="Fill-412_3_" class="st3" points="83.3,157.8 79.9,154.5 75,155.8 73.5,150 81.7,147.7 84.8,150.8 92.6,147.9 
	94.7,153.5 "/>
<g id="Group-416_3_">
	<g id="Clip-415_3_">
	</g>
	<defs>
		<filter id="Adobe_OpacityMaskFilter" filterUnits="userSpaceOnUse" x="-0.2" y="152.7" width="10.4" height="12.4">
			<feColorMatrix  type="matrix" values="1 0 0 0 0  0 1 0 0 0  0 0 1 0 0  0 0 0 1 0"/>
		</filter>
	</defs>
	<mask maskUnits="userSpaceOnUse" x="-0.2" y="152.7" width="10.4" height="12.4" id="mask-180_2_">
		<g class="st4">
			<polygon id="path-179_2_" class="st5" points="-0.2,152.7 10.2,152.7 10.2,165.1 -0.2,165.1 			"/>
		</g>
	</mask>
	<polygon id="Fill-414_3_" class="st6" points="8.9,165.1 2.8,164.1 3.5,160 -0.2,158 2.7,152.7 10.2,156.7 	"/>
</g>
<polygon id="Fill-404_2_" class="st7" points="63.2,88.5 57.1,88.5 57.1,82.1 61.2,80.3 61.2,77.8 67.3,77.7 67.3,84.3 63.1,86.1 
	"/>
<polygon id="Fill-400_2_" class="st8" points="18.3,22.4 22.2,16.8 17.3,9.1 23.8,0.1 28.7,3.6 24.7,9.3 29.5,17 23.1,25.9 "/>
<polygon id="Fill-402_2_" class="st0" points="183,25.4 189,24.6 189.8,31.6 198.6,34 199.8,45 193.8,45.7 193,38.7 184.3,36.3 "/>
</svg>
