<svg width="548" height="136" xmlns="http://www.w3.org/2000/svg"><g fill-rule="nonzero" fill="none"><path fill="#1CB7C8" d="M398.924 75l-3.606-11.667-15.803-1.498L374 42.997 384.076 40l3.606 11.774 15.803 1.498L409 72.003z"/><path fill="gold" d="M7.138 136L0 128.472l8.69-8.146-5.587-14.436L16.863 93 24 100.528l-8.793 8.146 5.586 14.436z"/><path fill="#FD7B33" d="M475.755 30.379l-10.42-1.85 2.28-10.972 7.738-1.726.892-4.21 10.368 1.762-2.32 11.113-7.739 1.726z"/><path fill="#F4B42E" d="M538.144 135l-8.636-5.684 6.3-10.21-6.808-10 8.23-6.106L548 118.79z"/><path fill="#1ABC9C" d="M274.14 19l-2.054-6.64-7.086-.3.41-10.06 14.276.503L284 15.983z"/><path fill="#10EB7F" d="M235.35 93H215V82.655h12.548l3.268-10.138L245.578 72 246 82.345l-7.381.31z"/><path fill="#5758F7" d="M130.663 74l-5.76-5.599-8.229 2.24L114 60.766 127.989 57l5.245 5.192 13.166-4.887 3.6 9.467z"/><path fill="#88FFE8" d="M65.684 21l-10.42-1.639 1.157-6.966L50 9.015 55.053 0 68 6.761z"/></g></svg>