<svg id="Layer_1" data-name="Layer 1" xmlns="http://www.w3.org/2000/svg" xmlns:xlink="http://www.w3.org/1999/xlink" viewBox="0 0 200 297.26"><defs><style>.cls-1{fill:#fff;}.cls-1,.cls-2,.cls-3,.cls-4,.cls-6,.cls-7,.cls-8{fill-rule:evenodd;}.cls-2{fill:#1cb7c8;}.cls-3{fill:#fd7b33;}.cls-4{fill:#f4b42e;}.cls-5{mask:url(#mask);}.cls-6{fill:#88ffe8;}.cls-7{fill:#5758f7;}.cls-8{fill:#1abc9c;}</style><mask id="mask" x="64.32" y="111.16" width="17.67" height="18.47" maskUnits="userSpaceOnUse"><g transform="translate(-0.51 -0.14)"><g id="mask-180"><polygon id="path-179" class="cls-1" points="72.18 111.3 82.49 117.46 75.14 129.77 64.83 123.6 72.18 111.3"/></g></g></mask></defs><title>Confetti Right</title><polygon id="Fill-400" class="cls-2" points="21.8 216.88 19.41 209.26 8.94 208.28 5.29 195.97 11.96 194.01 14.35 201.71 24.82 202.68 28.47 214.92 21.8 216.88"/><polygon id="Fill-404" class="cls-3" points="115.18 236.06 109.84 231.45 114.76 225.78 119.75 227.39 121.64 225.22 126.98 229.77 122 235.5 117.01 233.9 115.18 236.06"/><polygon id="Fill-406" class="cls-4" points="142.59 297.26 136.62 293.48 140.97 286.69 136.26 280.05 141.95 276 149.4 286.49 142.59 297.26"/><g id="Group-416"><g class="cls-5"><polygon id="Fill-414" class="cls-6" points="73.36 128.87 67.91 124.3 71.01 120.62 68.52 116.44 74.57 112.89 79.62 121.28 73.36 128.87"/></g></g><polygon id="Fill-412" class="cls-7" points="185.49 151.84 183.48 146.71 177.72 145.8 178.91 138.9 188.62 140.44 190.42 145.16 200 145.8 199.63 152.77 185.49 151.84"/><polygon id="Fill-406-2" data-name="Fill-406" class="cls-4" points="15.14 20.21 16.44 27.16 8.5 28.59 6.85 36.56 0 35.16 2.61 22.56 15.14 20.21"/><polygon id="Fill-408" class="cls-8" points="150.08 11.82 148.68 7.2 143.83 6.99 144.11 0 153.88 0.35 156.83 9.72 150.08 11.82"/></svg>