<?xml version="1.0" encoding="utf-8"?>
<!-- Generator: Adobe Illustrator 22.1.0, SVG Export Plug-In . SVG Version: 6.00 Build 0)  -->
<svg version="1.1" id="Layer_1" xmlns="http://www.w3.org/2000/svg" xmlns:xlink="http://www.w3.org/1999/xlink" x="0px" y="0px"
	 viewBox="0 0 97 122" style="enable-background:new 0 0 97 122;" xml:space="preserve">
<style type="text/css">
	.st0{fill:#F4B42E;}
	.st1{fill:#FFD700;}
	.st2{fill:#2E3696;}
	.st3{fill:#EBEBC4;}
	.st4{fill:#1CB7C8;}
	.st5{fill:#11664C;}
	.st6{fill:#84F0FC;}
</style>
<path id="Shape_2_" class="st0" d="M69.1,43.4l0.1-3.4L48,41.7l4.7,59.3l4.4-0.4l-0.9-10.9c5.7-1.9,10.7-6.8,12-14.3
	c8.9-4.5,14.6-14.2,13.7-24.9c-0.2-2.8-0.9-5.5-1.9-8L69.1,43.4z M69,71l0.4-22.3l7.9-0.7c0.2,1.2,0.4,2.4,0.6,3.6
	C78.6,59.5,74.9,66.9,69,71z"/>
<path class="st1" d="M26.9,43.5l0.6,3.3l-10.8,0.9c-0.6,2.7-0.9,5.4-0.6,8.2C16.9,66.4,24,75.1,33.4,78c2.5,7.2,8,11.2,14.1,12.1
	l0.9,10.9l4.3-0.3L48,41.8C44.7,42,41.3,42.3,26.9,43.5z M20.3,55.4c-0.1-1.2-0.1-2.4,0-3.6l7.9-0.6l3.9,21.4
	C25.6,69.6,21,63.1,20.3,55.4z"/>
<polygon id="Shape" class="st2" points="67.3,99 37.9,101.5 38.2,104.2 34,104.5 35.4,122 73,118.8 71.6,101.3 67.5,101.7 "/>
<rect id="Rectangle-path" x="42.3" y="106.9" transform="matrix(0.9967 -8.074123e-02 8.074123e-02 0.9967 -8.8183 4.6693)" class="st3" width="22" height="9"/>
<polygon class="st4" points="47,40 38.5,40 30,40 30,50.1 38.5,56 47,50.1 "/>
<path class="st4" d="M36.3,57h0.1c-2.5,0.9-4.4,3.4-4.4,6.3c0,3.7,2.9,6.7,6.5,6.7s6.5-3,6.5-6.7c0-2.9-1.7-5.3-4.1-6.3v-1h-2.3
	h-0.1h-2.2V57z"/>
<path id="Shape_5_" class="st5" d="M40.8,59.3L37.3,63L35,60.4c-0.4-0.4-1-0.1-1,0.5v0.9v3.4c0,0.5,0.4,0.9,0.8,0.9h1.3h2h0.6H41
	c0.6,0,1-0.5,1-1.1v-4.3v-0.8C42,59.1,41.2,58.7,40.8,59.3z"/>
<path id="Shape_6_" class="st6" d="M44,19c0.6-0.1,1.1-0.8,1-1.7L44.3,1.4c0-0.8-0.6-1.5-1.2-1.4S42,0.8,42,1.7l0.7,15.9
	C42.8,18.4,43.3,19.1,44,19z"/>
<path id="Shape_7_" class="st6" d="M74.1,34.1c0.3,0.8,1.2,1.1,2,0.8l20-7.9c0.7-0.3,1.1-1.3,0.7-2c-0.3-0.8-1.2-1.1-2-0.8l-20.1,8
	C74.1,32.5,73.8,33.3,74.1,34.1z"/>
<path id="Shape_8_" class="st6" d="M28.8,25.9l-13-17C15.6,8.4,15.2,8,14.6,8c-0.6-0.1-1.1,0.2-1.4,0.7c-0.3,0.5-0.3,1.1,0,1.6
	l13,17c0.4,0.7,1.3,0.9,2,0.6C28.9,27.5,29.2,26.6,28.8,25.9z"/>
<path id="Shape_9_" class="st6" d="M18.3,36.4l-16-7.2c-0.5-0.3-1.1-0.3-1.6-0.1S0,29.9,0,30.4c0,0.5,0.4,1,0.9,1.2l16,7.2
	c0.7,0.3,1.6,0.1,1.9-0.6C19.2,37.6,18.9,36.8,18.3,36.4z"/>
<path id="Shape_10_" class="st6" d="M62,25L72.9,5.1c0.2-0.5,0.1-1.2-0.3-1.6C72.2,3,71.6,2.9,71,3c-0.6,0.1-1,0.6-1.1,1.2L59,24.1
	c-0.2,0.8,0.3,1.6,1,1.8C60.9,26.2,61.7,25.8,62,25z"/>
</svg>
