<svg width="322" height="362" xmlns="http://www.w3.org/2000/svg" xmlns:xlink="http://www.w3.org/1999/xlink"><defs><path id="a" d="M.788.759h32v32h-32z"/><path id="c" d="M.588.623h22.4v25.136H.589z"/><path id="e" d="M.788.794h32v32h-32z"/><path id="g" d="M.588.658h22.4v25.136H.589z"/><path id="i" d="M.788.483h32v32h-32z"/><path id="k" d="M.588.347h22.4v25.136H.589z"/><path d="M.619 1.228a.904.904 0 0 0 1.805 0 .904.904 0 0 0-1.805 0z" id="m"/><path d="M.594 1.883a.901.901 0 1 0 1.802.002.901.901 0 0 0-1.802-.002z" id="o"/><path d="M.594 1.565a.902.902 0 1 0 1.805 0 .902.902 0 0 0-1.805 0z" id="q"/><path id="s" d="M.788.386h32v32h-32z"/><path id="u" d="M.588.25h22.4v25.136H.589z"/><path d="M.648 3.222a2.373 2.373 0 1 0 4.746.002 2.373 2.373 0 0 0-4.746-.002z" id="w"/><path d="M.58 3.207a2.374 2.374 0 1 0 4.747.001A2.374 2.374 0 0 0 .58 3.207z" id="y"/><path d="M.58 3.259a2.374 2.374 0 1 0 4.748 0 2.374 2.374 0 0 0-4.748 0z" id="A"/></defs><g fill="none" fill-rule="evenodd"><path d="M49.267.679h211.44c3.127 0 5.663 2.309 5.663 5.156v244.012c0 2.848-2.536 5.156-5.663 5.156H49.267c-3.127 0-5.662-2.308-5.662-5.156V5.835c0-2.847 2.535-5.156 5.662-5.156" fill="#E1E2F1"/><path d="M236.424 117.903H75.027a8 8 0 0 1-8-8V86.354a8 8 0 0 1 8-8h161.397a8 8 0 0 1 8 8v23.55a8 8 0 0 1-8 8" fill="#F1F2F3"/><g transform="translate(80 81.37)"><mask id="b" fill="#fff"><use xlink:href="#a"/></mask><path d="M32.788 16.759c0 8.837-7.163 16-16 16s-16-7.163-16-16c0-8.836 7.163-16 16-16s16 7.164 16 16" fill-opacity=".6" fill="#5758F7" mask="url(#b)"/></g><g transform="translate(85 88.37)"><mask id="d" fill="#fff"><use xlink:href="#c"/></mask><path d="M13.523 15.305a7.442 7.442 0 0 0 5.657-8.111 7.443 7.443 0 1 0-9.126 8.11 13.442 13.442 0 0 0-9.466 5.883c6.222 6.097 16.179 6.097 22.4 0a13.44 13.44 0 0 0-9.465-5.882" fill="#5657F6" mask="url(#d)"/></g><path d="M123.475 93.201l50.283.026M123.475 103.201l80.283.026" stroke="#D4D7D9" stroke-width="4" stroke-linecap="round"/><path d="M236.424 166.939H75.027a8 8 0 0 1-8-8v-23.55a8 8 0 0 1 8-8h161.397a8 8 0 0 1 8 8v23.55a8 8 0 0 1-8 8" fill="#F1F2F3"/><g transform="translate(80 130.37)"><mask id="f" fill="#fff"><use xlink:href="#e"/></mask><path d="M32.788 16.794c0 8.836-7.163 16-16 16s-16-7.164-16-16c0-8.837 7.163-16 16-16s16 7.163 16 16" fill-opacity=".6" fill="#1ABC9C" mask="url(#f)"/></g><g transform="translate(85 137.37)"><mask id="h" fill="#fff"><use xlink:href="#g"/></mask><path d="M13.523 15.34a7.444 7.444 0 1 0-3.47 0 13.444 13.444 0 0 0-9.465 5.881c6.222 6.098 16.179 6.098 22.4 0a13.442 13.442 0 0 0-9.465-5.881" fill="#1ABC9C" mask="url(#h)"/></g><path d="M123.475 142.236l50.283.025M123.475 152.236l80.283.025" stroke="#D4D7D9" stroke-width="4" stroke-linecap="round"/><path d="M236.424 216.628H75.027a8 8 0 0 1-8-8V185.08a8 8 0 0 1 8-8h161.397a8 8 0 0 1 8 8v23.548a8 8 0 0 1-8 8" fill="#F1F2F3"/><g transform="translate(80 180.37)"><mask id="j" fill="#fff"><use xlink:href="#i"/></mask><path d="M32.788 16.483c0 8.837-7.163 16-16 16s-16-7.162-16-16c0-8.835 7.163-16 16-16s16 7.165 16 16" fill="#6BACD8" mask="url(#j)"/></g><g transform="translate(85 187.37)"><mask id="l" fill="#fff"><use xlink:href="#k"/></mask><path d="M13.523 15.03a7.442 7.442 0 0 0 5.657-8.112 7.443 7.443 0 1 0-9.126 8.111 13.445 13.445 0 0 0-9.466 5.882c6.222 6.098 16.179 6.098 22.4 0a13.443 13.443 0 0 0-9.465-5.882" fill="#0875BE" mask="url(#l)"/></g><path d="M123.475 191.927l50.283.025M123.475 201.927l80.283.025" stroke="#D4D7D9" stroke-width="4" stroke-linecap="round"/><path d="M266.37 3.644c0-1.642-1.454-2.977-3.257-2.99H47.087a3.4 3.4 0 0 0-2.322.869c-.612.563-.95 1.328-.934 2.12v10.314h222.566l-.028-10.313z" fill="#F9FAFB"/><path d="M56.855 6.764h-5.156l2.372-2.347a.464.464 0 0 0 0-.618.464.464 0 0 0-.645 0l-3.093 3.094a.256.256 0 0 0 0 .129.596.596 0 0 0 0 .308.457.457 0 0 0 .128.18l3.094 3.095c.412.413 1.057-.206.645-.618l-2.372-2.372h5.156a.44.44 0 0 0 .343-.733.436.436 0 0 0-.472-.118" fill="#2E3696"/><path d="M62.656 7.201l26.76.026" stroke="#34495E"/><path d="M254.424 4.598a.902.902 0 1 1-1.804 0 .902.902 0 0 1 1.804 0" fill="#D4D7D9"/><g transform="translate(252 3.37)"><mask id="n" fill="#fff"><use xlink:href="#m"/></mask><path fill="#D4D7D9" mask="url(#n)" d="M-2.964 8.343h8.92v-8.92h-8.92z"/><path fill="#D4D7D9" mask="url(#n)" d="M-1.624 4.321h6.239v-6.239h-6.239z"/></g><path d="M254.399 7.253a.902.902 0 1 1-1.803 0 .902.902 0 0 1 1.803 0" fill="#D4D7D9"/><g transform="translate(252 5.37)"><mask id="p" fill="#fff"><use xlink:href="#o"/></mask><path fill="#D4D7D9" mask="url(#p)" d="M-2.964 6.343h8.92v-8.92h-8.92z"/><path fill="#D4D7D9" mask="url(#p)" d="M-1.624 5.003h6.239v-6.239h-6.239z"/></g><path d="M254.399 9.935a.902.902 0 1 1-1.805 0 .902.902 0 0 1 1.805 0" fill="#D4D7D9"/><g transform="translate(252 8.37)"><mask id="r" fill="#fff"><use xlink:href="#q"/></mask><path fill="#D4D7D9" mask="url(#r)" d="M-2.964 3.343h8.92v-8.92h-8.92z"/><path fill="#D4D7D9" mask="url(#r)" d="M-1.624 4.683h6.239v-6.239h-6.239z"/></g><g><path d="M51.257 91.636c1.031-.542 0-2.166 0-2.166a1.652 1.652 0 0 1-.902 1.728c.154 0 .257 0 .386.128l.516.31z" fill="#603916"/><path d="M321.621 356.052c0 2.748-24.875 4.976-55.56 4.976-30.683 0-55.558-2.228-55.558-4.976 0-2.748 24.875-4.976 55.558-4.976 30.685 0 55.56 2.228 55.56 4.976" fill="#2B2D6B"/><path d="M304.064 279.172c-1.263-5.156-.98-16.604-1.934-23.384l-21.45 1.934c1.702 9.59 5.285 25.78 7.735 31.195 5.543 12.117 17.53 46.768 17.53 46.768l7.735-1.934s-6.084-40.374-9.616-54.58M263.793 89.576a14.293 14.293 0 0 0 .155 3.325l.283 1.135c1.161 4.125 4.048 7.193 6.807 7.322 4.125.155 6.445.876 6.858 5.001.31 3.25-.362 3.584-2.579 4.873.284-.155-1.108 4.795.955 6.317 2.887 2.165 7.09.825 12.142 2.062 2.32.593 13.458 10.184 10.855.232a56.959 56.959 0 0 1-5.699-13.922 49.049 49.049 0 0 1 0-9.307 25.791 25.791 0 0 0 4.435-4.718c3.713-5.156 1.47-20.909-6.626-24.182a28.715 28.715 0 0 0-21.243 1.185c-2.578 1.651-3.79 7.89-3.79 7.89a5.644 5.644 0 0 0-.362 2.577v-.335a1.549 1.549 0 0 1 1.703.98 4.441 4.441 0 0 0-1.986-.284c-.258.62-.155 2.27-.67 3.017a21.568 21.568 0 0 1-3.532 3.532c-.8.67.593 3.12 2.294 3.3" fill="#A77C4F"/><path d="M266.113 79.083l-.18.412a2.8 2.8 0 0 1-.18.413 4.82 4.82 0 0 1 2.579.361 1.832 1.832 0 0 0-2.219-1.186M263.948 92.695l.387 1.624a3.74 3.74 0 0 0 2.063-2.836s-1.187 2.372-2.45 1.212" fill="#0E131F"/><path d="M275.91 82.254s-1.649-4.537 2.733-4.021c4.383.515 1.29 8.79 1.29 8.79s5.362 9.566 9.796 10.03a9.31 9.31 0 0 0 7.735-3.687s12.426-9.41 9.152-20.625c-3.274-11.215-10.029-11.963-10.029-11.963s-13.226-3.661-20.445 0c-7.218 3.662-6.213-5.156-8.97-1.031-2.76 4.125-5.725 10.313.565 15.236a66.842 66.842 0 0 1 8.173 7.27" fill="#2B2D6B"/><path d="M235.847 147.816c4.047-2.733 2.887-3.919 2.913-5.363 0-2.346-2.578-24.879-3.171-27.534-.594-2.656 4.022-6.6 3.223-13.355-.8-6.755-5.492-5.724-6.678-2.114-1.006 3.042-.696 9.127-1.264 12.89-.566 3.764-5.593 25.498-4.382 35.115.309 2.836 6.523 2.295 9.359.361M231.953 333.776l7.734 3.893 27.277-79.922-21.449-5.852c-5.337 33.412-13.562 81.881-13.562 81.881" fill="#A77C4F"/><path d="M299.242 195.872l-45.606-.825a242.861 242.861 0 0 0-5.493 26.864c-.308 2.991-2.37 16.165-5.156 32.511l25.446 5.774 6.781-20.779s1.212 10.312 3.25 21.862l25.78-2.32c-3.635-26.116-5.002-63.087-5.002-63.087" fill="#21254F"/><path d="M307.415 123.015a11.86 11.86 0 0 0-15.469-9.591c-.593.18-14.695-.98-15.056-1.108a15.148 15.148 0 0 0-1.547-.568l-.567-.284c-3.97-1.082-12.607-1.984-20.264 7.4-10.313 12.684-29.39 23.332-28.36 32.33 1.032 8.997 12.891 7.27 12.891 7.27l14.231-5.156c0 2.423-1.314 44.395-1.314 44.395a76.345 76.345 0 0 1 27.894 1.16 202.59 202.59 0 0 0 23.462 4.486 158.084 158.084 0 0 1 2.346-37.872c2.913-17.016 1.934-33.903 1.753-42.462" fill="#F1F2F3"/><path d="M241.698 333.776l-6.47 22.507a1.368 1.368 0 0 1-1.675 1.006l-22.791-5.466a1.394 1.394 0 0 1-1.032-1.7c.8-3.224 3.764-10.623 13.458-7.22l4.64 2.294 4.073-13.69 9.797 2.27zM314.3 329.032l4.253 23.333a1.418 1.418 0 0 1-1.108 1.624l-22.972 4.614a1.417 1.417 0 0 1-1.65-1.108c-.619-3.275-1.057-11.24 9.178-12.22h5.156l-3.119-13.613 10.261-2.63z" fill="#0E131F"/><path d="M236.424 67.53H75.027a8 8 0 0 1-8-8V35.981a8 8 0 0 1 8-8h161.397a8 8 0 0 1 8 8v23.55a8 8 0 0 1-8 8" fill="#F1F2F3"/></g><g><g transform="translate(80 31.37)"><mask id="t" fill="#fff"><use xlink:href="#s"/></mask><path d="M32.788 16.386c0 8.836-7.163 16-16 16s-16-7.164-16-16c0-8.837 7.163-16 16-16s16 7.163 16 16" fill-opacity=".6" fill="#1CB7C8" mask="url(#t)"/></g><g transform="translate(85 38.37)"><mask id="v" fill="#fff"><use xlink:href="#u"/></mask><path d="M13.523 14.93a7.442 7.442 0 0 0 5.657-8.11 7.442 7.442 0 1 0-9.126 8.111 13.448 13.448 0 0 0-9.466 5.882c6.222 6.098 16.179 6.098 22.4 0a13.446 13.446 0 0 0-9.465-5.882" fill="#1CB6C8" mask="url(#v)"/></g></g><g><path d="M79.05 355.072c0 3.29-17.453 5.955-38.982 5.955s-38.98-2.666-38.98-5.955c0-3.29 17.451-5.956 38.98-5.956 21.53 0 38.981 2.666 38.981 5.956" fill="#26276D"/><path d="M22.305 198.76c-2.218 24.492 4.512 40.115 2.165 64.814-1.727 18.047-14.013 58.993-5.852 62.365 9.339 3.86 29.21-57.39 24.595-92.194 1.109 11.91 4.64 21.347 4.64 35.682 0 29.235-1.64 57.378 5.802 63.628C64.827 342.439 67.06 236.89 67.06 192.21a202.313 202.313 0 0 1-43.57-3.66l-1.186 10.209zM56.388 86.585a15.282 15.282 0 0 1 1.572 2.914l.387 1.134c1.187 4.099.387 8.224-1.907 9.797a16.085 16.085 0 0 0-5.466 14.051c.489 4.176 3.738 7.424 2.784 9.796-1.29 3.378-6.085 1.857-11.19 2.811-5.104.954-3.686-7.322-4.871-10.493-1.032-2.733-2.734-8.225-2.734-8.225a27.05 27.05 0 0 1-6.29-1.649c-5.88-2.398-12.35-16.913-7.245-24.003a28.932 28.932 0 0 1 18.614-10.313c2.94 0 7.425 4.667 7.425 4.667a5.904 5.904 0 0 1 1.676 1.986l-.31-.181a1.548 1.548 0 0 0-.927 1.728c.41-.54.928-.988 1.52-1.316.594.413 1.367 1.857 2.192 2.218 1.612.544 3.282.899 4.976 1.057 1.03.128 1.16 2.939-.206 4.021" fill="#8C6339"/><path d="M48.885 78.129c.203.444.437.875.696 1.289a5.16 5.16 0 0 0-1.933 1.624 3.433 3.433 0 0 1 1.237-2.913M57.858 89.344l.54 1.573a3.714 3.714 0 0 1-3.222-1.315s2.295 1.34 2.682-.258" fill="#603916"/><path d="M34.009 120.385a290.694 290.694 0 0 0 46.098-4.048c1.391-.232 5.465-13.148 8.817-14.901 3.352-1.753 7.064-.233 10.028 1.443a9.156 9.156 0 0 1 3.868 7.735c.335 8.172-4.615 15.624-10.313 21.45-5.697 5.826-13.87 7.967-18.588 14.618-2.578 3.686-4.563 6.445-7.374 10.003-7.734 10.003-21.63 1.108-22.403-.31-.774-1.418-14.695-21.14-12.737-35.32l2.604-.67z" fill="#F8F8F9"/><path d="M56.594 118.863a37.23 37.23 0 0 0 6.007 30.706 27.652 27.652 0 0 1 5.414 8.74c.433 2.235.495 4.526.181 6.781a292.77 292.77 0 0 0-.67 34.314 42.827 42.827 0 0 1-38.673-2.578c-2.242-1.34-5.878-3.068-6.703-5.543a13.72 13.72 0 0 1 1.186-8.637c5.156-14.179 5.775-49.37 2.578-64.066l30.68.283z" fill="#E9EBEC"/><path d="M91.166 106.436c-3.377-3.48-2.01-4.408-1.753-5.826.44-2.32 7.503-23.848 8.69-26.322 1.184-2.475-2.58-7.27-.465-13.742 2.114-6.47 6.548-4.486 6.961-.722.36 3.198-1.16 9.076-1.393 12.89-.23 3.817.232 26.067-2.759 35.193-.902 2.81-6.857 1.006-9.28-1.47" fill="#8C6339"/><path d="M36.82 80.733c4.254-2.578 9.178-9.204 5.775-12.89-3.403-3.688-9.9.411-12.89 4.046a26.647 26.647 0 0 1-4.383 5.156 21.982 21.982 0 0 1-5.44 2.09c-8.052 3.182-12.338 11.99-9.874 20.29a11.394 11.394 0 0 1 1.21 5.8c-.462 2.14-2.577 3.506-4.124 4.95a20.444 20.444 0 0 0-3.557 25.42 15.221 15.221 0 0 1 2.99 5.801 12.175 12.175 0 0 1-.748 4.357 53.25 53.25 0 0 0-1.521 10.83 7.27 7.27 0 0 0 .464 3.504 6.356 6.356 0 0 0 2.707 2.58 20.472 20.472 0 0 0 23.796-2.914 24.88 24.88 0 0 0 6.703-23.642 10.306 10.306 0 0 1-.463-3.249c.29-1.44.868-2.81 1.7-4.022a22.456 22.456 0 0 0 0-22.455 78.47 78.47 0 0 1-4.433-6.91 8.042 8.042 0 0 1 0-7.734l3.609-1.315a12.699 12.699 0 0 0-.722-7.322l-.8-2.37z" fill="#969ACA"/><path d="M23.49 188.55s-8.765 34.083-18.51 59.427c0 0 33.129 17.53 72.188 13.637l-9.824-62.364-43.853-10.7z" fill="#21254F"/><path d="M14.725 314.26L6.99 341.82a1.622 1.622 0 0 0 1.16 1.986l9.152 9.255 15.65-.516a1.649 1.649 0 0 0 2.01-1.185c.884-3.371.53-7.246-8.248-9.374-2.05-.497-3.724-1.972-4.525-3.922l-.32-.777a6.655 6.655 0 0 1 .137-5.363l6.486-13.77-13.768-3.894zM47.854 320.087l-1.624 27.817a1.65 1.65 0 0 0 1.366 1.857l10.004 8.327 15.469-2.036a1.648 1.648 0 0 0 1.907-1.366c.537-3.458-.195-7.32-9.261-8.57-2.007-.276-3.742-1.544-4.685-3.337l-.906-1.723a6.3 6.3 0 0 1-.688-3.631l1.618-14.657-13.2-2.681z" fill="#0E131F"/><path d="M123.475 42.828l50.283.025M123.475 52.828l80.283.025" stroke="#D4D7D9" stroke-width="4" stroke-linecap="round"/><path d="M229.274 44.64l.48-4.606 1.728.002c.036.254.057.502.056.76a4.417 4.417 0 0 1-2.264 3.845zm-7.98-.017a4.39 4.39 0 0 1-2.25-3.852c0-.258.023-.5.06-.761l1.728.002.462 4.61zm8.56-5.548l.079-.718-4.653-.008v-.001l-4.628-.008.074.714-2.358-.003a5.395 5.395 0 0 0 3.106 6.728 3.849 3.849 0 0 0 2.835 2.83l-.007 2.318-2.257-.006.006.565-.916-.004-.008 3.675 8.276.014.009-3.675-.916-.002.007-.558-2.28-.005.008-2.316a3.801 3.801 0 0 0 2.86-2.824 5.388 5.388 0 0 0 3.122-6.713l-2.358-.003z" fill="#F4B42E"/><path d="M157.395 228.592a2.374 2.374 0 1 1-4.749 0 2.374 2.374 0 0 1 4.749 0" fill="#D4D7D9"/></g><g transform="translate(152 225.37)"><mask id="x" fill="#fff"><use xlink:href="#w"/></mask><path fill="#D4D7D9" mask="url(#x)" d="M-8.778 21.939h23.463V-1.525H-8.778z"/><path fill="#D4D7D9" mask="url(#x)" d="M-5.253 11.359h16.411v-16.41H-5.253z"/></g><path d="M157.326 235.577a2.372 2.372 0 1 1-4.747 0 2.373 2.373 0 1 1 4.747 0" fill="#D4D7D9"/><g transform="translate(152 232.37)"><mask id="z" fill="#fff"><use xlink:href="#y"/></mask><path fill="#D4D7D9" mask="url(#z)" d="M-8.778 14.939h23.463V-8.525H-8.778z"/><path fill="#D4D7D9" mask="url(#z)" d="M-5.253 11.412h16.411V-4.999H-5.253z"/></g><path d="M157.326 242.629a2.373 2.373 0 1 1-4.746.001 2.373 2.373 0 0 1 4.746-.001" fill="#D4D7D9"/><g transform="translate(152 239.37)"><mask id="B" fill="#fff"><use xlink:href="#A"/></mask><path fill="#D4D7D9" mask="url(#B)" d="M-8.778 7.939h23.463v-23.464H-8.778z"/><path fill="#D4D7D9" mask="url(#B)" d="M-5.253 11.464h16.411v-16.41H-5.253z"/></g></g></svg>