<svg width="543" height="545" xmlns="http://www.w3.org/2000/svg" xmlns:xlink="http://www.w3.org/1999/xlink"><defs><path id="a" d="M.126.364h48.971v31.153H.126z"/><path id="c" d="M.306.1h31.858v34.415H.306z"/><path id="e" d="M0 .088h53.097V59.21H0z"/><path id="g" d="M.235 20.625l6.655 58.15 176.728-20.448-6.655-58.15z"/><path id="i" d="M.235 20.625l6.655 58.15 176.728-20.448-6.655-58.15z"/><path id="k" d="M.235 20.625l6.655 58.15 176.728-20.448-6.655-58.15z"/><path id="m" d="M.235 20.625l6.655 58.15 176.728-20.448-6.655-58.15z"/><path id="o" d="M.235 20.625l6.655 58.15 176.728-20.448-6.655-58.15"/><path id="q" d="M.235 20.625l6.655 58.15 176.728-20.448-6.655-58.15z"/><path id="s" d="M.235 20.625l6.655 58.15 176.728-20.448-6.655-58.15z"/><path id="u" d="M.235 20.625l6.655 58.15 176.728-20.448-6.655-58.15z"/><path id="w" d="M.235 20.625l6.655 58.15 176.728-20.448-6.655-58.15z"/><path id="y" d="M.235 20.625l6.655 58.15 176.728-20.448-6.655-58.15z"/><path id="A" d="M.235 20.625l6.655 58.15 176.728-20.448-6.655-58.15z"/><path id="C" d="M.235 20.625l6.655 58.15 176.728-20.448-6.655-58.15z"/><path id="E" d="M.235 20.625l6.655 58.15 176.728-20.448-6.655-58.15z"/><path id="G" d="M.235 20.625l6.655 58.15 176.728-20.448-6.655-58.15z"/><path id="I" d="M.235 20.625l6.655 58.15 176.728-20.448-6.655-58.15z"/><path id="K" d="M.235 20.625l6.655 58.15 176.728-20.448-6.655-58.15z"/><path id="M" d="M.235 20.625l6.655 58.15 176.728-20.448-6.655-58.15z"/><path id="O" d="M.235 20.625l6.655 58.15 176.728-20.448-6.655-58.15z"/><path id="Q" d="M.235 20.625l6.655 58.15 176.728-20.448-6.655-58.15z"/><path id="S" d="M.235 20.625l6.655 58.15 176.728-20.448-6.655-58.15z"/><path id="U" d="M.235 20.625l6.655 58.15 176.728-20.448-6.655-58.15z"/><path id="W" d="M.235 20.625l6.655 58.15 176.728-20.448-6.655-58.15z"/><path id="Y" d="M.235 20.625l6.655 58.15 176.728-20.448-6.655-58.15z"/><path id="aa" d="M.235 20.625l6.655 58.15 176.728-20.448-6.655-58.15z"/><path id="ac" d="M.235 20.625l6.655 58.15 176.728-20.448-6.655-58.15z"/><path id="ae" d="M.235 20.625l6.655 58.15 176.728-20.448-6.655-58.15z"/><path id="ag" d="M.235 20.625l6.655 58.15 176.728-20.448-6.655-58.15z"/><path id="ai" d="M.235 20.625l6.655 58.15 176.728-20.448-6.655-58.15z"/><path id="ak" d="M.235 20.625l6.655 58.15 176.728-20.448-6.655-58.15z"/><path id="am" d="M.235 20.625l6.655 58.15 176.728-20.448-6.655-58.15z"/><path id="ao" d="M.235 20.625l6.655 58.15 176.728-20.448-6.655-58.15z"/><path id="aq" d="M.235 20.625l6.655 58.15 176.728-20.448-6.655-58.15z"/><path id="as" d="M.235 20.625l6.655 58.15 176.728-20.448-6.655-58.15z"/><path id="au" d="M.235 20.625l6.655 58.15 176.728-20.448-6.655-58.15z"/><path id="aw" d="M.235 20.625l6.655 58.15 176.728-20.448-6.655-58.15z"/><path id="ay" d="M.235 20.625l6.655 58.15 176.728-20.448-6.655-58.15z"/><path id="aA" d="M.235 20.625l6.655 58.15 176.728-20.448-6.655-58.15z"/><path id="aC" d="M.235 20.625l6.655 58.15 176.728-20.448-6.655-58.15z"/><path id="aE" d="M.235 20.625l6.655 58.15 176.728-20.448-6.655-58.15z"/><path id="aG" d="M.235 20.625l6.655 58.15 176.728-20.448-6.655-58.15z"/><path id="aI" d="M.235 20.625l6.655 58.15 176.728-20.448-6.655-58.15z"/><path id="aK" d="M.235 20.625l6.655 58.15 176.728-20.448-6.655-58.15z"/><path id="aM" d="M.235 20.625l6.655 58.15 176.728-20.448-6.655-58.15z"/><path id="aO" d="M.235 20.625l6.655 58.15 176.728-20.448-6.655-58.15z"/><path id="aQ" d="M.235 20.625l6.655 58.15 176.728-20.448-6.655-58.15z"/><path id="aS" d="M.235 20.625l6.655 58.15 176.728-20.448-6.655-58.15z"/><path id="aU" d="M.235 20.625l6.655 58.15 176.728-20.448-6.655-58.15z"/><path id="aW" d="M.235 20.625l6.655 58.15 176.728-20.448-6.655-58.15z"/><path id="aY" d="M.235 20.625l6.655 58.15 176.728-20.448-6.655-58.15z"/><path id="ba" d="M.235 20.625l6.655 58.15 176.728-20.448-6.655-58.15z"/><path id="bc" d="M.235 20.625l6.655 58.15 176.728-20.448-6.655-58.15z"/><path id="be" d="M.235 20.625l6.655 58.15 176.728-20.448-6.655-58.15z"/><path id="bg" d="M.235 20.625l6.655 58.15 176.728-20.448-6.655-58.15z"/><path id="bi" d="M.235 20.625l6.655 58.15 176.728-20.448-6.655-58.15z"/><path id="bk" d="M.235 20.625l6.655 58.15 176.728-20.448-6.655-58.15z"/><path id="bm" d="M.235 20.625l6.655 58.15 176.728-20.448-6.655-58.15z"/><path id="bo" d="M.235 20.625l6.655 58.15 176.728-20.448-6.655-58.15z"/><path id="bq" d="M.235 20.625l6.655 58.15 176.728-20.448-6.655-58.15z"/><path id="bs" d="M.235 20.625l6.655 58.15 176.728-20.448-6.655-58.15z"/><path id="bu" d="M.235 20.625l6.655 58.15 176.728-20.448-6.655-58.15z"/><path id="bw" d="M.235 20.625l6.655 58.15 176.728-20.448-6.655-58.15z"/><path id="by" d="M.235 20.625l6.655 58.15 176.728-20.448-6.655-58.15z"/><path id="bA" d="M.235 20.625l6.655 58.15 176.728-20.448-6.655-58.15z"/><path id="bC" d="M.235 20.625l6.655 58.15 176.728-20.448-6.655-58.15z"/><path id="bE" d="M.235 20.625l6.655 58.15 176.728-20.448-6.655-58.15z"/><path id="bG" d="M.235 20.625l6.655 58.15 176.728-20.448-6.655-58.15z"/><path id="bI" d="M.235 20.625l6.655 58.15 176.728-20.448-6.655-58.15z"/><path id="bK" d="M.235 20.625l6.655 58.15 176.728-20.448-6.655-58.15z"/><path id="bM" d="M.235 20.625l6.655 58.15 176.728-20.448-6.655-58.15z"/><path id="bO" d="M.235 20.625l6.655 58.15 176.728-20.448-6.655-58.15z"/><path id="bQ" d="M.235 20.625l6.655 58.15 176.728-20.448-6.655-58.15z"/><path id="bS" d="M.235 20.625l6.655 58.15 176.728-20.448-6.655-58.15"/><path id="bU" d="M.235 20.625l6.655 58.15 176.728-20.448-6.655-58.15z"/><path id="bW" d="M.235 20.625l6.655 58.15 176.728-20.448-6.655-58.15z"/><path id="bY" d="M.235 20.625l6.655 58.15 176.728-20.448-6.655-58.15z"/><path id="ca" d="M.235 20.625l6.655 58.15 176.728-20.448-6.655-58.15z"/><path id="cc" d="M.235 20.625l6.655 58.15 176.728-20.448-6.655-58.15z"/><path id="ce" d="M.235 20.625l6.655 58.15 176.728-20.448-6.655-58.15z"/><path id="cg" d="M.235 20.625l6.655 58.15 176.728-20.448-6.655-58.15z"/><path id="ci" d="M.235 20.625l6.655 58.15 176.728-20.448-6.655-58.15z"/><path id="ck" d="M.235 20.625l6.655 58.15 176.728-20.448-6.655-58.15z"/><path id="cm" d="M.235 20.625l6.655 58.15 176.728-20.448-6.655-58.15z"/><path id="co" d="M.235 20.625l6.655 58.15 176.728-20.448-6.655-58.15z"/><path id="cq" d="M.235 20.625l6.655 58.15 176.728-20.448-6.655-58.15z"/><path id="cs" d="M.235 20.625l6.655 58.15 176.728-20.448-6.655-58.15z"/><path id="cu" d="M.235 20.625l6.655 58.15 176.728-20.448-6.655-58.15"/><path id="cw" d="M.07.268h15.728V19.04H.07z"/></defs><g fill="none" fill-rule="evenodd"><path d="M47.583 300.829S87.24 262.6 92.195 258.166c4.955-4.436 13.932-9.734 17.352-14.036 4.035-5.077 1.025-12.808-9.337-7.53-10.437 5.223-11.676 15.575-16.037 17.2-4.436 1.567-43.426 24.945-46.761 27.22-2.047 1.376-4.81.842-4.911 9.184-.072 5.904 15.082 10.625 15.082 10.625M426.65 230.076c-1.738-4.564-1.125-10.253 1.118-10.927 3.851-1.157 4.71 2.313 6.117 5.587 3.093 7.199 9.352 19.05 12.632 23.787 5.498 7.943 14.467 28.648 15.812 36.092.807 4.47-3.15 5.051-6.682 7.913-3.6-.696-5.596-4.469-7.082-7.816-1.527-3.44-15.63-39.809-16.751-44.008-1.002-3.75-3.612-6.552-5.164-10.628" fill="#E39C73"/><path d="M216.325 162.583c1.611.127 1.504-2.587 1.504-2.587-.701 1.55-2.343 1.343-2.343 1.343l.03.08c.142.13.203.291.344.421l.465.743z" fill="#603916"/><path d="M218.77 172.148c.076 1.579-.02 3.11-.287 4.592l-.376 1.6c-1.59 5.728-5.58 10.469-9.412 10.175-11.509-.884-8.014 24.005-10.855 26.12-3.986 3.018-13.82-2.267-20.533-4.885-6.794-2.649.99-11.301 1.905-15.931.78-3.955-1.676-11.678-1.676-11.678s-3.419-2.683-6.2-6.516c-5.188-7.15-2.195-28.97 9.015-33.58 11.21-4.61 26.112-.78 29.505 1.487 3.393 2.266 5.326 10.91 5.326 10.91s.645 1.353.525 3.557l-.19-.443s-1.658-.315-2.369 1.358c0 0 1.723-.649 2.753-.416.383.886.244 3.165.95 4.177 1.42 2.035 4.213 4.152 5.098 4.9 1.12.907-.797 4.316-3.179 4.573" fill="#8C6339"/><path d="M216.096 156.7s-.207 1.837-.126 2.046c-1.296-.363-3.455.522-3.455.522.893-2.1 3.577-2.638 3.58-2.567M218.49 176.488l.004.089-.518 2.266.004.09s-2.756-1.302-2.882-3.895c0 0 1.764 3.052 3.392 1.45" fill="#603916"/><path d="M199.557 476.041l-20.433-10.605 8.007 49.234s-3.185 5.89.504 8.182c6.054 3.762 11.334 8.407 11.334 8.407l2.726-7.38s-3.45-34.757-2.138-47.838" fill="#8C6339"/><path d="M221.846 539.058c1.27-1.281 2.568-4.126.568-7.186-2-3.061-7.98-3.912-10.822-6.456-2.842-2.543-6.832-4.499-7.472-7.235-.64-2.737-6.7 1.561-6.7 1.561s-3.505 2.166-4.963 2.118c-2.572-.083-5.166-2.028-6.717-2.968-1.099-.664-2.465.048-3.206 5.111-.497 3.399 1.035 9.686 3.755 10.334 2.721.649 5.773.058 10.694 1.379 3.266.878 5.044 2.83 9.319 4.399 4.276 1.568 10.881 3.644 15.544-1.057" fill="#0E121F"/><path d="M154.363 474.238l-16.568-16.657-4.126 49.386s-4.456 5-1.394 8.078c5.026 5.05 9.095 10.783 9.095 10.783l4.352-6.557s4.35-32.604 8.641-45.033" fill="#8C6339"/><path d="M161.837 538.67c1.531-.955 3.45-3.425 2.208-6.863-1.242-3.438-6.865-5.639-9.045-8.767-2.18-3.127-5.613-5.947-5.606-8.757.008-2.81-6.88-.018-6.88-.018s-3.91 1.303-5.318.922c-2.483-.672-4.56-3.16-5.854-4.43-.915-.9-2.409-.52-4.296 4.238-1.267 3.193-1.224 9.663 1.275 10.918 2.498 1.256 5.605 1.382 10.089 3.797 2.977 1.604 4.256 3.912 8.057 6.42 3.8 2.508 9.75 6.044 15.37 2.54" fill="#0E121F"/><path d="M146.051 316.963c-1.508 4.166-2.263 3.816-7.489 14.598-10.295 21.24-9.152 52.86-9.69 67.559-.54 14.699-14.298 68.95-14.362 76.677-.064 7.727 80.615 15.41 95.902 7.06 12.01-6.562 1.532-125.068-4.334-168.122-13.568 9.051-50.363 14.66-60.027 2.228" fill="#F4B42E"/><path d="M366.757 509.174l7.441 32.028a1.942 1.942 0 0 0 2.298 1.458l31.813-6.795a1.94 1.94 0 0 0 1.488-2.327c-1.011-4.482-4.857-14.86-18.422-10.471l-6.528 3.018L379.641 507l-12.884 2.174zM247.114 489.205l-18.659 27.092c-.6.871-.39 2.062.473 2.677l26.487 18.858a1.944 1.944 0 0 0 2.723-.473c2.633-3.77 7.71-13.604-4.686-20.64l-6.636-2.774 10.596-16.713-10.298-8.027z" fill="#0E121F"/><path d="M354.062 322.629s5.95 19.314 6.857 31.992c.906 12.677 21.546 156.673 21.546 156.673l-18.577 4.434-41.314-137.782s-6.94 48.593-15.05 65.183c-8.11 16.597-51.15 62.864-51.15 62.864l-17.341-12.339s27.97-44.91 33.34-64.49c9.409-34.296 18.307-106.958 18.307-106.958l63.382.423z" fill="#26266D"/><path d="M222.182 268.164c.206-3.137.439-6.343-.212-9.39-.99-4.629 5.089-8.255 2.745-12.106-7.321-12.034-11.803-32.71-15.148-37.694-5.06-7.537-11.553-3.927-21.941-3.714-10.136-.208-20.813-4.416-26.032 3.887-7.16 3.941-11.764 8.723-24.855 4.842-13.575-4.025-25.098 13.848-17.15 21.925 5.925 6.022 23.672 17.04 33.528 23.791-.434 2.765-.233 5.64-.048 8.459 1.041 15.82-3.165 31.716-3.671 47.575 10.544 5.593 65.912 5.593 76.455 0-.506-15.86-4.712-31.754-3.671-47.575" fill="#1ABC9C"/><path d="M199.956 150.97c6.944.049 17.562-4.13 16.256-10.94-1.25-6.524-11.984-6.75-18.323-4.733-3.015.96-5.836 2.737-8.997 2.895-2.697.136-5.289-.928-7.926-1.508-11.3-2.482-23.854 5.404-26.504 16.648-.638 2.708-.866 5.74-2.811 7.732-2.122 2.175-5.493 2.32-8.491 2.833-12.74 2.174-22.962 14.424-22.805 27.327.038 3.039.554 6.238-.72 8.998-.863 1.872-3.21 7.346-6.283 11.374-3.21 4.207-2.316 13.803.616 18.806 6.015 10.265 21.726 12.161 33.42 9.895 11.695-2.267 11.07-8.155 12.734-19.932.316-2.237 1.492-6.414 2.532-7.698 1.253-1.546 3.178-2.347 4.944-3.268 9.665-5.043 16.187-15.598 16.366-26.484.062-3.802-.588-7.618-.136-11.393.451-3.775 2.327-7.715 5.84-9.18l5.206 1.056a17.476 17.476 0 0 0 4.526-9.122l.556-3.305z" fill="#34495E"/><path d="M382.852 184.163a19.5 19.5 0 0 1-1.896 4l-.907 1.297c-3.467 4.55-8.546 6.94-12.044 5.74-5.193-1.785-8.442-2.04-10.949 2.899-1.963 3.862-1.3 4.607.927 7.324-.29-.33-.974 6.498-4.268 7.377-4.639 1.278-9.23-2.424-16.1-3.349-3.195-.408-17.7 2.195-9.63-8.871 11.791-5.356 11.791-5.356 14.002-9.323 1.664-2.986 2.813-8.164 2.813-8.164s-4.454-8.293-5.57-12.709c-2.082-8.234 8.384-26.664 20.046-26.793 11.663-.128 23.609 8.6 25.83 11.832 2.222 3.232.862 11.644.862 11.644s.095 1.437-.8 3.364l-.013-.464s-1.367-.871-2.6.37c0 0 1.771.035 2.608.61.026.927-.913 2.914-.643 4.069.541 2.324 2.282 5.21 2.806 6.194.676 1.208-2.254 3.571-4.474 2.953" fill="#A87C4F"/><path d="M385.104 170.029l.016.581c-.002.216.018.367.016.582-1.028-.785-3.273-.764-3.273-.764 1.547-1.558 3.264-.464 3.241-.4M381.052 187.94l-.028.082-1.273 1.84-.028.081s-1.998-2.143-1.184-4.505c0 0 .486 3.355 2.513 2.503" fill="#0E121F"/><path d="M359.231 204.61s-7.974 6.916-23.943-7.621c-15.968-14.537-63.41 14.47-61.668 34.902 2.691 31.588 97.359 60.4 97.359 60.4s8.791-58.556-11.748-87.68" fill="#1CB6C8"/><path d="M359.231 204.61s20.176.778 20.361 22.588c.186 21.81 8.614 48.124 0 56.608-8.613 8.485-21.845 0-21.845 0l-27.16-28.308 28.644-50.887z" fill="#1CB6C8"/><path d="M371.371 169.193s4.419-4.786-1.438-6.348c-5.857-1.562-5.891 10.289-5.891 10.289s-11.29 9.195-17.147 7.632c-5.857-1.562-7.703-8.297-7.703-8.297s-10.867-17.74-1.303-30.032c9.564-12.29 18.282-9.965 18.282-9.965s18.247 1.885 25.475 9.777c7.228 7.893 10.207-3.241 11.646 3.107 1.439 6.349 2.15 15.415-8.125 18.64-10.208 3.241-13.796 5.197-13.796 5.197" fill="#26266D"/><path d="M109.298 227.411l324.232 3.873c3.667.072 6.434 3.034 6.48 6.52l-1.64 127.376c-.078 3.622-3.08 6.359-6.608 6.408l-324.233-3.872c-3.666-.073-6.433-3.034-6.48-6.521l1.641-127.375c-.052-3.616 2.941-6.482 6.608-6.409" fill="#E6E7E7"/><path d="M122.277 236.317l299.017 2.823c3.628.075 6.49 2.902 6.415 6.525l-1.045 109.381c-.075 3.622-2.907 6.48-6.535 6.405l-299.017-2.823c-3.628-.074-6.49-2.902-6.415-6.524l1.045-109.382c-.054-3.616 2.907-6.48 6.535-6.405" fill="#F9FAFB"/><path d="M153.239 247.026l-13.225 12.3-8.721-8.604a2.465 2.465 0 0 0-2.486-.52c-.89.303-1.368 1.103-1.451 2.012l.014 2.842-.075 11.247c-.044 1.682 1.448 3.028 3.004 3.079l4.79.015 7.643.13 2.073.025 8.934.064c1.04.077 1.924-.355 2.666-1.04.741-.683 1.212-1.611 1.16-2.642l.17-14.483-.002-2.585c-.052-1.03-.75-2.03-1.673-2.37a2.362 2.362 0 0 0-2.821.53M409.443 349.845l-76.68-1.029c-.129.007-.265-.115-.4-.238-.136-.122-.142-.251-.15-.38-.005-.13.117-.264.24-.4.122-.135.251-.142.38-.148l76.674.9c.258-.014.394.108.536.36.135.122.148.38.033.644-.116.265-.375.278-.633.29M353.36 344.026c-.259.013-.388.02-.653-.096-.258.013-.4-.239-.406-.367-.46-1.398-.287-3.088.423-4.416.947-1.728 2.424-3.224 4.322-4.095l.003-5.04c.083-.91-.099-1.934-.66-2.81-1.241-1.488-4.145-.049-5.03.384-4.155 2.278-8.027 5.058-11.627 8.084-.122.135-.251.142-.38.148-.13.007-.265-.116-.4-.238-.272-.245-.163-.638.09-.78 3.593-3.154 7.6-5.813 11.749-8.22 2.768-1.561 5.22-1.685 6.462-.197.698.998 1.021 2.274.958 3.57l.093 4.389c.252-.142.64-.162.89-.304 2.421-.769 3.695 1.364 4.547 2.871.291.632.854 1.508 1.241 1.488 0 0 .13-.006.497-.412.845-1.206 2.219-2.18 3.626-2.51 2.304-.505 4.449.938 6.192 2.142l1.073.72c5.748 3.587 14.03 3.555 21.484-.053 3.407-1.724 6.543-3.691 9.395-6.162.122-.135.374-.278.639-.162.264.116.4.239.413.496.013.258-.103.522-.232.53a51.363 51.363 0 0 1-9.646 6.303c-7.835 3.756-16.511 3.68-22.653-.016l-1.072-.721c-1.738-1.075-3.481-2.28-5.276-1.93-1.148.316-2.278 1.02-3 2.09-.361.535-.987.955-1.51.852-.91-.083-1.473-.96-2.177-2.087-.99-1.63-1.823-2.75-3.23-2.42-.38.148-.89.303-1.271.451l.006.13c.092 1.804-.081 3.492-.77 5.207-.677 1.973-2.303 3.09-4.11 3.18m-.06-1.16c1.292-.065 2.543-.903 3-2.09.581-1.321.767-2.752.695-4.17-1.38.845-2.49 1.935-3.2 3.263-.606.807-.676 1.973-.495 2.998" fill="#E6E7E7"/><path d="M187.439 298.312l-.061 8.924c3.405-.642 5.02-2.563 5.035-4.694.015-2.197-2.045-3.277-4.974-4.23zm-6.188-11.83l.056-8.057c-2.938.379-4.617 1.965-4.633 4.23-.012 1.93 1.848 2.943 4.577 3.827zm-.202 29.168c-7-.648-12.116-3.346-15.76-7.035l5.254-7.355c2.45 2.614 6.102 4.97 10.566 5.8l.071-10.322c-6.858-1.713-14.311-4.361-14.248-13.418.046-6.726 5.421-12.416 14.432-13.286l.043-6.193 6.27.043-.043 6.326c5.398.637 9.986 2.666 13.566 6.02l-5.318 7.024c-2.387-2.215-5.312-3.633-8.308-4.387l-.063 9.19c6.924 1.78 14.643 4.496 14.58 13.62-.05 7.392-4.96 13.085-14.772 14.016l-.041 5.994-6.27-.044.041-5.993zM205.576 308.827l5.046-6.292c2.98 3.217 7.836 5.115 12.171 5.145 5.403.037 8.421-2.273 8.444-5.603.024-3.53-2.7-5.146-8.903-5.189-1.867-.013-4.869.033-5.537.095l.059-8.524c.8.073 3.869.094 5.536.105 4.935.034 8.28-1.408 8.304-4.671.024-3.53-3.632-5.286-8.235-5.318-4.336-.03-8.215 1.542-11.37 4.517l-4.696-5.96c3.63-4.037 9.255-6.995 17.057-6.941 10.406.071 16.777 4.777 16.726 12.169-.04 5.594-4.867 9.223-9.808 10.055 4.532.498 10.378 4.067 10.331 10.727-.053 7.658-6.96 13.005-17.632 12.931-8.138-.056-14.252-3.228-17.493-7.246M290.06 293.559c.057-8.191-2.234-14.533-8.637-14.578-6.337-.043-8.782 6.267-8.839 14.458-.056 8.19 2.3 14.6 8.637 14.644 6.337.043 8.782-6.333 8.838-14.524m-27.146-.187c.079-11.454 5.828-22.869 18.568-22.781 12.739.088 18.33 11.58 18.25 23.035-.079 11.454-5.828 22.935-18.568 22.847-12.739-.087-18.329-11.647-18.25-23.101M331.413 293.844c.057-8.191-2.233-14.533-8.637-14.578-6.336-.043-8.782 6.266-8.838 14.458-.056 8.19 2.3 14.6 8.637 14.644 6.336.043 8.782-6.333 8.838-14.524m-27.146-.187c.079-11.454 5.827-22.87 18.567-22.781 12.74.088 18.33 11.58 18.25 23.035-.079 11.454-5.828 22.935-18.568 22.848-12.739-.089-18.329-11.648-18.25-23.102M372.766 294.129c.058-8.191-2.232-14.533-8.636-14.577-6.336-.044-8.782 6.266-8.839 14.457-.056 8.19 2.3 14.6 8.637 14.644 6.337.044 8.782-6.333 8.838-14.524m-27.146-.187c.08-11.454 5.828-22.869 18.568-22.781 12.74.088 18.33 11.58 18.25 23.035-.079 11.454-5.828 22.935-18.568 22.848-12.739-.088-18.329-11.648-18.25-23.102" fill="#1CB6C8"/><path d="M452.826 493.915l14 1.678-.917 15.162s2.778 7.672-2.08 9.772c-7.976 3.447-15.177 8.098-15.177 8.098l-1.956-9.385s5.357-9.322 6.13-25.325" fill="#E39C73"/><path d="M419.673 533.92c-1.3-1.772-2.352-5.434.61-8.764 2.961-3.33 10.322-3.283 14.206-5.838 3.884-2.556 9.046-4.197 10.31-7.381 1.264-3.184 7.794 3.084 7.794 3.084s3.836 3.24 5.602 3.445c3.115.36 6.592-1.517 8.632-2.372 1.442-.604 2.961.5 2.942 6.737-.012 4.185-2.991 11.488-6.387 11.781-3.397.293-6.97-.967-13.138-.257-4.095.471-6.589 2.506-12.025 3.629-5.437 1.123-13.773 2.439-18.546-4.065" fill="#0E121F"/><path d="M517.027 493.235l13.727-3.222 4.35 14.555s5.248 6.254 1.407 9.891c-6.306 5.972-11.47 12.808-11.47 12.808l-5.064-8.145s1.826-10.591-2.95-25.887" fill="#E39C73"/><g transform="translate(493.753 509.232)"><mask id="b" fill="#fff"><use xlink:href="#a"/></mask><path d="M2.463 28.64C.8 27.204-1.048 23.87 1.092 19.962c2.14-3.908 9.324-5.506 12.537-8.866 3.213-3.358 7.875-6.112 8.393-9.497.518-3.385 8.289 1.264 8.289 1.264s4.464 2.3 6.231 2.105c3.117-.345 6.084-2.952 7.88-4.24 1.271-.912 2.999-.176 4.38 5.907.926 4.082-.34 11.865-3.584 12.91s-7.009.615-12.862 2.686c-3.886 1.375-5.86 3.915-10.907 6.225-5.046 2.31-12.875 5.455-18.986.184" fill="#0E121F" mask="url(#b)"/></g><path fill="#E39C73" d="M455.647 292.528l24.856-19.849-11.3-11.731-15.521 15.79zM455.029 192.2c0 1.52.163 2.986.489 4.397l.435 1.52c1.795 5.43 5.82 9.34 9.518 9.34 5.493 0 8.647.815 9.409 6.299.598 4.29 2.533 15.68-.698 21.513 3.97 2.715 8.583-5.821 15.382-4.464 3.154.652 11.856 3.693 7.831-9.393-2.284-4.887-5.79-8.006-6.037-9.231-.673-3.35 0-8.633 0-8.633s7.07-6.299 9.41-10.208c2.338-3.91.76-25.14-10.226-29.05-10.985-3.91-25.126-2.335-28.28 0s-4.61 10.73-4.61 10.73.368 1.324-.34 3.442l.164-.435s1.578-.38 2.339 1.195c0 0-1.686-.543-2.665-.271-.326.868-.32 1.801-.381 2.986-.054 1.072-3.1 6.027-3.916 6.787-1.033.923.272 2.715 2.176 3.475"/><path d="M457.505 178.102l-.205.545c-.068.204-.136.34-.205.545 1.229-.409 3.345.34 3.345.34-.956-1.975-2.935-1.498-2.935-1.43M456.726 182.028c.08-.158.08-.316.158-.474v-.08s-1.346.713-2.454-.394c0 0 .791 2.371 2.137 1.739l.159-.79zM455.5 196.356v.086l.603 2.153v.086s2.588-1.378 2.588-3.876c0 0-1.553 3.015-3.192 1.55" fill="#34495D"/><path d="M475.425 158.677s-13.553-1.742-16.658 3.235c-3.104 4.977-5.474 12.244-5.474 12.244l12.325 3.847 3.585-6.825s3.025 8.579 3.55 16.729c.524 8.15-3.55 10.774-3.55 10.774s10.17-8.63 9.485-13.348c-.685-4.718 3.358-4.385 4.344-2.407.986 1.978 2.586 13.552-2.022 10.85s-1.08 9.072 3.112 11.252c4.192 2.18 6.94 3.032 6.94 3.032s9.803-11.846 13.408-14.284c3.606-2.438 4.987-20.882 0-26.458-4.986-5.576-15.881-14.255-29.045-8.641" fill="#603813"/><path d="M504.517 171.604c.033-.341.084-.694.155-1.06.592-3.074 4.933-11.12 8.72-9.71 2.803 1.044 5.836 2.37 7.12 5.068.69 1.448.769 3.101.821 4.704a276.403 276.403 0 0 1-1.057 34.843c-.1 1.073-.784 2.526-1.78 2.108-1.358-9.863-4.774-18.469-10.326-26.666-2.184-3.226-4.017-5.536-3.653-9.287" fill="#603813"/><path d="M473.248 228.742s10.269-3.75 20.53-13.103c0 0 1.448-.977 2.47 0 1.023.978 8.223 13.114 8.223 13.114l-33.557 17.127 2.334-17.138z" fill="#FFF"/><path d="M507.24 313.887c-18.203 0-29.97 5.379-29.97 5.379l-24.49 102.727-5.696 78.499c-.078 1.08.779 2 1.864 2h22.978c.963 0 1.769-.733 1.86-1.69l7.443-78.809 37.199-80.79s7.014-27.316-11.189-27.316" fill="#603A17"/><path d="M520.597 426.655s13.49-53.24 12.363-74.048c-.656-12.099-6.444-48.07-23.704-42.296-17.259 5.774-15.348 21.035-15.348 21.035l1.45 95.31 19.44 76.348a1.869 1.869 0 0 0 2.261 1.004l22.959-7.22a1.864 1.864 0 0 0 1.084-2.661l-20.505-67.472z" fill="#603A17"/><path d="M470.663 247.097s-10.628 19.97-6.846 32.931c5.978 20.484 9.275 36.1 9.275 36.1l-2.43-69.031z" fill="#26266D"/><path d="M529.644 334.014c1.046-.076 1.153-1.1.791-2.085-2.59-7.05-7.684-28.618-10.402-55.727-2.982-29.748-14.247-52.886-16.294-57.047a1.226 1.226 0 0 0-1.119-.684l-30.363 15.876a2.717 2.717 0 0 0-2.686 2.748l-.367 54.174c-.033 1.18 1.686 36.342.432 47.023l.004.326 60.004-4.604z" fill="#26266D"/><path fill="#0E121F" d="M473.551 337.575l-.963 4.742 59.12-1.75-1.721-6.126z"/><path d="M431.43 342.863c-3.235 3.663-4.663 9.204-2.8 10.622 3.198 2.435 5.223-.512 7.693-3.084 5.43-5.654 15.461-14.552 20.2-17.837 7.943-5.507 18.392-17.297 22.271-23.795 2.33-3.9-1.17-5.834-3.469-9.752-3.616-.612-6.812 2.22-9.382 4.832-2.64 2.684-23.41 27.338-25.938 30.876-2.257 3.158-5.687 4.866-8.575 8.138" fill="#E39C73"/><path fill="#E39C73" d="M469.795 300.512l15.679-40.322 10.476 12.069-17.156 36.51z"/><path d="M484.829 235.05s11.616-7.547 16.843 2.866c4.394 8.753-2.003 43.077-4.153 53.795a2.8 2.8 0 0 1-3.731 2.065l-21.457-8.043a1.863 1.863 0 0 1-1.185-2.06c1.344-7.818 7.73-43.342 13.683-48.623" fill="#26266D"/><path d="M385.024 226.69s.983 12.472 8.842 8.63c7.86-3.842 14.05-14.914 6.042-15.202-8.007-.289-10.954-.156-14.884 6.572" fill="#A87C4F"/><path d="M212.983 225.878s.983 12.472 8.842 8.63c7.86-3.843 14.05-14.914 6.043-15.203-8.008-.288-10.955-.155-14.885 6.573" fill="#8C6339"/><path d="M277.071 221.196c4.265-4.915 5.64-3.21 7.553-3 3.132.32 32.603 7.213 36.034 8.508 3.415 1.224 9.369-4.316 18.214-2.183 8.828 2.063 6.724 8.177 1.763 9.172-4.203.843-12.217-.511-17.402-.36-5.185.151-34.667 3.268-47.155.34-3.716-.872-2.024-8.999.993-12.477" fill="#A87C4F"/><path d="M66.402 328.094s33.8-43.477 38.072-48.572c4.272-5.095 12.4-11.615 15.172-16.36 3.27-5.599-.813-12.823-10.316-6.125-9.585 6.654-9.334 17.076-13.42 19.304-4.167 2.183-35.9 24.537-38.876 27.262-1.83 1.653-4.64 1.518-3.551 9.79.771 5.854 12.92 14.701 12.92 14.701" fill="#E39C73"/><path d="M55.283 511.797l.826 28.844c-.024.946.789 1.628 1.737 1.652l28.585-.323c.49-.02.874-.168 1.186-.507.312-.34.49-.738.47-1.226-.11-4.037-1.57-13.623-14.044-12.17l-6.172 1.472-1.14-17.259-11.448-.483z" fill="#0F1E2A"/><path d="M66.892 359.78S81.1 437.033 79.16 445.692l-6.943 77.116c-.105.643-.709 1.105-1.336 1.103l-18.007-.22a1.267 1.267 0 0 1-.956-.419c-.253-.272-.362-.619-.37-.983l-5.92-77.844-8.474-44.519-9.366-44.832 39.104 4.686z" fill="#2360AC"/><g transform="translate(5.694 510.45)"><mask id="d" fill="#fff"><use xlink:href="#c"/></mask><path d="M3.742.1L.33 28.753c-.162.933.542 1.727 1.476 1.889l28.325 3.86c.486.05.889-.039 1.247-.329.358-.29.594-.659.644-1.144.484-4.01.445-13.705-12.107-14.093l-6.322.555 1.404-17.24L3.742.1z" fill="#0F1E2A" mask="url(#d)"/></g><path d="M45.096 361.868s-1.156 89.524-4.344 97.806l-16.179 64.244c-.198.62-.863.99-1.483.895l-17.781-2.85a1.265 1.265 0 0 1-.885-.554c-.21-.306-.266-.666-.22-1.027l5.419-75.947s-1.001-42.3-1.772-53.88c-.785-11.79-2.63-39.04-2.63-39.04l39.875 10.353z" fill="#2360AC"/><path d="M56.273 196.05c-1.039-.542-5.51-4.712-5.865-5.783-.393-1.182-2.83-6.759-2.83-6.759s-3.823-8.098-7.672-9.583c-3.848-1.486-18.611.863-28.645 7.887-10.034 7.023-5.692 28.968-2.23 32.276 3.463 3.308 12.387 7.716 12.387 7.716s2.16 5.164 2.415 8.745c.094 1.309-1.281 11.343-2.228 16.93 7.497-1.789 24.309-4.494 24.414-9.312-3.547-1.036-4.46-6.107-5.053-10.619-.763-5.767 2.204-7.472 7.768-9.004 3.746-1.031 6.729-6.113 7.027-12.114l.016-1.661a20.443 20.443 0 0 0-.735-4.592c1.715-1.3 2.536-3.48 1.231-4.126" fill="#E39C73"/><path d="M52.061 203.839c.7 2.53 3.706 3.203 3.706 3.203l-.024-.087.009-2.349-.024-.087c-1.25 1.94-3.667-.68-3.667-.68" fill="#34495D"/><g transform="translate(0 167.327)"><mask id="f" fill="#fff"><use xlink:href="#e"/></mask><path d="M30.447 27.075c-3.717-.65-3.532 2.452-2.612 4.921.919 2.47 1.655 5.995 6.904 4.61 0 0-6.571 21.3-15.51 22.521C9.23 60.494 3.28 44.82.9 37.281c-.563-2.685-1.196-9.91-.749-13.228.392-3.304 2.075-10.514 10.576-17.293C19.23-.02 35.5.86 40.165.234c7.202-.964 7.83 2.921 11.024 9.154 2.032 2.637 2.792 8.248.517 9.88-.94.674-16.464 5.036-15.956 10.06.2 1.98-2.073-1.689-5.303-2.253" fill="#F4B32D" mask="url(#f)"/></g><path d="M51.96 243.714c-7.612-9.242-8-9.905-19.791-7.81-3.154.525-8.675-3.35-11.243-1.442-4.277 3.18-12.086 14.856-12.813 23.002-1.72 19.482-9.454 93.382-2.375 108.827 5.65 12.33 61.95 11.712 62.902-4.992.022-.404.566-25.763.582-26.167.233-5.893.179-51.67.179-51.67s-9.108-29.63-17.44-39.748" fill="#34495D"/><path d="M30.749 281.537s34.838 69.253 47.094 33.135c6.383-18.812-17.7-69.246-29.509-76.041-5.33-3.068-16.946-5.193-21.204 3.326-4.913 9.827 3.619 39.58 3.619 39.58" fill="#34495D"/><path d="M109.464 220.04c-3.242.646-6.59 1.01-9.599 2.35-4.806 2.269-8.143 6.837-8.864 12.134a5.76 5.76 0 0 0 .618 3.9c1.855 2.772 6.112 1.503 9.063 0 .98-.517 7.126-9.15 9.913-9.973a27.57 27.57 0 0 1 8.631-.681c11.745.293-3.347-8.987-9.762-7.73" fill="#8C6339"/><text fill="#D4D7D9" transform="rotate(1 289 343)" font-family="ProximaNova-Bold, Proxima Nova" font-size="16" font-weight="bold"><tspan x="125" y="343">#mathspacechallenge</tspan></text><g><g transform="translate(239 30)"><mask id="h" fill="#fff"><use xlink:href="#g"/></mask><path d="M33.722 47.86L16.396 18.779l8.294-.96 27.017 22.529a20.372 20.372 0 0 0 12.333 2.548l-7.366.852-22.952 4.112z" fill="#34495E" mask="url(#h)"/></g><g transform="translate(239 30)"><mask id="j" fill="#fff"><use xlink:href="#i"/></mask><path d="M25.387 49.356l.559 4.884 49.351 8.36 93.233-12.436s14.19-1.143 13.337-7.168c0 0-3.774-11.482-29.824-10.29L56.673 43.74l-31.286 5.616z" fill="#C2C8CF" mask="url(#j)"/></g><g transform="translate(239 30)"><mask id="l" fill="#fff"><use xlink:href="#k"/></mask><path fill="#1ABC9C" mask="url(#l)" d="M168.21 50.238l-1.214.14-1.203.16-15.247-12.17-103.94 12.026-.209-1.832L151.09 36.45z"/></g><g transform="translate(239 30)"><mask id="n" fill="#fff"><use xlink:href="#m"/></mask><path fill="#1ABC9C" mask="url(#n)" d="M164.258 50.745l-2.53.338-12.244-9.776L30.66 55.055l-2.438-.41-2.215-.907 124.019-14.35z"/></g><g transform="translate(239 30)"><mask id="p" fill="#fff"><use xlink:href="#o"/></mask><path d="M163.536 36.696l1.886-.218a1.391 1.391 0 0 1 1.54 1.228l.533 4.664c.087.766-.46 1.46-1.221 1.548l-1.887.218a1.39 1.39 0 0 1-1.538-1.229l-.535-4.664a1.395 1.395 0 0 1 1.222-1.547" fill="#34495E" mask="url(#p)"/></g><g transform="translate(239 30)"><mask id="r" fill="#fff"><use xlink:href="#q"/></mask><path fill="#0875BE" mask="url(#r)" d="M160.357 42.713l.943-.11-.211-1.847-.944.11z"/></g><g transform="translate(239 30)"><mask id="t" fill="#fff"><use xlink:href="#s"/></mask><path fill="#0875BE" mask="url(#t)" d="M158.661 42.91l.943-.11-.211-1.848-.944.11z"/></g><g transform="translate(239 30)"><mask id="v" fill="#fff"><use xlink:href="#u"/></mask><path fill="#0875BE" mask="url(#v)" d="M156.961 43.106l.943-.11-.211-1.847-.944.11z"/></g><g transform="translate(239 30)"><mask id="x" fill="#fff"><use xlink:href="#w"/></mask><path fill="#0875BE" mask="url(#x)" d="M155.265 43.302l.943-.109-.211-1.848-.943.11z"/></g><g transform="translate(239 30)"><mask id="z" fill="#fff"><use xlink:href="#y"/></mask><path fill="#0875BE" mask="url(#z)" d="M153.565 43.499l.943-.11-.211-1.847-.944.11z"/></g><g transform="translate(239 30)"><mask id="B" fill="#fff"><use xlink:href="#A"/></mask><path fill="#0875BE" mask="url(#B)" d="M151.87 43.695l.942-.109-.211-1.848-.944.11z"/></g><g transform="translate(239 30)"><mask id="D" fill="#fff"><use xlink:href="#C"/></mask><path fill="#0875BE" mask="url(#D)" d="M150.17 43.892l.942-.11-.211-1.847-.943.11z"/></g><g transform="translate(239 30)"><mask id="F" fill="#fff"><use xlink:href="#E"/></mask><path fill="#0875BE" mask="url(#F)" d="M148.473 44.088l.943-.11-.211-1.847-.943.11z"/></g><g transform="translate(239 30)"><mask id="H" fill="#fff"><use xlink:href="#G"/></mask><path fill="#0875BE" mask="url(#H)" d="M146.773 44.285l.943-.11-.211-1.847-.944.11z"/></g><g transform="translate(239 30)"><mask id="J" fill="#fff"><use xlink:href="#I"/></mask><path fill="#0875BE" mask="url(#J)" d="M145.077 44.481l.943-.11-.21-1.847-.945.11z"/></g><g transform="translate(239 30)"><mask id="L" fill="#fff"><use xlink:href="#K"/></mask><path fill="#0875BE" mask="url(#L)" d="M143.381 44.677l.943-.109-.211-1.848-.943.11z"/></g><g transform="translate(239 30)"><mask id="N" fill="#fff"><use xlink:href="#M"/></mask><path fill="#0875BE" mask="url(#N)" d="M141.681 44.874l.943-.11-.211-1.847-.943.11z"/></g><g transform="translate(239 30)"><mask id="P" fill="#fff"><use xlink:href="#O"/></mask><path fill="#0875BE" mask="url(#P)" d="M139.985 45.07l.943-.11-.211-1.847-.943.11z"/></g><g transform="translate(239 30)"><mask id="R" fill="#fff"><use xlink:href="#Q"/></mask><path fill="#0875BE" mask="url(#R)" d="M138.285 45.267l.943-.11-.21-1.847-.944.11z"/></g><g transform="translate(239 30)"><mask id="T" fill="#fff"><use xlink:href="#S"/></mask><path fill="#0875BE" mask="url(#T)" d="M136.59 45.463l.942-.11-.211-1.847-.943.11z"/></g><g transform="translate(239 30)"><mask id="V" fill="#fff"><use xlink:href="#U"/></mask><path fill="#0875BE" mask="url(#V)" d="M134.89 45.66l.942-.11-.211-1.847-.943.11z"/></g><g transform="translate(239 30)"><mask id="X" fill="#fff"><use xlink:href="#W"/></mask><path fill="#0875BE" mask="url(#X)" d="M133.193 45.856l.943-.11-.211-1.847-.943.11z"/></g><g transform="translate(239 30)"><mask id="Z" fill="#fff"><use xlink:href="#Y"/></mask><path fill="#0875BE" mask="url(#Z)" d="M131.493 46.053l.943-.11-.21-1.847-.944.109z"/></g><g transform="translate(239 30)"><mask id="ab" fill="#fff"><use xlink:href="#aa"/></mask><path fill="#0875BE" mask="url(#ab)" d="M129.797 46.249l.943-.11-.21-1.847-.944.11z"/></g><g transform="translate(239 30)"><mask id="ad" fill="#fff"><use xlink:href="#ac"/></mask><path fill="#0875BE" mask="url(#ad)" d="M128.097 46.446l.943-.11-.211-1.847-.943.109z"/></g><g transform="translate(239 30)"><mask id="af" fill="#fff"><use xlink:href="#ae"/></mask><path fill="#0875BE" mask="url(#af)" d="M126.402 46.642l.942-.11-.21-1.847-.944.11z"/></g><g transform="translate(239 30)"><mask id="ah" fill="#fff"><use xlink:href="#ag"/></mask><path fill="#0875BE" mask="url(#ah)" d="M124.701 46.839l.943-.11-.21-1.847-.944.109z"/></g><g transform="translate(239 30)"><mask id="aj" fill="#fff"><use xlink:href="#ai"/></mask><path fill="#0875BE" mask="url(#aj)" d="M123.005 47.035l.944-.11-.212-1.847-.943.11z"/></g><g transform="translate(239 30)"><mask id="al" fill="#fff"><use xlink:href="#ak"/></mask><path fill="#0875BE" mask="url(#al)" d="M121.31 47.231l.942-.11-.21-1.847-.944.11z"/></g><g transform="translate(239 30)"><mask id="an" fill="#fff"><use xlink:href="#am"/></mask><path fill="#0875BE" mask="url(#an)" d="M119.61 47.428l.942-.11-.21-1.847-.944.11z"/></g><g transform="translate(239 30)"><mask id="ap" fill="#fff"><use xlink:href="#ao"/></mask><path fill="#0875BE" mask="url(#ap)" d="M117.914 47.624l.943-.11-.212-1.847-.943.11z"/></g><g transform="translate(239 30)"><mask id="ar" fill="#fff"><use xlink:href="#aq"/></mask><path fill="#0875BE" mask="url(#ar)" d="M116.213 47.82l.944-.109-.212-1.847-.943.109z"/></g><g transform="translate(239 30)"><mask id="at" fill="#fff"><use xlink:href="#as"/></mask><path fill="#0875BE" mask="url(#at)" d="M114.518 48.017l.942-.11-.21-1.847-.944.11z"/></g><g transform="translate(239 30)"><mask id="av" fill="#fff"><use xlink:href="#au"/></mask><path fill="#0875BE" mask="url(#av)" d="M112.818 48.214l.942-.11-.21-1.847-.944.109z"/></g><g transform="translate(239 30)"><mask id="ax" fill="#fff"><use xlink:href="#aw"/></mask><path fill="#0875BE" mask="url(#ax)" d="M111.122 48.41l.943-.11-.212-1.847-.943.11z"/></g><g transform="translate(239 30)"><mask id="az" fill="#fff"><use xlink:href="#ay"/></mask><path fill="#0875BE" mask="url(#az)" d="M109.422 48.607l.943-.11-.212-1.847-.943.109z"/></g><g transform="translate(239 30)"><mask id="aB" fill="#fff"><use xlink:href="#aA"/></mask><path fill="#0875BE" mask="url(#aB)" d="M107.726 48.803l.943-.11-.212-1.847-.943.11z"/></g><g transform="translate(239 30)"><mask id="aD" fill="#fff"><use xlink:href="#aC"/></mask><path fill="#0875BE" mask="url(#aD)" d="M106.026 49l.943-.11-.212-1.847-.943.109z"/></g><g transform="translate(239 30)"><mask id="aF" fill="#fff"><use xlink:href="#aE"/></mask><path fill="#0875BE" mask="url(#aF)" d="M104.33 49.196l.943-.11-.212-1.847-.943.11z"/></g><g transform="translate(239 30)"><mask id="aH" fill="#fff"><use xlink:href="#aG"/></mask><path fill="#0875BE" mask="url(#aH)" d="M102.63 49.392l.943-.109-.212-1.848-.943.11z"/></g><g transform="translate(239 30)"><mask id="aJ" fill="#fff"><use xlink:href="#aI"/></mask><path fill="#0875BE" mask="url(#aJ)" d="M100.934 49.589l.943-.11-.211-1.847-.944.109z"/></g><g transform="translate(239 30)"><mask id="aL" fill="#fff"><use xlink:href="#aK"/></mask><path fill="#0875BE" mask="url(#aL)" d="M99.234 49.785l.943-.109-.212-1.848-.943.11z"/></g><g transform="translate(239 30)"><mask id="aN" fill="#fff"><use xlink:href="#aM"/></mask><path fill="#0875BE" mask="url(#aN)" d="M97.538 49.981l.943-.109-.212-1.847-.943.109z"/></g><g transform="translate(239 30)"><mask id="aP" fill="#fff"><use xlink:href="#aO"/></mask><path fill="#0875BE" mask="url(#aP)" d="M95.842 50.178l.943-.11-.212-1.847-.943.11z"/></g><g transform="translate(239 30)"><mask id="aR" fill="#fff"><use xlink:href="#aQ"/></mask><path fill="#0875BE" mask="url(#aR)" d="M94.142 50.374l.943-.109-.211-1.848-.944.11z"/></g><g transform="translate(239 30)"><mask id="aT" fill="#fff"><use xlink:href="#aS"/></mask><path fill="#0875BE" mask="url(#aT)" d="M92.446 50.57l.943-.109-.211-1.847-.944.109z"/></g><g transform="translate(239 30)"><mask id="aV" fill="#fff"><use xlink:href="#aU"/></mask><path fill="#0875BE" mask="url(#aV)" d="M90.746 50.767l.943-.109-.212-1.848-.943.11z"/></g><g transform="translate(239 30)"><mask id="aX" fill="#fff"><use xlink:href="#aW"/></mask><path fill="#0875BE" mask="url(#aX)" d="M89.05 50.964l.943-.11-.211-1.847-.944.109z"/></g><g transform="translate(239 30)"><mask id="aZ" fill="#fff"><use xlink:href="#aY"/></mask><path fill="#0875BE" mask="url(#aZ)" d="M87.35 51.16l.943-.109-.211-1.848-.944.11z"/></g><g transform="translate(239 30)"><mask id="bb" fill="#fff"><use xlink:href="#ba"/></mask><path fill="#0875BE" mask="url(#bb)" d="M85.654 51.357l.943-.11-.211-1.847-.944.109z"/></g><g transform="translate(239 30)"><mask id="bd" fill="#fff"><use xlink:href="#bc"/></mask><path fill="#0875BE" mask="url(#bd)" d="M83.954 51.553l.943-.11-.212-1.847-.943.11z"/></g><g transform="translate(239 30)"><mask id="bf" fill="#fff"><use xlink:href="#be"/></mask><path fill="#0875BE" mask="url(#bf)" d="M82.258 51.75l.943-.11-.211-1.847-.944.109z"/></g><g transform="translate(239 30)"><mask id="bh" fill="#fff"><use xlink:href="#bg"/></mask><path fill="#0875BE" mask="url(#bh)" d="M80.558 51.946l.943-.11-.211-1.847-.944.11z"/></g><g transform="translate(239 30)"><mask id="bj" fill="#fff"><use xlink:href="#bi"/></mask><path fill="#0875BE" mask="url(#bj)" d="M78.862 52.142l.943-.109-.211-1.848-.944.11z"/></g><g transform="translate(239 30)"><mask id="bl" fill="#fff"><use xlink:href="#bk"/></mask><path fill="#0875BE" mask="url(#bl)" d="M77.162 52.34l.943-.11-.211-1.848-.944.11z"/></g><g transform="translate(239 30)"><mask id="bn" fill="#fff"><use xlink:href="#bm"/></mask><path fill="#0875BE" mask="url(#bn)" d="M75.466 52.535l.943-.109-.211-1.848-.944.11z"/></g><g transform="translate(239 30)"><mask id="bp" fill="#fff"><use xlink:href="#bo"/></mask><path fill="#0875BE" mask="url(#bp)" d="M73.77 52.732l.943-.11-.211-1.847-.943.109z"/></g><g transform="translate(239 30)"><mask id="br" fill="#fff"><use xlink:href="#bq"/></mask><path fill="#0875BE" mask="url(#br)" d="M72.07 52.928l.943-.109-.211-1.848-.944.11z"/></g><g transform="translate(239 30)"><mask id="bt" fill="#fff"><use xlink:href="#bs"/></mask><path fill="#0875BE" mask="url(#bt)" d="M70.374 53.125l.943-.11-.211-1.847-.944.109z"/></g><g transform="translate(239 30)"><mask id="bv" fill="#fff"><use xlink:href="#bu"/></mask><path fill="#0875BE" mask="url(#bv)" d="M68.674 53.321l.943-.109-.211-1.848-.944.11z"/></g><g transform="translate(239 30)"><mask id="bx" fill="#fff"><use xlink:href="#bw"/></mask><path fill="#0875BE" mask="url(#bx)" d="M66.978 53.517l.943-.109-.211-1.848-.943.11z"/></g><g transform="translate(239 30)"><mask id="bz" fill="#fff"><use xlink:href="#by"/></mask><path fill="#0875BE" mask="url(#bz)" d="M65.278 53.714l.943-.11-.211-1.847-.944.11z"/></g><g transform="translate(239 30)"><mask id="bB" fill="#fff"><use xlink:href="#bA"/></mask><path fill="#0875BE" mask="url(#bB)" d="M63.582 53.91l.943-.109-.211-1.848-.944.11z"/></g><g transform="translate(239 30)"><mask id="bD" fill="#fff"><use xlink:href="#bC"/></mask><path fill="#0875BE" mask="url(#bD)" d="M61.882 54.107l.943-.11-.211-1.847-.943.109z"/></g><g transform="translate(239 30)"><mask id="bF" fill="#fff"><use xlink:href="#bE"/></mask><path fill="#0875BE" mask="url(#bF)" d="M60.186 54.303l.943-.11-.211-1.847-.943.11z"/></g><g transform="translate(239 30)"><mask id="bH" fill="#fff"><use xlink:href="#bG"/></mask><path fill="#0875BE" mask="url(#bH)" d="M58.486 54.5l.943-.11-.211-1.847-.943.11z"/></g><g transform="translate(239 30)"><mask id="bJ" fill="#fff"><use xlink:href="#bI"/></mask><path fill="#0875BE" mask="url(#bJ)" d="M56.79 54.696l.943-.11-.21-1.847-.945.11z"/></g><g transform="translate(239 30)"><mask id="bL" fill="#fff"><use xlink:href="#bK"/></mask><path fill="#0875BE" mask="url(#bL)" d="M55.09 54.893l.943-.11-.211-1.847-.943.11z"/></g><g transform="translate(239 30)"><mask id="bN" fill="#fff"><use xlink:href="#bM"/></mask><path fill="#0875BE" mask="url(#bN)" d="M53.394 55.09l.943-.11-.211-1.848-.943.11z"/></g><g transform="translate(239 30)"><mask id="bP" fill="#fff"><use xlink:href="#bO"/></mask><path fill="#0875BE" mask="url(#bP)" d="M51.694 55.286l.943-.11-.211-1.847-.943.11z"/></g><g transform="translate(239 30)"><mask id="bR" fill="#fff"><use xlink:href="#bQ"/></mask><path fill="#9A9DAB" mask="url(#bR)" d="M16.397 18.779l2.91-.337 18.06 28.765-3.645.657z"/></g><g transform="translate(239 30)"><mask id="bT" fill="#fff"><use xlink:href="#bS"/></mask><path d="M4.099 54.384c.07.61.617 1.047 1.223.976l40.209-4.652c.606-.07 1.04-.62.97-1.23a1.106 1.106 0 0 0-1.222-.976l-40.21 4.652a1.11 1.11 0 0 0-.97 1.23" fill="#34495E" mask="url(#bT)"/></g><g transform="translate(239 30)"><mask id="bV" fill="#fff"><use xlink:href="#bU"/></mask><path d="M19.07 63.287c.11.957.83 1.661 1.607 1.571l115.65-13.38c.776-.09 1.318-.941 1.21-1.897l-.094-.814c-.11-.957-.83-1.661-1.607-1.571L20.187 60.576c-.777.09-1.32.941-1.21 1.898l.093.813z" fill="#34495E" mask="url(#bV)"/></g><g transform="translate(239 30)"><mask id="bX" fill="#fff"><use xlink:href="#bW"/></mask><path d="M108.64 59.869a1.39 1.39 0 0 0 1.538 1.228l.142-.017c.765-.088.431-3.006-.334-2.918l-.142.017a1.395 1.395 0 0 0-1.221 1.547l.016.143z" fill="#FFF" mask="url(#bX)"/></g><g transform="translate(239 30)"><mask id="bZ" fill="#fff"><use xlink:href="#bY"/></mask><path d="M110.257 61.785a2.08 2.08 0 0 1-2.302-1.837l-.016-.143a2.09 2.09 0 0 1 1.827-2.314l.141-.017c.227-.026.796 0 1.182.792.167.38.275.786.318 1.2.15 1.323-.237 2.2-1.01 2.29l-.14.029z" fill="#34495E" mask="url(#bZ)"/></g><g transform="translate(239 30)"><mask id="cb" fill="#fff"><use xlink:href="#ca"/></mask><path d="M110.778 61.753c.19 1.657 15.725 1.22 15.725 1.22 1.04-.12 1.732-1.561 1.543-3.218l-.484-4.224c-.19-1.657-1.189-2.902-2.23-2.782 0 0-15.227 3.123-15.037 4.78l.483 4.224z" fill="#FFF" mask="url(#cb)"/></g><g transform="translate(239 30)"><mask id="cd" fill="#fff"><use xlink:href="#cc"/></mask><path d="M126.586 63.66l-.061.007c-.037.005-3.945.11-7.828.011-7.774-.193-8.504-.979-8.602-1.842l-.484-4.229c-.098-.858.434-1.794 7.96-3.758 3.76-.983 7.59-1.769 7.627-1.777l.06-.007c1.441-.166 2.757 1.33 2.993 3.39l.483 4.225c.237 2.067-.707 3.818-2.148 3.985v-.004z" fill="#9A9DAB" mask="url(#cd)"/></g><g transform="translate(239 30)"><mask id="cf" fill="#fff"><use xlink:href="#ce"/></mask><path fill="#34495E" mask="url(#cf)" d="M112.87 62.546l.685-.079-.732-6.39-.684.08z"/></g><g transform="translate(239 30)"><mask id="ch" fill="#fff"><use xlink:href="#cg"/></mask><path fill="#34495E" mask="url(#ch)" d="M124.968 63.04l.684-.08-1.144-10-.684.08z"/></g><g transform="translate(239 30)"><mask id="cj" fill="#fff"><use xlink:href="#ci"/></mask><path d="M83.133 63.442c.045.408.25.781.57 1.036.32.256.726.373 1.132.326l.145-.016c.842-.098.472-3.33-.37-3.232l-.157.018a1.543 1.543 0 0 0-1.35 1.711l.03.157z" fill="#FFF" mask="url(#cj)"/></g><g transform="translate(239 30)"><mask id="cl" fill="#fff"><use xlink:href="#ck"/></mask><path d="M84.921 65.561a2.305 2.305 0 0 1-2.545-2.031l-.019-.159a2.312 2.312 0 0 1 2.02-2.56l.146-.016c.252-.03.882-.003 1.306.876.19.424.31.877.355 1.34.168 1.465-.259 2.434-1.117 2.533l-.146.017z" fill="#34495E" mask="url(#cl)"/></g><g transform="translate(239 30)"><mask id="cn" fill="#fff"><use xlink:href="#cm"/></mask><path d="M85.5 65.528c.21 1.831 17.379 1.345 17.379 1.345 1.15-.133 1.915-1.722 1.705-3.554l-.535-4.672c-.209-1.832-1.314-3.209-2.463-3.076 0 0-16.83 3.453-16.62 5.284l.534 4.673z" fill="#FFF" mask="url(#cn)"/></g><g transform="translate(239 30)"><mask id="cp" fill="#fff"><use xlink:href="#co"/></mask><path d="M102.978 67.633l-.069.008c-.04.005-4.362.117-8.656.012-8.592-.214-9.4-1.086-9.51-2.038l-.535-4.672c-.109-.952.483-1.986 8.802-4.157 4.157-1.087 8.388-1.956 8.432-1.965l.07-.008c1.594-.185 3.037 1.463 3.298 3.742l.535 4.672c.261 2.283-.78 4.215-2.368 4.398l.001.008z" fill="#9A9DAB" mask="url(#cp)"/></g><g transform="translate(239 30)"><mask id="cr" fill="#fff"><use xlink:href="#cq"/></mask><path fill="#34495E" mask="url(#cr)" d="M87.81 66.403l.757-.088-.808-7.065-.757.087z"/></g><g transform="translate(239 30)"><mask id="ct" fill="#fff"><use xlink:href="#cs"/></mask><path fill="#34495E" mask="url(#ct)" d="M101.19 66.945l.756-.087-1.265-11.055-.757.088z"/></g><g transform="translate(239 30)"><mask id="cv" fill="#fff"><use xlink:href="#cu"/></mask><path d="M179.133 39.283l-7.132.825a1.39 1.39 0 0 1-1.538-1.228l-.179-1.559a1.395 1.395 0 0 1 1.222-1.547l1.72-.2a20.187 20.187 0 0 1 5.907 3.709" fill="#0875BE" mask="url(#cv)"/></g></g><g><path fill="#1CB7C8" d="M391.347 34.011l-3.127-9.98-13.705-1.283-4.783-16.116 8.738-2.564 3.128 10.073 13.704 1.282 4.783 16.024z"/><path fill="#10EB7F" d="M59.605 134.905l-6.347-6.684 7.726-7.234-4.967-12.82L68.25 96.72l6.347 6.684-7.818 7.235 4.966 12.82z"/><path fill="#FD7B33" d="M466.06 42.342l-6.99-6.044 6.438-7.417 6.53 2.106 2.484-2.838 6.99 5.951-6.53 7.51-6.53-2.107z"/><path fill="#F4B42E" d="M501.94 122.46l-7.818-4.945 5.702-8.883-6.162-8.698 7.45-5.312 9.75 13.736z"/><path fill="#1ABC9C" d="M234.456 17.208l-1.84-6.044-6.346-.274.368-9.157 12.785.458 3.863 12.27z"/><path fill="#F4B42E" d="M205.288 76.899l-13.505 11.47-5.97-6.966 8.327-7.072-3.682-8.67 9.497-8.669 6.25 6.729-4.718 4.369z"/><path fill="#5758F7" d="M130.018 49.988l-5.15-5.036-7.36 2.014-2.299-8.882 12.418-3.388 4.69 4.67 11.774-4.396 3.31 8.516z"/><g transform="translate(37)"><mask id="cx" fill="#fff"><use xlink:href="#cw"/></mask><path fill="#88FFE8" mask="url(#cx)" d="M13.867 19.04l-9.198-1.465 1.011-6.227L.07 8.326 4.485.268l11.313 6.044z"/></g></g></g></svg>