<?xml version="1.0" encoding="UTF-8"?>
<svg width="527px" height="622px" viewBox="0 0 527 622" version="1.1" xmlns="http://www.w3.org/2000/svg" xmlns:xlink="http://www.w3.org/1999/xlink">
    <!-- Generator: Sketch 50.2 (55047) - http://www.bohemiancoding.com/sketch -->
    <title>Mathspace_tournament-2</title>
    <desc>Created with Sketch.</desc>
    <defs></defs>
    <g id="Final-design" stroke="none" stroke-width="1" fill="none" fill-rule="evenodd">
        <g id="Desktop-Copy-5" transform="translate(-557.000000, -93.000000)">
            <g id="Mathspace_tournament-2" transform="translate(557.000000, 93.000000)">
                <path d="M402.31,586.36 L402.31,519.5 L431.31,519.5 C434.623708,519.5 437.31,516.813708 437.31,513.5 L437.31,484.5 C437.31,481.186292 434.623708,478.5 431.31,478.5 L354.45,478.5 C353.636717,478.499548 352.858101,478.829309 352.292526,479.413735 C351.726952,479.998162 351.42289,480.787169 351.45,481.6 L351.45,513.5 C351.45,516.813708 354.136292,519.5 357.45,519.5 L386.45,519.5 L386.45,586.36 C364.45,588.88 345.88,601.72 339.88,619.31 L347.45,621.89 C352.73,606.42 370.07,595.33 390.38,594.03 L390.38,620.6 L398.38,620.6 L398.38,594 C418.7,595.3 436.04,606.39 441.32,621.86 L448.89,619.28 C442.87,601.72 424.31,588.88 402.31,586.36 Z" id="Shape" fill-opacity="0.5" fill="#83BADE" fill-rule="nonzero"></path>
                <rect id="Rectangle-path" fill-opacity="0.5" fill="#83BADE" fill-rule="nonzero" x="14.48" y="9.16" width="497.34" height="301.83"></rect>
                <path d="M521.4,0 L4.9,0 L4.9,320.15 L521.4,320.15 L521.4,0 Z M514.82,314 L11.48,314 L11.48,6.16 L514.82,6.16 L514.82,314 Z" id="Shape" fill-opacity="0.5" fill="#83BADE" fill-rule="nonzero"></path>
                <path d="M521.76,324.82 L4.9,324.82 C0.97067352,328.122647 -0.683816245,333.406088 0.66,338.36 C0.231296088,339.281189 0.00618428265,340.28396 0,341.3 C0.00550757354,345.108481 3.09151887,348.194492 6.9,348.2 L519.6,348.2 C523.408481,348.194492 526.494492,345.108481 526.5,341.3 C526.498721,340.392706 526.315084,339.494925 525.96,338.66 C527.450549,333.621878 525.799125,328.180041 521.76,324.82 Z" id="Shape" fill-opacity="0.5" fill="#83BADE" fill-rule="nonzero"></path>
                <polygon id="Shape" fill="#1CB7C8" fill-rule="nonzero" points="389 69.4 385.6 58.5 370.7 57.1 365.5 39.5 375 36.7 378.4 47.7 393.3 49.1 398.5 66.6"></polygon>
                <polygon id="Shape" fill="#FFD700" fill-rule="nonzero" points="62.3 205.7 55.4 198.4 63.8 190.5 58.4 176.5 71.7 164 78.6 171.3 70.1 179.2 75.5 193.2"></polygon>
                <polygon id="Shape" fill="#FD7B33" fill-rule="nonzero" points="446.26 84.9 438.66 78.3 445.66 70.2 452.76 72.5 455.46 69.4 463.06 75.9 455.96 84.1 448.86 81.8"></polygon>
                <polygon id="Shape" fill="#F4B42E" fill-rule="nonzero" points="494.1 155.02 485.6 149.62 491.8 139.92 485.1 130.42 493.2 124.62 503.8 139.62"></polygon>
                <polygon id="Shape" fill="#1ABC9C" fill-rule="nonzero" points="240.81 45.15 238.81 38.55 231.91 38.25 232.31 28.25 246.21 28.75 250.41 42.15"></polygon>
                <polygon id="Shape" fill="#10EB7F" fill-rule="nonzero" points="203.6 115.7 184.3 115.7 184.3 105.7 196.2 105.7 199.3 95.9 213.3 95.4 213.7 105.4 206.7 105.7"></polygon>
                <polygon id="Shape" fill="#5758F7" fill-rule="nonzero" points="103.95 98.7 98.35 93.2 90.35 95.4 87.75 85.7 101.35 82 106.45 87.1 119.25 82.3 122.75 91.6"></polygon>
                <polygon id="Shape" fill="#88FFE8" fill-rule="nonzero" points="41.15 47.15 31.25 45.55 32.35 38.75 26.25 35.45 31.05 26.65 43.35 33.25"></polygon>
                <path d="M323.49,576.3 L323.34,615.94 C323.329336,617.214617 322.304478,618.248348 321.03,618.27 L281.88,618.79 C281.253406,618.800765 280.648893,618.558665 280.202945,618.118363 C279.756998,617.67806 279.507218,617.07668 279.51,616.45 C279.51,610.91 281.22,597.69 298.32,599.22 L306.79,601.02 L307.79,577.19 L323.49,576.3 Z" id="Shape" fill="#0D1E2A" fill-rule="nonzero"></path>
                <path d="M241.2,560.94 L223.96,596.63 C223.410045,597.780476 222.037437,598.27515 220.88,597.74 L185.33,581.32 C184.760733,581.059618 184.320185,580.581124 184.107618,579.99233 C183.89505,579.403536 183.928344,578.753974 184.2,578.19 C186.57,573.19 193.84,562 208.61,570.76 L215.47,576.04 L226.61,555 L241.2,560.94 Z" id="Shape" fill="#0D1E2A" fill-rule="nonzero"></path>
                <path d="M349.06,428.14 L280.84,443.64 C268.903317,446.347187 258.980207,454.597862 254.14,465.84 L212.46,566.38 C212.081439,567.215394 212.350112,568.201929 213.1,568.73 L233.3,582.9 C233.719821,583.19213 234.238848,583.304682 234.741966,583.212694 C235.245085,583.120706 235.690707,582.831781 235.98,582.41 L290.49,489.91 L366.13,475.37 L418.83,437.48 L349.06,428.14 Z" id="Shape" fill="#898989" fill-rule="nonzero"></path>
                <path d="M304.6,448.56 C299.515382,448.328342 294.647336,450.635462 291.607206,454.717694 C288.567076,458.799925 287.751336,464.124889 289.43,468.93 L300.85,591.47 C301.127723,592.390045 302.040041,592.965573 302.99,592.82 L326.19,589.15 C326.697845,589.071747 327.15274,588.792174 327.451937,588.374428 C327.751133,587.956682 327.869391,587.436003 327.78,586.93 L337.69,497.53 C337.58514,496.89825 337.803859,496.25599 338.27249,495.81954 C338.741121,495.383089 339.397292,495.210537 340.02,495.36 C340.02,495.36 423.18,489.07 431.42,480.2 C437.03,474.2 433.23,432.2 433.23,432.2 L388.23,427.2 L304.6,448.56 Z" id="Shape" fill="#9A9A9A" fill-rule="nonzero"></path>
                <path d="M372.78,264.19 C372.22775,265.638249 371.841939,267.144589 371.63,268.68 L371.49,270.33 C371.23,276.33 373.72,281.63 377.34,283 C382.71,285 385.5,287 384.21,292.65 C383.37,296.33 380.06,301.12 376.9,303.04 C375.99,303.59 365.28,324.04 371.43,327.91 C374.27,329.71 405.65,334.18 406.56,319.91 C405.124465,313.008437 404.636639,305.943368 405.11,298.91 C405.59,294.91 409.11,286.57 409.11,286.57 C411.94338,285.458552 414.630031,284.004401 417.11,282.24 C424.29,277 428.21,255.15 418.91,247.24 C409.61,239.33 394.2,238.4 390.2,239.52 C386.2,240.64 381.72,248.33 381.72,248.33 C380.941599,249.27579 380.390778,250.387695 380.11,251.58 L380.43,251.21 C381.43283,251.369473 382.194504,252.19738 382.27,253.21 C381.539323,252.611482 380.685761,252.181287 379.77,251.95 C379.13,252.68 378.55,254.95 377.56,255.66 C375.560118,256.953978 373.411212,258.00157 371.16,258.78 C369.81,259.34 370.58,263.2 372.78,264.19 Z" id="Shape" fill="#A87C4F" fill-rule="nonzero"></path>
                <path d="M380.43,251.29 L380.03,251.75 C379.88,251.93 379.77,252.04 379.62,252.21 C380.786576,252.456516 381.870848,252.996932 382.77,253.78 C382.730164,252.478402 381.726617,251.410526 380.43,251.29 Z" id="Shape" fill="#0E131F" fill-rule="nonzero"></path>
                <path d="M371.7,268.44 L371.7,268.52 L371.49,270.85 L371.49,270.94 C371.49,270.94 374.49,270.54 375.49,268.1 C375.4,268.1 372.76,270.48 371.7,268.44 Z" id="Shape" fill="#0E131F" fill-rule="nonzero"></path>
                <path d="M392.04,259.8 C392.04,259.8 391.68,252.99 397.44,255.64 C403.2,258.29 395.3,267.87 395.3,267.87 C395.3,267.87 398.22,282.82 403.98,285.48 C409.74,288.14 415.73,283.94 415.73,283.94 C415.73,283.94 436.35,276.94 436.88,260.61 C437.41,244.28 428.88,240.36 428.88,240.36 C428.88,240.36 412.94,229.69 401.88,231.22 C390.82,232.75 395.88,221.79 390.43,225.94 C384.98,230.09 378.43,236.94 384.5,246.39 C390.57,255.84 392.04,259.8 392.04,259.8 Z" id="Shape" fill="#2E3696" fill-rule="nonzero"></path>
                <path d="M405.2,310.15 C405.2,310.15 388.89,318.5 376.9,303 C368.38,292 298.95,300.16 300.9,279 C302.11,265.47 322.04,225.78 322.04,225.78 L299.93,214.62 C299.93,214.62 265.82,283.24 265.08,295.48 C264.34,307.72 313.6,321.08 316.41,338.69 C319.22,356.3 466.06,349.5 466.06,349.5 C466.06,349.5 425.2,301.7 405.2,310.15 Z" id="Shape" fill="#F1F1F1" fill-rule="nonzero"></path>
                <rect id="Rectangle-path" fill="#E6E7E7" fill-rule="nonzero" transform="translate(371.167594, 387.468254) rotate(3.630000) translate(-371.167594, -387.468254) " x="242.092594" y="333.138254" width="258.15" height="108.66" rx="5"></rect>
                <rect id="Rectangle-path" fill="#F9FAFB" fill-rule="nonzero" transform="translate(373.205600, 387.017300) rotate(3.433630) translate(-373.205600, -387.017300) " x="252.523958" y="339.632236" width="241.363284" height="94.770127" rx="5"></rect>
                <path d="M284.11,342.26 L273.41,351.26 L266.97,344.26 C266.498904,343.746492 265.77148,343.555119 265.108674,343.770316 C264.445868,343.985513 263.969598,344.567696 263.89,345.26 L263.75,347.44 L263.2,356.13 C263.148919,357.429884 264.151,358.529946 265.45,358.6 L269.16,358.83 L275.06,359.21 L276.7,359.31 L283.62,359.75 C284.395097,359.822114 285.166902,359.58175 285.763995,359.082295 C286.361088,358.58284 286.734034,357.865644 286.8,357.09 L287.51,345.89 L287.64,343.89 C287.632805,343.058287 287.146533,342.305333 286.391406,341.956648 C285.636279,341.607963 284.747773,341.726105 284.11,342.26 Z" id="Shape" fill="#E6E7E7"></path>
                <g id="Group-4" transform="translate(279.000000, 361.000000)" fill="#1CB7C8" fill-rule="nonzero">
                    <path d="M16.0692236,39.4180501 L15.7942002,44 L11.0795136,43.6945367 L11.3676333,39.1657108 C6.98869677,38.6388565 2.94826487,36.5146267 0,33.1892545 L4.1515435,28.0096589 C6.13753892,30.3650553 8.79662266,32.0359124 11.7605239,32.790824 L12.2843779,24.8089345 C7.26847521,23.2284938 1.80729654,20.8246302 2.26566885,14.077875 C2.57998129,8.95140356 6.86248831,4.88741322 13.5416277,4.66163598 L13.8428438,0 L18.5444341,0.292182312 L18.243218,5.07334742 C21.9602386,5.65588219 25.3870115,7.4563994 28,10.1998189 L23.756782,15.1801992 C22.1279581,13.4550079 20.0828488,12.1914117 17.8241347,11.5146393 L17.3788587,18.5402958 C22.4471469,20.2269846 28.0130964,22.6042861 27.5940131,29.4440085 C27.2404116,35.0087534 23.4031805,39.0993058 16.0692236,39.4180501 Z M13.1880262,17.2918805 L13.5809167,10.9169937 C11.0402245,11.0099608 9.65201123,12.2450951 9.50795136,14.038032 C9.41627689,15.5122246 10.9747428,16.5083006 13.1880262,17.2520374 L13.1880262,17.2918805 Z M20.3517306,29.8690009 C20.4695978,28.0096589 18.7932647,27.0401449 16.4228251,26.176879 L15.9775491,33.2158165 C18.8325538,32.9501962 20.2469598,31.4494416 20.3517306,29.8291579 L20.3517306,29.8690009 Z" id="Shape"></path>
                    <polygon id="Shape" points="41.9863014 15.9189189 35.9178082 21.0893067 32 16.6686251 43.5753425 7 50 7.38777908 47.8082192 40 40.3972603 39.560517"></polygon>
                    <path d="M67.5579327,8.02966018 C76.8246844,8.62853986 80.4463217,17.3643716 79.9565629,25.8398209 C79.4668041,34.3152702 74.6981002,42.5563752 65.4313485,41.9705147 C56.1645968,41.3846541 52.5429595,32.5837268 53.0456066,24.1082775 C53.5482538,15.6328282 58.2525158,7.44379963 67.5579327,8.02966018 Z M67.171281,14.239782 C62.4927958,13.9403422 60.4435419,18.5100545 60.0697786,24.5639468 C59.6960154,30.6178391 61.1395149,35.460953 65.8180001,35.7603929 C70.4964854,36.0598327 72.507074,31.4380439 72.8808373,25.3450942 C73.2546006,19.2521445 71.811101,14.5392218 67.171281,14.239782 Z" id="Shape"></path>
                    <path d="M111.56965,11.0321414 C120.835657,11.6311858 124.457004,20.3694205 123.954397,28.8341784 C123.45179,37.2989363 118.696357,45.5683536 109.43035,44.9693092 C100.164343,44.3702648 96.5429962,35.5799393 97.045603,27.1151814 C97.5482097,18.6504235 102.252094,10.4200743 111.56965,11.0321414 Z M111.18303,17.2309487 C106.50492,16.9314265 104.455831,21.5023958 104.069211,27.5579534 C103.68259,33.6135109 105.151748,38.457957 109.829858,38.7574792 C114.507967,39.0570014 116.505507,34.446964 116.892127,28.3393156 C117.278748,22.2316672 115.80959,17.5304709 111.18303,17.2309487 Z" id="Shape"></path>
                    <path d="M141.581445,14.0364769 C150.83866,14.6237255 154.45657,23.3933052 153.95444,31.8757856 C153.45231,40.358266 148.662764,48.5927969 139.418424,47.9663984 C130.174084,47.3399998 126.543298,38.5573701 127.045428,30.0748898 C127.547558,21.5924094 132.246979,13.3839784 141.581445,14.0364769 Z M141.195191,20.2482625 C136.521521,19.9481132 134.474376,24.5286526 134.088122,30.5968886 C133.701868,36.6651245 135.169632,41.5197133 139.843303,41.8198626 C144.516973,42.1200119 146.512618,37.5003226 146.898872,31.3798867 C147.285125,25.2594509 145.778736,20.5614618 141.156566,20.1960626 L141.195191,20.2482625 Z" id="Shape"></path>
                    <path d="M173.558179,15.0296238 C182.824747,15.6156224 186.446313,24.3665357 185.956564,32.8309607 C185.466815,41.2953857 180.749758,49.6035444 171.431636,48.965457 C162.113515,48.3273695 158.543502,39.5764563 159.046139,31.1120313 C159.548777,22.6476063 164.252946,14.4436251 173.558179,15.0296238 Z M173.171535,21.2281873 C168.493142,20.9286769 166.443928,25.4994664 166.057284,31.5547858 C165.67064,37.6101053 167.139888,42.4543608 171.81828,42.7538712 C176.496673,43.0533817 178.507222,38.4435256 178.880978,32.3361174 C179.254734,26.2287092 177.798375,21.5276977 173.171535,21.2281873 Z" id="Shape"></path>
                </g>
                <path d="M308.55,412.85 L259.8,409.76 C259.064006,409.671572 258.524514,409.024765 258.569598,408.28485 C258.614682,407.544935 259.228715,406.968415 259.97,406.97 L308.72,410.07 C309.216599,410.100368 309.659275,410.393361 309.881275,410.838612 C310.103276,411.283863 310.070874,411.813728 309.796275,412.228612 C309.521677,412.643496 309.046599,412.880368 308.55,412.85 Z" id="Shape" fill="#E6E7E7" fill-rule="nonzero"></path>
                <path d="M318.4,422.74 L259.2,419 C258.703401,418.967846 258.261678,418.673202 258.041225,418.227058 C257.820771,417.780913 257.855079,417.251048 258.131225,416.837058 C258.40737,416.423067 258.883401,416.187846 259.38,416.22 L318.58,420 C319.076599,420.032154 319.518322,420.326798 319.738775,420.772942 C319.959229,421.219087 319.924921,421.748952 319.648775,422.162942 C319.37263,422.576933 318.896599,422.812154 318.4,422.78 L318.4,422.74 Z" id="Shape" fill="#E6E7E7" fill-rule="nonzero"></path>
                <path d="M478.03,431.94 L418.84,428.19 C418.716028,428.182391 418.600403,428.124972 418.519416,428.030802 C418.43843,427.936632 418.398966,427.813714 418.41,427.69 C418.414979,427.566897 418.470214,427.451218 418.562817,427.369954 C418.65542,427.28869 418.777293,427.248948 418.9,427.26 L478.09,431 C478.254342,431.010718 478.400483,431.108297 478.473372,431.255981 C478.546261,431.403664 478.534825,431.579015 478.443372,431.715981 C478.351919,431.852946 478.194342,431.930718 478.03,431.92 L478.03,431.94 Z" id="Shape" fill="#E6E7E7" fill-rule="nonzero"></path>
                <path d="M434.92,425.22 C434.751404,425.207238 434.584161,425.180479 434.42,425.14 C434.260769,425.09988 434.135,424.977921 434.09,424.82 C433.771767,423.680148 433.942036,422.459285 434.56,421.45 C435.39184,420.130319 436.595766,419.086452 438.02,418.45 L438.17,414.6 C438.293289,413.857733 438.159214,413.095622 437.79,412.44 C436.85,411.25 434.6,412.23 433.94,412.56 C430.670502,414.178715 427.565931,416.111118 424.67,418.33 C424.570641,418.40585 424.445159,418.438996 424.321304,418.422106 C424.197448,418.405217 424.085422,418.339684 424.01,418.24 C423.858752,418.034782 423.898682,417.746402 424.1,417.59 C427.04428,415.33833 430.198888,413.375909 433.52,411.73 C435.76,410.62 437.58,410.67 438.52,411.86 C439.030323,412.687492 439.235479,413.667286 439.1,414.63 L438.97,418.06 C439.21,417.98 439.46,417.91 439.7,417.85 C441.58,417.38 442.49,419.05 443.15,420.26 C443.4,420.73 443.79,421.43 444.01,421.46 C444.01,421.46 444.16,421.46 444.46,421.12 C445.186488,420.189812 446.222582,419.551124 447.38,419.32 C449.18,419.06 450.73,420.2 452.1,421.2 L452.9,421.78 C457.19,424.78 463.56,425.04 469.52,422.59 C472.206493,421.434237 474.73918,419.949559 477.06,418.17 C477.191252,418.040585 477.386036,417.999838 477.558157,418.06579 C477.730278,418.131742 477.84796,418.292217 477.859126,418.476202 C477.870292,418.660187 477.772882,418.833717 477.61,418.92 C475.229785,420.748024 472.629444,422.26993 469.87,423.45 C463.62,426.02 456.92,425.68 452.37,422.54 L451.55,421.95 C450.27,421.01 448.94,420.04 447.55,420.24 C446.615223,420.450081 445.781614,420.976386 445.19,421.73 C444.906143,422.139686 444.438406,422.382909 443.94,422.38 C443.23,422.31 442.83,421.57 442.36,420.71 C441.65,419.39 441.05,418.48 439.96,418.71 C439.618971,418.790926 439.284656,418.897907 438.96,419.03 L438.96,419.14 C439.005103,420.514092 438.742002,421.88085 438.19,423.14 C437.594166,424.407544 436.3206,425.217641 434.92,425.22 Z M434.92,424.29 C435.947803,424.284452 436.881171,423.68943 437.32,422.76 C437.773757,421.737563 437.998994,420.628442 437.98,419.51 C436.906751,420.064421 436.001951,420.896699 435.36,421.92 C434.922517,422.627334 434.765558,423.472773 434.92,424.29 Z" id="Shape" fill="#E6E7E7" fill-rule="nonzero"></path>
                <circle id="Oval" fill="#1CB7C8" fill-rule="nonzero" cx="459.17" cy="361.17" r="10.17"></circle>
                <polygon id="Shape" fill="#1CB7C8" points="449 333.69 448 344.071712 459.88 350.59 472.91 345.12177 473.91 334.733454 461.46 334.211727"></polygon>
                <polygon id="Shape" fill="#11664C" points="448 344.071712 455.11 347.968156 456.45 334.006999 449 333.69"></polygon>
                <rect id="Rectangle-path" fill="#1CB7C8" fill-rule="nonzero" transform="translate(459.600418, 351.053413) rotate(-86.370000) translate(-459.600418, -351.053413) " x="458.770418" y="347.498413" width="1.66" height="7.11"></rect>
                <polygon id="Shape" fill="#11664C" points="465 348.318175 472.79 345.049125 473.79 334.660809 466.34 334.350414"></polygon>
                <path d="M463.720682,357.279778 L457.720682,362.279778 L454.110682,358.379778 C453.845309,358.098045 453.44119,357.994741 453.073169,358.114562 C452.705149,358.234383 452.439315,358.55581 452.390682,358.939778 L452.310682,360.159778 L452.000682,365.029778 C451.977748,365.755061 452.536309,366.366818 453.260682,366.409778 L455.330682,366.539778 L458.640682,366.749778 L459.560682,366.809778 L463.440682,367.049778 C464.342138,367.125012 465.136098,366.460405 465.220682,365.559778 L465.610682,359.289778 L465.690682,358.179778 C465.682883,357.71742 465.41011,357.300682 464.989502,357.108526 C464.568894,356.91637 464.075298,356.98299 463.720682,357.279778 Z" id="Shape" fill="#11664C"></path>
                <polygon id="Shape" fill="#34495E" points="284.7 202.71 334.75 225.16 332.8 229.51 339.87 232.68 327.08 261.2 262.88 232.4 275.68 203.89 282.75 207.06"></polygon>
                <rect id="Rectangle-path" fill="#EBEBC4" fill-rule="nonzero" transform="translate(301.384274, 232.548987) rotate(-65.840000) translate(-301.384274, -232.548987) " x="292.364274" y="212.243987" width="18.04" height="40.61"></rect>
                <path d="M297.28,97.8 C280.761482,115.681776 281.130592,143.364997 298.12,160.8 C295.872323,172.851059 300.612066,185.139568 310.37,192.56 L302.29,210.56 L317.2,217.27 L325.27,199.27 C337.350545,201.678323 349.751775,197.027862 357.27,187.27 C381.531768,188.272428 402.358962,170.165449 404.74,146 L386.4,137.78 L389.45,132.5 L317.63,100.28 L315.72,106.07 L297.28,97.8 Z M362.59,179 L382.28,144.91 L395.63,150.91 C395.038223,152.97798 394.313378,155.005541 393.46,156.98 C387.903898,169.358049 376.102531,177.776127 362.59,179 Z M296.59,113.52 C297.502236,111.569491 298.537661,109.679004 299.69,107.86 L313.13,113.86 L300.75,151.3 C292.617748,140.387895 291.026171,125.929797 296.59,113.51 L296.59,113.52 Z" id="Shape" fill="#FFD700"></path>
                <path d="M297.28,97.8 C280.761482,115.681776 281.130592,143.364997 298.12,160.8 C295.872323,172.851059 300.612066,185.139568 310.37,192.56 L302.29,210.56 L309.73,213.89 L353.49,116.33 L317.63,100.24 L315.72,106.03 L297.28,97.8 Z M296.59,113.51 C297.502236,111.559491 298.537661,109.669004 299.69,107.85 L313.13,113.85 L300.75,151.29 C292.621574,140.38019 291.030121,125.927046 296.59,113.51 Z" id="Shape" fill="#F4B42E"></path>
                <path d="M472.45,332.05 C472.45,332.05 464.45,345.32 475.1,347.13 C485.75,348.94 500.03,342.26 492.18,336.18 C484.33,330.1 481.28,328.11 472.45,332.05 Z" id="Shape" fill="#A87C4F" fill-rule="nonzero"></path>
                <path d="M301.52,195.74 C301.52,195.74 289.19,205.18 298.52,210.74 C307.85,216.3 319.33,212.49 318.41,206.74 C316.81,197 311.2,195.29 301.52,195.74 Z" id="Shape" fill="#A87C4F" fill-rule="nonzero"></path>
                <path d="M3.3,617.5 L3.3,408.5 L171.6,408.5 L171.6,617.6 L3.3,617.5 M174.6,405.5 L0.3,405.5 L0.3,620.6 L174.6,620.6 L174.6,405.5" id="Shape" fill-opacity="0.5" fill="#83BADE" fill-rule="nonzero"></path>
                <path d="M104.4,429.8 L104.1,429.8 C102.109404,429.875361 100.230829,430.740576 98.8796802,432.20432 C97.5285316,433.668064 96.8161272,435.609745 96.9,437.6 L98.6,491 L113.6,490.4 L111.9,437 C111.708878,432.989047 108.415411,429.827318 104.4,429.8" id="Shape" fill-opacity="0.5" fill="#83BADE" fill-rule="nonzero"></path>
                <path d="M121.3,429.8 L121,429.8 C119.009404,429.875361 117.130829,430.740576 115.77968,432.20432 C114.428532,433.668064 113.716127,435.609745 113.8,437.6 L115.5,491 L130.5,490.4 L128.8,437 C128.675056,432.959293 125.34244,429.759982 121.3,429.8" id="Shape" fill-opacity="0.5" fill="#83BADE" fill-rule="nonzero"></path>
                <path d="M137.4,430.2 C136.894657,430.217383 136.392244,430.284371 135.9,430.4 C133.936006,430.795259 132.210055,431.955874 131.103117,433.625662 C129.996179,435.295449 129.59927,437.337115 130,439.3 L140.2,491.7 L154.9,488.7 L144.7,436.3 C144.076666,432.760365 140.994068,430.184495 137.4,430.2" id="Shape" fill-opacity="0.5" fill="#83BADE" fill-rule="nonzero"></path>
                <path d="M28.3,516.5 C27.7917286,516.467832 27.2820869,516.535784 26.8,516.7 C24.8360063,517.095259 23.1100549,518.255874 22.0031171,519.925662 C20.8961794,521.595449 20.4992703,523.637115 20.9,525.6 L31.1,578 L45.8,575 L35.6,522.6 C34.9766663,519.060365 31.8940679,516.484495 28.3,516.5" id="Shape" fill-opacity="0.5" fill="#83BADE" fill-rule="nonzero"></path>
                <path d="M96,493.5 C95.1804395,493.478975 94.5210247,492.81956 94.5,492 L94.5,423.3 C94.5210247,422.48044 95.1804395,421.821025 96,421.8 L156.4,421.8 C157.21956,421.821025 157.878975,422.48044 157.9,423.3 L157.9,492 C157.878975,492.81956 157.21956,493.478975 156.4,493.5 L96,493.5 M156.4,418.7 L96,418.7 C94.8048945,418.694653 93.6571924,419.167041 92.8121168,420.012117 C91.9670411,420.857192 91.4946527,422.004895 91.5,423.2 L91.5,492 C91.4946527,493.195105 91.9670411,494.342808 92.8121168,495.187883 C93.6571924,496.032959 94.8048945,496.505347 96,496.5 L156.4,496.5 C157.595105,496.505347 158.742808,496.032959 159.587883,495.187883 C160.432959,494.342808 160.905347,493.195105 160.9,492 L160.9,423.3 C160.916761,420.791474 158.908288,418.738369 156.4,418.7" id="Shape" fill-opacity="0.5" fill="#83BADE" fill-rule="nonzero"></path>
                <path d="M60.8,431.1 L38,431.1 C36.2372299,431.110915 34.8109153,432.53723 34.8,434.3 C34.7891455,435.151974 35.1228007,435.972228 35.7252861,436.574714 C36.3277716,437.177199 37.148026,437.510854 38,437.5 L60.8,437.5 C62.5627701,437.489085 63.9890847,436.06277 64,434.3 C64.0108545,433.448026 63.6771993,432.627772 63.0747139,432.025286 C62.4722284,431.422801 61.651974,431.089146 60.8,431.1" id="Shape" fill-opacity="0.5" fill="#83BADE" fill-rule="nonzero"></path>
                <path d="M38,440.4 C34.5758346,440.4 31.8,437.624165 31.8,434.2 C31.8,430.775835 34.5758346,428 38,428 L60.8,428 C64.2241654,428 67,430.775835 67,434.2 C67,437.624165 64.2241654,440.4 60.8,440.4 L38,440.4 M79.6,420.2 L19.2,420.2 C17.5431458,420.2 16.2,421.543146 16.2,423.2 L16.2,492 C16.2,493.656854 17.5431458,495 19.2,495 L79.6,495 C81.2568542,495 82.6,493.656854 82.6,492 L82.6,423.3 C82.6271095,422.487169 82.3230478,421.698162 81.7574736,421.113735 C81.1918994,420.529309 80.4132826,420.199548 79.6,420.2" id="Shape" fill-opacity="0.5" fill="#83BADE" fill-rule="nonzero"></path>
                <path d="M19.2,580.4 C18.3804395,580.378975 17.7210247,579.71956 17.7,578.9 L17.7,510.2 C17.7210247,509.38044 18.3804395,508.721025 19.2,508.7 L79.6,508.7 C80.4195605,508.721025 81.0789753,509.38044 81.1,510.2 L81.1,578.9 C81.0789753,579.71956 80.4195605,580.378975 79.6,580.4 L19.2,580.4 M79.6,505.7 L19.2,505.7 C18.0048945,505.694653 16.8571924,506.167041 16.0121168,507.012117 C15.1670411,507.857192 14.6946527,509.004895 14.7,510.2 L14.7,578.9 C14.6946527,580.095105 15.1670411,581.242808 16.0121168,582.087883 C16.8571924,582.932959 18.0048945,583.405347 19.2,583.4 L79.6,583.4 C80.7951055,583.405347 81.9428076,582.932959 82.7878832,582.087883 C83.6329589,581.242808 84.1053473,580.095105 84.1,578.9 L84.1,510.2 C84.1053473,509.004895 83.6329589,507.857192 82.7878832,507.012117 C81.9428076,506.167041 80.7951055,505.694653 79.6,505.7" id="Shape" fill-opacity="0.5" fill="#83BADE" fill-rule="nonzero"></path>
                <path d="M114.8,527.3 C111.375835,527.3 108.600001,524.524165 108.600001,521.1 C108.600001,517.675835 111.375835,514.9 114.8,514.9 L137.6,514.9 C141.024165,514.9 143.8,517.675835 143.8,521.1 C143.8,524.524165 141.024165,527.3 137.6,527.3 L114.8,527.3 M156.4,507.2 L96,507.2 C94.3431458,507.2 93,508.543146 93,510.2 L93,578.9 C93,580.556854 94.3431458,581.9 96,581.9 L156.4,581.9 C158.056854,581.9 159.4,580.556854 159.4,578.9 L159.4,510.2 C159.4,508.543146 158.056854,507.2 156.4,507.2" id="Shape" fill-opacity="0.5" fill="#83BADE" fill-rule="nonzero"></path>
                <path d="M137.6,518 L114.8,518 C113.03723,518.010915 111.610915,519.43723 111.6,521.2 C111.589146,522.051974 111.922801,522.872228 112.525286,523.474714 C113.127772,524.077199 113.948026,524.410854 114.8,524.4 L137.6,524.4 C139.367311,524.4 140.8,522.967311 140.8,521.2 C140.8,519.432689 139.367311,518 137.6,518" id="Shape" fill-opacity="0.5" fill="#83BADE" fill-rule="nonzero"></path>
            </g>
        </g>
    </g>
</svg>