<svg width="147" height="84" xmlns="http://www.w3.org/2000/svg" xmlns:xlink="http://www.w3.org/1999/xlink"><defs><path id="a" d="M.232.177h70.655V67.99H.232z"/><path id="c" d="M.281.461h44.685V45H.281z"/></defs><g fill="none" fill-rule="evenodd"><g transform="translate(40)"><mask id="b" fill="#fff"><use xlink:href="#a"/></mask><path d="M58.653 40.814l10.954-10.709c2.507-2.45 1.123-6.723-2.342-7.227l-7.346-1.071-9.748-1.42a4.22 4.22 0 0 1-2.678-1.537c-.193-.24-.365-.5-.503-.782l-6.294-12.79-1.35-2.746C38.32.449 36.018-.248 34.125.424a4.148 4.148 0 0 0-2.358 2.108L30.494 5.12l-6.371 12.948a4.227 4.227 0 0 1-3.181 2.319l-17.094 2.49c-1.636.239-2.8 1.32-3.317 2.648-.58 1.487-.35 3.286.975 4.58L13.876 42.2a4.245 4.245 0 0 1 1.215 3.75l-.118.688-1.696 9.92-.304 1.779-.224 1.271c-.004.022-.002.044-.005.066l-.573 3.352c-.592 3.463 3.03 6.102 6.13 4.468L30.805 60.9l2.785-1.469a4.211 4.211 0 0 1 3.933 0l.504.266 14.785 7.796c3.1 1.634 6.722-1.005 6.13-4.468l-2.904-16.983-.016-.092a4.244 4.244 0 0 1 1.215-3.75l1.416-1.386z" fill="#F4B42E" mask="url(#b)"/></g><path d="M39.058 55.283l5.776-7.875c1.321-1.802.001-4.337-2.235-4.29l-4.74.102-6.288.135a2.696 2.696 0 0 1-1.848-.682 2.67 2.67 0 0 1-.4-.438l-5.307-7.365-1.14-1.581c-.863-1.199-2.386-1.394-3.508-.774a2.645 2.645 0 0 0-1.264 1.572l-.53 1.759-2.654 8.798a2.697 2.697 0 0 1-1.76 1.79L2.654 49.798a2.655 2.655 0 0 0-1.811 2.011c-.21.994.125 2.099 1.095 2.772l9.061 6.288a2.698 2.698 0 0 1 1.16 2.226l-.002.444-.027 6.405-.018 4.177c-.009 2.235 2.55 3.51 4.33 2.158l7.185-5.455 1.6-1.216a2.699 2.699 0 0 1 2.476-.414l.346.114 10.132 3.336c2.123.7 4.128-1.339 3.392-3.45L37.96 58.841l-.02-.057a2.696 2.696 0 0 1 .372-2.482l.746-1.019z" fill="#4A90E2"/><g transform="translate(102 39)"><mask id="d" fill="#fff"><use xlink:href="#c"/></mask><path d="M43.137 18.387L38.63 16.85l-5.98-2.04a2.705 2.705 0 0 1-1.73-1.82l-2.44-8.7-.525-1.867C27.557 1.006 26.188.3 24.914.493c-.653.099-1.282.43-1.742 1.03L22.06 2.982l-5.571 7.294a2.725 2.725 0 0 1-2.285 1.064l-11.086-.48a2.679 2.679 0 0 0-2.41 1.252c-.543.856-.614 2.002.067 2.964l6.358 8.988c.512.723.63 1.65.318 2.476l-.157.413-2.258 5.967-1.473 3.891c-.788 2.082 1.182 4.153 3.334 3.505l8.68-2.616 1.934-.582a2.738 2.738 0 0 1 2.48.467l.287.225 8.397 6.602c1.76 1.384 4.363.172 4.404-2.05l.2-10.905.002-.06a2.675 2.675 0 0 1 1.215-2.187l1.06-.693 8.195-5.358c1.875-1.227 1.514-4.047-.613-4.772" fill="#0875BE" mask="url(#d)"/></g><path d="M29.365 48.555a1.33 1.33 0 0 0-.845.507l-3.382 4.543-.101.136-.101.136-.102.136-.1.136-.102.137-.102.135-.101.137-.101.136-.102.136-.102.137-.101.136-.102.137-.101.136-.102.137-.102.137-.101.136-.102.137-.01.011-1.58-1.082-.696-.476-.475-.325-.39-.267-.343-.235-.31-.212-.287-.197-.27-.184-.256-.176-.243-.167h-.001a1.074 1.074 0 0 0-.789-.175 1.146 1.146 0 0 0-.754.475 1.01 1.01 0 0 0-.151.364.946.946 0 0 0-.005.337l.002.019.025.144.028.163.028.162.028.162.028.163.028.163.028.162.036.215.914 5.31c.132.768.903 1.292 1.707 1.161l3.88-.631.798-.13.71-.116.17-.028h.003l.174-.028.173-.029.173-.028.173-.028.172-.028.173-.028.173-.029.173-.027.173-.03.173-.027.173-.028.172-.028.172-.028.173-.028.173-.029.173-.028.172-.027.172-.029.173-.028 2.18-.355c1.016-.165 1.689-1.064 1.522-2.036l-1.153-6.704-.02-.12-.207-1.198c-.129-.75-.842-1.138-1.506-1.03" fill="#88FFE8"/><path d="M83.193 28c-.441 0-.894.172-1.268.555l-5.659 6-.169.18-.169.18-.17.18-.17.18-.17.18-.169.179-.17.18-.17.18-.17.18-.17.18-.169.18-.17.18-.17.18-.17.181-.17.18-.17.181-.17.181h-.001l-.016.015-1.896-2.014-.833-.885-.57-.605-.468-.498-.411-.436-.372-.395-.344-.366-.324-.343-.307-.326-.292-.311a1.47 1.47 0 0 0-.44-.323 1.373 1.373 0 0 0-.945-.089 1.515 1.515 0 0 0-.784.485 1.5 1.5 0 0 0-.29.51 1.59 1.59 0 0 0-.086.505l-.001.03v10.264c0 1.188.926 2.165 2.05 2.165H82.455C83.875 45 85 43.813 85 42.312V29.917C85 28.758 84.12 28 83.193 28" fill="gold"/><path d="M130.001 58.22a1.225 1.225 0 0 0-.915.193l-4.517 3.11-.135.094-.135.093-.136.092-.135.094-.135.093-.136.093-.135.094-.135.093-.136.094-.136.092-.135.094-.136.093-.136.094-.136.093-.135.094-.136.093-.136.094-.013.008-1.022-1.525-.45-.67-.307-.459-.252-.376-.222-.33-.2-.3-.186-.277-.175-.26-.165-.246-.158-.236a.994.994 0 0 0-.635-.421 1.05 1.05 0 0 0-.974.333.96.96 0 0 0-.18.302c-.02.05-.034.103-.046.158l-.003.018-.028.143-.03.16-.03.16-.032.16-.03.16-.03.16-.032.16-.04.211-1 5.233a1.404 1.404 0 0 0 1.107 1.64l3.626.688.746.14.663.127.16.03h.003l.161.031.162.031.162.03.162.031.161.03.162.032.161.03.162.031.161.03.162.03.161.031.161.03.162.031.161.031.161.03.162.032.161.03.161.03.162.031 2.036.386c.951.18 1.848-.434 2.03-1.392l1.264-6.607.022-.118.226-1.18A1.223 1.223 0 0 0 130 58.22" fill="#fff"/></g></svg>