<svg width="600" height="418" xmlns="http://www.w3.org/2000/svg" xmlns:xlink="http://www.w3.org/1999/xlink"><defs><path id="E" d="M1 .5h.5V1H1z"/><path id="a" d="M.332.2h67.252v63.499H.332z"/><path d="M2.968 6.832c-.341 1.661-1.213 3.087-1.698 4.703-.972 3.237-1.269 6.713-.94 10.07.344 3.52 1.295 6.979 2.696 10.22l5.759 18.797c-.206.367-.449.722-.806.955-.279.182-.669.265-.855.561-.237.373-.251.855-.5 1.244a3.145 3.145 0 01-1.052 1.035c-.559.326-.811.698-1.117 1.274-.165.311-.448.65-1.019 1.325-.772.911-1.921 1.623-2.792 2.081 7.396 6.622 9.992 7.7 10.786 7.066.304-.244 2.116-2.189 2.416-2.306.185-.072.277-.055.382.118.098.162.109.416.136.594.093.603.168 1.209.257 1.813.041.292.031.918.355 1.095.5.277 1.305-.066 1.509-.159 1.315-.596 3.439-.389 5.783-.181 1.628.144 3.363.288 5.006.163 1.818-.14 4.451-.678 7.6-2.595a49.338 49.338 0 01-.498-3.16c-.172-1.374-1.329-16.438-1.603-19.06-.254-2.424-.654-4.812-1.064-7.214-.179-1.054-.293-2.114-.224-3.184.08-1.214.316-2.411.402-3.625.136-1.949-.157-4.019-1.127-5.74-.574-1.018-1.387-1.868-2.296-2.594L18.328 8.421a7.405 7.405 0 01-.526-.015c-1.896-.116-3.278-.898-4.123-1.39-1.613-.937-4.692-3.213-8.316-6.685L2.968 6.832z" id="e"/><path d="M17.148 2.86s-4.97 15.903-5.3 20.209c-.332 4.308-4.921 32.487-5.484 35.077C3.585 70.91.582 99.005.582 99.005l1.989 2.585-1.989 3.862v4.959s3.231-.869 4.723-.869c1.489 0 5.59 1.739 5.59 1.739s4.432-12.175 4.432-13.998c0-1.822 1.987-2.65 1.821-3.975-.165-1.326-.643-4.805.01-6.296.653-1.491 3.553-14.742 3.8-18.222.249-3.478 4.225-14.412 4.225-14.412s4.721-13.915 5.466-15.903c.746-1.988 1.927-12.424 6.554-12.424 4.629 0 12.083 14.909 13.325 20.376 1.242 5.466 9.194 32.303 10.436 34.291 1.243 1.987 5.964 8.697 5.964 8.697l-1.839 7.229 1.257 9.898s.812 5.129.937 6.247c.124 1.118 4.257 0 4.257 0s7.688-1.631 8.93-2.254c1.243-.621 1.366-3.355 1.119-4.223-.249-.87-.995-2.61-.995-3.479 0-.87-5.349-36.174-5.845-38.907-.496-2.734-4.635-12.318-5.547-16.303-.933-4.08-1.778-13.372-1.778-16.353 0-2.983-.496-6.213-.496-7.456 0-1.242-6.957-23.108-6.957-23.108" id="g"/><path d="M17.148 2.86s-4.97 15.903-5.3 20.209c-.332 4.308-4.921 32.487-5.484 35.077C3.585 70.91.582 99.005.582 99.005l1.989 2.585-1.989 3.862v4.959s3.231-.869 4.723-.869c1.489 0 5.59 1.739 5.59 1.739s4.432-12.175 4.432-13.998c0-1.822 1.987-2.65 1.821-3.975-.165-1.326-.643-4.805.01-6.296.653-1.491 3.553-14.742 3.8-18.222.249-3.478 4.225-14.412 4.225-14.412s4.721-13.915 5.466-15.903c.746-1.988 1.927-12.424 6.554-12.424 4.629 0 12.083 14.909 13.325 20.376 1.242 5.466 9.194 32.303 10.436 34.291 1.243 1.987 5.964 8.697 5.964 8.697l-1.839 7.229 1.257 9.898s.812 5.129.937 6.247c.124 1.118 4.257 0 4.257 0s7.688-1.631 8.93-2.254c1.243-.621 1.366-3.355 1.119-4.223-.249-.87-.995-2.61-.995-3.479 0-.87-5.349-36.174-5.845-38.907-.496-2.734-4.635-12.318-5.547-16.303-.933-4.08-1.778-13.372-1.778-16.353 0-2.983-.496-6.213-.496-7.456 0-1.242-6.957-23.108-6.957-23.108L17.148 2.86z" id="i"/><path d="M17.148 2.86s-4.97 15.903-5.3 20.209c-.332 4.308-4.921 32.487-5.484 35.077C3.585 70.91.582 99.005.582 99.005l1.989 2.585-1.989 3.862v4.959s3.231-.869 4.723-.869c1.489 0 5.59 1.739 5.59 1.739s4.432-12.175 4.432-13.998c0-1.822 1.987-2.65 1.821-3.975-.165-1.326-.643-4.805.01-6.296.653-1.491 3.553-14.742 3.8-18.222.249-3.478 4.225-14.412 4.225-14.412s4.721-13.915 5.466-15.903c.746-1.988 1.927-12.424 6.554-12.424 4.629 0 12.083 14.909 13.325 20.376 1.242 5.466 9.194 32.303 10.436 34.291 1.243 1.987 5.964 8.697 5.964 8.697l-1.839 7.229 1.257 9.898s.812 5.129.937 6.247c.124 1.118 4.257 0 4.257 0s7.688-1.631 8.93-2.254c1.243-.621 1.366-3.355 1.119-4.223-.249-.87-.995-2.61-.995-3.479 0-.87-5.349-36.174-5.845-38.907-.496-2.734-4.635-12.318-5.547-16.303-.933-4.08-1.778-13.372-1.778-16.353 0-2.983-.496-6.213-.496-7.456 0-1.242-6.957-23.108-6.957-23.108L17.148 2.86z" id="k"/><path d="M21.176.9c-1.814.477-2.037 1.261-4.39 2.568-1.446.804-1.713.702-6.419 2.402-3.088 1.116-4.632 1.674-4.845 1.863-2.645 2.365-.993 6.273-2.319 12.466-.691 3.226-3.22 6.275-2.982 7.621.238 1.345 4.37 1.193 7.62 1.159 3.611-.038 4.182-.876 5.136-.331 3.818 2.182-3.55 16.64-2.982 31.64.054 1.423.297 5.952 0 12.176a127.55 127.55 0 01-.497 6.709c9.422 2.517 17.452 3.539 23.357 3.976 9.768.722 14.205-.124 18.139-2.237 3.169-1.702 5.35-3.871 6.71-5.466-1.178-2.598-1.458-4.73-1.491-6.213-.046-2.065.387-2.841.249-5.467-.05-.924-.165-2.004-.746-4.721-.801-3.745-1.308-5.087-1.74-6.957-.52-2.26-2.426-10.523 1.74-16.401.479-.677.941-1.181 1.243-1.49.717.442 1.325 1.781 2.152 1.326.829-.457 1.961-9.071 3.065-11.679.823-1.944 1.817-3.855 1.989-6.792.076-1.307.2-4.082-1.491-6.626-.26-.39-.847-1.206-2.485-2.486-.653-.508-1.979-1.524-7.455-3.975-1.869-.837-2.803-1.256-3.728-1.573-2.429-.839-4.525-1.199-6.212-1.409-4.282-.534-6.966-.241-9.319.052-2.491.31-4.613.621-7.867-.052-.604-.125-1.467-.329-2.509-.329-.588 0-1.234.065-1.923.246" id="m"/><path d="M21.176.9c-1.814.477-2.037 1.261-4.39 2.568-1.446.804-1.713.702-6.419 2.402-3.088 1.116-4.632 1.674-4.845 1.863-2.645 2.365-.993 6.273-2.319 12.466-.691 3.226-3.22 6.275-2.982 7.621.238 1.345 4.37 1.193 7.62 1.159 3.611-.038 4.182-.876 5.136-.331 3.818 2.182-3.55 16.64-2.982 31.64.054 1.423.297 5.952 0 12.176a127.55 127.55 0 01-.497 6.709c9.422 2.517 17.452 3.539 23.357 3.976 9.768.722 14.205-.124 18.139-2.237 3.169-1.702 5.35-3.871 6.71-5.466-1.178-2.598-1.458-4.73-1.491-6.213-.046-2.065.387-2.841.249-5.467-.05-.924-.165-2.004-.746-4.721-.801-3.745-1.308-5.087-1.74-6.957-.52-2.26-2.426-10.523 1.74-16.401.479-.677.941-1.181 1.243-1.49.717.442 1.325 1.781 2.152 1.326.829-.457 1.961-9.071 3.065-11.679.823-1.944 1.817-3.855 1.989-6.792.076-1.307.2-4.082-1.491-6.626-.26-.39-.847-1.206-2.485-2.486-.653-.508-1.979-1.524-7.455-3.975-1.869-.837-2.803-1.256-3.728-1.573-2.429-.839-4.525-1.199-6.212-1.409-4.282-.534-6.966-.241-9.319.052-2.491.31-4.613.621-7.867-.052-.604-.125-1.467-.329-2.509-.329-.588 0-1.234.065-1.923.246z" id="o"/><path d="M2.193.393L.04 14.309h12.423L10.475.062 2.193.393" id="q"/><path d="M.484.863c-.498 3.404.697 12.062.891 18.344-.035 1.126.092 3.032 1.324 4.639.557.724 1.671 1.823 4.142 2.484 3.991 1.067 15.772 2.13 31.641 2.65l11.098-5.3c3.542-3.731 5.328-7.824 4.036-9.839-1.66-2.588-8.202-1.421-12.318 1.059-3.543 2.134-5.329 5.264-6.129 6.958a142.263 142.263 0 01-11.927-2.982 140.947 140.947 0 01-10.272-3.479c.33-2.034.572-4.557.478-7.444-.095-2.917-.263-4.306-.73-6.329C10.085.883 6.791.497 4.129.497c-1.487 0-2.777.12-3.645.366z" id="s"/><path d="M.484.863c-.498 3.404.697 12.062.891 18.344-.035 1.126.092 3.032 1.324 4.639.557.724 1.671 1.823 4.142 2.484 3.991 1.067 15.772 2.13 31.641 2.65l11.098-5.3c3.542-3.731 5.328-7.824 4.036-9.839-1.66-2.588-8.202-1.421-12.318 1.059-3.543 2.134-5.329 5.264-6.129 6.958a142.263 142.263 0 01-11.927-2.982 140.947 140.947 0 01-10.272-3.479c.33-2.034.572-4.557.478-7.444-.095-2.917-.263-4.306-.73-6.329C10.085.883 6.791.497 4.129.497c-1.487 0-2.777.12-3.645.366z" id="u"/><path d="M57.887 2.561C44.714 3.752 31.54 4.933 18.348 5.897a.942.942 0 01-.12-.003c-.033-.002-.066-.004-.1-.004a.327.327 0 01-.029.283.333.333 0 01-.278.15h-.043l.041-.332c-1.202-.002-2.404-.015-3.604.001-3.214.045-7.034.033-9.738 2.056-1.756 1.313-2.582 3.294-2.875 5.418-.309 2.248-.225 4.546-.224 6.809 0 2.589.01 5.179.055 7.767.091 5.17.495 10.275.952 15.424.406 4.57-.453 8.899-1.138 13.397-.151.991-.673 2.725-.161 3.71.166.323.495.529.863.675.406.161.861.247 1.207.323 2.198.474 4.516.584 6.759.492 1.003-.041 2.044-.077 3.03-.291.292-.063.765-.132.921-.432.154-.295.072-.787-.029-1.233-.066-.286-.139-.552-.165-.731-.132-.952-.233-1.908-.244-2.868-.022-2.202.371-4.386.763-6.545.882-4.866 2.027-9.73 2.403-14.671.342-4.503.044-9.082-.71-13.529 0 0 .727.28 1.103.388 2.257.645 4.657.9 6.982 1.168 2.458.281 4.927.476 7.398.606 5.351.284 10.711.475 16.067.602 5.115.121 10.259.246 15.369-.071 2.832-.177 6.572-.226 8.823-2.258 2.054-1.855 2.237-5.542 2.02-8.085l-.253.034a4.19 4.19 0 01.204-.708c.129-.326.268-.641.338-.904.095-.346.18-.695.259-1.046C70.148 7.542 65.645 3.608 60.705.668c-.455.993-1.373 1.763-2.818 1.893" id="w"/><path d="M4.255 2.969c-.262.185-.25.553-.252 1.006 0 .225.02.489.057.798l-.019.155a17.893 17.893 0 00-.575 1.689c-.402 1.48-.617 3.031-.778 4.576-.149 1.411-.507 2.789-.591 4.121-.053.676.077 1.423-.239 2.221-.354.839-1 1.356-1.274 1.977a1.715 1.715 0 00-.165.69c0 .148.029.273.079.366a.482.482 0 00.251.218c.341.15.777.191.777.191.227.028.543.142.914.539 1.794 3.785 2.363 5.296 2.437 5.82.012.091.091.656.408 1.263.075.144.162.272.279.43.197.264.404.543.781.704.581.249 1.191.054 1.706-.108.735-.234.712-.427 1.136-.458.827-.061 1.493.631 1.696.84.555.576.734 1.238.797 1.573l.007.113c.007.272-.15.5-.296.619-.145.126-.283.207-.4.312a4.101 4.101 0 00-.58.624c-.422.57-.641 1.282-.825 2.027-.381 1.544-.791 3.115-1.109 4.656-.033.165-.095.42-.094.611a.412.412 0 00.041.188.33.33 0 01.24.424l-.006.016c3.323-2.15 6.644-4.596 10.188-6.302 1.115-.537 2.324-1.122 3.549-1.539.952-.503 1.934-.919 2.964-1.175-.004-.038-.012-.079-.012-.117.001-.073.006-.145.015-.228.023-.222.073-.39.078-.526.004-.088.008-.182.008-.28 0-.509-.068-1.143-.219-1.727-.148-.584-.387-1.114-.676-1.418-.194-.198-.368-.254-.683-.269l-.034-.001c-.079 0-.122.01-.221.012a.524.524 0 01-.286-.083.771.771 0 01-.195-.208c-.126-.195-.127-.368-.147-.539-.013-.167-.017-.33-.026-.394-.056-.479-.086-.96-.086-1.442a.33.33 0 01.433-.314l.066-.061c.149-.136.259-.462.33-.849.071-.386.095-.816.241-1.176C30.871 5.343 21.508.885 13.279.886c-3.853 0-7.458.978-9.024 2.083z" id="y"/><path d="M18.743 1.084c-1.225.415-2.775.768-3.89 1.304-3.542 1.707-5.872 5.632-9.195 7.782-1.421 4.338-6.433 7.729-4.459 17.828.672 3.449 1.479 6.86 1.775 10.412.079.94.15 1.904.15 2.871 0 .49-.018.982-.064 1.472-.102 1.059-.466 2.004-.657 2.947a28.164 28.164 0 00-.351 2.241c-.033.261-.367 3.306-.394 3.568.776.141 1.622-.374 2.465-.89.88-.537 1.755-1.074 2.546-.868 8.61 2.25 16.131 8.501 22.525 14.738.157-.704.276-1.415.306-2.12l.004-.204c.008-1.484-.716-2.781-1.058-4.391-.633-3.063 1.419 4.035-.143-21.952v-.027c.01-4.921 4.481-8.543-.32-22.448-.928-2.69-2.012-5.335-3.296-7.869a55.006 55.006 0 00-2.029-3.649c-.097-.16-.011-.624-.069-.745-.02-.042-.073-.002-.124.039-.051.041-.101.084-.106.031-.463.116-1.046.011-1.635-.092-.407-.072-.816-.143-1.19-.143-.292 0-.561.044-.791.165zM17.06 19.58l.037-.04c.051.051.127.157.211.32a1.571 1.571 0 01-.248-.28z" id="A"/><path id="C" d="M1 .5h.5V1H1z"/><path d="M3.385 4.97l-.447 17.382a8.845 8.845 0 01-.612 2.639L.279 30.273l3.079 4.754 8.722 3.961s3.329-.716 2.528-2.401c-.801-1.686-1.402-5.803-1.402-5.803.274-.74.732-1.461 1.235-2.062.287-.343.621-.557 1.065-.623.898-.135 1.879.087 2.765.191.701.083 1.475.241 2.179.082 1.219-.276 1.227-1.418 1.243-2.442.006-.336-.005-.709.188-1 .244-.371.557-.568.717-1.003.18-.488.124-.938.174-1.444.024-.247.1-.469.282-.641.2-.192.449-.267.55-.542.146-.404-.016-.86.097-1.271.221-.809 1.299-.484 1.886-.71.535-.206.457-.837.308-1.29-.302-.914-.846-1.777-1.291-2.626-.29-.556-.65-1.024-.668-1.664-.03-1.022.198-2.047.222-3.072a19.605 19.605 0 00-.215-3.328 19.956 19.956 0 00-.288-1.532l.049-.078L15.127.813 3.385 4.97z" id="c"/><path d="M11.573 47.28L.456 57.231c3.803-.211 2.044 5.708 9.793 5.717 10.943.011 14.396 6.788 15.828 2.294.432-1.357.781-2.845.762-4.279-.029-2.1-1.532-3.873-.905-5.962.451-1.51.52-3.109.555-4.677a58.718 58.718 0 00-.197-6.15c-.168-2.012-.417-4.012-.515-6.03-.079-1.599-.295-3.274-.034-4.87.306-1.864 1.037-3.641 1.404-5.498.327-1.658.485-3.352.427-5.043-.138-4.069-1.376-8.103-2.781-11.893-1.39-3.756-1.999-5.376-5.204-10.756L11.573 47.28z" id="G"/><path d="M11.882 7.961c-1.221 1.374-9.009 4.58-9.009 4.58l-2.441 6.26h10.075s14.811-2.443 14.811-5.039c0-2.595-1.374-4.122-1.528-5.495-.152-1.374-.61-7.024-.61-7.024L13.961.021s-.858 6.566-2.079 7.94z" id="I"/><path d="M11.287.687C8.385.911.764 12.705.764 12.705l-.256 2.64s-.825 2.749 0 8.244c.826 5.497.32 2.52.105 4.353-.216 1.831 3.421 20.611 4.566 21.527 1.146.916 3.436 17.176 3.436 19.467 0 2.29 2.977 4.122 3.206 6.183.228 2.062 2.29 8.932 2.977 11.91.687 2.977 0 22.444 0 22.444s8.016 2.289 10.077 2.289 6.906-1.375 6.906-1.375-.723-19.923-1.409-30.688c-.687-10.763-5.039-16.413-5.039-16.413s-.458-10.076-.458-12.061c0-1.985 2.901-13.13 3.207-19.696.305-6.565 3.205-12.215 3.663-15.726.459-3.511-3.663-12.672-3.663-12.672S15.277.674 11.686.674c-.149 0-.283.004-.399.013" id="K"/><path d="M11.287.687C8.385.911.764 12.705.764 12.705l-.256 2.64s-.825 2.749 0 8.244c.826 5.497.32 2.52.105 4.353-.216 1.831 3.421 20.611 4.566 21.527 1.146.916 3.436 17.176 3.436 19.467 0 2.29 2.977 4.122 3.206 6.183.228 2.062 2.29 8.932 2.977 11.91.687 2.977 0 22.444 0 22.444s8.016 2.289 10.077 2.289 6.906-1.375 6.906-1.375-.723-19.923-1.409-30.688c-.687-10.763-5.039-16.413-5.039-16.413s-.458-10.076-.458-12.061c0-1.985 2.901-13.13 3.207-19.696.305-6.565 3.205-12.215 3.663-15.726.459-3.511-3.663-12.672-3.663-12.672S15.277.674 11.686.674c-.149 0-.283.004-.399.013" id="M"/><path d="M11.287.687C8.385.911.764 12.705.764 12.705l-.256 2.64s-.825 2.749 0 8.244c.826 5.497.32 2.52.105 4.353-.216 1.831 3.421 20.611 4.566 21.527 1.146.916 3.436 17.176 3.436 19.467 0 2.29 2.977 4.122 3.206 6.183.228 2.062 2.29 8.932 2.977 11.91.687 2.977 0 22.444 0 22.444s8.016 2.289 10.077 2.289 6.906-1.375 6.906-1.375-.723-19.923-1.409-30.688c-.687-10.763-5.039-16.413-5.039-16.413s-.458-10.076-.458-12.061c0-1.985 2.901-13.13 3.207-19.696.305-6.565 3.205-12.215 3.663-15.726.459-3.511-3.663-12.672-3.663-12.672S15.277.674 11.686.674c-.149 0-.283.004-.399.013" id="O"/><path d="M6.722 5.643c2.922 2.864 2.27 6.542.834 8.802-.915 1.442-1.424 2.536-1.836 3-.144.164-.449.51-.807.813-.492.418-1.616.807-4.43 1.961 2.156-.884 4.791 1.334 5.869 3.687 1.11 2.421-.084 4.456.776 5.204 1.01.88 4.433-.382 14.212-8.453a109.986 109.986 0 01-2.548-2.989c-.661-.803-1.102-1.362-1.421-2.233a5.986 5.986 0 01-.358-1.858 4.823 4.823 0 01-.889-.994c-.581-.872-.71-1.7-.774-1.993-.186-.86-.876-2.056-3.129-3.479.049-.353.471-3.808-1.613-5.583a4.785 4.785 0 00-1.87-.935A3.941 3.941 0 007.756.46c-2.567 0-3.211 3.049-1.034 5.183z" id="Q"/><path d="M14.569 1.609s5.038 14.429 5.955 16.49c.916 2.061 3.206 3.206 3.664 5.038.458 1.833-14.199 25.345-14.963 25.955-.763.611-5.649.306-6.565.306-.916 0-2.367 1.756-1.984 2.901.215.649 1.091.564 1.853.478.584-.066 1.1-.131 1.2.133.229.61-.458 2.596-.382 3.282.076.688 4.504 6.108 5.573 5.726 1.069-.382 4.657-3.13 4.885-4.122.229-.993.229-5.726 1.452-6.642 1.22-.916 15.343-15.878 15.343-15.878s5.726-6.986 6.413-8.588c.687-1.604-1.374-4.925-1.374-4.925L28.998.235 14.569 1.609z" id="S"/><path d="M10.014 1.621c-.858 1.174-1.401 2.61-1.952 3.943a84.104 84.104 0 00-1.902 5.113c-1.177 3.48-2.166 7.03-2.868 10.635C1.786 29.053 1.483 36.948.998 44.8.769 48.501.504 52.197.249 55.897c-.196 2.812-.033 5.747 1.136 8.358.382.851 1.113 2.225 2.256 1.841.575-.191 1.054-.729 1.455-1.154.986-1.048 1.871-2.162 3.047-3.007 2.65-1.905 6.122-2.731 9.225-3.571 3.609-.979 7.292-1.499 10.914-2.375a21.34 21.34 0 002.263-.693c.633-5.987 1.246-11.975 2.04-17.932.805-6.053.587-12.425-1.177-18.359-.904-3.041-2.202-5.989-3.905-8.668-1.778-2.798-4.263-5.315-6.31-7.953L11.381.27l-1.367 1.351z" id="U"/><path d="M.391 3.845c.282 2.447 1.117 4.873 2.099 7.123.488 1.118 1.106 2.158 1.997 3.003 1.499 1.424 3.475 2.325 5.338 3.16 6.506 2.912 4.198 2.064 8.386 3.46 8.308 2.769 18.215 4.834 20.902 5.381 3.002 3.16 5.427 3.832 6.367 4.016.439.087 1.739.356 3.35.412.297.011.594.011.893.01.659 0 1.319 0 1.97.113 1.441.248 2.702 1.068 4.11 1.433 1.258.327 2.781-.057 2.991-1.554.099-.704-.299-1.299-.77-1.783-2.212-2.271-4.927-3.393-5.238-3.496a271.618 271.618 0 00-11.504-3.569c-7.795-5.214-13.489-8.335-17.841-10.351-2.242-1.039-6.812-2.9-9.938-7.604-.618-.929-1.195-1.887-1.672-2.899L.391 3.845z" id="W"/><path d="M19.761.426c-.91.019-1.152.846-1.415 1.595-.452 1.288-.839 2.319-1.835 3.285-.86.835-1.645 1.522-1.882 2.744-.08.404.274 4.799-1.338 3.717-.8-.538-.732-2.391-.874-3.15-.193-1.054-.748-1.595-1.498-2.33-.965-.945-1.15-2.744-2.949-2.264-2.373.635-1.227 3.46-.829 4.979.253.966.598 2.202 1.37 2.898.586.528 1.278.382 1.953.105-.028.042-.073.109-.12.197-.449.859.073 1.681.093 2.42.034 1.229-1.325 2.201-1.96 2.656-1.674 1.201-3.513 1.064-4.057 1.003a5.412 5.412 0 01-1.707 1.545 5.427 5.427 0 01-2.537.713l12.966 6.029a7.32 7.32 0 011.932-2.731c1.096-.96 2.491-1.243 3.85-1.661.887-.273 1.716-.546 1.78-1.577.007-.089 1.201-6.876 1.276-6.965.342-.41 1.129-.341 1.585-.503 2.571-.912-.808-4.585-1.42-5.55-.538-.848-.129-1.362-.144-2.303-.01-.575-.314-1.083-.516-1.605-.236-.616-.268-1.222-.299-1.877a15.55 15.55 0 00-.131-1.293c-.469.249-.541.143-.739.038-.108-.058-.254-.115-.524-.115h-.031z" id="Y"/><path d="M22.372.227S12.591 4.792 9.003 9.845c-3.586 5.054-4.89 4.565-6.521 6.684-1.63 2.12-1.956 3.751-.815 6.359 1.142 2.608 1.794 47.93 1.794 47.93v6.195s3.79-1.141 5.584-.978c1.792.163 6.643.978 8.436 1.304 1.793.326 1.141-5.543 1.141-5.543l1.467-4.727s1.305-30.814 2.283-33.422c.978-2.608 9.129-7.174 9.129-7.174s0-1.303 8.804 0c4.045.601 8.021.029 11.327-.541 3.889-.672 6.852-1.343 7.911-.109 1.955 2.281 2.282 13.694 2.282 19.889 0 6.194.653 10.433 0 14.021-.652 3.585 1.304 13.042 1.631 14.346.326 1.304.217 2.822.217 2.822s1.739-1.192 4.999-1.192c3.261 0 8.804-.326 8.804-.326s-2.282-7.499 0-12.391c2.282-4.891 3.261-23.149 3.261-28.367 0-5.217 2.282-15.325 0-19.237C78.453 11.476 56.608.227 56.608.227" id="aa"/><path d="M22.372.227S12.591 4.792 9.003 9.845c-3.586 5.054-4.89 4.565-6.521 6.684-1.63 2.12-1.956 3.751-.815 6.359 1.142 2.608 1.794 47.93 1.794 47.93v6.195s3.79-1.141 5.584-.978c1.792.163 6.643.978 8.436 1.304 1.793.326 1.141-5.543 1.141-5.543l1.467-4.727s1.305-30.814 2.283-33.422c.978-2.608 9.129-7.174 9.129-7.174s0-1.303 8.804 0c4.045.601 8.021.029 11.327-.541 3.889-.672 6.852-1.343 7.911-.109 1.955 2.281 2.282 13.694 2.282 19.889 0 6.194.653 10.433 0 14.021-.652 3.585 1.304 13.042 1.631 14.346.326 1.304.217 2.822.217 2.822s1.739-1.192 4.999-1.192c3.261 0 8.804-.326 8.804-.326s-2.282-7.499 0-12.391c2.282-4.891 3.261-23.149 3.261-28.367 0-5.217 2.282-15.325 0-19.237C78.453 11.476 56.608.227 56.608.227" id="ac"/><path d="M22.372.227S12.591 4.792 9.003 9.845c-3.586 5.054-4.89 4.565-6.521 6.684-1.63 2.12-1.956 3.751-.815 6.359 1.142 2.608 1.794 47.93 1.794 47.93v6.195s3.79-1.141 5.584-.978c1.792.163 6.643.978 8.436 1.304 1.793.326 1.141-5.543 1.141-5.543l1.467-4.727s1.305-30.814 2.283-33.422c.978-2.608 9.129-7.174 9.129-7.174s0-1.303 8.804 0c4.045.601 8.021.029 11.327-.541 3.889-.672 6.852-1.343 7.911-.109 1.955 2.281 2.282 13.694 2.282 19.889 0 6.194.653 10.433 0 14.021-.652 3.585 1.304 13.042 1.631 14.346.326 1.304.217 2.822.217 2.822s1.739-1.192 4.999-1.192c3.261 0 8.804-.326 8.804-.326s-2.282-7.499 0-12.391c2.282-4.891 3.261-23.149 3.261-28.367 0-5.217 2.282-15.325 0-19.237C78.453 11.476 56.608.227 56.608.227" id="ae"/><path d="M22.372.227S12.591 4.792 9.003 9.845c-3.586 5.054-4.89 4.565-6.521 6.684-1.63 2.12-1.956 3.751-.815 6.359 1.142 2.608 1.794 47.93 1.794 47.93v6.195s3.79-1.141 5.584-.978c1.792.163 6.643.978 8.436 1.304 1.793.326 1.141-5.543 1.141-5.543l1.467-4.727s1.305-30.814 2.283-33.422c.978-2.608 9.129-7.174 9.129-7.174s0-1.303 8.804 0c4.045.601 8.021.029 11.327-.541 3.889-.672 6.852-1.343 7.911-.109 1.955 2.281 2.282 13.694 2.282 19.889 0 6.194.653 10.433 0 14.021-.652 3.585 1.304 13.042 1.631 14.346.326 1.304.217 2.822.217 2.822s1.739-1.192 4.999-1.192c3.261 0 8.804-.326 8.804-.326s-2.282-7.499 0-12.391c2.282-4.891 3.261-23.149 3.261-28.367 0-5.217 2.282-15.325 0-19.237C78.453 11.476 56.608.227 56.608.227" id="ag"/><path d="M28.664.759C18.962 4.686 7.178 7.486 4.307 18.762c-.706 2.766-1.068 5.614-1.816 8.37-.512 1.894-2.504 4.942-1.568 6.907 1.261 2.651 7.863 3.453 10.379 3.645l-1.891 2.79 19.253 25.414 22.498-5.379 13.042-24.78 4.077-1.223s2.445.244 2.445-1.061c-.001-3.177-1.402-6.777-2.115-9.842-1.049-4.505-1.484-10.23-3.51-14.344-2.34-4.757-8.42-4.934-13.02-6.048A929.113 929.113 0 0041.707.759H28.664z" id="ai"/></defs><g fill="none" fill-rule="evenodd"><path d="M235.496 7.348c16.34-.008 33.114 1.023 51.282 3.153 15.13 1.775 30.868 4.271 48.117 7.632 37.39 7.289 85.64 19.114 127.193 46.086a206.09 206.09 0 0119.515 14.361c32.859 27.32 54.162 62.503 59.984 99.067 1.959 12.293 2.003 24.958.134 37.644-4.234 28.725-17.613 54.322-37.673 72.073-7.082 6.269-14.91 11.435-23.264 15.361-14.441 6.78-30.703 10.223-48.338 10.231-23.307.012-49.07-5.791-78.762-17.746-8.343-3.36-16.704-6.99-24.786-10.5-20.23-8.788-39.338-17.088-59.197-21.971-8.635-2.125-16.673-3.417-24.573-3.952-2.34-.157-4.722-.237-7.074-.236-28.108.016-56.957 11.553-81.226 32.486-3.511 3.03-7.053 6.322-10.476 9.508-15.517 14.431-31.56 29.357-53.943 29.368-10.784.006-21.43-3.489-32.55-10.684a105.53 105.53 0 01-22.107-19.163c-17.927-20.51-28.786-48.576-31.4-81.166-3.436-42.832 7.924-89.158 29.647-120.894 7.45-10.882 16.312-21.099 26.341-30.367 29.097-26.88 69.02-46.315 112.415-54.723 19.022-3.683 39.458-5.557 60.737-5.568h.004z" stroke="#7547D8" stroke-width="2"/><path d="M190.679 378.787c-14.154-8.163-28.166-17.443-42.835-28.372-12.215-9.102-24.597-19.133-37.854-30.668-28.737-25.007-64.61-59.373-87.11-103.508a206.09 206.09 0 01-9.72-22.194c-14.796-40.089-15.654-81.21-2.414-115.787 4.45-11.625 10.744-22.616 18.706-32.667C47.482 22.831 71.866 7.353 98.114 2.01c9.268-1.888 18.63-2.448 27.828-1.671 15.897 1.348 31.7 6.498 46.977 15.308 20.19 11.644 39.6 29.55 59.337 54.75 5.546 7.081 10.971 14.405 16.215 21.486 13.126 17.726 25.524 34.468 40.28 48.626 6.417 6.158 12.732 11.296 19.306 15.71a105.154 105.154 0 006.009 3.74c24.35 14.041 55.102 18.474 86.586 12.48 4.556-.868 9.269-1.949 13.827-2.996 20.653-4.74 42.01-9.644 61.4 1.538 9.342 5.387 16.814 13.737 22.846 25.528a105.53 105.53 0 019.565 27.648c5.27 26.727.64 56.462-13.39 85.993-18.441 38.811-51.442 73.25-86.123 89.873-11.892 5.7-24.675 10.117-37.995 13.128-38.639 8.731-82.93 5.6-124.715-8.816-18.316-6.32-36.95-14.916-55.385-25.546l-.003-.002z" fill="#E1E2F2"/><g><path d="M483.07 284.572l-.338.163c-3.514 1.68-5.38 1.398-8.804-.183-3.153-1.454-6.212-3.181-8.824-5.49-3.307-2.922-5.873-6.871-6.407-11.251-.12-.983-.114-2.06.47-2.86.8-1.098 2.445-1.261 3.713-.771 1.268.49 2.266 1.479 3.276 2.39.429.387.887.774 1.444.926.558.15 1.24-.008 1.527-.51.456-.803-.326-1.726-1.035-2.318-1.642-1.368-3.182-2.16-4.905-3.372-2.163-1.523-4.166-3.384-5.352-5.747-1.187-2.365-1.453-5.296-.218-7.634.376-.711.892-1.364 1.572-1.793 1.206-.762 2.755-.723 4.15-.424 1.394.298 2.743.829 4.16.977 3.356.349 4.674-2.011 4.607-5.1-.045-2.068-.713-4.08-.833-6.147-.21-3.638 1.586-7.515 4.882-9.072 3.296-1.556 7.899-.066 9.079 3.383 1.28 3.748-1.644 7.957.29 11.539.633 1.168 2.06 2.774 3.175 3.465 1.84 1.138 4.488-.2 6.632-.102.475.022.992.088 1.326.428.246.25.346.609.413.955.505 2.606-.437 5.444-2.398 7.23-2.217 2.018-6.063 3.047-7.006 6.208-.586 1.963-.332 6.855 2.79 6.359 1.173-.186 1.957-1.345 3.08-1.726 1.39-.47 2.984.453 3.606 1.782.622 1.33.438 2.916-.103 4.28-.855 2.154-2.502 3.88-4.112 5.55-3.313 3.435-5.488 6.71-9.857 8.865" fill="#EE5F43"/><path d="M478.425 238.952V366.5M487.268 252.164l-8.843 8.844-8.844-8.844M487.268 269.927l-8.843 8.844-8.844-8.844" stroke="#363A69" stroke-width="1.221" stroke-linecap="round"/><path d="M496.878 338.425c-.1.05-.2.099-.301.147-3.15 1.506-4.824 1.254-7.892-.163-2.827-1.304-5.569-2.853-7.91-4.921-2.963-2.62-5.264-6.16-5.743-10.085-.107-.882-.101-1.848.422-2.564.719-.984 2.19-1.131 3.327-.691 1.137.439 2.031 1.325 2.936 2.141.386.347.796.695 1.296.83s1.112-.007 1.368-.457c.409-.718-.291-1.548-.927-2.077-1.471-1.226-2.853-1.936-4.397-3.023-1.939-1.366-3.735-3.033-4.798-5.152-1.064-2.118-1.303-4.747-.195-6.842.337-.637.8-1.223 1.41-1.608 1.08-.681 2.468-.647 3.719-.38 1.25.269 2.458.744 3.73.877 3.007.313 4.188-1.803 4.128-4.57-.04-1.856-.64-3.658-.745-5.511-.19-3.262 1.42-6.737 4.375-8.132 2.954-1.395 7.08-.059 8.137 3.033 1.149 3.359-1.474 7.131.262 10.342.566 1.047 1.845 2.488 2.845 3.106 1.649 1.019 4.022-.18 5.942-.091.428.02.892.078 1.19.383.22.225.31.547.37.857.453 2.334-.392 4.878-2.15 6.48-1.986 1.809-5.433 2.732-6.28 5.564-.524 1.759-.297 6.145 2.503 5.7 1.05-.168 1.753-1.206 2.76-1.547 1.247-.421 2.675.406 3.233 1.597.558 1.193.392 2.613-.094 3.837-.765 1.931-2.243 3.479-3.685 4.975-2.97 3.079-4.918 6.014-8.836 7.945" fill="#3CA3A4"/><path d="M492.716 297.535v68.172M500.642 309.378l-7.927 7.927-7.927-7.927M500.642 325.3l-7.927 7.926-7.927-7.927" stroke="#363A69" stroke-width="1.221" stroke-linecap="round"/><path d="M41.987 352.305l-.402.194c-4.19 2.003-6.413 1.668-10.494-.215-3.758-1.735-7.404-3.794-10.517-6.545-3.942-3.482-7-8.19-7.637-13.411-.143-1.171-.136-2.455.56-3.408.956-1.31 2.914-1.503 4.426-.92 1.51.585 2.7 1.763 3.904 2.849.51.46 1.057.924 1.722 1.103.665.18 1.478-.008 1.819-.607.544-.957-.388-2.06-1.234-2.763-1.956-1.631-3.793-2.574-5.845-4.02-2.577-1.815-4.965-4.032-6.38-6.85-1.414-2.816-1.732-6.311-.26-9.097.449-.848 1.065-1.626 1.875-2.138 1.438-.907 3.283-.86 4.945-.505 1.663.356 3.269.989 4.96 1.165 3.998.416 5.57-2.397 5.49-6.077-.053-2.466-.85-4.864-.993-7.327-.25-4.337 1.89-8.958 5.819-10.814 3.928-1.854 9.415-.078 10.82 4.032 1.527 4.468-1.96 9.485.348 13.753.752 1.393 2.453 3.307 3.782 4.13 2.193 1.356 5.35-.238 7.904-.122.567.027 1.184.106 1.58.51.295.3.413.728.494 1.14.6 3.104-.521 6.487-2.86 8.616-2.641 2.406-7.225 3.633-8.35 7.399-.698 2.339-.395 8.17 3.328 7.579 1.396-.222 2.332-1.602 3.67-2.056 1.658-.561 3.556.539 4.297 2.124.743 1.584.522 3.474-.123 5.1-1.018 2.568-2.982 4.626-4.9 6.615-3.95 4.094-6.541 7.998-11.748 10.566" fill="#F8AD26"/><path d="M36.45 297.933v68.724M46.99 313.68l-10.54 10.54-10.54-10.54M46.99 334.85l-10.54 10.54-10.54-10.54" stroke="#363A69" stroke-width="1.541" stroke-linecap="round"/><path d="M553.507 321.022c-2.279-1.585-5.23-3.18-8.857-4.542-3.636-1.365-7.919-2.478-12.852-3.402-8.27-1.551-20.288-2.375-20.27-4.16.01-.831 2.888-1.768 7.034-2.46 4.133-.69 9.617-1.014 14.503-.422 5.605.677 10.6 2.557 14.392 5.026 3.812 2.48 6.38 5.48 7.877 8.066l-1.827 1.894z" fill="#3CA3A4"/><path d="M554.337 319.94c-4.577-4.966-11.163-8.075-18.004-9.633-6.892-1.57-14.1-1.672-21.166-1.546M524.516 308.831l-2.092-1.777M527.032 308.978a75.983 75.983 0 00-1.864 2.132M532.47 309.578a59.61 59.61 0 00-1.26-2.206M536.334 310.307a47.7 47.7 0 00-2.757 1.842M540.536 311.479a45.782 45.782 0 00-1.464-3.023M546.956 314.253c-.836.182-1.636.355-2.436.594" stroke="#148B7A" stroke-width=".411" stroke-linecap="round" stroke-linejoin="round"/><path d="M558.182 321.911c-2.069-1.418-4.139-3.278-6.082-5.384-1.943-2.103-3.786-4.442-5.626-6.71-1.854-2.287-3.674-4.373-5.922-6.496-2.23-2.106-4.773-4.179-7.622-6.237-4.776-3.452-11.045-6.994-16.186-9.727-5.14-2.73-8.99-4.88-8.637-6.077.332-1.126 4.793-1.292 10.876-.163a60.956 60.956 0 019.928 2.725c3.452 1.277 6.917 2.942 9.98 4.874 3.51 2.215 6.59 4.841 9.118 7.67 2.528 2.827 4.471 5.921 5.86 8.713 1.4 2.815 2.48 5.393 3.54 7.727 1.058 2.337 2.12 4.423 3.282 6.26l-2.509 2.825z" fill="#3CA3A4"/><path d="M559.295 320.285c-3.817-3.877-6.303-8.42-9.01-12.635a80.574 80.574 0 00-2.106-3.108c-.723-1.019-1.544-1.954-2.324-2.938-1.674-1.855-3.45-3.656-5.4-5.27-3.908-3.234-8.28-5.932-12.886-8.168-4.607-2.237-9.447-4.02-14.354-5.528M525.87 287.38a72.194 72.194 0 00-1.882-3.492M529.143 288.96c-1.245.582-2.443 1.151-3.64 1.798M535.934 292.946a53.982 53.982 0 00-.318-3.646M540.455 296.334c-1.576.1-3.184.366-4.687.611M544.981 300.65c.156-1.586.24-3.216.214-4.836M550.97 308.728a73.27 73.27 0 00-3.486-1.057" stroke="#148B7A" stroke-width=".59" stroke-linecap="round" stroke-linejoin="round"/><path d="M555.798 318.622c-1.019-6.163-2.326-14.979-3.128-25.665-.337-4.496-.688-9.758-.851-13.963-.162-4.199-.087-7.35.774-7.537.833-.182 2.404 2.587 3.896 6.658 1.49 4.068 2.846 9.438 3.522 14.243 1.557 11.063.07 20.26-1.505 26.216l-2.708.048z" fill="#3CA3A4"/><path d="M557.191 318.433a172.876 172.876 0 00-3.691-43.316M555.25 284.581l1.384-2.458M555.632 287.139c-.84-.487-1.687-.965-2.543-1.432M556.33 292.713l1.879-1.805M556.718 296.74c-.878-.748-1.744-1.487-2.638-2.21M557.045 301.235l2.38-2.477M557.313 308.517l-1.729-1.983" stroke="#148B7A" stroke-width=".423" stroke-linecap="round" stroke-linejoin="round"/><path d="M558.975 320.465c.341-6.5 1.444-15.949 4.91-26.7 2.911-9.035 8.131-20.529 9.835-19.95 1.674.57-.266 12.831-2.623 22.243a117.185 117.185 0 01-9.393 24.947l-2.729-.54z" fill="#3CA3A4"/><path d="M560.417 320.576a1036.397 1036.397 0 0112.25-43.07M569.822 286.906l2.37-1.63M569.07 289.443l-1.751-2.44M567.458 294.968l2.49-.96M566.314 298.961l-1.699-3.119M565.055 303.421l3.152-1.57M563.06 310.662l-1.119-2.482" stroke="#148B7A" stroke-width=".434" stroke-linecap="round" stroke-linejoin="round"/><path d="M553.199 325.05c1.722-3.35 4.907-6.814 8.868-9.717 3.947-2.892 8.863-5.61 14.6-7.403a53.464 53.464 0 017.678-1.759c2.615-.402 5.224-.531 7.362-.589 2.157-.058 3.984-.215 5.383-.41 1.386-.193 2.338-.36 2.596.029.239.361-.258 1.326-1.54 2.396-1.281 1.07-3.313 2.115-5.527 2.874-2.247.77-4.525 1.508-6.76 2.27-2.318.792-4.664 1.68-6.853 2.538a292.894 292.894 0 00-13.607 5.728c-4.011 1.808-7.35 3.588-9.877 5.668l-2.323-1.625z" fill="#3CA3A4"/><path d="M554.506 325.738c2.547-3.18 5.776-5.498 9.06-7.476a75.903 75.903 0 0110.237-5.142 77.199 77.199 0 0110.792-3.531 80.51 80.51 0 015.531-1.149c1.869-.327 3.793-.649 5.729-1.284M585.935 309.269c.875.442 1.728.87 2.571 1.342M583.337 309.91c.394-.942.81-1.874 1.249-2.806M577.755 311.613c.755.505 1.5 1.02 2.229 1.538M573.803 313.12c.47-1.117.98-2.214 1.514-3.325M569.485 315.056c1.109.436 2.213.918 3.282 1.397M562.732 318.773c.304-.88.627-1.767.973-2.64" stroke="#148B7A" stroke-width=".443" stroke-linecap="round" stroke-linejoin="round"/><path d="M557.05 366.689h-5.117c-8.948 0-16.203-7.254-16.203-16.203v-27.282a7 7 0 017.001-7.002h25.922a7.402 7.402 0 017.401 7.4v24.083c0 10.496-8.509 19.004-19.004 19.004" fill="#EE5E43"/><path d="M542.287 353.411v-31.473a5.736 5.736 0 015.737-5.737h-6.556a5.737 5.737 0 00-5.738 5.737v31.473c0 7.333 5.945 13.277 13.278 13.277h6.556c-7.333 0-13.277-5.944-13.277-13.277" fill="#C4422B"/><path d="M577.07 323.531H533.87a3.005 3.005 0 01-3.004-3.005v-3.2a3.004 3.004 0 013.004-3.005h43.202a3.004 3.004 0 013.004 3.005v3.2a3.005 3.005 0 01-3.004 3.005" fill="#EE5E43"/><path d="M455.435 216.591H327.05a8.27 8.27 0 01-8.27-8.27v-87.702a8.271 8.271 0 018.27-8.272h128.385a8.271 8.271 0 018.271 8.272v87.701a8.27 8.27 0 01-8.27 8.271" fill="#BEC6C4"/><path d="M452.117 214.304H330.369a8.272 8.272 0 01-8.272-8.271v-83.127a8.273 8.273 0 018.272-8.272h121.748a8.272 8.272 0 018.27 8.272v83.127a8.27 8.27 0 01-8.27 8.271" fill="#FEFEFE"/><path d="M382.335 188.281h27.392M382.335 192.257h27.392M382.335 196.234h27.392M382.335 200.21h27.392M382.335 204.186h10.623" stroke="#BACCC6" stroke-width="1.428" stroke-linecap="round" stroke-linejoin="round"/><path d="M359.441 133.827h39.104M359.441 139.504h39.104M359.441 145.18h39.104M359.441 150.857h39.104M359.441 156.533h15.166" stroke="#BACCC6" stroke-width="2.038" stroke-linecap="round" stroke-linejoin="round"/><path d="M416.636 146.69h3.66c.074-.345.116-.702.116-1.07v-8.174h-9.56v13.185h4.55a4.98 4.98 0 001.234-.16v-3.78z" fill="#38AAE3"/><path d="M416.636 150.47a5.01 5.01 0 003.66-3.78h-3.66v3.78z" fill="#0254A9"/><path d="M433.334 184.224h7.854c.162-.741.252-1.51.252-2.3v-17.546h-20.522v28.303h9.765c.917 0 1.8-.127 2.65-.343v-8.114z" fill="#FABB49"/><path d="M433.334 192.338a10.759 10.759 0 007.854-8.114h-7.854v8.114z" fill="#D38309"/><path d="M439.416 143.14h7.854c.162-.742.252-1.51.252-2.3v-17.546H427v28.302h9.765c.917 0 1.8-.126 2.65-.342v-8.114z" fill="#FABB49"/><path d="M439.416 151.254a10.762 10.762 0 007.854-8.114h-7.854v8.114z" fill="#D38309"/><path d="M557.525 116.528h-55.833l-14.985 9.734V84.925c0-8.307 7.723-15.041 17.252-15.041h53.566c9.527 0 17.251 6.734 17.251 15.04v16.563c0 8.307-7.724 15.04-17.251 15.04" fill="#13B5A0"/><path d="M556.079 86.396H504.17a1.445 1.445 0 01-1.446-1.446v-2.262c0-.8.647-1.446 1.446-1.446h51.908c.799 0 1.446.647 1.446 1.446v2.262c0 .799-.647 1.446-1.446 1.446M556.079 95.707H504.17a1.445 1.445 0 01-1.446-1.446V92c0-.798.647-1.445 1.446-1.445h51.908c.799 0 1.446.647 1.446 1.445v2.262c0 .8-.647 1.446-1.446 1.446M534.248 105.009H504.17a1.445 1.445 0 01-1.446-1.446V101.3c0-.798.647-1.446 1.446-1.446h30.077c.799 0 1.446.648 1.446 1.446v2.262c0 .799-.647 1.446-1.446 1.446" fill="#148A77"/><path d="M103.718 132.878h30.944l16.878 10.963V97.283c0-9.356-8.699-16.94-19.43-16.94h-28.392c-10.73 0-19.43 7.584-19.43 16.94v18.654c0 9.356 8.7 16.941 19.43 16.941" fill="#13B5A0"/><path d="M115.191 111.556l-1.054-21.69h7.566l-1.054 21.69h-5.458zm2.633 11.108c-2.489 0-4.213-1.867-4.213-4.357 0-2.585 1.771-4.356 4.309-4.356 2.538 0 4.213 1.77 4.261 4.356 0 2.49-1.676 4.357-4.261 4.357h-.096z" fill="#FEFEFE"/><g transform="translate(320 45.8)"><mask id="b" fill="#fff"><use xlink:href="#a"/></mask><path d="M48.153 52.736H17.21L.332 63.699V17.14C.332 7.785 9.031.2 19.762.2h28.391c10.731 0 19.431 7.585 19.431 16.94v18.655c0 9.356-8.7 16.94-19.431 16.94" fill="#4385F4" mask="url(#b)"/></g><path d="M346.014 71.076c-3.638 0-6.395 2.766-6.388 6.404.007 3.605 2.763 6.368 6.36 6.376 3.627.009 6.428-2.773 6.424-6.38-.003-3.64-2.762-6.401-6.396-6.4m-7.312 16.787c.011-.11.003-.157.021-.191.93-1.84-.59-2.728-1.495-3.855-.149-.185-.366-.174-.573-.154-.288.029-.574.08-.862.104-1.129.09-1.133.09-1.6-.926a14.188 14.188 0 01-.85-2.46c-.1-.398-.063-.725.331-.876 1.384-.53 1.567-1.61 1.613-2.936.032-.873-.186-1.395-.873-1.82-.21-.13-.382-.316-.584-.461-.257-.185-.302-.41-.207-.704a13.772 13.772 0 011.466-3.14c.173-.272.404-.388.677-.273 1.412.595 2.401.036 3.37-1.007.482-.52.734-.903.621-1.633-.222-1.428-.17-1.441 1.183-2.03.703-.305 1.435-.524 2.178-.716.377-.096.665-.043.831.315.535 1.147 1.344 1.636 2.684 1.618.975-.013 1.652-.123 2.22-.973.594-.888.66-.843 1.67-.46.795.302 1.545.69 2.288 1.104.453.25.656.566.468 1.049-.44 1.124-.099 1.912.713 2.824.781.876 1.522 1.15 2.555.87.616-.168.905.093 1.143.617.422.926.777 1.869 1.006 2.862.081.35.057.642-.29.776-1.429.549-1.663 1.645-1.657 3.038.004.806.147 1.325.822 1.717.212.124.381.319.585.459.277.192.353.42.246.746a14.367 14.367 0 01-1.424 3.092c-.198.319-.463.44-.78.313-1.298-.52-2.173-.042-3.184.869-.87.783-.81 1.526-.655 2.4.104.588-.103.874-.604 1.106-.923.428-1.865.78-2.858 1.01-.376.088-.678.059-.829-.31-.562-1.362-1.61-1.575-2.986-1.653-1.055-.06-1.426.464-1.922 1.074-.622.766-.618.76-1.532.433-.9-.322-1.752-.74-2.56-1.247-.235-.147-.482-.291-.366-.571M365.067 59.947c-2.731.001-4.803 2.077-4.798 4.81.006 2.707 2.075 4.782 4.777 4.79 2.724.004 4.828-2.084 4.825-4.793-.003-2.734-2.075-4.807-4.804-4.807m-5.491 12.607c.008-.082.002-.117.015-.143.699-1.38-.444-2.049-1.123-2.895-.111-.139-.275-.13-.43-.115-.216.021-.431.062-.648.079-.846.066-.85.066-1.201-.698a10.745 10.745 0 01-.639-1.845c-.076-.3-.046-.546.249-.659 1.039-.399 1.177-1.209 1.212-2.206.024-.655-.14-1.047-.656-1.367-.157-.097-.287-.237-.438-.345-.194-.14-.227-.308-.156-.529.269-.833.634-1.618 1.102-2.358.129-.205.304-.292.508-.206 1.06.447 1.803.028 2.531-.756.361-.39.551-.678.466-1.227-.166-1.07-.128-1.082.888-1.524.528-.23 1.078-.394 1.636-.537.283-.073.499-.033.624.236.402.862 1.01 1.23 2.016 1.216.732-.01 1.24-.093 1.667-.73.446-.668.495-.635 1.254-.347.597.226 1.161.518 1.718.83.34.188.493.424.351.787-.329.844-.073 1.436.536 2.121.587.658 1.144.864 1.919.653.463-.126.679.07.859.464.317.695.584 1.403.755 2.15.061.262.043.481-.218.582-1.073.412-1.248 1.235-1.243 2.281.002.607.11.997.616 1.29.16.093.287.24.439.345.209.144.266.316.186.56a10.744 10.744 0 01-1.071 2.322c-.148.24-.346.33-.586.235-.973-.39-1.63-.03-2.39.652-.653.59-.609 1.147-.492 1.804.078.441-.078.655-.453.83-.694.321-1.402.586-2.147.76-.283.064-.51.042-.623-.234-.422-1.024-1.209-1.184-2.241-1.242-.793-.045-1.072.35-1.444.806-.467.576-.464.571-1.151.326a9.858 9.858 0 01-1.923-.937c-.176-.11-.361-.218-.274-.429" fill="#FEFEFE"/><path d="M265.992 150.609h-30.944l-16.878 10.963v-46.558c0-9.357 8.699-16.941 19.43-16.941h28.392c10.73 0 19.43 7.584 19.43 16.94v18.655c0 9.356-8.7 16.94-19.43 16.94" fill="#4385F4"/><path fill="#FAAE26" d="M251.796 106.961l5.202 10.541 11.632 1.69-8.416 8.206 1.986 11.585-10.404-5.47-10.404 5.47 1.987-11.585-8.418-8.206 11.632-1.69z"/><path d="M170.106 200.18c.815-.905 1.24-1.937 1.287-3.16.037-.928-.137-1.857-.6-2.67-.5-.877-1.29-1.602-2.187-2.065-.924-.478-1.947-.623-2.977-.506-1.489.17-3.029.758-4.213 1.68a5.29 5.29 0 00-1.764 2.516c-.49 1.455-.66 3.192-.347 4.702.157.759.504 1.455.834 2.15.47.992.948 1.979 1.455 2.952 1.001 1.923 2.143 3.762 3.247 5.627.488.823.981 1.65 1.357 2.53.321.755.558 1.552 1.003 2.247.295.46.667.81 1.15 1.07.83.445 1.69.788 2.492 1.292 1.782 1.116 3.514 2.29 5.376 3.272 1.951 1.027 3.508 1.543 5.437 2.155a41.9 41.9 0 005.922 1.413c1.243.203 2.411.443 4.017.59 1.981.18 3.651.167 4.86.112 2.67-1.273 5.337-2.547 8.005-3.82l.422-3.651-2.584-3.583-1.91-.435-5.956 2.95c-.56.768-1.124 1.535-1.685 2.303l-2.809.169a40.737 40.737 0 01-5.338-3.427c-1.683-1.281-2.757-2.317-4.899-3.642-1.549-.957-2.413-1.441-2.413-1.441-.829-.435-1.715-.828-2.463-1.4-1.05-.802-1.484-1.901-1.956-3.096-.416-1.053-.84-2.104-1.24-3.163-.366-.973-.8-1.905-1.202-2.866-.607-1.455-1.495-3.365-2.626-5.646l2.305 4.842z" fill="#FFBE9D"/><path d="M185.793 361.293c-1.238-.507-2.658-.314-3.96-.405-1.797-.126-3.523-.693-5.128-1.496-1.681-.842-3.254-1.909-4.754-3.036-.744-.558-1.488-1.133-2.156-1.783-.25-.244-.464-.502-.814-.584a2.351 2.351 0 00-.383-.057c.494-.295.22-.896.08-1.352-.314-1.006-.68-1.997-.953-3.016-.2-.742-.22-1.483-.363-2.232-.213-1.113-1.04-2.143-.923-3.31.028-.279.12-.563.048-.842-.082-.316-.366-.536-.45-.846-.125-.46-.001-1.077-.017-1.55-.042-1.157-.098-2.313-.148-3.47-.09-2.07-.13-4.137-.068-6.21.056-1.957.183-3.916.408-5.86.268-2.325.527-4.628.638-6.964.044-.934.114-1.848.28-2.769.16-.892.14-1.76.174-2.663a6.5 6.5 0 01.383-1.952c.315-.902.515-1.827.806-2.734.224-.698.632-1.293.943-1.95.376-.799.613-1.666.794-2.527.428-2.05.369-4.11.423-6.19.052-1.945.543-3.93.98-5.818.529-2.295 1.176-4.564 1.78-6.839.499-1.88 1.004-3.759 1.44-5.654.45-1.96.825-3.933 1.064-5.93.274-2.277.589-4.559.782-6.844.088-1.047.102-2.097.183-3.144.068-.886.265-1.75.35-2.634.08-.837-.061-1.639-.067-2.469-.008-.95.304-2.007.62-2.893.183-.505.399-.998.647-1.474.25-.482.587-.907.715-1.436.24-.995.446-1.996.576-3.012.122-.953.178-1.91.18-2.872l-24.256-7.269a35.698 35.698 0 00-1.916 2.434c-1.264 1.755-2.501 3.6-3.291 5.624a15.115 15.115 0 00-1.027 6.232c.119 2.32.748 4.588 1.418 6.8.345 1.138.717 2.268 1.085 3.4.279.86.524 1.777.98 2.565.208.357.559.605.76.958.147.257.123.55.115.838-.042 1.5.815 2.765.965 4.226.053.513-.087.952-.171 1.453-.091.545.077 1.055.158 1.594.142.941.106 1.905.099 2.854-.01 1.271-.032 2.542-.027 3.812.008 2.331.019 4.665.115 6.994.06 1.44.135 2.877.18 4.317.03.926.016 1.863-.151 2.777-.137.755-.341 1.454-.282 2.225.049.64.004 1.191-.15 1.818-.184.745-.413 1.487-.414 2.263-.001.564.179 1.08.258 1.633.09.652-.044 1.316-.071 1.966-.045 1.113.013 2.224-.072 3.335-.176 2.32-.58 4.62-.812 6.935-.238 2.363-.425 4.737-.413 7.113.012 2.343.238 4.671.583 6.985.348 2.328.803 4.636 1.054 6.976.277 2.594.398 5.205.57 7.807.148 2.201.516 4.38.673 6.58.086 1.194.1 2.391.152 3.588.027.617.038 1.234.297 1.802-.46.1-.634.607-.763 1.001-.58 1.78-.742 3.755-.861 5.612-.053.831-.117 1.691-.026 2.521.025.222.062.45.193.636.4.567 1.43.658 2.03.738 1.564.21 3.149.194 4.722.193 2.744 0 5.487-.003 8.23-.004 3.84-.002 7.738.145 11.56-.29 1.716-.197 3.52-.534 5.08-1.313.555-.277 1.07-.612 1.124-1.276.12-1.497-.338-3.033-1.808-3.636" fill="#034C8A"/><path d="M175.655 158.607c.116.507.212 1.018.288 1.532.162 1.1.242 2.216.215 3.328-.024 1.025-.252 2.05-.222 3.073.019.639.378 1.108.668 1.663.445.849.989 1.713 1.29 2.626.15.453.228 1.085-.306 1.29-.587.226-1.665-.098-1.887.71-.112.41.05.868-.098 1.27-.1.277-.348.352-.55.543-.181.172-.256.395-.281.64-.05.507.006.957-.174 1.446-.16.435-.473.632-.717 1.002-.193.29-.182.664-.188 1-.016 1.024-.023 2.166-1.243 2.442-.704.16-1.478 0-2.18-.082-.885-.103-1.866-.326-2.763-.191-.446.066-.78.28-1.066.623-.503.602-.961 1.322-1.235 2.062 0 0 .6 4.118 1.402 5.803.8 1.685-2.528 2.402-2.528 2.402l-8.722-3.961-3.08-4.754 2.048-5.282a8.852 8.852 0 00.612-2.64l.447-17.382 11.743-4.157 8.577 4.916-.05.078z" fill="#FFBE9D"/><g transform="translate(152 152.8)"><mask id="d" fill="#fff"><use xlink:href="#c"/></mask><path d="M16.315 28.18s-5.057-2.254-6.51-6.89c.084 3.667 4.424 9.693 4.424 9.693l2.086-2.802z" fill="#BC6C56" mask="url(#d)"/></g><g><path d="M174.061 246.476c-.004.96-.06 1.919-.182 2.873a27.769 27.769 0 01-.576 3.012c-.128.528-.464.954-.715 1.435-.248.477-.464.969-.645 1.475-.318.886-.629 1.94-.622 2.893.007.83.147 1.63.068 2.468-.085.883-.283 1.748-.35 2.634-.082 1.047-.095 2.098-.183 3.145-.193 2.285-.508 4.566-.782 6.843-.24 1.997-.615 3.97-1.065 5.93-.435 1.896-.94 3.774-1.439 5.654-.605 2.276-1.25 4.544-1.78 6.839-.437 1.889-.929 3.873-.98 5.819-.056 2.08.005 4.138-.424 6.189-.18.86-.418 1.729-.794 2.526-.31.659-.719 1.253-.943 1.952-.29.907-.49 1.832-.806 2.733a6.53 6.53 0 00-.383 1.952c-.033.902-.013 1.772-.173 2.663-.166.92-.237 1.835-.28 2.77-.11 2.336-.37 4.638-.638 6.963a68.703 68.703 0 00-.41 5.86c-.06 2.073-.019 4.14.07 6.21.05 1.157.105 2.313.147 3.47.017.473-.107 1.09.018 1.55.084.31.367.532.45.846.072.279-.02.564-.048.843-.117 1.166.71 2.197.923 3.309.143.749.163 1.49.362 2.233.275 1.018.64 2.01.953 3.015.146.467.432 1.087-.11 1.375l-2.793 4.498c-1.86.898-9.464-1.341-9.464-1.341-.258-.57-.268-1.186-.296-1.803-.05-1.196-.065-2.394-.15-3.588-.158-2.2-.526-4.38-.674-6.58-.173-2.602-.293-5.213-.57-7.807-.25-2.34-.707-4.648-1.054-6.975-.346-2.315-.57-4.643-.583-6.986-.013-2.376.175-4.75.412-7.113.234-2.314.636-4.615.813-6.934.085-1.112.027-2.223.072-3.335.025-.651.161-1.315.07-1.966-.078-.554-.258-1.07-.258-1.634 0-.775.231-1.518.415-2.263a5.49 5.49 0 00.15-1.818c-.06-.771.144-1.47.281-2.225.167-.914.182-1.85.153-2.777-.046-1.44-.122-2.878-.18-4.316-.098-2.33-.108-4.663-.116-6.995-.005-1.27.016-2.541.027-3.812.007-.948.042-1.913-.1-2.854-.082-.54-.249-1.048-.158-1.593.085-.501.224-.941.172-1.453-.15-1.461-1.008-2.727-.966-4.227.008-.288.032-.581-.115-.838-.2-.352-.552-.6-.759-.958-.456-.788-.7-1.706-.98-2.565-.368-1.131-.74-2.262-1.085-3.401-.67-2.211-1.299-4.48-1.418-6.8a15.101 15.101 0 011.027-6.231c.79-2.023 2.027-3.87 3.291-5.624a35.631 35.631 0 011.916-2.434l24.257 7.269z" fill="#38AAE3"/><path d="M151.026 211.625c-1.401-3.24-2.353-6.7-2.696-10.22-.328-3.357-.032-6.834.94-10.07.485-1.616 1.357-3.042 1.697-4.703l2.396-6.5c3.624 3.471 6.703 5.747 8.315 6.684.846.492 2.228 1.274 4.124 1.39.22.014.403.016.526.015l10.135 11.707c.91.725 1.722 1.576 2.296 2.594.971 1.721 1.264 3.791 1.127 5.74-.085 1.214-.321 2.411-.401 3.625-.069 1.07.045 2.13.225 3.183.409 2.403.809 4.79 1.063 7.215.274 2.622 1.431 17.686 1.603 19.06.168 1.342.36 2.436.498 3.16-3.15 1.916-5.782 2.455-7.6 2.595-4.011.305-8.56-.993-10.789.018-.204.093-1.009.436-1.51.16-.323-.178-.312-.804-.354-1.096-.089-.604-.163-1.21-.257-1.814-.027-.178-.038-.43-.136-.594-.104-.172-.196-.189-.382-.118-.3.117-2.112 2.063-2.417 2.307-.794.634-3.388-.444-10.785-7.067.871-.458 2.021-1.169 2.792-2.08.571-.675.854-1.014 1.019-1.325.306-.576.558-.948 1.117-1.274a3.154 3.154 0 001.052-1.035c.249-.389.263-.87.5-1.245.186-.295.576-.378.855-.56.358-.233.601-.589.806-.955l-5.759-18.797z" fill="#EE5F43"/></g><g transform="translate(148 179.8)"><mask id="f" fill="#fff"><use xlink:href="#e"/></mask><path d="M17.133 19.825s-3.455 13.652-3.118 14.58c.337.927 3.877 20.141 3.877 20.141L6.936 31.877l6.32-12.304 3.877.252z" fill="#C4422B" mask="url(#f)"/></g><g><path d="M150.467 357.112c-.459.098-.633.606-.762 1-.58 1.779-.742 3.756-.86 5.612-.055.83-.117 1.692-.026 2.522.024.22.061.45.192.636.4.567 1.431.658 2.031.738 1.563.21 3.15.193 4.722.192l8.23-.004c3.84-.002 7.738.147 11.56-.29 1.716-.196 3.52-.534 5.08-1.312.555-.278 1.07-.613 1.123-1.277.121-1.497-.338-3.033-1.809-3.635-1.237-.507-2.658-.315-3.958-.406-1.797-.126-3.524-.692-5.128-1.496-1.68-.842-3.254-1.908-4.754-3.035-.745-.558-1.49-1.134-2.157-1.783-.249-.244-.463-.502-.814-.584-2.028-.476-2.764 1.84-3.948 2.887-.747.659-1.746.979-2.719 1.099a8.364 8.364 0 01-2.565-.103c-.885-.167-1.72-.503-2.598-.701-.272-.061-.564-.12-.84-.06" fill="#282E5B"/><path d="M161.148 204.528c1.33-.5 2.321-1.366 3.025-2.663.536-.986.853-2.098.807-3.253-.05-1.25-.48-2.505-1.16-3.54-.702-1.066-1.686-1.831-2.815-2.315-1.633-.7-3.545-.973-5.266-.676-1.213.209-2.289.796-3.174 1.68-1.286 1.289-2.393 3.073-2.875 4.897-.243.917-.256 1.878-.286 2.828a112.415 112.415 0 00-.07 4.064c.006 2.682.205 5.354.352 8.032.065 1.182.133 2.372.051 3.55-.07 1.009-.25 2.015-.162 3.034a3.97 3.97 0 00.62 1.84c.622.977 1.33 1.86 1.891 2.883 1.25 2.268 2.416 4.57 3.821 6.739 1.318 2.035 2.87 3.789 4.481 5.564 1.802 1.984 3.56 4.039 5.505 5.869 1.86 1.747 3.836 3.373 5.846 4.917.827.636 2.574 1.48 4.902 2.026 3.403.797 6.342.275 8.218-.277a9.63 9.63 0 002.373-5.666 10.015 10.015 0 00-.668-4.318 16.471 16.471 0 01-6.284-2.26 10.024 10.024 0 012.85-1.323c.973-.273 1.688-.302 1.942-.863.242-.535-.07-1.242-.338-1.612-.614-.85-1.873-1.138-3.187-.75l-9.234 5.614a13.16 13.16 0 01-.556-.527c-1.97-1.982-2.475-3.967-3.907-6.714-1.243-2.384-2.349-4.845-3.59-7.232a35.814 35.814 0 00-1.73-2.995c-.627-.965-1.334-1.916-1.804-2.981-.659-1.492-.52-2.941-.37-4.518.132-1.39.254-2.782.407-4.167.142-1.274.19-2.544.288-3.824.2-2.567.378-5.096.3-7.682l-.203 6.619z" fill="#FFBE9D"/><path d="M175.248 160.853c-3.126 2.756-5.12 3.03-6.412 2.646-1.47-.44-2.791-1.96-3.768-1.444-.383.202-.555.634-.641.962.229.435.605 1.296.56 2.405-.041 1.057-.471 2.53-1.041 2.565-.964.058-1.596-3.68-2.405-3.607-.69.062-.601 2.836-1.492 6.256-.712 2.733-1.81 6.947-5.225 8.989-.47.28-3.793 2.199-6.83.626-1.7-.88-3.1-2.687-3.286-4.89-.207-2.438 1.169-4.15 1.465-4.5-.508-.231-2.686-1.291-3.71-3.836-.1-.25-1.328-3.43.24-5.772 1.144-1.703 2.674-1.383 3.127-2.804.48-1.507-1.13-2.211-1.202-4.49-.096-2.995 2.58-5.1 2.725-5.21 1.408-1.074 2.849-1.283 3.447-1.363 2.887-.383 5.1.99 5.77 1.444.22-.675.85-2.29 2.487-3.448 2.128-1.507 4.453-1.174 5.37-1.042.927.134 2.677.385 4.008 1.844a5.524 5.524 0 011.202 2.164c.478-.528 1.788-1.832 3.927-2.324.65-.15 2.71-.623 4.73.48 2.83 1.547 3.246 4.914 3.287 5.29.254 2.368-.978 2.688-.882 5.21.127 3.364 2.384 4.637 1.603 6.093-.631 1.178-2.771 1.584-4.408.962-2.136-.81-2.618-3.062-2.646-3.206" fill="#034C8A"/><path d="M162.972 166.216a7.529 7.529 0 00-.166-.453s-.146-.414-.33-.718c-.419-.693-1.132-1.394-1.95-1.572-.759-.165-1.612.22-2.003.886-.65 1.11-.083 2.848.442 3.89.496.985 1.414 2.366 2.593 2.624.117.026 1.112.14 1.54-.489.251-.37.18-.82.143-.997l-.269-3.17" fill="#FFBE9D"/><path d="M161.146 167.547c-.07-.814-1.02-.348-1.127-1.053-.106-.704.791-.568.745-1.177-.046-.61-1.77-.49-1.467 1.543.304 2.031 1.911 1.378 1.85.687" fill="#BC6C56"/><path d="M348.33 354.305c0 1.49 2.816 10.437 2.816 10.437h13.749s1.16-2.982.83-4.142c-.333-1.16-4.76-4.473-5.031-5.135-.271-.663-3.637-9.277-3.637-9.277s-8.727 6.627-8.727 8.117M281.322 346.106s-2.111 6.709-3.105 8.324c-.995 1.614-6.71 5.715-6.958 6.212-.25.497-.994 5.094-.994 5.094h19.009s.869-6.958.869-8.448c0-1.492-.621-5.591-.621-5.591l-.497-4.846-7.703-.745z" fill="#282E5B"/><path d="M296.148 241.66s-4.97 15.902-5.3 20.21c-.332 4.307-4.92 32.485-5.484 35.075-2.779 12.764-5.78 40.86-5.78 40.86l1.987 2.584-1.988 3.863v4.96s3.23-.87 4.721-.87c1.49 0 5.591 1.74 5.591 1.74s4.432-12.177 4.432-13.999c0-1.822 1.987-2.65 1.821-3.976-.165-1.325-.643-4.804.01-6.295.653-1.49 3.553-14.743 3.801-18.222.248-3.479 4.224-14.412 4.224-14.412s4.721-13.915 5.466-15.903c.746-1.988 1.927-12.425 6.555-12.425s12.082 14.91 13.324 20.376c1.242 5.467 9.194 32.303 10.436 34.291 1.243 1.988 5.964 8.697 5.964 8.697l-1.84 7.23 1.258 9.898s.812 5.13.937 6.247c.124 1.118 4.257 0 4.257 0s7.688-1.632 8.93-2.254c1.242-.62 1.366-3.355 1.118-4.224-.248-.87-.994-2.609-.994-3.478 0-.87-5.348-36.174-5.845-38.908-.497-2.733-4.635-12.317-5.547-16.302-.934-4.08-1.778-13.372-1.778-16.354 0-2.982-.496-6.212-.496-7.455 0-1.242-6.958-23.108-6.958-23.108l-42.822 2.153z" fill="#4485F4"/></g><g><g transform="translate(279 238.8)"><mask id="h" fill="#fff"><use xlink:href="#g"/></mask><path d="M28.91 23.442c2.683 1.711 6.15 2.365 9.667 2.984-4.937 7.514-6.52.743-9.667-2.984" fill="#282E5B" mask="url(#h)"/></g><g transform="translate(279 238.8)"><mask id="j" fill="#fff"><use xlink:href="#i"/></mask><path fill="#282E5B" mask="url(#j)" d="M18.97 95.13l-6.626 1.325 4.142 4.142z"/></g><g transform="translate(279 238.8)"><mask id="l" fill="#fff"><use xlink:href="#k"/></mask><path fill="#282E5B" mask="url(#l)" d="M62.083 85.563l7.703 5.343-6.461-1.492z"/></g></g><path d="M300.787 169.268c-1.446.804-1.714.702-6.42 2.402-3.088 1.117-4.632 1.674-4.845 1.864-2.645 2.364-.993 6.272-2.32 12.465-.69 3.226-3.22 6.275-2.98 7.62.238 1.346 4.37 1.194 7.62 1.16 3.61-.038 4.18-.876 5.135-.331 3.819 2.182-3.55 16.639-2.982 31.64.054 1.423.297 5.95 0 12.176a127.55 127.55 0 01-.497 6.709c9.423 2.517 17.452 3.539 23.357 3.976 9.768.72 14.205-.123 18.14-2.237 3.169-1.702 5.35-3.871 6.709-5.466-1.178-2.597-1.458-4.73-1.491-6.212-.046-2.066.387-2.842.249-5.467-.05-.925-.164-2.005-.746-4.722-.801-3.745-1.308-5.087-1.74-6.957-.52-2.26-2.426-10.522 1.74-16.4.48-.677.94-1.182 1.243-1.491.718.442 1.325 1.78 2.153 1.326.828-.456 1.96-9.072 3.065-11.68.823-1.942 1.816-3.854 1.988-6.791.076-1.307.2-4.081-1.491-6.626-.26-.391-.847-1.206-2.485-2.485-.652-.51-1.98-1.525-7.455-3.976-1.87-.837-2.803-1.256-3.727-1.573-2.43-.84-4.526-1.198-6.212-1.408-8.814-1.102-10.858 1.306-17.187 0-.945-.196-2.522-.585-4.431-.083-1.815.476-2.037 1.26-4.39 2.567" fill="#034C8A"/><g><g transform="translate(284 165.8)"><mask id="n" fill="#fff"><use xlink:href="#m"/></mask><path d="M14.467 16.555s.621 6.757.621 11.368c0 1.822-1.713.099-1.865.897-.54 2.828-1.186 4.577-2.4 5.792 3.941 2.4 9.702-6.786 3.644-18.057" fill="#282E5B" mask="url(#n)"/></g><g transform="translate(284 165.8)"><mask id="p" fill="#fff"><use xlink:href="#o"/></mask><path d="M47.743 27.15s4.163-9.601 4.66-11.092c.497-1.492-8.117 9.773-8.117 9.773l3.457 1.319z" fill="#282E5B" mask="url(#p)"/></g></g><path d="M316.193 154.194l-2.153 13.915h12.424l-1.989-14.247-8.282.332" fill="#BC6C56"/><g transform="translate(314 153.8)"><mask id="r" fill="#fff"><use xlink:href="#q"/></mask><path d="M-1.99 5.031l17.27 1.284s-2.03 6.34-8.635 6.34c-6.606 0-8.635-6.96-8.635-6.96" fill="#BC6C56" mask="url(#r)"/></g><g><path d="M305.176 166.7c1.368 6.562 7.066 11.352 13.667 11.555 6.365.195 12.182-3.917 14.163-10.064a41.913 41.913 0 00-27.83-1.49" fill="#BC6C56"/><path d="M311.885 150.3l-.62-10.933c2.07-4.16 6.413-6.669 10.933-6.337 4.094.302 7.727 2.891 9.442 6.709l-.745 11.307-19.01-.746" fill="#282E5B"/><path fill="#BC6C56" d="M310.111 165.572l-.172 4.762 4.101 3.293 1.549 4.125 3.502 11.597-2.887-17.097-4.011-3.188-1.645-5.582zM285.484 193.662c-.498 3.404.697 12.063.891 18.345-.035 1.126.092 3.031 1.325 4.638.555.724 1.67 1.824 4.141 2.485 3.991 1.067 15.772 2.13 31.641 2.65 3.699-1.766 7.398-3.534 11.099-5.3 3.541-3.73 5.327-7.825 4.035-9.839-1.66-2.588-8.201-1.42-12.319 1.06-3.542 2.133-5.329 5.263-6.128 6.956a141.85 141.85 0 01-22.199-6.46c.329-2.035.572-4.557.478-7.444-.095-2.917-.263-4.306-.73-6.329-4.103-1.156-9.811-1.447-12.234-.762"/></g><g><g transform="translate(285 192.8)"><mask id="t" fill="#fff"><use xlink:href="#s"/></mask><path fill="#BC6C56" mask="url(#t)" d="M-1.316 3.47h16.275v-5.715H-1.316z"/></g><g transform="translate(285 192.8)"><mask id="v" fill="#fff"><use xlink:href="#u"/></mask><path d="M36.839 16.451s4 4.25 8.416 3.75 10.75-7.25 10.75-7.25l-6.75-1.25-12.416 4.75z" fill="#BC6C56" mask="url(#v)"/></g></g><g><path d="M329.404 141.479l.33 7c.408-.091 1.06-.153 1.575.206.872.61.712 1.986.62 2.775-.075.65-.151 1.31-.703 1.78-.501.427-1.112.459-1.367.457-.195 1.407-.761 4.023-2.691 6.543-1.128 1.472-3.35 4.37-6.336 4.224-2.725-.132-4.53-2.718-5.84-4.596-1.785-2.56-2.381-5.103-2.61-6.585-.298.038-.785.049-1.118-.25-.215-.193-.34-.491-.248-2.112.118-2.082.369-2.401.529-2.56.423-.425.996-.521 1.335-.545l1.242-7.58c.784-.651 3.15-2.443 6.616-2.562 5.007-.173 8.204 3.289 8.666 3.805" fill="#BC6C56"/><path d="M317.027 172.818c.402 2.833.843 3.378 1.229 5.902 2.15-1.06 4.656-.46 7.089-1.82-1.454-3.29-1.722-3.77-2.133-5.013.246-2.17.543-3.91.773-5.116.229-1.204.389-1.853.58-3.064.273-1.73.384-3.157.435-4.1l-1.492.31-1.676 2.547a45.391 45.391 0 00-5.633-5.632l-1.753 1.754c.207 1.78 3.102 4.103 3.31 5.883 1.822 1.795-2.551 6.554-.729 8.349" fill="#BC6C56"/><path d="M333.753 194.117c1.63 1.055 2.894 1.282 5.3 2.816a25.109 25.109 0 012.899 2.154c-1.024 5.779-4.646 10.366-9.446 11.723-2.735.774-5.195.313-6.684-.128a7.015 7.015 0 01-1.77-.983c-2.037-1.56-2.715-3.901-3.055-5.311-.83-3.441-2.827-14.483-4.97-29.57l-5.466-5.384-.621-5.342 5.259-5.26a45.544 45.544 0 012.9 2.65 46.167 46.167 0 012.733 2.983c.559-.85 1.117-1.7 1.677-2.547l1.49-.311c-.05.944-.161 2.37-.434 4.1-.192 1.21-.35 1.86-.58 3.064a68.338 68.338 0 00-.773 5.117c.755 2.277 3.449 10.11 7.399 15.756 1.362 1.947 2.33 3.3 4.142 4.473" fill="#BC6C56"/><path d="M401.152 309.324c.167.029.336.044.505.061l-.548.216-.033-.27c.025-.003.05-.013.076-.008M393.586 365.717a.853.853 0 01.185-.241c.175-.172.428-.33.62-.471 1.383-1.02 2.423-2.258 3.624-3.392.13-.13.387-.239.608-.449.192-.182.277-.425.347-.663.066-.239.105-.484.139-.679.222-1.288.04-2.619-.094-3.844-.245-2.178-.975-8.095-1.043-8.882-.014-.151-.008-.399-.008-.653-.001-.258-.006-.526-.064-.769l-.048-.146c.364.054.75.037 1.047.032 1.886-.036 3.793-.405 5.599-.925.809-.233 1.647-.47 2.405-.844.226-.112.595-.263.66-.547.065-.277-.102-.675-.275-1.028.149.101.305.192.466.277.394.204.806.371 1.085.52.432.228.84.473 1.184.786.477.432.822.993 1.09 1.61.188.428.327.856.433 1.287.54 2.197.142 4.482.393 6.909.202 1.929.509 3.854.86 5.758.094.497.3 1.525.3 1.525.048.19.19.621.276.971.023.09.04.174.05.241v.013c-.021.007-.033.013-.061.022a6.435 6.435 0 01-.736.188l-.02.003-.013-.047a4.908 4.908 0 01-.078-.416c-.024-.143-.037-.251-.057-.335-.541-2.202-1.652-6.605-1.652-6.605-.04-.153-.092-.644-.201-1.089a2.764 2.764 0 00-.18-.538c-.08-.164-.18-.322-.36-.425a.56.56 0 00-.41-.053c-.413.107-.777.424-1.116.769a9.387 9.387 0 00-.814.984c-.411.565-.686 1.205-.883 1.86-.526 1.749-.542 3.565-.796 5.284-.097.677-.217 1.362-.611 1.786-.506.565-1.457.838-2.258 1.069-.592.173-1.192.33-1.794.477-1.358.33-2.737.611-4.105.926l-.043.01c-.275.067-.697.202-1.172.318a6.497 6.497 0 01-1.222.195c-.391.019-.734-.036-.952-.168a.7.7 0 01-.315-.378l-.012-.04a.287.287 0 01.022-.193" fill="#363A68"/><path d="M396.383 341.984c-.363-3.913-.55-7.72-1.814-11.48-1.425-4.231-2.799-8.44-3.93-12.764a407.707 407.707 0 01-1.634-6.513c-.464-1.9-1.003-3.814-1.21-5.764-.197-1.841.07-3.67 1.23-5.121 1.786-2.233 4.894-2.98 7.5-3.655.973-.252 1.953-.478 2.931-.715l.034.287.036-.008a.277.277 0 00.195-.182.294.294 0 00-.033-.243c.06-.016.117-.02.178-.038 10.534-3.423 21.008-7.025 31.481-10.634 1.147-.396 1.736-1.225 1.904-2.15 4.618 1.492 9.087 3.905 13.185 6.417.008.31.01.622.004.93-.004.236-.052.528-.09.827a3.733 3.733 0 00-.023.635l.2-.078c.697 2.093 1.302 5.227.011 7.19-1.416 2.154-4.447 2.936-6.714 3.645-4.092 1.279-8.3 2.192-12.487 3.103a442.55 442.55 0 01-13.192 2.679c-2.036.38-4.084.706-6.142.955-1.946.237-3.95.497-5.918.403-2.688-.131.257-1.53 2.368 11.116.706 4.224.77 8.536 1.047 12.799.123 1.89.25 3.803.72 5.648.204.805.481 1.587.784 2.36.057.146.171.356.283.583.173.353.34.75.276 1.029-.066.283-.435.434-.66.547-.759.374-1.597.61-2.406.843-1.805.52-3.713.889-5.598.925-.297.005-.684.023-1.048-.032-.329-.05-.639-.157-.84-.396-.617-.726-.548-2.285-.628-3.148" fill="#363A68"/><path d="M404.26 310.708h40.245a2.03 2.03 0 002.03-2.029v-4.404a2.028 2.028 0 00-2.03-2.029H404.26a2.03 2.03 0 00-2.029 2.03v4.403a2.03 2.03 0 002.03 2.03M457.15 275.44c0-7.2-.186-14.31.09-21.477.181-4.743.146-9.52-.547-14.225-.305-2.07-1.69-11.52-5.795-9.737-.792.343-1.145 1.464-1.28 1.993l.545 43.446c0 1.89 1.264 3.42 2.825 3.42h1.338c1.559 0 2.824-1.53 2.824-3.42" fill="#346EC1"/><path d="M457.333 251.065v45.462a13.807 13.807 0 01-13.808 13.809h-34.012" stroke="#034C8A" stroke-width="3.443" stroke-linecap="round" stroke-linejoin="round"/><path fill="#034C8A" d="M425.447 360.083h3.446v-49.375h-3.446z"/><path stroke="#034C8A" stroke-width=".973" stroke-linecap="round" stroke-linejoin="round" d="M425.447 360.083h3.446v-49.375h-3.446z"/><path fill="#034C8A" d="M422.69 350.155h8.96V333.27h-8.96z"/><path stroke="#034C8A" stroke-width=".973" stroke-linecap="round" stroke-linejoin="round" d="M422.69 350.155h8.96V333.27h-8.96z"/><path d="M397.007 361.74c4.011-2.666 15.148-9.308 30.803-9.124 14.892.175 25.468 6.428 29.522 9.124v-2.798c-4.263-2.713-14.818-8.62-29.522-8.786-15.458-.177-26.568 6.094-30.803 8.786v2.798z" fill="#034C8A"/><path d="M397.007 361.74c4.011-2.666 15.148-9.308 30.803-9.124 14.892.175 25.468 6.428 29.522 9.124v-2.798c-4.263-2.713-14.818-8.62-29.522-8.786-15.458-.177-26.568 6.094-30.803 8.786v2.798z" stroke="#034C8A" stroke-width=".973" stroke-linecap="round" stroke-linejoin="round"/><path d="M453.475 361.74a3.858 3.858 0 117.716.001 3.858 3.858 0 01-7.716-.001" fill="#034C8A"/><path d="M453.475 361.74a3.858 3.858 0 117.716.001 3.858 3.858 0 01-7.716-.001z" stroke="#034C8A" stroke-width=".973" stroke-linecap="round" stroke-linejoin="round"/><path d="M393.15 361.74a3.857 3.857 0 117.714 0 3.857 3.857 0 01-7.714 0" fill="#034C8A"/><path d="M393.15 361.74a3.857 3.857 0 117.714 0 3.857 3.857 0 01-7.714 0z" stroke="#034C8A" stroke-width=".973" stroke-linecap="round" stroke-linejoin="round"/><path d="M423.527 361.74a3.643 3.643 0 117.286 0 3.643 3.643 0 01-7.286 0" fill="#034C8A"/><path d="M423.527 361.74a3.643 3.643 0 117.286 0 3.643 3.643 0 01-7.286 0z" stroke="#034C8A" stroke-width=".973" stroke-linecap="round" stroke-linejoin="round"/><path d="M366.292 363.57c.058-.07.156-.148.282-.22.253-.145.59-.254.855-.36 1.89-.767 3.449-1.873 5.163-2.82.188-.111.517-.162.833-.337.273-.153.44-.403.59-.651.144-.251.259-.515.354-.724.62-1.387.788-2.932.977-4.347.33-2.515 1.156-9.364 1.3-10.268.026-.174.103-.45.175-.736.073-.29.142-.593.143-.882l-.015-.176c.406.16.862.247 1.207.322 2.199.474 4.516.584 6.759.492 1.004-.04 2.044-.077 3.03-.29.293-.064.765-.133.92-.433.155-.295.073-.787-.028-1.232.143.154.3.3.462.44.399.337.83.638 1.112.88.437.375.84.762 1.153 1.208.43.615.672 1.342.81 2.109.097.532.138 1.05.138 1.564.007 2.617-1.102 5.076-1.497 7.872-.31 2.225-.498 4.472-.627 6.707-.034.584-.084 1.797-.084 1.797 0 .227.046.749.045 1.166 0 .108-.003.208-.01.285l-.002.015c-.028.003-.045.006-.078.008a8.904 8.904 0 01-.907.01l-.024-.002-.003-.057c0-.143.013-.327.027-.49.013-.165.028-.292.029-.391-.006-2.623-.051-7.876-.051-7.876-.002-.183.075-.75.075-1.278a3.2 3.2 0 00-.056-.655c-.047-.206-.12-.411-.297-.575a.69.69 0 00-.461-.173c-.511.008-1.024.265-1.514.559-.486.298-.934.646-1.223.884-.636.522-1.136 1.166-1.551 1.848-1.103 1.822-1.637 3.859-2.417 5.72-.303.735-.636 1.473-1.215 1.84-.746.496-1.927.545-2.921.584-.736.033-1.477.045-2.218.045-1.67 0-3.347-.062-5.025-.082h-.052c-.34 0-.866.035-1.45.035-.49 0-1.017-.025-1.475-.114-.46-.086-.841-.241-1.056-.45a.802.802 0 01-.26-.511l-.002-.047a.32.32 0 01.08-.212" fill="#FFBE9D"/><path d="M376.247 337.662c.685-4.497 1.545-8.826 1.139-13.396-.457-5.149-.862-10.254-.952-15.424a446.903 446.903 0 01-.055-7.767c-.001-2.263-.086-4.56.223-6.809.293-2.124 1.12-4.106 2.875-5.418 2.705-2.023 6.524-2.01 9.738-2.056 1.2-.017 2.402-.003 3.604 0l-.041.331h.043a.335.335 0 00.279-.15.334.334 0 00.029-.283c.075-.002.142.011.219.006 13.192-.964 26.367-2.144 39.54-3.335 1.444-.13 2.362-.9 2.818-1.893 4.938 2.94 9.442 6.874 13.488 10.821-.08.351-.164.7-.26 1.046-.07.263-.208.577-.336.904a4.091 4.091 0 00-.205.707l.252-.034c.218 2.544.035 6.231-2.02 8.086-2.25 2.032-5.99 2.081-8.821 2.258-5.111.317-10.254.192-15.37.07a548.55 548.55 0 01-16.067-.6c-2.471-.13-4.94-.326-7.397-.608-2.326-.268-4.726-.522-6.983-1.168a17.815 17.815 0 01-1.102-.388c.753 4.448 1.05 9.027.709 13.53-.375 4.941-1.52 9.804-2.403 14.671-.391 2.158-.785 4.342-.762 6.545.01.96.11 1.916.244 2.867.025.18.098.446.164.732.1.445.182.938.029 1.233-.156.3-.628.37-.921.432-.986.213-2.026.25-3.03.29-2.243.092-4.561-.017-6.76-.492-.345-.075-.8-.162-1.206-.322-.368-.147-.696-.353-.863-.675-.511-.985.01-2.72.16-3.71" fill="#38AAE3"/></g><g transform="translate(375 280.8)"><mask id="x" fill="#fff"><use xlink:href="#w"/></mask><path d="M10.532 17.776l8.178 5.955v4.446s-7.543-5.875-8.178-10.4" fill="#034C8A" mask="url(#x)"/></g><path d="M435.845 231.668c-3.543 1.706-6.864 4.151-10.188 6.302l.006-.016a.328.328 0 00-.24-.425.406.406 0 01-.04-.187c0-.192.061-.446.094-.61.318-1.543.727-3.113 1.108-4.658.185-.744.404-1.457.825-2.026.166-.226.364-.432.581-.624.117-.106.254-.187.4-.313a.803.803 0 00.296-.619l-.007-.112a3.099 3.099 0 00-.798-1.573c-.202-.209-.868-.9-1.695-.84-.424.031-.4.223-1.136.457-.515.163-1.125.357-1.707.11-.377-.162-.584-.44-.78-.706a3.102 3.102 0 01-.279-.429c-.318-.607-.396-1.172-.409-1.263-.073-.525-.642-2.035-2.436-5.82-.37-.398-.688-.51-.914-.539 0 0-.437-.042-.778-.19a.485.485 0 01-.25-.22.777.777 0 01-.079-.365c0-.22.066-.479.164-.69.275-.622.921-1.138 1.275-1.977.316-.799.186-1.546.238-2.222.085-1.33.442-2.71.592-4.12.161-1.545.376-3.096.778-4.576a17.77 17.77 0 01.574-1.688l.02-.157a6.855 6.855 0 01-.058-.798c.002-.453-.01-.82.252-1.005 4.912-3.467 29.86-5.675 19.691 19.565-.146.36-.17.79-.242 1.176-.07.387-.18.713-.329.85l-.066.06a.332.332 0 00-.434.313c0 .483.031.963.087 1.443.01.064.013.227.027.393.02.171.02.345.146.54.05.075.104.143.194.207a.51.51 0 00.287.083c.098-.002.142-.01.221-.01h.033c.316.014.49.071.683.268.29.305.528.835.677 1.42.15.583.22 1.217.22 1.726 0 .098-.004.192-.009.28-.005.136-.055.304-.078.525a2.394 2.394 0 00-.015.23c0 .037.008.077.012.116-1.03.256-2.013.672-2.964 1.175-1.225.416-2.435 1.002-3.55 1.54" fill="#FFBE9D"/><g transform="translate(417 196.8)"><mask id="z" fill="#fff"><use xlink:href="#y"/></mask><path d="M8.873 29.353s4.349-2.475 5.889-4.962l1.54-2.488-5.345 9.262-2.084-1.812z" fill="#BC6C56" mask="url(#z)"/></g><g><path d="M437.096 247.34c.052.051.128.157.212.32a1.492 1.492 0 01-.248-.28l.036-.04" fill="#D08B73"/><path d="M437.06 247.38l.036-.04c.052.051.128.157.212.32a1.492 1.492 0 01-.248-.28m12.134 44.91c.157-.706.276-1.417.306-2.12l.004-.205c.008-1.483-.716-2.78-1.058-4.39-.633-3.064 1.42 4.034-.143-21.954v-.026c.01-4.92 4.481-8.543-.32-22.448-.928-2.69-2.013-5.335-3.296-7.87a55.983 55.983 0 00-2.029-3.649c-.097-.159-.01-.623-.069-.744-.042-.087-.218.172-.23.07-1.029.256-2.665-.574-3.616-.07-1.225.415-2.775.767-3.89 1.305-3.543 1.706-5.872 5.63-9.195 7.781-1.42 4.338-6.433 7.728-4.459 17.828.673 3.45 1.478 6.86 1.775 10.412.08.941.15 1.904.15 2.871 0 .49-.018.982-.064 1.472-.103 1.058-.466 2.004-.657 2.947a28.068 28.068 0 00-.35 2.24c-.034.262-.368 3.307-.395 3.57 1.586.286 3.464-2.163 5.011-1.759 8.61 2.25 16.131 8.501 22.525 14.738" fill="#FAAE26"/></g><g transform="translate(420 227.8)"><mask id="B" fill="#fff"><use xlink:href="#A"/></mask><path d="M13.302 19.697S8.326 33.46 7.585 40.447c-.74 6.986-.423 8.574-.423 8.574l7.833-3.599-1.693-25.725z" fill="#D38309" mask="url(#B)"/></g><g><g transform="translate(-1 367.8)"><mask id="D" fill="#fff"><use xlink:href="#C"/></mask></g><g transform="translate(-1 367.8)"><mask id="F" fill="#fff"><use xlink:href="#E"/></mask></g><path d="M442.59 228.884c3.205 5.38 3.813 6.999 5.204 10.756 1.404 3.79 2.642 7.824 2.78 11.892a22.176 22.176 0 01-.427 5.044c-.368 1.857-1.099 3.634-1.404 5.498-.26 1.596-.046 3.271.034 4.871.098 2.017.348 4.017.514 6.029.17 2.044.243 4.099.197 6.15-.034 1.568-.103 3.167-.555 4.677-.625 2.089.877 3.862.906 5.962.02 1.434-.33 2.922-.762 4.278-1.431 4.495-4.885-2.282-15.827-2.293-7.75-.009-5.991-5.928-9.793-5.717l11.115-9.951 8.017-47.196z" fill="#FAAE26"/></g><g transform="translate(423 228.8)"><mask id="H" fill="#fff"><use xlink:href="#G"/></mask><path d="M22.265 21.026s-.636 28.69-1.27 30.808C20.36 53.951.87 57.36.87 57.36l16.737-11.984 4.658-24.349z" fill="#D38309" mask="url(#H)"/></g><g><path d="M388.077 342.544c-.227.822-.438 1.648-.78 2.434-.96 2.214-2.47 4.22-3.784 6.228-1.423 2.172-2.736 4.421-4.181 6.576-.737 1.1-1.568 1.96-2.934 2.147a6.252 6.252 0 01-1.892-.036c-.384-.066-.775-.32-1.148-.349-.32-.025-.633.173-.9.318-1.028.56-1.973 1.265-2.995 1.835-.894.498-1.856.805-2.776 1.243-.287.136-.692.31-.793.646-.146.496.373 1.013.758 1.225 1.165.64 2.915.375 4.184.39 2.692.033 5.493.267 8.178-.065.878-.11 1.782-.305 2.37-1.02 1.092-1.33 1.464-3.329 2.089-4.885.529-1.313 1.156-2.673 2.173-3.688.73-.728 1.675-1.286 2.642-1.636.343-.124.504-.225.665.128.266.58.036 1.56.045 2.187.018 1.263.05 7.62.052 8.073 0 .183-.09.65 0 .811.12.21-.037.084.308.147.169.031 1.005.104 1.154 0 .223-.156.109-1.442.122-1.799.044-1.259.12-2.516.224-3.772.199-2.409.345-4.903.974-7.246.517-1.93 1.11-3.558 1.015-5.597-.051-1.077-.223-2.215-.75-3.173-.758-1.378-2.26-2.42-3.417-3.435l-.603 2.313z" fill="#282E5B"/><path d="M439.142 224.334a41.556 41.556 0 00-7.538 2.59c-1.489.673-3.26 1.464-4.333 2.764-1.084 1.314-1.189 3.261-1.569 4.842-.103.425-1.253 3.153-.27 3.335.866.161 2.113-1.31 2.594-1.76 1.984-1.866 3.96-3.605 6.39-4.875 1.747-.915 3.688-1.7 5.68-1.815.786-.045 2.214.243 2.58-.729.374-.998-.075-2.47-.427-3.408-.336-.895-.839-1.316-1.809-1.193-.438.056-.869.147-1.298.25" fill="#D38309"/><path d="M435.356 215.22c.273.955.67 2.522.91 4.488.727 5.927-.925 7.609.424 10.004 1.798 3.193 5.645 1.826 7.41 5.188 1.291 2.457-.416 3.852.848 6.669 1.222 2.729 4.52 5.202 7.436 4.684 3.882-.688 6.47-6.567 5.373-10.612-1.206-4.447-6.27-4.492-7.41-9.528-.659-2.91.922-3.373.106-6.67-.948-3.822-3.309-4.15-4.119-7.918-.59-2.747.585-2.942.307-6.48-.13-1.671-.525-6.7-4.32-9.308-.727-.5-2.83-1.772-6.312-1.495-.554-.333-4.594-2.654-9.11-.947-3.98 1.503-5.453 5.015-5.869 5.993-.52 1.226-1.27 3.659-.564 4.129.178.118.31.02.621.063 1.141.156 1.616 1.777 2.397 2.956 0 0 .997 1.505 3.154 2.539 2.63 1.262 5.547.286 6.741-.197l1.977 6.443z" fill="#282E5B"/><path d="M431.761 215.251c.147.92 1.053 1.485 1.961 1.278 1.08-.247 1.777-1.442 2.23-2.354.58-1.163 1.064-2.594.886-3.912-.243-1.805-2.048-2.712-3.459-1.486l-1.618 6.474z" fill="#FFBE9D"/><path d="M433.858 210.27c-.228.867.924.738.772 1.505-.152.767-1.028.293-1.206.938-.178.646 1.645 1.162 2.086-1.046.441-2.21-1.459-2.132-1.652-1.396" fill="#BC6C56"/><path d="M432.601 247.183a58.39 58.39 0 00-.887 4.23c-.214 1.249-.685 4.253-.846 9.74-.089 3.006-.087 6.882.211 11.434a97.443 97.443 0 01-7.66 4.133c-4.08 1.97-6.184 2.71-7.418 3.158-2.466.895-4.92 1.402-7.48 1.914-.85.17-.89.699-.729 1.476.372 1.796 1.33 3.436 1.452 5.289.053.814-.035 1.663.976 1.745 1.738.14 3.708-.82 5.32-1.338 2.79-.898 5.567-1.828 8.331-2.804a240.603 240.603 0 007.78-2.916c2.566-1.011 5.214-1.935 7.694-3.143 2.727-1.327 3.416-4.068 3.924-6.88.401-2.223.603-4.473.811-6.72l1.096-11.807c.206-2.227.457-4.458.482-6.697.03-2.787-.369-5.536-.989-8.248l-12.068 7.434z" fill="#FAAE26"/><path d="M407.716 282.421c-7.973-.428-3.102-4.459-12.56 1.211-.366.22-4.575 3.726-.904 3.058 6.193-1.128 7.423.692 11.225 1.381 1.247.226 2.467.122 3.709-.086l-1.47-5.564z" fill="#FFBE9D"/><path d="M513.18 347.043s.458 5.65.61 7.023c.154 1.374 1.528 2.901 1.528 5.497 0 2.595-14.81 5.04-14.81 5.04H490.43l2.442-6.262s7.787-3.206 9.01-4.58c1.22-1.374 2.078-7.94 2.078-7.94l9.22 1.222z" fill="#D08B73"/></g><g transform="translate(490 345.8)"><mask id="J" fill="#fff"><use xlink:href="#I"/></mask><path d="M10.942 3.763s7.205 1.717 8.948 1.634c1.743-.083 7.786.003 7.786.003l-2.358-6.478-20.419-.813 6.043 5.654z" fill="#BC6C56" mask="url(#J)"/></g><g><path d="M515.562 355.973a1.993 1.993 0 00-3.143-1.106c-1.558 1.188-3.454 2.582-4.32 3.015-1.604.802-8.316.307-10.95.307-2.634 0-4.275.152-4.275.152s-7.825 2.902-9.542 3.016c-1.718.114-2.406 2.137-1.146 3.245 1.26 1.106 32.636.992 32.636.992s2.634-1.832 2.06-4.237c-.3-1.271-.86-3.533-1.32-5.384" fill="#282E5B"/><path d="M516.082 240.93s4.122 9.162 3.664 12.673c-.458 3.512-3.36 9.16-3.664 15.726-.306 6.566-3.207 17.71-3.207 19.696 0 1.985.458 12.06.458 12.06s4.352 5.65 5.039 16.414c.687 10.765 1.409 30.689 1.409 30.689s-4.845 1.375-6.906 1.375-10.076-2.29-10.076-2.29.686-19.467 0-22.445c-.688-2.977-2.75-9.847-2.978-11.91-.23-2.06-3.206-3.892-3.206-6.182 0-2.29-2.29-18.551-3.435-19.467-1.146-.916-4.783-19.695-4.567-21.527.215-1.832.72 1.144-.104-4.352-.825-5.496 0-8.245 0-8.245l.256-2.64s7.62-11.794 10.522-12.017c2.9-.223 16.795 2.443 16.795 2.443" fill="#434E84"/></g><g><g transform="translate(488 237.8)"><mask id="L" fill="#fff"><use xlink:href="#K"/></mask><path d="M2.845 14.933s5.564 9.285 13.712 10.053" stroke="#282E5B" stroke-width=".93" stroke-linecap="round" stroke-linejoin="round" mask="url(#L)"/></g><g transform="translate(488 237.8)"><mask id="N" fill="#fff"><use xlink:href="#M"/></mask><path d="M17.242 11.977s-1.71 29.364-1.28 35.755c.428 6.39 6.626 28.69 6.936 30.712.31 2.02 4.42 34.953 4.42 34.953" stroke="#282E5B" stroke-width=".93" stroke-linecap="round" stroke-linejoin="round" mask="url(#N)"/></g><g transform="translate(488 237.8)"><mask id="P" fill="#fff"><use xlink:href="#O"/></mask><path stroke="#282E5B" stroke-width=".93" stroke-linecap="round" stroke-linejoin="round" mask="url(#P)" d="M33.202 8.567L27.7 10.194 13.6 11.976l-19.446 5.346"/></g></g><g><path d="M507.85 175.735s-14.823 8.857-16.809 13.133c-1.984 4.274-3.206 12.824-2.137 15.267 1.07 2.444.305 18.017.305 18.017l-.458 29.16s10.994-3.97 17.56-5.19c6.563-1.221 12.518-2.443 12.518-2.443s-4.123-10.993-4.427-19.848c-.306-8.856 2.137-25.04.61-31.757-1.526-6.718-7.163-16.34-7.163-16.34" fill="#13B5A0"/><path d="M503.66 172.574c10.462-11.465-.257-23.187-4.798-28.46-3.265-3.79-18.767 4.1-19.388 4.82-.99 1.154-1.353 3.436.005 4.157 1.36.72 2.814.943 4.154 1.653 1.718 1.403 3.512 2.75 5.28 4.1-.365 1.277 1.896 2.852 2.768 5.094.854 2.196 4.755 1.186 4.755-2.437 0-1.075 6.078 11.562 7.224 11.072" fill="#282E5B"/><path d="M481.359 153.756c-.407 1.552-.914 3.341-1.005 4.874-.092 1.532.542 1.536 1.003 3.014.46 1.476-1.435 3.621-1.312 5.036.014.167.08.31.174.457.604.94 2.369.726 2.774.67 1.136 2.503 2.289 4.998 3.405 7.511.21.473.562 1.05 1.179 1.381 1.726.93 4.114-.793 4.889-1.35 2.639-1.905 3.585-4.687 3.879-5.739.939-3.359.013-6.195-.397-7.257l-3.17 1.341c-.208-.577-1.161-3.18-2.127-4.719-.351-.558-.568-.75-.822-.887-.837-.449-1.71.085-2.313-.97-.805-1.412-1.459-3.93-2.969-3.873-1.512.06-1.867.456-3.188.511" fill="#D08B73"/><path d="M509.34 177.457a113.69 113.69 0 01-2.548-2.989c-.66-.804-1.101-1.363-1.421-2.234a6.01 6.01 0 01-.358-1.857 4.852 4.852 0 01-.888-.994c-.582-.872-.711-1.7-.774-1.993-.187-.86-.876-2.056-3.13-3.48.048-.352.471-3.807-1.613-5.583a4.802 4.802 0 00-1.87-.934c-3.358-.86-4.448 2.666-2.015 5.05 2.922 2.864 2.269 6.541.834 8.802-.915 1.442-1.425 2.535-1.836 3-.145.164-.45.51-.808.813-.492.418-1.616.807-4.43 1.961 2.157-.884 4.792 1.334 5.87 3.687 1.109 2.421-.084 4.456.775 5.204 1.01.88 4.434-.383 14.212-8.453" fill="#D08B73"/></g><g transform="translate(488 156.8)"><mask id="R" fill="#fff"><use xlink:href="#Q"/></mask><path fill="#BC6C56" mask="url(#R)" d="M.972 19.355l7.793-8.723L4.868 23.19-.83 19.82z"/></g><g><path d="M499.896 192.754l10.991 24.078c-2.418.341-12.05-13.679-10.99-16.425.93-2.412 0-7.653 0-7.653" fill="#148A77"/><path d="M516.998 197.035l6.642 21.527s2.06 3.322 1.374 4.925c-.688 1.603-6.413 8.588-6.413 8.588s-14.124 14.963-15.344 15.88c-1.222.915-1.222 5.647-1.451 6.641-.23.992-3.817 3.74-4.886 4.122-1.068.381-5.496-5.038-5.572-5.726-.077-.686.61-2.672.38-3.282-.228-.612-2.67.534-3.052-.612-.382-1.144 1.068-2.9 1.984-2.9.916 0 5.802.305 6.566-.306.763-.61 15.42-24.123 14.962-25.955-.458-1.833-2.748-2.977-3.664-5.039-.917-2.06-5.955-16.489-5.955-16.489l14.429-1.374z" fill="#D08B73"/></g><g transform="translate(488 196.8)"><mask id="T" fill="#fff"><use xlink:href="#S"/></mask><path d="M17.272 9.277s5.083-4.064 6.594-4.529c1.51-.465 6.964 1.425 6.964 1.425l-1.619-5.028s-5.46-1.162-7.437 0c-1.976 1.162-6.106 4.934-6.106 4.934l1.604 3.198z" fill="#BC6C56" mask="url(#T)"/></g><g><path d="M507.837 175.279s7.939 6.718 9.466 11.909c1.526 5.192 1.526 14.046 1.526 14.046s-3.434-2.595-5.038-2.137c-1.603.458-6.526 2.977-7.329 3.779-.801.8-1.831 1.259-1.831 1.259l-7.1-9.275s-4.962-6.45-4.2-7.824c.765-1.375 3.513-6.871 14.506-11.757" fill="#13B5A0"/><path d="M498.029 161.457c-.058-.1.283-.29.3-.627.046-.307-.325-.917-.86-1.177-.538-.26-1.21-.154-1.485.1-.343.314-.698.527-.751.417-.038-.094.068-.308.363-.782.372-.534 1.327-.819 2.2-.413.832.441 1.296 1.3 1.048 1.995a.827.827 0 01-.542.515c-.165.034-.255.02-.273-.028" fill="#EE5F43"/><path d="M129.246 360.76c-.1-1.365-1.177-2.388-1.895-3.432-1.396-2.031-2.515-4.037-3.118-6.368-.494-1.913-.777-3.702-.858-5.631-.048-1.14.119-2.274.075-3.408-.013-.339-.016-.758-.167-1.022-.151-.265-.611-.243-.715-.386-.078-.108-.012-.029-.012-.029.912-1.018 1.76-2.082 2.646-3.119.404.18.736.363 1.163.53.942.369 1.926.81 2.972.756 1.916-.101 3.287-2.241 4.312-3.42 5.592-6.435 10.243-12.979 13.769-20.566 1.868-4.022 2.605-7.807 3.623-11.993.463-1.905 1.013-3.64 1.546-5.492.278-.964.497-1.926.534-2.91.05-1.306-.364-2.408-.765-3.62-13.79-10.036-27.577-17.059-44.385-21.156-6.965.383-18.734 2.515-23.701 5.955-4.967 3.44-4.495 6.33-5.343 10.144-.85 3.815-.054 5.689.852 8.81.682 2.348 2.01 4.376 3.782 5.855 1.49 1.244 3.387 1.385 5.22 1.454 3.472.131 7.037-.581 10.425-1.213 7.415-1.382 14.71-2.793 22.186-3.383 1.769-.138 3.409.068 5.066-.032 1.658-.099 3.075-.365 4.667-.509 1.204-.108 2.362-.271 3.459.256.394.19.755.545.84.878.086.333 0 .505-.025.723-.096.808-.472 1.432-.778 2.151-.67 1.576-1.151 3.008-1.936 4.586-1.516 3.051-3.251 5.906-5.471 8.645-2.221 2.739-4.36 5.42-7.112 7.861-2.385 2.116-5.203 4.39-7.126 7.009-.491.669.017 1.422-.338 2.117-.008.014-.015.003-.015.003-.634.636-1.264 1.273-1.894 1.908-.061-.085-.088-.191-.155-.275-.461-.586-.844-.849-1.653-.69-1.73.34-3.216 1.115-4.798 2.009-1.581.895-3.521 1.828-4.634 3.362-.44.607-.61 1.223-.281 1.958.539 1.212 1.664 2.156 2.579 3.084 2.357 2.391 4.668 4.643 7.013 7.046 3.568 3.658 7.055 7.412 10.96 10.771 1.482 1.273 3.129 2.487 4.91 3.327.806.38 1.68.708 2.565.472 1.346-.36 2.112-1.65 2.01-3.016" fill="#282E5B"/><path d="M85.54 245.678c.509 2.411 1.564 4.749 2.749 6.898.59 1.069 1.302 2.047 2.267 2.806 1.624 1.278 3.674 1.994 5.607 2.652 2.86.975 5.776 1.801 8.67 2.67 4.65 1.397 7.028 1.911 7.702 2.041 2.882.556 7.193 1.028 12.748.305a12.072 12.072 0 003.265 2.902 11.907 11.907 0 004.306 1.588c1.007.153 1.839.189 3.374.101.952-.055 1.906-.219 2.862-.144 1.458.116 2.789.814 4.224 1.048 1.285.209 2.764-.314 2.834-1.824.014-.277-.06-.546-.93-1.704a35.283 35.283 0 00-1.73-2.124 88.404 88.404 0 01-4.364-1.098c-5.226-1.456-8.222-2.401-13.42-3.531-.337-.06-.85-.155-1.465-.292-6.152-1.364-8.191-3.546-15.757-7.454-5.08-2.625-7.338-3.282-9.91-6.296a18.712 18.712 0 01-1.93-2.732l-11.102 4.188z" fill="#BC6C56"/><path d="M86.254 219.955c-.795-.068-.585-.245-3.037-.995-2.2-.673-3.298-1.05-3.708-1.432-.354-.327-.828-.922-1.072-2.018-.277.017-2.703.132-4.244-1.712-1.406-1.68-1.484-4.282-.097-6.323-.322-.64-1.563-3.287-.67-6.535 1.045-3.815 4.215-5.485 4.733-5.748-.033-.217-.507-3.763 2.217-6.094 1.965-1.683 4.791-2.046 7.203-.924 1.388-2.303 3.964-3.544 6.465-3.14 3.075.497 4.48 3.232 4.617 3.51.848.292 3.285 1.264 4.554 3.715 1.666 3.22.644 7.698-2.752 10.77a46.8 46.8 0 01-2.684 5.495c-2.054 3.59-3.945 5.79-4.357 6.265-2.585 2.973-4.678 5.38-7.169 5.166" fill="#282E5B"/><path d="M152.548 349.272a84.25 84.25 0 01-.762-3.947l-9.604-1.757-4.11 5.143.939 7.326 15.396-.217-1.86-6.548z" fill="#D08B73"/><path d="M71.14 286.586c-.56 2.957-.46 5.573.663 8.386.846 2.117 1.995 4.484 3.805 5.947 1.52 1.23 3.567 1.641 5.445 1.945 3.56.578 7.203.675 10.802.648 7.876-.06 15.68-.638 23.558-.18 1.864.108 3.73.264 5.596.115 1.757-.139 3.488-.497 5.24-.68 1.326-.14 2.734-.266 4.058-.047.476.078.98.19 1.205.66.111.234.113.524.14.777.093.938.15 1.88.232 2.818.183 2.058.392 4.114.606 6.17.414 3.97.97 7.915 1.526 11.868.54 3.847 1.113 7.693 1.428 11.57.271 3.358.15 7.038 1.104 10.306.262.893.675 1.828 1.73 1.832 1.217.004 2.507-.58 3.683-.858 2.02-.47 4.04-.933 6.048-1.45 1.672-.43 3.347-.888 4.96-1.51.86-.333 1.844-.708 2.523-1.359 1.243-1.193.507-3.615.318-5.065-1.035-7.913-2.057-15.818-3.374-23.688-.698-4.172-1.479-8.34-2.022-12.537-.247-1.91-.337-3.814-.468-5.733-.07-.999-.207-1.98-.568-2.918-.478-1.245-1.243-2.36-2.036-3.42L100.79 273.47s-19.192 0-24.07 3.578c-4.88 3.578-5.58 9.54-5.58 9.54" fill="#0254A9"/><path d="M138.108 351.41c-.746-.2-1.206-.02-1.613.654-.872 1.444-1.142 3.333-1.395 4.963-.294 1.892-.609 3.984-.317 5.896.115.755.378 1.418 1.122 1.725 1.226.505 2.784.362 4.078.368 3.331.02 6.663.036 9.994.053 5.071.027 10.231.29 15.287-.155 1.92-.169 3.933-.44 5.734-1.155.814-.324 1.673-.784 2.143-1.555.714-1.173.362-2.927-.608-3.857-.956-.917-2.462-.953-3.686-1.15-2.381-.383-4.708-1.133-6.909-2.109-1.807-.802-3.539-1.796-5.052-3.075-.894-.756-1.688-1.629-2.595-2.372-.271-.22-.586-.498-.932-.593-.979-.273-1.353 1.188-1.717 1.807a4.535 4.535 0 01-1.79 1.712c-2.788 1.518-5.654.986-8.497-.038-1.072-.386-2.144-.824-3.247-1.12" fill="#282E5B"/><path d="M80.013 221.421c-.857 1.174-1.4 2.61-1.95 3.943a83.209 83.209 0 00-1.904 5.113c-1.176 3.48-2.165 7.03-2.867 10.635-1.507 7.742-1.809 15.636-2.294 23.488-.229 3.701-.494 7.397-.75 11.096-.195 2.813-.032 5.748 1.137 8.36.382.85 1.112 2.223 2.255 1.841.575-.193 1.056-.73 1.456-1.156.986-1.047 1.871-2.16 3.047-3.007 2.65-1.905 6.122-2.73 9.224-3.57 3.61-.978 7.292-1.499 10.915-2.376a20.948 20.948 0 002.263-.692c.633-5.987 1.245-11.975 2.04-17.932.805-6.053.586-12.426-1.177-18.359-.905-3.04-2.203-5.988-3.905-8.668-1.778-2.798-4.263-5.316-6.31-7.953l-9.813-2.115-1.367 1.352z" fill="#12A189"/></g><g transform="translate(70 219.8)"><mask id="V" fill="#fff"><use xlink:href="#U"/></mask><path d="M9.16 18.597c.037 3.637.11 3.638.278 7.27.18 3.908.076 7.918 1.167 11.714 1.012 3.516 3.368 7.625 7.483 7.653 1.017.007 4.912-.394 5.113-1.446.064-.328-.535-1.245-.666-1.55l-7.16-16.671c-.098-.228-.176-.494-.304-.708l-5.91-6.262z" fill="#148A77" mask="url(#V)"/></g><path d="M89.39 262.645c.283 2.447 1.118 4.873 2.1 7.123.488 1.118 1.106 2.158 1.997 3.003 1.5 1.424 3.474 2.326 5.338 3.16 6.506 2.912 4.198 2.064 8.385 3.46 8.308 2.769 18.215 4.834 20.903 5.382 3.002 3.159 5.427 3.83 6.367 4.016.438.085 1.74.355 3.35.412.953.033 1.917-.042 2.863.122 1.441.249 2.702 1.068 4.11 1.433 1.258.327 2.78-.057 2.99-1.553.1-.704-.299-1.3-.769-1.784-2.212-2.271-4.927-3.392-5.238-3.496a271.709 271.709 0 00-11.504-3.568c-7.795-5.215-13.49-8.335-17.84-10.352-2.243-1.04-6.814-2.9-9.94-7.603-.618-.93-1.195-1.888-1.67-2.9l-11.442 3.145z" fill="#D08B73"/><g transform="translate(89 258.8)"><mask id="X" fill="#fff"><use xlink:href="#W"/></mask><path d="M-1.059 6.97s5.692-2.764 7.644-2.872c1.952-.108 9.162-.76 9.162-.76l-3.741-5.096-12.74 4.365-.325 4.364z" fill="#BC6C56" mask="url(#X)"/></g><path d="M94.142 223.368a7.31 7.31 0 011.932-2.73c1.096-.96 2.491-1.245 3.85-1.663.887-.272 1.715-.545 1.78-1.576.006-.09 1.201-6.876 1.276-6.966.342-.41 1.13-.34 1.585-.503 2.571-.91-.809-4.584-1.42-5.549-.538-.848-.129-1.363-.144-2.304-.01-.575-.314-1.082-.516-1.605-.237-.616-.269-1.22-.299-1.876a15.55 15.55 0 00-.13-1.293c-.738.39-.496-.092-1.295-.078-.91.02-1.152.846-1.415 1.596-.452 1.287-.84 2.318-1.835 3.284-.86.835-1.645 1.523-1.883 2.744-.079.405.275 4.8-1.337 3.717-.8-.537-.733-2.39-.874-3.15-.193-1.054-.748-1.595-1.499-2.33-.964-.945-1.15-2.743-2.948-2.263-2.373.634-1.227 3.46-.829 4.98.253.964.598 2.201 1.37 2.896.586.528 1.278.382 1.953.106a1.99 1.99 0 00-.12.197c-.45.858.073 1.681.093 2.42.033 1.228-1.325 2.201-1.96 2.656-1.674 1.2-3.514 1.063-4.058 1.003a5.401 5.401 0 01-4.244 2.258l12.967 6.03z" fill="#D08B73"/><g transform="translate(81 196.8)"><mask id="Z" fill="#fff"><use xlink:href="#Y"/></mask><path d="M19.838 21.94c.38.53-6.156.416-9.13-3.495 1.046 2.927 6.507 7.752 6.507 7.752l2.623-4.258z" fill="#BC6C56" mask="url(#Z)"/></g><g><path d="M77.936 222.09c-.943-.268.827-2.743 1.051-3.054.721-1 1.637-1.698 2.892-1.823 1.538-.154 3.185.272 4.567.923 2.503 1.18 4.827 3.003 7.007 4.688 1.706 1.321 3.617 2.768 4.758 4.638.275.45.487.934.623 1.443.095.36.148.725.192 1.094.053.441.267 1.115.15 1.558-.13.487-.375.15-.644-.145-.938-1.022-1.694-2.218-2.545-3.309-1.594-2.045-3.53-3.614-5.77-4.915-1.658-.962-3.48-1.706-5.41-1.846-2.177-.157-4.19.632-6.33.767a1.957 1.957 0 01-.54-.02" fill="#148A77"/><path d="M79.125 237.385c1.669 5.976 3.073 12.03 4.8 17.987.584 2.014 1.192 4.203 2.51 5.881.832 1.06 2.229 1.513 2.229 1.513.44.212.715.344 1.066.417 1.153.24 1.977-.391 3.253-.977 2.254-1.035 2.404-.317 4.879-1.423 1.344-.599 1.61-.95 2.667-1.129.573-.098 1.082-.096 1.318-.457.325-.495-.111-1.306-.221-1.524-.192-.377.349.128-1.273-7.742-1.218-5.908-2.002-11.972-4.106-17.654a43.405 43.405 0 00-.868-2.148l-16.254 7.256z" fill="#12A189"/><path d="M90.974 205.717c-.208-1.043-1.057-.422-1.279-1.323-.223-.902.676-.749.53-1.53-.149-.78-1.814-.585-1.174 2.015.641 2.6 2.1 1.724 1.923.838" fill="#BC6C56"/><path d="M116.258 310.708H76.014a2.03 2.03 0 01-2.03-2.029v-4.404a2.03 2.03 0 012.03-2.029h40.244c1.121 0 2.03.908 2.03 2.03v4.403a2.03 2.03 0 01-2.03 2.03M63.37 275.44c0-7.2.185-14.31-.09-21.477-.181-4.743-.146-9.52.546-14.225.305-2.07 1.69-11.52 5.795-9.737.792.343 1.146 1.464 1.28 1.993l-.545 43.446c0 1.89-1.264 3.42-2.824 3.42h-1.338c-1.56 0-2.824-1.53-2.824-3.42" fill="#346EC1"/><path d="M63.186 251.065v45.462a13.812 13.812 0 0013.808 13.809h34.012" stroke="#034C8A" stroke-width="3.443" stroke-linecap="round" stroke-linejoin="round"/><path fill="#034C8A" d="M91.627 360.083h3.445v-49.375h-3.445z"/><path stroke="#034C8A" stroke-width=".973" stroke-linecap="round" stroke-linejoin="round" d="M91.627 360.083h3.445v-49.375h-3.445z"/><path fill="#034C8A" d="M88.87 350.155h8.959V333.27H88.87z"/><path stroke="#034C8A" stroke-width=".973" stroke-linecap="round" stroke-linejoin="round" d="M88.87 350.155h8.959V333.27H88.87z"/><path d="M123.512 361.74c-4.012-2.666-15.148-9.308-30.803-9.124-14.893.175-25.468 6.428-29.523 9.124v-2.798c4.264-2.713 14.82-8.62 29.523-8.786 15.457-.177 26.567 6.094 30.803 8.786v2.798z" fill="#034C8A"/><path d="M123.512 361.74c-4.012-2.666-15.148-9.308-30.803-9.124-14.893.175-25.468 6.428-29.523 9.124v-2.798c4.264-2.713 14.82-8.62 29.523-8.786 15.457-.177 26.567 6.094 30.803 8.786v2.798z" stroke="#034C8A" stroke-width=".973" stroke-linecap="round" stroke-linejoin="round"/><path d="M67.044 361.74a3.857 3.857 0 10-7.715 0 3.857 3.857 0 007.715 0" fill="#034C8A"/><path d="M67.044 361.74a3.857 3.857 0 10-7.715 0 3.857 3.857 0 007.715 0z" stroke="#034C8A" stroke-width=".973" stroke-linecap="round" stroke-linejoin="round"/><path d="M127.37 361.74a3.857 3.857 0 10-7.715 0 3.857 3.857 0 007.715 0" fill="#034C8A"/><path d="M127.37 361.74a3.857 3.857 0 10-7.715 0 3.857 3.857 0 007.715 0z" stroke="#034C8A" stroke-width=".973" stroke-linecap="round" stroke-linejoin="round"/><path d="M96.992 361.74a3.643 3.643 0 10-7.286 0 3.643 3.643 0 007.286 0" fill="#034C8A"/><path d="M96.992 361.74a3.643 3.643 0 10-7.286 0 3.643 3.643 0 007.286 0z" stroke="#034C8A" stroke-width=".973" stroke-linecap="round" stroke-linejoin="round"/><path d="M203.909 304.472h40.244a2.028 2.028 0 002.029-2.03v-4.403a2.03 2.03 0 00-2.03-2.03H203.91a2.03 2.03 0 00-2.03 2.03v4.404c0 1.12.909 2.029 2.03 2.029" fill="#346EC1"/><path d="M246.182 303.857H201.88" stroke="#034C8A" stroke-width="3.053" stroke-linecap="round" stroke-linejoin="round"/><path fill="#034C8A" d="M222.308 360.083h3.445v-55.611h-3.445z"/><path stroke="#034C8A" stroke-width="1.033" stroke-linecap="round" stroke-linejoin="round" d="M222.308 360.083h3.445v-55.611h-3.445z"/><path fill="#034C8A" d="M219.551 350.155h8.959V333.27h-8.959z"/><path stroke="#034C8A" stroke-width=".973" stroke-linecap="round" stroke-linejoin="round" d="M219.551 350.155h8.959V333.27h-8.959z"/><path d="M193.868 361.74c4.012-2.666 15.148-9.308 30.803-9.124 14.893.175 25.469 6.428 29.523 9.124v-2.798c-4.264-2.713-14.82-8.62-29.523-8.786-15.457-.177-26.567 6.094-30.803 8.786v2.798z" fill="#034C8A"/><path d="M193.868 361.74c4.012-2.666 15.148-9.308 30.803-9.124 14.893.175 25.469 6.428 29.523 9.124v-2.798c-4.264-2.713-14.82-8.62-29.523-8.786-15.457-.177-26.567 6.094-30.803 8.786v2.798z" stroke="#034C8A" stroke-width=".973" stroke-linecap="round" stroke-linejoin="round"/><path d="M250.337 361.74a3.857 3.857 0 117.714 0 3.857 3.857 0 01-7.714 0" fill="#034C8A"/><path d="M250.337 361.74a3.857 3.857 0 117.714 0 3.857 3.857 0 01-7.714 0z" stroke="#034C8A" stroke-width=".973" stroke-linecap="round" stroke-linejoin="round"/><path d="M190.01 361.74a3.858 3.858 0 117.716.001 3.858 3.858 0 01-7.716-.001" fill="#034C8A"/><path d="M190.01 361.74a3.858 3.858 0 117.716.001 3.858 3.858 0 01-7.716-.001z" stroke="#034C8A" stroke-width=".973" stroke-linecap="round" stroke-linejoin="round"/><path d="M220.388 361.74a3.643 3.643 0 117.286 0 3.643 3.643 0 01-7.286 0" fill="#034C8A"/><path d="M220.388 361.74a3.643 3.643 0 117.286 0 3.643 3.643 0 01-7.286 0z" stroke="#034C8A" stroke-width=".973" stroke-linecap="round" stroke-linejoin="round"/></g><g><g transform="translate(184 270.8)"><mask id="ab" fill="#fff"><use xlink:href="#aa"/></mask><path d="M31.502 26.474s-11.086 6.767-14.51 6.767c-3.424 0 3.913.733 4.556 7.44.36 3.774 9.954-14.207 9.954-14.207" fill="#282E5B" mask="url(#ab)"/></g><g transform="translate(184 270.8)"><mask id="ad" fill="#fff"><use xlink:href="#ac"/></mask><path d="M29.632 68.33s-11.086 2.566-14.51 2.566c-3.424 0 3.913.28 4.556 2.824.361 1.431 9.954-5.39 9.954-5.39" fill="#282E5B" mask="url(#ad)"/></g><g transform="translate(184 270.8)"><mask id="af" fill="#fff"><use xlink:href="#ae"/></mask><path d="M58.117 25.218s6.464 3.864 9.887 3.864c3.424 0-6.518 2.3-6.518 6.09 0 3.792-3.37-9.954-3.37-9.954" fill="#282E5B" mask="url(#af)"/></g><g transform="translate(184 270.8)"><mask id="ah" fill="#fff"><use xlink:href="#ag"/></mask><path d="M58.117 62.974s6.464 3.864 9.887 3.864c3.424 0-6.518 2.3-6.518 6.09s-3.37-9.954-3.37-9.954" fill="#282E5B" mask="url(#ah)"/></g><path d="M248.76 344.39s-3.587 10.434-4.076 14.998c-.489 4.565.651 6.848 2.038 6.848 1.385 0 14.917-1.092 14.917-1.092s2.282-3.636 2.282-4.288c0-.653-2.77-7.337-2.77-9.456 0-2.12-1.957-7.01-1.957-7.01H248.76zM189.254 344.39v8.314s-7.336 6.847-7.336 9.129c0 2.284 3.006 4.09 5.126 3.764 2.12-.326 12.855.299 13.833-.68.98-.977 1.256-12.865 1.256-12.865l-1.63-7.662h-11.25z" fill="#282E5B"/><path d="M206.372 271.027s-9.781 4.564-13.368 9.618c-3.587 5.055-4.891 4.566-6.522 6.685-1.63 2.119-1.956 3.75-.814 6.358 1.14 2.609 1.793 47.93 1.793 47.93v6.195s3.79-1.14 5.584-.977c1.793.163 6.643.977 8.436 1.303 1.793.326 1.142-5.543 1.142-5.543l1.467-4.727s1.304-30.813 2.282-33.421c.979-2.61 9.13-7.174 9.13-7.174s0-1.304 8.804 0c8.803 1.305 17.28-2.935 19.237-.651 1.956 2.282 2.282 13.694 2.282 19.889 0 6.195.652 10.434 0 14.02-.651 3.587 1.305 13.043 1.63 14.348.327 1.303.218 2.822.218 2.822s1.739-1.193 5-1.193c3.26 0 8.803-.326 8.803-.326s-2.282-7.5 0-12.39c2.283-4.891 3.26-23.15 3.26-28.368 0-5.216 2.283-15.324 0-19.237-2.282-3.912-24.128-15.161-24.128-15.161h-34.236z" fill="#434E84"/><path d="M215.665 213.559c-9.702 3.927-21.487 6.727-24.358 18.003-.705 2.767-1.068 5.614-1.815 8.37-.513 1.895-2.505 4.94-1.57 6.907 1.262 2.65 5.575 6.308 8.092 6.502l19.65 25.348 22.499-5.38 13.042-24.78 4.076-1.223s2.446.244 2.446-1.06c-.001-3.177-1.402-6.778-2.116-9.843-1.05-4.504-1.484-10.23-3.51-14.344-2.34-4.757-8.42-4.934-13.02-6.048a946.537 946.537 0 00-10.374-2.452h-13.042z" fill="#4485F4"/><g transform="translate(187 212.8)"><mask id="aj" fill="#fff"><use xlink:href="#ai"/></mask><path d="M47.576 1.894c0 5.943-5.397 10.76-12.055 10.76-6.658 0-12.055-4.817-12.055-10.76 0-5.942 5.397-10.76 12.055-10.76 6.658 0 12.055 4.818 12.055 10.76z" stroke="#1D5F9F" stroke-width=".903" fill="#1D5F9F" mask="url(#aj)"/></g><path d="M212.486 219.672c3.668 2.445 6.702 3.424 10.626 3.057 3.924-.367 11.551-7.776 11.551-7.776l-1.513-5.388-20.664 2.893v7.214z" fill="#BC6C56"/><g><path d="M209.47 190.326s-.327 14.836 0 19.238c.325 4.402 5.216 9.455 8.313 9.945 3.098.49 6.685 2.12 8.478 0 1.794-2.12 6.358-4.882 7.174-8.473.814-3.592-.326-13.699 0-14.84.326-1.14-.816-9.456-2.609-11.087-1.794-1.63-7.018-2.119-9.296-2.119-2.279 0-10.593 1.142-12.06 7.336" fill="#363A68"/><path d="M212.893 195.055s-1.63 7.173-1.468 9.455c.163 2.283.163 6.685 2.12 6.522 1.956-.164 4.076-4.891 7.826-4.891s5.38 3.912 7.825 3.749c2.445-.162 2.934-2.934 3.097-7.5.163-4.564-3.587-12.064-5.869-12.064-2.282 0-1.473 2.284-4.567 2.284-3.095 0-3.258-2.284-5.377-2.284-2.12 0-3.587 4.729-3.587 4.729" fill="#F89D71"/><path d="M243.053 249.995s2.385-3.627 5.32-3.872c2.934-.244 8.07.266 8.07.266l-3.119 19.502s.978 2.201.245 3.301c-.734 1.1-4.402 2.446-4.402 2.446l-19.93 11.615h-1.712l-.979-2.323-2.689-.489-2.079 2.812h-2.446v-7.092l3.791-2.323 2.812 1.835s13.206-8.179 14.918-10.449l1.711-2.268.49-12.96z" fill="#D08B73"/></g><path d="M204.172 249.63l.488 13.082 14.673 13.45v7.091h2.445l2.08-2.812 2.689.49.979 2.322s3.056.734 3.3 1.59c.245.856-1.711 7.092-2.69 7.336-.978.245-7.824-.612-7.824-.612l-5.992-4.034s.245-7.337 0-8.437c-.245-1.1-16.996-7.947-18.586-9.904-.665-.818-.994-2.382-1.834-5.379-1.769-6.304-3.218-12.906-3.627-16.426 1.287-.33 3.465.017 5.216-.064 3.915-.18 6.622 1.535 8.682 2.306" fill="#BC6C56"/></g><g><path d="M398.077 267.759h-266.17a3.602 3.602 0 00-3.601 3.602v2.365a3.603 3.603 0 003.602 3.601h266.169a3.602 3.602 0 003.602-3.601v-2.365a3.602 3.602 0 00-3.602-3.602" fill="#C4422B"/><path d="M398.077 275.238h-266.17a3.602 3.602 0 01-3.601-3.602v2.09a3.603 3.603 0 003.602 3.602h266.169a3.602 3.602 0 003.602-3.602v-2.09a3.602 3.602 0 01-3.602 3.602" fill="#C4422B"/><path d="M355.494 277.327l1.11 1.913a6.422 6.422 0 005.557 3.2h12.56l-.514-5.113h-18.713z" fill="#434E84"/><path fill="#282E5B" d="M374.721 282.44l8.386 83.296h3.708v-88.408h-12.609z"/><path d="M155.263 282.44h12.561a6.422 6.422 0 005.556-3.2l1.111-1.912h-18.713l-.515 5.113z" fill="#434E84"/><path fill="#282E5B" d="M143.17 277.327v88.408h3.708l8.9-88.408z"/><path fill="#434E84" d="M200.896 265.072h-29.372l10.88-35.39h29.371z"/><path fill="#282E5B" d="M203.343 265.072h-29.372l10.88-35.39h29.371z"/><path fill="#434E84" d="M143.17 267.759h53.919v-3.744H143.17z"/><path fill="#282E5B" d="M170.129 267.759h31.012v-3.744h-31.012z"/><path d="M197.407 248.052c.429-1.956-.144-3.844-1.276-4.216-1.134-.373-2.4.91-2.828 2.866-.428 1.956.143 3.844 1.277 4.216 1.133.373 2.398-.91 2.827-2.866" fill="#BEC6C4"/><path fill="#434E84" d="M237.736 265.073h44.751v-35.391h-44.751z"/><path fill="#282E5B" d="M239.167 265.073h47.049v-35.391h-47.049z"/><path fill="#282E5B" d="M239.344 267.759h45.411v-2.687h-45.411z"/><path d="M265.589 247.377a3.539 3.539 0 10-7.079 0 3.539 3.539 0 007.079 0" fill="#BEC6C4"/><path fill="#434E84" d="M338.546 265.072h29.374l-10.88-35.39h-29.372z"/><path fill="#282E5B" d="M336.1 265.072h29.371l-10.879-35.39H325.22z"/><path fill="#434E84" d="M342.354 267.759h53.919v-3.744h-53.919z"/><path fill="#282E5B" d="M338.301 267.759h31.013v-3.744h-31.013z"/><path d="M342.036 248.052c-.428-1.956.144-3.844 1.277-4.216 1.133-.373 2.399.91 2.827 2.866.429 1.956-.143 3.844-1.276 4.216-1.134.373-2.4-.91-2.828-2.866" fill="#BEC6C4"/><path d="M2.143 366.657h576" stroke="#434E84" stroke-width="4.287" stroke-linecap="round" stroke-linejoin="round"/></g></g></g></svg>