<svg width="607" height="535" xmlns="http://www.w3.org/2000/svg" xmlns:xlink="http://www.w3.org/1999/xlink"><defs><path id="a" d="M.15.175h156.197v34.053H.15z"/><path d="M9.868.073c-.36.102-.878.269-1.49.476-.202.068-.142.736-.36.811-.051.018-.17-.113-.288-.244C7.61.984 7.49.853 7.44.871c-.627.218-1.306.46-1.989.706-.107.039.4 2.15.293 2.188-.061.022-.276-.474-.49-.97-.215-.495-.429-.99-.49-.97l-.792.29c-.247.091-.104 1.478-.34 1.565-.135.05-.365-.226-.591-.503-.226-.276-.449-.55-.572-.505-1.225.458-2.14.811-2.293.887-.884.435 4.535 8.061 5.552 9.559 1.001 1.473 2.333 2.626 3.927 2.756a2.897 2.897 0 003.123-2.652C12.905 11.662 11.78.056 9.986.057a.435.435 0 00-.119.016" id="b"/><path d="M9.868.073c-.36.102-.878.269-1.49.476-.202.068-.142.736-.36.811-.051.018-.17-.113-.288-.244C7.61.984 7.49.853 7.44.871c-.627.218-1.306.46-1.989.706-.107.039.4 2.15.293 2.188-.061.022-.276-.474-.49-.97-.215-.495-.429-.99-.49-.97l-.792.29c-.247.091-.104 1.478-.34 1.565-.135.05-.365-.226-.591-.503-.226-.276-.449-.55-.572-.505-1.225.458-2.14.811-2.293.887-.884.435 4.535 8.061 5.552 9.559 1.001 1.473 2.333 2.626 3.927 2.756a2.897 2.897 0 003.123-2.652C12.905 11.662 11.78.056 9.986.057a.435.435 0 00-.119.016" id="d"/><path d="M9.868.073c-.36.102-.878.269-1.49.476-.202.068-.142.736-.36.811-.051.018-.17-.113-.288-.244C7.61.984 7.49.853 7.44.871c-.627.218-1.306.46-1.989.706-.107.039.4 2.15.293 2.188-.061.022-.276-.474-.49-.97-.215-.495-.429-.99-.49-.97l-.792.29c-.247.091-.104 1.478-.34 1.565-.135.05-.365-.226-.591-.503-.226-.276-.449-.55-.572-.505-1.225.458-2.14.811-2.293.887-.884.435 4.535 8.061 5.552 9.559 1.001 1.473 2.333 2.626 3.927 2.756a2.897 2.897 0 003.123-2.652C12.905 11.662 11.78.056 9.986.057a.435.435 0 00-.119.016" id="f"/><path id="h" d="M.038.02h190.025v39.644H.038z"/></defs><g fill="none" fill-rule="evenodd"><path d="M164.086 535c14.032 0 27.283-3.183 39.385-9.46 7.223-3.75 13.997-8.606 20.133-14.438 25.159-23.923 37.586-60.105 49.603-95.095l2.068-6.008c11.553-33.471 25.418-66.443 48.446-80.945 9.07-5.713 19.171-8.49 30.88-8.49 21.627 0 44.54 9.903 59.894 17.352 3.332 1.617 6.677 3.271 10.034 4.933 25.638 12.69 52.155 25.812 80.211 25.812h.001c5.271 0 10.496-.478 15.531-1.422 7.695-1.44 15.33-4.116 22.695-7.95 24.46-12.744 44.528-37.375 55.06-67.579 5.101-14.626 8.057-32.023 8.79-51.707.9-24.293-1.506-52.542-7.357-86.36-3.542-20.47-11.218-49.967-27.662-74.256-11.362-16.777-25.092-28.389-40.81-34.513C520.984 40.976 510.323 39 499.302 39c-31.313 0-59.513 15.656-77.655 28.79-15.978 11.567-30.963 25.578-45.453 39.127-26.745 25.008-52.006 48.63-82.01 56.857-8.18 2.244-16.697 3.335-26.035 3.335-20.552-.002-41.297-5.428-58.88-10.739a959.936 959.936 0 01-10.096-3.118l-5.692-1.796c-24.515-7.747-49.866-15.756-76.1-16.565a130.558 130.558 0 00-3.84-.058c-22.616 0-43.784 6.08-61.216 17.583-10.476 6.913-19.536 15.74-26.925 26.237C9.042 201.884.021 234.648 0 270.91c-.01 16.576 1.744 33.835 5.36 52.76 2.267 11.859 5.322 24.614 9.34 39 12.382 44.327 27.156 79.097 45.164 106.297 8.942 13.502 18.811 25.242 29.334 34.894 21.58 19.79 48.876 31.14 74.888 31.14" fill-opacity=".104" fill="#0875BE"/><path d="M462.025.191v69.515l-47.313 63.302a1.595 1.595 0 00.32 2.23 1.59 1.59 0 002.228-.32l46.357-62.022 46.357 62.022a1.588 1.588 0 002.227.32 1.595 1.595 0 00.321-2.23l-47.314-63.302V.191h-3.183z" fill="#511A54"/><path d="M377.498 323.215c0 8.003-13.224 13.318-21.217 13.318-7.993 0-16.647-7.276-16.647-15.28 0-4.264-1.959-21.556-1.959-21.556h-30.463v103.278h103.142V299.697h-32.366s-.49 19.254-.49 23.518" fill="#80E3CF"/><path d="M477.652 299.698c-4.327 0-7.834-3.512-7.834-7.845 0-1.585.806-3.08 2.166-3.891 3.028-1.807 4.94-4.777 4.94-9.131 0-8.032-6.503-11.111-14.524-11.111-8.022 0-14.524 3.08-14.524 11.111 0 4.403 1.955 7.39 5.042 9.19 1.322.772 2.165 2.158 2.165 3.69v.142c0 4.333-3.507 7.845-7.834 7.845h-36.895v36.417c0 4.332-3.508 7.844-7.834 7.844a4.77 4.77 0 01-4.102-2.341c-1.74-2.931-4.594-4.774-8.852-4.774-7.993 0-11.046 6.489-11.046 14.492 0 8.004 3.053 14.492 11.046 14.492 4.258 0 7.113-1.842 8.852-4.773a4.771 4.771 0 014.102-2.341c4.326 0 7.834 3.511 7.834 7.844v36.417h103.141V299.698h-35.843z" fill="#88CDEA"/><path d="M328 336.844c-4.258 0-7.113 1.843-8.851 4.774a4.772 4.772 0 01-4.103 2.341c-4.326 0-7.834-3.512-7.834-7.844v-36.417H204.071v36.417c0 4.332-3.508 7.844-7.834 7.844a4.606 4.606 0 01-3.97-2.242c-1.769-2.989-4.678-4.873-8.984-4.873-7.993 0-11.046 6.489-11.046 14.493 0 8.003 3.053 14.491 11.046 14.491 4.306 0 7.215-1.883 8.984-4.872a4.606 4.606 0 013.97-2.243c4.326 0 7.834 3.512 7.834 7.845v36.417h103.141v-36.417c0-4.333 3.508-7.845 7.834-7.845h3.02c1.505 4.259 4.632 7.115 9.934 7.115 7.993 0 11.046-6.488 11.046-14.491 0-8.004-3.053-14.493-11.046-14.493" fill="#F68FA1"/><path d="M299.378 255.436a4.772 4.772 0 00-4.102 2.341c-1.739 2.931-4.594 4.774-8.851 4.774-7.994 0-11.046-6.489-11.046-14.492 0-8.004 3.052-14.492 11.046-14.492 4.257 0 7.112 1.842 8.85 4.773a4.772 4.772 0 004.103 2.341c4.327 0 7.834-3.511 7.834-7.844V196.42h-36.37c-4.326 0-7.833-3.512-7.833-7.845a4.78 4.78 0 012.338-4.107c2.928-1.741 4.768-4.6 4.768-8.863 0-8.004-6.48-11.06-14.473-11.06-7.994 0-14.473 3.056-14.473 11.06 0 4.263 1.84 7.122 4.767 8.863a4.78 4.78 0 012.338 4.107c0 4.333-3.507 7.845-7.834 7.845h-36.37v36.417c0 4.332 3.508 7.844 7.835 7.844a4.77 4.77 0 004.102-2.341c1.739-2.931 4.593-4.773 8.852-4.773 7.993 0 11.045 6.488 11.045 14.492 0 8.003-3.052 14.492-11.045 14.492-4.259 0-7.113-1.843-8.852-4.774a4.771 4.771 0 00-4.102-2.341c-4.327 0-7.834 3.512-7.834 7.844v36.417h36.37c4.326 0 7.833 3.512 7.833 7.845 0 1.687-.89 3.246-2.338 4.107-2.927 1.741-4.767 4.6-4.767 8.864 0 8.003 6.48 11.06 14.473 11.06s14.473-3.057 14.473-11.06c0-4.267-1.842-7.126-4.773-8.867a4.803 4.803 0 01-2.333-4.162c.031-4.306 3.527-7.787 7.834-7.787h36.37V263.28c0-4.332-3.508-7.844-7.835-7.844" fill="#88CDEA"/><path d="M469.654 119.02a4.78 4.78 0 002.338 4.107c2.927 1.742 4.767 4.6 4.767 8.864 0 8.003-6.48 11.06-14.473 11.06s-14.472-3.057-14.472-11.06c0-4.264 1.84-7.122 4.767-8.864a4.78 4.78 0 002.338-4.107c0-4.332-3.507-7.844-7.834-7.844h-36.37v36.417c0 4.332-3.507 7.845-7.833 7.845a4.77 4.77 0 01-4.102-2.342c-1.74-2.931-4.594-4.773-8.852-4.773-7.993 0-10.556 6.488-10.556 14.491 0 8.004 2.563 14.492 10.556 14.492 4.258 0 7.113-1.842 8.852-4.773a4.77 4.77 0 014.102-2.341c4.326 0 7.834 3.512 7.834 7.844v36.417h36.369c4.327 0 7.834-3.512 7.834-7.844a4.78 4.78 0 00-2.339-4.108c-2.927-1.74-4.766-4.6-4.766-8.863 0-8.003 6.48-11.06 14.472-11.06 7.994 0 14.473 3.057 14.473 11.06 0 4.264-1.84 7.123-4.767 8.864a4.78 4.78 0 00-2.338 4.107c0 4.332 3.507 7.844 7.833 7.844h36.37V111.176h-36.37c-4.326 0-7.833 3.512-7.833 7.844" fill="#F4B42E"/><g><path d="M510.217 507.523c-1.5 1.158-3.985.504-5.816-.328-3.564-1.619-6.614-4.01-9.905-6.086l-6.213-3.918-6.293-2.025 1.376-6.256 3.62-1.398a7.66 7.66 0 017.306.98l15.144 11.154c1.724 1.27 2.414 4.045 1.89 6.058-.22.847-.61 1.433-1.109 1.819" fill="#F89D71"/><path d="M438.401 438.153l29.264-.506c2.193 0 4.316.777 5.993 2.193l1.689 1.426c10.27 8.674 13.296 22.66 7.448 34.429a23.632 23.632 0 01-21.158 13.13h-82.494c-5.138 0-9.302-4.408-9.302-9.558v-1.75c0-8.282 4.458-12.206 11.58-15.882 2.418-1.25 4.992-2.171 7.636-2.816l44.381-12.215c2.602-.634 6.004-2.787 4.963-5.26v-3.191z" fill="#2E3062"/><path d="M477.344 482.838a23.602 23.602 0 01-15.707 5.987l-71.176-13.443s89.101 5.48 86.883 7.456" fill="#001030"/><path d="M386.247 495.513l98.391 3.143 1.344-11.924-14.206-1.296-79.683-10.054-22.252.756v2.668c0 7.616 5.091 14.122 12.16 16.12 1.38.39 2.812.565 4.246.587" fill="#2E3062"/><path fill="#001030" d="M471.03 498.221l6.878.22 6.73.214-6.804-11.92z"/><path fill="#2E3062" d="M476.23 499.615l8.408-.96 1.344-11.923-8.828-2.16z"/><path d="M470.764 438.181l-1.826-6.109a40.896 40.896 0 01-1.691-13.044l1.775-54.558-30 2.02-8.434 19.95c-6.872 12.785-.345 20.088 4.816 24.681l2.997 27.032 32.363.028z" fill="#F86382"/><path d="M446.256 370.412l5.78-1.583c.73-.2 1.16-.956.96-1.688L441.787 326a1.37 1.37 0 00-1.684-.964l-10.195 2.792c-.73.2-1.16.956-.961 1.687l10.005 36.717a5.946 5.946 0 007.305 4.18" fill="#F89D71"/><path d="M429.847 327.843a1.313 1.313 0 00-.917 1.612l8.172 29.991a17.904 17.904 0 004.294-6.743l.385-1.084-2.772-26.284-9.162 2.508z" fill="#511A54"/><path d="M419.536 329.117s1.907 16.715 7.443 25.653c1.767 2.852 5.621 4.006 8.353 2.064l8.955-6.796-5.821-32.986-14.895 2.863a10.064 10.064 0 00-4.05 9.037l.015.165z" fill="#F89D71"/><path d="M459.927 392.184c-2.47-3.865-9.222-10.947-13.077-8.47l-18.947 16.018c1 5.091 4.483 8.704 7.5 11.39l.693 6.24 13.096-17.081c3.856-2.476 13.205-4.232 10.735-8.097" fill="#511A54"/><path d="M459.015 386.084c-2.47-3.865-9.222-10.947-13.077-8.47l-32.212 27.233-26.792-15.751-5.058 6.333 29.378 25.326a7.504 7.504 0 008.343.453c.28-.138.557-.292.827-.465l36.083-23.177c3.856-2.477 4.978-7.617 2.508-11.482" fill="#E13C67"/><path d="M374.396 391.198c-.017 1.38-1.704 2.033-2.642 1.022a1.535 1.535 0 01-.292-.454l-9.417-22.704a1.53 1.53 0 01.86-2.014l1.17-.453c.8-.31 1.698.102 1.986.912l8.247 23.157c.06.172.09.352.088.534" fill="#F1605D"/><path d="M365.476 364.69a2.83 2.83 0 01-3.049 2.595c-1.556-.127-2.857-1.255-3.834-2.697-.993-1.466-6.284-8.93-5.421-9.357.149-.073 1.042-.419 2.239-.867.242-.09.873 1.084 1.136.986.23-.085.09-1.443.331-1.531l.774-.284c.118-.043.838 1.942.956 1.899.106-.039-.39-2.104-.285-2.142.666-.241 1.33-.478 1.94-.691.102-.036.467.513.565.479.214-.074.155-.728.352-.794a33.36 33.36 0 011.455-.466c1.82-.518 2.968 11.309 2.841 12.87M387.473 389.516c.12-.153-2.288-3.054-2.458-3.274-.913-1.182-1.858-2.299-2.587-3.613-.76-1.37-1.758-2.55-2.745-3.758-.856-1.046-1.647-2.316-3.03-2.694-1.632-.446-4.751-1.407-5.47-1.997 0 0-2.329-1.699-3.263-1.441-.934.258.817 2.707.817 2.707s-3.13-.428-3.429-.465c-.698-.088-.967.982-1.082 1.48-.186.804-.144 1.404.674 1.81l1.639.816c-.16-.08-.83.608-.933.771-.356.566-.252 1.37.105 1.912.11.168 1.402 1.268 1.569 1.034 0 0-1.29 1.801.336 2.857 0 0-.466 1.506.179 2.38.645.873.304 1.383 3.562 2.883 3.257 1.5 4.731 1.47 7.303 2.82 2.572 1.35 3.787 2.156 3.787 2.156l5.026-6.384" fill="#F89D71"/></g><path d="M418.76 329.504c-.792-.212-.533-4.04-.529-4.644.026-3.782 2.266-5.714 5.288-7.59 4.26-2.647 9.447-3.566 14.405-2.97 2.232.268 4.789.627 6.492 2.23 1.376 1.295 2.803 2.539 4.203 3.807.425.385.899.75 1.29 1.17 7.864 8.408 17.91 14.517 29.052 17.55 7.364 2.005 15.688 5.597 20.573 12.003 5.621 7.373 4.719 16.578 5.878 25.23.403 3.012 3.098 4.666 5.133 6.59 6.073 5.74 8.21 18.482-.326 23.176-4.884 2.685-10.65 1.814-15.41 5.043-3.18 2.156-6.151 4.68-10.1 5.232-7.594 1.059-15.918.934-22.614-3.241-7.5-4.676-11.903-12.76-13.347-21.286-2.082-12.29-1.322-22.084-3.068-30.934-.841-4.263-2.212-8.383-3.206-12.606-.394-1.672-.784-3.431-.677-5.157.132-2.12.735-4.383.539-6.5-.28-3.026-1.932-10.754-6.314-9.264 0 0-7.099 2.422-10.677 2.359-1.095-.02-2.141-.026-3.07-.035-1.721-.016-3.04-.04-3.516-.163" fill="#232323"/><g><g transform="translate(352 352)"><mask id="c" fill="#fff"><use xlink:href="#b"/></mask><path d="M7.437 15.818a.125.125 0 01-.124-.11C6.94 12.346 1.958 3.632.427 1.324a.125.125 0 11.209-.138c1.539 2.32 6.548 11.09 6.926 14.492a.125.125 0 01-.125.14" fill="#FFF" mask="url(#c)"/></g><g transform="translate(352 352)"><mask id="e" fill="#fff"><use xlink:href="#d"/></mask><path d="M9.969 17.037a.126.126 0 01-.12-.088c-.463-1.479-1.522-5.073-2.547-8.548C6.278 4.926 5.22 1.333 4.756-.144a.125.125 0 01.239-.075c.463 1.48 1.522 5.073 2.547 8.549 1.024 3.474 2.083 7.067 2.546 8.545a.125.125 0 01-.12.162" fill="#FFF" mask="url(#e)"/></g><g transform="translate(352 352)"><mask id="g" fill="#fff"><use xlink:href="#f"/></mask><path d="M11.719 18.13a.125.125 0 01-.124-.105c-.232-1.532-.834-5.477-1.437-9.422C9.555 4.658 8.952.713 8.72-.82a.125.125 0 11.247-.038l1.438 9.422c.603 3.945 1.205 7.89 1.437 9.422a.125.125 0 01-.123.144" fill="#FFF" mask="url(#g)"/></g></g><g><path d="M194.48 509.522c-1.12.193-2.395-.01-3.44.002-2.662.03-5.324.064-7.986.098-5.262.068-10.523.14-15.784.21l-1.352.018c-2.851.038-5.17-2.279-5.124-5.12l.109-6.884 7.676-2.09c.467-.124 2.01.72 2.536.9.955.33 1.913.648 2.876.951 5.678 1.79 11.611 2.732 17.465 3.903 1.32.264 2.701.556 3.73 1.421 1.578 1.328 2.64 4.352.829 5.916-.44.38-.967.578-1.534.675M67.79 527.712c-2.64-.495-4.827-1.496-6.714-2.588l-15.943-8.798c-3.057-1.295-4.105-3.744-3.052-6.375l2.193-5.479 10.388 1.22 5.528 4.27 8.522 5.587c2.479 1.626 6.633 3.5 6.948 7.017.346 3.862-4.644 5.632-7.87 5.146" fill="#001030"/><path d="M174.92 495.038l-18.979 9.709-37.584-90.224L42.3 342.21l45.35-15.463 52.247 70.635a24.267 24.267 0 013.419 6.482l31.604 91.174z" fill="#2E3062"/><path d="M82.083 355.149l34.735 46.467a10.687 10.687 0 011.85 7.239l-.31 5.668-25.712-24.484-10.563-34.89z" fill="#001030"/><path d="M64.656 511.26l-23.383-5.483 32.1-88.321a3.16 3.16 0 00-.118-2.442s-23.54-45.57-23.598-45.665c-3.3-5.306-5.118-9.854-6.346-15.975l-1.01-11.164 36.58-11.771a3.181 3.181 0 014.097 2.505l-2.205 18.124c.018.109 1.608.71 1.637.816l19.648 60.02a23.21 23.21 0 01-1.074 15.39L64.656 511.26z" fill="#2E3062"/><path d="M87.65 326.747l-2.306 1.559a78.296 78.296 0 01-34.365 12.846L42.3 342.21l-1.57-22.074-24.207-56.04c-3.304-6.735-.568-15.14 6.357-18.065l51.084-16.4c7.83-2.102 13.24 4.86 13.01 14.115L84.95 304.71l2.702 22.036z" fill="#F4B42E"/><path d="M81.99 330.43c-3.53 3.234-12.927 6.274-12.927 6.274L44.827 238.79l15.703-4.912 21.46 96.552zM157.537 216.023l-38.689 22.703-40.777-9.344 1.555 26.606 37.12 2.156a9.29 9.29 0 006.78-1.85l39.11-31.707-5.099-8.564z" fill="#F4B42E"/><path d="M157.537 216.023c-.114-.198 3.22-3.16 3.458-3.387 1.278-1.218 2.582-2.355 3.668-3.76 1.133-1.465 2.51-2.666 3.879-3.9 1.187-1.071 2.338-2.413 4.027-2.612 1.992-.234 6.258-.885 7.205-1.448 0 0 3.03-1.573 4.08-1.108 1.05.465-1.574 2.956-1.574 2.956s3.449.186 3.805.194c.835.02.847 1.503.894 2.103.077.971-.077 1.663-1.108 1.994l-1.95.476c.203-.065.867.855.96 1.062.318.723.054 1.643-.46 2.212-.159.176-1.866 1.233-2.021.93 0 0 1.196 2.327-.896 3.274 0 0 .283 1.838-.627 2.744-.91.905-.6 1.56-4.684 2.738-4.084 1.179-5.807.884-9.06 2.008-3.254 1.124-4.82 1.85-4.82 1.85l-4.776-8.326" fill="#F89D71"/><path d="M173.657 210.543c-.735-.304-2.139.661-2.368 1.294-.147.407-.04.752.206 1.1.121.171.776.898 1.008.867-.519.068-.983.425-1.162.892a1.357 1.357 0 00.284 1.395c.382.403.968.555 1.52.69 1.438.347 3.283 1.424 3.276 1.918-.003.232-.112 1.745.11 1.72.665-.078 2.795-2.884 3.194-3.33 1.071-1.202-.88-4.008-.144-5.78.843-2.03 6.778-6.274 6.926-6.935.062-.275.092-.625-.16-.773-.123-.071-.277-.067-.421-.06-2.598.119-5.523.012-8.121.131-1.197.055-2.395.11-3.587.225-.62.06-1.262.17-1.672.623-.412.455-.64 1.07-.398 1.617.337.765 1.43.813 2.226 1.154-.519.025-1.049.052-1.528.242-.48.189-.906.574-.983 1.062-.073.462.18.926.54 1.244.36.317.816.515 1.262.708l-.008-.004" fill="#511A54"/><path d="M130.509 260.666L381.975.191h-4.431L128.17 258.497l-.063.07c-.284.33-7.006 8.247-12.03 20.553-2.959 7.246-4.699 14.506-5.172 21.577-.593 8.875.816 17.467 4.19 25.537 3.765 9.005 4.84 17.893 3.198 26.417a1.592 1.592 0 001.57 1.892c.75 0 1.42-.53 1.566-1.292 1.763-9.148.624-18.65-3.386-28.241-5.78-13.827-5.46-28.832.954-44.599 4.665-11.467 11.04-19.183 11.51-19.745" fill="#511A54"/><path d="M97.584 272.584c-.067-.22 3.85-2.359 4.132-2.527 1.52-.9 3.047-1.717 4.422-2.843 1.434-1.174 3.046-2.036 4.659-2.932 1.398-.777 2.822-1.827 4.513-1.643 1.993.218 6.297.539 7.346.202 0 0 3.307-.854 4.226-.166.918.687-2.2 2.528-2.2 2.528s3.319.953 3.664 1.04c.81.207.642 1.498.553 2.093-.145.964-.45 1.603-1.53 1.695l-2.162.184c.212-.018.652 1.028.695 1.25.148.775-.317 1.613-.945 2.052-.195.137-2.097.784-2.18.455 0 0 .641 2.535-1.61 2.989 0 0-.14 1.855-1.23 2.533-1.09.679-.936 1.386-5.18 1.62-4.246.234-5.86-.439-9.283-.072-3.423.366-5.113.724-5.113.724l-2.777-9.182" fill="#F89D71"/><path d="M103.245 281.631l-2.445-11.424-36.486 14.978L23 246.028c-2.274 1.096-3.927 2.335-4.958 3.717a15.234 15.234 0 00-2.314 4.446c-.807 2.407-.866 4.89-.18 7.45.688 2.56 2.71 7.39 6.069 14.492l41.224 28.91a5.25 5.25 0 006.101.118l34.303-23.53z" fill="#E2A423"/><path d="M174.521 210.278c-.696-.301-2.026.658-2.244 1.286-.14.405-.039.748.194 1.092.116.17.736.891.955.861a1.401 1.401 0 00-1.101.886 1.395 1.395 0 00.268 1.385c.361.4.916.551 1.44.684 1.362.345 4.295.945 5.601 1.463.963.382 1.148-.845 1.273-1.611.517-3.164 2.856-6.835 3.873-10.038l1.498-.174.421-1.968c.058-.273.087-.62-.152-.767-.116-.071-.262-.067-.398-.06l-7.384.36c-1.134.055-2.269.11-3.399.226-.587.06-1.198.145-1.688.476-.489.33-.812.98-.584 1.524.32.76 1.355.807 2.108 1.145-.49.025-.993.053-1.447.24-.454.189-.859.572-.932 1.057-.069.458.17.919.511 1.234.34.316.772.512 1.195.703l-.008-.004" fill="#F89D71"/></g><g><path d="M55.15 243.53c-4.415 1.47-9.19-.913-10.662-5.323l-13.033-39.03c-.23-.688.142-1.431.83-1.66l13.27-4.42a1.314 1.314 0 011.662.83l13.11 39.26c1.43 4.284-.888 8.914-5.176 10.342" fill="#DA6A3E"/><path d="M45.404 193.148a1.473 1.473 0 011.863.93l11.036 33.05a20.099 20.099 0 01-8.218-3.608l-1.035-.77-13.78-26.227 10.134-3.375z" fill="#511A54"/><path d="M55.845 187.905s8.628 16.769 9.016 28.552c.124 3.76-2.763 7.239-6.529 7.132l-12.611-.75-15.102-34.374 15.719-6.62a11.285 11.285 0 019.419 5.897l.088.163z" fill="#DA6A3E"/><path d="M32.168 214.426s-11.677-15.117-8.484-23.52c2.023-5.325 5.598-8.328 12.695-9.279 5.517-.739 8.98-4.394 14.979-1.54 8.502 4.047 8.124 9.82 3.906 9.39-8.848-.902-9.13 5.068-14.8 4.928-5.679-.14-5.757 4.496-6.06 5.277-1.16 2.967 5.27 24.091 5.27 24.091l-7.506-9.347z" fill="#21374D"/><path d="M39.522 210.071c1.496 2.251 1.64 4.784.32 5.658-1.318.873-3.599-.243-5.094-2.494-1.496-2.251-1.64-4.784-.32-5.658 1.318-.873 3.6.243 5.094 2.494" fill="#DA6A3E"/></g></g></svg>