<svg width="399" height="314" xmlns="http://www.w3.org/2000/svg"><g fill="none" fill-rule="evenodd" opacity=".2"><path d="M402.33 248.283c-14.145 8.177-29.188 15.671-45.987 22.91-13.99 6.028-28.868 11.735-45.487 17.449-36.025 12.383-83.723 26.268-133.195 23.685a206.09 206.09 0 01-24.08-2.68c-42.117-7.23-78.158-27.047-101.482-55.802-7.843-9.667-14.214-20.612-18.938-32.533-10.696-26.994-11.908-55.851-3.411-81.254 2.999-8.97 7.195-17.358 12.467-24.935 9.116-13.093 21.478-24.204 36.746-33.03 20.179-11.663 45.391-19.519 77.083-24.012 8.905-1.262 17.961-2.298 26.715-3.3 21.914-2.504 42.612-4.87 62.252-10.57 8.54-2.478 16.148-5.378 23.257-8.865a105.154 105.154 0 006.245-3.333c24.334-14.067 43.549-38.483 54.1-68.746 1.526-4.38 2.947-9.001 4.319-13.472 6.222-20.256 12.653-41.204 32.032-52.406 9.336-5.396 20.303-7.693 33.53-7.021a105.53 105.53 0 0128.727 5.541c25.781 8.8 49.218 27.676 67.777 54.593 24.391 35.376 37.716 81.175 34.771 119.52-1.01 13.149-3.576 26.428-7.628 39.47-11.758 37.827-36.616 74.619-69.993 103.598-14.631 12.701-31.393 24.542-49.816 35.19l-.003.003z" stroke="#21374D" stroke-width="2"/><path d="M308.31 308.555c-16.338.009-33.113-1.022-51.282-3.152-15.129-1.775-30.867-4.272-48.116-7.633-37.39-7.288-85.64-19.113-127.193-46.086a206.09 206.09 0 01-19.515-14.36C29.345 210.003 8.042 174.82 2.22 138.255.26 125.963.217 113.3 2.086 100.613 6.32 71.887 19.699 46.29 39.759 28.539c7.082-6.268 14.91-11.434 23.264-15.36C77.464 6.397 93.725 2.955 111.361 2.946c23.307-.012 49.07 5.792 78.761 17.746 8.344 3.36 16.705 6.99 24.787 10.5 20.23 8.788 39.338 17.088 59.197 21.972 8.635 2.125 16.673 3.416 24.573 3.951 2.34.158 4.722.237 7.074.236 28.108-.015 56.957-11.552 81.226-32.485 3.511-3.03 7.052-6.323 10.476-9.509 15.517-14.431 31.56-29.357 53.943-29.368 10.784-.005 21.43 3.49 32.55 10.685a105.53 105.53 0 0122.107 19.162c17.927 20.511 28.786 48.576 31.4 81.167 3.436 42.832-7.924 89.157-29.647 120.894-7.45 10.881-16.312 21.098-26.341 30.366-29.097 26.88-69.02 46.315-112.415 54.723-19.022 3.684-39.458 5.558-60.737 5.568h-.004z" fill="#21374D"/></g></svg>